G04 EAGLE Gerber RS-274X export*
G75*
%MOMM*%
%FSLAX34Y34*%
%LPD*%
%INSoldermask Bottom*%
%IPPOS*%
%AMOC8*
5,1,8,0,0,1.08239X$1,22.5*%
G01*
G04 Define Apertures*
%ADD10C,2.903200*%
%ADD11C,7.753200*%
%ADD12C,1.631200*%
%ADD13C,3.549200*%
%ADD14R,1.703200X1.703200*%
%ADD15C,1.703200*%
%ADD16C,0.246203*%
%ADD17C,0.251278*%
%ADD18C,0.255422*%
%ADD19C,0.256275*%
%ADD20C,2.678200*%
%ADD21R,1.631200X1.631200*%
%ADD22C,3.519200*%
%ADD23C,1.611200*%
%ADD24R,1.611200X1.611200*%
%ADD25C,0.259222*%
%ADD26C,0.247294*%
%ADD27C,0.254303*%
%ADD28R,1.361200X1.361200*%
%ADD29C,1.361200*%
%ADD30C,0.258244*%
%ADD31C,1.727200*%
%ADD32R,1.879600X1.879600*%
%ADD33C,1.879600*%
%ADD34C,0.249456*%
%ADD35C,0.251534*%
%ADD36C,0.282831*%
%ADD37C,0.255191*%
%ADD38C,0.254747*%
%ADD39R,2.078200X2.078200*%
%ADD40C,2.078200*%
%ADD41C,2.303200*%
%ADD42C,0.959600*%
%ADD43C,1.259600*%
D10*
X60000Y1020000D03*
D11*
X60000Y1020000D03*
D10*
X940000Y1020000D03*
D11*
X940000Y1020000D03*
D10*
X950000Y50000D03*
D11*
X950000Y50000D03*
D10*
X50000Y50000D03*
D11*
X50000Y50000D03*
D12*
X787200Y968440D03*
X762200Y968440D03*
X787200Y988440D03*
X762200Y988440D03*
D13*
X834900Y1015540D03*
X714500Y1015540D03*
D14*
X843280Y591820D03*
D15*
X868680Y591820D03*
X894080Y591820D03*
X919480Y591820D03*
D14*
X843280Y502920D03*
D15*
X868680Y502920D03*
X894080Y502920D03*
X919480Y502920D03*
D16*
X254029Y929896D02*
X254029Y941112D01*
X271751Y941112D01*
X271751Y929896D01*
X254029Y929896D01*
X254029Y932235D02*
X271751Y932235D01*
X271751Y934574D02*
X254029Y934574D01*
X254029Y936913D02*
X271751Y936913D01*
X271751Y939252D02*
X254029Y939252D01*
X254029Y911604D02*
X254029Y900388D01*
X254029Y911604D02*
X271751Y911604D01*
X271751Y900388D01*
X254029Y900388D01*
X254029Y902727D02*
X271751Y902727D01*
X271751Y905066D02*
X254029Y905066D01*
X254029Y907405D02*
X271751Y907405D01*
X271751Y909744D02*
X254029Y909744D01*
X94009Y306112D02*
X94009Y294896D01*
X94009Y306112D02*
X111731Y306112D01*
X111731Y294896D01*
X94009Y294896D01*
X94009Y297235D02*
X111731Y297235D01*
X111731Y299574D02*
X94009Y299574D01*
X94009Y301913D02*
X111731Y301913D01*
X111731Y304252D02*
X94009Y304252D01*
X94009Y276604D02*
X94009Y265388D01*
X94009Y276604D02*
X111731Y276604D01*
X111731Y265388D01*
X94009Y265388D01*
X94009Y267727D02*
X111731Y267727D01*
X111731Y270066D02*
X94009Y270066D01*
X94009Y272405D02*
X111731Y272405D01*
X111731Y274744D02*
X94009Y274744D01*
X121878Y312449D02*
X133094Y312449D01*
X121878Y312449D02*
X121878Y330171D01*
X133094Y330171D01*
X133094Y312449D01*
X133094Y314788D02*
X121878Y314788D01*
X121878Y317127D02*
X133094Y317127D01*
X133094Y319466D02*
X121878Y319466D01*
X121878Y321805D02*
X133094Y321805D01*
X133094Y324144D02*
X121878Y324144D01*
X121878Y326483D02*
X133094Y326483D01*
X133094Y328822D02*
X121878Y328822D01*
X151386Y312449D02*
X162602Y312449D01*
X151386Y312449D02*
X151386Y330171D01*
X162602Y330171D01*
X162602Y312449D01*
X162602Y314788D02*
X151386Y314788D01*
X151386Y317127D02*
X162602Y317127D01*
X162602Y319466D02*
X151386Y319466D01*
X151386Y321805D02*
X162602Y321805D01*
X162602Y324144D02*
X151386Y324144D01*
X151386Y326483D02*
X162602Y326483D01*
X162602Y328822D02*
X151386Y328822D01*
X120679Y306112D02*
X120679Y294896D01*
X120679Y306112D02*
X138401Y306112D01*
X138401Y294896D01*
X120679Y294896D01*
X120679Y297235D02*
X138401Y297235D01*
X138401Y299574D02*
X120679Y299574D01*
X120679Y301913D02*
X138401Y301913D01*
X138401Y304252D02*
X120679Y304252D01*
X120679Y276604D02*
X120679Y265388D01*
X120679Y276604D02*
X138401Y276604D01*
X138401Y265388D01*
X120679Y265388D01*
X120679Y267727D02*
X138401Y267727D01*
X138401Y270066D02*
X120679Y270066D01*
X120679Y272405D02*
X138401Y272405D01*
X138401Y274744D02*
X120679Y274744D01*
X539721Y293328D02*
X539721Y304544D01*
X539721Y293328D02*
X521999Y293328D01*
X521999Y304544D01*
X539721Y304544D01*
X539721Y295667D02*
X521999Y295667D01*
X521999Y298006D02*
X539721Y298006D01*
X539721Y300345D02*
X521999Y300345D01*
X521999Y302684D02*
X539721Y302684D01*
X539721Y322836D02*
X539721Y334052D01*
X539721Y322836D02*
X521999Y322836D01*
X521999Y334052D01*
X539721Y334052D01*
X539721Y325175D02*
X521999Y325175D01*
X521999Y327514D02*
X539721Y327514D01*
X539721Y329853D02*
X521999Y329853D01*
X521999Y332192D02*
X539721Y332192D01*
X495329Y331512D02*
X495329Y320296D01*
X495329Y331512D02*
X513051Y331512D01*
X513051Y320296D01*
X495329Y320296D01*
X495329Y322635D02*
X513051Y322635D01*
X513051Y324974D02*
X495329Y324974D01*
X495329Y327313D02*
X513051Y327313D01*
X513051Y329652D02*
X495329Y329652D01*
X495329Y302004D02*
X495329Y290788D01*
X495329Y302004D02*
X513051Y302004D01*
X513051Y290788D01*
X495329Y290788D01*
X495329Y293127D02*
X513051Y293127D01*
X513051Y295466D02*
X495329Y295466D01*
X495329Y297805D02*
X513051Y297805D01*
X513051Y300144D02*
X495329Y300144D01*
X697259Y321566D02*
X697259Y332782D01*
X714981Y332782D01*
X714981Y321566D01*
X697259Y321566D01*
X697259Y323905D02*
X714981Y323905D01*
X714981Y326244D02*
X697259Y326244D01*
X697259Y328583D02*
X714981Y328583D01*
X714981Y330922D02*
X697259Y330922D01*
X697259Y303274D02*
X697259Y292058D01*
X697259Y303274D02*
X714981Y303274D01*
X714981Y292058D01*
X697259Y292058D01*
X697259Y294397D02*
X714981Y294397D01*
X714981Y296736D02*
X697259Y296736D01*
X697259Y299075D02*
X714981Y299075D01*
X714981Y301414D02*
X697259Y301414D01*
X720119Y289602D02*
X720119Y278386D01*
X720119Y289602D02*
X737841Y289602D01*
X737841Y278386D01*
X720119Y278386D01*
X720119Y280725D02*
X737841Y280725D01*
X737841Y283064D02*
X720119Y283064D01*
X720119Y285403D02*
X737841Y285403D01*
X737841Y287742D02*
X720119Y287742D01*
X720119Y260094D02*
X720119Y248878D01*
X720119Y260094D02*
X737841Y260094D01*
X737841Y248878D01*
X720119Y248878D01*
X720119Y251217D02*
X737841Y251217D01*
X737841Y253556D02*
X720119Y253556D01*
X720119Y255895D02*
X737841Y255895D01*
X737841Y258234D02*
X720119Y258234D01*
D17*
X289922Y240235D02*
X272402Y240235D01*
X272402Y244005D01*
X289922Y244005D01*
X289922Y240235D01*
X289922Y242622D02*
X272402Y242622D01*
X272402Y246735D02*
X289922Y246735D01*
X272402Y246735D02*
X272402Y250505D01*
X289922Y250505D01*
X289922Y246735D01*
X289922Y249122D02*
X272402Y249122D01*
X272402Y253235D02*
X289922Y253235D01*
X272402Y253235D02*
X272402Y257005D01*
X289922Y257005D01*
X289922Y253235D01*
X289922Y255622D02*
X272402Y255622D01*
X272402Y259735D02*
X289922Y259735D01*
X272402Y259735D02*
X272402Y263505D01*
X289922Y263505D01*
X289922Y259735D01*
X289922Y262122D02*
X272402Y262122D01*
X272402Y266235D02*
X289922Y266235D01*
X272402Y266235D02*
X272402Y270005D01*
X289922Y270005D01*
X289922Y266235D01*
X289922Y268622D02*
X272402Y268622D01*
X272402Y272735D02*
X289922Y272735D01*
X272402Y272735D02*
X272402Y276505D01*
X289922Y276505D01*
X289922Y272735D01*
X289922Y275122D02*
X272402Y275122D01*
X272402Y279235D02*
X289922Y279235D01*
X272402Y279235D02*
X272402Y283005D01*
X289922Y283005D01*
X289922Y279235D01*
X289922Y281622D02*
X272402Y281622D01*
X329838Y279235D02*
X347358Y279235D01*
X329838Y279235D02*
X329838Y283005D01*
X347358Y283005D01*
X347358Y279235D01*
X347358Y281622D02*
X329838Y281622D01*
X329838Y272735D02*
X347358Y272735D01*
X329838Y272735D02*
X329838Y276505D01*
X347358Y276505D01*
X347358Y272735D01*
X347358Y275122D02*
X329838Y275122D01*
X329838Y266235D02*
X347358Y266235D01*
X329838Y266235D02*
X329838Y270005D01*
X347358Y270005D01*
X347358Y266235D01*
X347358Y268622D02*
X329838Y268622D01*
X329838Y259735D02*
X347358Y259735D01*
X329838Y259735D02*
X329838Y263505D01*
X347358Y263505D01*
X347358Y259735D01*
X347358Y262122D02*
X329838Y262122D01*
X329838Y253235D02*
X347358Y253235D01*
X329838Y253235D02*
X329838Y257005D01*
X347358Y257005D01*
X347358Y253235D01*
X347358Y255622D02*
X329838Y255622D01*
X329838Y246735D02*
X347358Y246735D01*
X329838Y246735D02*
X329838Y250505D01*
X347358Y250505D01*
X347358Y246735D01*
X347358Y249122D02*
X329838Y249122D01*
X329838Y240235D02*
X347358Y240235D01*
X329838Y240235D02*
X329838Y244005D01*
X347358Y244005D01*
X347358Y240235D01*
X347358Y242622D02*
X329838Y242622D01*
D18*
X610086Y248810D02*
X610086Y260892D01*
X615514Y260892D01*
X615514Y248810D01*
X610086Y248810D01*
X610086Y251236D02*
X615514Y251236D01*
X615514Y253662D02*
X610086Y253662D01*
X610086Y256088D02*
X615514Y256088D01*
X615514Y258514D02*
X610086Y258514D01*
X619586Y260892D02*
X619586Y248810D01*
X619586Y260892D02*
X625014Y260892D01*
X625014Y248810D01*
X619586Y248810D01*
X619586Y251236D02*
X625014Y251236D01*
X625014Y253662D02*
X619586Y253662D01*
X619586Y256088D02*
X625014Y256088D01*
X625014Y258514D02*
X619586Y258514D01*
X629086Y260892D02*
X629086Y248810D01*
X629086Y260892D02*
X634514Y260892D01*
X634514Y248810D01*
X629086Y248810D01*
X629086Y251236D02*
X634514Y251236D01*
X634514Y253662D02*
X629086Y253662D01*
X629086Y256088D02*
X634514Y256088D01*
X634514Y258514D02*
X629086Y258514D01*
X629086Y236330D02*
X629086Y224248D01*
X629086Y236330D02*
X634514Y236330D01*
X634514Y224248D01*
X629086Y224248D01*
X629086Y226674D02*
X634514Y226674D01*
X634514Y229100D02*
X629086Y229100D01*
X629086Y231526D02*
X634514Y231526D01*
X634514Y233952D02*
X629086Y233952D01*
X619586Y236330D02*
X619586Y224248D01*
X619586Y236330D02*
X625014Y236330D01*
X625014Y224248D01*
X619586Y224248D01*
X619586Y226674D02*
X625014Y226674D01*
X625014Y229100D02*
X619586Y229100D01*
X619586Y231526D02*
X625014Y231526D01*
X625014Y233952D02*
X619586Y233952D01*
X610086Y236330D02*
X610086Y224248D01*
X610086Y236330D02*
X615514Y236330D01*
X615514Y224248D01*
X610086Y224248D01*
X610086Y226674D02*
X615514Y226674D01*
X615514Y229100D02*
X610086Y229100D01*
X610086Y231526D02*
X615514Y231526D01*
X615514Y233952D02*
X610086Y233952D01*
D16*
X250851Y835618D02*
X250851Y846834D01*
X250851Y835618D02*
X224129Y835618D01*
X224129Y846834D01*
X250851Y846834D01*
X250851Y837957D02*
X224129Y837957D01*
X224129Y840296D02*
X250851Y840296D01*
X250851Y842635D02*
X224129Y842635D01*
X224129Y844974D02*
X250851Y844974D01*
X250851Y865126D02*
X250851Y876342D01*
X250851Y865126D02*
X224129Y865126D01*
X224129Y876342D01*
X250851Y876342D01*
X250851Y867465D02*
X224129Y867465D01*
X224129Y869804D02*
X250851Y869804D01*
X250851Y872143D02*
X224129Y872143D01*
X224129Y874482D02*
X250851Y874482D01*
D19*
X104219Y73651D02*
X104219Y59129D01*
X104219Y73651D02*
X121841Y73651D01*
X121841Y59129D01*
X104219Y59129D01*
X104219Y61564D02*
X121841Y61564D01*
X121841Y63999D02*
X104219Y63999D01*
X104219Y66434D02*
X121841Y66434D01*
X121841Y68869D02*
X104219Y68869D01*
X104219Y71304D02*
X121841Y71304D01*
X104219Y47551D02*
X104219Y33029D01*
X104219Y47551D02*
X121841Y47551D01*
X121841Y33029D01*
X104219Y33029D01*
X104219Y35464D02*
X121841Y35464D01*
X121841Y37899D02*
X104219Y37899D01*
X104219Y40334D02*
X121841Y40334D01*
X121841Y42769D02*
X104219Y42769D01*
X104219Y45204D02*
X121841Y45204D01*
X297259Y59129D02*
X297259Y73651D01*
X314881Y73651D01*
X314881Y59129D01*
X297259Y59129D01*
X297259Y61564D02*
X314881Y61564D01*
X314881Y63999D02*
X297259Y63999D01*
X297259Y66434D02*
X314881Y66434D01*
X314881Y68869D02*
X297259Y68869D01*
X297259Y71304D02*
X314881Y71304D01*
X297259Y47551D02*
X297259Y33029D01*
X297259Y47551D02*
X314881Y47551D01*
X314881Y33029D01*
X297259Y33029D01*
X297259Y35464D02*
X314881Y35464D01*
X314881Y37899D02*
X297259Y37899D01*
X297259Y40334D02*
X314881Y40334D01*
X314881Y42769D02*
X297259Y42769D01*
X297259Y45204D02*
X314881Y45204D01*
X382349Y59129D02*
X382349Y73651D01*
X399971Y73651D01*
X399971Y59129D01*
X382349Y59129D01*
X382349Y61564D02*
X399971Y61564D01*
X399971Y63999D02*
X382349Y63999D01*
X382349Y66434D02*
X399971Y66434D01*
X399971Y68869D02*
X382349Y68869D01*
X382349Y71304D02*
X399971Y71304D01*
X382349Y47551D02*
X382349Y33029D01*
X382349Y47551D02*
X399971Y47551D01*
X399971Y33029D01*
X382349Y33029D01*
X382349Y35464D02*
X399971Y35464D01*
X399971Y37899D02*
X382349Y37899D01*
X382349Y40334D02*
X399971Y40334D01*
X399971Y42769D02*
X382349Y42769D01*
X382349Y45204D02*
X399971Y45204D01*
X577929Y59129D02*
X577929Y73651D01*
X595551Y73651D01*
X595551Y59129D01*
X577929Y59129D01*
X577929Y61564D02*
X595551Y61564D01*
X595551Y63999D02*
X577929Y63999D01*
X577929Y66434D02*
X595551Y66434D01*
X595551Y68869D02*
X577929Y68869D01*
X577929Y71304D02*
X595551Y71304D01*
X577929Y47551D02*
X577929Y33029D01*
X577929Y47551D02*
X595551Y47551D01*
X595551Y33029D01*
X577929Y33029D01*
X577929Y35464D02*
X595551Y35464D01*
X595551Y37899D02*
X577929Y37899D01*
X577929Y40334D02*
X595551Y40334D01*
X595551Y42769D02*
X577929Y42769D01*
X577929Y45204D02*
X595551Y45204D01*
X664289Y59129D02*
X664289Y73651D01*
X681911Y73651D01*
X681911Y59129D01*
X664289Y59129D01*
X664289Y61564D02*
X681911Y61564D01*
X681911Y63999D02*
X664289Y63999D01*
X664289Y66434D02*
X681911Y66434D01*
X681911Y68869D02*
X664289Y68869D01*
X664289Y71304D02*
X681911Y71304D01*
X664289Y47551D02*
X664289Y33029D01*
X664289Y47551D02*
X681911Y47551D01*
X681911Y33029D01*
X664289Y33029D01*
X664289Y35464D02*
X681911Y35464D01*
X681911Y37899D02*
X664289Y37899D01*
X664289Y40334D02*
X681911Y40334D01*
X681911Y42769D02*
X664289Y42769D01*
X664289Y45204D02*
X681911Y45204D01*
D12*
X139700Y91440D03*
X139700Y71440D03*
X139700Y51440D03*
X139700Y31440D03*
D20*
X110700Y16440D03*
X168700Y16440D03*
X110700Y96440D03*
X168700Y96440D03*
D12*
X279400Y91440D03*
X279400Y71440D03*
X279400Y51440D03*
X279400Y31440D03*
D20*
X250400Y16440D03*
X308400Y16440D03*
X250400Y96440D03*
X308400Y96440D03*
D12*
X419100Y91440D03*
X419100Y71440D03*
X419100Y51440D03*
X419100Y31440D03*
D20*
X390100Y16440D03*
X448100Y16440D03*
X390100Y96440D03*
X448100Y96440D03*
D12*
X558800Y91440D03*
X558800Y71440D03*
X558800Y51440D03*
X558800Y31440D03*
D20*
X529800Y16440D03*
X587800Y16440D03*
X529800Y96440D03*
X587800Y96440D03*
D12*
X698500Y91440D03*
X698500Y71440D03*
X698500Y51440D03*
X698500Y31440D03*
D20*
X669500Y16440D03*
X727500Y16440D03*
X669500Y96440D03*
X727500Y96440D03*
D21*
X855980Y855980D03*
D12*
X880980Y855980D03*
X900980Y855980D03*
X925980Y855980D03*
D22*
X825280Y828880D03*
X956680Y828880D03*
D23*
X209550Y11430D03*
X209550Y36830D03*
X209550Y62230D03*
D24*
X209550Y87630D03*
D23*
X349250Y11430D03*
X349250Y36830D03*
X349250Y62230D03*
D24*
X349250Y87630D03*
D23*
X488950Y11430D03*
X488950Y36830D03*
X488950Y62230D03*
D24*
X488950Y87630D03*
D23*
X628650Y11430D03*
X628650Y36830D03*
X628650Y62230D03*
D24*
X628650Y87630D03*
D23*
X768350Y11430D03*
X768350Y36830D03*
X768350Y62230D03*
D24*
X768350Y87630D03*
D25*
X214159Y132589D02*
X214159Y142341D01*
X227801Y142341D01*
X227801Y132589D01*
X214159Y132589D01*
X214159Y135051D02*
X227801Y135051D01*
X227801Y137513D02*
X214159Y137513D01*
X214159Y139975D02*
X227801Y139975D01*
X214159Y123951D02*
X214159Y114199D01*
X214159Y123951D02*
X227801Y123951D01*
X227801Y114199D01*
X214159Y114199D01*
X214159Y116661D02*
X227801Y116661D01*
X227801Y119123D02*
X214159Y119123D01*
X214159Y121585D02*
X227801Y121585D01*
X191243Y132645D02*
X191243Y142397D01*
X204885Y142397D01*
X204885Y132645D01*
X191243Y132645D01*
X191243Y135107D02*
X204885Y135107D01*
X204885Y137569D02*
X191243Y137569D01*
X191243Y140031D02*
X204885Y140031D01*
X191243Y124007D02*
X191243Y114255D01*
X191243Y124007D02*
X204885Y124007D01*
X204885Y114255D01*
X191243Y114255D01*
X191243Y116717D02*
X204885Y116717D01*
X204885Y119179D02*
X191243Y119179D01*
X191243Y121641D02*
X204885Y121641D01*
X353859Y132589D02*
X353859Y142341D01*
X367501Y142341D01*
X367501Y132589D01*
X353859Y132589D01*
X353859Y135051D02*
X367501Y135051D01*
X367501Y137513D02*
X353859Y137513D01*
X353859Y139975D02*
X367501Y139975D01*
X353859Y123951D02*
X353859Y114199D01*
X353859Y123951D02*
X367501Y123951D01*
X367501Y114199D01*
X353859Y114199D01*
X353859Y116661D02*
X367501Y116661D01*
X367501Y119123D02*
X353859Y119123D01*
X353859Y121585D02*
X367501Y121585D01*
X330999Y132589D02*
X330999Y142341D01*
X344641Y142341D01*
X344641Y132589D01*
X330999Y132589D01*
X330999Y135051D02*
X344641Y135051D01*
X344641Y137513D02*
X330999Y137513D01*
X330999Y139975D02*
X344641Y139975D01*
X330999Y123951D02*
X330999Y114199D01*
X330999Y123951D02*
X344641Y123951D01*
X344641Y114199D01*
X330999Y114199D01*
X330999Y116661D02*
X344641Y116661D01*
X344641Y119123D02*
X330999Y119123D01*
X330999Y121585D02*
X344641Y121585D01*
X493559Y132589D02*
X493559Y142341D01*
X507201Y142341D01*
X507201Y132589D01*
X493559Y132589D01*
X493559Y135051D02*
X507201Y135051D01*
X507201Y137513D02*
X493559Y137513D01*
X493559Y139975D02*
X507201Y139975D01*
X493559Y123951D02*
X493559Y114199D01*
X493559Y123951D02*
X507201Y123951D01*
X507201Y114199D01*
X493559Y114199D01*
X493559Y116661D02*
X507201Y116661D01*
X507201Y119123D02*
X493559Y119123D01*
X493559Y121585D02*
X507201Y121585D01*
X470699Y132589D02*
X470699Y142341D01*
X484341Y142341D01*
X484341Y132589D01*
X470699Y132589D01*
X470699Y135051D02*
X484341Y135051D01*
X484341Y137513D02*
X470699Y137513D01*
X470699Y139975D02*
X484341Y139975D01*
X470699Y123951D02*
X470699Y114199D01*
X470699Y123951D02*
X484341Y123951D01*
X484341Y114199D01*
X470699Y114199D01*
X470699Y116661D02*
X484341Y116661D01*
X484341Y119123D02*
X470699Y119123D01*
X470699Y121585D02*
X484341Y121585D01*
X610399Y132589D02*
X610399Y142341D01*
X624041Y142341D01*
X624041Y132589D01*
X610399Y132589D01*
X610399Y135051D02*
X624041Y135051D01*
X624041Y137513D02*
X610399Y137513D01*
X610399Y139975D02*
X624041Y139975D01*
X610399Y123951D02*
X610399Y114199D01*
X610399Y123951D02*
X624041Y123951D01*
X624041Y114199D01*
X610399Y114199D01*
X610399Y116661D02*
X624041Y116661D01*
X624041Y119123D02*
X610399Y119123D01*
X610399Y121585D02*
X624041Y121585D01*
X633259Y132589D02*
X633259Y142341D01*
X646901Y142341D01*
X646901Y132589D01*
X633259Y132589D01*
X633259Y135051D02*
X646901Y135051D01*
X646901Y137513D02*
X633259Y137513D01*
X633259Y139975D02*
X646901Y139975D01*
X633259Y123951D02*
X633259Y114199D01*
X633259Y123951D02*
X646901Y123951D01*
X646901Y114199D01*
X633259Y114199D01*
X633259Y116661D02*
X646901Y116661D01*
X646901Y119123D02*
X633259Y119123D01*
X633259Y121585D02*
X646901Y121585D01*
D26*
X571217Y626080D02*
X556680Y640617D01*
X571217Y626080D02*
X566720Y621583D01*
X552183Y636120D01*
X556680Y640617D01*
X564371Y623932D02*
X569069Y623932D01*
X571016Y626281D02*
X562022Y626281D01*
X559673Y628630D02*
X568667Y628630D01*
X566318Y630979D02*
X557324Y630979D01*
X554975Y633328D02*
X563969Y633328D01*
X561620Y635677D02*
X552626Y635677D01*
X554089Y638026D02*
X559271Y638026D01*
X556922Y640375D02*
X556438Y640375D01*
X547700Y631637D02*
X562237Y617100D01*
X557740Y612603D01*
X543203Y627140D01*
X547700Y631637D01*
X555391Y614952D02*
X560089Y614952D01*
X562036Y617301D02*
X553042Y617301D01*
X550693Y619650D02*
X559687Y619650D01*
X557338Y621999D02*
X548344Y621999D01*
X545995Y624348D02*
X554989Y624348D01*
X552640Y626697D02*
X543646Y626697D01*
X545109Y629046D02*
X550291Y629046D01*
X547942Y631395D02*
X547458Y631395D01*
X538720Y622657D02*
X553257Y608120D01*
X548760Y603623D01*
X534223Y618160D01*
X538720Y622657D01*
X546411Y605972D02*
X551109Y605972D01*
X553056Y608321D02*
X544062Y608321D01*
X541713Y610670D02*
X550707Y610670D01*
X548358Y613019D02*
X539364Y613019D01*
X537015Y615368D02*
X546009Y615368D01*
X543660Y617717D02*
X534666Y617717D01*
X536129Y620066D02*
X541311Y620066D01*
X538962Y622415D02*
X538478Y622415D01*
X529740Y613677D02*
X544277Y599140D01*
X539780Y594643D01*
X525243Y609180D01*
X529740Y613677D01*
X537431Y596992D02*
X542129Y596992D01*
X544076Y599341D02*
X535082Y599341D01*
X532733Y601690D02*
X541727Y601690D01*
X539378Y604039D02*
X530384Y604039D01*
X528035Y606388D02*
X537029Y606388D01*
X534680Y608737D02*
X525686Y608737D01*
X527149Y611086D02*
X532331Y611086D01*
X529982Y613435D02*
X529498Y613435D01*
X509537Y633880D02*
X495000Y648417D01*
X509537Y633880D02*
X505040Y629383D01*
X490503Y643920D01*
X495000Y648417D01*
X502691Y631732D02*
X507389Y631732D01*
X509336Y634081D02*
X500342Y634081D01*
X497993Y636430D02*
X506987Y636430D01*
X504638Y638779D02*
X495644Y638779D01*
X493295Y641128D02*
X502289Y641128D01*
X499940Y643477D02*
X490946Y643477D01*
X492409Y645826D02*
X497591Y645826D01*
X495242Y648175D02*
X494758Y648175D01*
X503980Y657397D02*
X518517Y642860D01*
X514020Y638363D01*
X499483Y652900D01*
X503980Y657397D01*
X511671Y640712D02*
X516369Y640712D01*
X518316Y643061D02*
X509322Y643061D01*
X506973Y645410D02*
X515967Y645410D01*
X513618Y647759D02*
X504624Y647759D01*
X502275Y650108D02*
X511269Y650108D01*
X508920Y652457D02*
X499926Y652457D01*
X501389Y654806D02*
X506571Y654806D01*
X504222Y657155D02*
X503738Y657155D01*
X512960Y666377D02*
X527497Y651840D01*
X523000Y647343D01*
X508463Y661880D01*
X512960Y666377D01*
X520651Y649692D02*
X525349Y649692D01*
X527296Y652041D02*
X518302Y652041D01*
X515953Y654390D02*
X524947Y654390D01*
X522598Y656739D02*
X513604Y656739D01*
X511255Y659088D02*
X520249Y659088D01*
X517900Y661437D02*
X508906Y661437D01*
X510369Y663786D02*
X515551Y663786D01*
X513202Y666135D02*
X512718Y666135D01*
X521940Y675357D02*
X536477Y660820D01*
X531980Y656323D01*
X517443Y670860D01*
X521940Y675357D01*
X529631Y658672D02*
X534329Y658672D01*
X536276Y661021D02*
X527282Y661021D01*
X524933Y663370D02*
X533927Y663370D01*
X531578Y665719D02*
X522584Y665719D01*
X520235Y668068D02*
X529229Y668068D01*
X526880Y670417D02*
X517886Y670417D01*
X519349Y672766D02*
X524531Y672766D01*
X522182Y675115D02*
X521698Y675115D01*
D25*
X491957Y590597D02*
X498853Y583701D01*
X491957Y590597D02*
X501603Y600243D01*
X508499Y593347D01*
X498853Y583701D01*
X501315Y586163D02*
X496391Y586163D01*
X493929Y588625D02*
X503777Y588625D01*
X506239Y591087D02*
X492447Y591087D01*
X494909Y593549D02*
X508297Y593549D01*
X505835Y596011D02*
X497371Y596011D01*
X499833Y598473D02*
X503373Y598473D01*
X504961Y577593D02*
X511857Y570697D01*
X504961Y577593D02*
X514607Y587239D01*
X521503Y580343D01*
X511857Y570697D01*
X514319Y573159D02*
X509395Y573159D01*
X506933Y575621D02*
X516781Y575621D01*
X519243Y578083D02*
X505451Y578083D01*
X507913Y580545D02*
X521301Y580545D01*
X518839Y583007D02*
X510375Y583007D01*
X512837Y585469D02*
X516377Y585469D01*
D27*
X632850Y298198D02*
X644438Y298198D01*
X644438Y292794D01*
X632850Y292794D01*
X632850Y298198D01*
X632850Y295210D02*
X644438Y295210D01*
X644438Y297626D02*
X632850Y297626D01*
X632850Y288698D02*
X644438Y288698D01*
X644438Y283294D01*
X632850Y283294D01*
X632850Y288698D01*
X632850Y285710D02*
X644438Y285710D01*
X644438Y288126D02*
X632850Y288126D01*
X632850Y279198D02*
X644438Y279198D01*
X644438Y273794D01*
X632850Y273794D01*
X632850Y279198D01*
X632850Y276210D02*
X644438Y276210D01*
X644438Y278626D02*
X632850Y278626D01*
X619370Y279198D02*
X607782Y279198D01*
X619370Y279198D02*
X619370Y273794D01*
X607782Y273794D01*
X607782Y279198D01*
X607782Y276210D02*
X619370Y276210D01*
X619370Y278626D02*
X607782Y278626D01*
X607782Y298198D02*
X619370Y298198D01*
X619370Y292794D01*
X607782Y292794D01*
X607782Y298198D01*
X607782Y295210D02*
X619370Y295210D01*
X619370Y297626D02*
X607782Y297626D01*
D28*
X142240Y347450D03*
D29*
X142240Y361950D03*
X142240Y376450D03*
D25*
X26199Y490729D02*
X26199Y500481D01*
X39841Y500481D01*
X39841Y490729D01*
X26199Y490729D01*
X26199Y493191D02*
X39841Y493191D01*
X39841Y495653D02*
X26199Y495653D01*
X26199Y498115D02*
X39841Y498115D01*
X26199Y482091D02*
X26199Y472339D01*
X26199Y482091D02*
X39841Y482091D01*
X39841Y472339D01*
X26199Y472339D01*
X26199Y474801D02*
X39841Y474801D01*
X39841Y477263D02*
X26199Y477263D01*
X26199Y479725D02*
X39841Y479725D01*
X334809Y387451D02*
X334809Y377699D01*
X334809Y387451D02*
X348451Y387451D01*
X348451Y377699D01*
X334809Y377699D01*
X334809Y380161D02*
X348451Y380161D01*
X348451Y382623D02*
X334809Y382623D01*
X334809Y385085D02*
X348451Y385085D01*
X334809Y369061D02*
X334809Y359309D01*
X334809Y369061D02*
X348451Y369061D01*
X348451Y359309D01*
X334809Y359309D01*
X334809Y361771D02*
X348451Y361771D01*
X348451Y364233D02*
X334809Y364233D01*
X334809Y366695D02*
X348451Y366695D01*
X313219Y377699D02*
X313219Y387451D01*
X326861Y387451D01*
X326861Y377699D01*
X313219Y377699D01*
X313219Y380161D02*
X326861Y380161D01*
X326861Y382623D02*
X313219Y382623D01*
X313219Y385085D02*
X326861Y385085D01*
X313219Y369061D02*
X313219Y359309D01*
X313219Y369061D02*
X326861Y369061D01*
X326861Y359309D01*
X313219Y359309D01*
X313219Y361771D02*
X326861Y361771D01*
X326861Y364233D02*
X313219Y364233D01*
X313219Y366695D02*
X326861Y366695D01*
X291629Y377699D02*
X291629Y387451D01*
X305271Y387451D01*
X305271Y377699D01*
X291629Y377699D01*
X291629Y380161D02*
X305271Y380161D01*
X305271Y382623D02*
X291629Y382623D01*
X291629Y385085D02*
X305271Y385085D01*
X291629Y369061D02*
X291629Y359309D01*
X291629Y369061D02*
X305271Y369061D01*
X305271Y359309D01*
X291629Y359309D01*
X291629Y361771D02*
X305271Y361771D01*
X305271Y364233D02*
X291629Y364233D01*
X291629Y366695D02*
X305271Y366695D01*
X270039Y377699D02*
X270039Y387451D01*
X283681Y387451D01*
X283681Y377699D01*
X270039Y377699D01*
X270039Y380161D02*
X283681Y380161D01*
X283681Y382623D02*
X270039Y382623D01*
X270039Y385085D02*
X283681Y385085D01*
X270039Y369061D02*
X270039Y359309D01*
X270039Y369061D02*
X283681Y369061D01*
X283681Y359309D01*
X270039Y359309D01*
X270039Y361771D02*
X283681Y361771D01*
X283681Y364233D02*
X270039Y364233D01*
X270039Y366695D02*
X283681Y366695D01*
D30*
X305502Y1025232D02*
X323442Y1025232D01*
X323442Y1013468D01*
X305502Y1013468D01*
X305502Y1025232D01*
X305502Y1015921D02*
X323442Y1015921D01*
X323442Y1018374D02*
X305502Y1018374D01*
X305502Y1020827D02*
X323442Y1020827D01*
X323442Y1023280D02*
X305502Y1023280D01*
X291398Y1025232D02*
X273458Y1025232D01*
X291398Y1025232D02*
X291398Y1013468D01*
X273458Y1013468D01*
X273458Y1025232D01*
X273458Y1015921D02*
X291398Y1015921D01*
X291398Y1018374D02*
X273458Y1018374D01*
X273458Y1020827D02*
X291398Y1020827D01*
X291398Y1023280D02*
X273458Y1023280D01*
D31*
X44480Y786960D02*
X29240Y786960D01*
X29240Y812360D02*
X44480Y812360D01*
X44480Y837760D02*
X29240Y837760D01*
X29240Y863160D02*
X44480Y863160D01*
X44480Y888560D02*
X29240Y888560D01*
X29240Y913960D02*
X44480Y913960D01*
D32*
X33020Y454660D03*
D33*
X33020Y429260D03*
X33020Y403860D03*
D34*
X421520Y423146D02*
X440752Y423146D01*
X440752Y417594D01*
X421520Y417594D01*
X421520Y423146D01*
X421520Y419964D02*
X440752Y419964D01*
X440752Y422334D02*
X421520Y422334D01*
X421520Y410446D02*
X440752Y410446D01*
X440752Y404894D01*
X421520Y404894D01*
X421520Y410446D01*
X421520Y407264D02*
X440752Y407264D01*
X440752Y409634D02*
X421520Y409634D01*
X421520Y397746D02*
X440752Y397746D01*
X440752Y392194D01*
X421520Y392194D01*
X421520Y397746D01*
X421520Y394564D02*
X440752Y394564D01*
X440752Y396934D02*
X421520Y396934D01*
X421520Y385046D02*
X440752Y385046D01*
X440752Y379494D01*
X421520Y379494D01*
X421520Y385046D01*
X421520Y381864D02*
X440752Y381864D01*
X440752Y384234D02*
X421520Y384234D01*
X421520Y372346D02*
X440752Y372346D01*
X440752Y366794D01*
X421520Y366794D01*
X421520Y372346D01*
X421520Y369164D02*
X440752Y369164D01*
X440752Y371534D02*
X421520Y371534D01*
X421520Y359646D02*
X440752Y359646D01*
X440752Y354094D01*
X421520Y354094D01*
X421520Y359646D01*
X421520Y356464D02*
X440752Y356464D01*
X440752Y358834D02*
X421520Y358834D01*
X421520Y346946D02*
X440752Y346946D01*
X440752Y341394D01*
X421520Y341394D01*
X421520Y346946D01*
X421520Y343764D02*
X440752Y343764D01*
X440752Y346134D02*
X421520Y346134D01*
X391280Y346946D02*
X372048Y346946D01*
X391280Y346946D02*
X391280Y341394D01*
X372048Y341394D01*
X372048Y346946D01*
X372048Y343764D02*
X391280Y343764D01*
X391280Y346134D02*
X372048Y346134D01*
X372048Y359646D02*
X391280Y359646D01*
X391280Y354094D01*
X372048Y354094D01*
X372048Y359646D01*
X372048Y356464D02*
X391280Y356464D01*
X391280Y358834D02*
X372048Y358834D01*
X372048Y372346D02*
X391280Y372346D01*
X391280Y366794D01*
X372048Y366794D01*
X372048Y372346D01*
X372048Y369164D02*
X391280Y369164D01*
X391280Y371534D02*
X372048Y371534D01*
X372048Y385046D02*
X391280Y385046D01*
X391280Y379494D01*
X372048Y379494D01*
X372048Y385046D01*
X372048Y381864D02*
X391280Y381864D01*
X391280Y384234D02*
X372048Y384234D01*
X372048Y397746D02*
X391280Y397746D01*
X391280Y392194D01*
X372048Y392194D01*
X372048Y397746D01*
X372048Y394564D02*
X391280Y394564D01*
X391280Y396934D02*
X372048Y396934D01*
X372048Y410446D02*
X391280Y410446D01*
X391280Y404894D01*
X372048Y404894D01*
X372048Y410446D01*
X372048Y407264D02*
X391280Y407264D01*
X391280Y409634D02*
X372048Y409634D01*
X372048Y423146D02*
X391280Y423146D01*
X391280Y417594D01*
X372048Y417594D01*
X372048Y423146D01*
X372048Y419964D02*
X391280Y419964D01*
X391280Y422334D02*
X372048Y422334D01*
D35*
X564654Y397230D02*
X579902Y397230D01*
X579902Y393610D01*
X564654Y393610D01*
X564654Y397230D01*
X564654Y395999D02*
X579902Y395999D01*
X579902Y390730D02*
X564654Y390730D01*
X579902Y390730D02*
X579902Y387110D01*
X564654Y387110D01*
X564654Y390730D01*
X564654Y389499D02*
X579902Y389499D01*
X579902Y384230D02*
X564654Y384230D01*
X579902Y384230D02*
X579902Y380610D01*
X564654Y380610D01*
X564654Y384230D01*
X564654Y382999D02*
X579902Y382999D01*
X579902Y377730D02*
X564654Y377730D01*
X579902Y377730D02*
X579902Y374110D01*
X564654Y374110D01*
X564654Y377730D01*
X564654Y376499D02*
X579902Y376499D01*
X579902Y371230D02*
X564654Y371230D01*
X579902Y371230D02*
X579902Y367610D01*
X564654Y367610D01*
X564654Y371230D01*
X564654Y369999D02*
X579902Y369999D01*
X579902Y364730D02*
X564654Y364730D01*
X579902Y364730D02*
X579902Y361110D01*
X564654Y361110D01*
X564654Y364730D01*
X564654Y363499D02*
X579902Y363499D01*
X579902Y358230D02*
X564654Y358230D01*
X579902Y358230D02*
X579902Y354610D01*
X564654Y354610D01*
X564654Y358230D01*
X564654Y356999D02*
X579902Y356999D01*
X522466Y358230D02*
X507218Y358230D01*
X522466Y358230D02*
X522466Y354610D01*
X507218Y354610D01*
X507218Y358230D01*
X507218Y356999D02*
X522466Y356999D01*
X522466Y364730D02*
X507218Y364730D01*
X522466Y364730D02*
X522466Y361110D01*
X507218Y361110D01*
X507218Y364730D01*
X507218Y363499D02*
X522466Y363499D01*
X522466Y371230D02*
X507218Y371230D01*
X522466Y371230D02*
X522466Y367610D01*
X507218Y367610D01*
X507218Y371230D01*
X507218Y369999D02*
X522466Y369999D01*
X522466Y377730D02*
X507218Y377730D01*
X522466Y377730D02*
X522466Y374110D01*
X507218Y374110D01*
X507218Y377730D01*
X507218Y376499D02*
X522466Y376499D01*
X522466Y384230D02*
X507218Y384230D01*
X522466Y384230D02*
X522466Y380610D01*
X507218Y380610D01*
X507218Y384230D01*
X507218Y382999D02*
X522466Y382999D01*
X522466Y390730D02*
X507218Y390730D01*
X522466Y390730D02*
X522466Y387110D01*
X507218Y387110D01*
X507218Y390730D01*
X507218Y389499D02*
X522466Y389499D01*
X522466Y397230D02*
X507218Y397230D01*
X522466Y397230D02*
X522466Y393610D01*
X507218Y393610D01*
X507218Y397230D01*
X507218Y395999D02*
X522466Y395999D01*
D16*
X667411Y375664D02*
X667411Y364448D01*
X640689Y364448D01*
X640689Y375664D01*
X667411Y375664D01*
X667411Y366787D02*
X640689Y366787D01*
X640689Y369126D02*
X667411Y369126D01*
X667411Y371465D02*
X640689Y371465D01*
X640689Y373804D02*
X667411Y373804D01*
X667411Y393956D02*
X667411Y405172D01*
X667411Y393956D02*
X640689Y393956D01*
X640689Y405172D01*
X667411Y405172D01*
X667411Y396295D02*
X640689Y396295D01*
X640689Y398634D02*
X667411Y398634D01*
X667411Y400973D02*
X640689Y400973D01*
X640689Y403312D02*
X667411Y403312D01*
D36*
X848886Y882460D02*
X871770Y882460D01*
X848886Y882460D02*
X848886Y905700D01*
X871770Y905700D01*
X871770Y882460D01*
X871770Y885147D02*
X848886Y885147D01*
X848886Y887834D02*
X871770Y887834D01*
X871770Y890521D02*
X848886Y890521D01*
X848886Y893208D02*
X871770Y893208D01*
X871770Y895895D02*
X848886Y895895D01*
X848886Y898582D02*
X871770Y898582D01*
X871770Y901269D02*
X848886Y901269D01*
X848886Y903956D02*
X871770Y903956D01*
X911310Y882460D02*
X934194Y882460D01*
X911310Y882460D02*
X911310Y905700D01*
X934194Y905700D01*
X934194Y882460D01*
X934194Y885147D02*
X911310Y885147D01*
X911310Y887834D02*
X934194Y887834D01*
X934194Y890521D02*
X911310Y890521D01*
X911310Y893208D02*
X934194Y893208D01*
X934194Y895895D02*
X911310Y895895D01*
X911310Y898582D02*
X934194Y898582D01*
X934194Y901269D02*
X911310Y901269D01*
X911310Y903956D02*
X934194Y903956D01*
X678730Y125540D02*
X655846Y125540D01*
X655846Y148780D01*
X678730Y148780D01*
X678730Y125540D01*
X678730Y128227D02*
X655846Y128227D01*
X655846Y130914D02*
X678730Y130914D01*
X678730Y133601D02*
X655846Y133601D01*
X655846Y136288D02*
X678730Y136288D01*
X678730Y138975D02*
X655846Y138975D01*
X655846Y141662D02*
X678730Y141662D01*
X678730Y144349D02*
X655846Y144349D01*
X655846Y147036D02*
X678730Y147036D01*
X718270Y125540D02*
X741154Y125540D01*
X718270Y125540D02*
X718270Y148780D01*
X741154Y148780D01*
X741154Y125540D01*
X741154Y128227D02*
X718270Y128227D01*
X718270Y130914D02*
X741154Y130914D01*
X741154Y133601D02*
X718270Y133601D01*
X718270Y136288D02*
X741154Y136288D01*
X741154Y138975D02*
X718270Y138975D01*
X718270Y141662D02*
X741154Y141662D01*
X741154Y144349D02*
X718270Y144349D01*
X718270Y147036D02*
X741154Y147036D01*
X601454Y148780D02*
X578570Y148780D01*
X601454Y148780D02*
X601454Y125540D01*
X578570Y125540D01*
X578570Y148780D01*
X578570Y128227D02*
X601454Y128227D01*
X601454Y130914D02*
X578570Y130914D01*
X578570Y133601D02*
X601454Y133601D01*
X601454Y136288D02*
X578570Y136288D01*
X578570Y138975D02*
X601454Y138975D01*
X601454Y141662D02*
X578570Y141662D01*
X578570Y144349D02*
X601454Y144349D01*
X601454Y147036D02*
X578570Y147036D01*
X539030Y148780D02*
X516146Y148780D01*
X539030Y148780D02*
X539030Y125540D01*
X516146Y125540D01*
X516146Y148780D01*
X516146Y128227D02*
X539030Y128227D01*
X539030Y130914D02*
X516146Y130914D01*
X516146Y133601D02*
X539030Y133601D01*
X539030Y136288D02*
X516146Y136288D01*
X516146Y138975D02*
X539030Y138975D01*
X539030Y141662D02*
X516146Y141662D01*
X516146Y144349D02*
X539030Y144349D01*
X539030Y147036D02*
X516146Y147036D01*
X399330Y125540D02*
X376446Y125540D01*
X376446Y148780D01*
X399330Y148780D01*
X399330Y125540D01*
X399330Y128227D02*
X376446Y128227D01*
X376446Y130914D02*
X399330Y130914D01*
X399330Y133601D02*
X376446Y133601D01*
X376446Y136288D02*
X399330Y136288D01*
X399330Y138975D02*
X376446Y138975D01*
X376446Y141662D02*
X399330Y141662D01*
X399330Y144349D02*
X376446Y144349D01*
X376446Y147036D02*
X399330Y147036D01*
X438870Y125540D02*
X461754Y125540D01*
X438870Y125540D02*
X438870Y148780D01*
X461754Y148780D01*
X461754Y125540D01*
X461754Y128227D02*
X438870Y128227D01*
X438870Y130914D02*
X461754Y130914D01*
X461754Y133601D02*
X438870Y133601D01*
X438870Y136288D02*
X461754Y136288D01*
X461754Y138975D02*
X438870Y138975D01*
X438870Y141662D02*
X461754Y141662D01*
X461754Y144349D02*
X438870Y144349D01*
X438870Y147036D02*
X461754Y147036D01*
X322054Y148780D02*
X299170Y148780D01*
X322054Y148780D02*
X322054Y125540D01*
X299170Y125540D01*
X299170Y148780D01*
X299170Y128227D02*
X322054Y128227D01*
X322054Y130914D02*
X299170Y130914D01*
X299170Y133601D02*
X322054Y133601D01*
X322054Y136288D02*
X299170Y136288D01*
X299170Y138975D02*
X322054Y138975D01*
X322054Y141662D02*
X299170Y141662D01*
X299170Y144349D02*
X322054Y144349D01*
X322054Y147036D02*
X299170Y147036D01*
X259630Y148780D02*
X236746Y148780D01*
X259630Y148780D02*
X259630Y125540D01*
X236746Y125540D01*
X236746Y148780D01*
X236746Y128227D02*
X259630Y128227D01*
X259630Y130914D02*
X236746Y130914D01*
X236746Y133601D02*
X259630Y133601D01*
X259630Y136288D02*
X236746Y136288D01*
X236746Y138975D02*
X259630Y138975D01*
X259630Y141662D02*
X236746Y141662D01*
X236746Y144349D02*
X259630Y144349D01*
X259630Y147036D02*
X236746Y147036D01*
X119930Y125540D02*
X97046Y125540D01*
X97046Y148780D01*
X119930Y148780D01*
X119930Y125540D01*
X119930Y128227D02*
X97046Y128227D01*
X97046Y130914D02*
X119930Y130914D01*
X119930Y133601D02*
X97046Y133601D01*
X97046Y136288D02*
X119930Y136288D01*
X119930Y138975D02*
X97046Y138975D01*
X97046Y141662D02*
X119930Y141662D01*
X119930Y144349D02*
X97046Y144349D01*
X97046Y147036D02*
X119930Y147036D01*
X159470Y125540D02*
X182354Y125540D01*
X159470Y125540D02*
X159470Y148780D01*
X182354Y148780D01*
X182354Y125540D01*
X182354Y128227D02*
X159470Y128227D01*
X159470Y130914D02*
X182354Y130914D01*
X182354Y133601D02*
X159470Y133601D01*
X159470Y136288D02*
X182354Y136288D01*
X182354Y138975D02*
X159470Y138975D01*
X159470Y141662D02*
X182354Y141662D01*
X182354Y144349D02*
X159470Y144349D01*
X159470Y147036D02*
X182354Y147036D01*
D14*
X583560Y1038080D03*
D15*
X608960Y1038080D03*
X634360Y1038080D03*
X659760Y1038080D03*
D25*
X242671Y828511D02*
X232919Y828511D01*
X242671Y828511D02*
X242671Y814869D01*
X232919Y814869D01*
X232919Y828511D01*
X232919Y817331D02*
X242671Y817331D01*
X242671Y819793D02*
X232919Y819793D01*
X232919Y822255D02*
X242671Y822255D01*
X242671Y824717D02*
X232919Y824717D01*
X232919Y827179D02*
X242671Y827179D01*
X224281Y828511D02*
X214529Y828511D01*
X224281Y828511D02*
X224281Y814869D01*
X214529Y814869D01*
X214529Y828511D01*
X214529Y817331D02*
X224281Y817331D01*
X224281Y819793D02*
X214529Y819793D01*
X214529Y822255D02*
X224281Y822255D01*
X224281Y824717D02*
X214529Y824717D01*
X214529Y827179D02*
X224281Y827179D01*
D16*
X642228Y410719D02*
X653444Y410719D01*
X642228Y410719D02*
X642228Y424941D01*
X653444Y424941D01*
X653444Y410719D01*
X653444Y413058D02*
X642228Y413058D01*
X642228Y415397D02*
X653444Y415397D01*
X653444Y417736D02*
X642228Y417736D01*
X642228Y420075D02*
X653444Y420075D01*
X653444Y422414D02*
X642228Y422414D01*
X642228Y424753D02*
X653444Y424753D01*
X659736Y410719D02*
X670952Y410719D01*
X659736Y410719D02*
X659736Y424941D01*
X670952Y424941D01*
X670952Y410719D01*
X670952Y413058D02*
X659736Y413058D01*
X659736Y415397D02*
X670952Y415397D01*
X670952Y417736D02*
X659736Y417736D01*
X659736Y420075D02*
X670952Y420075D01*
X670952Y422414D02*
X659736Y422414D01*
X659736Y424753D02*
X670952Y424753D01*
D37*
X664516Y289920D02*
X651536Y289920D01*
X651536Y295600D01*
X664516Y295600D01*
X664516Y289920D01*
X664516Y292344D02*
X651536Y292344D01*
X651536Y294768D02*
X664516Y294768D01*
X664516Y308920D02*
X651536Y308920D01*
X651536Y314600D01*
X664516Y314600D01*
X664516Y308920D01*
X664516Y311344D02*
X651536Y311344D01*
X651536Y313768D02*
X664516Y313768D01*
X676604Y299420D02*
X689584Y299420D01*
X676604Y299420D02*
X676604Y305100D01*
X689584Y305100D01*
X689584Y299420D01*
X689584Y301844D02*
X676604Y301844D01*
X676604Y304268D02*
X689584Y304268D01*
X683620Y285724D02*
X683620Y272744D01*
X683620Y285724D02*
X689300Y285724D01*
X689300Y272744D01*
X683620Y272744D01*
X683620Y275168D02*
X689300Y275168D01*
X689300Y277592D02*
X683620Y277592D01*
X683620Y280016D02*
X689300Y280016D01*
X689300Y282440D02*
X683620Y282440D01*
X683620Y284864D02*
X689300Y284864D01*
X702620Y285724D02*
X702620Y272744D01*
X702620Y285724D02*
X708300Y285724D01*
X708300Y272744D01*
X702620Y272744D01*
X702620Y275168D02*
X708300Y275168D01*
X708300Y277592D02*
X702620Y277592D01*
X702620Y280016D02*
X708300Y280016D01*
X708300Y282440D02*
X702620Y282440D01*
X702620Y284864D02*
X708300Y284864D01*
X693120Y260656D02*
X693120Y247676D01*
X693120Y260656D02*
X698800Y260656D01*
X698800Y247676D01*
X693120Y247676D01*
X693120Y250100D02*
X698800Y250100D01*
X698800Y252524D02*
X693120Y252524D01*
X693120Y254948D02*
X698800Y254948D01*
X698800Y257372D02*
X693120Y257372D01*
X693120Y259796D02*
X698800Y259796D01*
X558440Y257836D02*
X558440Y270816D01*
X558440Y257836D02*
X552760Y257836D01*
X552760Y270816D01*
X558440Y270816D01*
X558440Y260260D02*
X552760Y260260D01*
X552760Y262684D02*
X558440Y262684D01*
X558440Y265108D02*
X552760Y265108D01*
X552760Y267532D02*
X558440Y267532D01*
X558440Y269956D02*
X552760Y269956D01*
X539440Y270816D02*
X539440Y257836D01*
X533760Y257836D01*
X533760Y270816D01*
X539440Y270816D01*
X539440Y260260D02*
X533760Y260260D01*
X533760Y262684D02*
X539440Y262684D01*
X539440Y265108D02*
X533760Y265108D01*
X533760Y267532D02*
X539440Y267532D01*
X539440Y269956D02*
X533760Y269956D01*
X548940Y282904D02*
X548940Y295884D01*
X548940Y282904D02*
X543260Y282904D01*
X543260Y295884D01*
X548940Y295884D01*
X548940Y285328D02*
X543260Y285328D01*
X543260Y287752D02*
X548940Y287752D01*
X548940Y290176D02*
X543260Y290176D01*
X543260Y292600D02*
X548940Y292600D01*
X548940Y295024D02*
X543260Y295024D01*
X184124Y284120D02*
X171144Y284120D01*
X184124Y284120D02*
X184124Y278440D01*
X171144Y278440D01*
X171144Y284120D01*
X171144Y280864D02*
X184124Y280864D01*
X184124Y283288D02*
X171144Y283288D01*
X171144Y265120D02*
X184124Y265120D01*
X184124Y259440D01*
X171144Y259440D01*
X171144Y265120D01*
X171144Y261864D02*
X184124Y261864D01*
X184124Y264288D02*
X171144Y264288D01*
X159056Y274620D02*
X146076Y274620D01*
X159056Y274620D02*
X159056Y268940D01*
X146076Y268940D01*
X146076Y274620D01*
X146076Y271364D02*
X159056Y271364D01*
X159056Y273788D02*
X146076Y273788D01*
X170540Y317194D02*
X170540Y330174D01*
X176220Y330174D01*
X176220Y317194D01*
X170540Y317194D01*
X170540Y319618D02*
X176220Y319618D01*
X176220Y322042D02*
X170540Y322042D01*
X170540Y324466D02*
X176220Y324466D01*
X176220Y326890D02*
X170540Y326890D01*
X170540Y329314D02*
X176220Y329314D01*
X189540Y330174D02*
X189540Y317194D01*
X189540Y330174D02*
X195220Y330174D01*
X195220Y317194D01*
X189540Y317194D01*
X189540Y319618D02*
X195220Y319618D01*
X195220Y322042D02*
X189540Y322042D01*
X189540Y324466D02*
X195220Y324466D01*
X195220Y326890D02*
X189540Y326890D01*
X189540Y329314D02*
X195220Y329314D01*
X180040Y305106D02*
X180040Y292126D01*
X180040Y305106D02*
X185720Y305106D01*
X185720Y292126D01*
X180040Y292126D01*
X180040Y294550D02*
X185720Y294550D01*
X185720Y296974D02*
X180040Y296974D01*
X180040Y299398D02*
X185720Y299398D01*
X185720Y301822D02*
X180040Y301822D01*
X180040Y304246D02*
X185720Y304246D01*
X580030Y307646D02*
X580030Y294666D01*
X574350Y294666D01*
X574350Y307646D01*
X580030Y307646D01*
X580030Y297090D02*
X574350Y297090D01*
X574350Y299514D02*
X580030Y299514D01*
X580030Y301938D02*
X574350Y301938D01*
X574350Y304362D02*
X580030Y304362D01*
X580030Y306786D02*
X574350Y306786D01*
X561030Y307646D02*
X561030Y294666D01*
X555350Y294666D01*
X555350Y307646D01*
X561030Y307646D01*
X561030Y297090D02*
X555350Y297090D01*
X555350Y299514D02*
X561030Y299514D01*
X561030Y301938D02*
X555350Y301938D01*
X555350Y304362D02*
X561030Y304362D01*
X561030Y306786D02*
X555350Y306786D01*
X570530Y319734D02*
X570530Y332714D01*
X570530Y319734D02*
X564850Y319734D01*
X564850Y332714D01*
X570530Y332714D01*
X570530Y322158D02*
X564850Y322158D01*
X564850Y324582D02*
X570530Y324582D01*
X570530Y327006D02*
X564850Y327006D01*
X564850Y329430D02*
X570530Y329430D01*
X570530Y331854D02*
X564850Y331854D01*
D38*
X347241Y346613D02*
X329955Y346613D01*
X347241Y346613D02*
X347241Y342627D01*
X329955Y342627D01*
X329955Y346613D01*
X329955Y345047D02*
X347241Y345047D01*
X347241Y340113D02*
X329955Y340113D01*
X347241Y340113D02*
X347241Y336127D01*
X329955Y336127D01*
X329955Y340113D01*
X329955Y338547D02*
X347241Y338547D01*
X347241Y333613D02*
X329955Y333613D01*
X347241Y333613D02*
X347241Y329627D01*
X329955Y329627D01*
X329955Y333613D01*
X329955Y332047D02*
X347241Y332047D01*
X347241Y327113D02*
X329955Y327113D01*
X347241Y327113D02*
X347241Y323127D01*
X329955Y323127D01*
X329955Y327113D01*
X329955Y325547D02*
X347241Y325547D01*
X347241Y320613D02*
X329955Y320613D01*
X347241Y320613D02*
X347241Y316627D01*
X329955Y316627D01*
X329955Y320613D01*
X329955Y319047D02*
X347241Y319047D01*
X347241Y314113D02*
X329955Y314113D01*
X347241Y314113D02*
X347241Y310127D01*
X329955Y310127D01*
X329955Y314113D01*
X329955Y312547D02*
X347241Y312547D01*
X347241Y307613D02*
X329955Y307613D01*
X347241Y307613D02*
X347241Y303627D01*
X329955Y303627D01*
X329955Y307613D01*
X329955Y306047D02*
X347241Y306047D01*
X289805Y307613D02*
X272519Y307613D01*
X289805Y307613D02*
X289805Y303627D01*
X272519Y303627D01*
X272519Y307613D01*
X272519Y306047D02*
X289805Y306047D01*
X289805Y314113D02*
X272519Y314113D01*
X289805Y314113D02*
X289805Y310127D01*
X272519Y310127D01*
X272519Y314113D01*
X272519Y312547D02*
X289805Y312547D01*
X289805Y320613D02*
X272519Y320613D01*
X289805Y320613D02*
X289805Y316627D01*
X272519Y316627D01*
X272519Y320613D01*
X272519Y319047D02*
X289805Y319047D01*
X289805Y327113D02*
X272519Y327113D01*
X289805Y327113D02*
X289805Y323127D01*
X272519Y323127D01*
X272519Y327113D01*
X272519Y325547D02*
X289805Y325547D01*
X289805Y333613D02*
X272519Y333613D01*
X289805Y333613D02*
X289805Y329627D01*
X272519Y329627D01*
X272519Y333613D01*
X272519Y332047D02*
X289805Y332047D01*
X289805Y340113D02*
X272519Y340113D01*
X289805Y340113D02*
X289805Y336127D01*
X272519Y336127D01*
X272519Y340113D01*
X272519Y338547D02*
X289805Y338547D01*
X289805Y346613D02*
X272519Y346613D01*
X289805Y346613D02*
X289805Y342627D01*
X272519Y342627D01*
X272519Y346613D01*
X272519Y345047D02*
X289805Y345047D01*
D39*
X311150Y1054910D03*
D40*
X285750Y1054910D03*
D41*
X967300Y387940D03*
X912300Y387940D03*
X967300Y429940D03*
X912300Y429940D03*
D34*
X613409Y669677D02*
X600277Y682809D01*
X613409Y669677D02*
X609483Y665751D01*
X596351Y678883D01*
X600277Y682809D01*
X607113Y668121D02*
X611853Y668121D01*
X612595Y670491D02*
X604743Y670491D01*
X602373Y672861D02*
X610225Y672861D01*
X607855Y675231D02*
X600003Y675231D01*
X597633Y677601D02*
X605485Y677601D01*
X603115Y679971D02*
X597439Y679971D01*
X599809Y682341D02*
X600745Y682341D01*
X591297Y673829D02*
X604429Y660697D01*
X600503Y656771D01*
X587371Y669903D01*
X591297Y673829D01*
X598133Y659141D02*
X602873Y659141D01*
X603615Y661511D02*
X595763Y661511D01*
X593393Y663881D02*
X601245Y663881D01*
X598875Y666251D02*
X591023Y666251D01*
X588653Y668621D02*
X596505Y668621D01*
X594135Y670991D02*
X588459Y670991D01*
X590829Y673361D02*
X591765Y673361D01*
X582317Y664849D02*
X595449Y651717D01*
X591523Y647791D01*
X578391Y660923D01*
X582317Y664849D01*
X589153Y650161D02*
X593893Y650161D01*
X594635Y652531D02*
X586783Y652531D01*
X584413Y654901D02*
X592265Y654901D01*
X589895Y657271D02*
X582043Y657271D01*
X579673Y659641D02*
X587525Y659641D01*
X585155Y662011D02*
X579479Y662011D01*
X581849Y664381D02*
X582785Y664381D01*
X573337Y655869D02*
X586469Y642737D01*
X582543Y638811D01*
X569411Y651943D01*
X573337Y655869D01*
X580173Y641181D02*
X584913Y641181D01*
X585655Y643551D02*
X577803Y643551D01*
X575433Y645921D02*
X583285Y645921D01*
X580915Y648291D02*
X573063Y648291D01*
X570693Y650661D02*
X578545Y650661D01*
X576175Y653031D02*
X570499Y653031D01*
X572869Y655401D02*
X573805Y655401D01*
X551729Y677477D02*
X538597Y690609D01*
X551729Y677477D02*
X547803Y673551D01*
X534671Y686683D01*
X538597Y690609D01*
X545433Y675921D02*
X550173Y675921D01*
X550915Y678291D02*
X543063Y678291D01*
X540693Y680661D02*
X548545Y680661D01*
X546175Y683031D02*
X538323Y683031D01*
X535953Y685401D02*
X543805Y685401D01*
X541435Y687771D02*
X535759Y687771D01*
X538129Y690141D02*
X539065Y690141D01*
X547577Y699589D02*
X560709Y686457D01*
X556783Y682531D01*
X543651Y695663D01*
X547577Y699589D01*
X554413Y684901D02*
X559153Y684901D01*
X559895Y687271D02*
X552043Y687271D01*
X549673Y689641D02*
X557525Y689641D01*
X555155Y692011D02*
X547303Y692011D01*
X544933Y694381D02*
X552785Y694381D01*
X550415Y696751D02*
X544739Y696751D01*
X547109Y699121D02*
X548045Y699121D01*
X556557Y708569D02*
X569689Y695437D01*
X565763Y691511D01*
X552631Y704643D01*
X556557Y708569D01*
X563393Y693881D02*
X568133Y693881D01*
X568875Y696251D02*
X561023Y696251D01*
X558653Y698621D02*
X566505Y698621D01*
X564135Y700991D02*
X556283Y700991D01*
X553913Y703361D02*
X561765Y703361D01*
X559395Y705731D02*
X553719Y705731D01*
X556089Y708101D02*
X557025Y708101D01*
X565537Y717549D02*
X578669Y704417D01*
X574743Y700491D01*
X561611Y713623D01*
X565537Y717549D01*
X572373Y702861D02*
X577113Y702861D01*
X577855Y705231D02*
X570003Y705231D01*
X567633Y707601D02*
X575485Y707601D01*
X573115Y709971D02*
X565263Y709971D01*
X562893Y712341D02*
X570745Y712341D01*
X568375Y714711D02*
X562699Y714711D01*
X565069Y717081D02*
X566005Y717081D01*
D42*
X264160Y261620D03*
X419100Y306070D03*
X400050Y236220D03*
X637540Y356870D03*
X534670Y674370D03*
X582930Y687070D03*
X354330Y336550D03*
X670560Y228600D03*
X591820Y228600D03*
X327660Y233680D03*
X109220Y228600D03*
X30480Y257810D03*
X552450Y317500D03*
X607060Y242570D03*
X543560Y406400D03*
X613410Y304800D03*
X518391Y404900D03*
X656590Y321310D03*
X683260Y888540D03*
X635000Y425450D03*
X855980Y119380D03*
X101600Y373380D03*
X304800Y853440D03*
X293431Y853440D03*
X281940Y901700D03*
X406476Y811606D03*
X218119Y323850D03*
X351790Y411480D03*
X101600Y383540D03*
X463550Y892810D03*
X448310Y887730D03*
X400050Y401320D03*
X861060Y914400D03*
X873760Y927100D03*
X378460Y911860D03*
X378460Y901700D03*
X369570Y547370D03*
X361950Y557530D03*
X393700Y523240D03*
X414020Y533400D03*
X434340Y554990D03*
X457200Y581660D03*
X427990Y638048D03*
X366014Y637794D03*
X338074Y609092D03*
X337820Y579374D03*
X551180Y562610D03*
X335280Y488950D03*
X266700Y593090D03*
X290830Y684530D03*
X308610Y702310D03*
X749300Y890270D03*
X354330Y261620D03*
X444500Y299720D03*
X675640Y400050D03*
X572180Y689020D03*
X457200Y154940D03*
X488950Y185420D03*
X177800Y154940D03*
X209550Y184348D03*
X209550Y175260D03*
X30480Y234950D03*
X102870Y314960D03*
X109220Y321310D03*
X264160Y337820D03*
X530860Y311150D03*
X504190Y313690D03*
X557530Y345440D03*
X651510Y284354D03*
X618490Y217170D03*
X566420Y642620D03*
X520700Y596900D03*
X833120Y63500D03*
X843280Y63500D03*
X863600Y63500D03*
X873760Y63500D03*
X822960Y63500D03*
X853440Y63500D03*
X883920Y63500D03*
X33020Y506730D03*
X129540Y490220D03*
X129540Y435610D03*
X306070Y988870D03*
X525780Y909320D03*
X485140Y838200D03*
X509270Y694690D03*
X496570Y707390D03*
X728980Y295910D03*
X722630Y327660D03*
X775970Y904240D03*
X779780Y844550D03*
X721360Y844550D03*
X722630Y904240D03*
X683260Y926640D03*
X656590Y869490D03*
X647700Y943150D03*
X881380Y119380D03*
X321310Y257810D03*
X403860Y941070D03*
X353060Y941070D03*
X266700Y878840D03*
X266700Y828040D03*
X237490Y882650D03*
X318770Y792480D03*
X328930Y866140D03*
X280670Y953770D03*
X415564Y814070D03*
X617220Y424180D03*
X577850Y439420D03*
X617220Y441960D03*
X891540Y779780D03*
X891540Y769620D03*
X617220Y523240D03*
X361950Y461010D03*
X242570Y165100D03*
X521970Y165100D03*
X521970Y175260D03*
X521970Y185420D03*
X242570Y175260D03*
X242570Y185420D03*
X177800Y185420D03*
X177800Y175260D03*
X177800Y165100D03*
X744220Y175260D03*
X744220Y165100D03*
X744220Y154940D03*
X457200Y165100D03*
X457200Y175260D03*
X919480Y715010D03*
X863600Y715010D03*
X919480Y725170D03*
X919480Y735330D03*
X863600Y725170D03*
X863600Y735330D03*
X919480Y768350D03*
X863600Y768350D03*
X749300Y863600D03*
X749300Y850900D03*
X304800Y835660D03*
X294640Y825500D03*
X314960Y805180D03*
X304800Y795020D03*
X364490Y904240D03*
X388620Y905510D03*
X434340Y332740D03*
X593090Y910590D03*
X224790Y585470D03*
X241300Y568960D03*
X186690Y547370D03*
X203200Y530860D03*
X909320Y927100D03*
X922020Y914400D03*
X173990Y726440D03*
X198120Y702310D03*
X359410Y734060D03*
X359410Y713740D03*
X179070Y337820D03*
X179070Y369570D03*
X204470Y369570D03*
X204470Y337820D03*
X204470Y299720D03*
X173990Y293370D03*
X152400Y293370D03*
X228600Y246380D03*
X243840Y261620D03*
X154940Y387350D03*
X173990Y408940D03*
X199390Y435610D03*
X220980Y453390D03*
X227330Y401320D03*
X246380Y417830D03*
X270510Y417830D03*
X295910Y417830D03*
X321310Y417830D03*
X342900Y417830D03*
X342900Y457200D03*
X317500Y457200D03*
X292100Y457200D03*
X266700Y482600D03*
X241300Y482600D03*
X215900Y482600D03*
X190500Y482600D03*
X165100Y495300D03*
X120105Y463005D03*
X279400Y508000D03*
X254000Y508000D03*
X203200Y508000D03*
X177800Y533400D03*
X139700Y520700D03*
X127000Y546100D03*
X127000Y571500D03*
X127000Y596900D03*
X163830Y596900D03*
X266700Y609600D03*
X241300Y635000D03*
X203200Y622300D03*
X163830Y622300D03*
X127000Y622300D03*
X127000Y647700D03*
X163830Y647700D03*
X203200Y643890D03*
X241300Y660400D03*
X219710Y678180D03*
X167640Y673100D03*
X127000Y673100D03*
X140970Y694690D03*
X203200Y736600D03*
X212090Y712470D03*
X241300Y699770D03*
X276860Y735330D03*
X309880Y734060D03*
X342900Y734060D03*
X431800Y749300D03*
X457200Y774700D03*
X635000Y816610D03*
X698500Y816610D03*
X673100Y774700D03*
X749300Y791210D03*
X736600Y772160D03*
X762000Y746760D03*
X774700Y765810D03*
X800100Y740410D03*
X787400Y721360D03*
X812800Y695960D03*
X825500Y715010D03*
X850900Y689610D03*
X838200Y670560D03*
X414020Y497840D03*
X398780Y482600D03*
X379730Y462280D03*
X452120Y462280D03*
X453390Y490220D03*
X488950Y454660D03*
X490220Y518160D03*
X501650Y529590D03*
X525780Y529590D03*
X450850Y388620D03*
X453390Y323063D03*
X488950Y314960D03*
X488950Y297180D03*
X499110Y284480D03*
X474980Y275590D03*
X453390Y269240D03*
X485140Y554990D03*
X551180Y529590D03*
X605790Y529590D03*
X627380Y529590D03*
X685800Y543560D03*
X680720Y514350D03*
X734060Y497840D03*
X716280Y480060D03*
X732790Y461010D03*
X755650Y461010D03*
X732790Y422910D03*
X755650Y422910D03*
X732790Y384810D03*
X755650Y384810D03*
X732790Y346710D03*
X755650Y346710D03*
X732790Y308610D03*
X755650Y308610D03*
X755650Y241300D03*
X732790Y241300D03*
X656590Y944880D03*
X638810Y944880D03*
X716280Y515620D03*
X491490Y410210D03*
X448310Y344170D03*
X755650Y273050D03*
X241300Y736600D03*
X430530Y864870D03*
X476250Y922020D03*
X476250Y932180D03*
X533400Y916940D03*
X533400Y901700D03*
X378460Y949960D03*
X567690Y828040D03*
X388620Y316230D03*
X378460Y853440D03*
X378460Y873760D03*
X358140Y853440D03*
X378460Y833120D03*
X398780Y853440D03*
X412750Y963930D03*
X412750Y923290D03*
X374650Y800100D03*
X245110Y793750D03*
X361950Y803910D03*
X245110Y805180D03*
X190500Y803910D03*
X354330Y812800D03*
X256540Y812800D03*
X247650Y934720D03*
X213360Y784860D03*
X254000Y784860D03*
X400050Y805180D03*
X80010Y299720D03*
X660400Y242570D03*
X650240Y222250D03*
X439420Y839470D03*
X629920Y636270D03*
X449580Y834390D03*
X629920Y647700D03*
X246380Y281940D03*
X566420Y289560D03*
X684530Y254000D03*
X138430Y250190D03*
X292100Y226060D03*
X233680Y281940D03*
X368300Y243840D03*
X419100Y233680D03*
X548640Y238760D03*
X556260Y276860D03*
X188444Y710716D03*
X369570Y719324D03*
X181658Y717502D03*
X369570Y728920D03*
X304800Y805180D03*
X304800Y825500D03*
X121920Y231140D03*
X264160Y242570D03*
X359410Y248330D03*
X571500Y177800D03*
X650240Y180340D03*
X588010Y375920D03*
X500380Y363220D03*
X489808Y330200D03*
X429260Y284480D03*
X434340Y261620D03*
X411480Y212090D03*
X450850Y363220D03*
X419100Y647700D03*
X358140Y628650D03*
X374650Y561340D03*
X403860Y523240D03*
X423926Y544322D03*
X340614Y648970D03*
X315976Y624078D03*
X313182Y585724D03*
X453390Y652780D03*
X497840Y570230D03*
D43*
X835660Y429260D03*
X845820Y403860D03*
D42*
X967740Y688340D03*
X956310Y797560D03*
X468630Y590550D03*
X534670Y650240D03*
X444500Y566420D03*
X347980Y568960D03*
X946150Y596900D03*
X208280Y821690D03*
X529590Y842010D03*
X929640Y288290D03*
X896620Y322580D03*
X349250Y474980D03*
X384810Y534670D03*
X412750Y687070D03*
X373380Y770890D03*
X599440Y629920D03*
X495300Y438150D03*
X495376Y461086D03*
X599440Y609600D03*
X599440Y589280D03*
X500380Y416560D03*
X494030Y375920D03*
X599440Y568960D03*
X518160Y457200D03*
X495300Y471170D03*
X440690Y431800D03*
X402590Y369570D03*
X657860Y643890D03*
X688340Y375920D03*
X447040Y614529D03*
X440812Y621154D03*
X308610Y309880D03*
X259080Y384810D03*
X429260Y614680D03*
X303454Y317576D03*
X248920Y384810D03*
X421640Y621030D03*
X495300Y238760D03*
X495300Y256540D03*
X518160Y269240D03*
X594360Y341630D03*
X500182Y744220D03*
X458470Y694690D03*
X652856Y730326D03*
X482600Y238760D03*
X482600Y256540D03*
X510540Y276860D03*
X591820Y354330D03*
X646430Y723900D03*
X509270Y744220D03*
X464820Y703580D03*
X704774Y246456D03*
X667822Y458470D03*
X671632Y643890D03*
X440690Y695960D03*
X479710Y748030D03*
X711200Y240030D03*
X676910Y452120D03*
X678180Y636270D03*
X431602Y695960D03*
X474729Y755901D03*
X459740Y749300D03*
X422514Y695960D03*
X795020Y114300D03*
X722630Y648970D03*
X453314Y755726D03*
X807720Y124460D03*
X732790Y646430D03*
X413426Y696158D03*
X505460Y617220D03*
X497840Y624840D03*
X264160Y281940D03*
X444500Y472440D03*
X495300Y509270D03*
X288290Y289560D03*
X505460Y502920D03*
X443032Y462280D03*
X315948Y293370D03*
X435610Y455930D03*
X497840Y496570D03*
X323850Y300990D03*
X430530Y440690D03*
X505460Y488950D03*
X626110Y270510D03*
X355600Y318770D03*
X265430Y312420D03*
X822960Y7620D03*
X833120Y7620D03*
X843280Y7620D03*
X853440Y7620D03*
X863600Y7620D03*
X873760Y7620D03*
X883920Y7620D03*
X599440Y619760D03*
X599440Y599440D03*
X599440Y579120D03*
X508000Y426720D03*
X508000Y405130D03*
X599440Y558800D03*
X412750Y369570D03*
X500380Y480060D03*
X527050Y462280D03*
X447544Y440690D03*
X690880Y410210D03*
X709930Y690880D03*
X684530Y716280D03*
X631190Y741680D03*
X638810Y320040D03*
X307340Y758190D03*
X246380Y758190D03*
X152400Y725170D03*
X259080Y651510D03*
X519457Y416278D03*
X572278Y403082D03*
X408940Y901700D03*
X661670Y445770D03*
X664210Y636270D03*
X629920Y711200D03*
X429260Y883920D03*
X419100Y894080D03*
X429260Y894080D03*
X419100Y904240D03*
X525780Y349250D03*
X502920Y344170D03*
X373380Y334010D03*
X218440Y284480D03*
X121920Y242570D03*
X654050Y66040D03*
X604520Y66040D03*
X374650Y66040D03*
X93056Y66040D03*
X323850Y66040D03*
X698500Y932180D03*
X584200Y952500D03*
X320040Y850900D03*
X304800Y617220D03*
X133350Y736600D03*
X143312Y716280D03*
X684530Y750570D03*
X650438Y750372D03*
X501650Y755650D03*
X481528Y650240D03*
X675488Y759460D03*
X640080Y759460D03*
X491338Y755650D03*
X482600Y640080D03*
X610870Y828040D03*
X623570Y750570D03*
X538480Y748030D03*
X538282Y707390D03*
X547370Y708660D03*
X538480Y822960D03*
X353060Y901700D03*
X676605Y487985D03*
X342900Y901700D03*
X683031Y481559D03*
X342900Y891540D03*
X690093Y475768D03*
X332740Y891540D03*
X696519Y469341D03*
X332740Y881380D03*
X702945Y462915D03*
X485140Y586740D03*
X401320Y794822D03*
X426720Y853440D03*
M02*
