M48
;GenerationSoftware,Autodesk,EAGLE,9.7.0*%
;CreationDate,2022-05-29T18:10:18Z*%
FMAT,2
ICI,OFF
METRIC,TZ,000.000
T13C0.350
T12C0.650
T11C0.900
T10C0.920
T9C1.000
T8C1.016
T7C1.250
T6C1.400
T5C1.650
T4C2.300
T3C2.330
T2C2.700
%
G90
M71
T2
X6000Y102000
X94000Y102000
X95000Y5000
X5000Y5000
X6000Y102000
X94000Y102000
X95000Y5000
X5000Y5000
T3
X83490Y101554
X71450Y101554
T4
X95668Y82888
X82528Y82888
T5
X30840Y1644
X25040Y9644
X30840Y9644
X11070Y9644
X16870Y9644
X58780Y9644
X25040Y1644
X39010Y1644
X44810Y1644
X39010Y9644
X44810Y9644
X72750Y9644
X66950Y9644
X72750Y1644
X66950Y1644
X52980Y1644
X58780Y1644
X52980Y9644
X11070Y1644
X16870Y1644
T6
X91230Y42994
X96730Y42994
X96730Y38794
X91230Y38794
T7
X31115Y105491
X28575Y105491
T8
X3686Y86316
X3686Y78696
X3686Y81236
X3686Y83776
X3686Y88856
X3686Y91396
T9
X3302Y45466
X3302Y42926
X3302Y40386
T10
X27940Y5144
X69850Y9144
X41910Y5144
X78720Y96844
X76220Y96844
X76220Y98844
X55880Y7144
X55880Y9144
X13970Y5144
X85598Y85598
X88098Y85598
X90098Y85598
X92598Y85598
X41910Y3144
X13970Y9144
X13970Y7144
X41910Y7144
X13970Y3144
X55880Y5144
X69850Y7144
X69850Y5144
X78720Y98844
X69850Y3144
X55880Y3144
X41910Y9144
X27940Y3144
X27940Y7144
X27940Y9144
T11
X34925Y1143
X34925Y3683
X34925Y6223
X34925Y8763
X48895Y1143
X48895Y3683
X48895Y6223
X48895Y8763
X62865Y3683
X62865Y6223
X62865Y8763
X76835Y1143
X76835Y3683
X76835Y6223
X76835Y8763
X84328Y59182
X86868Y59182
X91948Y59182
X84328Y50292
X86868Y50292
X89408Y50292
X91948Y50292
X89408Y59182
X58356Y103808
X60896Y103808
X63436Y103808
X65976Y103808
X20955Y1143
X20955Y3683
X20955Y6223
X20955Y8763
X62865Y1143
T12
X14224Y36195
X14224Y37645
X83566Y42926
X84582Y40386
X14224Y34745
T13
X61722Y52324
X36195Y46101
X24257Y16510
X52197Y16510
X52197Y17526
X52197Y18542
X24257Y17526
X24257Y18542
X17780Y18542
X17780Y17526
X17780Y16510
X74422Y17526
X74422Y16510
X74422Y15494
X45720Y16510
X45720Y17526
X91948Y71501
X86360Y71501
X91948Y72517
X91948Y73533
X86360Y72517
X86360Y73533
X91948Y76835
X86360Y76835
X74930Y86360
X74930Y85090
X30480Y83566
X29464Y82550
X31496Y80518
X30480Y79502
X36449Y90424
X38862Y90551
X43434Y33274
X59309Y91059
X22479Y58547
X24130Y56896
X18669Y54737
X20320Y53086
X90932Y92710
X92202Y91440
X17399Y72644
X19812Y70231
X35941Y73406
X35941Y71374
X17907Y33782
X17907Y36957
X20447Y36957
X20447Y33782
X20447Y29972
X17399Y29337
X15240Y29337
X22860Y24638
X24384Y26162
X15494Y38735
X17399Y40894
X19939Y43561
X22098Y45339
X22733Y40132
X24638Y41783
X27051Y41783
X29591Y41783
X32131Y41783
X34290Y41783
X34290Y45720
X31750Y45720
X29210Y45720
X26670Y48260
X24130Y48260
X21590Y48260
X19050Y48260
X16510Y49530
X12010Y46300
X27940Y50800
X25400Y50800
X20320Y50800
X17780Y53340
X13970Y52070
X12700Y54610
X12700Y57150
X12700Y59690
X16383Y59690
X26670Y60960
X24130Y63500
X20320Y62230
X16383Y62230
X12700Y62230
X12700Y64770
X16383Y64770
X20320Y64389
X24130Y66040
X21971Y67818
X16764Y67310
X12700Y67310
X14097Y69469
X20320Y73660
X21209Y71247
X24130Y69977
X27686Y73533
X30988Y73406
X34290Y73406
X43180Y74930
X45720Y77470
X63500Y81661
X69850Y81661
X67310Y77470
X74930Y79121
X73660Y77216
X76200Y74676
X77470Y76581
X80010Y74041
X78740Y72136
X81280Y69596
X82550Y71501
X85090Y68961
X83820Y67056
X41402Y49784
X39878Y48260
X37973Y46228
X45212Y46228
X45339Y49022
X48895Y45466
X49022Y51816
X50165Y52959
X52578Y52959
X45085Y38862
X45339Y32306
X48895Y31496
X48895Y29718
X49911Y28448
X47498Y27559
X45339Y26924
X48514Y55499
X55118Y52959
X60579Y52959
X62738Y52959
X68580Y54356
X68072Y51435
X73406Y49784
X71628Y48006
X73279Y46101
X75565Y46101
X73279Y42291
X75565Y42291
X73279Y38481
X75565Y38481
X73279Y34671
X75565Y34671
X73279Y30861
X75565Y30861
X75565Y24130
X73279Y24130
X65659Y94488
X63881Y94488
X71628Y51562
X49149Y41021
X44831Y34417
X75565Y27305
X24130Y73660
X43053Y86487
X47625Y92202
X47625Y93218
X53340Y91694
X53340Y90170
X37846Y94996
X56769Y82804
X38862Y31623
X37846Y85344
X37846Y87376
X35814Y85344
X37846Y83312
X39878Y85344
X41275Y96393
X41275Y92329
X37465Y80010
X24511Y79375
X36195Y80391
X24511Y80518
X19050Y80391
X35433Y81280
X25654Y81280
X24765Y93472
X21336Y78486
X25400Y78486
X40005Y80518
X8001Y29972
X66040Y24257
X65024Y22225
X43942Y83947
X62992Y63627
X44958Y83439
X62992Y64770
X24638Y28194
X56642Y28956
X68453Y25400
X13843Y25019
X29210Y22606
X23368Y28194
X85344Y6350
X41910Y23368
X54864Y23876
X55626Y27686
X18844Y71072
X36957Y71932
X18166Y71750
X36957Y72892
X30480Y80518
X30480Y82550
X12192Y23114
X26416Y24257
X35941Y24833
X57150Y17780
X65024Y18034
X58801Y37592
X50038Y36322
X48981Y33020
X42926Y28448
X43434Y26162
X41148Y21209
X45085Y36322
X41910Y64770
X35814Y62865
X37465Y56134
X40386Y52324
X42393Y54432
X34061Y64897
X31598Y62408
X31318Y58572
X45339Y65278
X49784Y57023
X26416Y26162
X41910Y30607
X96774Y68834
X95631Y79756
X46863Y59055
X53467Y65024
X44450Y56642
X34798Y56896
X94615Y59690
X20828Y82169
X52959Y84201
X92964Y28829
X89662Y32258
X34925Y47498
X38481Y53467
X41275Y68707
X37338Y77089
X59944Y62992
X49530Y43815
X49538Y46109
X59944Y60960
X59944Y58928
X50038Y41656
X49403Y37592
X59944Y56896
X51816Y45720
X49530Y47117
X44069Y43180
X40259Y36957
X65786Y64389
X68834Y37592
X44704Y61453
X44081Y62115
X30861Y30988
X25908Y38481
X42926Y61468
X30345Y31758
X24892Y38481
X42164Y62103
X49530Y23876
X49530Y25654
X51816Y26924
X59436Y34163
X50018Y74422
X45847Y69469
X65286Y73033
X48260Y23876
X48260Y25654
X51054Y27686
X59182Y35433
X64643Y72390
X50927Y74422
X46482Y70358
X70477Y24646
X66782Y45847
X67163Y64389
X44069Y69596
X47971Y74803
X71120Y24003
X67691Y45212
X67818Y63627
X43160Y69596
X47473Y75590
X45974Y74930
X42251Y69596
X79502Y11430
X72263Y64897
X45331Y75573
X80772Y12446
X73279Y64643
X41343Y69616
X50546Y61722
X49784Y62484
X26416Y28194
X44450Y47244
X49530Y50927
X28829Y28956
X50546Y50292
X44303Y46228
X31595Y29337
X43561Y45593
X49784Y49657
X32385Y30099
X43053Y44069
X50546Y48895
X62611Y27051
X35560Y31877
X26543Y31242
X82296Y762
X83312Y762
X84328Y762
X85344Y762
X86360Y762
X87376Y762
X88392Y762
X59944Y61976
X59944Y59944
X59944Y57912
X50800Y42672
X50800Y40513
X59944Y55880
X41275Y36957
X50038Y48006
X52705Y46228
X44754Y44069
X69088Y41021
X70993Y69088
X68453Y71628
X63119Y74168
X63881Y32004
X30734Y75819
X24638Y75819
X15240Y72517
X25908Y65151
X51946Y41628
X57228Y40308
X40894Y90170
X66167Y44577
X66421Y63627
X62992Y71120
X42926Y88392
X41910Y89408
X40005Y23622
X41910Y90424
X52578Y34925
X50292Y34417
X37338Y33401
X21844Y28448
X12192Y24257
X65405Y6604
X60452Y6604
X37465Y6604
X9306Y6604
X32385Y6604
X69850Y93218
X58420Y95250
X32004Y85090
X30480Y61722
X13335Y73660
X14331Y71628
X68453Y75057
X65044Y75037
X50165Y75565
X48153Y65024
X67549Y75946
X64008Y75946
X49134Y75565
X48260Y64008
X61087Y82804
X62357Y75057
X53848Y74803
X53828Y70739
X54737Y70866
X53848Y82296
X35306Y90170
X67661Y48798
X34290Y90170
X68303Y48156
X34290Y89154
X69009Y47577
X33274Y89154
X69652Y46934
X33274Y88138
X70295Y46291
X48514Y58674
X40132Y79482
X42672Y85344
X63754Y35687
X53467Y67437
X58293Y68707
X35433Y33655
X67056Y22860
X59182Y22860
X32766Y23368
X10922Y22860
X3048Y25781
X55245Y31750
X60706Y24257
X54356Y40640
X61341Y30480
X51839Y40490
X65659Y32131
X68326Y88854
X63500Y42545
X85598Y11938
X10160Y37338
X30480Y85344
X29343Y85344
X28194Y90170
X40648Y81161
X21812Y32385
X35179Y41148
X10160Y38354
X46355Y89281
X44831Y88773
X40005Y40132
X86106Y91440
X87376Y92710
X37846Y91186
X36830Y24384
X37846Y90170
X36957Y54737
X36195Y55753
X39370Y52324
X41402Y53340
X43434Y55499
X45720Y58166
X42799Y63805
X36601Y63779
X33807Y60909
X33782Y57937
X55118Y56261
X33528Y48895
X26670Y59309
X29083Y68453
X30861Y70231
X74930Y89027
X35433Y26162
X44450Y29972
X67564Y40005
X57218Y68902
X45720Y15494
X48895Y18542
X17780Y15494
X20955Y18435
X20955Y17526
X3048Y23495
X10287Y31496
X10922Y32131
X26416Y33782
X53086Y31115
X50419Y31369
X55753Y34544
X65151Y28435
X61849Y21717
X56642Y64262
X52070Y59690
X83312Y6350
X84328Y6350
X86360Y6350
X87376Y6350
X82296Y6350
X88392Y6350
X3302Y50673
X12954Y49022
X12954Y43561
X30607Y98887
X52578Y90932
X48514Y83820
X50927Y69469
X49657Y70739
X72898Y29591
X72263Y32766
X77597Y90424
X77978Y84455
X72136Y84455
X72263Y90424
X68326Y92664
X65659Y86949
X64770Y94315
X88138Y11938
X32131Y25781
X40386Y94107
X35306Y94107
X26670Y87884
X26670Y82804
X23749Y88265
X31877Y79248
X32893Y86614
X28067Y95377
X41556Y81407
X61722Y42418
X57785Y43942
X61722Y44196
X89154Y77978
X89154Y76962
X42926Y89408
M30