G04 EAGLE Gerber RS-274X export*
G75*
%MOMM*%
%FSLAX34Y34*%
%LPD*%
%INInner Copper Layer 2*%
%IPPOS*%
%AMOC8*
5,1,8,0,0,1.08239X$1,22.5*%
G01*
G04 Define Apertures*
%ADD10C,3.716000*%
%ADD11C,1.428000*%
%ADD12C,3.346000*%
%ADD13C,1.408000*%
%ADD14C,2.475000*%
%ADD15C,3.316000*%
%ADD16C,1.158000*%
%ADD17C,1.524000*%
%ADD18C,1.508000*%
%ADD19C,1.875000*%
%ADD20C,2.100000*%
%ADD21C,0.756400*%
%ADD22C,1.270000*%
%ADD23C,0.508000*%
%ADD24C,0.152400*%
%ADD25C,0.203200*%
%ADD26C,0.254000*%
%ADD27C,1.056400*%
%ADD28C,1.016000*%
%ADD29C,0.304800*%
G36*
X98632Y3463D02*
X99299Y3920D01*
X99735Y4602D01*
X99870Y5399D01*
X99684Y6186D01*
X99276Y6771D01*
X98056Y7991D01*
X95785Y13473D01*
X95785Y19407D01*
X98056Y24889D01*
X102251Y29084D01*
X107733Y31355D01*
X113667Y31355D01*
X119149Y29084D01*
X123344Y24889D01*
X125615Y19407D01*
X125615Y13473D01*
X123344Y7991D01*
X122124Y6771D01*
X121677Y6097D01*
X121529Y5302D01*
X121703Y4512D01*
X122170Y3852D01*
X122859Y3427D01*
X123561Y3302D01*
X155839Y3302D01*
X156632Y3463D01*
X157299Y3920D01*
X157735Y4602D01*
X157870Y5399D01*
X157684Y6186D01*
X157276Y6771D01*
X156056Y7991D01*
X153785Y13473D01*
X153785Y19407D01*
X156056Y24889D01*
X160251Y29084D01*
X165733Y31355D01*
X171667Y31355D01*
X177149Y29084D01*
X181344Y24889D01*
X183615Y19407D01*
X183615Y13473D01*
X181344Y7991D01*
X180124Y6771D01*
X179677Y6097D01*
X179529Y5302D01*
X179703Y4512D01*
X180170Y3852D01*
X180859Y3427D01*
X181561Y3302D01*
X199506Y3302D01*
X200299Y3463D01*
X200966Y3920D01*
X201402Y4602D01*
X201537Y5399D01*
X201384Y6112D01*
X199970Y9524D01*
X199970Y13336D01*
X201428Y16857D01*
X204123Y19552D01*
X207644Y21010D01*
X211456Y21010D01*
X214977Y19552D01*
X217672Y16857D01*
X219130Y13336D01*
X219130Y9524D01*
X217716Y6112D01*
X217562Y5318D01*
X217729Y4527D01*
X218192Y3863D01*
X218876Y3433D01*
X219594Y3302D01*
X237539Y3302D01*
X238332Y3463D01*
X238999Y3920D01*
X239435Y4602D01*
X239570Y5399D01*
X239384Y6186D01*
X238976Y6771D01*
X237756Y7991D01*
X235485Y13473D01*
X235485Y19407D01*
X237756Y24889D01*
X241951Y29084D01*
X247433Y31355D01*
X253367Y31355D01*
X258849Y29084D01*
X263044Y24889D01*
X265315Y19407D01*
X265315Y13473D01*
X263044Y7991D01*
X261824Y6771D01*
X261377Y6097D01*
X261229Y5302D01*
X261403Y4512D01*
X261870Y3852D01*
X262559Y3427D01*
X263261Y3302D01*
X295539Y3302D01*
X296332Y3463D01*
X296999Y3920D01*
X297435Y4602D01*
X297570Y5399D01*
X297384Y6186D01*
X296976Y6771D01*
X295756Y7991D01*
X293485Y13473D01*
X293485Y19407D01*
X295756Y24889D01*
X299951Y29084D01*
X305433Y31355D01*
X311367Y31355D01*
X316849Y29084D01*
X321044Y24889D01*
X323315Y19407D01*
X323315Y13473D01*
X321044Y7991D01*
X319824Y6771D01*
X319377Y6097D01*
X319229Y5302D01*
X319403Y4512D01*
X319870Y3852D01*
X320559Y3427D01*
X321261Y3302D01*
X339206Y3302D01*
X339999Y3463D01*
X340666Y3920D01*
X341102Y4602D01*
X341237Y5399D01*
X341084Y6112D01*
X339670Y9524D01*
X339670Y13336D01*
X341128Y16857D01*
X343823Y19552D01*
X347344Y21010D01*
X351156Y21010D01*
X354677Y19552D01*
X357372Y16857D01*
X358830Y13336D01*
X358830Y9524D01*
X357416Y6112D01*
X357262Y5318D01*
X357429Y4527D01*
X357892Y3863D01*
X358576Y3433D01*
X359294Y3302D01*
X377239Y3302D01*
X378032Y3463D01*
X378699Y3920D01*
X379135Y4602D01*
X379270Y5399D01*
X379084Y6186D01*
X378676Y6771D01*
X377456Y7991D01*
X375185Y13473D01*
X375185Y19407D01*
X377456Y24889D01*
X381651Y29084D01*
X387133Y31355D01*
X393067Y31355D01*
X398549Y29084D01*
X402744Y24889D01*
X405015Y19407D01*
X405015Y13473D01*
X402744Y7991D01*
X401524Y6771D01*
X401077Y6097D01*
X400929Y5302D01*
X401103Y4512D01*
X401570Y3852D01*
X402259Y3427D01*
X402961Y3302D01*
X435239Y3302D01*
X436032Y3463D01*
X436699Y3920D01*
X437135Y4602D01*
X437270Y5399D01*
X437084Y6186D01*
X436676Y6771D01*
X435456Y7991D01*
X433185Y13473D01*
X433185Y19407D01*
X435456Y24889D01*
X439651Y29084D01*
X445133Y31355D01*
X451067Y31355D01*
X456549Y29084D01*
X460744Y24889D01*
X463015Y19407D01*
X463015Y13473D01*
X460744Y7991D01*
X459524Y6771D01*
X459077Y6097D01*
X458929Y5302D01*
X459103Y4512D01*
X459570Y3852D01*
X460259Y3427D01*
X460961Y3302D01*
X478906Y3302D01*
X479699Y3463D01*
X480366Y3920D01*
X480802Y4602D01*
X480937Y5399D01*
X480784Y6112D01*
X479370Y9524D01*
X479370Y13336D01*
X480828Y16857D01*
X483523Y19552D01*
X487044Y21010D01*
X490856Y21010D01*
X494377Y19552D01*
X497072Y16857D01*
X498530Y13336D01*
X498530Y9524D01*
X497116Y6112D01*
X496962Y5318D01*
X497129Y4527D01*
X497592Y3863D01*
X498276Y3433D01*
X498994Y3302D01*
X516939Y3302D01*
X517732Y3463D01*
X518399Y3920D01*
X518835Y4602D01*
X518970Y5399D01*
X518784Y6186D01*
X518376Y6771D01*
X517156Y7991D01*
X514885Y13473D01*
X514885Y19407D01*
X517156Y24889D01*
X521351Y29084D01*
X526833Y31355D01*
X532767Y31355D01*
X538249Y29084D01*
X542444Y24889D01*
X544715Y19407D01*
X544715Y13473D01*
X542444Y7991D01*
X541224Y6771D01*
X540777Y6097D01*
X540629Y5302D01*
X540803Y4512D01*
X541270Y3852D01*
X541959Y3427D01*
X542661Y3302D01*
X574939Y3302D01*
X575732Y3463D01*
X576399Y3920D01*
X576835Y4602D01*
X576970Y5399D01*
X576784Y6186D01*
X576376Y6771D01*
X575156Y7991D01*
X572885Y13473D01*
X572885Y19407D01*
X575156Y24889D01*
X579351Y29084D01*
X584833Y31355D01*
X590767Y31355D01*
X596249Y29084D01*
X600444Y24889D01*
X602715Y19407D01*
X602715Y13473D01*
X600444Y7991D01*
X599224Y6771D01*
X598777Y6097D01*
X598629Y5302D01*
X598803Y4512D01*
X599270Y3852D01*
X599959Y3427D01*
X600661Y3302D01*
X618606Y3302D01*
X619399Y3463D01*
X620066Y3920D01*
X620502Y4602D01*
X620637Y5399D01*
X620484Y6112D01*
X619070Y9524D01*
X619070Y13336D01*
X620528Y16857D01*
X623223Y19552D01*
X626744Y21010D01*
X630556Y21010D01*
X634077Y19552D01*
X636772Y16857D01*
X638230Y13336D01*
X638230Y9524D01*
X636816Y6112D01*
X636662Y5318D01*
X636829Y4527D01*
X637292Y3863D01*
X637976Y3433D01*
X638694Y3302D01*
X656639Y3302D01*
X657432Y3463D01*
X658099Y3920D01*
X658535Y4602D01*
X658670Y5399D01*
X658484Y6186D01*
X658076Y6771D01*
X656856Y7991D01*
X654585Y13473D01*
X654585Y19407D01*
X656856Y24889D01*
X661051Y29084D01*
X666533Y31355D01*
X672467Y31355D01*
X677949Y29084D01*
X682144Y24889D01*
X684415Y19407D01*
X684415Y13473D01*
X682144Y7991D01*
X680924Y6771D01*
X680477Y6097D01*
X680329Y5302D01*
X680503Y4512D01*
X680970Y3852D01*
X681659Y3427D01*
X682361Y3302D01*
X714639Y3302D01*
X715432Y3463D01*
X716099Y3920D01*
X716535Y4602D01*
X716670Y5399D01*
X716484Y6186D01*
X716076Y6771D01*
X714856Y7991D01*
X712585Y13473D01*
X712585Y19407D01*
X714856Y24889D01*
X719051Y29084D01*
X724533Y31355D01*
X730467Y31355D01*
X735949Y29084D01*
X740144Y24889D01*
X742415Y19407D01*
X742415Y13473D01*
X740144Y7991D01*
X738924Y6771D01*
X738477Y6097D01*
X738329Y5302D01*
X738503Y4512D01*
X738970Y3852D01*
X739659Y3427D01*
X740361Y3302D01*
X758306Y3302D01*
X759099Y3463D01*
X759766Y3920D01*
X760202Y4602D01*
X760337Y5399D01*
X760184Y6112D01*
X758770Y9524D01*
X758770Y13336D01*
X760228Y16857D01*
X762923Y19552D01*
X766444Y21010D01*
X770256Y21010D01*
X773777Y19552D01*
X776472Y16857D01*
X777930Y13336D01*
X777930Y9524D01*
X776516Y6112D01*
X776362Y5318D01*
X776529Y4527D01*
X776992Y3863D01*
X777676Y3433D01*
X778394Y3302D01*
X814865Y3302D01*
X815657Y3463D01*
X816324Y3920D01*
X816760Y4602D01*
X816896Y5399D01*
X816742Y6112D01*
X816638Y6362D01*
X816638Y8878D01*
X817600Y11201D01*
X819379Y12980D01*
X821702Y13942D01*
X824218Y13942D01*
X826541Y12980D01*
X826603Y12918D01*
X827277Y12471D01*
X828072Y12323D01*
X828862Y12496D01*
X829477Y12918D01*
X829539Y12980D01*
X831862Y13942D01*
X834378Y13942D01*
X836701Y12980D01*
X836763Y12918D01*
X837437Y12471D01*
X838232Y12323D01*
X839022Y12496D01*
X839637Y12918D01*
X839699Y12980D01*
X842022Y13942D01*
X844538Y13942D01*
X846861Y12980D01*
X846923Y12918D01*
X847597Y12471D01*
X848392Y12323D01*
X849182Y12496D01*
X849797Y12918D01*
X849859Y12980D01*
X852182Y13942D01*
X854698Y13942D01*
X857021Y12980D01*
X857083Y12918D01*
X857757Y12471D01*
X858552Y12323D01*
X859342Y12496D01*
X859957Y12918D01*
X860019Y12980D01*
X862342Y13942D01*
X864858Y13942D01*
X867181Y12980D01*
X867243Y12918D01*
X867917Y12471D01*
X868712Y12323D01*
X869502Y12496D01*
X870117Y12918D01*
X870179Y12980D01*
X872502Y13942D01*
X875018Y13942D01*
X877341Y12980D01*
X877403Y12918D01*
X878077Y12471D01*
X878872Y12323D01*
X879662Y12496D01*
X880277Y12918D01*
X880339Y12980D01*
X882662Y13942D01*
X885178Y13942D01*
X887501Y12980D01*
X889280Y11201D01*
X890242Y8878D01*
X890242Y6362D01*
X890138Y6112D01*
X889983Y5318D01*
X890151Y4527D01*
X890613Y3863D01*
X891298Y3433D01*
X892015Y3302D01*
X994666Y3302D01*
X995459Y3463D01*
X996126Y3920D01*
X996561Y4602D01*
X996698Y5334D01*
X996698Y1074666D01*
X996537Y1075459D01*
X996080Y1076126D01*
X995399Y1076561D01*
X994666Y1076698D01*
X5334Y1076698D01*
X4541Y1076537D01*
X3874Y1076080D01*
X3439Y1075399D01*
X3302Y1074666D01*
X3302Y5334D01*
X3463Y4541D01*
X3920Y3874D01*
X4602Y3439D01*
X5334Y3302D01*
X97839Y3302D01*
X98632Y3463D01*
G37*
%LPC*%
G36*
X277475Y21760D02*
X273917Y23234D01*
X271194Y25957D01*
X269720Y29515D01*
X269720Y33366D01*
X271194Y36923D01*
X274078Y39807D01*
X274385Y40015D01*
X274827Y40692D01*
X274969Y41489D01*
X274789Y42277D01*
X274316Y42933D01*
X274043Y43107D01*
X271194Y45957D01*
X269720Y49515D01*
X269720Y53366D01*
X271194Y56923D01*
X274078Y59807D01*
X274385Y60015D01*
X274827Y60692D01*
X274969Y61489D01*
X274789Y62277D01*
X274316Y62933D01*
X274043Y63107D01*
X271194Y65957D01*
X270627Y67326D01*
X270175Y67996D01*
X269497Y68437D01*
X268749Y68580D01*
X228346Y68580D01*
X227553Y68419D01*
X226886Y67962D01*
X226451Y67281D01*
X226314Y66548D01*
X226314Y48722D01*
X225695Y47228D01*
X219526Y41058D01*
X219079Y40384D01*
X218931Y39589D01*
X219085Y38844D01*
X219130Y38736D01*
X219130Y34924D01*
X217672Y31403D01*
X214977Y28708D01*
X211456Y27250D01*
X207644Y27250D01*
X204123Y28708D01*
X201428Y31403D01*
X199970Y34924D01*
X199970Y38736D01*
X201428Y42257D01*
X204123Y44952D01*
X207644Y46410D01*
X211456Y46410D01*
X211564Y46365D01*
X212358Y46211D01*
X213149Y46378D01*
X213778Y46806D01*
X217591Y50618D01*
X218037Y51292D01*
X218186Y52055D01*
X218186Y52412D01*
X218025Y53205D01*
X217568Y53872D01*
X216887Y54308D01*
X216089Y54443D01*
X215302Y54257D01*
X215254Y54223D01*
X211456Y52650D01*
X207644Y52650D01*
X204123Y54108D01*
X201428Y56803D01*
X199970Y60324D01*
X199970Y64136D01*
X201428Y67657D01*
X204123Y70352D01*
X204486Y70502D01*
X205156Y70954D01*
X205597Y71631D01*
X205740Y72379D01*
X205740Y77481D01*
X205579Y78274D01*
X205122Y78941D01*
X204486Y79358D01*
X204123Y79508D01*
X201428Y82203D01*
X199970Y85724D01*
X199970Y89536D01*
X201428Y93057D01*
X203963Y95591D01*
X204410Y96265D01*
X204558Y97060D01*
X204384Y97850D01*
X203916Y98510D01*
X203228Y98935D01*
X202526Y99060D01*
X185647Y99060D01*
X184854Y98899D01*
X184187Y98442D01*
X183752Y97761D01*
X183615Y97028D01*
X183615Y93473D01*
X181344Y87991D01*
X177149Y83796D01*
X171667Y81525D01*
X165733Y81525D01*
X160251Y83796D01*
X156056Y87991D01*
X153785Y93473D01*
X153785Y97028D01*
X153624Y97821D01*
X153167Y98488D01*
X152486Y98923D01*
X151753Y99060D01*
X150062Y99060D01*
X149270Y98899D01*
X148603Y98442D01*
X148167Y97761D01*
X148031Y96963D01*
X148185Y96250D01*
X149380Y93365D01*
X149380Y92202D01*
X130020Y92202D01*
X130020Y93365D01*
X131215Y96250D01*
X131370Y97044D01*
X131202Y97835D01*
X130740Y98499D01*
X130055Y98929D01*
X129338Y99060D01*
X127647Y99060D01*
X126854Y98899D01*
X126187Y98442D01*
X125752Y97761D01*
X125615Y97028D01*
X125615Y93473D01*
X123344Y87991D01*
X119149Y83796D01*
X113667Y81525D01*
X107733Y81525D01*
X102251Y83796D01*
X98056Y87991D01*
X95785Y93473D01*
X95785Y97028D01*
X95624Y97821D01*
X95167Y98488D01*
X94486Y98923D01*
X93753Y99060D01*
X88963Y99060D01*
X88591Y99083D01*
X88258Y99147D01*
X87940Y99253D01*
X87638Y99401D01*
X87359Y99586D01*
X87056Y99852D01*
X61749Y125159D01*
X61502Y125439D01*
X61311Y125720D01*
X61162Y126020D01*
X61053Y126337D01*
X60987Y126665D01*
X60960Y127067D01*
X60960Y201306D01*
X60799Y202099D01*
X60365Y202743D01*
X23649Y239459D01*
X23402Y239739D01*
X23211Y240020D01*
X23062Y240320D01*
X22953Y240637D01*
X22887Y240965D01*
X22860Y241367D01*
X22860Y330137D01*
X22883Y330509D01*
X22947Y330843D01*
X23053Y331160D01*
X23201Y331462D01*
X23386Y331741D01*
X23652Y332044D01*
X87059Y395451D01*
X87339Y395698D01*
X87620Y395889D01*
X87920Y396038D01*
X88237Y396147D01*
X88565Y396213D01*
X88967Y396240D01*
X302906Y396240D01*
X303699Y396401D01*
X304343Y396835D01*
X328359Y420851D01*
X328639Y421098D01*
X328920Y421289D01*
X329220Y421438D01*
X329537Y421547D01*
X329865Y421613D01*
X330267Y421640D01*
X379106Y421640D01*
X379899Y421801D01*
X380543Y422235D01*
X404559Y446251D01*
X404839Y446498D01*
X405120Y446689D01*
X405420Y446838D01*
X405737Y446947D01*
X406065Y447013D01*
X406467Y447040D01*
X430654Y447040D01*
X431446Y447201D01*
X432113Y447658D01*
X432549Y448340D01*
X432685Y449137D01*
X432499Y449924D01*
X432091Y450509D01*
X430250Y452349D01*
X429288Y454672D01*
X429288Y457188D01*
X430250Y459511D01*
X432029Y461290D01*
X434352Y462252D01*
X434820Y462252D01*
X435612Y462413D01*
X436279Y462870D01*
X436697Y463506D01*
X437441Y465301D01*
X437595Y466095D01*
X437428Y466886D01*
X436965Y467550D01*
X436281Y467980D01*
X435482Y468109D01*
X434424Y467761D01*
X434350Y467711D01*
X434050Y467562D01*
X433733Y467453D01*
X433405Y467387D01*
X433003Y467360D01*
X330263Y467360D01*
X329891Y467383D01*
X329558Y467447D01*
X329240Y467553D01*
X328938Y467701D01*
X328659Y467886D01*
X328356Y468152D01*
X252249Y544259D01*
X252002Y544539D01*
X251811Y544820D01*
X251662Y545120D01*
X251553Y545437D01*
X251487Y545765D01*
X251460Y546167D01*
X251460Y673037D01*
X251483Y673409D01*
X251547Y673743D01*
X251653Y674060D01*
X251801Y674362D01*
X251986Y674641D01*
X252252Y674944D01*
X264763Y687455D01*
X265209Y688129D01*
X265358Y688924D01*
X265184Y689714D01*
X264763Y690328D01*
X194564Y760527D01*
X194564Y792683D01*
X204129Y802248D01*
X204575Y802922D01*
X204724Y803685D01*
X204724Y815464D01*
X204563Y816256D01*
X204129Y816901D01*
X202920Y818109D01*
X201958Y820432D01*
X201958Y822948D01*
X202920Y825271D01*
X204699Y827050D01*
X207022Y828012D01*
X209538Y828012D01*
X211861Y827050D01*
X213640Y825271D01*
X214602Y822948D01*
X214602Y820432D01*
X213640Y818109D01*
X212431Y816901D01*
X211985Y816226D01*
X211836Y815464D01*
X211836Y799897D01*
X202271Y790332D01*
X201825Y789658D01*
X201676Y788895D01*
X201676Y764315D01*
X201837Y763522D01*
X202271Y762878D01*
X269792Y695357D01*
X270466Y694911D01*
X271261Y694762D01*
X272051Y694936D01*
X272665Y695357D01*
X297879Y720571D01*
X298159Y720818D01*
X298440Y721009D01*
X298740Y721158D01*
X299057Y721267D01*
X299385Y721333D01*
X299787Y721360D01*
X330137Y721360D01*
X330509Y721337D01*
X330843Y721273D01*
X331160Y721167D01*
X331462Y721019D01*
X331741Y720834D01*
X332044Y720568D01*
X342087Y710525D01*
X342761Y710079D01*
X343524Y709930D01*
X365514Y709930D01*
X366307Y710091D01*
X366974Y710548D01*
X367409Y711230D01*
X367545Y712027D01*
X367359Y712814D01*
X366880Y713466D01*
X366292Y713839D01*
X365989Y713965D01*
X364210Y715743D01*
X363248Y718067D01*
X363248Y720582D01*
X364334Y723204D01*
X364437Y723360D01*
X364585Y724155D01*
X364412Y724945D01*
X364316Y725084D01*
X363248Y727663D01*
X363248Y730178D01*
X364210Y732501D01*
X365989Y734280D01*
X368312Y735242D01*
X370828Y735242D01*
X373151Y734280D01*
X374930Y732501D01*
X375892Y730178D01*
X375892Y727663D01*
X374806Y725040D01*
X374703Y724885D01*
X374555Y724090D01*
X374728Y723300D01*
X374824Y723160D01*
X375892Y720582D01*
X375892Y718067D01*
X374930Y715743D01*
X373151Y713965D01*
X372848Y713839D01*
X372178Y713387D01*
X371737Y712710D01*
X371595Y711913D01*
X371774Y711125D01*
X372248Y710469D01*
X372939Y710050D01*
X373626Y709930D01*
X377836Y709930D01*
X378629Y710091D01*
X379273Y710525D01*
X409639Y740891D01*
X409919Y741138D01*
X410200Y741329D01*
X410500Y741478D01*
X410817Y741587D01*
X411145Y741653D01*
X411547Y741680D01*
X453514Y741680D01*
X454306Y741841D01*
X454973Y742298D01*
X455409Y742980D01*
X455545Y743777D01*
X455359Y744564D01*
X454951Y745149D01*
X454380Y745719D01*
X453341Y748228D01*
X452889Y748898D01*
X452242Y749327D01*
X449733Y750367D01*
X447954Y752145D01*
X446992Y754469D01*
X446992Y756984D01*
X447954Y759307D01*
X449733Y761086D01*
X452056Y762048D01*
X454571Y762048D01*
X456895Y761086D01*
X458673Y759307D01*
X459713Y756798D01*
X460165Y756128D01*
X460812Y755699D01*
X463321Y754660D01*
X464938Y753043D01*
X465612Y752596D01*
X466407Y752448D01*
X467197Y752622D01*
X467856Y753089D01*
X468281Y753778D01*
X468407Y754480D01*
X468407Y757159D01*
X469369Y759483D01*
X471147Y761261D01*
X473471Y762223D01*
X475986Y762223D01*
X478310Y761261D01*
X480088Y759483D01*
X481205Y756786D01*
X481206Y756786D01*
X481212Y756758D01*
X481669Y756091D01*
X482350Y755655D01*
X483147Y755520D01*
X483934Y755706D01*
X484586Y756184D01*
X484960Y756773D01*
X485978Y759231D01*
X487757Y761010D01*
X490080Y761972D01*
X492595Y761972D01*
X494919Y761010D01*
X495057Y760871D01*
X495731Y760425D01*
X496526Y760276D01*
X497316Y760450D01*
X497931Y760871D01*
X498069Y761010D01*
X500392Y761972D01*
X502908Y761972D01*
X505231Y761010D01*
X507010Y759231D01*
X507972Y756908D01*
X507972Y754392D01*
X507541Y753352D01*
X507386Y752558D01*
X507554Y751767D01*
X508016Y751103D01*
X508701Y750673D01*
X509418Y750542D01*
X510528Y750542D01*
X512851Y749580D01*
X514630Y747801D01*
X515592Y745478D01*
X515592Y742962D01*
X514630Y740639D01*
X512851Y738860D01*
X510528Y737898D01*
X508012Y737898D01*
X505504Y738937D01*
X504710Y739092D01*
X503948Y738937D01*
X501440Y737898D01*
X498924Y737898D01*
X496601Y738860D01*
X494822Y740639D01*
X493860Y742962D01*
X493860Y745478D01*
X494291Y746518D01*
X494446Y747312D01*
X494279Y748103D01*
X493816Y748767D01*
X493131Y749197D01*
X492414Y749328D01*
X490080Y749328D01*
X488841Y749841D01*
X488047Y749996D01*
X487256Y749829D01*
X486593Y749366D01*
X486162Y748681D01*
X486032Y747964D01*
X486032Y746772D01*
X485069Y744449D01*
X483291Y742670D01*
X480967Y741708D01*
X478452Y741708D01*
X476129Y742670D01*
X474350Y744449D01*
X473388Y746772D01*
X473388Y748256D01*
X473227Y749049D01*
X472769Y749716D01*
X472133Y750134D01*
X471147Y750542D01*
X469531Y752159D01*
X468857Y752605D01*
X468062Y752753D01*
X467272Y752580D01*
X466612Y752112D01*
X466187Y751424D01*
X466062Y750722D01*
X466062Y748042D01*
X465100Y745719D01*
X463321Y743940D01*
X460998Y742978D01*
X459320Y742978D01*
X458527Y742817D01*
X457860Y742360D01*
X457424Y741679D01*
X457289Y740881D01*
X457475Y740094D01*
X457883Y739509D01*
X495864Y701528D01*
X496539Y701081D01*
X497334Y700933D01*
X498124Y701106D01*
X498738Y701528D01*
X520613Y723403D01*
X521059Y724077D01*
X521208Y724839D01*
X521208Y838298D01*
X522673Y839763D01*
X523119Y840437D01*
X523268Y841199D01*
X523268Y843268D01*
X524031Y845111D01*
X524186Y845905D01*
X524019Y846696D01*
X523556Y847359D01*
X522872Y847790D01*
X522073Y847919D01*
X521288Y847726D01*
X520717Y847325D01*
X484441Y811049D01*
X484161Y810802D01*
X483880Y810611D01*
X483580Y810462D01*
X483263Y810353D01*
X482935Y810287D01*
X482533Y810260D01*
X446394Y810260D01*
X445601Y810099D01*
X444957Y809665D01*
X382841Y747549D01*
X382561Y747302D01*
X382280Y747111D01*
X381980Y746962D01*
X381663Y746853D01*
X381335Y746787D01*
X380933Y746760D01*
X254063Y746760D01*
X253691Y746783D01*
X253358Y746847D01*
X253040Y746953D01*
X252738Y747101D01*
X252459Y747286D01*
X252156Y747552D01*
X248435Y751273D01*
X247761Y751719D01*
X246998Y751868D01*
X245122Y751868D01*
X242799Y752830D01*
X241020Y754609D01*
X240058Y756932D01*
X240058Y758808D01*
X239897Y759601D01*
X239463Y760245D01*
X226849Y772859D01*
X226602Y773139D01*
X226411Y773420D01*
X226262Y773720D01*
X226153Y774037D01*
X226087Y774365D01*
X226060Y774767D01*
X226060Y851662D01*
X225899Y852455D01*
X225442Y853122D01*
X224761Y853557D01*
X224028Y853694D01*
X169955Y853694D01*
X169162Y853533D01*
X168518Y853099D01*
X98823Y783404D01*
X47742Y783404D01*
X46949Y783243D01*
X46282Y782786D01*
X45865Y782150D01*
X45473Y781205D01*
X42615Y778347D01*
X38881Y776800D01*
X34839Y776800D01*
X31105Y778347D01*
X28247Y781205D01*
X26700Y784939D01*
X26700Y788981D01*
X28247Y792715D01*
X31105Y795573D01*
X34839Y797120D01*
X38881Y797120D01*
X42615Y795573D01*
X45473Y792715D01*
X45865Y791770D01*
X46317Y791100D01*
X46994Y790659D01*
X47742Y790516D01*
X95035Y790516D01*
X95828Y790677D01*
X96472Y791111D01*
X166167Y860806D01*
X224028Y860806D01*
X224821Y860967D01*
X225488Y861424D01*
X225923Y862106D01*
X226060Y862838D01*
X226060Y952437D01*
X226083Y952809D01*
X226147Y953143D01*
X226253Y953460D01*
X226401Y953762D01*
X226586Y954041D01*
X226852Y954344D01*
X252159Y979651D01*
X252439Y979898D01*
X252720Y980089D01*
X253020Y980238D01*
X253337Y980347D01*
X253665Y980413D01*
X254067Y980440D01*
X469837Y980440D01*
X470209Y980417D01*
X470543Y980353D01*
X470860Y980247D01*
X471162Y980099D01*
X471441Y979914D01*
X471744Y979648D01*
X494415Y956977D01*
X495089Y956531D01*
X495884Y956382D01*
X496674Y956556D01*
X497288Y956977D01*
X573754Y1033443D01*
X574200Y1034117D01*
X574349Y1034912D01*
X574194Y1035657D01*
X573980Y1036174D01*
X573980Y1039986D01*
X575438Y1043507D01*
X578133Y1046202D01*
X581654Y1047660D01*
X585466Y1047660D01*
X588987Y1046202D01*
X591682Y1043507D01*
X593140Y1039986D01*
X593140Y1036174D01*
X591682Y1032653D01*
X588987Y1029958D01*
X585466Y1028500D01*
X581654Y1028500D01*
X580939Y1028796D01*
X580145Y1028951D01*
X579354Y1028784D01*
X578725Y1028356D01*
X502317Y951948D01*
X501871Y951274D01*
X501722Y950479D01*
X501896Y949689D01*
X502317Y949075D01*
X522451Y928941D01*
X522698Y928661D01*
X522889Y928380D01*
X523038Y928080D01*
X523147Y927763D01*
X523213Y927435D01*
X523240Y927033D01*
X523240Y868172D01*
X523401Y867379D01*
X523858Y866712D01*
X524540Y866277D01*
X525272Y866140D01*
X630418Y866140D01*
X633686Y864787D01*
X636472Y862000D01*
X651940Y846533D01*
X652614Y846086D01*
X653409Y845938D01*
X654199Y846111D01*
X654814Y846533D01*
X679109Y870828D01*
X679555Y871502D01*
X679704Y872265D01*
X679704Y882314D01*
X679543Y883106D01*
X679109Y883751D01*
X677900Y884959D01*
X676938Y887282D01*
X676938Y889798D01*
X677900Y892121D01*
X679679Y893900D01*
X682002Y894862D01*
X684518Y894862D01*
X686841Y893900D01*
X688620Y892121D01*
X689582Y889798D01*
X689582Y887282D01*
X688620Y884959D01*
X687411Y883751D01*
X686965Y883076D01*
X686816Y882314D01*
X686816Y868477D01*
X659843Y841504D01*
X659396Y840829D01*
X659248Y840034D01*
X659421Y839244D01*
X659843Y838630D01*
X763257Y735215D01*
X763931Y734769D01*
X764727Y734620D01*
X765516Y734794D01*
X766131Y735215D01*
X850305Y819389D01*
X850751Y820063D01*
X850900Y820826D01*
X850900Y846529D01*
X850739Y847321D01*
X850305Y847966D01*
X847774Y850497D01*
X846300Y854055D01*
X846300Y857906D01*
X847774Y861463D01*
X850497Y864186D01*
X854055Y865660D01*
X857906Y865660D01*
X861463Y864186D01*
X864186Y861463D01*
X865660Y857906D01*
X865660Y854055D01*
X864186Y850497D01*
X861655Y847966D01*
X861209Y847291D01*
X861060Y846529D01*
X861060Y816870D01*
X860287Y815002D01*
X773315Y728031D01*
X772869Y727357D01*
X772720Y726562D01*
X772894Y725772D01*
X773315Y725157D01*
X799032Y699440D01*
X841287Y657185D01*
X841961Y656739D01*
X842724Y656590D01*
X941568Y656590D01*
X944836Y655237D01*
X974837Y625236D01*
X976190Y621968D01*
X976190Y440333D01*
X976351Y439540D01*
X976785Y438896D01*
X976971Y438710D01*
X977645Y438264D01*
X978440Y438115D01*
X979230Y438289D01*
X979890Y438757D01*
X980315Y439445D01*
X980440Y440147D01*
X980440Y901820D01*
X980279Y902613D01*
X979845Y903257D01*
X854634Y1028467D01*
X853960Y1028914D01*
X853165Y1029062D01*
X852375Y1028889D01*
X851716Y1028421D01*
X851291Y1027733D01*
X851168Y1026933D01*
X851320Y1026253D01*
X854170Y1019373D01*
X854170Y1011707D01*
X851236Y1004624D01*
X845816Y999204D01*
X838733Y996270D01*
X831067Y996270D01*
X823984Y999204D01*
X818564Y1004624D01*
X815630Y1011707D01*
X815630Y1019373D01*
X818564Y1026456D01*
X823984Y1031876D01*
X831067Y1034810D01*
X838733Y1034810D01*
X845613Y1031960D01*
X846407Y1031806D01*
X847198Y1031973D01*
X847861Y1032436D01*
X848292Y1033120D01*
X848421Y1033919D01*
X848229Y1034704D01*
X847827Y1035274D01*
X820707Y1062395D01*
X820033Y1062841D01*
X819270Y1062990D01*
X364370Y1062990D01*
X363577Y1062829D01*
X362933Y1062395D01*
X350828Y1050290D01*
X323491Y1050290D01*
X322698Y1050129D01*
X322031Y1049672D01*
X321613Y1049036D01*
X321251Y1048161D01*
X317899Y1044809D01*
X313520Y1042995D01*
X308780Y1042995D01*
X304401Y1044809D01*
X301049Y1048161D01*
X300327Y1049903D01*
X299875Y1050574D01*
X299198Y1051015D01*
X298401Y1051157D01*
X297613Y1050977D01*
X296957Y1050504D01*
X296573Y1049903D01*
X295851Y1048161D01*
X292499Y1044809D01*
X288120Y1042995D01*
X283380Y1042995D01*
X279001Y1044809D01*
X275649Y1048161D01*
X273835Y1052540D01*
X273835Y1057280D01*
X275649Y1061659D01*
X279001Y1065011D01*
X283380Y1066825D01*
X288120Y1066825D01*
X292499Y1065011D01*
X295851Y1061659D01*
X296573Y1059917D01*
X297025Y1059247D01*
X297702Y1058805D01*
X298499Y1058663D01*
X299287Y1058843D01*
X299943Y1059316D01*
X300327Y1059917D01*
X301049Y1061659D01*
X304401Y1065011D01*
X308780Y1066825D01*
X313520Y1066825D01*
X317899Y1065011D01*
X321251Y1061659D01*
X322284Y1059164D01*
X322736Y1058494D01*
X323414Y1058053D01*
X324162Y1057910D01*
X346830Y1057910D01*
X347623Y1058071D01*
X348267Y1058505D01*
X360372Y1070610D01*
X823268Y1070610D01*
X988060Y905818D01*
X988060Y403312D01*
X979819Y395070D01*
X979372Y394396D01*
X979224Y393601D01*
X979378Y392856D01*
X980340Y390534D01*
X980340Y385346D01*
X978355Y380553D01*
X974687Y376885D01*
X969894Y374900D01*
X964706Y374900D01*
X959913Y376885D01*
X956245Y380553D01*
X954260Y385346D01*
X954260Y390534D01*
X956245Y395327D01*
X959913Y398995D01*
X964706Y400980D01*
X969894Y400980D01*
X972216Y400018D01*
X973010Y399864D01*
X973801Y400031D01*
X974430Y400459D01*
X979845Y405873D01*
X980291Y406547D01*
X980440Y407310D01*
X980440Y419733D01*
X980279Y420526D01*
X979822Y421193D01*
X979141Y421628D01*
X978343Y421764D01*
X977556Y421578D01*
X976971Y421170D01*
X974687Y418885D01*
X969894Y416900D01*
X967674Y416900D01*
X966881Y416739D01*
X966237Y416305D01*
X949285Y399353D01*
X948839Y398679D01*
X948690Y397916D01*
X948690Y328432D01*
X947337Y325164D01*
X904556Y282383D01*
X904109Y281709D01*
X903961Y280914D01*
X904071Y280286D01*
X904147Y280063D01*
X904213Y279735D01*
X904240Y279333D01*
X904240Y127063D01*
X904217Y126691D01*
X904153Y126358D01*
X904047Y126040D01*
X903899Y125738D01*
X903714Y125459D01*
X903448Y125156D01*
X878141Y99849D01*
X877861Y99602D01*
X877580Y99411D01*
X877280Y99262D01*
X876963Y99153D01*
X876635Y99087D01*
X876233Y99060D01*
X775374Y99060D01*
X774581Y98899D01*
X773914Y98442D01*
X773478Y97761D01*
X773343Y96963D01*
X773529Y96176D01*
X773937Y95591D01*
X775969Y93559D01*
X776643Y93113D01*
X777406Y92964D01*
X886475Y92964D01*
X887268Y93125D01*
X887912Y93559D01*
X924981Y130628D01*
X925427Y131302D01*
X925576Y132065D01*
X925576Y282572D01*
X925415Y283364D01*
X924981Y284009D01*
X924280Y284709D01*
X923318Y287032D01*
X923318Y289548D01*
X924280Y291871D01*
X926059Y293650D01*
X928382Y294612D01*
X930898Y294612D01*
X933221Y293650D01*
X935000Y291871D01*
X935962Y289548D01*
X935962Y287032D01*
X935000Y284709D01*
X934299Y284009D01*
X933853Y283334D01*
X933704Y282572D01*
X933704Y128732D01*
X933085Y127238D01*
X891302Y85455D01*
X889808Y84836D01*
X778920Y84836D01*
X778127Y84675D01*
X777460Y84218D01*
X777042Y83582D01*
X776472Y82203D01*
X773777Y79508D01*
X773414Y79358D01*
X772744Y78906D01*
X772303Y78229D01*
X772160Y77481D01*
X772160Y72379D01*
X772321Y71586D01*
X772778Y70919D01*
X773414Y70502D01*
X773777Y70352D01*
X776472Y67657D01*
X777930Y64136D01*
X777930Y60324D01*
X776472Y56803D01*
X773777Y54108D01*
X770256Y52650D01*
X766444Y52650D01*
X762571Y54255D01*
X762509Y54296D01*
X761714Y54444D01*
X760924Y54270D01*
X760264Y53802D01*
X759839Y53114D01*
X759714Y52412D01*
X759714Y52055D01*
X759875Y51262D01*
X760309Y50618D01*
X764122Y46806D01*
X764796Y46359D01*
X765591Y46211D01*
X766336Y46365D01*
X766444Y46410D01*
X770256Y46410D01*
X773777Y44952D01*
X776472Y42257D01*
X777930Y38736D01*
X777930Y34924D01*
X776472Y31403D01*
X773777Y28708D01*
X770256Y27250D01*
X766444Y27250D01*
X762923Y28708D01*
X760228Y31403D01*
X758770Y34924D01*
X758770Y38736D01*
X758815Y38844D01*
X758969Y39638D01*
X758802Y40429D01*
X758374Y41058D01*
X752205Y47228D01*
X751586Y48722D01*
X751586Y66548D01*
X751425Y67341D01*
X750968Y68008D01*
X750287Y68443D01*
X749554Y68580D01*
X709151Y68580D01*
X708358Y68419D01*
X707691Y67962D01*
X707273Y67326D01*
X706706Y65957D01*
X703822Y63073D01*
X703515Y62865D01*
X703073Y62188D01*
X702931Y61391D01*
X703111Y60603D01*
X703584Y59947D01*
X703857Y59773D01*
X706706Y56923D01*
X708180Y53366D01*
X708180Y49515D01*
X706706Y45957D01*
X703822Y43073D01*
X703515Y42865D01*
X703073Y42188D01*
X702931Y41391D01*
X703111Y40603D01*
X703584Y39947D01*
X703857Y39773D01*
X706706Y36923D01*
X708180Y33366D01*
X708180Y29515D01*
X706706Y25957D01*
X703983Y23234D01*
X700426Y21760D01*
X696575Y21760D01*
X693017Y23234D01*
X690294Y25957D01*
X688820Y29515D01*
X688820Y33366D01*
X690294Y36923D01*
X693178Y39807D01*
X693485Y40015D01*
X693927Y40692D01*
X694069Y41489D01*
X693889Y42277D01*
X693416Y42933D01*
X693143Y43107D01*
X690294Y45957D01*
X688820Y49515D01*
X688820Y53366D01*
X690294Y56923D01*
X693178Y59807D01*
X693485Y60015D01*
X693927Y60692D01*
X694069Y61489D01*
X693889Y62277D01*
X693416Y62933D01*
X693143Y63107D01*
X690294Y65957D01*
X689727Y67326D01*
X689275Y67996D01*
X688597Y68437D01*
X687849Y68580D01*
X662404Y68580D01*
X661611Y68419D01*
X660944Y67962D01*
X660509Y67281D01*
X660372Y66548D01*
X660372Y64782D01*
X659410Y62459D01*
X657631Y60680D01*
X655308Y59718D01*
X652792Y59718D01*
X650469Y60680D01*
X648883Y62267D01*
X648209Y62713D01*
X647414Y62861D01*
X646624Y62688D01*
X645964Y62220D01*
X645539Y61532D01*
X645414Y60830D01*
X645414Y48722D01*
X644795Y47228D01*
X638626Y41058D01*
X638179Y40384D01*
X638031Y39589D01*
X638185Y38844D01*
X638230Y38736D01*
X638230Y34924D01*
X636772Y31403D01*
X634077Y28708D01*
X630556Y27250D01*
X626744Y27250D01*
X623223Y28708D01*
X620528Y31403D01*
X619070Y34924D01*
X619070Y38736D01*
X620528Y42257D01*
X623223Y44952D01*
X626744Y46410D01*
X630556Y46410D01*
X630664Y46365D01*
X631458Y46211D01*
X632249Y46378D01*
X632878Y46806D01*
X636691Y50618D01*
X637137Y51292D01*
X637286Y52055D01*
X637286Y52412D01*
X637125Y53205D01*
X636668Y53872D01*
X635987Y54308D01*
X635189Y54443D01*
X634402Y54257D01*
X634354Y54223D01*
X630556Y52650D01*
X626744Y52650D01*
X623223Y54108D01*
X620528Y56803D01*
X619070Y60324D01*
X619070Y64136D01*
X619747Y65770D01*
X619902Y66564D01*
X619735Y67355D01*
X619272Y68019D01*
X618587Y68449D01*
X617870Y68580D01*
X612874Y68580D01*
X612081Y68419D01*
X611414Y67962D01*
X610979Y67281D01*
X610842Y66548D01*
X610842Y64782D01*
X609880Y62459D01*
X608101Y60680D01*
X605778Y59718D01*
X603262Y59718D01*
X600939Y60680D01*
X599160Y62459D01*
X598198Y64782D01*
X598198Y66548D01*
X598037Y67341D01*
X597580Y68008D01*
X596899Y68443D01*
X596166Y68580D01*
X569451Y68580D01*
X568658Y68419D01*
X567991Y67962D01*
X567573Y67326D01*
X567006Y65957D01*
X564122Y63073D01*
X563815Y62865D01*
X563373Y62188D01*
X563231Y61391D01*
X563411Y60603D01*
X563884Y59947D01*
X564157Y59773D01*
X567006Y56923D01*
X568480Y53366D01*
X568480Y49515D01*
X567006Y45957D01*
X564122Y43073D01*
X563815Y42865D01*
X563373Y42188D01*
X563231Y41391D01*
X563411Y40603D01*
X563884Y39947D01*
X564157Y39773D01*
X567006Y36923D01*
X568480Y33366D01*
X568480Y29515D01*
X567006Y25957D01*
X564283Y23234D01*
X560726Y21760D01*
X556875Y21760D01*
X553317Y23234D01*
X550594Y25957D01*
X549120Y29515D01*
X549120Y33366D01*
X550594Y36923D01*
X553478Y39807D01*
X553785Y40015D01*
X554227Y40692D01*
X554369Y41489D01*
X554189Y42277D01*
X553716Y42933D01*
X553443Y43107D01*
X550594Y45957D01*
X549120Y49515D01*
X549120Y53366D01*
X550594Y56923D01*
X553478Y59807D01*
X553785Y60015D01*
X554227Y60692D01*
X554369Y61489D01*
X554189Y62277D01*
X553716Y62933D01*
X553443Y63107D01*
X550594Y65957D01*
X550027Y67326D01*
X549575Y67996D01*
X548897Y68437D01*
X548149Y68580D01*
X507746Y68580D01*
X506953Y68419D01*
X506286Y67962D01*
X505851Y67281D01*
X505714Y66548D01*
X505714Y48722D01*
X505095Y47228D01*
X498926Y41058D01*
X498479Y40384D01*
X498331Y39589D01*
X498485Y38844D01*
X498530Y38736D01*
X498530Y34924D01*
X497072Y31403D01*
X494377Y28708D01*
X490856Y27250D01*
X487044Y27250D01*
X483523Y28708D01*
X480828Y31403D01*
X479370Y34924D01*
X479370Y38736D01*
X480828Y42257D01*
X483523Y44952D01*
X487044Y46410D01*
X490856Y46410D01*
X490964Y46365D01*
X491758Y46211D01*
X492549Y46378D01*
X493178Y46806D01*
X496991Y50618D01*
X497437Y51292D01*
X497586Y52055D01*
X497586Y52412D01*
X497425Y53205D01*
X496968Y53872D01*
X496287Y54308D01*
X495489Y54443D01*
X494702Y54257D01*
X494654Y54223D01*
X490856Y52650D01*
X487044Y52650D01*
X483523Y54108D01*
X480828Y56803D01*
X479370Y60324D01*
X479370Y64136D01*
X480047Y65770D01*
X480202Y66564D01*
X480035Y67355D01*
X479572Y68019D01*
X478887Y68449D01*
X478170Y68580D01*
X429751Y68580D01*
X428958Y68419D01*
X428291Y67962D01*
X427873Y67326D01*
X427306Y65957D01*
X424422Y63073D01*
X424115Y62865D01*
X423673Y62188D01*
X423531Y61391D01*
X423711Y60603D01*
X424184Y59947D01*
X424457Y59773D01*
X427306Y56923D01*
X428780Y53366D01*
X428780Y49515D01*
X427306Y45957D01*
X424422Y43073D01*
X424115Y42865D01*
X423673Y42188D01*
X423531Y41391D01*
X423711Y40603D01*
X424184Y39947D01*
X424457Y39773D01*
X427306Y36923D01*
X428780Y33366D01*
X428780Y29515D01*
X427306Y25957D01*
X424583Y23234D01*
X421026Y21760D01*
X417175Y21760D01*
X413617Y23234D01*
X410894Y25957D01*
X409420Y29515D01*
X409420Y33366D01*
X410894Y36923D01*
X413778Y39807D01*
X414085Y40015D01*
X414527Y40692D01*
X414669Y41489D01*
X414489Y42277D01*
X414016Y42933D01*
X413743Y43107D01*
X410894Y45957D01*
X409420Y49515D01*
X409420Y53366D01*
X410894Y56923D01*
X413778Y59807D01*
X414085Y60015D01*
X414527Y60692D01*
X414669Y61489D01*
X414489Y62277D01*
X414016Y62933D01*
X413743Y63107D01*
X410894Y65957D01*
X410327Y67326D01*
X409875Y67996D01*
X409197Y68437D01*
X408449Y68580D01*
X383004Y68580D01*
X382211Y68419D01*
X381544Y67962D01*
X381109Y67281D01*
X380972Y66548D01*
X380972Y64782D01*
X380010Y62459D01*
X378231Y60680D01*
X375908Y59718D01*
X373392Y59718D01*
X371069Y60680D01*
X369483Y62267D01*
X368809Y62713D01*
X368014Y62861D01*
X367224Y62688D01*
X366564Y62220D01*
X366139Y61532D01*
X366014Y60830D01*
X366014Y48722D01*
X365395Y47228D01*
X359226Y41058D01*
X358779Y40384D01*
X358631Y39589D01*
X358785Y38844D01*
X358830Y38736D01*
X358830Y34924D01*
X357372Y31403D01*
X354677Y28708D01*
X351156Y27250D01*
X347344Y27250D01*
X343823Y28708D01*
X341128Y31403D01*
X339670Y34924D01*
X339670Y38736D01*
X341128Y42257D01*
X343823Y44952D01*
X347344Y46410D01*
X351156Y46410D01*
X351264Y46365D01*
X352058Y46211D01*
X352849Y46378D01*
X353478Y46806D01*
X357291Y50618D01*
X357737Y51292D01*
X357886Y52055D01*
X357886Y52412D01*
X357725Y53205D01*
X357268Y53872D01*
X356587Y54308D01*
X355789Y54443D01*
X355002Y54257D01*
X354954Y54223D01*
X351156Y52650D01*
X347344Y52650D01*
X343823Y54108D01*
X341128Y56803D01*
X339670Y60324D01*
X339670Y64136D01*
X340347Y65770D01*
X340502Y66564D01*
X340335Y67355D01*
X339872Y68019D01*
X339187Y68449D01*
X338470Y68580D01*
X332204Y68580D01*
X331411Y68419D01*
X330744Y67962D01*
X330309Y67281D01*
X330172Y66548D01*
X330172Y64782D01*
X329210Y62459D01*
X327431Y60680D01*
X325108Y59718D01*
X322592Y59718D01*
X320269Y60680D01*
X318490Y62459D01*
X317528Y64782D01*
X317528Y66548D01*
X317367Y67341D01*
X316910Y68008D01*
X316229Y68443D01*
X315496Y68580D01*
X290051Y68580D01*
X289258Y68419D01*
X288591Y67962D01*
X288173Y67326D01*
X287606Y65957D01*
X284722Y63073D01*
X284415Y62865D01*
X283973Y62188D01*
X283831Y61391D01*
X284011Y60603D01*
X284484Y59947D01*
X284757Y59773D01*
X287606Y56923D01*
X289080Y53366D01*
X289080Y49515D01*
X287606Y45957D01*
X284722Y43073D01*
X284415Y42865D01*
X283973Y42188D01*
X283831Y41391D01*
X284011Y40603D01*
X284484Y39947D01*
X284757Y39773D01*
X287606Y36923D01*
X289080Y33366D01*
X289080Y29515D01*
X287606Y25957D01*
X284883Y23234D01*
X281326Y21760D01*
X277475Y21760D01*
G37*
G36*
X660522Y1038842D02*
X660522Y1047660D01*
X661666Y1047660D01*
X665187Y1046202D01*
X667882Y1043507D01*
X669340Y1039986D01*
X669340Y1038842D01*
X660522Y1038842D01*
G37*
G36*
X650180Y1038842D02*
X650180Y1039986D01*
X651638Y1043507D01*
X654333Y1046202D01*
X657854Y1047660D01*
X658998Y1047660D01*
X658998Y1038842D01*
X650180Y1038842D01*
G37*
G36*
X607054Y1028500D02*
X603533Y1029958D01*
X600838Y1032653D01*
X599380Y1036174D01*
X599380Y1039986D01*
X600838Y1043507D01*
X603533Y1046202D01*
X607054Y1047660D01*
X610866Y1047660D01*
X614387Y1046202D01*
X617082Y1043507D01*
X618540Y1039986D01*
X618540Y1036174D01*
X617082Y1032653D01*
X614387Y1029958D01*
X610866Y1028500D01*
X607054Y1028500D01*
G37*
G36*
X632454Y1028500D02*
X628933Y1029958D01*
X626238Y1032653D01*
X624780Y1036174D01*
X624780Y1039986D01*
X626238Y1043507D01*
X628933Y1046202D01*
X632454Y1047660D01*
X636266Y1047660D01*
X639787Y1046202D01*
X642482Y1043507D01*
X643940Y1039986D01*
X643940Y1036174D01*
X642482Y1032653D01*
X639787Y1029958D01*
X636266Y1028500D01*
X632454Y1028500D01*
G37*
G36*
X55799Y998880D02*
X48037Y1002095D01*
X42095Y1008037D01*
X38880Y1015799D01*
X38880Y1024201D01*
X42095Y1031964D01*
X48037Y1037905D01*
X55799Y1041120D01*
X64201Y1041120D01*
X71964Y1037905D01*
X77905Y1031964D01*
X81120Y1024201D01*
X81120Y1015799D01*
X77905Y1008037D01*
X71964Y1002095D01*
X64201Y998880D01*
X55799Y998880D01*
G37*
G36*
X935799Y998880D02*
X928037Y1002095D01*
X922095Y1008037D01*
X918880Y1015799D01*
X918880Y1024201D01*
X922095Y1031964D01*
X928037Y1037905D01*
X935799Y1041120D01*
X944201Y1041120D01*
X951964Y1037905D01*
X957905Y1031964D01*
X961120Y1024201D01*
X961120Y1015799D01*
X957905Y1008037D01*
X951964Y1002095D01*
X944201Y998880D01*
X935799Y998880D01*
G37*
G36*
X660522Y1028500D02*
X660522Y1037318D01*
X669340Y1037318D01*
X669340Y1036174D01*
X667882Y1032653D01*
X665187Y1029958D01*
X661666Y1028500D01*
X660522Y1028500D01*
G37*
G36*
X657854Y1028500D02*
X654333Y1029958D01*
X651638Y1032653D01*
X650180Y1036174D01*
X650180Y1037318D01*
X658998Y1037318D01*
X658998Y1028500D01*
X657854Y1028500D01*
G37*
G36*
X710667Y996270D02*
X703584Y999204D01*
X698164Y1004624D01*
X695230Y1011707D01*
X695230Y1019373D01*
X698164Y1026456D01*
X703584Y1031876D01*
X710667Y1034810D01*
X718333Y1034810D01*
X725416Y1031876D01*
X730836Y1026456D01*
X733770Y1019373D01*
X733770Y1011707D01*
X730836Y1004624D01*
X725416Y999204D01*
X718333Y996270D01*
X710667Y996270D01*
G37*
G36*
X752520Y989202D02*
X752520Y990366D01*
X753994Y993923D01*
X756717Y996646D01*
X760275Y998120D01*
X761438Y998120D01*
X761438Y989202D01*
X752520Y989202D01*
G37*
G36*
X785275Y958760D02*
X781717Y960234D01*
X778994Y962957D01*
X777520Y966515D01*
X777520Y970366D01*
X778994Y973923D01*
X781878Y976807D01*
X782185Y977015D01*
X782627Y977692D01*
X782769Y978489D01*
X782589Y979277D01*
X782116Y979933D01*
X781843Y980107D01*
X778994Y982957D01*
X777520Y986515D01*
X777520Y990366D01*
X778994Y993923D01*
X781717Y996646D01*
X785275Y998120D01*
X789126Y998120D01*
X792683Y996646D01*
X795406Y993923D01*
X796880Y990366D01*
X796880Y986515D01*
X795406Y982957D01*
X792522Y980073D01*
X792215Y979865D01*
X791773Y979188D01*
X791631Y978391D01*
X791811Y977603D01*
X792284Y976947D01*
X792557Y976773D01*
X795406Y973923D01*
X796880Y970366D01*
X796880Y966515D01*
X795406Y962957D01*
X792683Y960234D01*
X789126Y958760D01*
X785275Y958760D01*
G37*
G36*
X762962Y989202D02*
X762962Y998120D01*
X764126Y998120D01*
X767683Y996646D01*
X770406Y993923D01*
X771880Y990366D01*
X771880Y989202D01*
X762962Y989202D01*
G37*
G36*
X760275Y958760D02*
X756717Y960234D01*
X753994Y962957D01*
X752520Y966515D01*
X752520Y970366D01*
X753994Y973923D01*
X756878Y976807D01*
X757185Y977015D01*
X757627Y977692D01*
X757769Y978489D01*
X757589Y979277D01*
X757116Y979933D01*
X756843Y980107D01*
X753994Y982957D01*
X752520Y986515D01*
X752520Y987678D01*
X771880Y987678D01*
X771880Y986515D01*
X770406Y982957D01*
X767522Y980073D01*
X767215Y979865D01*
X766773Y979188D01*
X766631Y978391D01*
X766811Y977603D01*
X767284Y976947D01*
X767557Y976773D01*
X770406Y973923D01*
X771880Y970366D01*
X771880Y966515D01*
X770406Y962957D01*
X767683Y960234D01*
X764126Y958760D01*
X760275Y958760D01*
G37*
G36*
X582942Y946178D02*
X580619Y947140D01*
X578840Y948919D01*
X577878Y951242D01*
X577878Y953758D01*
X578840Y956081D01*
X580619Y957860D01*
X582942Y958822D01*
X585458Y958822D01*
X587781Y957860D01*
X589560Y956081D01*
X590522Y953758D01*
X590522Y951242D01*
X589560Y948919D01*
X587781Y947140D01*
X585458Y946178D01*
X582942Y946178D01*
G37*
G36*
X697242Y925858D02*
X694919Y926820D01*
X693140Y928599D01*
X692178Y930922D01*
X692178Y933438D01*
X693140Y935761D01*
X694919Y937540D01*
X697242Y938502D01*
X699758Y938502D01*
X702081Y937540D01*
X703860Y935761D01*
X704822Y933438D01*
X704822Y930922D01*
X703860Y928599D01*
X702081Y926820D01*
X699758Y925858D01*
X697242Y925858D01*
G37*
G36*
X872502Y920778D02*
X870179Y921740D01*
X868400Y923519D01*
X867438Y925842D01*
X867438Y928358D01*
X868400Y930681D01*
X870179Y932460D01*
X872502Y933422D01*
X875018Y933422D01*
X877341Y932460D01*
X879120Y930681D01*
X880082Y928358D01*
X880082Y925842D01*
X879120Y923519D01*
X877341Y921740D01*
X875018Y920778D01*
X872502Y920778D01*
G37*
G36*
X37622Y914722D02*
X37622Y924120D01*
X38881Y924120D01*
X42615Y922573D01*
X45473Y919715D01*
X47020Y915981D01*
X47020Y914722D01*
X37622Y914722D01*
G37*
G36*
X26700Y914722D02*
X26700Y915981D01*
X28247Y919715D01*
X31105Y922573D01*
X34839Y924120D01*
X36098Y924120D01*
X36098Y914722D01*
X26700Y914722D01*
G37*
G36*
X859802Y908078D02*
X857479Y909040D01*
X855700Y910819D01*
X854738Y913142D01*
X854738Y915658D01*
X855700Y917981D01*
X857479Y919760D01*
X859802Y920722D01*
X862318Y920722D01*
X864641Y919760D01*
X866420Y917981D01*
X867382Y915658D01*
X867382Y913142D01*
X866420Y910819D01*
X864641Y909040D01*
X862318Y908078D01*
X859802Y908078D01*
G37*
G36*
X34839Y903800D02*
X31105Y905347D01*
X28247Y908205D01*
X26700Y911939D01*
X26700Y913198D01*
X36098Y913198D01*
X36098Y903800D01*
X34839Y903800D01*
G37*
G36*
X37622Y903800D02*
X37622Y913198D01*
X47020Y913198D01*
X47020Y911939D01*
X45473Y908205D01*
X42615Y905347D01*
X38881Y903800D01*
X37622Y903800D01*
G37*
G36*
X34839Y878400D02*
X31105Y879947D01*
X28247Y882805D01*
X26700Y886539D01*
X26700Y890581D01*
X28247Y894315D01*
X31105Y897173D01*
X34839Y898720D01*
X38881Y898720D01*
X42615Y897173D01*
X45473Y894315D01*
X47020Y890581D01*
X47020Y886539D01*
X45473Y882805D01*
X42615Y879947D01*
X38881Y878400D01*
X34839Y878400D01*
G37*
G36*
X34839Y853000D02*
X31105Y854547D01*
X28247Y857405D01*
X26700Y861139D01*
X26700Y865181D01*
X28247Y868915D01*
X31105Y871773D01*
X34839Y873320D01*
X38881Y873320D01*
X42615Y871773D01*
X45473Y868915D01*
X47020Y865181D01*
X47020Y861139D01*
X45473Y857405D01*
X42615Y854547D01*
X38881Y853000D01*
X34839Y853000D01*
G37*
G36*
X926742Y856742D02*
X926742Y865660D01*
X927906Y865660D01*
X931463Y864186D01*
X934186Y861463D01*
X935660Y857906D01*
X935660Y856742D01*
X926742Y856742D01*
G37*
G36*
X916300Y856742D02*
X916300Y857906D01*
X917774Y861463D01*
X920497Y864186D01*
X924055Y865660D01*
X925218Y865660D01*
X925218Y856742D01*
X916300Y856742D01*
G37*
G36*
X879055Y846300D02*
X875497Y847774D01*
X872774Y850497D01*
X871300Y854055D01*
X871300Y857906D01*
X872774Y861463D01*
X875497Y864186D01*
X879055Y865660D01*
X882906Y865660D01*
X886463Y864186D01*
X889347Y861302D01*
X889555Y860995D01*
X890232Y860553D01*
X891029Y860411D01*
X891817Y860591D01*
X892473Y861064D01*
X892647Y861337D01*
X895497Y864186D01*
X899055Y865660D01*
X902906Y865660D01*
X906463Y864186D01*
X909186Y861463D01*
X910660Y857906D01*
X910660Y854055D01*
X909186Y850497D01*
X906463Y847774D01*
X902906Y846300D01*
X899055Y846300D01*
X895497Y847774D01*
X892613Y850658D01*
X892405Y850965D01*
X891728Y851407D01*
X890931Y851549D01*
X890143Y851369D01*
X889487Y850896D01*
X889313Y850623D01*
X886463Y847774D01*
X882906Y846300D01*
X879055Y846300D01*
G37*
G36*
X926742Y846300D02*
X926742Y855218D01*
X935660Y855218D01*
X935660Y854055D01*
X934186Y850497D01*
X931463Y847774D01*
X927906Y846300D01*
X926742Y846300D01*
G37*
G36*
X924055Y846300D02*
X920497Y847774D01*
X917774Y850497D01*
X916300Y854055D01*
X916300Y855218D01*
X925218Y855218D01*
X925218Y846300D01*
X924055Y846300D01*
G37*
G36*
X821477Y809760D02*
X814449Y812671D01*
X809071Y818049D01*
X806160Y825077D01*
X806160Y832683D01*
X809071Y839711D01*
X814449Y845089D01*
X821477Y848000D01*
X829083Y848000D01*
X836111Y845089D01*
X841489Y839711D01*
X844400Y832683D01*
X844400Y825077D01*
X841489Y818049D01*
X836111Y812671D01*
X829083Y809760D01*
X821477Y809760D01*
G37*
G36*
X952877Y809760D02*
X945849Y812671D01*
X940471Y818049D01*
X937560Y825077D01*
X937560Y832683D01*
X940471Y839711D01*
X945849Y845089D01*
X952877Y848000D01*
X960483Y848000D01*
X967511Y845089D01*
X972889Y839711D01*
X975800Y832683D01*
X975800Y825077D01*
X972889Y818049D01*
X967511Y812671D01*
X960483Y809760D01*
X952877Y809760D01*
G37*
G36*
X34839Y827600D02*
X31105Y829147D01*
X28247Y832005D01*
X26700Y835739D01*
X26700Y839781D01*
X28247Y843515D01*
X31105Y846373D01*
X34839Y847920D01*
X38881Y847920D01*
X42615Y846373D01*
X45473Y843515D01*
X47020Y839781D01*
X47020Y835739D01*
X45473Y832005D01*
X42615Y829147D01*
X38881Y827600D01*
X34839Y827600D01*
G37*
G36*
X34839Y802200D02*
X31105Y803747D01*
X28247Y806605D01*
X26700Y810339D01*
X26700Y814381D01*
X28247Y818115D01*
X31105Y820973D01*
X34839Y822520D01*
X38881Y822520D01*
X42615Y820973D01*
X45473Y818115D01*
X47020Y814381D01*
X47020Y810339D01*
X45473Y806605D01*
X42615Y803747D01*
X38881Y802200D01*
X34839Y802200D01*
G37*
G36*
X189242Y797588D02*
X186919Y798550D01*
X185140Y800329D01*
X184178Y802652D01*
X184178Y805168D01*
X185140Y807491D01*
X186919Y809270D01*
X189242Y810232D01*
X191758Y810232D01*
X194081Y809270D01*
X195860Y807491D01*
X196822Y805168D01*
X196822Y802652D01*
X195860Y800329D01*
X194081Y798550D01*
X191758Y797588D01*
X189242Y797588D01*
G37*
G36*
X966482Y682018D02*
X964159Y682980D01*
X962380Y684759D01*
X961418Y687082D01*
X961418Y689598D01*
X962380Y691921D01*
X963589Y693130D01*
X964035Y693804D01*
X964184Y694566D01*
X964184Y783815D01*
X964023Y784608D01*
X963589Y785252D01*
X958198Y790643D01*
X957524Y791089D01*
X956761Y791238D01*
X955052Y791238D01*
X952729Y792200D01*
X950950Y793979D01*
X949988Y796302D01*
X949988Y798818D01*
X950950Y801141D01*
X952729Y802920D01*
X955052Y803882D01*
X957568Y803882D01*
X959891Y802920D01*
X961670Y801141D01*
X962632Y798818D01*
X962632Y797109D01*
X962793Y796316D01*
X963227Y795672D01*
X971296Y787603D01*
X971296Y694566D01*
X971457Y693774D01*
X971891Y693130D01*
X973100Y691921D01*
X974062Y689598D01*
X974062Y687082D01*
X973100Y684759D01*
X971321Y682980D01*
X968998Y682018D01*
X966482Y682018D01*
G37*
G36*
X212102Y778538D02*
X209779Y779500D01*
X208000Y781279D01*
X207038Y783602D01*
X207038Y786118D01*
X208000Y788441D01*
X209779Y790220D01*
X212102Y791182D01*
X214618Y791182D01*
X216941Y790220D01*
X218720Y788441D01*
X219682Y786118D01*
X219682Y783602D01*
X218720Y781279D01*
X216941Y779500D01*
X214618Y778538D01*
X212102Y778538D01*
G37*
G36*
X132092Y730278D02*
X129769Y731240D01*
X127990Y733019D01*
X127028Y735342D01*
X127028Y737858D01*
X127990Y740181D01*
X129769Y741960D01*
X132092Y742922D01*
X134608Y742922D01*
X136931Y741960D01*
X138710Y740181D01*
X139672Y737858D01*
X139672Y735342D01*
X138710Y733019D01*
X136931Y731240D01*
X134608Y730278D01*
X132092Y730278D01*
G37*
G36*
X142054Y709958D02*
X139731Y710920D01*
X137952Y712699D01*
X136990Y715022D01*
X136990Y717538D01*
X137952Y719861D01*
X139731Y721640D01*
X142054Y722602D01*
X144046Y722602D01*
X144839Y722763D01*
X145506Y723220D01*
X145941Y723902D01*
X146078Y724634D01*
X146078Y726428D01*
X147040Y728751D01*
X148819Y730530D01*
X151142Y731492D01*
X153658Y731492D01*
X155981Y730530D01*
X157760Y728751D01*
X158722Y726428D01*
X158722Y723912D01*
X157760Y721589D01*
X155981Y719810D01*
X153658Y718848D01*
X151666Y718848D01*
X150873Y718687D01*
X150206Y718230D01*
X149771Y717549D01*
X149634Y716816D01*
X149634Y715022D01*
X148672Y712699D01*
X146893Y710920D01*
X144570Y709958D01*
X142054Y709958D01*
G37*
G36*
X187186Y704394D02*
X184863Y705357D01*
X183084Y707135D01*
X181998Y709758D01*
X181961Y709940D01*
X181504Y710607D01*
X180822Y711043D01*
X180656Y711074D01*
X178077Y712142D01*
X176299Y713921D01*
X175336Y716244D01*
X175336Y718759D01*
X176299Y721083D01*
X178077Y722861D01*
X180401Y723824D01*
X182916Y723824D01*
X185240Y722861D01*
X187018Y721083D01*
X188104Y718460D01*
X188141Y718278D01*
X188599Y717611D01*
X189280Y717175D01*
X189447Y717144D01*
X192025Y716076D01*
X193803Y714297D01*
X194766Y711974D01*
X194766Y709459D01*
X193803Y707135D01*
X192025Y705357D01*
X189701Y704394D01*
X187186Y704394D01*
G37*
G36*
X31015Y444580D02*
X27310Y446115D01*
X24475Y448950D01*
X22940Y452655D01*
X22940Y456665D01*
X24475Y460370D01*
X27310Y463205D01*
X31015Y464740D01*
X35025Y464740D01*
X38730Y463205D01*
X41565Y460370D01*
X43100Y456665D01*
X43100Y452655D01*
X41565Y448950D01*
X38730Y446115D01*
X35025Y444580D01*
X31015Y444580D01*
G37*
G36*
X31015Y419180D02*
X27310Y420715D01*
X24475Y423550D01*
X22940Y427255D01*
X22940Y431265D01*
X24475Y434970D01*
X27310Y437805D01*
X31015Y439340D01*
X35025Y439340D01*
X38730Y437805D01*
X41565Y434970D01*
X43100Y431265D01*
X43100Y427255D01*
X41565Y423550D01*
X38730Y420715D01*
X35025Y419180D01*
X31015Y419180D01*
G37*
G36*
X31015Y393780D02*
X27310Y395315D01*
X24475Y398150D01*
X22940Y401855D01*
X22940Y405865D01*
X24475Y409570D01*
X27310Y412405D01*
X31015Y413940D01*
X35025Y413940D01*
X38730Y412405D01*
X41565Y409570D01*
X43100Y405865D01*
X43100Y401855D01*
X41565Y398150D01*
X38730Y395315D01*
X35025Y393780D01*
X31015Y393780D01*
G37*
G36*
X137775Y21760D02*
X134217Y23234D01*
X131494Y25957D01*
X130020Y29515D01*
X130020Y33366D01*
X131494Y36923D01*
X134378Y39807D01*
X134685Y40015D01*
X135127Y40692D01*
X135269Y41489D01*
X135089Y42277D01*
X134616Y42933D01*
X134343Y43107D01*
X131494Y45957D01*
X130020Y49515D01*
X130020Y53366D01*
X131494Y56923D01*
X134378Y59807D01*
X134685Y60015D01*
X135127Y60692D01*
X135269Y61489D01*
X135089Y62277D01*
X134616Y62933D01*
X134343Y63107D01*
X131494Y65957D01*
X130020Y69515D01*
X130020Y73366D01*
X131494Y76923D01*
X134378Y79807D01*
X134685Y80015D01*
X135127Y80692D01*
X135269Y81489D01*
X135089Y82277D01*
X134616Y82933D01*
X134343Y83107D01*
X131494Y85957D01*
X130020Y89515D01*
X130020Y90678D01*
X149380Y90678D01*
X149380Y89515D01*
X147906Y85957D01*
X145022Y83073D01*
X144715Y82865D01*
X144273Y82188D01*
X144131Y81391D01*
X144311Y80603D01*
X144784Y79947D01*
X145057Y79773D01*
X147906Y76923D01*
X149380Y73366D01*
X149380Y69515D01*
X147906Y65957D01*
X145022Y63073D01*
X144715Y62865D01*
X144273Y62188D01*
X144131Y61391D01*
X144311Y60603D01*
X144784Y59947D01*
X145057Y59773D01*
X147906Y56923D01*
X149380Y53366D01*
X149380Y49515D01*
X147906Y45957D01*
X145022Y43073D01*
X144715Y42865D01*
X144273Y42188D01*
X144131Y41391D01*
X144311Y40603D01*
X144784Y39947D01*
X145057Y39773D01*
X147906Y36923D01*
X149380Y33366D01*
X149380Y29515D01*
X147906Y25957D01*
X145183Y23234D01*
X141626Y21760D01*
X137775Y21760D01*
G37*
G36*
X91798Y59718D02*
X89475Y60680D01*
X87696Y62459D01*
X86734Y64782D01*
X86734Y67298D01*
X87696Y69621D01*
X89475Y71400D01*
X91798Y72362D01*
X94314Y72362D01*
X96637Y71400D01*
X98416Y69621D01*
X99378Y67298D01*
X99378Y64782D01*
X98416Y62459D01*
X96637Y60680D01*
X94314Y59718D01*
X91798Y59718D01*
G37*
G36*
X45799Y28880D02*
X38037Y32095D01*
X32095Y38037D01*
X28880Y45799D01*
X28880Y54201D01*
X32095Y61964D01*
X38037Y67905D01*
X45799Y71120D01*
X54201Y71120D01*
X61964Y67905D01*
X67905Y61964D01*
X71120Y54201D01*
X71120Y45799D01*
X67905Y38037D01*
X61964Y32095D01*
X54201Y28880D01*
X45799Y28880D01*
G37*
G36*
X945799Y28880D02*
X938037Y32095D01*
X932095Y38037D01*
X928880Y45799D01*
X928880Y54201D01*
X932095Y61964D01*
X938037Y67905D01*
X945799Y71120D01*
X954201Y71120D01*
X961964Y67905D01*
X967905Y61964D01*
X971120Y54201D01*
X971120Y45799D01*
X967905Y38037D01*
X961964Y32095D01*
X954201Y28880D01*
X945799Y28880D01*
G37*
%LPD*%
G36*
X758577Y669451D02*
X759221Y669885D01*
X779895Y690559D01*
X780342Y691233D01*
X780490Y692028D01*
X780316Y692818D01*
X779895Y693433D01*
X757250Y716078D01*
X625563Y847765D01*
X624889Y848211D01*
X624126Y848360D01*
X536844Y848360D01*
X536051Y848199D01*
X535384Y847742D01*
X534948Y847061D01*
X534813Y846263D01*
X534966Y845550D01*
X535912Y843268D01*
X535912Y840752D01*
X534950Y838429D01*
X533171Y836650D01*
X530848Y835688D01*
X529844Y835688D01*
X529051Y835527D01*
X528384Y835070D01*
X527949Y834389D01*
X527812Y833656D01*
X527812Y721262D01*
X503408Y696858D01*
X502961Y696184D01*
X502813Y695389D01*
X502986Y694599D01*
X503408Y693984D01*
X524879Y672513D01*
X525553Y672066D01*
X526348Y671918D01*
X527138Y672092D01*
X527798Y672560D01*
X528223Y673248D01*
X528348Y673950D01*
X528348Y675628D01*
X529310Y677951D01*
X531089Y679730D01*
X533412Y680692D01*
X535928Y680692D01*
X538553Y679605D01*
X539330Y679450D01*
X567284Y679450D01*
X568077Y679611D01*
X568721Y680045D01*
X576043Y687367D01*
X576483Y688026D01*
X577570Y690651D01*
X579349Y692430D01*
X581672Y693392D01*
X584188Y693392D01*
X586813Y692305D01*
X587590Y692150D01*
X672840Y692150D01*
X674708Y691377D01*
X696199Y669885D01*
X696873Y669439D01*
X697636Y669290D01*
X757784Y669290D01*
X758577Y669451D01*
G37*
%LPC*%
G36*
X609612Y821718D02*
X607289Y822680D01*
X605510Y824459D01*
X604548Y826782D01*
X604548Y829298D01*
X605510Y831621D01*
X607289Y833400D01*
X609612Y834362D01*
X612128Y834362D01*
X614451Y833400D01*
X616230Y831621D01*
X617192Y829298D01*
X617192Y826782D01*
X616230Y824459D01*
X614451Y822680D01*
X612128Y821718D01*
X609612Y821718D01*
G37*
G36*
X537222Y816638D02*
X534899Y817600D01*
X533120Y819379D01*
X532158Y821702D01*
X532158Y824218D01*
X533120Y826541D01*
X534899Y828320D01*
X537222Y829282D01*
X539738Y829282D01*
X542061Y828320D01*
X543840Y826541D01*
X544802Y824218D01*
X544802Y821702D01*
X543840Y819379D01*
X542061Y817600D01*
X539738Y816638D01*
X537222Y816638D01*
G37*
G36*
X683272Y744248D02*
X680949Y745210D01*
X679170Y746989D01*
X678208Y749312D01*
X678208Y751106D01*
X678047Y751899D01*
X677590Y752566D01*
X676909Y753001D01*
X676176Y753138D01*
X674230Y753138D01*
X671907Y754100D01*
X670128Y755879D01*
X669166Y758202D01*
X669166Y760718D01*
X670128Y763041D01*
X671907Y764820D01*
X674230Y765782D01*
X676745Y765782D01*
X679069Y764820D01*
X680847Y763041D01*
X681810Y760718D01*
X681810Y758924D01*
X681971Y758131D01*
X682428Y757464D01*
X683109Y757029D01*
X683842Y756892D01*
X685788Y756892D01*
X688111Y755930D01*
X689890Y754151D01*
X690852Y751828D01*
X690852Y749312D01*
X689890Y746989D01*
X688111Y745210D01*
X685788Y744248D01*
X683272Y744248D01*
G37*
G36*
X649181Y744050D02*
X646857Y745012D01*
X645079Y746791D01*
X644116Y749114D01*
X644116Y751248D01*
X643955Y752040D01*
X643498Y752707D01*
X642817Y753143D01*
X642019Y753279D01*
X641366Y753138D01*
X638822Y753138D01*
X636499Y754100D01*
X634720Y755879D01*
X633758Y758202D01*
X633758Y760718D01*
X634720Y763041D01*
X636499Y764820D01*
X638822Y765782D01*
X641338Y765782D01*
X643661Y764820D01*
X645440Y763041D01*
X646402Y760718D01*
X646402Y758584D01*
X646563Y757792D01*
X647020Y757125D01*
X647702Y756689D01*
X648499Y756553D01*
X649152Y756694D01*
X651696Y756694D01*
X654019Y755732D01*
X655798Y753953D01*
X656760Y751629D01*
X656760Y749114D01*
X655798Y746791D01*
X654019Y745012D01*
X651696Y744050D01*
X649181Y744050D01*
G37*
G36*
X629932Y735358D02*
X627609Y736320D01*
X625830Y738099D01*
X624868Y740422D01*
X624868Y742216D01*
X624707Y743009D01*
X624250Y743676D01*
X623569Y744111D01*
X622836Y744248D01*
X622312Y744248D01*
X619989Y745210D01*
X618210Y746989D01*
X617248Y749312D01*
X617248Y751828D01*
X618210Y754151D01*
X619989Y755930D01*
X622312Y756892D01*
X624828Y756892D01*
X627151Y755930D01*
X628930Y754151D01*
X629892Y751828D01*
X629892Y750034D01*
X630053Y749241D01*
X630510Y748574D01*
X631192Y748139D01*
X631924Y748002D01*
X632448Y748002D01*
X634771Y747040D01*
X636550Y745261D01*
X637512Y742938D01*
X637512Y740422D01*
X636550Y738099D01*
X634771Y736320D01*
X632448Y735358D01*
X629932Y735358D01*
G37*
G36*
X537222Y741708D02*
X534899Y742670D01*
X533120Y744449D01*
X532158Y746772D01*
X532158Y749288D01*
X533120Y751611D01*
X534899Y753390D01*
X537222Y754352D01*
X539738Y754352D01*
X542061Y753390D01*
X543840Y751611D01*
X544802Y749288D01*
X544802Y746772D01*
X543840Y744449D01*
X542061Y742670D01*
X539738Y741708D01*
X537222Y741708D01*
G37*
G36*
X645172Y717578D02*
X642849Y718540D01*
X641070Y720319D01*
X640108Y722642D01*
X640108Y725158D01*
X641070Y727481D01*
X642849Y729260D01*
X645358Y730299D01*
X646028Y730751D01*
X646457Y731398D01*
X647497Y733907D01*
X649275Y735686D01*
X651599Y736648D01*
X654114Y736648D01*
X656437Y735686D01*
X658216Y733907D01*
X659178Y731584D01*
X659178Y729069D01*
X658216Y726745D01*
X656437Y724967D01*
X653928Y723927D01*
X653258Y723476D01*
X652829Y722828D01*
X651790Y720319D01*
X650011Y718540D01*
X647688Y717578D01*
X645172Y717578D01*
G37*
G36*
X683272Y709958D02*
X680949Y710920D01*
X679170Y712699D01*
X678208Y715022D01*
X678208Y717538D01*
X679170Y719861D01*
X680949Y721640D01*
X683272Y722602D01*
X685788Y722602D01*
X688111Y721640D01*
X689890Y719861D01*
X690852Y717538D01*
X690852Y715022D01*
X689890Y712699D01*
X688111Y710920D01*
X685788Y709958D01*
X683272Y709958D01*
G37*
G36*
X628662Y704878D02*
X626339Y705840D01*
X624560Y707619D01*
X623598Y709942D01*
X623598Y712458D01*
X624560Y714781D01*
X626339Y716560D01*
X628662Y717522D01*
X631178Y717522D01*
X633501Y716560D01*
X635280Y714781D01*
X636242Y712458D01*
X636242Y709942D01*
X635280Y707619D01*
X633501Y705840D01*
X631178Y704878D01*
X628662Y704878D01*
G37*
G36*
X537024Y701068D02*
X534701Y702030D01*
X532922Y703809D01*
X531960Y706132D01*
X531960Y708648D01*
X532922Y710971D01*
X534701Y712750D01*
X537024Y713712D01*
X539540Y713712D01*
X541072Y713077D01*
X541866Y712922D01*
X542657Y713090D01*
X543287Y713518D01*
X543789Y714020D01*
X546112Y714982D01*
X548628Y714982D01*
X550951Y714020D01*
X552730Y712241D01*
X553692Y709918D01*
X553692Y707402D01*
X552730Y705079D01*
X550951Y703300D01*
X548628Y702338D01*
X546112Y702338D01*
X544580Y702973D01*
X543786Y703128D01*
X542995Y702960D01*
X542365Y702532D01*
X541863Y702030D01*
X539540Y701068D01*
X537024Y701068D01*
G37*
G36*
X708672Y684558D02*
X706349Y685520D01*
X704570Y687299D01*
X703608Y689622D01*
X703608Y692138D01*
X704570Y694461D01*
X706349Y696240D01*
X708672Y697202D01*
X711188Y697202D01*
X713511Y696240D01*
X715290Y694461D01*
X716252Y692138D01*
X716252Y689622D01*
X715290Y687299D01*
X713511Y685520D01*
X711188Y684558D01*
X708672Y684558D01*
G37*
%LPD*%
G36*
X891682Y294848D02*
X892297Y295269D01*
X930315Y333287D01*
X930761Y333961D01*
X930910Y334724D01*
X930910Y404208D01*
X932263Y407476D01*
X953665Y428877D01*
X954111Y429551D01*
X954260Y430314D01*
X954260Y432534D01*
X956245Y437327D01*
X957815Y438896D01*
X958261Y439570D01*
X958410Y440333D01*
X958410Y615676D01*
X958249Y616469D01*
X957815Y617113D01*
X936713Y638215D01*
X936039Y638661D01*
X935276Y638810D01*
X845312Y638810D01*
X844519Y638649D01*
X843852Y638192D01*
X843417Y637511D01*
X843280Y636778D01*
X843280Y625246D01*
X843441Y624453D01*
X843875Y623809D01*
X847587Y620098D01*
X848360Y618230D01*
X848360Y601130D01*
X848521Y600337D01*
X848955Y599693D01*
X851402Y597247D01*
X852860Y593726D01*
X852860Y589914D01*
X851402Y586393D01*
X848955Y583947D01*
X848509Y583273D01*
X848360Y582510D01*
X848360Y512230D01*
X848521Y511437D01*
X848955Y510793D01*
X851402Y508347D01*
X852860Y504826D01*
X852860Y501014D01*
X851402Y497493D01*
X848707Y494798D01*
X845186Y493340D01*
X841374Y493340D01*
X837853Y494798D01*
X835158Y497493D01*
X833700Y501014D01*
X833700Y504826D01*
X835158Y508347D01*
X837605Y510793D01*
X838051Y511467D01*
X838200Y512230D01*
X838200Y582510D01*
X838039Y583303D01*
X837605Y583947D01*
X835158Y586393D01*
X833700Y589914D01*
X833700Y593726D01*
X835158Y597247D01*
X837605Y599693D01*
X838051Y600367D01*
X838200Y601130D01*
X838200Y614274D01*
X838039Y615067D01*
X837605Y615711D01*
X833893Y619422D01*
X833120Y621290D01*
X833120Y639366D01*
X832959Y640159D01*
X832525Y640803D01*
X789953Y683375D01*
X789279Y683822D01*
X788484Y683970D01*
X787694Y683796D01*
X787079Y683375D01*
X763608Y659903D01*
X761740Y659130D01*
X724837Y659130D01*
X724045Y658969D01*
X723378Y658512D01*
X722942Y657831D01*
X722806Y657033D01*
X722993Y656246D01*
X723471Y655594D01*
X724060Y655221D01*
X726211Y654330D01*
X727925Y652616D01*
X728599Y652169D01*
X729394Y652021D01*
X730140Y652175D01*
X731532Y652752D01*
X734048Y652752D01*
X736371Y651790D01*
X738150Y650011D01*
X739112Y647688D01*
X739112Y645172D01*
X738150Y642849D01*
X736371Y641070D01*
X734048Y640108D01*
X731532Y640108D01*
X729209Y641070D01*
X727495Y642784D01*
X726821Y643231D01*
X726026Y643379D01*
X725280Y643225D01*
X723888Y642648D01*
X721372Y642648D01*
X719049Y643610D01*
X717270Y645389D01*
X716308Y647712D01*
X716308Y650228D01*
X717270Y652551D01*
X719049Y654330D01*
X721200Y655221D01*
X721871Y655673D01*
X722312Y656350D01*
X722454Y657147D01*
X722274Y657935D01*
X721801Y658591D01*
X721110Y659010D01*
X720423Y659130D01*
X693680Y659130D01*
X691812Y659903D01*
X670321Y681395D01*
X669647Y681841D01*
X668884Y681990D01*
X587590Y681990D01*
X586813Y681835D01*
X583886Y680623D01*
X583227Y680183D01*
X573108Y670063D01*
X571240Y669290D01*
X539330Y669290D01*
X538553Y669135D01*
X535928Y668048D01*
X534250Y668048D01*
X533457Y667887D01*
X532790Y667430D01*
X532354Y666749D01*
X532219Y665951D01*
X532405Y665164D01*
X532813Y664579D01*
X560551Y636841D01*
X560798Y636561D01*
X560989Y636280D01*
X561138Y635980D01*
X561247Y635663D01*
X561313Y635335D01*
X561340Y634933D01*
X561340Y595693D01*
X561317Y595321D01*
X561253Y594988D01*
X561147Y594670D01*
X560999Y594368D01*
X560814Y594089D01*
X560548Y593786D01*
X525221Y558459D01*
X524774Y557785D01*
X524626Y556990D01*
X524800Y556200D01*
X525268Y555540D01*
X525956Y555115D01*
X526658Y554990D01*
X591134Y554990D01*
X591927Y555151D01*
X592594Y555608D01*
X593030Y556290D01*
X593165Y557087D01*
X593118Y557305D01*
X593118Y560058D01*
X594080Y562381D01*
X594143Y562443D01*
X594589Y563117D01*
X594737Y563912D01*
X594564Y564702D01*
X594143Y565317D01*
X594080Y565379D01*
X593118Y567702D01*
X593118Y570218D01*
X594080Y572541D01*
X594143Y572603D01*
X594589Y573277D01*
X594737Y574072D01*
X594564Y574862D01*
X594143Y575477D01*
X594080Y575539D01*
X593118Y577862D01*
X593118Y580378D01*
X594080Y582701D01*
X594143Y582763D01*
X594589Y583437D01*
X594737Y584232D01*
X594564Y585022D01*
X594143Y585637D01*
X594080Y585699D01*
X593118Y588022D01*
X593118Y590538D01*
X594080Y592861D01*
X594143Y592923D01*
X594589Y593597D01*
X594737Y594392D01*
X594564Y595182D01*
X594143Y595797D01*
X594080Y595859D01*
X593118Y598182D01*
X593118Y600698D01*
X594080Y603021D01*
X594143Y603083D01*
X594589Y603757D01*
X594737Y604552D01*
X594564Y605342D01*
X594143Y605957D01*
X594080Y606019D01*
X593118Y608342D01*
X593118Y610858D01*
X594080Y613181D01*
X594143Y613243D01*
X594589Y613917D01*
X594737Y614712D01*
X594564Y615502D01*
X594143Y616117D01*
X594080Y616179D01*
X593118Y618502D01*
X593118Y621018D01*
X594080Y623341D01*
X594143Y623403D01*
X594589Y624077D01*
X594737Y624872D01*
X594564Y625662D01*
X594143Y626277D01*
X594080Y626339D01*
X593118Y628662D01*
X593118Y631178D01*
X594080Y633501D01*
X595859Y635280D01*
X598182Y636242D01*
X600698Y636242D01*
X603021Y635280D01*
X604800Y633501D01*
X605762Y631178D01*
X605762Y628662D01*
X604800Y626339D01*
X604738Y626277D01*
X604291Y625603D01*
X604143Y624808D01*
X604316Y624018D01*
X604738Y623403D01*
X604800Y623341D01*
X605762Y621018D01*
X605762Y618502D01*
X604800Y616179D01*
X604738Y616117D01*
X604291Y615443D01*
X604143Y614648D01*
X604316Y613858D01*
X604738Y613243D01*
X604800Y613181D01*
X605762Y610858D01*
X605762Y608342D01*
X604800Y606019D01*
X604738Y605957D01*
X604291Y605283D01*
X604143Y604488D01*
X604316Y603698D01*
X604738Y603083D01*
X604800Y603021D01*
X605762Y600698D01*
X605762Y598182D01*
X604800Y595859D01*
X604738Y595797D01*
X604291Y595123D01*
X604143Y594328D01*
X604316Y593538D01*
X604738Y592923D01*
X604800Y592861D01*
X605762Y590538D01*
X605762Y588022D01*
X604800Y585699D01*
X604738Y585637D01*
X604291Y584963D01*
X604143Y584168D01*
X604316Y583378D01*
X604738Y582763D01*
X604800Y582701D01*
X605762Y580378D01*
X605762Y577862D01*
X604800Y575539D01*
X604738Y575477D01*
X604291Y574803D01*
X604143Y574008D01*
X604316Y573218D01*
X604738Y572603D01*
X604800Y572541D01*
X605762Y570218D01*
X605762Y567702D01*
X604800Y565379D01*
X604738Y565317D01*
X604291Y564643D01*
X604143Y563848D01*
X604316Y563058D01*
X604738Y562443D01*
X604800Y562381D01*
X605762Y560058D01*
X605762Y557253D01*
X605714Y557006D01*
X605881Y556214D01*
X606344Y555551D01*
X607029Y555121D01*
X607746Y554990D01*
X613966Y554990D01*
X614759Y555151D01*
X615403Y555585D01*
X626154Y566337D01*
X629422Y567690D01*
X707888Y567690D01*
X711156Y566337D01*
X713942Y563550D01*
X837995Y439498D01*
X838669Y439051D01*
X839464Y438903D01*
X840254Y439076D01*
X840869Y439498D01*
X863397Y462026D01*
X919705Y462026D01*
X920498Y462187D01*
X921142Y462621D01*
X941999Y483478D01*
X942445Y484152D01*
X942594Y484915D01*
X942594Y590674D01*
X942433Y591466D01*
X941999Y592111D01*
X940790Y593319D01*
X939828Y595642D01*
X939828Y598158D01*
X940790Y600481D01*
X942569Y602260D01*
X944892Y603222D01*
X947408Y603222D01*
X949731Y602260D01*
X951510Y600481D01*
X952472Y598158D01*
X952472Y595642D01*
X951510Y593319D01*
X950301Y592111D01*
X949855Y591436D01*
X949706Y590674D01*
X949706Y481127D01*
X923493Y454914D01*
X867185Y454914D01*
X866392Y454753D01*
X865748Y454319D01*
X844897Y433468D01*
X844451Y432794D01*
X844302Y431999D01*
X844457Y431254D01*
X844550Y431028D01*
X844550Y418544D01*
X844711Y417751D01*
X845145Y417107D01*
X853357Y408896D01*
X854710Y405628D01*
X854710Y402092D01*
X853357Y398824D01*
X850631Y396098D01*
X850468Y395988D01*
X850026Y395311D01*
X849884Y394563D01*
X849884Y375905D01*
X850045Y375112D01*
X850479Y374468D01*
X895450Y329497D01*
X896124Y329051D01*
X896887Y328902D01*
X897878Y328902D01*
X900201Y327940D01*
X901980Y326161D01*
X902942Y323838D01*
X902942Y321322D01*
X901980Y318999D01*
X900201Y317220D01*
X897878Y316258D01*
X895362Y316258D01*
X893039Y317220D01*
X891260Y318999D01*
X890298Y321322D01*
X890298Y322313D01*
X890137Y323106D01*
X889703Y323750D01*
X842375Y371078D01*
X841756Y372572D01*
X841756Y394563D01*
X841595Y395356D01*
X841138Y396023D01*
X840984Y396124D01*
X828123Y408984D01*
X826770Y412252D01*
X826770Y424736D01*
X826609Y425529D01*
X826175Y426173D01*
X703033Y549315D01*
X702359Y549761D01*
X701596Y549910D01*
X635714Y549910D01*
X634921Y549749D01*
X634277Y549315D01*
X623526Y538563D01*
X620258Y537210D01*
X504814Y537210D01*
X504021Y537049D01*
X503377Y536615D01*
X447743Y480981D01*
X447296Y480307D01*
X447148Y479512D01*
X447322Y478722D01*
X447789Y478062D01*
X447872Y478009D01*
X449860Y476021D01*
X450822Y473698D01*
X450822Y471182D01*
X449860Y468859D01*
X448904Y467903D01*
X448457Y467229D01*
X448309Y466434D01*
X448463Y465688D01*
X449354Y463538D01*
X449354Y461022D01*
X448392Y458699D01*
X446613Y456920D01*
X444290Y455958D01*
X443822Y455958D01*
X443030Y455797D01*
X442363Y455340D01*
X441945Y454704D01*
X440970Y452349D01*
X439130Y450509D01*
X438683Y449835D01*
X438535Y449040D01*
X438708Y448250D01*
X439176Y447590D01*
X439864Y447165D01*
X440566Y447040D01*
X515953Y447040D01*
X516745Y447201D01*
X517412Y447658D01*
X517848Y448340D01*
X517984Y449137D01*
X517798Y449924D01*
X517319Y450576D01*
X516730Y450949D01*
X514579Y451840D01*
X512800Y453619D01*
X511838Y455942D01*
X511838Y458458D01*
X512800Y460781D01*
X514579Y462560D01*
X516902Y463522D01*
X519364Y463522D01*
X520156Y463683D01*
X520823Y464140D01*
X521241Y464776D01*
X521690Y465861D01*
X523469Y467640D01*
X525792Y468602D01*
X528308Y468602D01*
X530631Y467640D01*
X532410Y465861D01*
X533372Y463538D01*
X533372Y461022D01*
X532410Y458699D01*
X530631Y456920D01*
X528308Y455958D01*
X525846Y455958D01*
X525054Y455797D01*
X524387Y455340D01*
X523969Y454704D01*
X523520Y453619D01*
X521741Y451840D01*
X519590Y450949D01*
X518919Y450497D01*
X518478Y449820D01*
X518336Y449023D01*
X518516Y448235D01*
X518989Y447579D01*
X519680Y447160D01*
X520367Y447040D01*
X653995Y447040D01*
X654788Y447201D01*
X655455Y447658D01*
X655873Y448294D01*
X656310Y449351D01*
X658089Y451130D01*
X660412Y452092D01*
X660580Y452092D01*
X661372Y452253D01*
X662039Y452710D01*
X662475Y453392D01*
X662611Y454189D01*
X662457Y454902D01*
X661500Y457212D01*
X661500Y459728D01*
X662462Y462051D01*
X664241Y463830D01*
X666564Y464792D01*
X669080Y464792D01*
X671403Y463830D01*
X673182Y462051D01*
X674157Y459696D01*
X674609Y459026D01*
X675287Y458585D01*
X676034Y458442D01*
X678168Y458442D01*
X680491Y457480D01*
X682270Y455701D01*
X683232Y453378D01*
X683232Y450862D01*
X682812Y449850D01*
X682658Y449056D01*
X682825Y448265D01*
X683288Y447601D01*
X683972Y447171D01*
X684690Y447040D01*
X736537Y447040D01*
X736909Y447017D01*
X737243Y446953D01*
X737560Y446847D01*
X737862Y446699D01*
X738141Y446514D01*
X738444Y446248D01*
X889423Y295269D01*
X890097Y294822D01*
X890892Y294674D01*
X891682Y294848D01*
G37*
%LPC*%
G36*
X628662Y629948D02*
X626339Y630910D01*
X624560Y632689D01*
X623598Y635012D01*
X623598Y637528D01*
X624560Y639851D01*
X625258Y640548D01*
X625704Y641222D01*
X625852Y642017D01*
X625679Y642807D01*
X625258Y643422D01*
X624560Y644119D01*
X623598Y646442D01*
X623598Y648958D01*
X624560Y651281D01*
X626339Y653060D01*
X628662Y654022D01*
X631178Y654022D01*
X633501Y653060D01*
X635280Y651281D01*
X636242Y648958D01*
X636242Y646442D01*
X635280Y644119D01*
X634583Y643422D01*
X634136Y642748D01*
X633988Y641953D01*
X634161Y641163D01*
X634583Y640548D01*
X635280Y639851D01*
X636242Y637528D01*
X636242Y635012D01*
X635280Y632689D01*
X633501Y630910D01*
X631178Y629948D01*
X628662Y629948D01*
G37*
G36*
X662952Y629948D02*
X660629Y630910D01*
X658850Y632689D01*
X657888Y635012D01*
X657888Y635678D01*
X657727Y636470D01*
X657270Y637137D01*
X656634Y637555D01*
X654279Y638530D01*
X652500Y640309D01*
X651538Y642632D01*
X651538Y645148D01*
X652500Y647471D01*
X654279Y649250D01*
X656602Y650212D01*
X659118Y650212D01*
X661441Y649250D01*
X663309Y647382D01*
X663983Y646935D01*
X664778Y646787D01*
X665568Y646960D01*
X666183Y647382D01*
X668051Y649250D01*
X670374Y650212D01*
X672890Y650212D01*
X675213Y649250D01*
X676992Y647471D01*
X677954Y645148D01*
X677954Y644564D01*
X678115Y643772D01*
X678572Y643105D01*
X679208Y642687D01*
X681761Y641630D01*
X683540Y639851D01*
X684502Y637528D01*
X684502Y635012D01*
X683540Y632689D01*
X681761Y630910D01*
X679438Y629948D01*
X676922Y629948D01*
X674599Y630910D01*
X672632Y632878D01*
X671958Y633324D01*
X671163Y633472D01*
X670373Y633299D01*
X669758Y632878D01*
X667791Y630910D01*
X665468Y629948D01*
X662952Y629948D01*
G37*
G36*
X892174Y582240D02*
X888653Y583698D01*
X885958Y586393D01*
X884500Y589914D01*
X884500Y593726D01*
X885958Y597247D01*
X888653Y599942D01*
X892174Y601400D01*
X895986Y601400D01*
X899507Y599942D01*
X902202Y597247D01*
X903660Y593726D01*
X903660Y589914D01*
X902202Y586393D01*
X899507Y583698D01*
X895986Y582240D01*
X892174Y582240D01*
G37*
G36*
X909900Y592582D02*
X909900Y593726D01*
X911358Y597247D01*
X914053Y599942D01*
X917574Y601400D01*
X918718Y601400D01*
X918718Y592582D01*
X909900Y592582D01*
G37*
G36*
X866774Y582240D02*
X863253Y583698D01*
X860558Y586393D01*
X859100Y589914D01*
X859100Y593726D01*
X860558Y597247D01*
X863253Y599942D01*
X866774Y601400D01*
X870586Y601400D01*
X874107Y599942D01*
X876802Y597247D01*
X878260Y593726D01*
X878260Y589914D01*
X876802Y586393D01*
X874107Y583698D01*
X870586Y582240D01*
X866774Y582240D01*
G37*
G36*
X920242Y592582D02*
X920242Y601400D01*
X921386Y601400D01*
X924907Y599942D01*
X927602Y597247D01*
X929060Y593726D01*
X929060Y592582D01*
X920242Y592582D01*
G37*
G36*
X920242Y582240D02*
X920242Y591058D01*
X929060Y591058D01*
X929060Y589914D01*
X927602Y586393D01*
X924907Y583698D01*
X921386Y582240D01*
X920242Y582240D01*
G37*
G36*
X917574Y582240D02*
X914053Y583698D01*
X911358Y586393D01*
X909900Y589914D01*
X909900Y591058D01*
X918718Y591058D01*
X918718Y582240D01*
X917574Y582240D01*
G37*
G36*
X494119Y454764D02*
X491795Y455727D01*
X490017Y457505D01*
X489054Y459829D01*
X489054Y462344D01*
X490025Y464687D01*
X490449Y465327D01*
X490597Y466122D01*
X490424Y466912D01*
X490003Y467527D01*
X489940Y467589D01*
X488978Y469912D01*
X488978Y472428D01*
X489940Y474751D01*
X491719Y476530D01*
X492804Y476979D01*
X493474Y477431D01*
X493916Y478109D01*
X494058Y478856D01*
X494058Y481318D01*
X495020Y483641D01*
X496799Y485420D01*
X497884Y485869D01*
X498554Y486321D01*
X498996Y486999D01*
X499138Y487746D01*
X499138Y488216D01*
X498977Y489009D01*
X498520Y489676D01*
X497839Y490111D01*
X497106Y490248D01*
X496582Y490248D01*
X494259Y491210D01*
X492480Y492989D01*
X491518Y495312D01*
X491518Y497828D01*
X492480Y500151D01*
X492765Y500436D01*
X493212Y501110D01*
X493360Y501905D01*
X493187Y502695D01*
X492719Y503355D01*
X492106Y503750D01*
X491719Y503910D01*
X489940Y505689D01*
X488978Y508012D01*
X488978Y510528D01*
X489940Y512851D01*
X491719Y514630D01*
X494042Y515592D01*
X496558Y515592D01*
X498881Y514630D01*
X500660Y512851D01*
X501677Y510395D01*
X502129Y509725D01*
X502807Y509283D01*
X503603Y509141D01*
X504078Y509242D01*
X506718Y509242D01*
X509041Y508280D01*
X510820Y506501D01*
X511782Y504178D01*
X511782Y501662D01*
X510820Y499339D01*
X508853Y497372D01*
X508406Y496698D01*
X508258Y495903D01*
X508431Y495113D01*
X508853Y494498D01*
X510820Y492531D01*
X511782Y490208D01*
X511782Y487692D01*
X510820Y485369D01*
X509041Y483590D01*
X507956Y483141D01*
X507286Y482689D01*
X506845Y482011D01*
X506702Y481264D01*
X506702Y478802D01*
X505740Y476479D01*
X503961Y474700D01*
X502876Y474251D01*
X502206Y473799D01*
X501765Y473121D01*
X501622Y472374D01*
X501622Y469912D01*
X500652Y467570D01*
X500227Y466929D01*
X500079Y466134D01*
X500252Y465344D01*
X500674Y464729D01*
X500736Y464667D01*
X501698Y462344D01*
X501698Y459829D01*
X500736Y457505D01*
X498957Y455727D01*
X496634Y454764D01*
X494119Y454764D01*
G37*
G36*
X866774Y493340D02*
X863253Y494798D01*
X860558Y497493D01*
X859100Y501014D01*
X859100Y504826D01*
X860558Y508347D01*
X863253Y511042D01*
X866774Y512500D01*
X870586Y512500D01*
X874107Y511042D01*
X876802Y508347D01*
X878260Y504826D01*
X878260Y501014D01*
X876802Y497493D01*
X874107Y494798D01*
X870586Y493340D01*
X866774Y493340D01*
G37*
G36*
X892174Y493340D02*
X888653Y494798D01*
X885958Y497493D01*
X884500Y501014D01*
X884500Y504826D01*
X885958Y508347D01*
X888653Y511042D01*
X892174Y512500D01*
X895986Y512500D01*
X899507Y511042D01*
X902202Y508347D01*
X903660Y504826D01*
X903660Y501014D01*
X902202Y497493D01*
X899507Y494798D01*
X895986Y493340D01*
X892174Y493340D01*
G37*
G36*
X909900Y503682D02*
X909900Y504826D01*
X911358Y508347D01*
X914053Y511042D01*
X917574Y512500D01*
X918718Y512500D01*
X918718Y503682D01*
X909900Y503682D01*
G37*
G36*
X920242Y503682D02*
X920242Y512500D01*
X921386Y512500D01*
X924907Y511042D01*
X927602Y508347D01*
X929060Y504826D01*
X929060Y503682D01*
X920242Y503682D01*
G37*
G36*
X920242Y493340D02*
X920242Y502158D01*
X929060Y502158D01*
X929060Y501014D01*
X927602Y497493D01*
X924907Y494798D01*
X921386Y493340D01*
X920242Y493340D01*
G37*
G36*
X917574Y493340D02*
X914053Y494798D01*
X911358Y497493D01*
X909900Y501014D01*
X909900Y502158D01*
X918718Y502158D01*
X918718Y493340D01*
X917574Y493340D01*
G37*
G36*
X701687Y456593D02*
X699364Y457555D01*
X697585Y459334D01*
X696546Y461843D01*
X696094Y462513D01*
X695447Y462942D01*
X692938Y463982D01*
X691159Y465760D01*
X690120Y468269D01*
X689668Y468940D01*
X689020Y469369D01*
X686511Y470408D01*
X684733Y472186D01*
X683989Y473982D01*
X683537Y474653D01*
X682859Y475094D01*
X682112Y475237D01*
X681774Y475237D01*
X679450Y476199D01*
X677672Y477978D01*
X676632Y480487D01*
X676181Y481157D01*
X675533Y481586D01*
X673024Y482625D01*
X671245Y484404D01*
X670283Y486727D01*
X670283Y489243D01*
X671245Y491566D01*
X673024Y493345D01*
X675347Y494307D01*
X677863Y494307D01*
X680186Y493345D01*
X681965Y491566D01*
X683004Y489057D01*
X683456Y488387D01*
X684103Y487958D01*
X686612Y486918D01*
X688391Y485140D01*
X689135Y483344D01*
X689587Y482673D01*
X690264Y482232D01*
X691012Y482090D01*
X691350Y482090D01*
X693674Y481127D01*
X695452Y479349D01*
X696491Y476840D01*
X696943Y476169D01*
X697591Y475740D01*
X700100Y474701D01*
X701878Y472922D01*
X702918Y470413D01*
X703370Y469743D01*
X704017Y469314D01*
X706526Y468275D01*
X708305Y466496D01*
X709267Y464173D01*
X709267Y461657D01*
X708305Y459334D01*
X706526Y457555D01*
X704203Y456593D01*
X701687Y456593D01*
G37*
G36*
X909706Y416900D02*
X904913Y418885D01*
X901245Y422553D01*
X899260Y427346D01*
X899260Y432534D01*
X901245Y437327D01*
X904913Y440995D01*
X909706Y442980D01*
X914894Y442980D01*
X919687Y440995D01*
X923355Y437327D01*
X925340Y432534D01*
X925340Y427346D01*
X923355Y422553D01*
X919687Y418885D01*
X914894Y416900D01*
X909706Y416900D01*
G37*
G36*
X899260Y388702D02*
X899260Y390534D01*
X901245Y395327D01*
X904913Y398995D01*
X909706Y400980D01*
X911538Y400980D01*
X911538Y388702D01*
X899260Y388702D01*
G37*
G36*
X913062Y388702D02*
X913062Y400980D01*
X914894Y400980D01*
X919687Y398995D01*
X923355Y395327D01*
X925340Y390534D01*
X925340Y388702D01*
X913062Y388702D01*
G37*
G36*
X913062Y374900D02*
X913062Y387178D01*
X925340Y387178D01*
X925340Y385346D01*
X923355Y380553D01*
X919687Y376885D01*
X914894Y374900D01*
X913062Y374900D01*
G37*
G36*
X909706Y374900D02*
X904913Y376885D01*
X901245Y380553D01*
X899260Y385346D01*
X899260Y387178D01*
X911538Y387178D01*
X911538Y374900D01*
X909706Y374900D01*
G37*
%LPD*%
G36*
X97369Y101721D02*
X97870Y102064D01*
X98183Y102541D01*
X98917Y104313D01*
X102827Y108223D01*
X107935Y110339D01*
X113465Y110339D01*
X118573Y108223D01*
X122483Y104313D01*
X123217Y102541D01*
X123556Y102038D01*
X124064Y101707D01*
X124625Y101600D01*
X154775Y101600D01*
X155369Y101721D01*
X155870Y102064D01*
X156183Y102541D01*
X156917Y104313D01*
X160827Y108223D01*
X165935Y110339D01*
X171465Y110339D01*
X176573Y108223D01*
X180483Y104313D01*
X181217Y102541D01*
X181556Y102038D01*
X182064Y101707D01*
X182625Y101600D01*
X236475Y101600D01*
X237069Y101721D01*
X237570Y102064D01*
X237883Y102541D01*
X238617Y104313D01*
X242527Y108223D01*
X247635Y110339D01*
X253165Y110339D01*
X258273Y108223D01*
X262183Y104313D01*
X262917Y102541D01*
X263256Y102038D01*
X263764Y101707D01*
X264325Y101600D01*
X294475Y101600D01*
X295069Y101721D01*
X295570Y102064D01*
X295883Y102541D01*
X296617Y104313D01*
X300527Y108223D01*
X305635Y110339D01*
X311165Y110339D01*
X316273Y108223D01*
X320183Y104313D01*
X320917Y102541D01*
X321256Y102038D01*
X321764Y101707D01*
X322325Y101600D01*
X376175Y101600D01*
X376769Y101721D01*
X377270Y102064D01*
X377583Y102541D01*
X378317Y104313D01*
X382227Y108223D01*
X387335Y110339D01*
X392865Y110339D01*
X397973Y108223D01*
X401883Y104313D01*
X402617Y102541D01*
X402956Y102038D01*
X403464Y101707D01*
X404025Y101600D01*
X434175Y101600D01*
X434769Y101721D01*
X435270Y102064D01*
X435583Y102541D01*
X436317Y104313D01*
X440227Y108223D01*
X445335Y110339D01*
X450865Y110339D01*
X455973Y108223D01*
X459883Y104313D01*
X460617Y102541D01*
X460956Y102038D01*
X461464Y101707D01*
X462025Y101600D01*
X515875Y101600D01*
X516469Y101721D01*
X516970Y102064D01*
X517283Y102541D01*
X518017Y104313D01*
X521927Y108223D01*
X527035Y110339D01*
X532565Y110339D01*
X537673Y108223D01*
X541583Y104313D01*
X542317Y102541D01*
X542656Y102038D01*
X543164Y101707D01*
X543725Y101600D01*
X573875Y101600D01*
X574469Y101721D01*
X574970Y102064D01*
X575283Y102541D01*
X576017Y104313D01*
X579927Y108223D01*
X585035Y110339D01*
X590565Y110339D01*
X595673Y108223D01*
X599583Y104313D01*
X600317Y102541D01*
X600656Y102038D01*
X601164Y101707D01*
X601725Y101600D01*
X655575Y101600D01*
X656169Y101721D01*
X656670Y102064D01*
X656983Y102541D01*
X657717Y104313D01*
X661627Y108223D01*
X666735Y110339D01*
X672265Y110339D01*
X677373Y108223D01*
X681283Y104313D01*
X682017Y102541D01*
X682356Y102038D01*
X682864Y101707D01*
X683425Y101600D01*
X713575Y101600D01*
X714169Y101721D01*
X714670Y102064D01*
X714983Y102541D01*
X715717Y104313D01*
X719627Y108223D01*
X724735Y110339D01*
X730265Y110339D01*
X735373Y108223D01*
X739283Y104313D01*
X740017Y102541D01*
X740356Y102038D01*
X740864Y101707D01*
X741425Y101600D01*
X875669Y101600D01*
X876263Y101721D01*
X876746Y102046D01*
X901254Y126554D01*
X901589Y127059D01*
X901700Y127631D01*
X901700Y278769D01*
X901579Y279363D01*
X901254Y279846D01*
X761750Y419350D01*
X761244Y419685D01*
X760648Y419797D01*
X760055Y419667D01*
X759594Y419350D01*
X758656Y418412D01*
X756705Y417604D01*
X754595Y417604D01*
X752644Y418412D01*
X751152Y419904D01*
X750344Y421855D01*
X750344Y423965D01*
X751152Y425916D01*
X752090Y426854D01*
X752425Y427360D01*
X752537Y427956D01*
X752407Y428549D01*
X752090Y429010D01*
X737046Y444054D01*
X736541Y444389D01*
X735969Y444500D01*
X667905Y444500D01*
X667311Y444379D01*
X666811Y444036D01*
X666497Y443559D01*
X666168Y442764D01*
X664676Y441272D01*
X662725Y440464D01*
X660615Y440464D01*
X658664Y441272D01*
X657172Y442764D01*
X656843Y443559D01*
X656504Y444062D01*
X655995Y444393D01*
X655435Y444500D01*
X624050Y444500D01*
X623456Y444379D01*
X622955Y444036D01*
X622628Y443525D01*
X622526Y442976D01*
X622526Y440905D01*
X621718Y438954D01*
X620226Y437462D01*
X618275Y436654D01*
X616165Y436654D01*
X614214Y437462D01*
X612722Y438954D01*
X611914Y440905D01*
X611914Y442976D01*
X611793Y443570D01*
X611450Y444071D01*
X610939Y444398D01*
X610390Y444500D01*
X583770Y444500D01*
X583175Y444379D01*
X582675Y444036D01*
X582348Y443525D01*
X582247Y442927D01*
X582362Y442393D01*
X583156Y440475D01*
X583156Y438365D01*
X582348Y436414D01*
X580856Y434922D01*
X578905Y434114D01*
X576795Y434114D01*
X574844Y434922D01*
X573352Y436414D01*
X572544Y438365D01*
X572544Y440475D01*
X573338Y442393D01*
X573454Y442988D01*
X573329Y443582D01*
X572982Y444079D01*
X572468Y444402D01*
X571930Y444500D01*
X500133Y444500D01*
X499539Y444379D01*
X499038Y444036D01*
X498712Y443525D01*
X498610Y442927D01*
X498749Y442337D01*
X499055Y441898D01*
X499798Y441156D01*
X500606Y439205D01*
X500606Y437095D01*
X499798Y435144D01*
X498306Y433652D01*
X496355Y432844D01*
X494245Y432844D01*
X492294Y433652D01*
X490802Y435144D01*
X489994Y437095D01*
X489994Y439205D01*
X490802Y441156D01*
X491545Y441898D01*
X491880Y442404D01*
X491991Y443000D01*
X491861Y443593D01*
X491510Y444087D01*
X490994Y444406D01*
X490467Y444500D01*
X453990Y444500D01*
X453396Y444379D01*
X452895Y444036D01*
X452569Y443525D01*
X452467Y442927D01*
X452582Y442393D01*
X452850Y441745D01*
X452850Y439635D01*
X452042Y437684D01*
X450550Y436192D01*
X448600Y435384D01*
X447229Y435384D01*
X446635Y435263D01*
X446135Y434920D01*
X445808Y434409D01*
X445706Y433811D01*
X445821Y433277D01*
X445996Y432855D01*
X445996Y430745D01*
X445188Y428794D01*
X443696Y427302D01*
X441745Y426494D01*
X439635Y426494D01*
X437684Y427302D01*
X436192Y428794D01*
X435384Y430745D01*
X435384Y432855D01*
X436118Y434628D01*
X436234Y435223D01*
X436109Y435817D01*
X436098Y435833D01*
X436571Y435756D01*
X437160Y435900D01*
X437587Y436201D01*
X437684Y436298D01*
X439635Y437106D01*
X441005Y437106D01*
X441599Y437227D01*
X442099Y437570D01*
X442426Y438081D01*
X442528Y438679D01*
X442413Y439213D01*
X442238Y439635D01*
X442238Y441745D01*
X442506Y442393D01*
X442622Y442988D01*
X442497Y443582D01*
X442150Y444079D01*
X441636Y444402D01*
X441098Y444500D01*
X436976Y444500D01*
X436381Y444379D01*
X435881Y444036D01*
X435554Y443525D01*
X435453Y442927D01*
X435568Y442393D01*
X435836Y441745D01*
X435836Y439635D01*
X435102Y437862D01*
X434986Y437267D01*
X435111Y436673D01*
X435122Y436657D01*
X434650Y436734D01*
X434060Y436590D01*
X433633Y436289D01*
X433536Y436192D01*
X431585Y435384D01*
X429475Y435384D01*
X427524Y436192D01*
X426032Y437684D01*
X425224Y439635D01*
X425224Y441745D01*
X425492Y442393D01*
X425608Y442988D01*
X425483Y443582D01*
X425136Y444079D01*
X424622Y444402D01*
X424084Y444500D01*
X407031Y444500D01*
X406437Y444379D01*
X405954Y444054D01*
X381062Y419162D01*
X381012Y419123D01*
X380875Y419100D01*
X349730Y419100D01*
X349136Y418979D01*
X348635Y418636D01*
X348308Y418125D01*
X348206Y417576D01*
X348206Y416775D01*
X347398Y414824D01*
X345906Y413332D01*
X343955Y412524D01*
X341845Y412524D01*
X339894Y413332D01*
X338402Y414824D01*
X337594Y416775D01*
X337594Y417576D01*
X337473Y418170D01*
X337130Y418671D01*
X336619Y418998D01*
X336070Y419100D01*
X330831Y419100D01*
X330237Y418979D01*
X329754Y418654D01*
X304862Y393762D01*
X304812Y393723D01*
X304675Y393700D01*
X159773Y393700D01*
X159179Y393579D01*
X158678Y393236D01*
X158352Y392725D01*
X158250Y392127D01*
X158389Y391537D01*
X158695Y391098D01*
X159438Y390356D01*
X160246Y388405D01*
X160246Y386295D01*
X159438Y384344D01*
X157946Y382852D01*
X155995Y382044D01*
X153885Y382044D01*
X151934Y382852D01*
X150442Y384344D01*
X149634Y386295D01*
X149634Y388405D01*
X150442Y390356D01*
X151185Y391098D01*
X151520Y391604D01*
X151631Y392200D01*
X151501Y392793D01*
X151150Y393287D01*
X150634Y393606D01*
X150107Y393700D01*
X89531Y393700D01*
X88937Y393579D01*
X88454Y393254D01*
X25846Y330646D01*
X25511Y330141D01*
X25400Y329569D01*
X25400Y241931D01*
X25521Y241337D01*
X25846Y240854D01*
X26597Y240103D01*
X27103Y239768D01*
X27699Y239657D01*
X28258Y239773D01*
X29425Y240256D01*
X31535Y240256D01*
X33486Y239448D01*
X34978Y237956D01*
X35786Y236005D01*
X35786Y233895D01*
X35303Y232728D01*
X35187Y232132D01*
X35312Y231539D01*
X35633Y231067D01*
X63438Y203262D01*
X63477Y203212D01*
X63500Y203075D01*
X63500Y127631D01*
X63621Y127037D01*
X63946Y126554D01*
X88454Y102046D01*
X88959Y101711D01*
X89531Y101600D01*
X96775Y101600D01*
X97369Y101721D01*
G37*
%LPC*%
G36*
X490435Y404904D02*
X488484Y405712D01*
X486992Y407204D01*
X486184Y409155D01*
X486184Y411265D01*
X486992Y413216D01*
X488484Y414708D01*
X490435Y415516D01*
X492545Y415516D01*
X492967Y415341D01*
X493562Y415226D01*
X494156Y415351D01*
X494653Y415698D01*
X494976Y416211D01*
X495074Y416749D01*
X495074Y417615D01*
X495882Y419566D01*
X497374Y421058D01*
X499325Y421866D01*
X501435Y421866D01*
X501455Y421858D01*
X502050Y421742D01*
X502644Y421867D01*
X503141Y422214D01*
X503464Y422728D01*
X503561Y423327D01*
X503446Y423849D01*
X502694Y425665D01*
X502694Y427775D01*
X503502Y429726D01*
X504994Y431218D01*
X506945Y432026D01*
X509055Y432026D01*
X511006Y431218D01*
X512498Y429726D01*
X513306Y427775D01*
X513306Y425665D01*
X512498Y423714D01*
X511006Y422222D01*
X509055Y421414D01*
X506945Y421414D01*
X506925Y421422D01*
X506330Y421538D01*
X505737Y421413D01*
X505239Y421066D01*
X504916Y420552D01*
X504819Y419953D01*
X504934Y419431D01*
X505686Y417615D01*
X505686Y415505D01*
X504878Y413554D01*
X503511Y412187D01*
X503409Y412033D01*
X503208Y411988D01*
X501435Y411254D01*
X499325Y411254D01*
X498903Y411429D01*
X498308Y411545D01*
X497714Y411419D01*
X497217Y411072D01*
X496894Y410559D01*
X496796Y410021D01*
X496796Y409155D01*
X495988Y407204D01*
X494496Y405712D01*
X492545Y404904D01*
X490435Y404904D01*
G37*
G36*
X616165Y418874D02*
X614214Y419682D01*
X612722Y421174D01*
X611914Y423125D01*
X611914Y425235D01*
X612722Y427186D01*
X614214Y428678D01*
X616165Y429486D01*
X618275Y429486D01*
X620226Y428678D01*
X621718Y427186D01*
X622526Y425235D01*
X622526Y423125D01*
X621718Y421174D01*
X620226Y419682D01*
X618275Y418874D01*
X616165Y418874D01*
G37*
G36*
X731735Y417604D02*
X729784Y418412D01*
X728292Y419904D01*
X727484Y421855D01*
X727484Y423965D01*
X728292Y425916D01*
X729784Y427408D01*
X731735Y428216D01*
X733845Y428216D01*
X735796Y427408D01*
X737288Y425916D01*
X738096Y423965D01*
X738096Y421855D01*
X737288Y419904D01*
X735796Y418412D01*
X733845Y417604D01*
X731735Y417604D01*
G37*
G36*
X518401Y410972D02*
X516451Y411780D01*
X514958Y413272D01*
X514151Y415223D01*
X514151Y417333D01*
X514958Y419284D01*
X516451Y420776D01*
X518401Y421584D01*
X520512Y421584D01*
X522462Y420776D01*
X523955Y419284D01*
X524763Y417333D01*
X524763Y415223D01*
X523955Y413272D01*
X522462Y411780D01*
X520512Y410972D01*
X518401Y410972D01*
G37*
G36*
X689825Y404904D02*
X687874Y405712D01*
X686382Y407204D01*
X685574Y409155D01*
X685574Y411265D01*
X686382Y413216D01*
X687874Y414708D01*
X689825Y415516D01*
X691935Y415516D01*
X693886Y414708D01*
X695378Y413216D01*
X696186Y411265D01*
X696186Y409155D01*
X695378Y407204D01*
X693886Y405712D01*
X691935Y404904D01*
X689825Y404904D01*
G37*
G36*
X506945Y399824D02*
X504994Y400632D01*
X503502Y402124D01*
X502694Y404075D01*
X502694Y406185D01*
X503502Y408136D01*
X504869Y409503D01*
X504971Y409657D01*
X505172Y409702D01*
X506945Y410436D01*
X509055Y410436D01*
X511006Y409628D01*
X512498Y408136D01*
X513306Y406185D01*
X513306Y404075D01*
X512498Y402124D01*
X511006Y400632D01*
X509055Y399824D01*
X506945Y399824D01*
G37*
G36*
X571223Y397776D02*
X569272Y398584D01*
X567780Y400076D01*
X566972Y402027D01*
X566972Y404137D01*
X567780Y406088D01*
X569272Y407580D01*
X571223Y408388D01*
X573333Y408388D01*
X575284Y407580D01*
X576776Y406088D01*
X577584Y404137D01*
X577584Y402027D01*
X576776Y400076D01*
X575284Y398584D01*
X573333Y397776D01*
X571223Y397776D01*
G37*
G36*
X674585Y394744D02*
X672634Y395552D01*
X671142Y397044D01*
X670334Y398995D01*
X670334Y401105D01*
X671142Y403056D01*
X672634Y404548D01*
X674585Y405356D01*
X676695Y405356D01*
X678646Y404548D01*
X680138Y403056D01*
X680946Y401105D01*
X680946Y398995D01*
X680138Y397044D01*
X678646Y395552D01*
X676695Y394744D01*
X674585Y394744D01*
G37*
G36*
X449795Y383314D02*
X447844Y384122D01*
X446352Y385614D01*
X445544Y387565D01*
X445544Y389675D01*
X446352Y391626D01*
X447844Y393118D01*
X449795Y393926D01*
X451905Y393926D01*
X453856Y393118D01*
X455348Y391626D01*
X456156Y389675D01*
X456156Y387565D01*
X455348Y385614D01*
X453856Y384122D01*
X451905Y383314D01*
X449795Y383314D01*
G37*
G36*
X754595Y379504D02*
X752644Y380312D01*
X751152Y381804D01*
X750344Y383755D01*
X750344Y385865D01*
X751152Y387816D01*
X752644Y389308D01*
X754595Y390116D01*
X756705Y390116D01*
X758656Y389308D01*
X760148Y387816D01*
X760956Y385865D01*
X760956Y383755D01*
X760148Y381804D01*
X758656Y380312D01*
X756705Y379504D01*
X754595Y379504D01*
G37*
G36*
X731735Y379504D02*
X729784Y380312D01*
X728292Y381804D01*
X727484Y383755D01*
X727484Y385865D01*
X728292Y387816D01*
X729784Y389308D01*
X731735Y390116D01*
X733845Y390116D01*
X735796Y389308D01*
X737288Y387816D01*
X738096Y385865D01*
X738096Y383755D01*
X737288Y381804D01*
X735796Y380312D01*
X733845Y379504D01*
X731735Y379504D01*
G37*
G36*
X247865Y379504D02*
X245914Y380312D01*
X244422Y381804D01*
X243614Y383755D01*
X243614Y385865D01*
X244422Y387816D01*
X245914Y389308D01*
X247865Y390116D01*
X249975Y390116D01*
X251926Y389308D01*
X252922Y388311D01*
X253428Y387976D01*
X254024Y387865D01*
X254617Y387995D01*
X255078Y388311D01*
X256074Y389308D01*
X258025Y390116D01*
X260135Y390116D01*
X262086Y389308D01*
X263578Y387816D01*
X264386Y385865D01*
X264386Y383755D01*
X263578Y381804D01*
X262086Y380312D01*
X260135Y379504D01*
X258025Y379504D01*
X256074Y380312D01*
X255078Y381309D01*
X254572Y381644D01*
X253976Y381755D01*
X253383Y381625D01*
X252922Y381309D01*
X251926Y380312D01*
X249975Y379504D01*
X247865Y379504D01*
G37*
G36*
X140785Y340136D02*
X138097Y341250D01*
X136040Y343307D01*
X134926Y345995D01*
X134926Y348905D01*
X136040Y351593D01*
X138069Y353622D01*
X138404Y354128D01*
X138515Y354724D01*
X138385Y355317D01*
X138069Y355778D01*
X136040Y357807D01*
X134926Y360495D01*
X134926Y363405D01*
X136040Y366093D01*
X138069Y368122D01*
X138404Y368628D01*
X138515Y369224D01*
X138385Y369817D01*
X138069Y370278D01*
X136040Y372307D01*
X134926Y374995D01*
X134926Y377905D01*
X136040Y380593D01*
X138097Y382651D01*
X140785Y383764D01*
X143695Y383764D01*
X146383Y382651D01*
X148441Y380593D01*
X149554Y377905D01*
X149554Y374995D01*
X148441Y372307D01*
X146411Y370278D01*
X146076Y369772D01*
X145965Y369176D01*
X146095Y368583D01*
X146411Y368122D01*
X148441Y366093D01*
X149554Y363405D01*
X149554Y360495D01*
X148441Y357807D01*
X146411Y355778D01*
X146076Y355272D01*
X145965Y354676D01*
X146095Y354083D01*
X146411Y353622D01*
X148441Y351593D01*
X149554Y348905D01*
X149554Y345995D01*
X148441Y343307D01*
X146383Y341250D01*
X143695Y340136D01*
X140785Y340136D01*
G37*
G36*
X687285Y370614D02*
X685334Y371422D01*
X683842Y372914D01*
X683034Y374865D01*
X683034Y376975D01*
X683842Y378926D01*
X685334Y380418D01*
X687285Y381226D01*
X689395Y381226D01*
X691346Y380418D01*
X692838Y378926D01*
X693646Y376975D01*
X693646Y374865D01*
X692838Y372914D01*
X691346Y371422D01*
X689395Y370614D01*
X687285Y370614D01*
G37*
G36*
X586955Y370614D02*
X585004Y371422D01*
X583512Y372914D01*
X582704Y374865D01*
X582704Y376975D01*
X583512Y378926D01*
X585004Y380418D01*
X586955Y381226D01*
X589065Y381226D01*
X591016Y380418D01*
X592508Y378926D01*
X593316Y376975D01*
X593316Y374865D01*
X592508Y372914D01*
X591016Y371422D01*
X589065Y370614D01*
X586955Y370614D01*
G37*
G36*
X492975Y370614D02*
X491024Y371422D01*
X489532Y372914D01*
X488724Y374865D01*
X488724Y376975D01*
X489532Y378926D01*
X491024Y380418D01*
X492975Y381226D01*
X495085Y381226D01*
X497036Y380418D01*
X498528Y378926D01*
X499336Y376975D01*
X499336Y374865D01*
X498528Y372914D01*
X497036Y371422D01*
X495085Y370614D01*
X492975Y370614D01*
G37*
G36*
X401535Y364264D02*
X399584Y365072D01*
X398092Y366564D01*
X397284Y368515D01*
X397284Y370625D01*
X398092Y372576D01*
X399584Y374068D01*
X401535Y374876D01*
X403645Y374876D01*
X405596Y374068D01*
X406592Y373071D01*
X407098Y372736D01*
X407694Y372625D01*
X408287Y372755D01*
X408748Y373071D01*
X409744Y374068D01*
X411695Y374876D01*
X413805Y374876D01*
X415756Y374068D01*
X417248Y372576D01*
X418056Y370625D01*
X418056Y368515D01*
X417248Y366564D01*
X415756Y365072D01*
X413805Y364264D01*
X411695Y364264D01*
X409744Y365072D01*
X408748Y366069D01*
X408242Y366404D01*
X407646Y366515D01*
X407053Y366385D01*
X406592Y366069D01*
X405596Y365072D01*
X403645Y364264D01*
X401535Y364264D01*
G37*
G36*
X203415Y364264D02*
X201464Y365072D01*
X199972Y366564D01*
X199164Y368515D01*
X199164Y370625D01*
X199972Y372576D01*
X201464Y374068D01*
X203415Y374876D01*
X205525Y374876D01*
X207476Y374068D01*
X208968Y372576D01*
X209776Y370625D01*
X209776Y368515D01*
X208968Y366564D01*
X207476Y365072D01*
X205525Y364264D01*
X203415Y364264D01*
G37*
G36*
X178015Y364264D02*
X176064Y365072D01*
X174572Y366564D01*
X173764Y368515D01*
X173764Y370625D01*
X174572Y372576D01*
X176064Y374068D01*
X178015Y374876D01*
X180125Y374876D01*
X182076Y374068D01*
X183568Y372576D01*
X184376Y370625D01*
X184376Y368515D01*
X183568Y366564D01*
X182076Y365072D01*
X180125Y364264D01*
X178015Y364264D01*
G37*
G36*
X499325Y357914D02*
X497374Y358722D01*
X495882Y360214D01*
X495074Y362165D01*
X495074Y364275D01*
X495882Y366226D01*
X497374Y367718D01*
X499325Y368526D01*
X501435Y368526D01*
X503386Y367718D01*
X504878Y366226D01*
X505686Y364275D01*
X505686Y362165D01*
X504878Y360214D01*
X503386Y358722D01*
X501435Y357914D01*
X499325Y357914D01*
G37*
G36*
X449795Y357914D02*
X447844Y358722D01*
X446352Y360214D01*
X445544Y362165D01*
X445544Y364275D01*
X446352Y366226D01*
X447844Y367718D01*
X449795Y368526D01*
X451905Y368526D01*
X453856Y367718D01*
X455348Y366226D01*
X456156Y364275D01*
X456156Y362165D01*
X455348Y360214D01*
X453856Y358722D01*
X451905Y357914D01*
X449795Y357914D01*
G37*
G36*
X593305Y336324D02*
X591354Y337132D01*
X589862Y338624D01*
X589054Y340575D01*
X589054Y342685D01*
X589862Y344636D01*
X591424Y346198D01*
X591770Y346431D01*
X592101Y346939D01*
X592207Y347536D01*
X592073Y348128D01*
X591718Y348620D01*
X591199Y348934D01*
X590823Y349000D01*
X588814Y349832D01*
X587322Y351324D01*
X586514Y353275D01*
X586514Y355385D01*
X587322Y357336D01*
X588814Y358828D01*
X590765Y359636D01*
X592875Y359636D01*
X594826Y358828D01*
X596318Y357336D01*
X597126Y355385D01*
X597126Y353275D01*
X596318Y351324D01*
X594756Y349762D01*
X594410Y349529D01*
X594079Y349021D01*
X593973Y348424D01*
X594108Y347832D01*
X594462Y347340D01*
X594981Y347026D01*
X595357Y346960D01*
X597366Y346128D01*
X598858Y344636D01*
X599666Y342685D01*
X599666Y340575D01*
X598858Y338624D01*
X597366Y337132D01*
X595415Y336324D01*
X593305Y336324D01*
G37*
G36*
X524725Y343944D02*
X522774Y344752D01*
X521282Y346244D01*
X520474Y348195D01*
X520474Y350305D01*
X521282Y352256D01*
X522774Y353748D01*
X524725Y354556D01*
X526835Y354556D01*
X528786Y353748D01*
X530278Y352256D01*
X531086Y350305D01*
X531086Y348195D01*
X530278Y346244D01*
X528786Y344752D01*
X526835Y343944D01*
X524725Y343944D01*
G37*
G36*
X754595Y341404D02*
X752644Y342212D01*
X751152Y343704D01*
X750344Y345655D01*
X750344Y347765D01*
X751152Y349716D01*
X752644Y351208D01*
X754595Y352016D01*
X756705Y352016D01*
X758656Y351208D01*
X760148Y349716D01*
X760956Y347765D01*
X760956Y345655D01*
X760148Y343704D01*
X758656Y342212D01*
X756705Y341404D01*
X754595Y341404D01*
G37*
G36*
X731735Y341404D02*
X729784Y342212D01*
X728292Y343704D01*
X727484Y345655D01*
X727484Y347765D01*
X728292Y349716D01*
X729784Y351208D01*
X731735Y352016D01*
X733845Y352016D01*
X735796Y351208D01*
X737288Y349716D01*
X738096Y347765D01*
X738096Y345655D01*
X737288Y343704D01*
X735796Y342212D01*
X733845Y341404D01*
X731735Y341404D01*
G37*
G36*
X556475Y340134D02*
X554524Y340942D01*
X553032Y342434D01*
X552224Y344385D01*
X552224Y346495D01*
X553032Y348446D01*
X554524Y349938D01*
X556475Y350746D01*
X558585Y350746D01*
X560536Y349938D01*
X562028Y348446D01*
X562836Y346495D01*
X562836Y344385D01*
X562028Y342434D01*
X560536Y340942D01*
X558585Y340134D01*
X556475Y340134D01*
G37*
G36*
X501865Y338864D02*
X499914Y339672D01*
X498422Y341164D01*
X497614Y343115D01*
X497614Y345225D01*
X498422Y347176D01*
X499914Y348668D01*
X501865Y349476D01*
X503975Y349476D01*
X505926Y348668D01*
X507418Y347176D01*
X508226Y345225D01*
X508226Y343115D01*
X507418Y341164D01*
X505926Y339672D01*
X503975Y338864D01*
X501865Y338864D01*
G37*
G36*
X447255Y338864D02*
X445304Y339672D01*
X443812Y341164D01*
X443004Y343115D01*
X443004Y345225D01*
X443812Y347176D01*
X445304Y348668D01*
X447255Y349476D01*
X449365Y349476D01*
X451316Y348668D01*
X452808Y347176D01*
X453616Y345225D01*
X453616Y343115D01*
X452808Y341164D01*
X451316Y339672D01*
X449365Y338864D01*
X447255Y338864D01*
G37*
G36*
X263105Y332514D02*
X261154Y333322D01*
X259662Y334814D01*
X258854Y336765D01*
X258854Y338875D01*
X259662Y340826D01*
X261154Y342318D01*
X263105Y343126D01*
X265215Y343126D01*
X267166Y342318D01*
X268658Y340826D01*
X269466Y338875D01*
X269466Y336765D01*
X268658Y334814D01*
X267166Y333322D01*
X265215Y332514D01*
X263105Y332514D01*
G37*
G36*
X203415Y332514D02*
X201464Y333322D01*
X199972Y334814D01*
X199164Y336765D01*
X199164Y338875D01*
X199972Y340826D01*
X201464Y342318D01*
X203415Y343126D01*
X205525Y343126D01*
X207476Y342318D01*
X208968Y340826D01*
X209776Y338875D01*
X209776Y336765D01*
X208968Y334814D01*
X207476Y333322D01*
X205525Y332514D01*
X203415Y332514D01*
G37*
G36*
X178015Y332514D02*
X176064Y333322D01*
X174572Y334814D01*
X173764Y336765D01*
X173764Y338875D01*
X174572Y340826D01*
X176064Y342318D01*
X178015Y343126D01*
X180125Y343126D01*
X182076Y342318D01*
X183568Y340826D01*
X184376Y338875D01*
X184376Y336765D01*
X183568Y334814D01*
X182076Y333322D01*
X180125Y332514D01*
X178015Y332514D01*
G37*
G36*
X372325Y328704D02*
X370374Y329512D01*
X368882Y331004D01*
X368074Y332955D01*
X368074Y335065D01*
X368882Y337016D01*
X370374Y338508D01*
X372325Y339316D01*
X374435Y339316D01*
X376386Y338508D01*
X377878Y337016D01*
X378686Y335065D01*
X378686Y332955D01*
X377878Y331004D01*
X376386Y329512D01*
X374435Y328704D01*
X372325Y328704D01*
G37*
G36*
X433285Y327434D02*
X431334Y328242D01*
X429842Y329734D01*
X429034Y331685D01*
X429034Y333795D01*
X429842Y335746D01*
X431334Y337238D01*
X433285Y338046D01*
X435395Y338046D01*
X437346Y337238D01*
X438838Y335746D01*
X439646Y333795D01*
X439646Y331685D01*
X438838Y329734D01*
X437346Y328242D01*
X435395Y327434D01*
X433285Y327434D01*
G37*
G36*
X488752Y324894D02*
X486802Y325702D01*
X485309Y327194D01*
X484502Y329145D01*
X484502Y331255D01*
X485309Y333206D01*
X486802Y334698D01*
X488752Y335506D01*
X490863Y335506D01*
X492813Y334698D01*
X494306Y333206D01*
X495114Y331255D01*
X495114Y329145D01*
X494306Y327194D01*
X492813Y325702D01*
X490863Y324894D01*
X488752Y324894D01*
G37*
G36*
X721575Y322354D02*
X719624Y323162D01*
X718132Y324654D01*
X717324Y326605D01*
X717324Y328715D01*
X718132Y330666D01*
X719624Y332158D01*
X721575Y332966D01*
X723685Y332966D01*
X725636Y332158D01*
X727128Y330666D01*
X727936Y328715D01*
X727936Y326605D01*
X727128Y324654D01*
X725636Y323162D01*
X723685Y322354D01*
X721575Y322354D01*
G37*
G36*
X452335Y317757D02*
X450384Y318565D01*
X448892Y320057D01*
X448084Y322008D01*
X448084Y324118D01*
X448892Y326069D01*
X450384Y327561D01*
X452335Y328369D01*
X454445Y328369D01*
X456396Y327561D01*
X457888Y326069D01*
X458696Y324118D01*
X458696Y322008D01*
X457888Y320057D01*
X456396Y318565D01*
X454445Y317757D01*
X452335Y317757D01*
G37*
G36*
X101815Y309654D02*
X99864Y310462D01*
X98372Y311954D01*
X97564Y313905D01*
X97564Y316015D01*
X98372Y317966D01*
X99864Y319458D01*
X101815Y320266D01*
X102390Y320266D01*
X102984Y320387D01*
X103485Y320730D01*
X103812Y321241D01*
X103914Y321790D01*
X103914Y322365D01*
X104722Y324316D01*
X106214Y325808D01*
X108165Y326616D01*
X110275Y326616D01*
X112226Y325808D01*
X113718Y324316D01*
X114526Y322365D01*
X114526Y320255D01*
X113718Y318304D01*
X112226Y316812D01*
X110275Y316004D01*
X109700Y316004D01*
X109106Y315883D01*
X108605Y315540D01*
X108278Y315029D01*
X108176Y314480D01*
X108176Y313905D01*
X107368Y311954D01*
X105876Y310462D01*
X103925Y309654D01*
X101815Y309654D01*
G37*
G36*
X637755Y314734D02*
X635804Y315542D01*
X634312Y317034D01*
X633504Y318985D01*
X633504Y321095D01*
X634312Y323046D01*
X635804Y324538D01*
X637755Y325346D01*
X639865Y325346D01*
X641816Y324538D01*
X643308Y323046D01*
X644116Y321095D01*
X644116Y318985D01*
X643308Y317034D01*
X641816Y315542D01*
X639865Y314734D01*
X637755Y314734D01*
G37*
G36*
X354545Y313464D02*
X352594Y314272D01*
X351102Y315764D01*
X350294Y317715D01*
X350294Y319825D01*
X351102Y321776D01*
X352594Y323268D01*
X354545Y324076D01*
X356655Y324076D01*
X358606Y323268D01*
X360098Y321776D01*
X360906Y319825D01*
X360906Y317715D01*
X360098Y315764D01*
X358606Y314272D01*
X356655Y313464D01*
X354545Y313464D01*
G37*
G36*
X307555Y304574D02*
X305604Y305382D01*
X304112Y306874D01*
X303304Y308825D01*
X303304Y310877D01*
X303183Y311471D01*
X302840Y311971D01*
X302363Y312285D01*
X300448Y313078D01*
X298956Y314571D01*
X298148Y316521D01*
X298148Y318632D01*
X298956Y320582D01*
X300448Y322074D01*
X302398Y322882D01*
X304509Y322882D01*
X306459Y322074D01*
X307952Y320582D01*
X308760Y318632D01*
X308760Y316579D01*
X308880Y315985D01*
X309223Y315485D01*
X309701Y315171D01*
X311616Y314378D01*
X313108Y312886D01*
X313916Y310935D01*
X313916Y308825D01*
X313108Y306874D01*
X311616Y305382D01*
X309665Y304574D01*
X307555Y304574D01*
G37*
G36*
X387565Y310924D02*
X385614Y311732D01*
X384122Y313224D01*
X383314Y315175D01*
X383314Y317285D01*
X384122Y319236D01*
X385614Y320728D01*
X387565Y321536D01*
X389675Y321536D01*
X391626Y320728D01*
X393118Y319236D01*
X393926Y317285D01*
X393926Y315175D01*
X393118Y313224D01*
X391626Y311732D01*
X389675Y310924D01*
X387565Y310924D01*
G37*
G36*
X487895Y309654D02*
X485944Y310462D01*
X484452Y311954D01*
X483644Y313905D01*
X483644Y316015D01*
X484452Y317966D01*
X485944Y319458D01*
X487895Y320266D01*
X490005Y320266D01*
X491956Y319458D01*
X493448Y317966D01*
X494256Y316015D01*
X494256Y313905D01*
X493448Y311954D01*
X491956Y310462D01*
X490005Y309654D01*
X487895Y309654D01*
G37*
G36*
X503135Y308384D02*
X501184Y309192D01*
X499692Y310684D01*
X498884Y312635D01*
X498884Y314745D01*
X499692Y316696D01*
X501184Y318188D01*
X503135Y318996D01*
X505245Y318996D01*
X507196Y318188D01*
X508688Y316696D01*
X509496Y314745D01*
X509496Y312635D01*
X508688Y310684D01*
X507196Y309192D01*
X505245Y308384D01*
X503135Y308384D01*
G37*
G36*
X264375Y307114D02*
X262424Y307922D01*
X260932Y309414D01*
X260124Y311365D01*
X260124Y313475D01*
X260932Y315426D01*
X262424Y316918D01*
X264375Y317726D01*
X266485Y317726D01*
X268436Y316918D01*
X269928Y315426D01*
X270736Y313475D01*
X270736Y311365D01*
X269928Y309414D01*
X268436Y307922D01*
X266485Y307114D01*
X264375Y307114D01*
G37*
G36*
X529805Y305844D02*
X527854Y306652D01*
X526362Y308144D01*
X525554Y310095D01*
X525554Y312205D01*
X526362Y314156D01*
X527854Y315648D01*
X529805Y316456D01*
X531915Y316456D01*
X533866Y315648D01*
X535358Y314156D01*
X536166Y312205D01*
X536166Y310095D01*
X535358Y308144D01*
X533866Y306652D01*
X531915Y305844D01*
X529805Y305844D01*
G37*
G36*
X754595Y303304D02*
X752644Y304112D01*
X751152Y305604D01*
X750344Y307555D01*
X750344Y309665D01*
X751152Y311616D01*
X752644Y313108D01*
X754595Y313916D01*
X756705Y313916D01*
X758656Y313108D01*
X760148Y311616D01*
X760956Y309665D01*
X760956Y307555D01*
X760148Y305604D01*
X758656Y304112D01*
X756705Y303304D01*
X754595Y303304D01*
G37*
G36*
X727925Y290604D02*
X725974Y291412D01*
X724482Y292904D01*
X723674Y294855D01*
X723674Y296965D01*
X724482Y298916D01*
X725974Y300408D01*
X727925Y301216D01*
X729114Y301216D01*
X729708Y301337D01*
X730208Y301680D01*
X730535Y302191D01*
X730637Y302789D01*
X730497Y303379D01*
X730139Y303868D01*
X729837Y304059D01*
X728292Y305604D01*
X727484Y307555D01*
X727484Y309665D01*
X728292Y311616D01*
X729784Y313108D01*
X731735Y313916D01*
X733845Y313916D01*
X735796Y313108D01*
X737288Y311616D01*
X738096Y309665D01*
X738096Y307555D01*
X737288Y305604D01*
X735796Y304112D01*
X733845Y303304D01*
X732656Y303304D01*
X732062Y303183D01*
X731562Y302840D01*
X731235Y302329D01*
X731133Y301731D01*
X731273Y301141D01*
X731631Y300652D01*
X731933Y300461D01*
X733478Y298916D01*
X734286Y296965D01*
X734286Y294855D01*
X733478Y292904D01*
X731986Y291412D01*
X730035Y290604D01*
X727925Y290604D01*
G37*
G36*
X314893Y288064D02*
X312942Y288872D01*
X311450Y290364D01*
X310642Y292315D01*
X310642Y294425D01*
X311450Y296376D01*
X312942Y297868D01*
X314893Y298676D01*
X317020Y298676D01*
X317614Y298797D01*
X318115Y299140D01*
X318442Y299651D01*
X318544Y300200D01*
X318544Y302045D01*
X319352Y303996D01*
X320844Y305488D01*
X322795Y306296D01*
X324905Y306296D01*
X326856Y305488D01*
X328348Y303996D01*
X329156Y302045D01*
X329156Y299935D01*
X328348Y297984D01*
X326856Y296492D01*
X324905Y295684D01*
X322778Y295684D01*
X322184Y295563D01*
X321683Y295220D01*
X321356Y294709D01*
X321254Y294160D01*
X321254Y292315D01*
X320446Y290364D01*
X318954Y288872D01*
X317003Y288064D01*
X314893Y288064D01*
G37*
G36*
X443445Y294414D02*
X441494Y295222D01*
X440002Y296714D01*
X439194Y298665D01*
X439194Y300775D01*
X440002Y302726D01*
X441494Y304218D01*
X443445Y305026D01*
X445555Y305026D01*
X447506Y304218D01*
X448998Y302726D01*
X449806Y300775D01*
X449806Y298665D01*
X448998Y296714D01*
X447506Y295222D01*
X445555Y294414D01*
X443445Y294414D01*
G37*
G36*
X203415Y294414D02*
X201464Y295222D01*
X199972Y296714D01*
X199164Y298665D01*
X199164Y300775D01*
X199972Y302726D01*
X201464Y304218D01*
X203415Y305026D01*
X205525Y305026D01*
X207476Y304218D01*
X208968Y302726D01*
X209776Y300775D01*
X209776Y298665D01*
X208968Y296714D01*
X207476Y295222D01*
X205525Y294414D01*
X203415Y294414D01*
G37*
G36*
X78955Y294414D02*
X77004Y295222D01*
X75512Y296714D01*
X74704Y298665D01*
X74704Y300775D01*
X75512Y302726D01*
X77004Y304218D01*
X78955Y305026D01*
X81065Y305026D01*
X83016Y304218D01*
X84508Y302726D01*
X85316Y300775D01*
X85316Y298665D01*
X84508Y296714D01*
X83016Y295222D01*
X81065Y294414D01*
X78955Y294414D01*
G37*
G36*
X487895Y291874D02*
X485944Y292682D01*
X484452Y294174D01*
X483644Y296125D01*
X483644Y298235D01*
X484452Y300186D01*
X485944Y301678D01*
X487895Y302486D01*
X490005Y302486D01*
X491956Y301678D01*
X493448Y300186D01*
X494256Y298235D01*
X494256Y296125D01*
X493448Y294174D01*
X491956Y292682D01*
X490005Y291874D01*
X487895Y291874D01*
G37*
G36*
X172935Y288064D02*
X170984Y288872D01*
X169492Y290364D01*
X168684Y292315D01*
X168684Y294425D01*
X169492Y296376D01*
X170984Y297868D01*
X172935Y298676D01*
X175045Y298676D01*
X176996Y297868D01*
X178488Y296376D01*
X179296Y294425D01*
X179296Y292315D01*
X178488Y290364D01*
X176996Y288872D01*
X175045Y288064D01*
X172935Y288064D01*
G37*
G36*
X151345Y288064D02*
X149394Y288872D01*
X147902Y290364D01*
X147094Y292315D01*
X147094Y294425D01*
X147902Y296376D01*
X149394Y297868D01*
X151345Y298676D01*
X153455Y298676D01*
X155406Y297868D01*
X156898Y296376D01*
X157706Y294425D01*
X157706Y292315D01*
X156898Y290364D01*
X155406Y288872D01*
X153455Y288064D01*
X151345Y288064D01*
G37*
G36*
X565365Y284254D02*
X563414Y285062D01*
X561922Y286554D01*
X561114Y288505D01*
X561114Y290615D01*
X561922Y292566D01*
X563414Y294058D01*
X565365Y294866D01*
X567475Y294866D01*
X569426Y294058D01*
X570918Y292566D01*
X571726Y290615D01*
X571726Y288505D01*
X570918Y286554D01*
X569426Y285062D01*
X567475Y284254D01*
X565365Y284254D01*
G37*
G36*
X287235Y284254D02*
X285284Y285062D01*
X283792Y286554D01*
X282984Y288505D01*
X282984Y290615D01*
X283792Y292566D01*
X285284Y294058D01*
X287235Y294866D01*
X289345Y294866D01*
X291296Y294058D01*
X292788Y292566D01*
X293596Y290615D01*
X293596Y288505D01*
X292788Y286554D01*
X291296Y285062D01*
X289345Y284254D01*
X287235Y284254D01*
G37*
G36*
X217385Y279174D02*
X215434Y279982D01*
X213942Y281474D01*
X213134Y283425D01*
X213134Y285535D01*
X213942Y287486D01*
X215434Y288978D01*
X217385Y289786D01*
X219495Y289786D01*
X221446Y288978D01*
X222938Y287486D01*
X223746Y285535D01*
X223746Y283425D01*
X222938Y281474D01*
X221446Y279982D01*
X219495Y279174D01*
X217385Y279174D01*
G37*
G36*
X498055Y279174D02*
X496104Y279982D01*
X494612Y281474D01*
X493804Y283425D01*
X493804Y285535D01*
X494612Y287486D01*
X496104Y288978D01*
X498055Y289786D01*
X500165Y289786D01*
X502116Y288978D01*
X503608Y287486D01*
X504416Y285535D01*
X504416Y283425D01*
X503682Y281652D01*
X503645Y281463D01*
X503483Y281349D01*
X502116Y279982D01*
X500165Y279174D01*
X498055Y279174D01*
G37*
G36*
X428205Y279174D02*
X426254Y279982D01*
X424762Y281474D01*
X423954Y283425D01*
X423954Y285535D01*
X424762Y287486D01*
X426254Y288978D01*
X428205Y289786D01*
X430315Y289786D01*
X432266Y288978D01*
X433758Y287486D01*
X434566Y285535D01*
X434566Y283425D01*
X433758Y281474D01*
X432266Y279982D01*
X430315Y279174D01*
X428205Y279174D01*
G37*
G36*
X650455Y279048D02*
X648504Y279856D01*
X647012Y281348D01*
X646204Y283299D01*
X646204Y285409D01*
X647012Y287360D01*
X648504Y288852D01*
X650455Y289660D01*
X652565Y289660D01*
X654516Y288852D01*
X656008Y287360D01*
X656816Y285409D01*
X656816Y283299D01*
X656008Y281348D01*
X654516Y279856D01*
X652565Y279048D01*
X650455Y279048D01*
G37*
G36*
X263105Y276634D02*
X261154Y277442D01*
X259662Y278934D01*
X258854Y280885D01*
X258854Y282995D01*
X259662Y284946D01*
X261154Y286438D01*
X263105Y287246D01*
X265215Y287246D01*
X267166Y286438D01*
X268658Y284946D01*
X269466Y282995D01*
X269466Y280885D01*
X268658Y278934D01*
X267166Y277442D01*
X265215Y276634D01*
X263105Y276634D01*
G37*
G36*
X232625Y276634D02*
X230674Y277442D01*
X229182Y278934D01*
X228374Y280885D01*
X228374Y282995D01*
X229182Y284946D01*
X230674Y286438D01*
X232625Y287246D01*
X234735Y287246D01*
X236686Y286438D01*
X238178Y284946D01*
X238622Y283874D01*
X238961Y283371D01*
X239469Y283040D01*
X240066Y282934D01*
X240658Y283069D01*
X241150Y283424D01*
X241438Y283874D01*
X241882Y284946D01*
X243374Y286438D01*
X245325Y287246D01*
X247435Y287246D01*
X249386Y286438D01*
X250878Y284946D01*
X251686Y282995D01*
X251686Y280885D01*
X250878Y278934D01*
X249386Y277442D01*
X247435Y276634D01*
X245325Y276634D01*
X243374Y277442D01*
X241882Y278934D01*
X241438Y280006D01*
X241099Y280509D01*
X240591Y280840D01*
X239994Y280946D01*
X239402Y280811D01*
X238910Y280456D01*
X238622Y280006D01*
X238178Y278934D01*
X236686Y277442D01*
X234735Y276634D01*
X232625Y276634D01*
G37*
G36*
X555205Y271554D02*
X553254Y272362D01*
X551762Y273854D01*
X550954Y275805D01*
X550954Y277915D01*
X551762Y279866D01*
X553254Y281358D01*
X555205Y282166D01*
X557315Y282166D01*
X559266Y281358D01*
X560758Y279866D01*
X561566Y277915D01*
X561566Y275805D01*
X560758Y273854D01*
X559266Y272362D01*
X557315Y271554D01*
X555205Y271554D01*
G37*
G36*
X517105Y263934D02*
X515154Y264742D01*
X513662Y266234D01*
X512854Y268185D01*
X512854Y270030D01*
X512733Y270624D01*
X512390Y271125D01*
X511879Y271452D01*
X511330Y271554D01*
X509485Y271554D01*
X507534Y272362D01*
X506042Y273854D01*
X505234Y275805D01*
X505234Y277915D01*
X505968Y279688D01*
X506005Y279877D01*
X506167Y279991D01*
X507534Y281358D01*
X509485Y282166D01*
X511595Y282166D01*
X513546Y281358D01*
X515038Y279866D01*
X515846Y277915D01*
X515846Y276070D01*
X515967Y275476D01*
X516310Y274975D01*
X516821Y274648D01*
X517370Y274546D01*
X519215Y274546D01*
X521166Y273738D01*
X522658Y272246D01*
X523466Y270295D01*
X523466Y268185D01*
X522658Y266234D01*
X521166Y264742D01*
X519215Y263934D01*
X517105Y263934D01*
G37*
G36*
X473925Y270284D02*
X471974Y271092D01*
X470482Y272584D01*
X469674Y274535D01*
X469674Y276645D01*
X470482Y278596D01*
X471974Y280088D01*
X473925Y280896D01*
X476035Y280896D01*
X477986Y280088D01*
X479478Y278596D01*
X480286Y276645D01*
X480286Y274535D01*
X479478Y272584D01*
X477986Y271092D01*
X476035Y270284D01*
X473925Y270284D01*
G37*
G36*
X754595Y267744D02*
X752644Y268552D01*
X751152Y270044D01*
X750344Y271995D01*
X750344Y274105D01*
X751152Y276056D01*
X752644Y277548D01*
X754595Y278356D01*
X756705Y278356D01*
X758656Y277548D01*
X760148Y276056D01*
X760956Y274105D01*
X760956Y271995D01*
X760148Y270044D01*
X758656Y268552D01*
X756705Y267744D01*
X754595Y267744D01*
G37*
G36*
X625055Y265204D02*
X623104Y266012D01*
X621612Y267504D01*
X620804Y269455D01*
X620804Y271565D01*
X621612Y273516D01*
X623104Y275008D01*
X625055Y275816D01*
X627165Y275816D01*
X629116Y275008D01*
X630608Y273516D01*
X631416Y271565D01*
X631416Y269455D01*
X630608Y267504D01*
X629116Y266012D01*
X627165Y265204D01*
X625055Y265204D01*
G37*
G36*
X452335Y263934D02*
X450384Y264742D01*
X448892Y266234D01*
X448084Y268185D01*
X448084Y270295D01*
X448892Y272246D01*
X450384Y273738D01*
X452335Y274546D01*
X454445Y274546D01*
X456396Y273738D01*
X457888Y272246D01*
X458696Y270295D01*
X458696Y268185D01*
X457888Y266234D01*
X456396Y264742D01*
X454445Y263934D01*
X452335Y263934D01*
G37*
G36*
X242785Y256314D02*
X240834Y257122D01*
X239342Y258614D01*
X238534Y260565D01*
X238534Y262675D01*
X239342Y264626D01*
X240834Y266118D01*
X242785Y266926D01*
X244895Y266926D01*
X246846Y266118D01*
X248338Y264626D01*
X249146Y262675D01*
X249146Y260565D01*
X248338Y258614D01*
X246846Y257122D01*
X244895Y256314D01*
X242785Y256314D01*
G37*
G36*
X433285Y256314D02*
X431334Y257122D01*
X429842Y258614D01*
X429034Y260565D01*
X429034Y262675D01*
X429842Y264626D01*
X431334Y266118D01*
X433285Y266926D01*
X435395Y266926D01*
X437346Y266118D01*
X438838Y264626D01*
X439646Y262675D01*
X439646Y260565D01*
X438838Y258614D01*
X437346Y257122D01*
X435395Y256314D01*
X433285Y256314D01*
G37*
G36*
X353275Y256314D02*
X351324Y257122D01*
X349832Y258614D01*
X349024Y260565D01*
X349024Y262675D01*
X349832Y264626D01*
X351324Y266118D01*
X353275Y266926D01*
X355385Y266926D01*
X357336Y266118D01*
X358828Y264626D01*
X359636Y262675D01*
X359636Y260565D01*
X358828Y258614D01*
X357336Y257122D01*
X355385Y256314D01*
X353275Y256314D01*
G37*
G36*
X320255Y252504D02*
X318304Y253312D01*
X316812Y254804D01*
X316004Y256755D01*
X316004Y258865D01*
X316812Y260816D01*
X318304Y262308D01*
X320255Y263116D01*
X322365Y263116D01*
X324316Y262308D01*
X325808Y260816D01*
X326616Y258865D01*
X326616Y256755D01*
X325808Y254804D01*
X324316Y253312D01*
X322365Y252504D01*
X320255Y252504D01*
G37*
G36*
X481545Y251234D02*
X479594Y252042D01*
X478102Y253534D01*
X477294Y255485D01*
X477294Y257595D01*
X478102Y259546D01*
X479594Y261038D01*
X481545Y261846D01*
X483655Y261846D01*
X485606Y261038D01*
X487098Y259546D01*
X487542Y258474D01*
X487881Y257971D01*
X488389Y257640D01*
X488986Y257534D01*
X489578Y257669D01*
X490070Y258024D01*
X490358Y258474D01*
X490802Y259546D01*
X492294Y261038D01*
X494245Y261846D01*
X496355Y261846D01*
X498306Y261038D01*
X499798Y259546D01*
X500606Y257595D01*
X500606Y255485D01*
X499798Y253534D01*
X498306Y252042D01*
X496355Y251234D01*
X494245Y251234D01*
X492294Y252042D01*
X490802Y253534D01*
X490358Y254606D01*
X490019Y255109D01*
X489511Y255440D01*
X488914Y255546D01*
X488322Y255411D01*
X487830Y255056D01*
X487542Y254606D01*
X487098Y253534D01*
X485606Y252042D01*
X483655Y251234D01*
X481545Y251234D01*
G37*
G36*
X683475Y248694D02*
X681524Y249502D01*
X680032Y250994D01*
X679224Y252945D01*
X679224Y255055D01*
X680032Y257006D01*
X681524Y258498D01*
X683475Y259306D01*
X685585Y259306D01*
X687536Y258498D01*
X689028Y257006D01*
X689836Y255055D01*
X689836Y252945D01*
X689028Y250994D01*
X687536Y249502D01*
X685585Y248694D01*
X683475Y248694D01*
G37*
G36*
X137375Y244884D02*
X135424Y245692D01*
X133932Y247184D01*
X133124Y249135D01*
X133124Y251245D01*
X133932Y253196D01*
X135424Y254688D01*
X137375Y255496D01*
X139485Y255496D01*
X141436Y254688D01*
X142928Y253196D01*
X143736Y251245D01*
X143736Y249135D01*
X142928Y247184D01*
X141436Y245692D01*
X139485Y244884D01*
X137375Y244884D01*
G37*
G36*
X367245Y238534D02*
X365294Y239342D01*
X363802Y240834D01*
X363122Y242475D01*
X362783Y242978D01*
X362275Y243309D01*
X361678Y243415D01*
X361131Y243300D01*
X360465Y243024D01*
X358355Y243024D01*
X356404Y243832D01*
X354912Y245324D01*
X354104Y247275D01*
X354104Y249385D01*
X354912Y251336D01*
X356404Y252828D01*
X358355Y253636D01*
X360465Y253636D01*
X362416Y252828D01*
X363908Y251336D01*
X364588Y249695D01*
X364927Y249192D01*
X365435Y248861D01*
X366032Y248755D01*
X366579Y248870D01*
X367245Y249146D01*
X369355Y249146D01*
X371306Y248338D01*
X372798Y246846D01*
X373606Y244895D01*
X373606Y242785D01*
X372798Y240834D01*
X371306Y239342D01*
X369355Y238534D01*
X367245Y238534D01*
G37*
G36*
X710145Y234724D02*
X708194Y235532D01*
X706702Y237024D01*
X705894Y238975D01*
X705894Y239626D01*
X705773Y240221D01*
X705430Y240721D01*
X704919Y241048D01*
X704370Y241150D01*
X703718Y241150D01*
X701768Y241958D01*
X700276Y243451D01*
X699468Y245401D01*
X699468Y247512D01*
X700276Y249462D01*
X701768Y250954D01*
X703718Y251762D01*
X705829Y251762D01*
X707779Y250954D01*
X709272Y249462D01*
X710080Y247512D01*
X710080Y246860D01*
X710201Y246266D01*
X710544Y245765D01*
X711054Y245438D01*
X711604Y245336D01*
X712255Y245336D01*
X714206Y244528D01*
X715698Y243036D01*
X716506Y241085D01*
X716506Y238975D01*
X715698Y237024D01*
X714206Y235532D01*
X712255Y234724D01*
X710145Y234724D01*
G37*
G36*
X227545Y241074D02*
X225594Y241882D01*
X224102Y243374D01*
X223294Y245325D01*
X223294Y247435D01*
X224102Y249386D01*
X225594Y250878D01*
X227545Y251686D01*
X229655Y251686D01*
X231606Y250878D01*
X233098Y249386D01*
X233906Y247435D01*
X233906Y245325D01*
X233098Y243374D01*
X231606Y241882D01*
X229655Y241074D01*
X227545Y241074D01*
G37*
G36*
X659345Y237264D02*
X657394Y238072D01*
X655902Y239564D01*
X655094Y241515D01*
X655094Y243625D01*
X655902Y245576D01*
X657394Y247068D01*
X659345Y247876D01*
X661455Y247876D01*
X663406Y247068D01*
X664898Y245576D01*
X665706Y243625D01*
X665706Y241515D01*
X664898Y239564D01*
X663406Y238072D01*
X661455Y237264D01*
X659345Y237264D01*
G37*
G36*
X263105Y237264D02*
X261154Y238072D01*
X259662Y239564D01*
X258854Y241515D01*
X258854Y243625D01*
X259662Y245576D01*
X261154Y247068D01*
X263105Y247876D01*
X265215Y247876D01*
X267166Y247068D01*
X268658Y245576D01*
X269466Y243625D01*
X269466Y241515D01*
X268658Y239564D01*
X267166Y238072D01*
X265215Y237264D01*
X263105Y237264D01*
G37*
G36*
X120865Y225834D02*
X118914Y226642D01*
X117422Y228134D01*
X116614Y230085D01*
X116614Y232195D01*
X117422Y234146D01*
X119054Y235777D01*
X119389Y236283D01*
X119500Y236879D01*
X119370Y237472D01*
X119054Y237933D01*
X117422Y239564D01*
X116614Y241515D01*
X116614Y243625D01*
X117422Y245576D01*
X118914Y247068D01*
X120865Y247876D01*
X122975Y247876D01*
X124926Y247068D01*
X126418Y245576D01*
X127226Y243625D01*
X127226Y241515D01*
X126418Y239564D01*
X124786Y237933D01*
X124451Y237427D01*
X124340Y236831D01*
X124470Y236238D01*
X124786Y235777D01*
X126418Y234146D01*
X127226Y232195D01*
X127226Y230085D01*
X126418Y228134D01*
X124926Y226642D01*
X122975Y225834D01*
X120865Y225834D01*
G37*
G36*
X754595Y235994D02*
X752644Y236802D01*
X751152Y238294D01*
X750344Y240245D01*
X750344Y242355D01*
X751152Y244306D01*
X752644Y245798D01*
X754595Y246606D01*
X756705Y246606D01*
X758656Y245798D01*
X760148Y244306D01*
X760956Y242355D01*
X760956Y240245D01*
X760148Y238294D01*
X758656Y236802D01*
X756705Y235994D01*
X754595Y235994D01*
G37*
G36*
X731735Y235994D02*
X729784Y236802D01*
X728292Y238294D01*
X727484Y240245D01*
X727484Y242355D01*
X728292Y244306D01*
X729784Y245798D01*
X731735Y246606D01*
X733845Y246606D01*
X735796Y245798D01*
X737288Y244306D01*
X738096Y242355D01*
X738096Y240245D01*
X737288Y238294D01*
X735796Y236802D01*
X733845Y235994D01*
X731735Y235994D01*
G37*
G36*
X547585Y233454D02*
X545634Y234262D01*
X544142Y235754D01*
X543334Y237705D01*
X543334Y239815D01*
X544142Y241766D01*
X545634Y243258D01*
X547585Y244066D01*
X549695Y244066D01*
X551646Y243258D01*
X553138Y241766D01*
X553946Y239815D01*
X553946Y237705D01*
X553138Y235754D01*
X551646Y234262D01*
X549695Y233454D01*
X547585Y233454D01*
G37*
G36*
X481545Y233454D02*
X479594Y234262D01*
X478102Y235754D01*
X477294Y237705D01*
X477294Y239815D01*
X478102Y241766D01*
X479594Y243258D01*
X481545Y244066D01*
X483655Y244066D01*
X485606Y243258D01*
X487098Y241766D01*
X487542Y240694D01*
X487881Y240191D01*
X488389Y239860D01*
X488986Y239754D01*
X489578Y239889D01*
X490070Y240244D01*
X490358Y240694D01*
X490802Y241766D01*
X492294Y243258D01*
X494245Y244066D01*
X496355Y244066D01*
X498306Y243258D01*
X499798Y241766D01*
X500606Y239815D01*
X500606Y237705D01*
X499798Y235754D01*
X498306Y234262D01*
X496355Y233454D01*
X494245Y233454D01*
X492294Y234262D01*
X490802Y235754D01*
X490358Y236826D01*
X490019Y237329D01*
X489511Y237660D01*
X488914Y237766D01*
X488322Y237631D01*
X487830Y237276D01*
X487542Y236826D01*
X487098Y235754D01*
X485606Y234262D01*
X483655Y233454D01*
X481545Y233454D01*
G37*
G36*
X418045Y228374D02*
X416094Y229182D01*
X414602Y230674D01*
X413794Y232625D01*
X413794Y234735D01*
X414602Y236686D01*
X416094Y238178D01*
X418045Y238986D01*
X420155Y238986D01*
X422106Y238178D01*
X423598Y236686D01*
X424406Y234735D01*
X424406Y232625D01*
X423598Y230674D01*
X422106Y229182D01*
X420155Y228374D01*
X418045Y228374D01*
G37*
G36*
X291045Y220754D02*
X289094Y221562D01*
X287602Y223054D01*
X286794Y225005D01*
X286794Y227115D01*
X287602Y229066D01*
X289094Y230558D01*
X291045Y231366D01*
X293155Y231366D01*
X295106Y230558D01*
X296598Y229066D01*
X297406Y227115D01*
X297406Y225005D01*
X296598Y223054D01*
X295106Y221562D01*
X293155Y220754D01*
X291045Y220754D01*
G37*
G36*
X649185Y216944D02*
X647234Y217752D01*
X645742Y219244D01*
X644934Y221195D01*
X644934Y223305D01*
X645742Y225256D01*
X647234Y226748D01*
X649185Y227556D01*
X651295Y227556D01*
X653246Y226748D01*
X654738Y225256D01*
X655546Y223305D01*
X655546Y221195D01*
X654738Y219244D01*
X653246Y217752D01*
X651295Y216944D01*
X649185Y216944D01*
G37*
G36*
X617435Y211864D02*
X615484Y212672D01*
X613992Y214164D01*
X613184Y216115D01*
X613184Y218225D01*
X613992Y220176D01*
X615484Y221668D01*
X617435Y222476D01*
X619545Y222476D01*
X621496Y221668D01*
X622988Y220176D01*
X623796Y218225D01*
X623796Y216115D01*
X622988Y214164D01*
X621496Y212672D01*
X619545Y211864D01*
X617435Y211864D01*
G37*
G36*
X410425Y206784D02*
X408474Y207592D01*
X406982Y209084D01*
X406174Y211035D01*
X406174Y213145D01*
X406982Y215096D01*
X408474Y216588D01*
X410425Y217396D01*
X412535Y217396D01*
X414486Y216588D01*
X415978Y215096D01*
X416786Y213145D01*
X416786Y211035D01*
X415978Y209084D01*
X414486Y207592D01*
X412535Y206784D01*
X410425Y206784D01*
G37*
G36*
X520915Y159794D02*
X518964Y160602D01*
X517472Y162094D01*
X516664Y164045D01*
X516664Y166155D01*
X517472Y168106D01*
X518469Y169102D01*
X518804Y169608D01*
X518915Y170204D01*
X518785Y170797D01*
X518469Y171258D01*
X517472Y172254D01*
X516664Y174205D01*
X516664Y176315D01*
X517472Y178266D01*
X518469Y179262D01*
X518804Y179768D01*
X518915Y180364D01*
X518785Y180957D01*
X518469Y181418D01*
X517472Y182414D01*
X516664Y184365D01*
X516664Y186475D01*
X517472Y188426D01*
X518964Y189918D01*
X520915Y190726D01*
X523025Y190726D01*
X524976Y189918D01*
X526468Y188426D01*
X527276Y186475D01*
X527276Y184365D01*
X526468Y182414D01*
X525471Y181418D01*
X525136Y180912D01*
X525025Y180316D01*
X525155Y179723D01*
X525471Y179262D01*
X526468Y178266D01*
X527276Y176315D01*
X527276Y174205D01*
X526468Y172254D01*
X525471Y171258D01*
X525136Y170752D01*
X525025Y170156D01*
X525155Y169563D01*
X525471Y169102D01*
X526468Y168106D01*
X527276Y166155D01*
X527276Y164045D01*
X526468Y162094D01*
X524976Y160602D01*
X523025Y159794D01*
X520915Y159794D01*
G37*
G36*
X487895Y180114D02*
X485944Y180922D01*
X484452Y182414D01*
X483644Y184365D01*
X483644Y186475D01*
X484452Y188426D01*
X485944Y189918D01*
X487895Y190726D01*
X490005Y190726D01*
X491956Y189918D01*
X493448Y188426D01*
X494256Y186475D01*
X494256Y184365D01*
X493448Y182414D01*
X491956Y180922D01*
X490005Y180114D01*
X487895Y180114D01*
G37*
G36*
X241515Y159794D02*
X239564Y160602D01*
X238072Y162094D01*
X237264Y164045D01*
X237264Y166155D01*
X238072Y168106D01*
X239069Y169102D01*
X239404Y169608D01*
X239515Y170204D01*
X239385Y170797D01*
X239069Y171258D01*
X238072Y172254D01*
X237264Y174205D01*
X237264Y176315D01*
X238072Y178266D01*
X239069Y179262D01*
X239404Y179768D01*
X239515Y180364D01*
X239385Y180957D01*
X239069Y181418D01*
X238072Y182414D01*
X237264Y184365D01*
X237264Y186475D01*
X238072Y188426D01*
X239564Y189918D01*
X241515Y190726D01*
X243625Y190726D01*
X245576Y189918D01*
X247068Y188426D01*
X247876Y186475D01*
X247876Y184365D01*
X247068Y182414D01*
X246071Y181418D01*
X245736Y180912D01*
X245625Y180316D01*
X245755Y179723D01*
X246071Y179262D01*
X247068Y178266D01*
X247876Y176315D01*
X247876Y174205D01*
X247068Y172254D01*
X246071Y171258D01*
X245736Y170752D01*
X245625Y170156D01*
X245755Y169563D01*
X246071Y169102D01*
X247068Y168106D01*
X247876Y166155D01*
X247876Y164045D01*
X247068Y162094D01*
X245576Y160602D01*
X243625Y159794D01*
X241515Y159794D01*
G37*
G36*
X176745Y149634D02*
X174794Y150442D01*
X173302Y151934D01*
X172494Y153885D01*
X172494Y155995D01*
X173302Y157946D01*
X174299Y158942D01*
X174634Y159448D01*
X174745Y160044D01*
X174615Y160637D01*
X174299Y161098D01*
X173302Y162094D01*
X172494Y164045D01*
X172494Y166155D01*
X173302Y168106D01*
X174299Y169102D01*
X174634Y169608D01*
X174745Y170204D01*
X174615Y170797D01*
X174299Y171258D01*
X173302Y172254D01*
X172494Y174205D01*
X172494Y176315D01*
X173302Y178266D01*
X174299Y179262D01*
X174634Y179768D01*
X174745Y180364D01*
X174615Y180957D01*
X174299Y181418D01*
X173302Y182414D01*
X172494Y184365D01*
X172494Y186475D01*
X173302Y188426D01*
X174794Y189918D01*
X176745Y190726D01*
X178855Y190726D01*
X180806Y189918D01*
X182298Y188426D01*
X183106Y186475D01*
X183106Y184365D01*
X182298Y182414D01*
X181301Y181418D01*
X180966Y180912D01*
X180855Y180316D01*
X180985Y179723D01*
X181301Y179262D01*
X182298Y178266D01*
X183106Y176315D01*
X183106Y174205D01*
X182298Y172254D01*
X181301Y171258D01*
X180966Y170752D01*
X180855Y170156D01*
X180985Y169563D01*
X181301Y169102D01*
X182298Y168106D01*
X183106Y166155D01*
X183106Y164045D01*
X182298Y162094D01*
X181301Y161098D01*
X180966Y160592D01*
X180855Y159996D01*
X180985Y159403D01*
X181301Y158942D01*
X182298Y157946D01*
X183106Y155995D01*
X183106Y153885D01*
X182298Y151934D01*
X180806Y150442D01*
X178855Y149634D01*
X176745Y149634D01*
G37*
G36*
X208495Y169954D02*
X206544Y170762D01*
X205052Y172254D01*
X204244Y174205D01*
X204244Y176315D01*
X205052Y178266D01*
X205513Y178726D01*
X205848Y179232D01*
X205959Y179828D01*
X205829Y180421D01*
X205513Y180882D01*
X205052Y181342D01*
X204244Y183293D01*
X204244Y185403D01*
X205052Y187354D01*
X206544Y188846D01*
X208495Y189654D01*
X210605Y189654D01*
X212556Y188846D01*
X214048Y187354D01*
X214856Y185403D01*
X214856Y183293D01*
X214048Y181342D01*
X213587Y180882D01*
X213252Y180376D01*
X213141Y179780D01*
X213271Y179187D01*
X213587Y178726D01*
X214048Y178266D01*
X214856Y176315D01*
X214856Y174205D01*
X214048Y172254D01*
X212556Y170762D01*
X210605Y169954D01*
X208495Y169954D01*
G37*
G36*
X649185Y175034D02*
X647234Y175842D01*
X645742Y177334D01*
X644934Y179285D01*
X644934Y181395D01*
X645742Y183346D01*
X647234Y184838D01*
X649185Y185646D01*
X651295Y185646D01*
X653246Y184838D01*
X654738Y183346D01*
X655546Y181395D01*
X655546Y179285D01*
X654738Y177334D01*
X653246Y175842D01*
X651295Y175034D01*
X649185Y175034D01*
G37*
G36*
X570445Y172494D02*
X568494Y173302D01*
X567002Y174794D01*
X566194Y176745D01*
X566194Y178855D01*
X567002Y180806D01*
X568494Y182298D01*
X570445Y183106D01*
X572555Y183106D01*
X574506Y182298D01*
X575998Y180806D01*
X576806Y178855D01*
X576806Y176745D01*
X575998Y174794D01*
X574506Y173302D01*
X572555Y172494D01*
X570445Y172494D01*
G37*
G36*
X743165Y149634D02*
X741214Y150442D01*
X739722Y151934D01*
X738914Y153885D01*
X738914Y155995D01*
X739722Y157946D01*
X740719Y158942D01*
X741054Y159448D01*
X741165Y160044D01*
X741035Y160637D01*
X740719Y161098D01*
X739722Y162094D01*
X738914Y164045D01*
X738914Y166155D01*
X739722Y168106D01*
X740719Y169102D01*
X741054Y169608D01*
X741165Y170204D01*
X741035Y170797D01*
X740719Y171258D01*
X739722Y172254D01*
X738914Y174205D01*
X738914Y176315D01*
X739722Y178266D01*
X741214Y179758D01*
X743165Y180566D01*
X745275Y180566D01*
X747226Y179758D01*
X748718Y178266D01*
X749526Y176315D01*
X749526Y174205D01*
X748718Y172254D01*
X747721Y171258D01*
X747386Y170752D01*
X747275Y170156D01*
X747405Y169563D01*
X747721Y169102D01*
X748718Y168106D01*
X749526Y166155D01*
X749526Y164045D01*
X748718Y162094D01*
X747721Y161098D01*
X747386Y160592D01*
X747275Y159996D01*
X747405Y159403D01*
X747721Y158942D01*
X748718Y157946D01*
X749526Y155995D01*
X749526Y153885D01*
X748718Y151934D01*
X747226Y150442D01*
X745275Y149634D01*
X743165Y149634D01*
G37*
G36*
X456145Y149634D02*
X454194Y150442D01*
X452702Y151934D01*
X451894Y153885D01*
X451894Y155995D01*
X452702Y157946D01*
X453699Y158942D01*
X454034Y159448D01*
X454145Y160044D01*
X454015Y160637D01*
X453699Y161098D01*
X452702Y162094D01*
X451894Y164045D01*
X451894Y166155D01*
X452702Y168106D01*
X453699Y169102D01*
X454034Y169608D01*
X454145Y170204D01*
X454015Y170797D01*
X453699Y171258D01*
X452702Y172254D01*
X451894Y174205D01*
X451894Y176315D01*
X452702Y178266D01*
X454194Y179758D01*
X456145Y180566D01*
X458255Y180566D01*
X460206Y179758D01*
X461698Y178266D01*
X462506Y176315D01*
X462506Y174205D01*
X461698Y172254D01*
X460701Y171258D01*
X460366Y170752D01*
X460255Y170156D01*
X460385Y169563D01*
X460701Y169102D01*
X461698Y168106D01*
X462506Y166155D01*
X462506Y164045D01*
X461698Y162094D01*
X460701Y161098D01*
X460366Y160592D01*
X460255Y159996D01*
X460385Y159403D01*
X460701Y158942D01*
X461698Y157946D01*
X462506Y155995D01*
X462506Y153885D01*
X461698Y151934D01*
X460206Y150442D01*
X458255Y149634D01*
X456145Y149634D01*
G37*
G36*
X806665Y119154D02*
X804714Y119962D01*
X803222Y121454D01*
X802414Y123405D01*
X802414Y125515D01*
X803222Y127466D01*
X804714Y128958D01*
X806665Y129766D01*
X808775Y129766D01*
X810726Y128958D01*
X812218Y127466D01*
X813026Y125515D01*
X813026Y123405D01*
X812218Y121454D01*
X810726Y119962D01*
X808775Y119154D01*
X806665Y119154D01*
G37*
G36*
X880325Y114074D02*
X878374Y114882D01*
X876882Y116374D01*
X876074Y118325D01*
X876074Y120435D01*
X876882Y122386D01*
X878374Y123878D01*
X880325Y124686D01*
X882435Y124686D01*
X884386Y123878D01*
X885878Y122386D01*
X886686Y120435D01*
X886686Y118325D01*
X885878Y116374D01*
X884386Y114882D01*
X882435Y114074D01*
X880325Y114074D01*
G37*
G36*
X793965Y108994D02*
X792014Y109802D01*
X790522Y111294D01*
X789714Y113245D01*
X789714Y115355D01*
X790522Y117306D01*
X792014Y118798D01*
X793965Y119606D01*
X796075Y119606D01*
X798026Y118798D01*
X799518Y117306D01*
X800326Y115355D01*
X800326Y113245D01*
X799518Y111294D01*
X798026Y109802D01*
X796075Y108994D01*
X793965Y108994D01*
G37*
%LPD*%
G36*
X433052Y469960D02*
X433293Y470123D01*
X449099Y485929D01*
X449267Y486182D01*
X449322Y486480D01*
X449257Y486776D01*
X449099Y487007D01*
X448084Y488022D01*
X448084Y492418D01*
X451192Y495526D01*
X455588Y495526D01*
X456603Y494511D01*
X456856Y494343D01*
X457154Y494288D01*
X457450Y494353D01*
X457681Y494511D01*
X558577Y595407D01*
X558744Y595660D01*
X558800Y595946D01*
X558800Y634684D01*
X558740Y634982D01*
X558577Y635223D01*
X454883Y738917D01*
X454630Y739084D01*
X454344Y739140D01*
X411796Y739140D01*
X411498Y739080D01*
X411257Y738917D01*
X379774Y707434D01*
X379747Y707415D01*
X379642Y707390D01*
X341692Y707390D01*
X341660Y707395D01*
X341568Y707452D01*
X330423Y718597D01*
X330170Y718764D01*
X329884Y718820D01*
X300036Y718820D01*
X299738Y718760D01*
X299497Y718597D01*
X254223Y673323D01*
X254056Y673070D01*
X254000Y672784D01*
X254000Y655773D01*
X254060Y655476D01*
X254232Y655226D01*
X254487Y655063D01*
X254786Y655012D01*
X255081Y655082D01*
X255301Y655235D01*
X256882Y656816D01*
X261278Y656816D01*
X264386Y653708D01*
X264386Y649312D01*
X261278Y646204D01*
X256882Y646204D01*
X255301Y647785D01*
X255048Y647953D01*
X254750Y648008D01*
X254454Y647943D01*
X254206Y647768D01*
X254047Y647510D01*
X254000Y647247D01*
X254000Y546416D01*
X254060Y546118D01*
X254223Y545877D01*
X329977Y470123D01*
X330230Y469956D01*
X330516Y469900D01*
X432754Y469900D01*
X433052Y469960D01*
G37*
%LPC*%
G36*
X456272Y689384D02*
X453164Y692492D01*
X453164Y696888D01*
X456272Y699996D01*
X459061Y699996D01*
X459358Y700056D01*
X459608Y700228D01*
X459771Y700483D01*
X459822Y700782D01*
X459752Y701077D01*
X459599Y701297D01*
X459514Y701382D01*
X459514Y705778D01*
X462622Y708886D01*
X467018Y708886D01*
X470126Y705778D01*
X470126Y701382D01*
X467018Y698274D01*
X464229Y698274D01*
X463932Y698214D01*
X463682Y698042D01*
X463519Y697787D01*
X463468Y697488D01*
X463538Y697193D01*
X463691Y696973D01*
X463776Y696888D01*
X463776Y692492D01*
X460668Y689384D01*
X456272Y689384D01*
G37*
G36*
X306412Y697004D02*
X303304Y700112D01*
X303304Y704508D01*
X306412Y707616D01*
X310808Y707616D01*
X313916Y704508D01*
X313916Y700112D01*
X310808Y697004D01*
X306412Y697004D01*
G37*
G36*
X410552Y681764D02*
X407444Y684872D01*
X407444Y689268D01*
X409589Y691413D01*
X409757Y691666D01*
X409812Y691964D01*
X409747Y692260D01*
X409589Y692491D01*
X408120Y693960D01*
X408120Y698356D01*
X411228Y701464D01*
X415624Y701464D01*
X417530Y699558D01*
X417783Y699390D01*
X418081Y699335D01*
X418377Y699400D01*
X418608Y699558D01*
X420316Y701266D01*
X424712Y701266D01*
X426519Y699459D01*
X426772Y699291D01*
X427070Y699236D01*
X427366Y699301D01*
X427597Y699459D01*
X429404Y701266D01*
X433800Y701266D01*
X435607Y699459D01*
X435860Y699291D01*
X436158Y699236D01*
X436454Y699301D01*
X436685Y699459D01*
X438492Y701266D01*
X442888Y701266D01*
X445996Y698158D01*
X445996Y693762D01*
X442888Y690654D01*
X438492Y690654D01*
X436685Y692461D01*
X436432Y692629D01*
X436134Y692684D01*
X435838Y692619D01*
X435607Y692461D01*
X433800Y690654D01*
X429404Y690654D01*
X427597Y692461D01*
X427344Y692629D01*
X427046Y692684D01*
X426750Y692619D01*
X426519Y692461D01*
X424712Y690654D01*
X420316Y690654D01*
X418410Y692560D01*
X418157Y692728D01*
X417859Y692783D01*
X417563Y692718D01*
X417332Y692560D01*
X416587Y691815D01*
X416419Y691562D01*
X416364Y691264D01*
X416429Y690968D01*
X416587Y690737D01*
X418056Y689268D01*
X418056Y684872D01*
X414948Y681764D01*
X410552Y681764D01*
G37*
G36*
X288632Y679224D02*
X285524Y682332D01*
X285524Y686728D01*
X288632Y689836D01*
X293028Y689836D01*
X296136Y686728D01*
X296136Y682332D01*
X293028Y679224D01*
X288632Y679224D01*
G37*
G36*
X480402Y634774D02*
X477294Y637882D01*
X477294Y642278D01*
X479101Y644085D01*
X479269Y644338D01*
X479324Y644636D01*
X479259Y644932D01*
X479101Y645163D01*
X476222Y648042D01*
X476222Y652438D01*
X479330Y655546D01*
X483726Y655546D01*
X486834Y652438D01*
X486834Y648042D01*
X485027Y646235D01*
X484859Y645982D01*
X484804Y645684D01*
X484869Y645388D01*
X485027Y645157D01*
X487906Y642278D01*
X487906Y637882D01*
X484798Y634774D01*
X480402Y634774D01*
G37*
G36*
X372452Y556034D02*
X369344Y559142D01*
X369344Y563538D01*
X372141Y566335D01*
X372308Y566587D01*
X372364Y566873D01*
X372364Y610877D01*
X372304Y611175D01*
X372141Y611416D01*
X360436Y623121D01*
X360183Y623288D01*
X359897Y623344D01*
X355942Y623344D01*
X352834Y626452D01*
X352834Y630848D01*
X355942Y633956D01*
X360509Y633956D01*
X360806Y634016D01*
X361056Y634188D01*
X361219Y634443D01*
X361270Y634742D01*
X361200Y635037D01*
X361047Y635257D01*
X360708Y635596D01*
X360708Y639992D01*
X363816Y643100D01*
X368212Y643100D01*
X371320Y639992D01*
X371320Y635596D01*
X368212Y632488D01*
X363645Y632488D01*
X363348Y632428D01*
X363098Y632256D01*
X362935Y632001D01*
X362884Y631702D01*
X362954Y631407D01*
X363107Y631187D01*
X363135Y631159D01*
X363387Y630992D01*
X363673Y630936D01*
X398787Y630936D01*
X399085Y630996D01*
X399326Y631159D01*
X413571Y645404D01*
X413738Y645657D01*
X413794Y645943D01*
X413794Y649898D01*
X416902Y653006D01*
X421298Y653006D01*
X424406Y649898D01*
X424406Y645502D01*
X421298Y642394D01*
X417343Y642394D01*
X417045Y642334D01*
X416804Y642171D01*
X400997Y626364D01*
X365499Y626364D01*
X365201Y626304D01*
X364951Y626132D01*
X364788Y625877D01*
X364737Y625578D01*
X364807Y625283D01*
X364960Y625063D01*
X376936Y613087D01*
X376936Y566873D01*
X376996Y566576D01*
X377159Y566335D01*
X379956Y563538D01*
X379956Y559142D01*
X376848Y556034D01*
X372452Y556034D01*
G37*
G36*
X425792Y632742D02*
X422684Y635850D01*
X422684Y640246D01*
X425792Y643354D01*
X430188Y643354D01*
X433296Y640246D01*
X433296Y635850D01*
X430188Y632742D01*
X425792Y632742D01*
G37*
G36*
X503262Y611914D02*
X500154Y615022D01*
X500154Y618772D01*
X500094Y619069D01*
X499922Y619319D01*
X499667Y619483D01*
X499392Y619534D01*
X495642Y619534D01*
X492534Y622642D01*
X492534Y627038D01*
X495642Y630146D01*
X500038Y630146D01*
X503146Y627038D01*
X503146Y623288D01*
X503206Y622991D01*
X503378Y622741D01*
X503633Y622577D01*
X503908Y622526D01*
X507658Y622526D01*
X510766Y619418D01*
X510766Y615022D01*
X507658Y611914D01*
X503262Y611914D01*
G37*
G36*
X444842Y609223D02*
X441734Y612331D01*
X441734Y615086D01*
X441674Y615383D01*
X441502Y615633D01*
X441247Y615796D01*
X440972Y615848D01*
X438614Y615848D01*
X435506Y618956D01*
X435506Y623351D01*
X438614Y626460D01*
X443010Y626460D01*
X446118Y623351D01*
X446118Y620597D01*
X446178Y620300D01*
X446350Y620050D01*
X446605Y619886D01*
X446880Y619835D01*
X449238Y619835D01*
X452346Y616727D01*
X452346Y612331D01*
X449238Y609223D01*
X444842Y609223D01*
G37*
G36*
X427062Y609374D02*
X423954Y612482D01*
X423954Y614962D01*
X423894Y615259D01*
X423722Y615509D01*
X423467Y615673D01*
X423192Y615724D01*
X419442Y615724D01*
X416334Y618832D01*
X416334Y623228D01*
X419442Y626336D01*
X423838Y626336D01*
X426946Y623228D01*
X426946Y620748D01*
X427006Y620451D01*
X427178Y620201D01*
X427433Y620037D01*
X427708Y619986D01*
X431458Y619986D01*
X434566Y616878D01*
X434566Y612482D01*
X431458Y609374D01*
X427062Y609374D01*
G37*
G36*
X302602Y611914D02*
X299494Y615022D01*
X299494Y619418D01*
X302602Y622526D01*
X306998Y622526D01*
X310106Y619418D01*
X310106Y615022D01*
X306998Y611914D01*
X302602Y611914D01*
G37*
G36*
X264502Y604294D02*
X261394Y607402D01*
X261394Y611798D01*
X264502Y614906D01*
X268898Y614906D01*
X272006Y611798D01*
X272006Y607402D01*
X268898Y604294D01*
X264502Y604294D01*
G37*
G36*
X335876Y603786D02*
X332768Y606894D01*
X332768Y611290D01*
X335876Y614398D01*
X340272Y614398D01*
X343380Y611290D01*
X343380Y606894D01*
X340272Y603786D01*
X335876Y603786D01*
G37*
G36*
X518502Y591594D02*
X515394Y594702D01*
X515394Y599098D01*
X518502Y602206D01*
X522898Y602206D01*
X526006Y599098D01*
X526006Y594702D01*
X522898Y591594D01*
X518502Y591594D01*
G37*
G36*
X264502Y587784D02*
X261394Y590892D01*
X261394Y595288D01*
X264502Y598396D01*
X268898Y598396D01*
X272006Y595288D01*
X272006Y590892D01*
X268898Y587784D01*
X264502Y587784D01*
G37*
G36*
X482942Y581434D02*
X479834Y584542D01*
X479834Y588938D01*
X482942Y592046D01*
X487338Y592046D01*
X490446Y588938D01*
X490446Y584542D01*
X487338Y581434D01*
X482942Y581434D01*
G37*
G36*
X455002Y576354D02*
X451894Y579462D01*
X451894Y583858D01*
X455002Y586966D01*
X459398Y586966D01*
X462506Y583858D01*
X462506Y579462D01*
X459398Y576354D01*
X455002Y576354D01*
G37*
G36*
X335622Y574068D02*
X332514Y577176D01*
X332514Y581572D01*
X335622Y584680D01*
X340018Y584680D01*
X343126Y581572D01*
X343126Y577176D01*
X340018Y574068D01*
X335622Y574068D01*
G37*
G36*
X359752Y552224D02*
X356644Y555332D01*
X356644Y559728D01*
X359752Y562836D01*
X364148Y562836D01*
X367256Y559728D01*
X367256Y555332D01*
X364148Y552224D01*
X359752Y552224D01*
G37*
G36*
X482942Y549684D02*
X479834Y552792D01*
X479834Y557188D01*
X482942Y560296D01*
X487338Y560296D01*
X490446Y557188D01*
X490446Y552792D01*
X487338Y549684D01*
X482942Y549684D01*
G37*
G36*
X432142Y549684D02*
X429034Y552792D01*
X429034Y557188D01*
X432142Y560296D01*
X436538Y560296D01*
X439646Y557188D01*
X439646Y552792D01*
X436538Y549684D01*
X432142Y549684D01*
G37*
G36*
X367372Y542064D02*
X364264Y545172D01*
X364264Y549568D01*
X367372Y552676D01*
X371768Y552676D01*
X374876Y549568D01*
X374876Y545172D01*
X371768Y542064D01*
X367372Y542064D01*
G37*
G36*
X411822Y528094D02*
X408714Y531202D01*
X408714Y535598D01*
X411822Y538706D01*
X416218Y538706D01*
X419326Y535598D01*
X419326Y531202D01*
X416218Y528094D01*
X411822Y528094D01*
G37*
G36*
X391502Y517934D02*
X388394Y521042D01*
X388394Y525438D01*
X391502Y528546D01*
X395898Y528546D01*
X399006Y525438D01*
X399006Y521042D01*
X395898Y517934D01*
X391502Y517934D01*
G37*
G36*
X411822Y492534D02*
X408714Y495642D01*
X408714Y500038D01*
X411822Y503146D01*
X416218Y503146D01*
X419326Y500038D01*
X419326Y495642D01*
X416218Y492534D01*
X411822Y492534D01*
G37*
G36*
X333082Y483644D02*
X329974Y486752D01*
X329974Y491148D01*
X333082Y494256D01*
X337478Y494256D01*
X340586Y491148D01*
X340586Y486752D01*
X337478Y483644D01*
X333082Y483644D01*
G37*
G36*
X396582Y477294D02*
X393474Y480402D01*
X393474Y484798D01*
X396582Y487906D01*
X400978Y487906D01*
X404086Y484798D01*
X404086Y480402D01*
X400978Y477294D01*
X396582Y477294D01*
G37*
%LPD*%
G36*
X380982Y749360D02*
X381223Y749523D01*
X444456Y812756D01*
X444483Y812775D01*
X444588Y812800D01*
X482284Y812800D01*
X482582Y812860D01*
X482823Y813023D01*
X520477Y850677D01*
X520644Y850930D01*
X520700Y851216D01*
X520700Y906581D01*
X520640Y906878D01*
X520477Y907119D01*
X520474Y907122D01*
X520474Y911518D01*
X520477Y911521D01*
X520644Y911773D01*
X520700Y912059D01*
X520700Y926784D01*
X520640Y927082D01*
X520477Y927323D01*
X470123Y977677D01*
X469870Y977844D01*
X469584Y977900D01*
X254316Y977900D01*
X254018Y977840D01*
X253777Y977677D01*
X228823Y952723D01*
X228656Y952470D01*
X228600Y952184D01*
X228600Y775016D01*
X228660Y774718D01*
X228823Y774477D01*
X241454Y761846D01*
X241707Y761678D01*
X242005Y761623D01*
X242301Y761688D01*
X242532Y761846D01*
X244182Y763496D01*
X248578Y763496D01*
X251686Y760388D01*
X251686Y755992D01*
X250036Y754342D01*
X249868Y754089D01*
X249813Y753791D01*
X249878Y753495D01*
X250036Y753264D01*
X253777Y749523D01*
X254030Y749356D01*
X254316Y749300D01*
X380684Y749300D01*
X380982Y749360D01*
G37*
%LPC*%
G36*
X410552Y958624D02*
X407444Y961732D01*
X407444Y966128D01*
X410552Y969236D01*
X414948Y969236D01*
X418056Y966128D01*
X418056Y961732D01*
X414948Y958624D01*
X410552Y958624D01*
G37*
G36*
X278472Y948464D02*
X275364Y951572D01*
X275364Y955968D01*
X278472Y959076D01*
X282868Y959076D01*
X285976Y955968D01*
X285976Y951572D01*
X282868Y948464D01*
X278472Y948464D01*
G37*
G36*
X376262Y944654D02*
X373154Y947762D01*
X373154Y952158D01*
X376262Y955266D01*
X380658Y955266D01*
X383766Y952158D01*
X383766Y947762D01*
X380658Y944654D01*
X376262Y944654D01*
G37*
G36*
X401662Y935764D02*
X398554Y938872D01*
X398554Y943268D01*
X401662Y946376D01*
X406058Y946376D01*
X409166Y943268D01*
X409166Y938872D01*
X406058Y935764D01*
X401662Y935764D01*
G37*
G36*
X350862Y935764D02*
X347754Y938872D01*
X347754Y943268D01*
X350862Y946376D01*
X355258Y946376D01*
X358366Y943268D01*
X358366Y938872D01*
X355258Y935764D01*
X350862Y935764D01*
G37*
G36*
X245452Y929414D02*
X242344Y932522D01*
X242344Y936918D01*
X245452Y940026D01*
X249848Y940026D01*
X252956Y936918D01*
X252956Y932522D01*
X249848Y929414D01*
X245452Y929414D01*
G37*
G36*
X474052Y916714D02*
X470944Y919822D01*
X470944Y924218D01*
X473287Y926561D01*
X473455Y926814D01*
X473510Y927112D01*
X473445Y927408D01*
X473287Y927639D01*
X470944Y929982D01*
X470944Y934378D01*
X474052Y937486D01*
X478448Y937486D01*
X481556Y934378D01*
X481556Y929982D01*
X479213Y927639D01*
X479045Y927386D01*
X478990Y927088D01*
X479055Y926792D01*
X479213Y926561D01*
X481556Y924218D01*
X481556Y919822D01*
X478448Y916714D01*
X474052Y916714D01*
G37*
G36*
X410552Y917984D02*
X407444Y921092D01*
X407444Y925488D01*
X410552Y928596D01*
X414948Y928596D01*
X418056Y925488D01*
X418056Y921092D01*
X414948Y917984D01*
X410552Y917984D01*
G37*
G36*
X386422Y900204D02*
X383314Y903312D01*
X383314Y907708D01*
X386422Y910816D01*
X390818Y910816D01*
X393926Y907708D01*
X393926Y903312D01*
X390818Y900204D01*
X386422Y900204D01*
G37*
G36*
X427062Y878614D02*
X423954Y881722D01*
X423954Y886118D01*
X426297Y888461D01*
X426465Y888714D01*
X426520Y889012D01*
X426455Y889308D01*
X426297Y889539D01*
X424719Y891117D01*
X424466Y891285D01*
X424168Y891340D01*
X423872Y891275D01*
X423641Y891117D01*
X421298Y888774D01*
X416902Y888774D01*
X413794Y891882D01*
X413794Y896278D01*
X416137Y898621D01*
X416305Y898874D01*
X416360Y899172D01*
X416295Y899468D01*
X416137Y899699D01*
X415547Y900289D01*
X415294Y900457D01*
X414996Y900512D01*
X414700Y900447D01*
X414452Y900272D01*
X414293Y900014D01*
X414246Y899751D01*
X414246Y899502D01*
X411138Y896394D01*
X406742Y896394D01*
X403634Y899502D01*
X403634Y903898D01*
X406742Y907006D01*
X411138Y907006D01*
X412493Y905651D01*
X412746Y905483D01*
X413044Y905428D01*
X413340Y905493D01*
X413588Y905668D01*
X413747Y905926D01*
X413794Y906189D01*
X413794Y906438D01*
X416902Y909546D01*
X421298Y909546D01*
X424406Y906438D01*
X424406Y902042D01*
X422063Y899699D01*
X421895Y899446D01*
X421840Y899148D01*
X421905Y898852D01*
X422063Y898621D01*
X423641Y897043D01*
X423894Y896875D01*
X424192Y896820D01*
X424488Y896885D01*
X424719Y897043D01*
X427062Y899386D01*
X431458Y899386D01*
X434566Y896278D01*
X434566Y891882D01*
X432223Y889539D01*
X432055Y889286D01*
X432000Y888988D01*
X432065Y888692D01*
X432223Y888461D01*
X434566Y886118D01*
X434566Y881722D01*
X431458Y878614D01*
X427062Y878614D01*
G37*
G36*
X330542Y876074D02*
X327434Y879182D01*
X327434Y883578D01*
X329777Y885921D01*
X329945Y886174D01*
X330000Y886472D01*
X329935Y886768D01*
X329777Y886999D01*
X327434Y889342D01*
X327434Y893738D01*
X330542Y896846D01*
X334938Y896846D01*
X337281Y894503D01*
X337534Y894335D01*
X337832Y894280D01*
X338128Y894345D01*
X338359Y894503D01*
X339937Y896081D01*
X340105Y896334D01*
X340160Y896632D01*
X340095Y896928D01*
X339937Y897159D01*
X337594Y899502D01*
X337594Y903898D01*
X340702Y907006D01*
X345098Y907006D01*
X347441Y904663D01*
X347694Y904495D01*
X347992Y904440D01*
X348288Y904505D01*
X348519Y904663D01*
X350862Y907006D01*
X355258Y907006D01*
X357883Y904381D01*
X358136Y904213D01*
X358434Y904158D01*
X358730Y904223D01*
X358978Y904398D01*
X359137Y904656D01*
X359184Y904919D01*
X359184Y906438D01*
X362292Y909546D01*
X366688Y909546D01*
X369796Y906438D01*
X369796Y902042D01*
X366688Y898934D01*
X362292Y898934D01*
X359667Y901559D01*
X359414Y901727D01*
X359116Y901782D01*
X358820Y901717D01*
X358572Y901542D01*
X358413Y901284D01*
X358366Y901021D01*
X358366Y899502D01*
X355258Y896394D01*
X350862Y896394D01*
X348519Y898737D01*
X348266Y898905D01*
X347968Y898960D01*
X347672Y898895D01*
X347441Y898737D01*
X345863Y897159D01*
X345695Y896906D01*
X345640Y896608D01*
X345705Y896312D01*
X345863Y896081D01*
X348206Y893738D01*
X348206Y889342D01*
X345098Y886234D01*
X340702Y886234D01*
X338359Y888577D01*
X338106Y888745D01*
X337808Y888800D01*
X337512Y888735D01*
X337281Y888577D01*
X335703Y886999D01*
X335535Y886746D01*
X335480Y886448D01*
X335545Y886152D01*
X335703Y885921D01*
X338046Y883578D01*
X338046Y879182D01*
X334938Y876074D01*
X330542Y876074D01*
G37*
G36*
X235292Y877344D02*
X232184Y880452D01*
X232184Y884848D01*
X235292Y887956D01*
X239688Y887956D01*
X242796Y884848D01*
X242796Y880452D01*
X239688Y877344D01*
X235292Y877344D01*
G37*
G36*
X264502Y873534D02*
X261394Y876642D01*
X261394Y881038D01*
X264502Y884146D01*
X268898Y884146D01*
X272006Y881038D01*
X272006Y876642D01*
X268898Y873534D01*
X264502Y873534D01*
G37*
G36*
X376262Y868454D02*
X373154Y871562D01*
X373154Y875958D01*
X376262Y879066D01*
X380658Y879066D01*
X383766Y875958D01*
X383766Y871562D01*
X380658Y868454D01*
X376262Y868454D01*
G37*
G36*
X326732Y860834D02*
X323624Y863942D01*
X323624Y868338D01*
X326732Y871446D01*
X331128Y871446D01*
X334236Y868338D01*
X334236Y863942D01*
X331128Y860834D01*
X326732Y860834D01*
G37*
G36*
X424522Y848134D02*
X421414Y851242D01*
X421414Y855638D01*
X424522Y858746D01*
X427311Y858746D01*
X427608Y858806D01*
X427858Y858978D01*
X428021Y859233D01*
X428072Y859532D01*
X428002Y859827D01*
X427849Y860047D01*
X425224Y862672D01*
X425224Y867068D01*
X428332Y870176D01*
X432728Y870176D01*
X435836Y867068D01*
X435836Y862672D01*
X432728Y859564D01*
X429939Y859564D01*
X429642Y859504D01*
X429392Y859332D01*
X429229Y859077D01*
X429178Y858778D01*
X429248Y858483D01*
X429401Y858263D01*
X432026Y855638D01*
X432026Y851242D01*
X428918Y848134D01*
X424522Y848134D01*
G37*
G36*
X396582Y848134D02*
X393474Y851242D01*
X393474Y855638D01*
X396582Y858746D01*
X400978Y858746D01*
X404086Y855638D01*
X404086Y851242D01*
X400978Y848134D01*
X396582Y848134D01*
G37*
G36*
X376262Y848134D02*
X373154Y851242D01*
X373154Y855638D01*
X376262Y858746D01*
X380658Y858746D01*
X383766Y855638D01*
X383766Y851242D01*
X380658Y848134D01*
X376262Y848134D01*
G37*
G36*
X355942Y848134D02*
X352834Y851242D01*
X352834Y855638D01*
X355942Y858746D01*
X360338Y858746D01*
X363446Y855638D01*
X363446Y851242D01*
X360338Y848134D01*
X355942Y848134D01*
G37*
G36*
X317842Y845594D02*
X314734Y848702D01*
X314734Y853098D01*
X317842Y856206D01*
X322238Y856206D01*
X325346Y853098D01*
X325346Y848702D01*
X322238Y845594D01*
X317842Y845594D01*
G37*
G36*
X447382Y829084D02*
X444274Y832192D01*
X444274Y834981D01*
X444214Y835278D01*
X444042Y835528D01*
X443787Y835691D01*
X443488Y835742D01*
X443193Y835672D01*
X442973Y835519D01*
X441618Y834164D01*
X437222Y834164D01*
X434114Y837272D01*
X434114Y841668D01*
X437222Y844776D01*
X441618Y844776D01*
X444726Y841668D01*
X444726Y838879D01*
X444786Y838582D01*
X444958Y838332D01*
X445213Y838169D01*
X445512Y838118D01*
X445807Y838188D01*
X446027Y838341D01*
X447382Y839696D01*
X451778Y839696D01*
X454886Y836588D01*
X454886Y832192D01*
X451778Y829084D01*
X447382Y829084D01*
G37*
G36*
X482942Y832894D02*
X479834Y836002D01*
X479834Y840398D01*
X482942Y843506D01*
X487338Y843506D01*
X490446Y840398D01*
X490446Y836002D01*
X487338Y832894D01*
X482942Y832894D01*
G37*
G36*
X303644Y819686D02*
X301507Y820571D01*
X299900Y822178D01*
X299647Y822346D01*
X299349Y822401D01*
X299052Y822336D01*
X298822Y822178D01*
X296838Y820194D01*
X292442Y820194D01*
X289334Y823302D01*
X289334Y827698D01*
X292442Y830806D01*
X296838Y830806D01*
X298822Y828822D01*
X299075Y828654D01*
X299373Y828599D01*
X299669Y828664D01*
X299900Y828822D01*
X301478Y830400D01*
X301646Y830653D01*
X301701Y830951D01*
X301636Y831248D01*
X301478Y831478D01*
X299494Y833462D01*
X299494Y837858D01*
X302602Y840966D01*
X306998Y840966D01*
X310106Y837858D01*
X310106Y833462D01*
X308122Y831478D01*
X307954Y831225D01*
X307899Y830927D01*
X307964Y830631D01*
X308122Y830400D01*
X309729Y828793D01*
X310614Y826657D01*
X310614Y824344D01*
X309729Y822207D01*
X308093Y820571D01*
X305957Y819686D01*
X303644Y819686D01*
G37*
G36*
X376262Y827814D02*
X373154Y830922D01*
X373154Y835318D01*
X376262Y838426D01*
X380658Y838426D01*
X383766Y835318D01*
X383766Y830922D01*
X380658Y827814D01*
X376262Y827814D01*
G37*
G36*
X264502Y822734D02*
X261394Y825842D01*
X261394Y830238D01*
X264502Y833346D01*
X268898Y833346D01*
X272006Y830238D01*
X272006Y825842D01*
X268898Y822734D01*
X264502Y822734D01*
G37*
G36*
X413366Y808764D02*
X410258Y811872D01*
X410258Y816268D01*
X413366Y819376D01*
X417762Y819376D01*
X420870Y816268D01*
X420870Y811872D01*
X417762Y808764D01*
X413366Y808764D01*
G37*
G36*
X359752Y798604D02*
X356644Y801712D01*
X356644Y806108D01*
X356729Y806193D01*
X356897Y806446D01*
X356952Y806744D01*
X356887Y807040D01*
X356712Y807288D01*
X356454Y807447D01*
X356191Y807494D01*
X352132Y807494D01*
X349024Y810602D01*
X349024Y814998D01*
X352132Y818106D01*
X356528Y818106D01*
X359636Y814998D01*
X359636Y810602D01*
X359551Y810517D01*
X359383Y810264D01*
X359328Y809966D01*
X359393Y809670D01*
X359568Y809422D01*
X359826Y809263D01*
X360089Y809216D01*
X364148Y809216D01*
X367256Y806108D01*
X367256Y801712D01*
X364148Y798604D01*
X359752Y798604D01*
G37*
G36*
X254342Y807494D02*
X251234Y810602D01*
X251234Y814998D01*
X254342Y818106D01*
X258738Y818106D01*
X261846Y814998D01*
X261846Y810602D01*
X258738Y807494D01*
X254342Y807494D01*
G37*
G36*
X302602Y789714D02*
X299494Y792822D01*
X299494Y797218D01*
X301478Y799202D01*
X301646Y799455D01*
X301701Y799753D01*
X301636Y800049D01*
X301478Y800280D01*
X299871Y801887D01*
X298986Y804024D01*
X298986Y806337D01*
X299871Y808473D01*
X301507Y810109D01*
X303644Y810994D01*
X305957Y810994D01*
X308093Y810109D01*
X309700Y808502D01*
X309953Y808334D01*
X310251Y808279D01*
X310548Y808344D01*
X310778Y808502D01*
X312762Y810486D01*
X317158Y810486D01*
X320266Y807378D01*
X320266Y802982D01*
X317158Y799874D01*
X312762Y799874D01*
X310778Y801858D01*
X310525Y802026D01*
X310227Y802081D01*
X309931Y802016D01*
X309700Y801858D01*
X308122Y800280D01*
X307954Y800027D01*
X307899Y799729D01*
X307964Y799432D01*
X308122Y799202D01*
X310106Y797218D01*
X310106Y792822D01*
X306998Y789714D01*
X302602Y789714D01*
G37*
G36*
X399122Y789516D02*
X396014Y792624D01*
X396014Y797020D01*
X397821Y798827D01*
X397989Y799080D01*
X398044Y799378D01*
X397979Y799674D01*
X397821Y799905D01*
X394744Y802982D01*
X394744Y807378D01*
X397852Y810486D01*
X402248Y810486D01*
X405356Y807378D01*
X405356Y802982D01*
X403549Y801175D01*
X403381Y800922D01*
X403326Y800624D01*
X403391Y800328D01*
X403549Y800097D01*
X406626Y797020D01*
X406626Y792624D01*
X403518Y789516D01*
X399122Y789516D01*
G37*
G36*
X242912Y788444D02*
X239804Y791552D01*
X239804Y795948D01*
X242782Y798926D01*
X242950Y799179D01*
X243005Y799477D01*
X242940Y799773D01*
X242782Y800004D01*
X239804Y802982D01*
X239804Y807378D01*
X242912Y810486D01*
X247308Y810486D01*
X250416Y807378D01*
X250416Y802982D01*
X247438Y800004D01*
X247270Y799751D01*
X247215Y799453D01*
X247280Y799157D01*
X247438Y798926D01*
X250416Y795948D01*
X250416Y791552D01*
X247308Y788444D01*
X242912Y788444D01*
G37*
G36*
X372452Y794794D02*
X369344Y797902D01*
X369344Y802298D01*
X372452Y805406D01*
X376848Y805406D01*
X379956Y802298D01*
X379956Y797902D01*
X376848Y794794D01*
X372452Y794794D01*
G37*
G36*
X316572Y787174D02*
X313464Y790282D01*
X313464Y794678D01*
X316572Y797786D01*
X320968Y797786D01*
X324076Y794678D01*
X324076Y790282D01*
X320968Y787174D01*
X316572Y787174D01*
G37*
G36*
X251802Y779554D02*
X248694Y782662D01*
X248694Y787058D01*
X251802Y790166D01*
X256198Y790166D01*
X259306Y787058D01*
X259306Y782662D01*
X256198Y779554D01*
X251802Y779554D01*
G37*
G36*
X371182Y765584D02*
X368074Y768692D01*
X368074Y773088D01*
X371182Y776196D01*
X375578Y776196D01*
X378686Y773088D01*
X378686Y768692D01*
X375578Y765584D01*
X371182Y765584D01*
G37*
G36*
X305142Y752884D02*
X302034Y755992D01*
X302034Y760388D01*
X305142Y763496D01*
X309538Y763496D01*
X312646Y760388D01*
X312646Y755992D01*
X309538Y752884D01*
X305142Y752884D01*
G37*
%LPD*%
G36*
X269763Y71180D02*
X270013Y71352D01*
X270177Y71607D01*
X270228Y71882D01*
X270228Y73264D01*
X271624Y76636D01*
X274204Y79216D01*
X277576Y80612D01*
X281224Y80612D01*
X284596Y79216D01*
X287176Y76636D01*
X288572Y73264D01*
X288572Y71882D01*
X288632Y71585D01*
X288804Y71335D01*
X289059Y71171D01*
X289334Y71120D01*
X321111Y71120D01*
X321408Y71180D01*
X321649Y71343D01*
X321652Y71346D01*
X326048Y71346D01*
X326051Y71343D01*
X326303Y71176D01*
X326589Y71120D01*
X371911Y71120D01*
X372208Y71180D01*
X372449Y71343D01*
X372452Y71346D01*
X376848Y71346D01*
X376851Y71343D01*
X377103Y71176D01*
X377389Y71120D01*
X409166Y71120D01*
X409463Y71180D01*
X409713Y71352D01*
X409877Y71607D01*
X409928Y71882D01*
X409928Y73264D01*
X411324Y76636D01*
X413904Y79216D01*
X417276Y80612D01*
X420924Y80612D01*
X424296Y79216D01*
X426876Y76636D01*
X428272Y73264D01*
X428272Y71882D01*
X428332Y71585D01*
X428504Y71335D01*
X428759Y71171D01*
X429034Y71120D01*
X548866Y71120D01*
X549163Y71180D01*
X549413Y71352D01*
X549577Y71607D01*
X549628Y71882D01*
X549628Y73264D01*
X551024Y76636D01*
X553604Y79216D01*
X556976Y80612D01*
X560624Y80612D01*
X563996Y79216D01*
X566576Y76636D01*
X567972Y73264D01*
X567972Y71882D01*
X568032Y71585D01*
X568204Y71335D01*
X568459Y71171D01*
X568734Y71120D01*
X601781Y71120D01*
X602078Y71180D01*
X602319Y71343D01*
X602322Y71346D01*
X606718Y71346D01*
X606721Y71343D01*
X606973Y71176D01*
X607259Y71120D01*
X651311Y71120D01*
X651608Y71180D01*
X651849Y71343D01*
X651852Y71346D01*
X656248Y71346D01*
X656251Y71343D01*
X656503Y71176D01*
X656789Y71120D01*
X688566Y71120D01*
X688863Y71180D01*
X689113Y71352D01*
X689277Y71607D01*
X689328Y71882D01*
X689328Y73264D01*
X690724Y76636D01*
X693304Y79216D01*
X696676Y80612D01*
X700324Y80612D01*
X703696Y79216D01*
X706276Y76636D01*
X707672Y73264D01*
X707672Y71882D01*
X707732Y71585D01*
X707904Y71335D01*
X708159Y71171D01*
X708434Y71120D01*
X768858Y71120D01*
X769155Y71180D01*
X769405Y71352D01*
X769569Y71607D01*
X769620Y71882D01*
X769620Y77288D01*
X769560Y77585D01*
X769388Y77835D01*
X769133Y77999D01*
X768858Y78050D01*
X766444Y78050D01*
X762923Y79508D01*
X760228Y82203D01*
X758770Y85724D01*
X758770Y86106D01*
X769874Y86106D01*
X769874Y89154D01*
X758770Y89154D01*
X758770Y89536D01*
X760228Y93057D01*
X761121Y93949D01*
X761289Y94202D01*
X761344Y94500D01*
X761279Y94796D01*
X761104Y95044D01*
X760846Y95203D01*
X760582Y95250D01*
X742161Y95250D01*
X741864Y95190D01*
X741614Y95018D01*
X741450Y94763D01*
X741399Y94488D01*
X741399Y93675D01*
X739283Y88567D01*
X735373Y84657D01*
X730265Y82541D01*
X724735Y82541D01*
X719627Y84657D01*
X715717Y88567D01*
X713601Y93675D01*
X713601Y94488D01*
X713541Y94785D01*
X713369Y95035D01*
X713114Y95199D01*
X712839Y95250D01*
X707440Y95250D01*
X707143Y95190D01*
X706893Y95018D01*
X706729Y94763D01*
X706678Y94464D01*
X706736Y94196D01*
X707164Y93163D01*
X707164Y89717D01*
X705845Y86532D01*
X703408Y84095D01*
X700223Y82776D01*
X696777Y82776D01*
X693592Y84095D01*
X691155Y86532D01*
X689836Y89717D01*
X689836Y93163D01*
X690264Y94196D01*
X690322Y94494D01*
X690259Y94791D01*
X690086Y95040D01*
X689829Y95201D01*
X689560Y95250D01*
X684161Y95250D01*
X683864Y95190D01*
X683614Y95018D01*
X683450Y94763D01*
X683399Y94488D01*
X683399Y93675D01*
X681283Y88567D01*
X677373Y84657D01*
X672265Y82541D01*
X666735Y82541D01*
X661627Y84657D01*
X657717Y88567D01*
X655601Y93675D01*
X655601Y94488D01*
X655541Y94785D01*
X655369Y95035D01*
X655114Y95199D01*
X654839Y95250D01*
X636418Y95250D01*
X636121Y95190D01*
X635870Y95018D01*
X635707Y94763D01*
X635656Y94464D01*
X635726Y94169D01*
X635879Y93949D01*
X636772Y93057D01*
X638230Y89536D01*
X638230Y89154D01*
X619070Y89154D01*
X619070Y89536D01*
X620528Y93057D01*
X621421Y93949D01*
X621589Y94202D01*
X621644Y94500D01*
X621579Y94796D01*
X621404Y95044D01*
X621146Y95203D01*
X620882Y95250D01*
X602461Y95250D01*
X602164Y95190D01*
X601914Y95018D01*
X601750Y94763D01*
X601699Y94488D01*
X601699Y93675D01*
X599583Y88567D01*
X595673Y84657D01*
X590565Y82541D01*
X585035Y82541D01*
X579927Y84657D01*
X576017Y88567D01*
X573901Y93675D01*
X573901Y94488D01*
X573841Y94785D01*
X573669Y95035D01*
X573414Y95199D01*
X573139Y95250D01*
X567740Y95250D01*
X567443Y95190D01*
X567193Y95018D01*
X567029Y94763D01*
X566978Y94464D01*
X567036Y94196D01*
X567464Y93163D01*
X567464Y89717D01*
X566145Y86532D01*
X563708Y84095D01*
X560523Y82776D01*
X557077Y82776D01*
X553892Y84095D01*
X551455Y86532D01*
X550136Y89717D01*
X550136Y93163D01*
X550564Y94196D01*
X550622Y94494D01*
X550559Y94791D01*
X550386Y95040D01*
X550129Y95201D01*
X549860Y95250D01*
X544461Y95250D01*
X544164Y95190D01*
X543914Y95018D01*
X543750Y94763D01*
X543699Y94488D01*
X543699Y93675D01*
X541583Y88567D01*
X537673Y84657D01*
X532565Y82541D01*
X527035Y82541D01*
X521927Y84657D01*
X518017Y88567D01*
X515901Y93675D01*
X515901Y94488D01*
X515841Y94785D01*
X515669Y95035D01*
X515414Y95199D01*
X515139Y95250D01*
X496718Y95250D01*
X496421Y95190D01*
X496170Y95018D01*
X496007Y94763D01*
X495956Y94464D01*
X496026Y94169D01*
X496179Y93949D01*
X497072Y93057D01*
X498530Y89536D01*
X498530Y89154D01*
X479370Y89154D01*
X479370Y89536D01*
X480828Y93057D01*
X481721Y93949D01*
X481889Y94202D01*
X481944Y94500D01*
X481879Y94796D01*
X481704Y95044D01*
X481446Y95203D01*
X481182Y95250D01*
X462761Y95250D01*
X462464Y95190D01*
X462214Y95018D01*
X462050Y94763D01*
X461999Y94488D01*
X461999Y93675D01*
X459883Y88567D01*
X455973Y84657D01*
X450865Y82541D01*
X445335Y82541D01*
X440227Y84657D01*
X436317Y88567D01*
X434201Y93675D01*
X434201Y94488D01*
X434141Y94785D01*
X433969Y95035D01*
X433714Y95199D01*
X433439Y95250D01*
X428040Y95250D01*
X427743Y95190D01*
X427493Y95018D01*
X427329Y94763D01*
X427278Y94464D01*
X427336Y94196D01*
X427764Y93163D01*
X427764Y89717D01*
X426445Y86532D01*
X424008Y84095D01*
X420823Y82776D01*
X417377Y82776D01*
X414192Y84095D01*
X411755Y86532D01*
X410436Y89717D01*
X410436Y93163D01*
X410864Y94196D01*
X410922Y94494D01*
X410859Y94791D01*
X410686Y95040D01*
X410429Y95201D01*
X410160Y95250D01*
X404761Y95250D01*
X404464Y95190D01*
X404214Y95018D01*
X404050Y94763D01*
X403999Y94488D01*
X403999Y93675D01*
X401883Y88567D01*
X397973Y84657D01*
X392865Y82541D01*
X387335Y82541D01*
X382227Y84657D01*
X378317Y88567D01*
X376201Y93675D01*
X376201Y94488D01*
X376141Y94785D01*
X375969Y95035D01*
X375714Y95199D01*
X375439Y95250D01*
X357018Y95250D01*
X356721Y95190D01*
X356470Y95018D01*
X356307Y94763D01*
X356256Y94464D01*
X356326Y94169D01*
X356479Y93949D01*
X357372Y93057D01*
X358830Y89536D01*
X358830Y89154D01*
X339670Y89154D01*
X339670Y89536D01*
X341128Y93057D01*
X342021Y93949D01*
X342189Y94202D01*
X342244Y94500D01*
X342179Y94796D01*
X342004Y95044D01*
X341746Y95203D01*
X341482Y95250D01*
X323061Y95250D01*
X322764Y95190D01*
X322514Y95018D01*
X322350Y94763D01*
X322299Y94488D01*
X322299Y93675D01*
X320183Y88567D01*
X316273Y84657D01*
X311165Y82541D01*
X305635Y82541D01*
X300527Y84657D01*
X296617Y88567D01*
X294501Y93675D01*
X294501Y94488D01*
X294441Y94785D01*
X294269Y95035D01*
X294014Y95199D01*
X293739Y95250D01*
X288340Y95250D01*
X288043Y95190D01*
X287793Y95018D01*
X287629Y94763D01*
X287578Y94464D01*
X287636Y94196D01*
X288064Y93163D01*
X288064Y89717D01*
X286745Y86532D01*
X284308Y84095D01*
X281123Y82776D01*
X277677Y82776D01*
X274492Y84095D01*
X272055Y86532D01*
X270736Y89717D01*
X270736Y93163D01*
X271164Y94196D01*
X271222Y94494D01*
X271159Y94791D01*
X270986Y95040D01*
X270729Y95201D01*
X270460Y95250D01*
X265061Y95250D01*
X264764Y95190D01*
X264514Y95018D01*
X264350Y94763D01*
X264299Y94488D01*
X264299Y93675D01*
X262183Y88567D01*
X258273Y84657D01*
X253165Y82541D01*
X247635Y82541D01*
X242527Y84657D01*
X238617Y88567D01*
X236501Y93675D01*
X236501Y94488D01*
X236441Y94785D01*
X236269Y95035D01*
X236014Y95199D01*
X235739Y95250D01*
X217318Y95250D01*
X217021Y95190D01*
X216770Y95018D01*
X216607Y94763D01*
X216556Y94464D01*
X216626Y94169D01*
X216779Y93949D01*
X217672Y93057D01*
X219130Y89536D01*
X219130Y89154D01*
X208026Y89154D01*
X208026Y86106D01*
X219130Y86106D01*
X219130Y85724D01*
X217672Y82203D01*
X214977Y79508D01*
X211456Y78050D01*
X209042Y78050D01*
X208745Y77990D01*
X208495Y77818D01*
X208331Y77563D01*
X208280Y77288D01*
X208280Y71882D01*
X208340Y71585D01*
X208512Y71335D01*
X208767Y71171D01*
X209042Y71120D01*
X269466Y71120D01*
X269763Y71180D01*
G37*
%LPC*%
G36*
X630174Y78050D02*
X630174Y86106D01*
X638230Y86106D01*
X638230Y85724D01*
X636772Y82203D01*
X634077Y79508D01*
X630556Y78050D01*
X630174Y78050D01*
G37*
G36*
X626744Y78050D02*
X623223Y79508D01*
X620528Y82203D01*
X619070Y85724D01*
X619070Y86106D01*
X627126Y86106D01*
X627126Y78050D01*
X626744Y78050D01*
G37*
G36*
X490474Y78050D02*
X490474Y86106D01*
X498530Y86106D01*
X498530Y85724D01*
X497072Y82203D01*
X494377Y79508D01*
X490856Y78050D01*
X490474Y78050D01*
G37*
G36*
X487044Y78050D02*
X483523Y79508D01*
X480828Y82203D01*
X479370Y85724D01*
X479370Y86106D01*
X487426Y86106D01*
X487426Y78050D01*
X487044Y78050D01*
G37*
G36*
X350774Y78050D02*
X350774Y86106D01*
X358830Y86106D01*
X358830Y85724D01*
X357372Y82203D01*
X354677Y79508D01*
X351156Y78050D01*
X350774Y78050D01*
G37*
G36*
X347344Y78050D02*
X343823Y79508D01*
X341128Y82203D01*
X339670Y85724D01*
X339670Y86106D01*
X347726Y86106D01*
X347726Y78050D01*
X347344Y78050D01*
G37*
%LPD*%
D10*
X60000Y1020000D03*
X940000Y1020000D03*
X950000Y50000D03*
X50000Y50000D03*
D11*
X787200Y968440D03*
X762200Y968440D03*
X787200Y988440D03*
X762200Y988440D03*
D12*
X834900Y1015540D03*
X714500Y1015540D03*
D13*
X843280Y591820D03*
X868680Y591820D03*
X894080Y591820D03*
X919480Y591820D03*
X843280Y502920D03*
X868680Y502920D03*
X894080Y502920D03*
X919480Y502920D03*
D11*
X139700Y91440D03*
X139700Y71440D03*
X139700Y51440D03*
X139700Y31440D03*
D14*
X110700Y16440D03*
X168700Y16440D03*
X110700Y96440D03*
X168700Y96440D03*
D11*
X279400Y91440D03*
X279400Y71440D03*
X279400Y51440D03*
X279400Y31440D03*
D14*
X250400Y16440D03*
X308400Y16440D03*
X250400Y96440D03*
X308400Y96440D03*
D11*
X419100Y91440D03*
X419100Y71440D03*
X419100Y51440D03*
X419100Y31440D03*
D14*
X390100Y16440D03*
X448100Y16440D03*
X390100Y96440D03*
X448100Y96440D03*
D11*
X558800Y91440D03*
X558800Y71440D03*
X558800Y51440D03*
X558800Y31440D03*
D14*
X529800Y16440D03*
X587800Y16440D03*
X529800Y96440D03*
X587800Y96440D03*
D11*
X698500Y91440D03*
X698500Y71440D03*
X698500Y51440D03*
X698500Y31440D03*
D14*
X669500Y16440D03*
X727500Y16440D03*
X669500Y96440D03*
X727500Y96440D03*
D11*
X855980Y855980D03*
X880980Y855980D03*
X900980Y855980D03*
X925980Y855980D03*
D15*
X825280Y828880D03*
X956680Y828880D03*
D13*
X209550Y11430D03*
X209550Y36830D03*
X209550Y62230D03*
X209550Y87630D03*
X349250Y11430D03*
X349250Y36830D03*
X349250Y62230D03*
X349250Y87630D03*
X488950Y11430D03*
X488950Y36830D03*
X488950Y62230D03*
X488950Y87630D03*
X628650Y11430D03*
X628650Y36830D03*
X628650Y62230D03*
X628650Y87630D03*
X768350Y11430D03*
X768350Y36830D03*
X768350Y62230D03*
X768350Y87630D03*
D16*
X142240Y347450D03*
X142240Y361950D03*
X142240Y376450D03*
D17*
X36860Y786960D03*
X36860Y812360D03*
X36860Y837760D03*
X36860Y863160D03*
X36860Y888560D03*
X36860Y913960D03*
D18*
X33020Y454660D03*
X33020Y429260D03*
X33020Y403860D03*
D13*
X583560Y1038080D03*
X608960Y1038080D03*
X634360Y1038080D03*
X659760Y1038080D03*
D19*
X311150Y1054910D03*
X285750Y1054910D03*
D20*
X967300Y387940D03*
X912300Y387940D03*
X967300Y429940D03*
X912300Y429940D03*
D21*
X264160Y261620D03*
X419100Y306070D03*
X400050Y236220D03*
X637540Y356870D03*
X534670Y674370D03*
X582930Y687070D03*
X354330Y336550D03*
X670560Y228600D03*
X591820Y228600D03*
X327660Y233680D03*
X109220Y228600D03*
X30480Y257810D03*
X552450Y317500D03*
X607060Y242570D03*
X543560Y406400D03*
X613410Y304800D03*
X518391Y404900D03*
X656590Y321310D03*
X683260Y888540D03*
X635000Y425450D03*
X855980Y119380D03*
X101600Y373380D03*
X304800Y853440D03*
X293431Y853440D03*
X281940Y901700D03*
X406476Y811606D03*
X218119Y323850D03*
D22*
X967300Y429940D02*
X967300Y620200D01*
X939800Y647700D01*
X838200Y647700D01*
X791210Y694690D01*
X762000Y723900D01*
X649605Y836295D01*
X628650Y857250D01*
D23*
X570230Y674370D02*
X534670Y674370D01*
X570230Y674370D02*
X582930Y687070D01*
X671830Y687070D01*
X694690Y664210D01*
X760730Y664210D01*
X791210Y694690D01*
X843280Y617220D02*
X843280Y591820D01*
X843280Y617220D02*
X838200Y622300D01*
X838200Y647700D01*
X843280Y591820D02*
X843280Y502920D01*
D22*
X939800Y402440D02*
X967300Y429940D01*
X939800Y402440D02*
X939800Y330200D01*
D21*
X351790Y411480D03*
X101600Y383540D03*
D22*
X889000Y279400D02*
X939800Y330200D01*
D23*
X855980Y817880D02*
X855980Y855980D01*
X855980Y817880D02*
X762000Y723900D01*
D21*
X463550Y892810D03*
D24*
X447040Y876300D02*
X444500Y876300D01*
D21*
X448310Y887730D03*
D25*
X97350Y786960D02*
X36860Y786960D01*
X97350Y786960D02*
X167640Y857250D01*
X241300Y857250D01*
D22*
X508000Y857250D02*
X628650Y857250D01*
D25*
X583560Y1038080D02*
X583420Y1038080D01*
X491490Y946150D01*
X683260Y888540D02*
X683260Y869950D01*
X649605Y836295D01*
D21*
X400050Y401320D03*
X861060Y914400D03*
X873760Y927100D03*
X378460Y911860D03*
X378460Y901700D03*
X369570Y547370D03*
X361950Y557530D03*
X393700Y523240D03*
X414020Y533400D03*
X434340Y554990D03*
X457200Y581660D03*
X427990Y638048D03*
X366014Y637794D03*
X338074Y609092D03*
X337820Y579374D03*
X551180Y562610D03*
X335280Y488950D03*
X266700Y593090D03*
X290830Y684530D03*
X308610Y702310D03*
X749300Y890270D03*
X354330Y261620D03*
X444500Y299720D03*
X675640Y400050D03*
X572180Y689020D03*
X457200Y154940D03*
X488950Y185420D03*
X177800Y154940D03*
X209550Y184348D03*
X209550Y175260D03*
X30480Y234950D03*
X102870Y314960D03*
X109220Y321310D03*
X264160Y337820D03*
X530860Y311150D03*
X504190Y313690D03*
X557530Y345440D03*
X651510Y284354D03*
X618490Y217170D03*
X566420Y642620D03*
X520700Y596900D03*
X833120Y63500D03*
X843280Y63500D03*
X863600Y63500D03*
X873760Y63500D03*
X822960Y63500D03*
X853440Y63500D03*
X883920Y63500D03*
X33020Y506730D03*
X129540Y490220D03*
X129540Y435610D03*
X306070Y988870D03*
X525780Y909320D03*
X485140Y838200D03*
X509270Y694690D03*
X496570Y707390D03*
X728980Y295910D03*
X722630Y327660D03*
X775970Y904240D03*
X779780Y844550D03*
X721360Y844550D03*
X722630Y904240D03*
X683260Y926640D03*
X656590Y869490D03*
X647700Y943150D03*
X881380Y119380D03*
X321310Y257810D03*
X403860Y941070D03*
X353060Y941070D03*
X266700Y878840D03*
X266700Y828040D03*
X237490Y882650D03*
X318770Y792480D03*
X328930Y866140D03*
X280670Y953770D03*
X415564Y814070D03*
X617220Y424180D03*
X577850Y439420D03*
X617220Y441960D03*
X891540Y779780D03*
X891540Y769620D03*
X617220Y523240D03*
X361950Y461010D03*
X242570Y165100D03*
X521970Y165100D03*
X521970Y175260D03*
X521970Y185420D03*
X242570Y175260D03*
X242570Y185420D03*
X177800Y185420D03*
X177800Y175260D03*
X177800Y165100D03*
X744220Y175260D03*
X744220Y165100D03*
X744220Y154940D03*
X457200Y165100D03*
X457200Y175260D03*
X919480Y715010D03*
X863600Y715010D03*
X919480Y725170D03*
X919480Y735330D03*
X863600Y725170D03*
X863600Y735330D03*
X919480Y768350D03*
X863600Y768350D03*
X749300Y863600D03*
X749300Y850900D03*
X304800Y835660D03*
X294640Y825500D03*
X314960Y805180D03*
X304800Y795020D03*
X364490Y904240D03*
X388620Y905510D03*
X434340Y332740D03*
X593090Y910590D03*
X224790Y585470D03*
X241300Y568960D03*
X186690Y547370D03*
X203200Y530860D03*
X909320Y927100D03*
X922020Y914400D03*
X173990Y726440D03*
X198120Y702310D03*
X359410Y734060D03*
X359410Y713740D03*
X179070Y337820D03*
X179070Y369570D03*
X204470Y369570D03*
X204470Y337820D03*
X204470Y299720D03*
X173990Y293370D03*
X152400Y293370D03*
X228600Y246380D03*
X243840Y261620D03*
X154940Y387350D03*
X173990Y408940D03*
X199390Y435610D03*
X220980Y453390D03*
X227330Y401320D03*
X246380Y417830D03*
X270510Y417830D03*
X295910Y417830D03*
X321310Y417830D03*
X342900Y417830D03*
X342900Y457200D03*
X317500Y457200D03*
X292100Y457200D03*
X266700Y482600D03*
X241300Y482600D03*
X215900Y482600D03*
X190500Y482600D03*
X165100Y495300D03*
X120105Y463005D03*
X279400Y508000D03*
X254000Y508000D03*
X203200Y508000D03*
X177800Y533400D03*
X139700Y520700D03*
X127000Y546100D03*
X127000Y571500D03*
X127000Y596900D03*
X163830Y596900D03*
X266700Y609600D03*
X241300Y635000D03*
X203200Y622300D03*
X163830Y622300D03*
X127000Y622300D03*
X127000Y647700D03*
X163830Y647700D03*
X203200Y643890D03*
X241300Y660400D03*
X219710Y678180D03*
X167640Y673100D03*
X127000Y673100D03*
X140970Y694690D03*
X203200Y736600D03*
X212090Y712470D03*
X241300Y699770D03*
X276860Y735330D03*
X309880Y734060D03*
X342900Y734060D03*
X431800Y749300D03*
X457200Y774700D03*
X635000Y816610D03*
X698500Y816610D03*
X673100Y774700D03*
X749300Y791210D03*
X736600Y772160D03*
X762000Y746760D03*
X774700Y765810D03*
X800100Y740410D03*
X787400Y721360D03*
X812800Y695960D03*
X825500Y715010D03*
X850900Y689610D03*
X838200Y670560D03*
X414020Y497840D03*
X398780Y482600D03*
X379730Y462280D03*
X452120Y462280D03*
X453390Y490220D03*
X488950Y454660D03*
X490220Y518160D03*
X501650Y529590D03*
X525780Y529590D03*
X450850Y388620D03*
X453390Y323063D03*
X488950Y314960D03*
X488950Y297180D03*
X499110Y284480D03*
X474980Y275590D03*
X453390Y269240D03*
X485140Y554990D03*
X551180Y529590D03*
X605790Y529590D03*
X627380Y529590D03*
X685800Y543560D03*
X680720Y514350D03*
X734060Y497840D03*
X716280Y480060D03*
X732790Y461010D03*
X755650Y461010D03*
X732790Y422910D03*
X755650Y422910D03*
X732790Y384810D03*
X755650Y384810D03*
X732790Y346710D03*
X755650Y346710D03*
X732790Y308610D03*
X755650Y308610D03*
X755650Y241300D03*
X732790Y241300D03*
X656590Y944880D03*
X638810Y944880D03*
X716280Y515620D03*
X491490Y410210D03*
X448310Y344170D03*
X755650Y273050D03*
X241300Y736600D03*
X430530Y864870D03*
X476250Y922020D03*
X476250Y932180D03*
X533400Y916940D03*
X533400Y901700D03*
X378460Y949960D03*
X567690Y828040D03*
X388620Y316230D03*
X378460Y853440D03*
X378460Y873760D03*
X358140Y853440D03*
X378460Y833120D03*
X398780Y853440D03*
X412750Y963930D03*
X412750Y923290D03*
X374650Y800100D03*
X245110Y793750D03*
X361950Y803910D03*
X245110Y805180D03*
X190500Y803910D03*
X354330Y812800D03*
X256540Y812800D03*
X247650Y934720D03*
X213360Y784860D03*
X254000Y784860D03*
X400050Y805180D03*
X80010Y299720D03*
X660400Y242570D03*
X650240Y222250D03*
X439420Y839470D03*
X629920Y636270D03*
X449580Y834390D03*
X629920Y647700D03*
X246380Y281940D03*
X566420Y289560D03*
X684530Y254000D03*
X138430Y250190D03*
X292100Y226060D03*
X233680Y281940D03*
X368300Y243840D03*
X419100Y233680D03*
X548640Y238760D03*
X556260Y276860D03*
X188444Y710716D03*
X369570Y719324D03*
X181658Y717502D03*
X369570Y728920D03*
X304800Y805180D03*
X304800Y825500D03*
X121920Y231140D03*
X264160Y242570D03*
X359410Y248330D03*
X571500Y177800D03*
X650240Y180340D03*
X588010Y375920D03*
X500380Y363220D03*
X489808Y330200D03*
X429260Y284480D03*
X434340Y261620D03*
X411480Y212090D03*
X450850Y363220D03*
X419100Y647700D03*
D26*
X400050Y628650D01*
X358140Y628650D01*
D21*
X358140Y628650D03*
D26*
X374650Y612140D02*
X374650Y561340D01*
X374650Y612140D02*
X358140Y628650D01*
D21*
X374650Y561340D03*
X403860Y523240D03*
X423926Y544322D03*
X340614Y648970D03*
X315976Y624078D03*
X313182Y585724D03*
X453390Y652780D03*
X497840Y570230D03*
D27*
X835660Y429260D03*
X845820Y403860D03*
D21*
X967740Y688340D03*
X956310Y797560D03*
X468630Y590550D03*
X534670Y650240D03*
X444500Y566420D03*
X347980Y568960D03*
D22*
X706120Y558800D02*
X835660Y429260D01*
X706120Y558800D02*
X631190Y558800D01*
X835660Y414020D02*
X845820Y403860D01*
X835660Y414020D02*
X835660Y429260D01*
D25*
X864870Y458470D01*
X922020Y458470D01*
X946150Y482600D01*
X946150Y596900D01*
D21*
X946150Y596900D03*
D25*
X967740Y688340D02*
X967740Y786130D01*
X956310Y797560D01*
D24*
X524510Y836930D02*
X524510Y722630D01*
X495300Y693420D01*
D21*
X208280Y821690D03*
D25*
X208280Y801370D01*
X198120Y791210D01*
X198120Y762000D01*
X276860Y683260D01*
D24*
X524510Y836930D02*
X529590Y842010D01*
D21*
X529590Y842010D03*
D22*
X631190Y558800D02*
X618490Y546100D01*
X506730Y546100D01*
X497840Y554990D01*
X497840Y570230D01*
D28*
X769620Y88900D02*
X768350Y87630D01*
D29*
X769620Y88900D02*
X889000Y88900D01*
X929640Y129540D01*
X929640Y288290D01*
D21*
X929640Y288290D03*
X896620Y322580D03*
D29*
X845820Y373380D01*
X845820Y403860D01*
X641350Y49530D02*
X628650Y36830D01*
X641350Y49530D02*
X641350Y74930D01*
X628650Y87630D01*
X501650Y49530D02*
X488950Y36830D01*
X501650Y49530D02*
X501650Y74930D01*
X488950Y87630D01*
X361950Y49530D02*
X349250Y36830D01*
X361950Y49530D02*
X361950Y74930D01*
X349250Y87630D01*
X222250Y49530D02*
X209550Y36830D01*
X222250Y49530D02*
X222250Y74930D01*
X209550Y87630D01*
X755650Y49530D02*
X768350Y36830D01*
X755650Y49530D02*
X755650Y74930D01*
X768350Y87630D01*
D21*
X349250Y474980D03*
X384810Y534670D03*
X412750Y687070D03*
X373380Y770890D03*
X599440Y629920D03*
X495300Y438150D03*
X495376Y461086D03*
X599440Y609600D03*
X599440Y589280D03*
X500380Y416560D03*
X494030Y375920D03*
X599440Y568960D03*
X518160Y457200D03*
X495300Y471170D03*
X440690Y431800D03*
X402590Y369570D03*
X657860Y643890D03*
X688340Y375920D03*
X447040Y614529D03*
X440812Y621154D03*
X308610Y309880D03*
X259080Y384810D03*
X429260Y614680D03*
X303454Y317576D03*
X248920Y384810D03*
X421640Y621030D03*
X495300Y238760D03*
X495300Y256540D03*
X518160Y269240D03*
X594360Y341630D03*
X500182Y744220D03*
X458470Y694690D03*
X652856Y730326D03*
X482600Y238760D03*
X482600Y256540D03*
X510540Y276860D03*
X591820Y354330D03*
X646430Y723900D03*
X509270Y744220D03*
X464820Y703580D03*
X704774Y246456D03*
X667822Y458470D03*
X671632Y643890D03*
X440690Y695960D03*
X479710Y748030D03*
X711200Y240030D03*
X676910Y452120D03*
X678180Y636270D03*
X431602Y695960D03*
X474729Y755901D03*
X459740Y749300D03*
X422514Y695960D03*
X795020Y114300D03*
X722630Y648970D03*
X453314Y755726D03*
X807720Y124460D03*
X732790Y646430D03*
X413426Y696158D03*
X505460Y617220D03*
X497840Y624840D03*
X264160Y281940D03*
X444500Y472440D03*
X495300Y509270D03*
X288290Y289560D03*
X505460Y502920D03*
X443032Y462280D03*
X315948Y293370D03*
X435610Y455930D03*
X497840Y496570D03*
X323850Y300990D03*
X430530Y440690D03*
X505460Y488950D03*
X626110Y270510D03*
X355600Y318770D03*
X265430Y312420D03*
X822960Y7620D03*
X833120Y7620D03*
X843280Y7620D03*
X853440Y7620D03*
X863600Y7620D03*
X873760Y7620D03*
X883920Y7620D03*
X599440Y619760D03*
X599440Y599440D03*
X599440Y579120D03*
X508000Y426720D03*
X508000Y405130D03*
X599440Y558800D03*
X412750Y369570D03*
X500380Y480060D03*
X527050Y462280D03*
X447544Y440690D03*
X690880Y410210D03*
X709930Y690880D03*
X684530Y716280D03*
X631190Y741680D03*
X638810Y320040D03*
X307340Y758190D03*
X246380Y758190D03*
X152400Y725170D03*
X259080Y651510D03*
X519457Y416278D03*
X572278Y403082D03*
X408940Y901700D03*
X661670Y445770D03*
X664210Y636270D03*
X629920Y711200D03*
X429260Y883920D03*
X419100Y894080D03*
X429260Y894080D03*
X419100Y904240D03*
X525780Y349250D03*
X502920Y344170D03*
X373380Y334010D03*
X218440Y284480D03*
X121920Y242570D03*
X654050Y66040D03*
X604520Y66040D03*
X374650Y66040D03*
X93056Y66040D03*
X323850Y66040D03*
X698500Y932180D03*
X584200Y952500D03*
X320040Y850900D03*
X304800Y617220D03*
X133350Y736600D03*
X143312Y716280D03*
X684530Y750570D03*
X650438Y750372D03*
X501650Y755650D03*
X481528Y650240D03*
X675488Y759460D03*
X640080Y759460D03*
X491338Y755650D03*
X482600Y640080D03*
X610870Y828040D03*
X623570Y750570D03*
X538480Y748030D03*
X538282Y707390D03*
X547370Y708660D03*
X538480Y822960D03*
X353060Y901700D03*
X676605Y487985D03*
X342900Y901700D03*
X683031Y481559D03*
X342900Y891540D03*
X690093Y475768D03*
X332740Y891540D03*
X696519Y469341D03*
X332740Y881380D03*
X702945Y462915D03*
X485140Y586740D03*
X401320Y794822D03*
X426720Y853440D03*
D26*
X967300Y387940D02*
X984250Y404890D01*
X984250Y904240D01*
X821690Y1066800D01*
X361950Y1066800D01*
X349250Y1054100D01*
X311960Y1054100D01*
X311150Y1054910D01*
M02*
