M48
;GenerationSoftware,Autodesk,EAGLE,9.7.0*%
;CreationDate,2022-05-21T01:00:54Z*%
FMAT,2
ICI,OFF
METRIC,TZ,000.000
T6C0.350
T5C0.800
T4C0.900
T3C1.300
T2C3.200
%
G90
M71
T2
X40000Y114000
X6000Y114000
X6000Y6000
X40000Y6000
X6000Y6000
X6000Y114000
X40000Y114000
X40000Y6000
T3
X31750Y15240
X21590Y22860
X21590Y15240
X36830Y34290
X39370Y26670
X31750Y60960
X31750Y26670
X21590Y34290
X36830Y45720
X39370Y38100
X31750Y38100
X21590Y45720
X21590Y38100
X36830Y57150
X39370Y49530
X31750Y49530
X21590Y57150
X21590Y49530
X36830Y68580
X39370Y60960
X21590Y83820
X21590Y68580
X21590Y60960
X36830Y80010
X39370Y72390
X31750Y72390
X21590Y80010
X21590Y72390
X39370Y95250
X21590Y26670
X36830Y22860
X39370Y15240
X36830Y102870
X31750Y95250
X21590Y102870
X21590Y95250
X36830Y91440
X39370Y83820
X31750Y83820
X21590Y91440
T4
X3810Y29210
X11430Y29210
X8890Y29210
X6350Y29210
T5
X45339Y42037
X45339Y16637
X45339Y64897
X45339Y62357
X45339Y53467
X45339Y50927
X45339Y87757
X45339Y39497
X45339Y30607
X45339Y28067
X45339Y76327
X45339Y85217
X45339Y19177
X45339Y96647
X45339Y73787
X45339Y99187
X5080Y62230
X7620Y62230
T6
X7620Y36830
X6731Y42164
X2413Y40767
X16510Y97790
X12700Y97790
X16510Y86360
X12700Y86360
X16510Y74930
X12700Y74930
X17780Y12700
X12700Y12700
X3810Y26670
X12700Y24130
X17780Y24130
X3810Y31750
X16510Y40640
X3810Y44450
X6350Y44450
X16510Y52070
X12700Y63500
X7620Y58420
X5080Y64770
X6632Y48260
X5080Y59690
X12700Y52070
X8636Y38862
X6604Y38862
X20320Y29718
X16510Y81280
X16510Y69850
X16510Y58420
X16510Y24130
X16510Y12700
X16510Y35560
X16510Y46990
X16510Y92710
M30