G04 EAGLE Gerber RS-274X export*
G75*
%MOMM*%
%FSLAX34Y34*%
%LPD*%
%INBottom Copper*%
%IPPOS*%
%AMOC8*
5,1,8,0,0,1.08239X$1,22.5*%
G01*
G04 Define Apertures*
%ADD10R,1.553600X2.197800*%
%ADD11R,1.500000X1.500000*%
%ADD12C,1.500000*%
%ADD13R,1.031200X1.420200*%
%ADD14C,2.184400*%
%ADD15P,2.36437X8X22.5*%
%ADD16C,8.500000*%
%ADD17R,2.715300X1.164600*%
%ADD18R,1.164600X2.715300*%
%ADD19C,0.152400*%
%ADD20C,0.756400*%
%ADD21C,0.203200*%
%ADD22C,0.609600*%
%ADD23C,1.270000*%
G36*
X265461Y10321D02*
X266128Y10778D01*
X266563Y11460D01*
X266700Y12192D01*
X266700Y88058D01*
X266539Y88851D01*
X266105Y89495D01*
X254068Y101532D01*
X254010Y101602D01*
X254010Y101603D01*
X254000Y101701D01*
X254000Y158611D01*
X253839Y159404D01*
X253382Y160071D01*
X252701Y160506D01*
X251903Y160642D01*
X251116Y160456D01*
X250531Y160048D01*
X249699Y159216D01*
X239850Y159216D01*
X239057Y159055D01*
X238413Y158621D01*
X229646Y149854D01*
X228885Y149699D01*
X228218Y149242D01*
X227800Y148606D01*
X226451Y145350D01*
X222950Y141849D01*
X218376Y139954D01*
X213424Y139954D01*
X208850Y141849D01*
X205349Y145350D01*
X203454Y149924D01*
X203454Y154876D01*
X205349Y159450D01*
X208850Y162951D01*
X213424Y164846D01*
X218376Y164846D01*
X222950Y162951D01*
X226451Y159450D01*
X226930Y158295D01*
X227382Y157624D01*
X228059Y157183D01*
X228856Y157041D01*
X229644Y157221D01*
X230244Y157636D01*
X231413Y158805D01*
X231859Y159479D01*
X232008Y160242D01*
X232008Y183349D01*
X232901Y184242D01*
X249699Y184242D01*
X250531Y183410D01*
X251205Y182963D01*
X252000Y182815D01*
X252790Y182989D01*
X253450Y183457D01*
X253875Y184145D01*
X254000Y184847D01*
X254000Y188533D01*
X253839Y189326D01*
X253382Y189993D01*
X252701Y190428D01*
X251903Y190564D01*
X251116Y190378D01*
X250531Y189970D01*
X249699Y189138D01*
X232901Y189138D01*
X232008Y190031D01*
X232008Y213271D01*
X232901Y214164D01*
X234538Y214164D01*
X235331Y214325D01*
X235998Y214782D01*
X236434Y215464D01*
X236569Y216261D01*
X236383Y217048D01*
X235975Y217633D01*
X230244Y223364D01*
X229570Y223811D01*
X228775Y223959D01*
X227985Y223785D01*
X227325Y223318D01*
X226930Y222705D01*
X226451Y221550D01*
X222950Y218049D01*
X218376Y216154D01*
X213424Y216154D01*
X208850Y218049D01*
X205349Y221550D01*
X203454Y226124D01*
X203454Y231076D01*
X203961Y232299D01*
X204116Y233093D01*
X203948Y233884D01*
X203520Y234514D01*
X186624Y251410D01*
X185928Y253091D01*
X185928Y615696D01*
X185767Y616489D01*
X185310Y617156D01*
X184629Y617591D01*
X183896Y617728D01*
X87256Y617728D01*
X86463Y617567D01*
X85796Y617110D01*
X85361Y616429D01*
X85224Y615696D01*
X85224Y614169D01*
X84331Y613276D01*
X68069Y613276D01*
X67176Y614169D01*
X67176Y630431D01*
X68069Y631324D01*
X84331Y631324D01*
X85224Y630431D01*
X85224Y628904D01*
X85385Y628111D01*
X85842Y627444D01*
X86524Y627009D01*
X87256Y626872D01*
X183896Y626872D01*
X184689Y627033D01*
X185356Y627490D01*
X185791Y628172D01*
X185928Y628904D01*
X185928Y1004209D01*
X186624Y1005890D01*
X203520Y1022786D01*
X203967Y1023460D01*
X204115Y1024255D01*
X203961Y1025001D01*
X203454Y1026224D01*
X203454Y1031176D01*
X205349Y1035750D01*
X208850Y1039251D01*
X213424Y1041146D01*
X218376Y1041146D01*
X222950Y1039251D01*
X226451Y1035750D01*
X228346Y1031176D01*
X228346Y1026224D01*
X226997Y1022969D01*
X226843Y1022175D01*
X227010Y1021384D01*
X227438Y1020754D01*
X233333Y1014859D01*
X234007Y1014413D01*
X234770Y1014264D01*
X249699Y1014264D01*
X250531Y1013432D01*
X251205Y1012985D01*
X252000Y1012837D01*
X252790Y1013011D01*
X253450Y1013479D01*
X253875Y1014167D01*
X254000Y1014869D01*
X254000Y1079403D01*
X254009Y1079494D01*
X254009Y1079495D01*
X254071Y1079571D01*
X266105Y1091605D01*
X266551Y1092279D01*
X266700Y1093042D01*
X266700Y1187808D01*
X266539Y1188601D01*
X266082Y1189268D01*
X265401Y1189703D01*
X264668Y1189840D01*
X12192Y1189840D01*
X11399Y1189679D01*
X10732Y1189222D01*
X10297Y1188541D01*
X10160Y1187808D01*
X10160Y12192D01*
X10321Y11399D01*
X10778Y10732D01*
X11460Y10297D01*
X12192Y10160D01*
X264668Y10160D01*
X265461Y10321D01*
G37*
%LPC*%
G36*
X56556Y1113840D02*
X49903Y1115623D01*
X43937Y1119067D01*
X39067Y1123937D01*
X35623Y1129903D01*
X33840Y1136556D01*
X33840Y1143444D01*
X35623Y1150097D01*
X39067Y1156063D01*
X43937Y1160933D01*
X49903Y1164377D01*
X56556Y1166160D01*
X63444Y1166160D01*
X70097Y1164377D01*
X76063Y1160933D01*
X80933Y1156063D01*
X84377Y1150097D01*
X86160Y1143444D01*
X86160Y1136556D01*
X84377Y1129903D01*
X80933Y1123937D01*
X76063Y1119067D01*
X70097Y1115623D01*
X63444Y1113840D01*
X56556Y1113840D01*
G37*
G36*
X51562Y623062D02*
X51562Y632340D01*
X52797Y632340D01*
X56487Y630812D01*
X59312Y627987D01*
X60840Y624297D01*
X60840Y623062D01*
X51562Y623062D01*
G37*
G36*
X40760Y623062D02*
X40760Y624297D01*
X42288Y627987D01*
X45113Y630812D01*
X48803Y632340D01*
X50038Y632340D01*
X50038Y623062D01*
X40760Y623062D01*
G37*
G36*
X51562Y612260D02*
X51562Y621538D01*
X60840Y621538D01*
X60840Y620303D01*
X59312Y616613D01*
X56487Y613788D01*
X52797Y612260D01*
X51562Y612260D01*
G37*
G36*
X48803Y612260D02*
X45113Y613788D01*
X42288Y616613D01*
X40760Y620303D01*
X40760Y621538D01*
X50038Y621538D01*
X50038Y612260D01*
X48803Y612260D01*
G37*
G36*
X72784Y447316D02*
X72784Y453429D01*
X74271Y454917D01*
X88138Y454917D01*
X88138Y447316D01*
X72784Y447316D01*
G37*
G36*
X89662Y447316D02*
X89662Y454917D01*
X103529Y454917D01*
X105017Y453429D01*
X105017Y447316D01*
X89662Y447316D01*
G37*
G36*
X89662Y438191D02*
X89662Y445792D01*
X105017Y445792D01*
X105017Y439679D01*
X103529Y438191D01*
X89662Y438191D01*
G37*
G36*
X74271Y438191D02*
X72784Y439679D01*
X72784Y445792D01*
X88138Y445792D01*
X88138Y438191D01*
X74271Y438191D01*
G37*
G36*
X23075Y402364D02*
X21124Y403172D01*
X19632Y404664D01*
X18824Y406615D01*
X18824Y408725D01*
X19632Y410676D01*
X20995Y412039D01*
X21441Y412713D01*
X21590Y413476D01*
X21590Y422997D01*
X26593Y428000D01*
X27336Y428151D01*
X28003Y428608D01*
X28438Y429290D01*
X28575Y430022D01*
X28575Y433182D01*
X29468Y434075D01*
X41042Y434075D01*
X41935Y433182D01*
X41935Y417718D01*
X41042Y416825D01*
X28702Y416825D01*
X27909Y416664D01*
X27242Y416207D01*
X26807Y415526D01*
X26670Y414793D01*
X26670Y413476D01*
X26831Y412683D01*
X27265Y412039D01*
X28628Y410676D01*
X29436Y408725D01*
X29436Y406615D01*
X28628Y404664D01*
X27136Y403172D01*
X25185Y402364D01*
X23075Y402364D01*
G37*
G36*
X74692Y409699D02*
X73800Y410592D01*
X73800Y412728D01*
X73639Y413521D01*
X73181Y414188D01*
X72500Y414623D01*
X71768Y414760D01*
X70957Y414760D01*
X69978Y415739D01*
X69304Y416185D01*
X68541Y416334D01*
X66255Y416334D01*
X64304Y417142D01*
X63464Y417983D01*
X62789Y418429D01*
X61994Y418578D01*
X61204Y418404D01*
X60590Y417983D01*
X59432Y416825D01*
X47858Y416825D01*
X46965Y417718D01*
X46965Y433182D01*
X47858Y434075D01*
X59432Y434075D01*
X60325Y433182D01*
X60325Y429768D01*
X60486Y428975D01*
X60943Y428308D01*
X61625Y427873D01*
X62357Y427736D01*
X64447Y427736D01*
X64642Y427541D01*
X65316Y427095D01*
X66079Y426946D01*
X68365Y426946D01*
X70316Y426138D01*
X71940Y424514D01*
X72614Y424068D01*
X73409Y423919D01*
X74199Y424093D01*
X74637Y424393D01*
X103108Y424393D01*
X104001Y423500D01*
X104001Y410592D01*
X103108Y409699D01*
X74692Y409699D01*
G37*
G36*
X106169Y283076D02*
X105276Y283969D01*
X105276Y300231D01*
X106169Y301124D01*
X109982Y301124D01*
X110775Y301285D01*
X111442Y301742D01*
X111877Y302424D01*
X112014Y303156D01*
X112014Y315711D01*
X111853Y316504D01*
X111419Y317148D01*
X101770Y326797D01*
X101096Y327244D01*
X100301Y327392D01*
X99511Y327219D01*
X98851Y326751D01*
X98426Y326063D01*
X98301Y325360D01*
X98301Y315992D01*
X97408Y315100D01*
X84500Y315100D01*
X83607Y315992D01*
X83607Y325882D01*
X83446Y326675D01*
X82989Y327342D01*
X82308Y327777D01*
X81575Y327914D01*
X80333Y327914D01*
X73914Y334333D01*
X73914Y362241D01*
X73753Y363033D01*
X73319Y363677D01*
X72262Y364734D01*
X71588Y365181D01*
X70793Y365329D01*
X70003Y365156D01*
X69343Y364688D01*
X68918Y364000D01*
X68793Y363298D01*
X68793Y354092D01*
X67900Y353200D01*
X54992Y353200D01*
X54099Y354092D01*
X54099Y382508D01*
X54992Y383401D01*
X67900Y383401D01*
X68793Y382508D01*
X68793Y373303D01*
X68954Y372510D01*
X69411Y371843D01*
X70093Y371407D01*
X70890Y371272D01*
X71677Y371458D01*
X72262Y371866D01*
X73194Y372798D01*
X75145Y373606D01*
X77255Y373606D01*
X79319Y372751D01*
X79796Y372435D01*
X80591Y372287D01*
X81381Y372460D01*
X82041Y372928D01*
X82466Y373616D01*
X82591Y374319D01*
X82591Y382929D01*
X84079Y384417D01*
X90192Y384417D01*
X90192Y352184D01*
X84079Y352184D01*
X82591Y353671D01*
X82591Y362282D01*
X82430Y363074D01*
X81973Y363741D01*
X81292Y364177D01*
X80494Y364312D01*
X79707Y364126D01*
X79122Y363718D01*
X79081Y363677D01*
X78635Y363003D01*
X78486Y362241D01*
X78486Y337069D01*
X78647Y336276D01*
X79081Y335632D01*
X80138Y334575D01*
X80812Y334128D01*
X81607Y333980D01*
X82397Y334153D01*
X83057Y334621D01*
X83482Y335309D01*
X83607Y336012D01*
X83607Y344408D01*
X84500Y345301D01*
X97408Y345301D01*
X98301Y344408D01*
X98301Y334518D01*
X98462Y333725D01*
X98919Y333058D01*
X99601Y332623D01*
X100333Y332486D01*
X102547Y332486D01*
X116586Y318447D01*
X116586Y303156D01*
X116747Y302363D01*
X117204Y301696D01*
X117886Y301261D01*
X118618Y301124D01*
X122431Y301124D01*
X123324Y300231D01*
X123324Y283969D01*
X122431Y283076D01*
X106169Y283076D01*
G37*
G36*
X91716Y369062D02*
X91716Y384417D01*
X97829Y384417D01*
X99317Y382929D01*
X99317Y369062D01*
X91716Y369062D01*
G37*
G36*
X91716Y352184D02*
X91716Y367538D01*
X99317Y367538D01*
X99317Y353671D01*
X97829Y352184D01*
X91716Y352184D01*
G37*
G36*
X53083Y330962D02*
X53083Y344829D01*
X54571Y346317D01*
X60684Y346317D01*
X60684Y330962D01*
X53083Y330962D01*
G37*
G36*
X62208Y330962D02*
X62208Y346317D01*
X68321Y346317D01*
X69809Y344829D01*
X69809Y330962D01*
X62208Y330962D01*
G37*
G36*
X62208Y314084D02*
X62208Y329438D01*
X69809Y329438D01*
X69809Y315571D01*
X68321Y314084D01*
X62208Y314084D01*
G37*
G36*
X54571Y314084D02*
X53083Y315571D01*
X53083Y329438D01*
X60684Y329438D01*
X60684Y314084D01*
X54571Y314084D01*
G37*
G36*
X28060Y292862D02*
X28060Y294097D01*
X29588Y297787D01*
X32413Y300612D01*
X36103Y302140D01*
X37338Y302140D01*
X37338Y292862D01*
X28060Y292862D01*
G37*
G36*
X38862Y292862D02*
X38862Y302140D01*
X40097Y302140D01*
X43787Y300612D01*
X46612Y297787D01*
X48140Y294097D01*
X48140Y292862D01*
X38862Y292862D01*
G37*
G36*
X87105Y283076D02*
X83788Y284450D01*
X81250Y286988D01*
X79876Y290305D01*
X79876Y293895D01*
X81250Y297212D01*
X83788Y299750D01*
X87105Y301124D01*
X90695Y301124D01*
X94012Y299750D01*
X96550Y297212D01*
X97924Y293895D01*
X97924Y290305D01*
X96550Y286988D01*
X94012Y284450D01*
X90695Y283076D01*
X87105Y283076D01*
G37*
G36*
X61705Y283076D02*
X58388Y284450D01*
X55850Y286988D01*
X54476Y290305D01*
X54476Y293895D01*
X55850Y297212D01*
X58388Y299750D01*
X61705Y301124D01*
X65295Y301124D01*
X68612Y299750D01*
X71150Y297212D01*
X72524Y293895D01*
X72524Y290305D01*
X71150Y286988D01*
X68612Y284450D01*
X65295Y283076D01*
X61705Y283076D01*
G37*
G36*
X38862Y282060D02*
X38862Y291338D01*
X48140Y291338D01*
X48140Y290103D01*
X46612Y286413D01*
X43787Y283588D01*
X40097Y282060D01*
X38862Y282060D01*
G37*
G36*
X36103Y282060D02*
X32413Y283588D01*
X29588Y286413D01*
X28060Y290103D01*
X28060Y291338D01*
X37338Y291338D01*
X37338Y282060D01*
X36103Y282060D01*
G37*
G36*
X56556Y33840D02*
X49903Y35623D01*
X43937Y39067D01*
X39067Y43937D01*
X35623Y49903D01*
X33840Y56556D01*
X33840Y63444D01*
X35623Y70097D01*
X39067Y76063D01*
X43937Y80933D01*
X49903Y84377D01*
X56556Y86160D01*
X63444Y86160D01*
X70097Y84377D01*
X76063Y80933D01*
X80933Y76063D01*
X84377Y70097D01*
X86160Y63444D01*
X86160Y56556D01*
X84377Y49903D01*
X80933Y43937D01*
X76063Y39067D01*
X70097Y35623D01*
X63444Y33840D01*
X56556Y33840D01*
G37*
%LPD*%
G36*
X252790Y212911D02*
X253450Y213379D01*
X253875Y214067D01*
X254000Y214769D01*
X254000Y272911D01*
X253839Y273704D01*
X253382Y274371D01*
X252701Y274806D01*
X251903Y274942D01*
X251116Y274756D01*
X250531Y274348D01*
X249699Y273516D01*
X239850Y273516D01*
X239057Y273355D01*
X238413Y272921D01*
X229646Y264154D01*
X228885Y263999D01*
X228218Y263542D01*
X227800Y262906D01*
X226451Y259650D01*
X222950Y256149D01*
X218376Y254254D01*
X213424Y254254D01*
X208850Y256149D01*
X205349Y259650D01*
X203454Y264224D01*
X203454Y269176D01*
X205349Y273750D01*
X208850Y277251D01*
X213424Y279146D01*
X218376Y279146D01*
X222950Y277251D01*
X226451Y273750D01*
X226930Y272595D01*
X227382Y271924D01*
X228059Y271483D01*
X228856Y271341D01*
X229644Y271521D01*
X230244Y271936D01*
X231413Y273105D01*
X231859Y273779D01*
X232008Y274542D01*
X232008Y297649D01*
X232901Y298542D01*
X249699Y298542D01*
X250531Y297710D01*
X251205Y297263D01*
X252000Y297115D01*
X252790Y297289D01*
X253450Y297757D01*
X253875Y298445D01*
X254000Y299147D01*
X254000Y302833D01*
X253839Y303626D01*
X253382Y304293D01*
X252701Y304728D01*
X251903Y304864D01*
X251116Y304678D01*
X250531Y304270D01*
X249699Y303438D01*
X232901Y303438D01*
X232008Y304331D01*
X232008Y327571D01*
X232901Y328464D01*
X234538Y328464D01*
X235331Y328625D01*
X235998Y329082D01*
X236434Y329764D01*
X236569Y330561D01*
X236383Y331348D01*
X235975Y331933D01*
X230244Y337664D01*
X229570Y338111D01*
X228775Y338259D01*
X227985Y338085D01*
X227325Y337618D01*
X226930Y337005D01*
X226451Y335850D01*
X222950Y332349D01*
X218376Y330454D01*
X213424Y330454D01*
X208850Y332349D01*
X205349Y335850D01*
X204842Y337074D01*
X204390Y337744D01*
X203712Y338186D01*
X202965Y338328D01*
X197104Y338328D01*
X196311Y338167D01*
X195644Y337710D01*
X195209Y337029D01*
X195072Y336296D01*
X195072Y256735D01*
X195233Y255943D01*
X195667Y255299D01*
X209986Y240980D01*
X210660Y240533D01*
X211455Y240385D01*
X212201Y240539D01*
X213424Y241046D01*
X218376Y241046D01*
X222950Y239151D01*
X226451Y235650D01*
X227800Y232394D01*
X228252Y231724D01*
X228930Y231283D01*
X229646Y231146D01*
X243840Y216952D01*
X243840Y216196D01*
X244001Y215403D01*
X244458Y214736D01*
X245140Y214301D01*
X245872Y214164D01*
X249699Y214164D01*
X250531Y213332D01*
X251205Y212885D01*
X252000Y212737D01*
X252790Y212911D01*
G37*
D10*
X241300Y1001751D03*
X241300Y971829D03*
X241300Y887451D03*
X241300Y857529D03*
X241300Y773151D03*
X241300Y743229D03*
X241300Y658851D03*
X241300Y628929D03*
X241300Y544551D03*
X241300Y514629D03*
X241300Y430251D03*
X241300Y400329D03*
X241300Y315951D03*
X241300Y286029D03*
X241300Y201651D03*
X241300Y171729D03*
D11*
X114300Y292100D03*
D12*
X88900Y292100D03*
X63500Y292100D03*
X38100Y292100D03*
D11*
X453390Y191770D03*
D12*
X453390Y166370D03*
D11*
X76200Y622300D03*
D12*
X50800Y622300D03*
D11*
X453390Y991870D03*
D12*
X453390Y966470D03*
D11*
X453390Y877570D03*
D12*
X453390Y852170D03*
D11*
X453390Y763270D03*
D12*
X453390Y737870D03*
D11*
X453390Y648970D03*
D12*
X453390Y623570D03*
D11*
X453390Y534670D03*
D12*
X453390Y509270D03*
D11*
X453390Y420370D03*
D12*
X453390Y394970D03*
D11*
X453390Y306070D03*
D12*
X453390Y280670D03*
D13*
X35255Y425450D03*
X53645Y425450D03*
D14*
X215900Y952500D03*
X215900Y1028700D03*
D15*
X317500Y952500D03*
D14*
X393700Y952500D03*
X368300Y1028700D03*
X215900Y838200D03*
X215900Y914400D03*
D15*
X317500Y838200D03*
D14*
X393700Y838200D03*
X368300Y914400D03*
X215900Y723900D03*
X215900Y800100D03*
D15*
X317500Y723900D03*
D14*
X393700Y723900D03*
X368300Y800100D03*
X215900Y609600D03*
X215900Y685800D03*
D15*
X317500Y609600D03*
D14*
X393700Y609600D03*
X368300Y685800D03*
X215900Y495300D03*
X215900Y571500D03*
D15*
X317500Y495300D03*
D14*
X393700Y495300D03*
X368300Y571500D03*
X215900Y381000D03*
X215900Y457200D03*
D15*
X317500Y381000D03*
D14*
X393700Y381000D03*
X368300Y457200D03*
X215900Y266700D03*
X215900Y342900D03*
D15*
X317500Y266700D03*
D14*
X393700Y266700D03*
X368300Y342900D03*
X215900Y152400D03*
X215900Y228600D03*
D15*
X317500Y152400D03*
D14*
X393700Y152400D03*
X368300Y228600D03*
D16*
X60000Y60000D03*
X60000Y1140000D03*
X400000Y1140000D03*
X400000Y60000D03*
D17*
X88900Y417046D03*
X88900Y446554D03*
D18*
X61446Y368300D03*
X90954Y368300D03*
X90954Y330200D03*
X61446Y330200D03*
D19*
X114300Y317500D02*
X114300Y292100D01*
X114300Y317500D02*
X101600Y330200D01*
X90954Y330200D01*
X81280Y330200D01*
X76200Y335280D01*
X76200Y368300D01*
X71904Y417046D02*
X88900Y417046D01*
X71904Y417046D02*
X67310Y421640D01*
D20*
X67310Y421640D03*
D19*
X63500Y425450D02*
X53645Y425450D01*
X63500Y425450D02*
X67310Y421640D01*
D20*
X76200Y368300D03*
D19*
X61446Y368300D01*
D20*
X165100Y927100D03*
X165100Y469900D03*
X165100Y355600D03*
X165100Y127000D03*
X165100Y241300D03*
X165100Y584200D03*
X165100Y698500D03*
X165100Y812800D03*
X203200Y297180D03*
X66040Y388620D03*
X86360Y388620D03*
X66318Y482600D03*
X127000Y520700D03*
X50800Y596900D03*
X50800Y647700D03*
X76200Y584200D03*
X127000Y635000D03*
X165100Y520700D03*
X63500Y444500D03*
X38100Y444500D03*
X165100Y406400D03*
X38100Y317500D03*
X177800Y241300D03*
X127000Y241300D03*
X38100Y266700D03*
X127000Y127000D03*
X177800Y127000D03*
X127000Y749300D03*
X165100Y749300D03*
X127000Y863600D03*
X165100Y863600D03*
X127000Y977900D03*
X165100Y977900D03*
X24130Y407670D03*
D21*
X24130Y421945D01*
X27635Y425450D02*
X35255Y425450D01*
X27635Y425450D02*
X24130Y421945D01*
D22*
X76200Y622300D02*
X190500Y622300D01*
X190500Y685800D01*
X190500Y800100D01*
X190500Y914400D01*
X190500Y1003300D01*
X215900Y1028700D01*
X215900Y914400D02*
X190500Y914400D01*
X190500Y800100D02*
X215900Y800100D01*
X215900Y685800D02*
X190500Y685800D01*
X190500Y622300D02*
X190500Y571500D01*
X190500Y457200D01*
X190500Y342900D01*
X190500Y254000D01*
X215900Y228600D01*
X215900Y342900D02*
X190500Y342900D01*
X190500Y457200D02*
X215900Y457200D01*
X215900Y571500D02*
X190500Y571500D01*
D21*
X241300Y1003300D02*
X215900Y1028700D01*
X241300Y1003300D02*
X241300Y1001751D01*
X228600Y914400D02*
X215900Y914400D01*
X228600Y914400D02*
X241300Y901700D01*
X241300Y887451D01*
X228600Y800100D02*
X215900Y800100D01*
X228600Y800100D02*
X241300Y787400D01*
X241300Y773151D01*
X228600Y685800D02*
X215900Y685800D01*
X228600Y685800D02*
X241300Y673100D01*
X241300Y658851D01*
X228600Y571500D02*
X215900Y571500D01*
X228600Y571500D02*
X241300Y558800D01*
X241300Y544551D01*
X228600Y457200D02*
X215900Y457200D01*
X228600Y457200D02*
X241300Y444500D01*
X241300Y430251D01*
X228600Y342900D02*
X215900Y342900D01*
X228600Y342900D02*
X241300Y330200D01*
X241300Y315951D01*
X228600Y228600D02*
X215900Y228600D01*
X228600Y228600D02*
X241300Y215900D01*
X241300Y201651D01*
X221971Y952500D02*
X215900Y952500D01*
X221971Y952500D02*
X241300Y971829D01*
X228600Y838200D02*
X215900Y838200D01*
X228600Y838200D02*
X241300Y850900D01*
X241300Y857529D01*
X228600Y723900D02*
X215900Y723900D01*
X228600Y723900D02*
X241300Y736600D01*
X241300Y743229D01*
X228600Y609600D02*
X215900Y609600D01*
X228600Y609600D02*
X241300Y622300D01*
X241300Y628929D01*
X228600Y495300D02*
X215900Y495300D01*
X228600Y495300D02*
X241300Y508000D01*
X241300Y514629D01*
X228600Y381000D02*
X215900Y381000D01*
X228600Y381000D02*
X241300Y393700D01*
X241300Y400329D01*
X228600Y266700D02*
X215900Y266700D01*
X228600Y266700D02*
X241300Y279400D01*
X241300Y286029D01*
X228600Y152400D02*
X215900Y152400D01*
X228600Y152400D02*
X241300Y165100D01*
X241300Y171729D01*
D23*
X317500Y152400D02*
X356870Y191770D01*
X453390Y191770D01*
X356870Y306070D02*
X317500Y266700D01*
X356870Y306070D02*
X453390Y306070D01*
X356870Y420370D02*
X317500Y381000D01*
X356870Y420370D02*
X453390Y420370D01*
X356870Y534670D02*
X317500Y495300D01*
X356870Y534670D02*
X453390Y534670D01*
X356870Y648970D02*
X317500Y609600D01*
X356870Y648970D02*
X453390Y648970D01*
X356870Y763270D02*
X317500Y723900D01*
X356870Y763270D02*
X453390Y763270D01*
X356870Y877570D02*
X317500Y838200D01*
X356870Y877570D02*
X453390Y877570D01*
X356870Y991870D02*
X317500Y952500D01*
X356870Y991870D02*
X453390Y991870D01*
X439420Y952500D02*
X393700Y952500D01*
X439420Y952500D02*
X453390Y966470D01*
X439420Y838200D02*
X393700Y838200D01*
X439420Y838200D02*
X453390Y852170D01*
X439420Y723900D02*
X393700Y723900D01*
X439420Y723900D02*
X453390Y737870D01*
X439420Y609600D02*
X393700Y609600D01*
X439420Y609600D02*
X453390Y623570D01*
X439420Y495300D02*
X393700Y495300D01*
X439420Y495300D02*
X453390Y509270D01*
X439420Y381000D02*
X393700Y381000D01*
X439420Y381000D02*
X453390Y394970D01*
X439420Y266700D02*
X393700Y266700D01*
X439420Y266700D02*
X453390Y280670D01*
X439420Y152400D02*
X393700Y152400D01*
X439420Y152400D02*
X453390Y166370D01*
M02*
