G04 EAGLE Gerber RS-274X export*
G75*
%MOMM*%
%FSLAX34Y34*%
%LPD*%
%INSoldermask Top*%
%IPPOS*%
%AMOC8*
5,1,8,0,0,1.08239X$1,22.5*%
G01*
G04 Define Apertures*
%ADD10R,1.703200X1.703200*%
%ADD11C,1.703200*%
%ADD12R,1.553200X0.823200*%
%ADD13R,1.623400X1.234400*%
%ADD14C,2.387600*%
%ADD15P,2.58431X8X22.5*%
%ADD16R,1.234400X1.623400*%
%ADD17C,0.306600*%
%ADD18C,3.403200*%
%ADD19C,8.703200*%
%ADD20C,0.959600*%
D10*
X114300Y292100D03*
D11*
X88900Y292100D03*
X63500Y292100D03*
X38100Y292100D03*
D10*
X453390Y191770D03*
D11*
X453390Y166370D03*
D10*
X76200Y622300D03*
D11*
X50800Y622300D03*
D10*
X453390Y991870D03*
D11*
X453390Y966470D03*
D10*
X453390Y877570D03*
D11*
X453390Y852170D03*
D10*
X453390Y763270D03*
D11*
X453390Y737870D03*
D10*
X453390Y648970D03*
D11*
X453390Y623570D03*
D10*
X453390Y534670D03*
D11*
X453390Y509270D03*
D10*
X453390Y420370D03*
D11*
X453390Y394970D03*
D10*
X453390Y306070D03*
D11*
X453390Y280670D03*
D12*
X165266Y962000D03*
X165266Y943000D03*
X190334Y952500D03*
X165266Y847700D03*
X165266Y828700D03*
X190334Y838200D03*
X165266Y733400D03*
X165266Y714400D03*
X190334Y723900D03*
X165266Y619100D03*
X165266Y600100D03*
X190334Y609600D03*
X165266Y504800D03*
X165266Y485800D03*
X190334Y495300D03*
X165266Y390500D03*
X165266Y371500D03*
X190334Y381000D03*
X165266Y161900D03*
X165266Y142900D03*
X190334Y152400D03*
X165266Y276200D03*
X165266Y257200D03*
X190334Y266700D03*
D13*
X123190Y943305D03*
X123190Y961695D03*
X123190Y829005D03*
X123190Y847395D03*
X123190Y714705D03*
X123190Y733095D03*
X123190Y600405D03*
X123190Y618795D03*
X123190Y486105D03*
X123190Y504495D03*
X146050Y428295D03*
X146050Y409905D03*
X165100Y334315D03*
X165100Y315925D03*
X146050Y199695D03*
X146050Y181305D03*
X146050Y943305D03*
X146050Y961695D03*
X146050Y829005D03*
X146050Y847395D03*
D14*
X215900Y952500D03*
X215900Y1028700D03*
D15*
X317500Y952500D03*
D14*
X393700Y952500D03*
X368300Y1028700D03*
D13*
X146050Y714705D03*
X146050Y733095D03*
X146050Y600405D03*
X146050Y618795D03*
X146050Y486105D03*
X146050Y504495D03*
X146050Y371805D03*
X146050Y390195D03*
D16*
X183185Y297180D03*
X164795Y297180D03*
D13*
X146050Y143205D03*
X146050Y161595D03*
D14*
X215900Y838200D03*
X215900Y914400D03*
D15*
X317500Y838200D03*
D14*
X393700Y838200D03*
X368300Y914400D03*
X215900Y723900D03*
X215900Y800100D03*
D15*
X317500Y723900D03*
D14*
X393700Y723900D03*
X368300Y800100D03*
X215900Y609600D03*
X215900Y685800D03*
D15*
X317500Y609600D03*
D14*
X393700Y609600D03*
X368300Y685800D03*
X215900Y495300D03*
X215900Y571500D03*
D15*
X317500Y495300D03*
D14*
X393700Y495300D03*
X368300Y571500D03*
X215900Y381000D03*
X215900Y457200D03*
D15*
X317500Y381000D03*
D14*
X393700Y381000D03*
X368300Y457200D03*
X215900Y266700D03*
X215900Y342900D03*
D15*
X317500Y266700D03*
D14*
X393700Y266700D03*
X368300Y342900D03*
X215900Y152400D03*
X215900Y228600D03*
D15*
X317500Y152400D03*
D14*
X393700Y152400D03*
X368300Y228600D03*
D17*
X35783Y395767D02*
X35783Y410433D01*
X35783Y395767D02*
X32717Y395767D01*
X32717Y410433D01*
X35783Y410433D01*
X35783Y398680D02*
X32717Y398680D01*
X32717Y401593D02*
X35783Y401593D01*
X35783Y404506D02*
X32717Y404506D01*
X32717Y407419D02*
X35783Y407419D01*
X35783Y410332D02*
X32717Y410332D01*
X42283Y410433D02*
X42283Y395767D01*
X39217Y395767D01*
X39217Y410433D01*
X42283Y410433D01*
X42283Y398680D02*
X39217Y398680D01*
X39217Y401593D02*
X42283Y401593D01*
X42283Y404506D02*
X39217Y404506D01*
X39217Y407419D02*
X42283Y407419D01*
X42283Y410332D02*
X39217Y410332D01*
X48783Y410433D02*
X48783Y395767D01*
X45717Y395767D01*
X45717Y410433D01*
X48783Y410433D01*
X48783Y398680D02*
X45717Y398680D01*
X45717Y401593D02*
X48783Y401593D01*
X48783Y404506D02*
X45717Y404506D01*
X45717Y407419D02*
X48783Y407419D01*
X48783Y410332D02*
X45717Y410332D01*
X55283Y410433D02*
X55283Y395767D01*
X52217Y395767D01*
X52217Y410433D01*
X55283Y410433D01*
X55283Y398680D02*
X52217Y398680D01*
X52217Y401593D02*
X55283Y401593D01*
X55283Y404506D02*
X52217Y404506D01*
X52217Y407419D02*
X55283Y407419D01*
X55283Y410332D02*
X52217Y410332D01*
X61783Y410433D02*
X61783Y395767D01*
X58717Y395767D01*
X58717Y410433D01*
X61783Y410433D01*
X61783Y398680D02*
X58717Y398680D01*
X58717Y401593D02*
X61783Y401593D01*
X61783Y404506D02*
X58717Y404506D01*
X58717Y407419D02*
X61783Y407419D01*
X61783Y410332D02*
X58717Y410332D01*
X68283Y410433D02*
X68283Y395767D01*
X65217Y395767D01*
X65217Y410433D01*
X68283Y410433D01*
X68283Y398680D02*
X65217Y398680D01*
X65217Y401593D02*
X68283Y401593D01*
X68283Y404506D02*
X65217Y404506D01*
X65217Y407419D02*
X68283Y407419D01*
X68283Y410332D02*
X65217Y410332D01*
X74783Y410433D02*
X74783Y395767D01*
X71717Y395767D01*
X71717Y410433D01*
X74783Y410433D01*
X74783Y398680D02*
X71717Y398680D01*
X71717Y401593D02*
X74783Y401593D01*
X74783Y404506D02*
X71717Y404506D01*
X71717Y407419D02*
X74783Y407419D01*
X74783Y410332D02*
X71717Y410332D01*
X81283Y410433D02*
X81283Y395767D01*
X78217Y395767D01*
X78217Y410433D01*
X81283Y410433D01*
X81283Y398680D02*
X78217Y398680D01*
X78217Y401593D02*
X81283Y401593D01*
X81283Y404506D02*
X78217Y404506D01*
X78217Y407419D02*
X81283Y407419D01*
X81283Y410332D02*
X78217Y410332D01*
X87783Y410433D02*
X87783Y395767D01*
X84717Y395767D01*
X84717Y410433D01*
X87783Y410433D01*
X87783Y398680D02*
X84717Y398680D01*
X84717Y401593D02*
X87783Y401593D01*
X87783Y404506D02*
X84717Y404506D01*
X84717Y407419D02*
X87783Y407419D01*
X87783Y410332D02*
X84717Y410332D01*
X94283Y410433D02*
X94283Y395767D01*
X91217Y395767D01*
X91217Y410433D01*
X94283Y410433D01*
X94283Y398680D02*
X91217Y398680D01*
X91217Y401593D02*
X94283Y401593D01*
X94283Y404506D02*
X91217Y404506D01*
X91217Y407419D02*
X94283Y407419D01*
X94283Y410332D02*
X91217Y410332D01*
X94283Y453167D02*
X94283Y467833D01*
X94283Y453167D02*
X91217Y453167D01*
X91217Y467833D01*
X94283Y467833D01*
X94283Y456080D02*
X91217Y456080D01*
X91217Y458993D02*
X94283Y458993D01*
X94283Y461906D02*
X91217Y461906D01*
X91217Y464819D02*
X94283Y464819D01*
X94283Y467732D02*
X91217Y467732D01*
X87783Y467833D02*
X87783Y453167D01*
X84717Y453167D01*
X84717Y467833D01*
X87783Y467833D01*
X87783Y456080D02*
X84717Y456080D01*
X84717Y458993D02*
X87783Y458993D01*
X87783Y461906D02*
X84717Y461906D01*
X84717Y464819D02*
X87783Y464819D01*
X87783Y467732D02*
X84717Y467732D01*
X81283Y467833D02*
X81283Y453167D01*
X78217Y453167D01*
X78217Y467833D01*
X81283Y467833D01*
X81283Y456080D02*
X78217Y456080D01*
X78217Y458993D02*
X81283Y458993D01*
X81283Y461906D02*
X78217Y461906D01*
X78217Y464819D02*
X81283Y464819D01*
X81283Y467732D02*
X78217Y467732D01*
X74783Y467833D02*
X74783Y453167D01*
X71717Y453167D01*
X71717Y467833D01*
X74783Y467833D01*
X74783Y456080D02*
X71717Y456080D01*
X71717Y458993D02*
X74783Y458993D01*
X74783Y461906D02*
X71717Y461906D01*
X71717Y464819D02*
X74783Y464819D01*
X74783Y467732D02*
X71717Y467732D01*
X68283Y467833D02*
X68283Y453167D01*
X65217Y453167D01*
X65217Y467833D01*
X68283Y467833D01*
X68283Y456080D02*
X65217Y456080D01*
X65217Y458993D02*
X68283Y458993D01*
X68283Y461906D02*
X65217Y461906D01*
X65217Y464819D02*
X68283Y464819D01*
X68283Y467732D02*
X65217Y467732D01*
X61783Y467833D02*
X61783Y453167D01*
X58717Y453167D01*
X58717Y467833D01*
X61783Y467833D01*
X61783Y456080D02*
X58717Y456080D01*
X58717Y458993D02*
X61783Y458993D01*
X61783Y461906D02*
X58717Y461906D01*
X58717Y464819D02*
X61783Y464819D01*
X61783Y467732D02*
X58717Y467732D01*
X55283Y467833D02*
X55283Y453167D01*
X52217Y453167D01*
X52217Y467833D01*
X55283Y467833D01*
X55283Y456080D02*
X52217Y456080D01*
X52217Y458993D02*
X55283Y458993D01*
X55283Y461906D02*
X52217Y461906D01*
X52217Y464819D02*
X55283Y464819D01*
X55283Y467732D02*
X52217Y467732D01*
X48783Y467833D02*
X48783Y453167D01*
X45717Y453167D01*
X45717Y467833D01*
X48783Y467833D01*
X48783Y456080D02*
X45717Y456080D01*
X45717Y458993D02*
X48783Y458993D01*
X48783Y461906D02*
X45717Y461906D01*
X45717Y464819D02*
X48783Y464819D01*
X48783Y467732D02*
X45717Y467732D01*
X42283Y467833D02*
X42283Y453167D01*
X39217Y453167D01*
X39217Y467833D01*
X42283Y467833D01*
X42283Y456080D02*
X39217Y456080D01*
X39217Y458993D02*
X42283Y458993D01*
X42283Y461906D02*
X39217Y461906D01*
X39217Y464819D02*
X42283Y464819D01*
X42283Y467732D02*
X39217Y467732D01*
X35783Y467833D02*
X35783Y453167D01*
X32717Y453167D01*
X32717Y467833D01*
X35783Y467833D01*
X35783Y456080D02*
X32717Y456080D01*
X32717Y458993D02*
X35783Y458993D01*
X35783Y461906D02*
X32717Y461906D01*
X32717Y464819D02*
X35783Y464819D01*
X35783Y467732D02*
X32717Y467732D01*
D18*
X60000Y60000D03*
D19*
X60000Y60000D03*
D18*
X60000Y1140000D03*
D19*
X60000Y1140000D03*
D18*
X400000Y1140000D03*
D19*
X400000Y1140000D03*
D18*
X400000Y60000D03*
D19*
X400000Y60000D03*
D20*
X67310Y421640D03*
X76200Y368300D03*
X165100Y927100D03*
X165100Y469900D03*
X165100Y355600D03*
X165100Y127000D03*
X165100Y241300D03*
X165100Y584200D03*
X165100Y698500D03*
X165100Y812800D03*
X203200Y297180D03*
X66040Y388620D03*
X86360Y388620D03*
X66318Y482600D03*
X127000Y520700D03*
X50800Y596900D03*
X50800Y647700D03*
X76200Y584200D03*
X127000Y635000D03*
X165100Y520700D03*
X63500Y444500D03*
X38100Y444500D03*
X165100Y406400D03*
X38100Y317500D03*
X177800Y241300D03*
X127000Y241300D03*
X38100Y266700D03*
X127000Y127000D03*
X177800Y127000D03*
X127000Y749300D03*
X165100Y749300D03*
X127000Y863600D03*
X165100Y863600D03*
X127000Y977900D03*
X165100Y977900D03*
X24130Y407670D03*
M02*
