G04 EAGLE Gerber RS-274X export*
G75*
%MOMM*%
%FSLAX34Y34*%
%LPD*%
%INSolderpaste Top*%
%IPPOS*%
%AMOC8*
5,1,8,0,0,1.08239X$1,22.5*%
G01*
G04 Define Apertures*
%ADD10R,1.350000X0.620000*%
%ADD11R,1.420200X1.031200*%
%ADD12R,1.031200X1.420200*%
%ADD13C,0.102500*%
D10*
X165266Y962000D03*
X165266Y943000D03*
X190334Y952500D03*
X165266Y847700D03*
X165266Y828700D03*
X190334Y838200D03*
X165266Y733400D03*
X165266Y714400D03*
X190334Y723900D03*
X165266Y619100D03*
X165266Y600100D03*
X190334Y609600D03*
X165266Y504800D03*
X165266Y485800D03*
X190334Y495300D03*
X165266Y390500D03*
X165266Y371500D03*
X190334Y381000D03*
X165266Y161900D03*
X165266Y142900D03*
X190334Y152400D03*
X165266Y276200D03*
X165266Y257200D03*
X190334Y266700D03*
D11*
X123190Y943305D03*
X123190Y961695D03*
X123190Y829005D03*
X123190Y847395D03*
X123190Y714705D03*
X123190Y733095D03*
X123190Y600405D03*
X123190Y618795D03*
X123190Y486105D03*
X123190Y504495D03*
X146050Y428295D03*
X146050Y409905D03*
X165100Y334315D03*
X165100Y315925D03*
X146050Y199695D03*
X146050Y181305D03*
X146050Y943305D03*
X146050Y961695D03*
X146050Y829005D03*
X146050Y847395D03*
X146050Y714705D03*
X146050Y733095D03*
X146050Y600405D03*
X146050Y618795D03*
X146050Y486105D03*
X146050Y504495D03*
X146050Y371805D03*
X146050Y390195D03*
D12*
X183185Y297180D03*
X164795Y297180D03*
D11*
X146050Y143205D03*
X146050Y161595D03*
D13*
X35788Y395762D02*
X35788Y410438D01*
X35788Y395762D02*
X32712Y395762D01*
X32712Y410438D01*
X35788Y410438D01*
X35788Y396736D02*
X32712Y396736D01*
X32712Y397710D02*
X35788Y397710D01*
X35788Y398684D02*
X32712Y398684D01*
X32712Y399658D02*
X35788Y399658D01*
X35788Y400632D02*
X32712Y400632D01*
X32712Y401606D02*
X35788Y401606D01*
X35788Y402580D02*
X32712Y402580D01*
X32712Y403554D02*
X35788Y403554D01*
X35788Y404528D02*
X32712Y404528D01*
X32712Y405502D02*
X35788Y405502D01*
X35788Y406476D02*
X32712Y406476D01*
X32712Y407450D02*
X35788Y407450D01*
X35788Y408424D02*
X32712Y408424D01*
X32712Y409398D02*
X35788Y409398D01*
X35788Y410372D02*
X32712Y410372D01*
X42288Y410438D02*
X42288Y395762D01*
X39212Y395762D01*
X39212Y410438D01*
X42288Y410438D01*
X42288Y396736D02*
X39212Y396736D01*
X39212Y397710D02*
X42288Y397710D01*
X42288Y398684D02*
X39212Y398684D01*
X39212Y399658D02*
X42288Y399658D01*
X42288Y400632D02*
X39212Y400632D01*
X39212Y401606D02*
X42288Y401606D01*
X42288Y402580D02*
X39212Y402580D01*
X39212Y403554D02*
X42288Y403554D01*
X42288Y404528D02*
X39212Y404528D01*
X39212Y405502D02*
X42288Y405502D01*
X42288Y406476D02*
X39212Y406476D01*
X39212Y407450D02*
X42288Y407450D01*
X42288Y408424D02*
X39212Y408424D01*
X39212Y409398D02*
X42288Y409398D01*
X42288Y410372D02*
X39212Y410372D01*
X48788Y410438D02*
X48788Y395762D01*
X45712Y395762D01*
X45712Y410438D01*
X48788Y410438D01*
X48788Y396736D02*
X45712Y396736D01*
X45712Y397710D02*
X48788Y397710D01*
X48788Y398684D02*
X45712Y398684D01*
X45712Y399658D02*
X48788Y399658D01*
X48788Y400632D02*
X45712Y400632D01*
X45712Y401606D02*
X48788Y401606D01*
X48788Y402580D02*
X45712Y402580D01*
X45712Y403554D02*
X48788Y403554D01*
X48788Y404528D02*
X45712Y404528D01*
X45712Y405502D02*
X48788Y405502D01*
X48788Y406476D02*
X45712Y406476D01*
X45712Y407450D02*
X48788Y407450D01*
X48788Y408424D02*
X45712Y408424D01*
X45712Y409398D02*
X48788Y409398D01*
X48788Y410372D02*
X45712Y410372D01*
X55288Y410438D02*
X55288Y395762D01*
X52212Y395762D01*
X52212Y410438D01*
X55288Y410438D01*
X55288Y396736D02*
X52212Y396736D01*
X52212Y397710D02*
X55288Y397710D01*
X55288Y398684D02*
X52212Y398684D01*
X52212Y399658D02*
X55288Y399658D01*
X55288Y400632D02*
X52212Y400632D01*
X52212Y401606D02*
X55288Y401606D01*
X55288Y402580D02*
X52212Y402580D01*
X52212Y403554D02*
X55288Y403554D01*
X55288Y404528D02*
X52212Y404528D01*
X52212Y405502D02*
X55288Y405502D01*
X55288Y406476D02*
X52212Y406476D01*
X52212Y407450D02*
X55288Y407450D01*
X55288Y408424D02*
X52212Y408424D01*
X52212Y409398D02*
X55288Y409398D01*
X55288Y410372D02*
X52212Y410372D01*
X61788Y410438D02*
X61788Y395762D01*
X58712Y395762D01*
X58712Y410438D01*
X61788Y410438D01*
X61788Y396736D02*
X58712Y396736D01*
X58712Y397710D02*
X61788Y397710D01*
X61788Y398684D02*
X58712Y398684D01*
X58712Y399658D02*
X61788Y399658D01*
X61788Y400632D02*
X58712Y400632D01*
X58712Y401606D02*
X61788Y401606D01*
X61788Y402580D02*
X58712Y402580D01*
X58712Y403554D02*
X61788Y403554D01*
X61788Y404528D02*
X58712Y404528D01*
X58712Y405502D02*
X61788Y405502D01*
X61788Y406476D02*
X58712Y406476D01*
X58712Y407450D02*
X61788Y407450D01*
X61788Y408424D02*
X58712Y408424D01*
X58712Y409398D02*
X61788Y409398D01*
X61788Y410372D02*
X58712Y410372D01*
X68288Y410438D02*
X68288Y395762D01*
X65212Y395762D01*
X65212Y410438D01*
X68288Y410438D01*
X68288Y396736D02*
X65212Y396736D01*
X65212Y397710D02*
X68288Y397710D01*
X68288Y398684D02*
X65212Y398684D01*
X65212Y399658D02*
X68288Y399658D01*
X68288Y400632D02*
X65212Y400632D01*
X65212Y401606D02*
X68288Y401606D01*
X68288Y402580D02*
X65212Y402580D01*
X65212Y403554D02*
X68288Y403554D01*
X68288Y404528D02*
X65212Y404528D01*
X65212Y405502D02*
X68288Y405502D01*
X68288Y406476D02*
X65212Y406476D01*
X65212Y407450D02*
X68288Y407450D01*
X68288Y408424D02*
X65212Y408424D01*
X65212Y409398D02*
X68288Y409398D01*
X68288Y410372D02*
X65212Y410372D01*
X74788Y410438D02*
X74788Y395762D01*
X71712Y395762D01*
X71712Y410438D01*
X74788Y410438D01*
X74788Y396736D02*
X71712Y396736D01*
X71712Y397710D02*
X74788Y397710D01*
X74788Y398684D02*
X71712Y398684D01*
X71712Y399658D02*
X74788Y399658D01*
X74788Y400632D02*
X71712Y400632D01*
X71712Y401606D02*
X74788Y401606D01*
X74788Y402580D02*
X71712Y402580D01*
X71712Y403554D02*
X74788Y403554D01*
X74788Y404528D02*
X71712Y404528D01*
X71712Y405502D02*
X74788Y405502D01*
X74788Y406476D02*
X71712Y406476D01*
X71712Y407450D02*
X74788Y407450D01*
X74788Y408424D02*
X71712Y408424D01*
X71712Y409398D02*
X74788Y409398D01*
X74788Y410372D02*
X71712Y410372D01*
X81288Y410438D02*
X81288Y395762D01*
X78212Y395762D01*
X78212Y410438D01*
X81288Y410438D01*
X81288Y396736D02*
X78212Y396736D01*
X78212Y397710D02*
X81288Y397710D01*
X81288Y398684D02*
X78212Y398684D01*
X78212Y399658D02*
X81288Y399658D01*
X81288Y400632D02*
X78212Y400632D01*
X78212Y401606D02*
X81288Y401606D01*
X81288Y402580D02*
X78212Y402580D01*
X78212Y403554D02*
X81288Y403554D01*
X81288Y404528D02*
X78212Y404528D01*
X78212Y405502D02*
X81288Y405502D01*
X81288Y406476D02*
X78212Y406476D01*
X78212Y407450D02*
X81288Y407450D01*
X81288Y408424D02*
X78212Y408424D01*
X78212Y409398D02*
X81288Y409398D01*
X81288Y410372D02*
X78212Y410372D01*
X87788Y410438D02*
X87788Y395762D01*
X84712Y395762D01*
X84712Y410438D01*
X87788Y410438D01*
X87788Y396736D02*
X84712Y396736D01*
X84712Y397710D02*
X87788Y397710D01*
X87788Y398684D02*
X84712Y398684D01*
X84712Y399658D02*
X87788Y399658D01*
X87788Y400632D02*
X84712Y400632D01*
X84712Y401606D02*
X87788Y401606D01*
X87788Y402580D02*
X84712Y402580D01*
X84712Y403554D02*
X87788Y403554D01*
X87788Y404528D02*
X84712Y404528D01*
X84712Y405502D02*
X87788Y405502D01*
X87788Y406476D02*
X84712Y406476D01*
X84712Y407450D02*
X87788Y407450D01*
X87788Y408424D02*
X84712Y408424D01*
X84712Y409398D02*
X87788Y409398D01*
X87788Y410372D02*
X84712Y410372D01*
X94288Y410438D02*
X94288Y395762D01*
X91212Y395762D01*
X91212Y410438D01*
X94288Y410438D01*
X94288Y396736D02*
X91212Y396736D01*
X91212Y397710D02*
X94288Y397710D01*
X94288Y398684D02*
X91212Y398684D01*
X91212Y399658D02*
X94288Y399658D01*
X94288Y400632D02*
X91212Y400632D01*
X91212Y401606D02*
X94288Y401606D01*
X94288Y402580D02*
X91212Y402580D01*
X91212Y403554D02*
X94288Y403554D01*
X94288Y404528D02*
X91212Y404528D01*
X91212Y405502D02*
X94288Y405502D01*
X94288Y406476D02*
X91212Y406476D01*
X91212Y407450D02*
X94288Y407450D01*
X94288Y408424D02*
X91212Y408424D01*
X91212Y409398D02*
X94288Y409398D01*
X94288Y410372D02*
X91212Y410372D01*
X94288Y453162D02*
X94288Y467838D01*
X94288Y453162D02*
X91212Y453162D01*
X91212Y467838D01*
X94288Y467838D01*
X94288Y454136D02*
X91212Y454136D01*
X91212Y455110D02*
X94288Y455110D01*
X94288Y456084D02*
X91212Y456084D01*
X91212Y457058D02*
X94288Y457058D01*
X94288Y458032D02*
X91212Y458032D01*
X91212Y459006D02*
X94288Y459006D01*
X94288Y459980D02*
X91212Y459980D01*
X91212Y460954D02*
X94288Y460954D01*
X94288Y461928D02*
X91212Y461928D01*
X91212Y462902D02*
X94288Y462902D01*
X94288Y463876D02*
X91212Y463876D01*
X91212Y464850D02*
X94288Y464850D01*
X94288Y465824D02*
X91212Y465824D01*
X91212Y466798D02*
X94288Y466798D01*
X94288Y467772D02*
X91212Y467772D01*
X87788Y467838D02*
X87788Y453162D01*
X84712Y453162D01*
X84712Y467838D01*
X87788Y467838D01*
X87788Y454136D02*
X84712Y454136D01*
X84712Y455110D02*
X87788Y455110D01*
X87788Y456084D02*
X84712Y456084D01*
X84712Y457058D02*
X87788Y457058D01*
X87788Y458032D02*
X84712Y458032D01*
X84712Y459006D02*
X87788Y459006D01*
X87788Y459980D02*
X84712Y459980D01*
X84712Y460954D02*
X87788Y460954D01*
X87788Y461928D02*
X84712Y461928D01*
X84712Y462902D02*
X87788Y462902D01*
X87788Y463876D02*
X84712Y463876D01*
X84712Y464850D02*
X87788Y464850D01*
X87788Y465824D02*
X84712Y465824D01*
X84712Y466798D02*
X87788Y466798D01*
X87788Y467772D02*
X84712Y467772D01*
X81288Y467838D02*
X81288Y453162D01*
X78212Y453162D01*
X78212Y467838D01*
X81288Y467838D01*
X81288Y454136D02*
X78212Y454136D01*
X78212Y455110D02*
X81288Y455110D01*
X81288Y456084D02*
X78212Y456084D01*
X78212Y457058D02*
X81288Y457058D01*
X81288Y458032D02*
X78212Y458032D01*
X78212Y459006D02*
X81288Y459006D01*
X81288Y459980D02*
X78212Y459980D01*
X78212Y460954D02*
X81288Y460954D01*
X81288Y461928D02*
X78212Y461928D01*
X78212Y462902D02*
X81288Y462902D01*
X81288Y463876D02*
X78212Y463876D01*
X78212Y464850D02*
X81288Y464850D01*
X81288Y465824D02*
X78212Y465824D01*
X78212Y466798D02*
X81288Y466798D01*
X81288Y467772D02*
X78212Y467772D01*
X74788Y467838D02*
X74788Y453162D01*
X71712Y453162D01*
X71712Y467838D01*
X74788Y467838D01*
X74788Y454136D02*
X71712Y454136D01*
X71712Y455110D02*
X74788Y455110D01*
X74788Y456084D02*
X71712Y456084D01*
X71712Y457058D02*
X74788Y457058D01*
X74788Y458032D02*
X71712Y458032D01*
X71712Y459006D02*
X74788Y459006D01*
X74788Y459980D02*
X71712Y459980D01*
X71712Y460954D02*
X74788Y460954D01*
X74788Y461928D02*
X71712Y461928D01*
X71712Y462902D02*
X74788Y462902D01*
X74788Y463876D02*
X71712Y463876D01*
X71712Y464850D02*
X74788Y464850D01*
X74788Y465824D02*
X71712Y465824D01*
X71712Y466798D02*
X74788Y466798D01*
X74788Y467772D02*
X71712Y467772D01*
X68288Y467838D02*
X68288Y453162D01*
X65212Y453162D01*
X65212Y467838D01*
X68288Y467838D01*
X68288Y454136D02*
X65212Y454136D01*
X65212Y455110D02*
X68288Y455110D01*
X68288Y456084D02*
X65212Y456084D01*
X65212Y457058D02*
X68288Y457058D01*
X68288Y458032D02*
X65212Y458032D01*
X65212Y459006D02*
X68288Y459006D01*
X68288Y459980D02*
X65212Y459980D01*
X65212Y460954D02*
X68288Y460954D01*
X68288Y461928D02*
X65212Y461928D01*
X65212Y462902D02*
X68288Y462902D01*
X68288Y463876D02*
X65212Y463876D01*
X65212Y464850D02*
X68288Y464850D01*
X68288Y465824D02*
X65212Y465824D01*
X65212Y466798D02*
X68288Y466798D01*
X68288Y467772D02*
X65212Y467772D01*
X61788Y467838D02*
X61788Y453162D01*
X58712Y453162D01*
X58712Y467838D01*
X61788Y467838D01*
X61788Y454136D02*
X58712Y454136D01*
X58712Y455110D02*
X61788Y455110D01*
X61788Y456084D02*
X58712Y456084D01*
X58712Y457058D02*
X61788Y457058D01*
X61788Y458032D02*
X58712Y458032D01*
X58712Y459006D02*
X61788Y459006D01*
X61788Y459980D02*
X58712Y459980D01*
X58712Y460954D02*
X61788Y460954D01*
X61788Y461928D02*
X58712Y461928D01*
X58712Y462902D02*
X61788Y462902D01*
X61788Y463876D02*
X58712Y463876D01*
X58712Y464850D02*
X61788Y464850D01*
X61788Y465824D02*
X58712Y465824D01*
X58712Y466798D02*
X61788Y466798D01*
X61788Y467772D02*
X58712Y467772D01*
X55288Y467838D02*
X55288Y453162D01*
X52212Y453162D01*
X52212Y467838D01*
X55288Y467838D01*
X55288Y454136D02*
X52212Y454136D01*
X52212Y455110D02*
X55288Y455110D01*
X55288Y456084D02*
X52212Y456084D01*
X52212Y457058D02*
X55288Y457058D01*
X55288Y458032D02*
X52212Y458032D01*
X52212Y459006D02*
X55288Y459006D01*
X55288Y459980D02*
X52212Y459980D01*
X52212Y460954D02*
X55288Y460954D01*
X55288Y461928D02*
X52212Y461928D01*
X52212Y462902D02*
X55288Y462902D01*
X55288Y463876D02*
X52212Y463876D01*
X52212Y464850D02*
X55288Y464850D01*
X55288Y465824D02*
X52212Y465824D01*
X52212Y466798D02*
X55288Y466798D01*
X55288Y467772D02*
X52212Y467772D01*
X48788Y467838D02*
X48788Y453162D01*
X45712Y453162D01*
X45712Y467838D01*
X48788Y467838D01*
X48788Y454136D02*
X45712Y454136D01*
X45712Y455110D02*
X48788Y455110D01*
X48788Y456084D02*
X45712Y456084D01*
X45712Y457058D02*
X48788Y457058D01*
X48788Y458032D02*
X45712Y458032D01*
X45712Y459006D02*
X48788Y459006D01*
X48788Y459980D02*
X45712Y459980D01*
X45712Y460954D02*
X48788Y460954D01*
X48788Y461928D02*
X45712Y461928D01*
X45712Y462902D02*
X48788Y462902D01*
X48788Y463876D02*
X45712Y463876D01*
X45712Y464850D02*
X48788Y464850D01*
X48788Y465824D02*
X45712Y465824D01*
X45712Y466798D02*
X48788Y466798D01*
X48788Y467772D02*
X45712Y467772D01*
X42288Y467838D02*
X42288Y453162D01*
X39212Y453162D01*
X39212Y467838D01*
X42288Y467838D01*
X42288Y454136D02*
X39212Y454136D01*
X39212Y455110D02*
X42288Y455110D01*
X42288Y456084D02*
X39212Y456084D01*
X39212Y457058D02*
X42288Y457058D01*
X42288Y458032D02*
X39212Y458032D01*
X39212Y459006D02*
X42288Y459006D01*
X42288Y459980D02*
X39212Y459980D01*
X39212Y460954D02*
X42288Y460954D01*
X42288Y461928D02*
X39212Y461928D01*
X39212Y462902D02*
X42288Y462902D01*
X42288Y463876D02*
X39212Y463876D01*
X39212Y464850D02*
X42288Y464850D01*
X42288Y465824D02*
X39212Y465824D01*
X39212Y466798D02*
X42288Y466798D01*
X42288Y467772D02*
X39212Y467772D01*
X35788Y467838D02*
X35788Y453162D01*
X32712Y453162D01*
X32712Y467838D01*
X35788Y467838D01*
X35788Y454136D02*
X32712Y454136D01*
X32712Y455110D02*
X35788Y455110D01*
X35788Y456084D02*
X32712Y456084D01*
X32712Y457058D02*
X35788Y457058D01*
X35788Y458032D02*
X32712Y458032D01*
X32712Y459006D02*
X35788Y459006D01*
X35788Y459980D02*
X32712Y459980D01*
X32712Y460954D02*
X35788Y460954D01*
X35788Y461928D02*
X32712Y461928D01*
X32712Y462902D02*
X35788Y462902D01*
X35788Y463876D02*
X32712Y463876D01*
X32712Y464850D02*
X35788Y464850D01*
X35788Y465824D02*
X32712Y465824D01*
X32712Y466798D02*
X35788Y466798D01*
X35788Y467772D02*
X32712Y467772D01*
M02*
