M48
;GenerationSoftware,Autodesk,EAGLE,9.7.0*%
;CreationDate,2022-05-23T02:04:03Z*%
FMAT,2
ICI,OFF
METRIC,TZ,000.000
T12C0.350
T11C0.800
T10C0.900
T9C0.991
T8C1.000
T7C1.100
T6C1.200
T5C1.300
T4C2.375
T3C2.600
T2C3.200
%
G90
M71
T2
X104000Y6000
X6000Y6000
X6000Y44000
X104000Y44000
X104000Y6000
X6000Y6000
X6000Y44000
X104000Y44000
T3
X79920Y36830
X79920Y11430
T4
X19050Y8509
X24765Y8509
X24765Y3429
X19050Y3429
T5
X96560Y26630
X96560Y21630
X101560Y26630
X101560Y21630
T6
X61849Y13601
X61849Y35421
T7
X76200Y26670
X76200Y24130
X76200Y21590
T8
X50419Y14224
X47879Y14224
X45339Y14224
T9
X26670Y4954
X19050Y5969
X26670Y6984
T10
X51562Y3937
X49022Y3937
X46482Y3937
X40894Y3925
X38354Y3925
X35814Y3925
X54102Y3937
X33274Y3925
T11
X62230Y3810
X62230Y6350
T12
X24130Y19050
X22860Y20320
X19050Y17780
X19050Y13970
X16510Y17780
X15240Y19050
X16510Y22860
X12700Y22860
X12700Y20320
X12700Y25400
X12700Y27940
X12700Y30480
X6350Y30480
X6350Y27940
X6350Y25400
X6350Y22860
X6350Y20320
X6350Y17780
X6350Y15240
X8890Y11430
X11430Y11430
X11430Y8890
X17526Y10414
X16891Y9144
X16891Y7620
X62230Y26670
X60960Y25400
X60960Y24130
X62230Y22860
X53340Y24130
X53340Y27432
X54610Y27432
X55880Y27432
X50800Y26670
X49530Y26670
X51562Y23749
X78740Y24130
X81280Y24130
X83820Y24130
X86360Y24130
X87630Y22860
X88900Y21590
X91440Y21590
X93980Y21590
X35560Y20320
X35560Y22860
X22868Y3421
X38100Y20320
X38100Y22860
X40640Y22860
X45847Y21082
X20447Y14478
X15367Y15621
X40363Y13017
X42291Y8255
X53721Y19685
X16383Y14732
X16653Y5842
X52832Y25527
X24130Y15367
X20066Y18796
X41656Y25019
X19812Y10795
X21397Y2347
X37465Y8255
X35052Y10668
X37338Y10668
X45720Y22860
X58420Y27940
X49530Y31750
X22098Y3937
X9525Y14097
X8636Y14097
X15494Y16891
X23749Y17399
X22352Y7620
X27305Y8128
X20831Y7620
X8636Y29083
X8636Y18916
X8636Y21456
X8636Y23996
X8636Y26536
X8636Y31750
X8636Y16383
X57531Y14224
X46482Y27432
X41656Y29464
X55626Y34671
X57023Y21336
X48768Y19743
X48260Y26670
X40640Y27940
X40640Y26670
X43180Y17780
X40640Y17780
X38100Y17780
X35560Y17780
X43180Y15240
X43180Y12700
X52070Y21590
X52070Y20320
X55880Y19050
X56388Y15621
X56388Y12827
X60949Y3810
X63511Y3810
X44450Y3810
X31750Y3810
X24130Y12700
M30