G04 EAGLE Gerber RS-274X export*
G75*
%MOMM*%
%FSLAX34Y34*%
%LPD*%
%INSoldermask Bottom*%
%IPPOS*%
%AMOC8*
5,1,8,0,0,1.08239X$1,22.5*%
G01*
G04 Define Apertures*
%ADD10R,1.234400X1.623400*%
%ADD11C,2.387600*%
%ADD12R,0.798200X1.463700*%
%ADD13C,1.193800*%
%ADD14C,2.578100*%
%ADD15R,1.703200X1.703200*%
%ADD16C,1.703200*%
%ADD17R,1.879600X1.879600*%
%ADD18C,1.879600*%
%ADD19R,2.133600X2.133600*%
%ADD20C,2.133600*%
%ADD21C,3.819200*%
%ADD22C,3.403200*%
%ADD23C,8.703200*%
%ADD24R,1.367800X1.668500*%
%ADD25R,2.331600X2.427500*%
%ADD26C,0.959600*%
D10*
X152705Y62230D03*
X134315Y62230D03*
D11*
X965600Y266300D03*
X965600Y216300D03*
X1015600Y266300D03*
X1015600Y216300D03*
X618490Y136010D03*
X618490Y354210D03*
D12*
X550570Y258661D03*
X560070Y258661D03*
X569570Y258661D03*
X569570Y234099D03*
X560070Y234099D03*
X550570Y234099D03*
D13*
X190500Y59690D03*
X266700Y69840D03*
X266700Y49540D03*
D14*
X190500Y85090D03*
X247650Y85090D03*
X247650Y34290D03*
X190500Y34290D03*
D15*
X408940Y39250D03*
D16*
X383540Y39250D03*
X358140Y39250D03*
X332740Y39250D03*
D15*
X541020Y39370D03*
D16*
X515620Y39370D03*
X490220Y39370D03*
X464820Y39370D03*
D17*
X504190Y142240D03*
D18*
X478790Y142240D03*
X453390Y142240D03*
D15*
X622300Y63500D03*
D16*
X622300Y38100D03*
D19*
X762000Y266700D03*
D20*
X762000Y241300D03*
X762000Y215900D03*
D21*
X799200Y368300D03*
X799200Y114300D03*
D22*
X60000Y60000D03*
D23*
X60000Y60000D03*
D22*
X60000Y440000D03*
D23*
X60000Y440000D03*
D22*
X1040000Y440000D03*
D23*
X1040000Y440000D03*
D22*
X1040000Y60000D03*
D23*
X1040000Y60000D03*
D24*
X541156Y213360D03*
X558664Y213360D03*
D25*
X300990Y87346D03*
X300990Y120934D03*
D26*
X95250Y140970D03*
X86360Y140970D03*
X154940Y168910D03*
X237490Y173990D03*
X223520Y76200D03*
X273050Y81280D03*
X208308Y76200D03*
X86360Y290830D03*
X86360Y189163D03*
X86360Y214563D03*
X86360Y239963D03*
X86360Y265363D03*
X86360Y317500D03*
X86360Y163830D03*
X575310Y142240D03*
X464820Y274320D03*
X416560Y294640D03*
X556260Y346710D03*
X515620Y237490D03*
X570230Y213360D03*
X487680Y197432D03*
X406400Y279400D03*
X406400Y266700D03*
X431800Y177800D03*
X406400Y177800D03*
X381000Y177800D03*
X355600Y177800D03*
X431800Y152400D03*
X431800Y127000D03*
X520700Y215900D03*
X520700Y203200D03*
X558800Y190500D03*
X563880Y156210D03*
X563880Y128270D03*
X609494Y38100D03*
X635106Y38100D03*
X444500Y38100D03*
X317500Y38100D03*
X241300Y127000D03*
X241300Y190500D03*
X228600Y203200D03*
X190500Y177800D03*
X190500Y139700D03*
X165100Y177800D03*
X152400Y190500D03*
X165100Y228600D03*
X127000Y228600D03*
X127000Y203200D03*
X127000Y254000D03*
X127000Y279400D03*
X127000Y304800D03*
X63500Y304800D03*
X63500Y279400D03*
X63500Y254000D03*
X63500Y228600D03*
X63500Y203200D03*
X63500Y177800D03*
X63500Y152400D03*
X88900Y114300D03*
X114300Y114300D03*
X114300Y88900D03*
X175260Y104140D03*
X168910Y91440D03*
X168910Y76200D03*
X622300Y266700D03*
X609600Y254000D03*
X609600Y241300D03*
X622300Y228600D03*
X533400Y241300D03*
X533400Y274320D03*
X546100Y274320D03*
X558800Y274320D03*
X508000Y266700D03*
X495300Y266700D03*
X482600Y266700D03*
X787400Y241300D03*
X812800Y241300D03*
X838200Y241300D03*
X863600Y241300D03*
X876300Y228600D03*
X889000Y215900D03*
X914400Y215900D03*
X939800Y215900D03*
X355600Y203200D03*
X355600Y228600D03*
X228676Y34214D03*
X381000Y203200D03*
X381000Y228600D03*
X406400Y228600D03*
X458470Y210820D03*
X204470Y144780D03*
X153670Y156210D03*
X403631Y130175D03*
X422910Y82550D03*
X537210Y196850D03*
X163830Y147320D03*
X166525Y58420D03*
X528320Y255270D03*
X241300Y153670D03*
X200660Y187960D03*
X416560Y250190D03*
X198120Y107950D03*
X213970Y23470D03*
X374650Y82550D03*
X350520Y106680D03*
X373380Y106680D03*
X457200Y228600D03*
X584200Y279400D03*
X495300Y317500D03*
X220980Y39370D03*
M02*
