G04 EAGLE Gerber RS-274X export*
G75*
%MOMM*%
%FSLAX34Y34*%
%LPD*%
%INSolderpaste Top*%
%IPPOS*%
%AMOC8*
5,1,8,0,0,1.08239X$1,22.5*%
G01*
G04 Define Apertures*
%ADD10R,1.780000X0.575000*%
%ADD11R,0.575000X1.780000*%
%ADD12R,1.500000X0.700000*%
%ADD13R,1.500000X0.500000*%
%ADD14R,1.164600X1.465300*%
%ADD15R,1.465300X1.164600*%
%ADD16R,1.260500X0.595000*%
%ADD17R,1.420200X1.031200*%
%ADD18R,1.031200X1.420200*%
%ADD19C,0.820000*%
%ADD20R,1.209900X0.591500*%
%ADD21R,1.150000X1.250000*%
D10*
X135987Y193100D03*
X135987Y185100D03*
X135987Y177100D03*
X135987Y169100D03*
X135987Y161100D03*
X135987Y153100D03*
X135987Y145100D03*
X135987Y137100D03*
D11*
X149800Y123287D03*
X157800Y123287D03*
X165800Y123287D03*
X173800Y123287D03*
X181800Y123287D03*
X189800Y123287D03*
X197800Y123287D03*
X205800Y123287D03*
D10*
X219613Y137100D03*
X219613Y145100D03*
X219613Y153100D03*
X219613Y161100D03*
X219613Y169100D03*
X219613Y177100D03*
X219613Y185100D03*
X219613Y193100D03*
D11*
X205800Y206913D03*
X197800Y206913D03*
X189800Y206913D03*
X181800Y206913D03*
X173800Y206913D03*
X165800Y206913D03*
X157800Y206913D03*
X149800Y206913D03*
D12*
X109220Y150470D03*
D13*
X109220Y140970D03*
D12*
X109220Y131470D03*
D14*
X104004Y176530D03*
X86496Y176530D03*
X104004Y201930D03*
X86496Y201930D03*
X104004Y227330D03*
X86496Y227330D03*
X104004Y252730D03*
X86496Y252730D03*
X104004Y278130D03*
X86496Y278130D03*
X104004Y303530D03*
X86496Y303530D03*
D15*
X261620Y143646D03*
X261620Y161154D03*
D16*
X488099Y304140D03*
X488099Y294640D03*
X488099Y285140D03*
X512661Y285140D03*
X512661Y294640D03*
X512661Y304140D03*
D17*
X556260Y335585D03*
X556260Y317195D03*
D18*
X556565Y294640D03*
X538175Y294640D03*
D17*
X445770Y270815D03*
X445770Y252425D03*
D14*
X445634Y294640D03*
X428126Y294640D03*
D19*
X203200Y53340D03*
X215900Y53340D03*
X228600Y53340D03*
X241300Y53340D03*
X254000Y53340D03*
X254000Y66040D03*
X241300Y66040D03*
X228600Y66040D03*
X215900Y66040D03*
X203200Y66040D03*
D18*
X390855Y82550D03*
X409245Y82550D03*
X390855Y106680D03*
X409245Y106680D03*
D20*
X500214Y233070D03*
X500214Y242570D03*
X500214Y252070D03*
X475146Y252070D03*
X475146Y233070D03*
D18*
X564185Y142240D03*
X545795Y142240D03*
D15*
X464820Y303394D03*
X464820Y285886D03*
D14*
X470036Y210820D03*
X487544Y210820D03*
D21*
X152740Y82230D03*
X131740Y82230D03*
X152740Y42230D03*
X131740Y42230D03*
D17*
X430530Y190195D03*
X430530Y208585D03*
X407670Y208585D03*
X407670Y190195D03*
M02*
