G04 EAGLE Gerber RS-274X export*
G75*
%MOMM*%
%FSLAX34Y34*%
%LPD*%
%INSilkscreen Bottom*%
%IPPOS*%
%AMOC8*
5,1,8,0,0,1.08239X$1,22.5*%
G01*
G04 Define Apertures*
%ADD10C,0.127000*%
%ADD11C,0.500000*%
%ADD12C,0.120000*%
G36*
X147989Y83945D02*
X151834Y83945D01*
X151834Y78821D01*
X153507Y78821D01*
X153507Y91162D01*
X147700Y91162D01*
X147194Y91147D01*
X146718Y91103D01*
X146271Y91031D01*
X145853Y90929D01*
X145466Y90797D01*
X145108Y90637D01*
X144780Y90448D01*
X144482Y90229D01*
X144216Y89984D01*
X143985Y89717D01*
X143790Y89427D01*
X143631Y89113D01*
X143507Y88777D01*
X143418Y88418D01*
X143365Y88037D01*
X143347Y87632D01*
X143360Y87295D01*
X143398Y86972D01*
X143460Y86662D01*
X143548Y86366D01*
X143660Y86084D01*
X143798Y85816D01*
X143961Y85561D01*
X144149Y85320D01*
X144359Y85096D01*
X144588Y84895D01*
X144835Y84714D01*
X144946Y84648D01*
X145102Y84556D01*
X145388Y84419D01*
X145693Y84303D01*
X146017Y84210D01*
X146360Y84137D01*
X144869Y81874D01*
X142857Y78821D01*
X144784Y78821D01*
X147989Y83945D01*
G37*
%LPC*%
G36*
X147797Y85267D02*
X147476Y85277D01*
X147173Y85306D01*
X146889Y85354D01*
X146624Y85422D01*
X146378Y85508D01*
X146150Y85615D01*
X145942Y85740D01*
X145752Y85885D01*
X145582Y86047D01*
X145436Y86224D01*
X145311Y86417D01*
X145210Y86626D01*
X145131Y86850D01*
X145074Y87089D01*
X145040Y87344D01*
X145029Y87615D01*
X145041Y87876D01*
X145075Y88121D01*
X145132Y88351D01*
X145212Y88564D01*
X145315Y88761D01*
X145440Y88942D01*
X145589Y89108D01*
X145760Y89257D01*
X145953Y89389D01*
X146166Y89504D01*
X146399Y89601D01*
X146653Y89681D01*
X146926Y89742D01*
X147220Y89786D01*
X147533Y89813D01*
X147867Y89822D01*
X151834Y89822D01*
X151834Y85267D01*
X147797Y85267D01*
G37*
%LPD*%
G36*
X140644Y80161D02*
X137499Y80161D01*
X137499Y89655D01*
X140285Y87667D01*
X140285Y89156D01*
X137368Y91162D01*
X135914Y91162D01*
X135914Y80161D01*
X132910Y80161D01*
X132910Y78821D01*
X140644Y78821D01*
X140644Y80161D01*
G37*
G36*
X540966Y237968D02*
X533250Y237968D01*
X532840Y237981D01*
X532455Y238022D01*
X532096Y238089D01*
X531763Y238183D01*
X531455Y238303D01*
X531172Y238451D01*
X530915Y238625D01*
X530683Y238826D01*
X530478Y239053D01*
X530300Y239303D01*
X530150Y239577D01*
X530026Y239875D01*
X529931Y240197D01*
X529862Y240542D01*
X529821Y240912D01*
X529807Y241305D01*
X529822Y241709D01*
X529864Y242091D01*
X529935Y242449D01*
X530034Y242784D01*
X530162Y243096D01*
X530317Y243385D01*
X530501Y243651D01*
X530714Y243893D01*
X530954Y244110D01*
X531219Y244297D01*
X531511Y244456D01*
X531830Y244586D01*
X532174Y244687D01*
X532544Y244759D01*
X532941Y244803D01*
X533363Y244817D01*
X540966Y244817D01*
X540966Y246481D01*
X533267Y246481D01*
X532899Y246471D01*
X532544Y246442D01*
X532202Y246392D01*
X531872Y246323D01*
X531556Y246233D01*
X531252Y246124D01*
X530961Y245995D01*
X530683Y245846D01*
X530420Y245679D01*
X530172Y245496D01*
X529941Y245296D01*
X529725Y245080D01*
X529526Y244847D01*
X529342Y244598D01*
X529175Y244333D01*
X529024Y244051D01*
X528889Y243754D01*
X528773Y243445D01*
X528674Y243122D01*
X528593Y242786D01*
X528531Y242438D01*
X528486Y242076D01*
X528459Y241701D01*
X528450Y241314D01*
X528458Y240941D01*
X528484Y240580D01*
X528527Y240232D01*
X528588Y239895D01*
X528665Y239570D01*
X528760Y239258D01*
X528872Y238957D01*
X529002Y238669D01*
X529147Y238394D01*
X529309Y238135D01*
X529486Y237893D01*
X529678Y237666D01*
X529886Y237455D01*
X530110Y237260D01*
X530349Y237080D01*
X530604Y236917D01*
X530873Y236771D01*
X531155Y236645D01*
X531449Y236538D01*
X531756Y236451D01*
X532076Y236383D01*
X532408Y236334D01*
X532752Y236305D01*
X533109Y236295D01*
X540966Y236295D01*
X540966Y237968D01*
G37*
G36*
X531944Y250192D02*
X531679Y250240D01*
X531431Y250303D01*
X531200Y250383D01*
X530987Y250479D01*
X530790Y250590D01*
X530610Y250718D01*
X530448Y250862D01*
X530302Y251022D01*
X530174Y251198D01*
X530063Y251390D01*
X529969Y251599D01*
X529892Y251823D01*
X529832Y252063D01*
X529789Y252320D01*
X529763Y252592D01*
X529755Y252881D01*
X529764Y253171D01*
X529792Y253445D01*
X529837Y253702D01*
X529902Y253944D01*
X529984Y254170D01*
X530085Y254380D01*
X530204Y254573D01*
X530342Y254751D01*
X530497Y254910D01*
X530671Y255048D01*
X530862Y255165D01*
X531071Y255260D01*
X531298Y255334D01*
X531542Y255387D01*
X531804Y255419D01*
X532085Y255430D01*
X532330Y255418D01*
X532561Y255381D01*
X532778Y255321D01*
X532981Y255236D01*
X533171Y255127D01*
X533347Y254994D01*
X533509Y254836D01*
X533657Y254655D01*
X533789Y254450D01*
X533904Y254224D01*
X534001Y253977D01*
X534080Y253708D01*
X534142Y253417D01*
X534186Y253105D01*
X534213Y252772D01*
X534222Y252417D01*
X534222Y251524D01*
X535588Y251524D01*
X535588Y252382D01*
X535597Y252697D01*
X535623Y252994D01*
X535667Y253272D01*
X535729Y253533D01*
X535809Y253775D01*
X535906Y253999D01*
X536021Y254204D01*
X536153Y254392D01*
X536301Y254559D01*
X536463Y254704D01*
X536638Y254827D01*
X536826Y254927D01*
X537028Y255005D01*
X537244Y255061D01*
X537474Y255095D01*
X537716Y255106D01*
X537957Y255097D01*
X538185Y255069D01*
X538400Y255024D01*
X538602Y254960D01*
X538791Y254878D01*
X538967Y254778D01*
X539130Y254660D01*
X539280Y254523D01*
X539414Y254369D01*
X539531Y254197D01*
X539629Y254007D01*
X539710Y253800D01*
X539773Y253575D01*
X539818Y253332D01*
X539844Y253072D01*
X539853Y252794D01*
X539845Y252539D01*
X539820Y252297D01*
X539778Y252068D01*
X539720Y251851D01*
X539645Y251646D01*
X539553Y251454D01*
X539444Y251275D01*
X539319Y251108D01*
X539179Y250955D01*
X539025Y250819D01*
X538857Y250700D01*
X538675Y250598D01*
X538480Y250513D01*
X538271Y250445D01*
X538049Y250393D01*
X537813Y250359D01*
X537935Y248773D01*
X538304Y248831D01*
X538651Y248918D01*
X538978Y249032D01*
X539284Y249175D01*
X539569Y249346D01*
X539834Y249546D01*
X540077Y249774D01*
X540300Y250030D01*
X540499Y250310D01*
X540672Y250610D01*
X540818Y250928D01*
X540937Y251266D01*
X541030Y251624D01*
X541097Y252000D01*
X541136Y252396D01*
X541150Y252811D01*
X541136Y253262D01*
X541096Y253688D01*
X541028Y254087D01*
X540934Y254461D01*
X540813Y254809D01*
X540664Y255131D01*
X540489Y255427D01*
X540287Y255697D01*
X540061Y255938D01*
X539813Y256147D01*
X539545Y256324D01*
X539255Y256469D01*
X538943Y256581D01*
X538611Y256662D01*
X538258Y256710D01*
X537883Y256726D01*
X537594Y256716D01*
X537319Y256685D01*
X537058Y256633D01*
X536811Y256561D01*
X536578Y256468D01*
X536358Y256354D01*
X536152Y256220D01*
X535960Y256065D01*
X535783Y255890D01*
X535620Y255697D01*
X535472Y255485D01*
X535340Y255254D01*
X535222Y255004D01*
X535119Y254735D01*
X535031Y254448D01*
X534957Y254142D01*
X534922Y254142D01*
X534875Y254479D01*
X534809Y254796D01*
X534722Y255094D01*
X534616Y255373D01*
X534490Y255633D01*
X534344Y255873D01*
X534179Y256095D01*
X533994Y256297D01*
X533793Y256478D01*
X533579Y256634D01*
X533353Y256767D01*
X533114Y256875D01*
X532862Y256959D01*
X532598Y257020D01*
X532321Y257056D01*
X532032Y257068D01*
X531617Y257051D01*
X531226Y257000D01*
X530860Y256915D01*
X530517Y256796D01*
X530198Y256643D01*
X529904Y256457D01*
X529633Y256236D01*
X529387Y255982D01*
X529167Y255696D01*
X528977Y255381D01*
X528816Y255037D01*
X528684Y254663D01*
X528582Y254261D01*
X528508Y253830D01*
X528465Y253370D01*
X528450Y252881D01*
X528463Y252424D01*
X528503Y251991D01*
X528569Y251582D01*
X528661Y251196D01*
X528780Y250834D01*
X528925Y250496D01*
X529097Y250181D01*
X529295Y249890D01*
X529519Y249625D01*
X529768Y249388D01*
X530043Y249180D01*
X530343Y249000D01*
X530668Y248848D01*
X531019Y248725D01*
X531394Y248630D01*
X531796Y248563D01*
X531944Y250192D01*
G37*
G36*
X544103Y187487D02*
X544437Y187516D01*
X544754Y187563D01*
X545052Y187630D01*
X545333Y187716D01*
X545596Y187820D01*
X545840Y187944D01*
X546067Y188087D01*
X546277Y188250D01*
X546472Y188438D01*
X546651Y188648D01*
X546815Y188882D01*
X546963Y189140D01*
X547096Y189421D01*
X547213Y189725D01*
X547315Y190053D01*
X545809Y190289D01*
X545673Y189928D01*
X545501Y189615D01*
X545294Y189350D01*
X545051Y189133D01*
X544773Y188965D01*
X544459Y188844D01*
X544109Y188772D01*
X543921Y188754D01*
X543724Y188748D01*
X543394Y188768D01*
X543084Y188827D01*
X542792Y188925D01*
X542520Y189063D01*
X542267Y189240D01*
X542033Y189457D01*
X541818Y189713D01*
X541622Y190009D01*
X541447Y190341D01*
X541294Y190707D01*
X541164Y191106D01*
X541055Y191540D01*
X540969Y192006D01*
X540905Y192507D01*
X540862Y193041D01*
X540843Y193609D01*
X540938Y193417D01*
X541049Y193234D01*
X541176Y193061D01*
X541318Y192898D01*
X541476Y192745D01*
X541649Y192601D01*
X541838Y192467D01*
X542043Y192343D01*
X542258Y192231D01*
X542478Y192134D01*
X542703Y192052D01*
X542934Y191985D01*
X543170Y191933D01*
X543411Y191896D01*
X543657Y191873D01*
X543908Y191866D01*
X544314Y191884D01*
X544699Y191937D01*
X545063Y192026D01*
X545406Y192151D01*
X545728Y192311D01*
X546030Y192506D01*
X546311Y192738D01*
X546571Y193004D01*
X546805Y193301D01*
X547008Y193620D01*
X547179Y193963D01*
X547320Y194329D01*
X547429Y194719D01*
X547507Y195131D01*
X547554Y195567D01*
X547569Y196026D01*
X547552Y196497D01*
X547501Y196942D01*
X547416Y197362D01*
X547298Y197755D01*
X547145Y198122D01*
X546958Y198464D01*
X546738Y198780D01*
X546483Y199070D01*
X546198Y199329D01*
X545887Y199554D01*
X545549Y199745D01*
X545185Y199901D01*
X544794Y200022D01*
X544376Y200108D01*
X543932Y200160D01*
X543461Y200178D01*
X543208Y200172D01*
X542962Y200154D01*
X542495Y200082D01*
X542058Y199963D01*
X541653Y199797D01*
X541279Y199582D01*
X540936Y199320D01*
X540624Y199011D01*
X540343Y198654D01*
X540095Y198249D01*
X539880Y197796D01*
X539698Y197295D01*
X539549Y196747D01*
X539433Y196150D01*
X539350Y195506D01*
X539300Y194813D01*
X539284Y194073D01*
X539302Y193301D01*
X539356Y192575D01*
X539447Y191895D01*
X539574Y191262D01*
X539737Y190674D01*
X539936Y190132D01*
X540172Y189636D01*
X540444Y189186D01*
X540750Y188785D01*
X541086Y188439D01*
X541453Y188145D01*
X541851Y187905D01*
X542280Y187718D01*
X542506Y187645D01*
X542739Y187585D01*
X542980Y187538D01*
X543229Y187505D01*
X543486Y187485D01*
X543750Y187478D01*
X544103Y187487D01*
G37*
%LPC*%
G36*
X543196Y193129D02*
X542872Y193187D01*
X542561Y193284D01*
X542262Y193421D01*
X541984Y193592D01*
X541737Y193796D01*
X541522Y194032D01*
X541338Y194301D01*
X541190Y194595D01*
X541085Y194909D01*
X541021Y195243D01*
X541000Y195597D01*
X541011Y195960D01*
X541043Y196305D01*
X541096Y196632D01*
X541171Y196940D01*
X541267Y197231D01*
X541385Y197503D01*
X541523Y197757D01*
X541683Y197992D01*
X541862Y198205D01*
X542054Y198389D01*
X542261Y198545D01*
X542483Y198672D01*
X542719Y198771D01*
X542969Y198842D01*
X543234Y198885D01*
X543514Y198899D01*
X543791Y198887D01*
X544053Y198851D01*
X544300Y198790D01*
X544532Y198705D01*
X544749Y198596D01*
X544951Y198463D01*
X545138Y198306D01*
X545310Y198124D01*
X545463Y197922D01*
X545597Y197702D01*
X545710Y197466D01*
X545802Y197212D01*
X545874Y196941D01*
X545925Y196653D01*
X545956Y196348D01*
X545966Y196026D01*
X545956Y195698D01*
X545925Y195387D01*
X545874Y195094D01*
X545802Y194819D01*
X545710Y194561D01*
X545597Y194321D01*
X545463Y194098D01*
X545310Y193893D01*
X545138Y193710D01*
X544952Y193551D01*
X544752Y193416D01*
X544537Y193306D01*
X544307Y193220D01*
X544063Y193159D01*
X543805Y193122D01*
X543532Y193110D01*
X543196Y193129D01*
G37*
%LPD*%
G36*
X554909Y187490D02*
X555352Y187526D01*
X555779Y187587D01*
X556190Y187672D01*
X556586Y187781D01*
X556966Y187914D01*
X557330Y188071D01*
X557678Y188253D01*
X558009Y188457D01*
X558319Y188682D01*
X558609Y188928D01*
X558878Y189195D01*
X559128Y189482D01*
X559357Y189790D01*
X559565Y190119D01*
X559754Y190469D01*
X559921Y190837D01*
X560066Y191222D01*
X560189Y191624D01*
X560289Y192042D01*
X560368Y192477D01*
X560423Y192928D01*
X560457Y193396D01*
X560468Y193880D01*
X560462Y194244D01*
X560443Y194598D01*
X560412Y194942D01*
X560368Y195276D01*
X560312Y195600D01*
X560244Y195914D01*
X560163Y196218D01*
X560069Y196512D01*
X559964Y196796D01*
X559845Y197070D01*
X559571Y197588D01*
X559247Y198067D01*
X558874Y198505D01*
X558456Y198897D01*
X558000Y199237D01*
X557758Y199387D01*
X557506Y199524D01*
X557244Y199648D01*
X556973Y199759D01*
X556693Y199858D01*
X556402Y199942D01*
X556102Y200014D01*
X555793Y200073D01*
X555474Y200119D01*
X555145Y200152D01*
X554807Y200171D01*
X554460Y200178D01*
X553977Y200166D01*
X553515Y200130D01*
X553073Y200069D01*
X552651Y199985D01*
X552249Y199877D01*
X551868Y199744D01*
X551507Y199588D01*
X551166Y199407D01*
X550847Y199203D01*
X550549Y198975D01*
X550273Y198724D01*
X550019Y198450D01*
X549787Y198153D01*
X549577Y197832D01*
X549388Y197488D01*
X549222Y197121D01*
X550807Y196595D01*
X550923Y196857D01*
X551054Y197102D01*
X551202Y197332D01*
X551367Y197546D01*
X551547Y197744D01*
X551744Y197926D01*
X551957Y198092D01*
X552187Y198242D01*
X552430Y198376D01*
X552684Y198491D01*
X552949Y198589D01*
X553226Y198669D01*
X553513Y198731D01*
X553812Y198776D01*
X554121Y198802D01*
X554442Y198811D01*
X554940Y198791D01*
X555410Y198729D01*
X555851Y198626D01*
X556264Y198482D01*
X556648Y198296D01*
X557004Y198070D01*
X557331Y197802D01*
X557630Y197493D01*
X557897Y197148D01*
X558128Y196773D01*
X558324Y196367D01*
X558484Y195931D01*
X558609Y195464D01*
X558698Y194967D01*
X558751Y194439D01*
X558769Y193880D01*
X558750Y193327D01*
X558695Y192802D01*
X558602Y192304D01*
X558472Y191834D01*
X558305Y191392D01*
X558101Y190978D01*
X557860Y190591D01*
X557582Y190232D01*
X557272Y189909D01*
X556936Y189629D01*
X556574Y189392D01*
X556186Y189198D01*
X555772Y189047D01*
X555331Y188939D01*
X554865Y188874D01*
X554372Y188853D01*
X554053Y188863D01*
X553744Y188893D01*
X553445Y188943D01*
X553156Y189013D01*
X552877Y189104D01*
X552609Y189214D01*
X552350Y189344D01*
X552101Y189494D01*
X551863Y189665D01*
X551634Y189855D01*
X551416Y190066D01*
X551207Y190296D01*
X551009Y190547D01*
X550821Y190818D01*
X550643Y191108D01*
X550474Y191419D01*
X549108Y190736D01*
X549308Y190349D01*
X549528Y189987D01*
X549766Y189648D01*
X550024Y189332D01*
X550302Y189041D01*
X550598Y188774D01*
X550914Y188530D01*
X551250Y188310D01*
X551601Y188115D01*
X551967Y187946D01*
X552346Y187803D01*
X552740Y187686D01*
X553147Y187595D01*
X553568Y187530D01*
X554002Y187491D01*
X554451Y187478D01*
X554909Y187490D01*
G37*
G36*
X335571Y97924D02*
X335565Y98311D01*
X335546Y98686D01*
X335516Y99050D01*
X335473Y99402D01*
X335417Y99744D01*
X335350Y100074D01*
X335270Y100394D01*
X335178Y100702D01*
X335073Y100999D01*
X334957Y101284D01*
X334828Y101559D01*
X334686Y101822D01*
X334533Y102074D01*
X334367Y102315D01*
X334189Y102545D01*
X333999Y102763D01*
X333797Y102970D01*
X333585Y103163D01*
X333362Y103342D01*
X333130Y103509D01*
X332886Y103662D01*
X332633Y103801D01*
X332369Y103928D01*
X332095Y104041D01*
X331810Y104141D01*
X331515Y104227D01*
X331210Y104300D01*
X330894Y104360D01*
X330568Y104407D01*
X330231Y104440D01*
X329885Y104460D01*
X329527Y104467D01*
X329058Y104455D01*
X328603Y104420D01*
X328162Y104362D01*
X327737Y104281D01*
X327327Y104176D01*
X326932Y104048D01*
X326551Y103897D01*
X326186Y103722D01*
X325838Y103526D01*
X325512Y103311D01*
X325206Y103077D01*
X324921Y102822D01*
X324658Y102549D01*
X324415Y102256D01*
X324193Y101943D01*
X323992Y101612D01*
X323813Y101263D01*
X323659Y100902D01*
X323528Y100528D01*
X323420Y100140D01*
X323337Y99739D01*
X323278Y99326D01*
X323242Y98899D01*
X323230Y98458D01*
X323230Y93843D01*
X335571Y93843D01*
X335571Y97924D01*
G37*
%LPC*%
G36*
X324570Y95516D02*
X324570Y98266D01*
X324579Y98600D01*
X324607Y98924D01*
X324654Y99238D01*
X324719Y99541D01*
X324803Y99834D01*
X324905Y100117D01*
X325026Y100390D01*
X325166Y100652D01*
X325323Y100902D01*
X325496Y101137D01*
X325686Y101357D01*
X325893Y101562D01*
X326115Y101752D01*
X326355Y101928D01*
X326610Y102088D01*
X326882Y102233D01*
X327169Y102363D01*
X327468Y102475D01*
X327780Y102570D01*
X328104Y102647D01*
X328441Y102708D01*
X328791Y102751D01*
X329153Y102777D01*
X329527Y102785D01*
X330084Y102766D01*
X330607Y102707D01*
X331095Y102608D01*
X331550Y102471D01*
X331970Y102294D01*
X332356Y102078D01*
X332708Y101823D01*
X333026Y101528D01*
X333309Y101197D01*
X333553Y100830D01*
X333760Y100427D01*
X333930Y99990D01*
X334061Y99518D01*
X334155Y99010D01*
X334212Y98467D01*
X334231Y97889D01*
X334231Y95516D01*
X324570Y95516D01*
G37*
%LPD*%
G36*
X324570Y109851D02*
X334064Y109851D01*
X332076Y107065D01*
X333565Y107065D01*
X335571Y109982D01*
X335571Y111436D01*
X324570Y111436D01*
X324570Y114440D01*
X323230Y114440D01*
X323230Y106706D01*
X324570Y106706D01*
X324570Y109851D01*
G37*
D10*
X132760Y72471D02*
X154260Y72471D01*
X154260Y51989D02*
X132760Y51989D01*
D11*
X542555Y260170D03*
D12*
X544455Y255130D02*
X544455Y237630D01*
X575685Y237630D02*
X575685Y255130D01*
D10*
X560910Y202893D02*
X538910Y202893D01*
X538910Y223827D02*
X560910Y223827D01*
D12*
X320690Y126990D02*
X320690Y73084D01*
X281290Y73084D01*
X281290Y126990D01*
M02*
