G04 EAGLE Gerber RS-274X export*
G75*
%MOMM*%
%FSLAX34Y34*%
%LPD*%
%INBoard Outline*%
%IPPOS*%
%AMOC8*
5,1,8,0,0,1.08239X$1,22.5*%
G01*
G04 Define Apertures*
%ADD10C,0.000000*%
%ADD11C,0.254000*%
D10*
X0Y0D02*
X1100000Y0D01*
X1100000Y500000D01*
X0Y500000D01*
X0Y0D01*
X185547Y59690D02*
X185549Y59830D01*
X185555Y59970D01*
X185565Y60110D01*
X185579Y60250D01*
X185597Y60389D01*
X185618Y60527D01*
X185644Y60665D01*
X185673Y60802D01*
X185707Y60938D01*
X185744Y61073D01*
X185785Y61207D01*
X185830Y61340D01*
X185878Y61472D01*
X185931Y61602D01*
X185987Y61730D01*
X186046Y61857D01*
X186109Y61982D01*
X186176Y62106D01*
X186246Y62227D01*
X186320Y62346D01*
X186396Y62464D01*
X186477Y62579D01*
X186560Y62691D01*
X186646Y62802D01*
X186736Y62909D01*
X186829Y63015D01*
X186924Y63117D01*
X187023Y63217D01*
X187124Y63314D01*
X187228Y63408D01*
X187334Y63499D01*
X187443Y63587D01*
X187555Y63672D01*
X187669Y63754D01*
X187785Y63832D01*
X187903Y63908D01*
X188024Y63979D01*
X188146Y64048D01*
X188270Y64113D01*
X188396Y64174D01*
X188524Y64232D01*
X188653Y64286D01*
X188784Y64336D01*
X188916Y64383D01*
X189050Y64426D01*
X189184Y64465D01*
X189320Y64500D01*
X189457Y64532D01*
X189594Y64559D01*
X189732Y64583D01*
X189871Y64603D01*
X190010Y64619D01*
X190150Y64631D01*
X190290Y64639D01*
X190430Y64643D01*
X190570Y64643D01*
X190710Y64639D01*
X190850Y64631D01*
X190990Y64619D01*
X191129Y64603D01*
X191268Y64583D01*
X191406Y64559D01*
X191543Y64532D01*
X191680Y64500D01*
X191816Y64465D01*
X191950Y64426D01*
X192084Y64383D01*
X192216Y64336D01*
X192347Y64286D01*
X192476Y64232D01*
X192604Y64174D01*
X192730Y64113D01*
X192854Y64048D01*
X192977Y63979D01*
X193097Y63908D01*
X193215Y63832D01*
X193331Y63754D01*
X193445Y63672D01*
X193557Y63587D01*
X193666Y63499D01*
X193772Y63408D01*
X193876Y63314D01*
X193977Y63217D01*
X194076Y63117D01*
X194171Y63015D01*
X194264Y62909D01*
X194354Y62802D01*
X194440Y62691D01*
X194523Y62579D01*
X194604Y62464D01*
X194680Y62346D01*
X194754Y62227D01*
X194824Y62106D01*
X194891Y61982D01*
X194954Y61857D01*
X195013Y61730D01*
X195069Y61602D01*
X195122Y61472D01*
X195170Y61340D01*
X195215Y61207D01*
X195256Y61073D01*
X195293Y60938D01*
X195327Y60802D01*
X195356Y60665D01*
X195382Y60527D01*
X195403Y60389D01*
X195421Y60250D01*
X195435Y60110D01*
X195445Y59970D01*
X195451Y59830D01*
X195453Y59690D01*
X195451Y59550D01*
X195445Y59410D01*
X195435Y59270D01*
X195421Y59130D01*
X195403Y58991D01*
X195382Y58853D01*
X195356Y58715D01*
X195327Y58578D01*
X195293Y58442D01*
X195256Y58307D01*
X195215Y58173D01*
X195170Y58040D01*
X195122Y57908D01*
X195069Y57778D01*
X195013Y57650D01*
X194954Y57523D01*
X194891Y57398D01*
X194824Y57274D01*
X194754Y57153D01*
X194680Y57034D01*
X194604Y56916D01*
X194523Y56801D01*
X194440Y56689D01*
X194354Y56578D01*
X194264Y56471D01*
X194171Y56365D01*
X194076Y56263D01*
X193977Y56163D01*
X193876Y56066D01*
X193772Y55972D01*
X193666Y55881D01*
X193557Y55793D01*
X193445Y55708D01*
X193331Y55626D01*
X193215Y55548D01*
X193097Y55472D01*
X192976Y55401D01*
X192854Y55332D01*
X192730Y55267D01*
X192604Y55206D01*
X192476Y55148D01*
X192347Y55094D01*
X192216Y55044D01*
X192084Y54997D01*
X191950Y54954D01*
X191816Y54915D01*
X191680Y54880D01*
X191543Y54848D01*
X191406Y54821D01*
X191268Y54797D01*
X191129Y54777D01*
X190990Y54761D01*
X190850Y54749D01*
X190710Y54741D01*
X190570Y54737D01*
X190430Y54737D01*
X190290Y54741D01*
X190150Y54749D01*
X190010Y54761D01*
X189871Y54777D01*
X189732Y54797D01*
X189594Y54821D01*
X189457Y54848D01*
X189320Y54880D01*
X189184Y54915D01*
X189050Y54954D01*
X188916Y54997D01*
X188784Y55044D01*
X188653Y55094D01*
X188524Y55148D01*
X188396Y55206D01*
X188270Y55267D01*
X188146Y55332D01*
X188023Y55401D01*
X187903Y55472D01*
X187785Y55548D01*
X187669Y55626D01*
X187555Y55708D01*
X187443Y55793D01*
X187334Y55881D01*
X187228Y55972D01*
X187124Y56066D01*
X187023Y56163D01*
X186924Y56263D01*
X186829Y56365D01*
X186736Y56471D01*
X186646Y56578D01*
X186560Y56689D01*
X186477Y56801D01*
X186396Y56916D01*
X186320Y57034D01*
X186246Y57153D01*
X186176Y57274D01*
X186109Y57398D01*
X186046Y57523D01*
X185987Y57650D01*
X185931Y57778D01*
X185878Y57908D01*
X185830Y58040D01*
X185785Y58173D01*
X185744Y58307D01*
X185707Y58442D01*
X185673Y58578D01*
X185644Y58715D01*
X185618Y58853D01*
X185597Y58991D01*
X185579Y59130D01*
X185565Y59270D01*
X185555Y59410D01*
X185549Y59550D01*
X185547Y59690D01*
X261747Y69840D02*
X261749Y69980D01*
X261755Y70120D01*
X261765Y70260D01*
X261779Y70400D01*
X261797Y70539D01*
X261818Y70677D01*
X261844Y70815D01*
X261873Y70952D01*
X261907Y71088D01*
X261944Y71223D01*
X261985Y71357D01*
X262030Y71490D01*
X262078Y71622D01*
X262131Y71752D01*
X262187Y71880D01*
X262246Y72007D01*
X262309Y72132D01*
X262376Y72256D01*
X262446Y72377D01*
X262520Y72496D01*
X262596Y72614D01*
X262677Y72729D01*
X262760Y72841D01*
X262846Y72952D01*
X262936Y73059D01*
X263029Y73165D01*
X263124Y73267D01*
X263223Y73367D01*
X263324Y73464D01*
X263428Y73558D01*
X263534Y73649D01*
X263643Y73737D01*
X263755Y73822D01*
X263869Y73904D01*
X263985Y73982D01*
X264103Y74058D01*
X264224Y74129D01*
X264346Y74198D01*
X264470Y74263D01*
X264596Y74324D01*
X264724Y74382D01*
X264853Y74436D01*
X264984Y74486D01*
X265116Y74533D01*
X265250Y74576D01*
X265384Y74615D01*
X265520Y74650D01*
X265657Y74682D01*
X265794Y74709D01*
X265932Y74733D01*
X266071Y74753D01*
X266210Y74769D01*
X266350Y74781D01*
X266490Y74789D01*
X266630Y74793D01*
X266770Y74793D01*
X266910Y74789D01*
X267050Y74781D01*
X267190Y74769D01*
X267329Y74753D01*
X267468Y74733D01*
X267606Y74709D01*
X267743Y74682D01*
X267880Y74650D01*
X268016Y74615D01*
X268150Y74576D01*
X268284Y74533D01*
X268416Y74486D01*
X268547Y74436D01*
X268676Y74382D01*
X268804Y74324D01*
X268930Y74263D01*
X269054Y74198D01*
X269177Y74129D01*
X269297Y74058D01*
X269415Y73982D01*
X269531Y73904D01*
X269645Y73822D01*
X269757Y73737D01*
X269866Y73649D01*
X269972Y73558D01*
X270076Y73464D01*
X270177Y73367D01*
X270276Y73267D01*
X270371Y73165D01*
X270464Y73059D01*
X270554Y72952D01*
X270640Y72841D01*
X270723Y72729D01*
X270804Y72614D01*
X270880Y72496D01*
X270954Y72377D01*
X271024Y72256D01*
X271091Y72132D01*
X271154Y72007D01*
X271213Y71880D01*
X271269Y71752D01*
X271322Y71622D01*
X271370Y71490D01*
X271415Y71357D01*
X271456Y71223D01*
X271493Y71088D01*
X271527Y70952D01*
X271556Y70815D01*
X271582Y70677D01*
X271603Y70539D01*
X271621Y70400D01*
X271635Y70260D01*
X271645Y70120D01*
X271651Y69980D01*
X271653Y69840D01*
X271651Y69700D01*
X271645Y69560D01*
X271635Y69420D01*
X271621Y69280D01*
X271603Y69141D01*
X271582Y69003D01*
X271556Y68865D01*
X271527Y68728D01*
X271493Y68592D01*
X271456Y68457D01*
X271415Y68323D01*
X271370Y68190D01*
X271322Y68058D01*
X271269Y67928D01*
X271213Y67800D01*
X271154Y67673D01*
X271091Y67548D01*
X271024Y67424D01*
X270954Y67303D01*
X270880Y67184D01*
X270804Y67066D01*
X270723Y66951D01*
X270640Y66839D01*
X270554Y66728D01*
X270464Y66621D01*
X270371Y66515D01*
X270276Y66413D01*
X270177Y66313D01*
X270076Y66216D01*
X269972Y66122D01*
X269866Y66031D01*
X269757Y65943D01*
X269645Y65858D01*
X269531Y65776D01*
X269415Y65698D01*
X269297Y65622D01*
X269176Y65551D01*
X269054Y65482D01*
X268930Y65417D01*
X268804Y65356D01*
X268676Y65298D01*
X268547Y65244D01*
X268416Y65194D01*
X268284Y65147D01*
X268150Y65104D01*
X268016Y65065D01*
X267880Y65030D01*
X267743Y64998D01*
X267606Y64971D01*
X267468Y64947D01*
X267329Y64927D01*
X267190Y64911D01*
X267050Y64899D01*
X266910Y64891D01*
X266770Y64887D01*
X266630Y64887D01*
X266490Y64891D01*
X266350Y64899D01*
X266210Y64911D01*
X266071Y64927D01*
X265932Y64947D01*
X265794Y64971D01*
X265657Y64998D01*
X265520Y65030D01*
X265384Y65065D01*
X265250Y65104D01*
X265116Y65147D01*
X264984Y65194D01*
X264853Y65244D01*
X264724Y65298D01*
X264596Y65356D01*
X264470Y65417D01*
X264346Y65482D01*
X264223Y65551D01*
X264103Y65622D01*
X263985Y65698D01*
X263869Y65776D01*
X263755Y65858D01*
X263643Y65943D01*
X263534Y66031D01*
X263428Y66122D01*
X263324Y66216D01*
X263223Y66313D01*
X263124Y66413D01*
X263029Y66515D01*
X262936Y66621D01*
X262846Y66728D01*
X262760Y66839D01*
X262677Y66951D01*
X262596Y67066D01*
X262520Y67184D01*
X262446Y67303D01*
X262376Y67424D01*
X262309Y67548D01*
X262246Y67673D01*
X262187Y67800D01*
X262131Y67928D01*
X262078Y68058D01*
X262030Y68190D01*
X261985Y68323D01*
X261944Y68457D01*
X261907Y68592D01*
X261873Y68728D01*
X261844Y68865D01*
X261818Y69003D01*
X261797Y69141D01*
X261779Y69280D01*
X261765Y69420D01*
X261755Y69560D01*
X261749Y69700D01*
X261747Y69840D01*
X261747Y49540D02*
X261749Y49680D01*
X261755Y49820D01*
X261765Y49960D01*
X261779Y50100D01*
X261797Y50239D01*
X261818Y50377D01*
X261844Y50515D01*
X261873Y50652D01*
X261907Y50788D01*
X261944Y50923D01*
X261985Y51057D01*
X262030Y51190D01*
X262078Y51322D01*
X262131Y51452D01*
X262187Y51580D01*
X262246Y51707D01*
X262309Y51832D01*
X262376Y51956D01*
X262446Y52077D01*
X262520Y52196D01*
X262596Y52314D01*
X262677Y52429D01*
X262760Y52541D01*
X262846Y52652D01*
X262936Y52759D01*
X263029Y52865D01*
X263124Y52967D01*
X263223Y53067D01*
X263324Y53164D01*
X263428Y53258D01*
X263534Y53349D01*
X263643Y53437D01*
X263755Y53522D01*
X263869Y53604D01*
X263985Y53682D01*
X264103Y53758D01*
X264224Y53829D01*
X264346Y53898D01*
X264470Y53963D01*
X264596Y54024D01*
X264724Y54082D01*
X264853Y54136D01*
X264984Y54186D01*
X265116Y54233D01*
X265250Y54276D01*
X265384Y54315D01*
X265520Y54350D01*
X265657Y54382D01*
X265794Y54409D01*
X265932Y54433D01*
X266071Y54453D01*
X266210Y54469D01*
X266350Y54481D01*
X266490Y54489D01*
X266630Y54493D01*
X266770Y54493D01*
X266910Y54489D01*
X267050Y54481D01*
X267190Y54469D01*
X267329Y54453D01*
X267468Y54433D01*
X267606Y54409D01*
X267743Y54382D01*
X267880Y54350D01*
X268016Y54315D01*
X268150Y54276D01*
X268284Y54233D01*
X268416Y54186D01*
X268547Y54136D01*
X268676Y54082D01*
X268804Y54024D01*
X268930Y53963D01*
X269054Y53898D01*
X269177Y53829D01*
X269297Y53758D01*
X269415Y53682D01*
X269531Y53604D01*
X269645Y53522D01*
X269757Y53437D01*
X269866Y53349D01*
X269972Y53258D01*
X270076Y53164D01*
X270177Y53067D01*
X270276Y52967D01*
X270371Y52865D01*
X270464Y52759D01*
X270554Y52652D01*
X270640Y52541D01*
X270723Y52429D01*
X270804Y52314D01*
X270880Y52196D01*
X270954Y52077D01*
X271024Y51956D01*
X271091Y51832D01*
X271154Y51707D01*
X271213Y51580D01*
X271269Y51452D01*
X271322Y51322D01*
X271370Y51190D01*
X271415Y51057D01*
X271456Y50923D01*
X271493Y50788D01*
X271527Y50652D01*
X271556Y50515D01*
X271582Y50377D01*
X271603Y50239D01*
X271621Y50100D01*
X271635Y49960D01*
X271645Y49820D01*
X271651Y49680D01*
X271653Y49540D01*
X271651Y49400D01*
X271645Y49260D01*
X271635Y49120D01*
X271621Y48980D01*
X271603Y48841D01*
X271582Y48703D01*
X271556Y48565D01*
X271527Y48428D01*
X271493Y48292D01*
X271456Y48157D01*
X271415Y48023D01*
X271370Y47890D01*
X271322Y47758D01*
X271269Y47628D01*
X271213Y47500D01*
X271154Y47373D01*
X271091Y47248D01*
X271024Y47124D01*
X270954Y47003D01*
X270880Y46884D01*
X270804Y46766D01*
X270723Y46651D01*
X270640Y46539D01*
X270554Y46428D01*
X270464Y46321D01*
X270371Y46215D01*
X270276Y46113D01*
X270177Y46013D01*
X270076Y45916D01*
X269972Y45822D01*
X269866Y45731D01*
X269757Y45643D01*
X269645Y45558D01*
X269531Y45476D01*
X269415Y45398D01*
X269297Y45322D01*
X269176Y45251D01*
X269054Y45182D01*
X268930Y45117D01*
X268804Y45056D01*
X268676Y44998D01*
X268547Y44944D01*
X268416Y44894D01*
X268284Y44847D01*
X268150Y44804D01*
X268016Y44765D01*
X267880Y44730D01*
X267743Y44698D01*
X267606Y44671D01*
X267468Y44647D01*
X267329Y44627D01*
X267190Y44611D01*
X267050Y44599D01*
X266910Y44591D01*
X266770Y44587D01*
X266630Y44587D01*
X266490Y44591D01*
X266350Y44599D01*
X266210Y44611D01*
X266071Y44627D01*
X265932Y44647D01*
X265794Y44671D01*
X265657Y44698D01*
X265520Y44730D01*
X265384Y44765D01*
X265250Y44804D01*
X265116Y44847D01*
X264984Y44894D01*
X264853Y44944D01*
X264724Y44998D01*
X264596Y45056D01*
X264470Y45117D01*
X264346Y45182D01*
X264223Y45251D01*
X264103Y45322D01*
X263985Y45398D01*
X263869Y45476D01*
X263755Y45558D01*
X263643Y45643D01*
X263534Y45731D01*
X263428Y45822D01*
X263324Y45916D01*
X263223Y46013D01*
X263124Y46113D01*
X263029Y46215D01*
X262936Y46321D01*
X262846Y46428D01*
X262760Y46539D01*
X262677Y46651D01*
X262596Y46766D01*
X262520Y46884D01*
X262446Y47003D01*
X262376Y47124D01*
X262309Y47248D01*
X262246Y47373D01*
X262187Y47500D01*
X262131Y47628D01*
X262078Y47758D01*
X262030Y47890D01*
X261985Y48023D01*
X261944Y48157D01*
X261907Y48292D01*
X261873Y48428D01*
X261844Y48565D01*
X261818Y48703D01*
X261797Y48841D01*
X261779Y48980D01*
X261765Y49120D01*
X261755Y49260D01*
X261749Y49400D01*
X261747Y49540D01*
X178625Y85090D02*
X178629Y85381D01*
X178639Y85673D01*
X178657Y85964D01*
X178682Y86254D01*
X178714Y86544D01*
X178754Y86832D01*
X178800Y87120D01*
X178853Y87407D01*
X178914Y87692D01*
X178981Y87975D01*
X179055Y88257D01*
X179136Y88537D01*
X179224Y88815D01*
X179319Y89091D01*
X179421Y89364D01*
X179529Y89634D01*
X179644Y89902D01*
X179765Y90167D01*
X179893Y90429D01*
X180027Y90688D01*
X180168Y90943D01*
X180314Y91195D01*
X180467Y91443D01*
X180626Y91687D01*
X180791Y91928D01*
X180962Y92164D01*
X181138Y92396D01*
X181321Y92623D01*
X181508Y92846D01*
X181701Y93065D01*
X181900Y93278D01*
X182103Y93487D01*
X182312Y93690D01*
X182525Y93889D01*
X182744Y94082D01*
X182967Y94269D01*
X183194Y94452D01*
X183426Y94628D01*
X183662Y94799D01*
X183903Y94964D01*
X184147Y95123D01*
X184395Y95276D01*
X184647Y95422D01*
X184902Y95563D01*
X185161Y95697D01*
X185423Y95825D01*
X185688Y95946D01*
X185956Y96061D01*
X186226Y96169D01*
X186499Y96271D01*
X186775Y96366D01*
X187053Y96454D01*
X187333Y96535D01*
X187615Y96609D01*
X187898Y96676D01*
X188183Y96737D01*
X188470Y96790D01*
X188758Y96836D01*
X189046Y96876D01*
X189336Y96908D01*
X189626Y96933D01*
X189917Y96951D01*
X190209Y96961D01*
X190500Y96965D01*
X190791Y96961D01*
X191083Y96951D01*
X191374Y96933D01*
X191664Y96908D01*
X191954Y96876D01*
X192242Y96836D01*
X192530Y96790D01*
X192817Y96737D01*
X193102Y96676D01*
X193385Y96609D01*
X193667Y96535D01*
X193947Y96454D01*
X194225Y96366D01*
X194501Y96271D01*
X194774Y96169D01*
X195044Y96061D01*
X195312Y95946D01*
X195577Y95825D01*
X195839Y95697D01*
X196098Y95563D01*
X196353Y95422D01*
X196605Y95276D01*
X196853Y95123D01*
X197097Y94964D01*
X197338Y94799D01*
X197574Y94628D01*
X197806Y94452D01*
X198033Y94269D01*
X198256Y94082D01*
X198475Y93889D01*
X198688Y93690D01*
X198897Y93487D01*
X199100Y93278D01*
X199299Y93065D01*
X199492Y92846D01*
X199679Y92623D01*
X199862Y92396D01*
X200038Y92164D01*
X200209Y91928D01*
X200374Y91687D01*
X200533Y91443D01*
X200686Y91195D01*
X200832Y90943D01*
X200973Y90688D01*
X201107Y90429D01*
X201235Y90167D01*
X201356Y89902D01*
X201471Y89634D01*
X201579Y89364D01*
X201681Y89091D01*
X201776Y88815D01*
X201864Y88537D01*
X201945Y88257D01*
X202019Y87975D01*
X202086Y87692D01*
X202147Y87407D01*
X202200Y87120D01*
X202246Y86832D01*
X202286Y86544D01*
X202318Y86254D01*
X202343Y85964D01*
X202361Y85673D01*
X202371Y85381D01*
X202375Y85090D01*
X202371Y84799D01*
X202361Y84507D01*
X202343Y84216D01*
X202318Y83926D01*
X202286Y83636D01*
X202246Y83348D01*
X202200Y83060D01*
X202147Y82773D01*
X202086Y82488D01*
X202019Y82205D01*
X201945Y81923D01*
X201864Y81643D01*
X201776Y81365D01*
X201681Y81089D01*
X201579Y80816D01*
X201471Y80546D01*
X201356Y80278D01*
X201235Y80013D01*
X201107Y79751D01*
X200973Y79492D01*
X200832Y79237D01*
X200686Y78985D01*
X200533Y78737D01*
X200374Y78493D01*
X200209Y78252D01*
X200038Y78016D01*
X199862Y77784D01*
X199679Y77557D01*
X199492Y77334D01*
X199299Y77115D01*
X199100Y76902D01*
X198897Y76693D01*
X198688Y76490D01*
X198475Y76291D01*
X198256Y76098D01*
X198033Y75911D01*
X197806Y75728D01*
X197574Y75552D01*
X197338Y75381D01*
X197097Y75216D01*
X196853Y75057D01*
X196605Y74904D01*
X196353Y74758D01*
X196098Y74617D01*
X195839Y74483D01*
X195577Y74355D01*
X195312Y74234D01*
X195044Y74119D01*
X194774Y74011D01*
X194501Y73909D01*
X194225Y73814D01*
X193947Y73726D01*
X193667Y73645D01*
X193385Y73571D01*
X193102Y73504D01*
X192817Y73443D01*
X192530Y73390D01*
X192242Y73344D01*
X191954Y73304D01*
X191664Y73272D01*
X191374Y73247D01*
X191083Y73229D01*
X190791Y73219D01*
X190500Y73215D01*
X190209Y73219D01*
X189917Y73229D01*
X189626Y73247D01*
X189336Y73272D01*
X189046Y73304D01*
X188758Y73344D01*
X188470Y73390D01*
X188183Y73443D01*
X187898Y73504D01*
X187615Y73571D01*
X187333Y73645D01*
X187053Y73726D01*
X186775Y73814D01*
X186499Y73909D01*
X186226Y74011D01*
X185956Y74119D01*
X185688Y74234D01*
X185423Y74355D01*
X185161Y74483D01*
X184902Y74617D01*
X184647Y74758D01*
X184395Y74904D01*
X184147Y75057D01*
X183903Y75216D01*
X183662Y75381D01*
X183426Y75552D01*
X183194Y75728D01*
X182967Y75911D01*
X182744Y76098D01*
X182525Y76291D01*
X182312Y76490D01*
X182103Y76693D01*
X181900Y76902D01*
X181701Y77115D01*
X181508Y77334D01*
X181321Y77557D01*
X181138Y77784D01*
X180962Y78016D01*
X180791Y78252D01*
X180626Y78493D01*
X180467Y78737D01*
X180314Y78985D01*
X180168Y79237D01*
X180027Y79492D01*
X179893Y79751D01*
X179765Y80013D01*
X179644Y80278D01*
X179529Y80546D01*
X179421Y80816D01*
X179319Y81089D01*
X179224Y81365D01*
X179136Y81643D01*
X179055Y81923D01*
X178981Y82205D01*
X178914Y82488D01*
X178853Y82773D01*
X178800Y83060D01*
X178754Y83348D01*
X178714Y83636D01*
X178682Y83926D01*
X178657Y84216D01*
X178639Y84507D01*
X178629Y84799D01*
X178625Y85090D01*
X235775Y85090D02*
X235779Y85381D01*
X235789Y85673D01*
X235807Y85964D01*
X235832Y86254D01*
X235864Y86544D01*
X235904Y86832D01*
X235950Y87120D01*
X236003Y87407D01*
X236064Y87692D01*
X236131Y87975D01*
X236205Y88257D01*
X236286Y88537D01*
X236374Y88815D01*
X236469Y89091D01*
X236571Y89364D01*
X236679Y89634D01*
X236794Y89902D01*
X236915Y90167D01*
X237043Y90429D01*
X237177Y90688D01*
X237318Y90943D01*
X237464Y91195D01*
X237617Y91443D01*
X237776Y91687D01*
X237941Y91928D01*
X238112Y92164D01*
X238288Y92396D01*
X238471Y92623D01*
X238658Y92846D01*
X238851Y93065D01*
X239050Y93278D01*
X239253Y93487D01*
X239462Y93690D01*
X239675Y93889D01*
X239894Y94082D01*
X240117Y94269D01*
X240344Y94452D01*
X240576Y94628D01*
X240812Y94799D01*
X241053Y94964D01*
X241297Y95123D01*
X241545Y95276D01*
X241797Y95422D01*
X242052Y95563D01*
X242311Y95697D01*
X242573Y95825D01*
X242838Y95946D01*
X243106Y96061D01*
X243376Y96169D01*
X243649Y96271D01*
X243925Y96366D01*
X244203Y96454D01*
X244483Y96535D01*
X244765Y96609D01*
X245048Y96676D01*
X245333Y96737D01*
X245620Y96790D01*
X245908Y96836D01*
X246196Y96876D01*
X246486Y96908D01*
X246776Y96933D01*
X247067Y96951D01*
X247359Y96961D01*
X247650Y96965D01*
X247941Y96961D01*
X248233Y96951D01*
X248524Y96933D01*
X248814Y96908D01*
X249104Y96876D01*
X249392Y96836D01*
X249680Y96790D01*
X249967Y96737D01*
X250252Y96676D01*
X250535Y96609D01*
X250817Y96535D01*
X251097Y96454D01*
X251375Y96366D01*
X251651Y96271D01*
X251924Y96169D01*
X252194Y96061D01*
X252462Y95946D01*
X252727Y95825D01*
X252989Y95697D01*
X253248Y95563D01*
X253503Y95422D01*
X253755Y95276D01*
X254003Y95123D01*
X254247Y94964D01*
X254488Y94799D01*
X254724Y94628D01*
X254956Y94452D01*
X255183Y94269D01*
X255406Y94082D01*
X255625Y93889D01*
X255838Y93690D01*
X256047Y93487D01*
X256250Y93278D01*
X256449Y93065D01*
X256642Y92846D01*
X256829Y92623D01*
X257012Y92396D01*
X257188Y92164D01*
X257359Y91928D01*
X257524Y91687D01*
X257683Y91443D01*
X257836Y91195D01*
X257982Y90943D01*
X258123Y90688D01*
X258257Y90429D01*
X258385Y90167D01*
X258506Y89902D01*
X258621Y89634D01*
X258729Y89364D01*
X258831Y89091D01*
X258926Y88815D01*
X259014Y88537D01*
X259095Y88257D01*
X259169Y87975D01*
X259236Y87692D01*
X259297Y87407D01*
X259350Y87120D01*
X259396Y86832D01*
X259436Y86544D01*
X259468Y86254D01*
X259493Y85964D01*
X259511Y85673D01*
X259521Y85381D01*
X259525Y85090D01*
X259521Y84799D01*
X259511Y84507D01*
X259493Y84216D01*
X259468Y83926D01*
X259436Y83636D01*
X259396Y83348D01*
X259350Y83060D01*
X259297Y82773D01*
X259236Y82488D01*
X259169Y82205D01*
X259095Y81923D01*
X259014Y81643D01*
X258926Y81365D01*
X258831Y81089D01*
X258729Y80816D01*
X258621Y80546D01*
X258506Y80278D01*
X258385Y80013D01*
X258257Y79751D01*
X258123Y79492D01*
X257982Y79237D01*
X257836Y78985D01*
X257683Y78737D01*
X257524Y78493D01*
X257359Y78252D01*
X257188Y78016D01*
X257012Y77784D01*
X256829Y77557D01*
X256642Y77334D01*
X256449Y77115D01*
X256250Y76902D01*
X256047Y76693D01*
X255838Y76490D01*
X255625Y76291D01*
X255406Y76098D01*
X255183Y75911D01*
X254956Y75728D01*
X254724Y75552D01*
X254488Y75381D01*
X254247Y75216D01*
X254003Y75057D01*
X253755Y74904D01*
X253503Y74758D01*
X253248Y74617D01*
X252989Y74483D01*
X252727Y74355D01*
X252462Y74234D01*
X252194Y74119D01*
X251924Y74011D01*
X251651Y73909D01*
X251375Y73814D01*
X251097Y73726D01*
X250817Y73645D01*
X250535Y73571D01*
X250252Y73504D01*
X249967Y73443D01*
X249680Y73390D01*
X249392Y73344D01*
X249104Y73304D01*
X248814Y73272D01*
X248524Y73247D01*
X248233Y73229D01*
X247941Y73219D01*
X247650Y73215D01*
X247359Y73219D01*
X247067Y73229D01*
X246776Y73247D01*
X246486Y73272D01*
X246196Y73304D01*
X245908Y73344D01*
X245620Y73390D01*
X245333Y73443D01*
X245048Y73504D01*
X244765Y73571D01*
X244483Y73645D01*
X244203Y73726D01*
X243925Y73814D01*
X243649Y73909D01*
X243376Y74011D01*
X243106Y74119D01*
X242838Y74234D01*
X242573Y74355D01*
X242311Y74483D01*
X242052Y74617D01*
X241797Y74758D01*
X241545Y74904D01*
X241297Y75057D01*
X241053Y75216D01*
X240812Y75381D01*
X240576Y75552D01*
X240344Y75728D01*
X240117Y75911D01*
X239894Y76098D01*
X239675Y76291D01*
X239462Y76490D01*
X239253Y76693D01*
X239050Y76902D01*
X238851Y77115D01*
X238658Y77334D01*
X238471Y77557D01*
X238288Y77784D01*
X238112Y78016D01*
X237941Y78252D01*
X237776Y78493D01*
X237617Y78737D01*
X237464Y78985D01*
X237318Y79237D01*
X237177Y79492D01*
X237043Y79751D01*
X236915Y80013D01*
X236794Y80278D01*
X236679Y80546D01*
X236571Y80816D01*
X236469Y81089D01*
X236374Y81365D01*
X236286Y81643D01*
X236205Y81923D01*
X236131Y82205D01*
X236064Y82488D01*
X236003Y82773D01*
X235950Y83060D01*
X235904Y83348D01*
X235864Y83636D01*
X235832Y83926D01*
X235807Y84216D01*
X235789Y84507D01*
X235779Y84799D01*
X235775Y85090D01*
X235775Y34290D02*
X235779Y34581D01*
X235789Y34873D01*
X235807Y35164D01*
X235832Y35454D01*
X235864Y35744D01*
X235904Y36032D01*
X235950Y36320D01*
X236003Y36607D01*
X236064Y36892D01*
X236131Y37175D01*
X236205Y37457D01*
X236286Y37737D01*
X236374Y38015D01*
X236469Y38291D01*
X236571Y38564D01*
X236679Y38834D01*
X236794Y39102D01*
X236915Y39367D01*
X237043Y39629D01*
X237177Y39888D01*
X237318Y40143D01*
X237464Y40395D01*
X237617Y40643D01*
X237776Y40887D01*
X237941Y41128D01*
X238112Y41364D01*
X238288Y41596D01*
X238471Y41823D01*
X238658Y42046D01*
X238851Y42265D01*
X239050Y42478D01*
X239253Y42687D01*
X239462Y42890D01*
X239675Y43089D01*
X239894Y43282D01*
X240117Y43469D01*
X240344Y43652D01*
X240576Y43828D01*
X240812Y43999D01*
X241053Y44164D01*
X241297Y44323D01*
X241545Y44476D01*
X241797Y44622D01*
X242052Y44763D01*
X242311Y44897D01*
X242573Y45025D01*
X242838Y45146D01*
X243106Y45261D01*
X243376Y45369D01*
X243649Y45471D01*
X243925Y45566D01*
X244203Y45654D01*
X244483Y45735D01*
X244765Y45809D01*
X245048Y45876D01*
X245333Y45937D01*
X245620Y45990D01*
X245908Y46036D01*
X246196Y46076D01*
X246486Y46108D01*
X246776Y46133D01*
X247067Y46151D01*
X247359Y46161D01*
X247650Y46165D01*
X247941Y46161D01*
X248233Y46151D01*
X248524Y46133D01*
X248814Y46108D01*
X249104Y46076D01*
X249392Y46036D01*
X249680Y45990D01*
X249967Y45937D01*
X250252Y45876D01*
X250535Y45809D01*
X250817Y45735D01*
X251097Y45654D01*
X251375Y45566D01*
X251651Y45471D01*
X251924Y45369D01*
X252194Y45261D01*
X252462Y45146D01*
X252727Y45025D01*
X252989Y44897D01*
X253248Y44763D01*
X253503Y44622D01*
X253755Y44476D01*
X254003Y44323D01*
X254247Y44164D01*
X254488Y43999D01*
X254724Y43828D01*
X254956Y43652D01*
X255183Y43469D01*
X255406Y43282D01*
X255625Y43089D01*
X255838Y42890D01*
X256047Y42687D01*
X256250Y42478D01*
X256449Y42265D01*
X256642Y42046D01*
X256829Y41823D01*
X257012Y41596D01*
X257188Y41364D01*
X257359Y41128D01*
X257524Y40887D01*
X257683Y40643D01*
X257836Y40395D01*
X257982Y40143D01*
X258123Y39888D01*
X258257Y39629D01*
X258385Y39367D01*
X258506Y39102D01*
X258621Y38834D01*
X258729Y38564D01*
X258831Y38291D01*
X258926Y38015D01*
X259014Y37737D01*
X259095Y37457D01*
X259169Y37175D01*
X259236Y36892D01*
X259297Y36607D01*
X259350Y36320D01*
X259396Y36032D01*
X259436Y35744D01*
X259468Y35454D01*
X259493Y35164D01*
X259511Y34873D01*
X259521Y34581D01*
X259525Y34290D01*
X259521Y33999D01*
X259511Y33707D01*
X259493Y33416D01*
X259468Y33126D01*
X259436Y32836D01*
X259396Y32548D01*
X259350Y32260D01*
X259297Y31973D01*
X259236Y31688D01*
X259169Y31405D01*
X259095Y31123D01*
X259014Y30843D01*
X258926Y30565D01*
X258831Y30289D01*
X258729Y30016D01*
X258621Y29746D01*
X258506Y29478D01*
X258385Y29213D01*
X258257Y28951D01*
X258123Y28692D01*
X257982Y28437D01*
X257836Y28185D01*
X257683Y27937D01*
X257524Y27693D01*
X257359Y27452D01*
X257188Y27216D01*
X257012Y26984D01*
X256829Y26757D01*
X256642Y26534D01*
X256449Y26315D01*
X256250Y26102D01*
X256047Y25893D01*
X255838Y25690D01*
X255625Y25491D01*
X255406Y25298D01*
X255183Y25111D01*
X254956Y24928D01*
X254724Y24752D01*
X254488Y24581D01*
X254247Y24416D01*
X254003Y24257D01*
X253755Y24104D01*
X253503Y23958D01*
X253248Y23817D01*
X252989Y23683D01*
X252727Y23555D01*
X252462Y23434D01*
X252194Y23319D01*
X251924Y23211D01*
X251651Y23109D01*
X251375Y23014D01*
X251097Y22926D01*
X250817Y22845D01*
X250535Y22771D01*
X250252Y22704D01*
X249967Y22643D01*
X249680Y22590D01*
X249392Y22544D01*
X249104Y22504D01*
X248814Y22472D01*
X248524Y22447D01*
X248233Y22429D01*
X247941Y22419D01*
X247650Y22415D01*
X247359Y22419D01*
X247067Y22429D01*
X246776Y22447D01*
X246486Y22472D01*
X246196Y22504D01*
X245908Y22544D01*
X245620Y22590D01*
X245333Y22643D01*
X245048Y22704D01*
X244765Y22771D01*
X244483Y22845D01*
X244203Y22926D01*
X243925Y23014D01*
X243649Y23109D01*
X243376Y23211D01*
X243106Y23319D01*
X242838Y23434D01*
X242573Y23555D01*
X242311Y23683D01*
X242052Y23817D01*
X241797Y23958D01*
X241545Y24104D01*
X241297Y24257D01*
X241053Y24416D01*
X240812Y24581D01*
X240576Y24752D01*
X240344Y24928D01*
X240117Y25111D01*
X239894Y25298D01*
X239675Y25491D01*
X239462Y25690D01*
X239253Y25893D01*
X239050Y26102D01*
X238851Y26315D01*
X238658Y26534D01*
X238471Y26757D01*
X238288Y26984D01*
X238112Y27216D01*
X237941Y27452D01*
X237776Y27693D01*
X237617Y27937D01*
X237464Y28185D01*
X237318Y28437D01*
X237177Y28692D01*
X237043Y28951D01*
X236915Y29213D01*
X236794Y29478D01*
X236679Y29746D01*
X236571Y30016D01*
X236469Y30289D01*
X236374Y30565D01*
X236286Y30843D01*
X236205Y31123D01*
X236131Y31405D01*
X236064Y31688D01*
X236003Y31973D01*
X235950Y32260D01*
X235904Y32548D01*
X235864Y32836D01*
X235832Y33126D01*
X235807Y33416D01*
X235789Y33707D01*
X235779Y33999D01*
X235775Y34290D01*
X178625Y34290D02*
X178629Y34581D01*
X178639Y34873D01*
X178657Y35164D01*
X178682Y35454D01*
X178714Y35744D01*
X178754Y36032D01*
X178800Y36320D01*
X178853Y36607D01*
X178914Y36892D01*
X178981Y37175D01*
X179055Y37457D01*
X179136Y37737D01*
X179224Y38015D01*
X179319Y38291D01*
X179421Y38564D01*
X179529Y38834D01*
X179644Y39102D01*
X179765Y39367D01*
X179893Y39629D01*
X180027Y39888D01*
X180168Y40143D01*
X180314Y40395D01*
X180467Y40643D01*
X180626Y40887D01*
X180791Y41128D01*
X180962Y41364D01*
X181138Y41596D01*
X181321Y41823D01*
X181508Y42046D01*
X181701Y42265D01*
X181900Y42478D01*
X182103Y42687D01*
X182312Y42890D01*
X182525Y43089D01*
X182744Y43282D01*
X182967Y43469D01*
X183194Y43652D01*
X183426Y43828D01*
X183662Y43999D01*
X183903Y44164D01*
X184147Y44323D01*
X184395Y44476D01*
X184647Y44622D01*
X184902Y44763D01*
X185161Y44897D01*
X185423Y45025D01*
X185688Y45146D01*
X185956Y45261D01*
X186226Y45369D01*
X186499Y45471D01*
X186775Y45566D01*
X187053Y45654D01*
X187333Y45735D01*
X187615Y45809D01*
X187898Y45876D01*
X188183Y45937D01*
X188470Y45990D01*
X188758Y46036D01*
X189046Y46076D01*
X189336Y46108D01*
X189626Y46133D01*
X189917Y46151D01*
X190209Y46161D01*
X190500Y46165D01*
X190791Y46161D01*
X191083Y46151D01*
X191374Y46133D01*
X191664Y46108D01*
X191954Y46076D01*
X192242Y46036D01*
X192530Y45990D01*
X192817Y45937D01*
X193102Y45876D01*
X193385Y45809D01*
X193667Y45735D01*
X193947Y45654D01*
X194225Y45566D01*
X194501Y45471D01*
X194774Y45369D01*
X195044Y45261D01*
X195312Y45146D01*
X195577Y45025D01*
X195839Y44897D01*
X196098Y44763D01*
X196353Y44622D01*
X196605Y44476D01*
X196853Y44323D01*
X197097Y44164D01*
X197338Y43999D01*
X197574Y43828D01*
X197806Y43652D01*
X198033Y43469D01*
X198256Y43282D01*
X198475Y43089D01*
X198688Y42890D01*
X198897Y42687D01*
X199100Y42478D01*
X199299Y42265D01*
X199492Y42046D01*
X199679Y41823D01*
X199862Y41596D01*
X200038Y41364D01*
X200209Y41128D01*
X200374Y40887D01*
X200533Y40643D01*
X200686Y40395D01*
X200832Y40143D01*
X200973Y39888D01*
X201107Y39629D01*
X201235Y39367D01*
X201356Y39102D01*
X201471Y38834D01*
X201579Y38564D01*
X201681Y38291D01*
X201776Y38015D01*
X201864Y37737D01*
X201945Y37457D01*
X202019Y37175D01*
X202086Y36892D01*
X202147Y36607D01*
X202200Y36320D01*
X202246Y36032D01*
X202286Y35744D01*
X202318Y35454D01*
X202343Y35164D01*
X202361Y34873D01*
X202371Y34581D01*
X202375Y34290D01*
X202371Y33999D01*
X202361Y33707D01*
X202343Y33416D01*
X202318Y33126D01*
X202286Y32836D01*
X202246Y32548D01*
X202200Y32260D01*
X202147Y31973D01*
X202086Y31688D01*
X202019Y31405D01*
X201945Y31123D01*
X201864Y30843D01*
X201776Y30565D01*
X201681Y30289D01*
X201579Y30016D01*
X201471Y29746D01*
X201356Y29478D01*
X201235Y29213D01*
X201107Y28951D01*
X200973Y28692D01*
X200832Y28437D01*
X200686Y28185D01*
X200533Y27937D01*
X200374Y27693D01*
X200209Y27452D01*
X200038Y27216D01*
X199862Y26984D01*
X199679Y26757D01*
X199492Y26534D01*
X199299Y26315D01*
X199100Y26102D01*
X198897Y25893D01*
X198688Y25690D01*
X198475Y25491D01*
X198256Y25298D01*
X198033Y25111D01*
X197806Y24928D01*
X197574Y24752D01*
X197338Y24581D01*
X197097Y24416D01*
X196853Y24257D01*
X196605Y24104D01*
X196353Y23958D01*
X196098Y23817D01*
X195839Y23683D01*
X195577Y23555D01*
X195312Y23434D01*
X195044Y23319D01*
X194774Y23211D01*
X194501Y23109D01*
X194225Y23014D01*
X193947Y22926D01*
X193667Y22845D01*
X193385Y22771D01*
X193102Y22704D01*
X192817Y22643D01*
X192530Y22590D01*
X192242Y22544D01*
X191954Y22504D01*
X191664Y22472D01*
X191374Y22447D01*
X191083Y22429D01*
X190791Y22419D01*
X190500Y22415D01*
X190209Y22419D01*
X189917Y22429D01*
X189626Y22447D01*
X189336Y22472D01*
X189046Y22504D01*
X188758Y22544D01*
X188470Y22590D01*
X188183Y22643D01*
X187898Y22704D01*
X187615Y22771D01*
X187333Y22845D01*
X187053Y22926D01*
X186775Y23014D01*
X186499Y23109D01*
X186226Y23211D01*
X185956Y23319D01*
X185688Y23434D01*
X185423Y23555D01*
X185161Y23683D01*
X184902Y23817D01*
X184647Y23958D01*
X184395Y24104D01*
X184147Y24257D01*
X183903Y24416D01*
X183662Y24581D01*
X183426Y24752D01*
X183194Y24928D01*
X182967Y25111D01*
X182744Y25298D01*
X182525Y25491D01*
X182312Y25690D01*
X182103Y25893D01*
X181900Y26102D01*
X181701Y26315D01*
X181508Y26534D01*
X181321Y26757D01*
X181138Y26984D01*
X180962Y27216D01*
X180791Y27452D01*
X180626Y27693D01*
X180467Y27937D01*
X180314Y28185D01*
X180168Y28437D01*
X180027Y28692D01*
X179893Y28951D01*
X179765Y29213D01*
X179644Y29478D01*
X179529Y29746D01*
X179421Y30016D01*
X179319Y30289D01*
X179224Y30565D01*
X179136Y30843D01*
X179055Y31123D01*
X178981Y31405D01*
X178914Y31688D01*
X178853Y31973D01*
X178800Y32260D01*
X178754Y32548D01*
X178714Y32836D01*
X178682Y33126D01*
X178657Y33416D01*
X178639Y33707D01*
X178629Y33999D01*
X178625Y34290D01*
X44000Y60000D02*
X44005Y60393D01*
X44019Y60785D01*
X44043Y61177D01*
X44077Y61568D01*
X44120Y61959D01*
X44173Y62348D01*
X44236Y62735D01*
X44307Y63121D01*
X44389Y63506D01*
X44479Y63888D01*
X44580Y64267D01*
X44689Y64645D01*
X44808Y65019D01*
X44935Y65390D01*
X45072Y65758D01*
X45218Y66123D01*
X45373Y66484D01*
X45536Y66841D01*
X45708Y67194D01*
X45889Y67542D01*
X46079Y67886D01*
X46276Y68226D01*
X46482Y68560D01*
X46696Y68889D01*
X46919Y69213D01*
X47149Y69531D01*
X47386Y69844D01*
X47632Y70150D01*
X47885Y70451D01*
X48145Y70745D01*
X48412Y71033D01*
X48686Y71314D01*
X48967Y71588D01*
X49255Y71855D01*
X49549Y72115D01*
X49850Y72368D01*
X50156Y72614D01*
X50469Y72851D01*
X50787Y73081D01*
X51111Y73304D01*
X51440Y73518D01*
X51774Y73724D01*
X52114Y73921D01*
X52458Y74111D01*
X52806Y74292D01*
X53159Y74464D01*
X53516Y74627D01*
X53877Y74782D01*
X54242Y74928D01*
X54610Y75065D01*
X54981Y75192D01*
X55355Y75311D01*
X55733Y75420D01*
X56112Y75521D01*
X56494Y75611D01*
X56879Y75693D01*
X57265Y75764D01*
X57652Y75827D01*
X58041Y75880D01*
X58432Y75923D01*
X58823Y75957D01*
X59215Y75981D01*
X59607Y75995D01*
X60000Y76000D01*
X60393Y75995D01*
X60785Y75981D01*
X61177Y75957D01*
X61568Y75923D01*
X61959Y75880D01*
X62348Y75827D01*
X62735Y75764D01*
X63121Y75693D01*
X63506Y75611D01*
X63888Y75521D01*
X64267Y75420D01*
X64645Y75311D01*
X65019Y75192D01*
X65390Y75065D01*
X65758Y74928D01*
X66123Y74782D01*
X66484Y74627D01*
X66841Y74464D01*
X67194Y74292D01*
X67542Y74111D01*
X67886Y73921D01*
X68226Y73724D01*
X68560Y73518D01*
X68889Y73304D01*
X69213Y73081D01*
X69531Y72851D01*
X69844Y72614D01*
X70150Y72368D01*
X70451Y72115D01*
X70745Y71855D01*
X71033Y71588D01*
X71314Y71314D01*
X71588Y71033D01*
X71855Y70745D01*
X72115Y70451D01*
X72368Y70150D01*
X72614Y69844D01*
X72851Y69531D01*
X73081Y69213D01*
X73304Y68889D01*
X73518Y68560D01*
X73724Y68226D01*
X73921Y67886D01*
X74111Y67542D01*
X74292Y67194D01*
X74464Y66841D01*
X74627Y66484D01*
X74782Y66123D01*
X74928Y65758D01*
X75065Y65390D01*
X75192Y65019D01*
X75311Y64645D01*
X75420Y64267D01*
X75521Y63888D01*
X75611Y63506D01*
X75693Y63121D01*
X75764Y62735D01*
X75827Y62348D01*
X75880Y61959D01*
X75923Y61568D01*
X75957Y61177D01*
X75981Y60785D01*
X75995Y60393D01*
X76000Y60000D01*
X75995Y59607D01*
X75981Y59215D01*
X75957Y58823D01*
X75923Y58432D01*
X75880Y58041D01*
X75827Y57652D01*
X75764Y57265D01*
X75693Y56879D01*
X75611Y56494D01*
X75521Y56112D01*
X75420Y55733D01*
X75311Y55355D01*
X75192Y54981D01*
X75065Y54610D01*
X74928Y54242D01*
X74782Y53877D01*
X74627Y53516D01*
X74464Y53159D01*
X74292Y52806D01*
X74111Y52458D01*
X73921Y52114D01*
X73724Y51774D01*
X73518Y51440D01*
X73304Y51111D01*
X73081Y50787D01*
X72851Y50469D01*
X72614Y50156D01*
X72368Y49850D01*
X72115Y49549D01*
X71855Y49255D01*
X71588Y48967D01*
X71314Y48686D01*
X71033Y48412D01*
X70745Y48145D01*
X70451Y47885D01*
X70150Y47632D01*
X69844Y47386D01*
X69531Y47149D01*
X69213Y46919D01*
X68889Y46696D01*
X68560Y46482D01*
X68226Y46276D01*
X67886Y46079D01*
X67542Y45889D01*
X67194Y45708D01*
X66841Y45536D01*
X66484Y45373D01*
X66123Y45218D01*
X65758Y45072D01*
X65390Y44935D01*
X65019Y44808D01*
X64645Y44689D01*
X64267Y44580D01*
X63888Y44479D01*
X63506Y44389D01*
X63121Y44307D01*
X62735Y44236D01*
X62348Y44173D01*
X61959Y44120D01*
X61568Y44077D01*
X61177Y44043D01*
X60785Y44019D01*
X60393Y44005D01*
X60000Y44000D01*
X59607Y44005D01*
X59215Y44019D01*
X58823Y44043D01*
X58432Y44077D01*
X58041Y44120D01*
X57652Y44173D01*
X57265Y44236D01*
X56879Y44307D01*
X56494Y44389D01*
X56112Y44479D01*
X55733Y44580D01*
X55355Y44689D01*
X54981Y44808D01*
X54610Y44935D01*
X54242Y45072D01*
X53877Y45218D01*
X53516Y45373D01*
X53159Y45536D01*
X52806Y45708D01*
X52458Y45889D01*
X52114Y46079D01*
X51774Y46276D01*
X51440Y46482D01*
X51111Y46696D01*
X50787Y46919D01*
X50469Y47149D01*
X50156Y47386D01*
X49850Y47632D01*
X49549Y47885D01*
X49255Y48145D01*
X48967Y48412D01*
X48686Y48686D01*
X48412Y48967D01*
X48145Y49255D01*
X47885Y49549D01*
X47632Y49850D01*
X47386Y50156D01*
X47149Y50469D01*
X46919Y50787D01*
X46696Y51111D01*
X46482Y51440D01*
X46276Y51774D01*
X46079Y52114D01*
X45889Y52458D01*
X45708Y52806D01*
X45536Y53159D01*
X45373Y53516D01*
X45218Y53877D01*
X45072Y54242D01*
X44935Y54610D01*
X44808Y54981D01*
X44689Y55355D01*
X44580Y55733D01*
X44479Y56112D01*
X44389Y56494D01*
X44307Y56879D01*
X44236Y57265D01*
X44173Y57652D01*
X44120Y58041D01*
X44077Y58432D01*
X44043Y58823D01*
X44019Y59215D01*
X44005Y59607D01*
X44000Y60000D01*
X44000Y440000D02*
X44005Y440393D01*
X44019Y440785D01*
X44043Y441177D01*
X44077Y441568D01*
X44120Y441959D01*
X44173Y442348D01*
X44236Y442735D01*
X44307Y443121D01*
X44389Y443506D01*
X44479Y443888D01*
X44580Y444267D01*
X44689Y444645D01*
X44808Y445019D01*
X44935Y445390D01*
X45072Y445758D01*
X45218Y446123D01*
X45373Y446484D01*
X45536Y446841D01*
X45708Y447194D01*
X45889Y447542D01*
X46079Y447886D01*
X46276Y448226D01*
X46482Y448560D01*
X46696Y448889D01*
X46919Y449213D01*
X47149Y449531D01*
X47386Y449844D01*
X47632Y450150D01*
X47885Y450451D01*
X48145Y450745D01*
X48412Y451033D01*
X48686Y451314D01*
X48967Y451588D01*
X49255Y451855D01*
X49549Y452115D01*
X49850Y452368D01*
X50156Y452614D01*
X50469Y452851D01*
X50787Y453081D01*
X51111Y453304D01*
X51440Y453518D01*
X51774Y453724D01*
X52114Y453921D01*
X52458Y454111D01*
X52806Y454292D01*
X53159Y454464D01*
X53516Y454627D01*
X53877Y454782D01*
X54242Y454928D01*
X54610Y455065D01*
X54981Y455192D01*
X55355Y455311D01*
X55733Y455420D01*
X56112Y455521D01*
X56494Y455611D01*
X56879Y455693D01*
X57265Y455764D01*
X57652Y455827D01*
X58041Y455880D01*
X58432Y455923D01*
X58823Y455957D01*
X59215Y455981D01*
X59607Y455995D01*
X60000Y456000D01*
X60393Y455995D01*
X60785Y455981D01*
X61177Y455957D01*
X61568Y455923D01*
X61959Y455880D01*
X62348Y455827D01*
X62735Y455764D01*
X63121Y455693D01*
X63506Y455611D01*
X63888Y455521D01*
X64267Y455420D01*
X64645Y455311D01*
X65019Y455192D01*
X65390Y455065D01*
X65758Y454928D01*
X66123Y454782D01*
X66484Y454627D01*
X66841Y454464D01*
X67194Y454292D01*
X67542Y454111D01*
X67886Y453921D01*
X68226Y453724D01*
X68560Y453518D01*
X68889Y453304D01*
X69213Y453081D01*
X69531Y452851D01*
X69844Y452614D01*
X70150Y452368D01*
X70451Y452115D01*
X70745Y451855D01*
X71033Y451588D01*
X71314Y451314D01*
X71588Y451033D01*
X71855Y450745D01*
X72115Y450451D01*
X72368Y450150D01*
X72614Y449844D01*
X72851Y449531D01*
X73081Y449213D01*
X73304Y448889D01*
X73518Y448560D01*
X73724Y448226D01*
X73921Y447886D01*
X74111Y447542D01*
X74292Y447194D01*
X74464Y446841D01*
X74627Y446484D01*
X74782Y446123D01*
X74928Y445758D01*
X75065Y445390D01*
X75192Y445019D01*
X75311Y444645D01*
X75420Y444267D01*
X75521Y443888D01*
X75611Y443506D01*
X75693Y443121D01*
X75764Y442735D01*
X75827Y442348D01*
X75880Y441959D01*
X75923Y441568D01*
X75957Y441177D01*
X75981Y440785D01*
X75995Y440393D01*
X76000Y440000D01*
X75995Y439607D01*
X75981Y439215D01*
X75957Y438823D01*
X75923Y438432D01*
X75880Y438041D01*
X75827Y437652D01*
X75764Y437265D01*
X75693Y436879D01*
X75611Y436494D01*
X75521Y436112D01*
X75420Y435733D01*
X75311Y435355D01*
X75192Y434981D01*
X75065Y434610D01*
X74928Y434242D01*
X74782Y433877D01*
X74627Y433516D01*
X74464Y433159D01*
X74292Y432806D01*
X74111Y432458D01*
X73921Y432114D01*
X73724Y431774D01*
X73518Y431440D01*
X73304Y431111D01*
X73081Y430787D01*
X72851Y430469D01*
X72614Y430156D01*
X72368Y429850D01*
X72115Y429549D01*
X71855Y429255D01*
X71588Y428967D01*
X71314Y428686D01*
X71033Y428412D01*
X70745Y428145D01*
X70451Y427885D01*
X70150Y427632D01*
X69844Y427386D01*
X69531Y427149D01*
X69213Y426919D01*
X68889Y426696D01*
X68560Y426482D01*
X68226Y426276D01*
X67886Y426079D01*
X67542Y425889D01*
X67194Y425708D01*
X66841Y425536D01*
X66484Y425373D01*
X66123Y425218D01*
X65758Y425072D01*
X65390Y424935D01*
X65019Y424808D01*
X64645Y424689D01*
X64267Y424580D01*
X63888Y424479D01*
X63506Y424389D01*
X63121Y424307D01*
X62735Y424236D01*
X62348Y424173D01*
X61959Y424120D01*
X61568Y424077D01*
X61177Y424043D01*
X60785Y424019D01*
X60393Y424005D01*
X60000Y424000D01*
X59607Y424005D01*
X59215Y424019D01*
X58823Y424043D01*
X58432Y424077D01*
X58041Y424120D01*
X57652Y424173D01*
X57265Y424236D01*
X56879Y424307D01*
X56494Y424389D01*
X56112Y424479D01*
X55733Y424580D01*
X55355Y424689D01*
X54981Y424808D01*
X54610Y424935D01*
X54242Y425072D01*
X53877Y425218D01*
X53516Y425373D01*
X53159Y425536D01*
X52806Y425708D01*
X52458Y425889D01*
X52114Y426079D01*
X51774Y426276D01*
X51440Y426482D01*
X51111Y426696D01*
X50787Y426919D01*
X50469Y427149D01*
X50156Y427386D01*
X49850Y427632D01*
X49549Y427885D01*
X49255Y428145D01*
X48967Y428412D01*
X48686Y428686D01*
X48412Y428967D01*
X48145Y429255D01*
X47885Y429549D01*
X47632Y429850D01*
X47386Y430156D01*
X47149Y430469D01*
X46919Y430787D01*
X46696Y431111D01*
X46482Y431440D01*
X46276Y431774D01*
X46079Y432114D01*
X45889Y432458D01*
X45708Y432806D01*
X45536Y433159D01*
X45373Y433516D01*
X45218Y433877D01*
X45072Y434242D01*
X44935Y434610D01*
X44808Y434981D01*
X44689Y435355D01*
X44580Y435733D01*
X44479Y436112D01*
X44389Y436494D01*
X44307Y436879D01*
X44236Y437265D01*
X44173Y437652D01*
X44120Y438041D01*
X44077Y438432D01*
X44043Y438823D01*
X44019Y439215D01*
X44005Y439607D01*
X44000Y440000D01*
X1024000Y440000D02*
X1024005Y440393D01*
X1024019Y440785D01*
X1024043Y441177D01*
X1024077Y441568D01*
X1024120Y441959D01*
X1024173Y442348D01*
X1024236Y442735D01*
X1024307Y443121D01*
X1024389Y443506D01*
X1024479Y443888D01*
X1024580Y444267D01*
X1024689Y444645D01*
X1024808Y445019D01*
X1024935Y445390D01*
X1025072Y445758D01*
X1025218Y446123D01*
X1025373Y446484D01*
X1025536Y446841D01*
X1025708Y447194D01*
X1025889Y447542D01*
X1026079Y447886D01*
X1026276Y448226D01*
X1026482Y448560D01*
X1026696Y448889D01*
X1026919Y449213D01*
X1027149Y449531D01*
X1027386Y449844D01*
X1027632Y450150D01*
X1027885Y450451D01*
X1028145Y450745D01*
X1028412Y451033D01*
X1028686Y451314D01*
X1028967Y451588D01*
X1029255Y451855D01*
X1029549Y452115D01*
X1029850Y452368D01*
X1030156Y452614D01*
X1030469Y452851D01*
X1030787Y453081D01*
X1031111Y453304D01*
X1031440Y453518D01*
X1031774Y453724D01*
X1032114Y453921D01*
X1032458Y454111D01*
X1032806Y454292D01*
X1033159Y454464D01*
X1033516Y454627D01*
X1033877Y454782D01*
X1034242Y454928D01*
X1034610Y455065D01*
X1034981Y455192D01*
X1035355Y455311D01*
X1035733Y455420D01*
X1036112Y455521D01*
X1036494Y455611D01*
X1036879Y455693D01*
X1037265Y455764D01*
X1037652Y455827D01*
X1038041Y455880D01*
X1038432Y455923D01*
X1038823Y455957D01*
X1039215Y455981D01*
X1039607Y455995D01*
X1040000Y456000D01*
X1040393Y455995D01*
X1040785Y455981D01*
X1041177Y455957D01*
X1041568Y455923D01*
X1041959Y455880D01*
X1042348Y455827D01*
X1042735Y455764D01*
X1043121Y455693D01*
X1043506Y455611D01*
X1043888Y455521D01*
X1044267Y455420D01*
X1044645Y455311D01*
X1045019Y455192D01*
X1045390Y455065D01*
X1045758Y454928D01*
X1046123Y454782D01*
X1046484Y454627D01*
X1046841Y454464D01*
X1047194Y454292D01*
X1047542Y454111D01*
X1047886Y453921D01*
X1048226Y453724D01*
X1048560Y453518D01*
X1048889Y453304D01*
X1049213Y453081D01*
X1049531Y452851D01*
X1049844Y452614D01*
X1050150Y452368D01*
X1050451Y452115D01*
X1050745Y451855D01*
X1051033Y451588D01*
X1051314Y451314D01*
X1051588Y451033D01*
X1051855Y450745D01*
X1052115Y450451D01*
X1052368Y450150D01*
X1052614Y449844D01*
X1052851Y449531D01*
X1053081Y449213D01*
X1053304Y448889D01*
X1053518Y448560D01*
X1053724Y448226D01*
X1053921Y447886D01*
X1054111Y447542D01*
X1054292Y447194D01*
X1054464Y446841D01*
X1054627Y446484D01*
X1054782Y446123D01*
X1054928Y445758D01*
X1055065Y445390D01*
X1055192Y445019D01*
X1055311Y444645D01*
X1055420Y444267D01*
X1055521Y443888D01*
X1055611Y443506D01*
X1055693Y443121D01*
X1055764Y442735D01*
X1055827Y442348D01*
X1055880Y441959D01*
X1055923Y441568D01*
X1055957Y441177D01*
X1055981Y440785D01*
X1055995Y440393D01*
X1056000Y440000D01*
X1055995Y439607D01*
X1055981Y439215D01*
X1055957Y438823D01*
X1055923Y438432D01*
X1055880Y438041D01*
X1055827Y437652D01*
X1055764Y437265D01*
X1055693Y436879D01*
X1055611Y436494D01*
X1055521Y436112D01*
X1055420Y435733D01*
X1055311Y435355D01*
X1055192Y434981D01*
X1055065Y434610D01*
X1054928Y434242D01*
X1054782Y433877D01*
X1054627Y433516D01*
X1054464Y433159D01*
X1054292Y432806D01*
X1054111Y432458D01*
X1053921Y432114D01*
X1053724Y431774D01*
X1053518Y431440D01*
X1053304Y431111D01*
X1053081Y430787D01*
X1052851Y430469D01*
X1052614Y430156D01*
X1052368Y429850D01*
X1052115Y429549D01*
X1051855Y429255D01*
X1051588Y428967D01*
X1051314Y428686D01*
X1051033Y428412D01*
X1050745Y428145D01*
X1050451Y427885D01*
X1050150Y427632D01*
X1049844Y427386D01*
X1049531Y427149D01*
X1049213Y426919D01*
X1048889Y426696D01*
X1048560Y426482D01*
X1048226Y426276D01*
X1047886Y426079D01*
X1047542Y425889D01*
X1047194Y425708D01*
X1046841Y425536D01*
X1046484Y425373D01*
X1046123Y425218D01*
X1045758Y425072D01*
X1045390Y424935D01*
X1045019Y424808D01*
X1044645Y424689D01*
X1044267Y424580D01*
X1043888Y424479D01*
X1043506Y424389D01*
X1043121Y424307D01*
X1042735Y424236D01*
X1042348Y424173D01*
X1041959Y424120D01*
X1041568Y424077D01*
X1041177Y424043D01*
X1040785Y424019D01*
X1040393Y424005D01*
X1040000Y424000D01*
X1039607Y424005D01*
X1039215Y424019D01*
X1038823Y424043D01*
X1038432Y424077D01*
X1038041Y424120D01*
X1037652Y424173D01*
X1037265Y424236D01*
X1036879Y424307D01*
X1036494Y424389D01*
X1036112Y424479D01*
X1035733Y424580D01*
X1035355Y424689D01*
X1034981Y424808D01*
X1034610Y424935D01*
X1034242Y425072D01*
X1033877Y425218D01*
X1033516Y425373D01*
X1033159Y425536D01*
X1032806Y425708D01*
X1032458Y425889D01*
X1032114Y426079D01*
X1031774Y426276D01*
X1031440Y426482D01*
X1031111Y426696D01*
X1030787Y426919D01*
X1030469Y427149D01*
X1030156Y427386D01*
X1029850Y427632D01*
X1029549Y427885D01*
X1029255Y428145D01*
X1028967Y428412D01*
X1028686Y428686D01*
X1028412Y428967D01*
X1028145Y429255D01*
X1027885Y429549D01*
X1027632Y429850D01*
X1027386Y430156D01*
X1027149Y430469D01*
X1026919Y430787D01*
X1026696Y431111D01*
X1026482Y431440D01*
X1026276Y431774D01*
X1026079Y432114D01*
X1025889Y432458D01*
X1025708Y432806D01*
X1025536Y433159D01*
X1025373Y433516D01*
X1025218Y433877D01*
X1025072Y434242D01*
X1024935Y434610D01*
X1024808Y434981D01*
X1024689Y435355D01*
X1024580Y435733D01*
X1024479Y436112D01*
X1024389Y436494D01*
X1024307Y436879D01*
X1024236Y437265D01*
X1024173Y437652D01*
X1024120Y438041D01*
X1024077Y438432D01*
X1024043Y438823D01*
X1024019Y439215D01*
X1024005Y439607D01*
X1024000Y440000D01*
X1024000Y60000D02*
X1024005Y60393D01*
X1024019Y60785D01*
X1024043Y61177D01*
X1024077Y61568D01*
X1024120Y61959D01*
X1024173Y62348D01*
X1024236Y62735D01*
X1024307Y63121D01*
X1024389Y63506D01*
X1024479Y63888D01*
X1024580Y64267D01*
X1024689Y64645D01*
X1024808Y65019D01*
X1024935Y65390D01*
X1025072Y65758D01*
X1025218Y66123D01*
X1025373Y66484D01*
X1025536Y66841D01*
X1025708Y67194D01*
X1025889Y67542D01*
X1026079Y67886D01*
X1026276Y68226D01*
X1026482Y68560D01*
X1026696Y68889D01*
X1026919Y69213D01*
X1027149Y69531D01*
X1027386Y69844D01*
X1027632Y70150D01*
X1027885Y70451D01*
X1028145Y70745D01*
X1028412Y71033D01*
X1028686Y71314D01*
X1028967Y71588D01*
X1029255Y71855D01*
X1029549Y72115D01*
X1029850Y72368D01*
X1030156Y72614D01*
X1030469Y72851D01*
X1030787Y73081D01*
X1031111Y73304D01*
X1031440Y73518D01*
X1031774Y73724D01*
X1032114Y73921D01*
X1032458Y74111D01*
X1032806Y74292D01*
X1033159Y74464D01*
X1033516Y74627D01*
X1033877Y74782D01*
X1034242Y74928D01*
X1034610Y75065D01*
X1034981Y75192D01*
X1035355Y75311D01*
X1035733Y75420D01*
X1036112Y75521D01*
X1036494Y75611D01*
X1036879Y75693D01*
X1037265Y75764D01*
X1037652Y75827D01*
X1038041Y75880D01*
X1038432Y75923D01*
X1038823Y75957D01*
X1039215Y75981D01*
X1039607Y75995D01*
X1040000Y76000D01*
X1040393Y75995D01*
X1040785Y75981D01*
X1041177Y75957D01*
X1041568Y75923D01*
X1041959Y75880D01*
X1042348Y75827D01*
X1042735Y75764D01*
X1043121Y75693D01*
X1043506Y75611D01*
X1043888Y75521D01*
X1044267Y75420D01*
X1044645Y75311D01*
X1045019Y75192D01*
X1045390Y75065D01*
X1045758Y74928D01*
X1046123Y74782D01*
X1046484Y74627D01*
X1046841Y74464D01*
X1047194Y74292D01*
X1047542Y74111D01*
X1047886Y73921D01*
X1048226Y73724D01*
X1048560Y73518D01*
X1048889Y73304D01*
X1049213Y73081D01*
X1049531Y72851D01*
X1049844Y72614D01*
X1050150Y72368D01*
X1050451Y72115D01*
X1050745Y71855D01*
X1051033Y71588D01*
X1051314Y71314D01*
X1051588Y71033D01*
X1051855Y70745D01*
X1052115Y70451D01*
X1052368Y70150D01*
X1052614Y69844D01*
X1052851Y69531D01*
X1053081Y69213D01*
X1053304Y68889D01*
X1053518Y68560D01*
X1053724Y68226D01*
X1053921Y67886D01*
X1054111Y67542D01*
X1054292Y67194D01*
X1054464Y66841D01*
X1054627Y66484D01*
X1054782Y66123D01*
X1054928Y65758D01*
X1055065Y65390D01*
X1055192Y65019D01*
X1055311Y64645D01*
X1055420Y64267D01*
X1055521Y63888D01*
X1055611Y63506D01*
X1055693Y63121D01*
X1055764Y62735D01*
X1055827Y62348D01*
X1055880Y61959D01*
X1055923Y61568D01*
X1055957Y61177D01*
X1055981Y60785D01*
X1055995Y60393D01*
X1056000Y60000D01*
X1055995Y59607D01*
X1055981Y59215D01*
X1055957Y58823D01*
X1055923Y58432D01*
X1055880Y58041D01*
X1055827Y57652D01*
X1055764Y57265D01*
X1055693Y56879D01*
X1055611Y56494D01*
X1055521Y56112D01*
X1055420Y55733D01*
X1055311Y55355D01*
X1055192Y54981D01*
X1055065Y54610D01*
X1054928Y54242D01*
X1054782Y53877D01*
X1054627Y53516D01*
X1054464Y53159D01*
X1054292Y52806D01*
X1054111Y52458D01*
X1053921Y52114D01*
X1053724Y51774D01*
X1053518Y51440D01*
X1053304Y51111D01*
X1053081Y50787D01*
X1052851Y50469D01*
X1052614Y50156D01*
X1052368Y49850D01*
X1052115Y49549D01*
X1051855Y49255D01*
X1051588Y48967D01*
X1051314Y48686D01*
X1051033Y48412D01*
X1050745Y48145D01*
X1050451Y47885D01*
X1050150Y47632D01*
X1049844Y47386D01*
X1049531Y47149D01*
X1049213Y46919D01*
X1048889Y46696D01*
X1048560Y46482D01*
X1048226Y46276D01*
X1047886Y46079D01*
X1047542Y45889D01*
X1047194Y45708D01*
X1046841Y45536D01*
X1046484Y45373D01*
X1046123Y45218D01*
X1045758Y45072D01*
X1045390Y44935D01*
X1045019Y44808D01*
X1044645Y44689D01*
X1044267Y44580D01*
X1043888Y44479D01*
X1043506Y44389D01*
X1043121Y44307D01*
X1042735Y44236D01*
X1042348Y44173D01*
X1041959Y44120D01*
X1041568Y44077D01*
X1041177Y44043D01*
X1040785Y44019D01*
X1040393Y44005D01*
X1040000Y44000D01*
X1039607Y44005D01*
X1039215Y44019D01*
X1038823Y44043D01*
X1038432Y44077D01*
X1038041Y44120D01*
X1037652Y44173D01*
X1037265Y44236D01*
X1036879Y44307D01*
X1036494Y44389D01*
X1036112Y44479D01*
X1035733Y44580D01*
X1035355Y44689D01*
X1034981Y44808D01*
X1034610Y44935D01*
X1034242Y45072D01*
X1033877Y45218D01*
X1033516Y45373D01*
X1033159Y45536D01*
X1032806Y45708D01*
X1032458Y45889D01*
X1032114Y46079D01*
X1031774Y46276D01*
X1031440Y46482D01*
X1031111Y46696D01*
X1030787Y46919D01*
X1030469Y47149D01*
X1030156Y47386D01*
X1029850Y47632D01*
X1029549Y47885D01*
X1029255Y48145D01*
X1028967Y48412D01*
X1028686Y48686D01*
X1028412Y48967D01*
X1028145Y49255D01*
X1027885Y49549D01*
X1027632Y49850D01*
X1027386Y50156D01*
X1027149Y50469D01*
X1026919Y50787D01*
X1026696Y51111D01*
X1026482Y51440D01*
X1026276Y51774D01*
X1026079Y52114D01*
X1025889Y52458D01*
X1025708Y52806D01*
X1025536Y53159D01*
X1025373Y53516D01*
X1025218Y53877D01*
X1025072Y54242D01*
X1024935Y54610D01*
X1024808Y54981D01*
X1024689Y55355D01*
X1024580Y55733D01*
X1024479Y56112D01*
X1024389Y56494D01*
X1024307Y56879D01*
X1024236Y57265D01*
X1024173Y57652D01*
X1024120Y58041D01*
X1024077Y58432D01*
X1024043Y58823D01*
X1024019Y59215D01*
X1024005Y59607D01*
X1024000Y60000D01*
D11*
X0Y0D02*
X1100000Y0D01*
X1100000Y500000D01*
X0Y500000D01*
X0Y0D01*
M02*
