G04 EAGLE Gerber RS-274X export*
G75*
%MOMM*%
%FSLAX34Y34*%
%LPD*%
%INBottom Copper*%
%IPPOS*%
%AMOC8*
5,1,8,0,0,1.08239X$1,22.5*%
G01*
G04 Define Apertures*
%ADD10R,1.031200X1.420200*%
%ADD11C,2.184400*%
%ADD12R,0.595000X1.260500*%
%ADD13R,1.500000X1.500000*%
%ADD14C,1.500000*%
%ADD15R,1.676400X1.676400*%
%ADD16C,1.676400*%
%ADD17R,1.930400X1.930400*%
%ADD18C,1.930400*%
%ADD19C,3.616000*%
%ADD20C,8.500000*%
%ADD21R,1.164600X1.465300*%
%ADD22R,2.128400X2.224300*%
%ADD23C,0.756400*%
%ADD24C,0.203200*%
%ADD25C,0.304800*%
G36*
X1096880Y2580D02*
X1097214Y2809D01*
X1097432Y3150D01*
X1097500Y3516D01*
X1097500Y496484D01*
X1097420Y496880D01*
X1097191Y497214D01*
X1096850Y497432D01*
X1096484Y497500D01*
X3516Y497500D01*
X3120Y497420D01*
X2786Y497191D01*
X2568Y496850D01*
X2500Y496484D01*
X2500Y3516D01*
X2580Y3120D01*
X2809Y2786D01*
X3150Y2568D01*
X3516Y2500D01*
X1096484Y2500D01*
X1096880Y2580D01*
G37*
%LPC*%
G36*
X1036320Y421500D02*
X1029521Y424316D01*
X1024316Y429521D01*
X1021500Y436320D01*
X1021500Y443680D01*
X1024316Y450479D01*
X1029521Y455684D01*
X1036320Y458500D01*
X1043680Y458500D01*
X1050479Y455684D01*
X1055684Y450479D01*
X1058500Y443680D01*
X1058500Y436320D01*
X1055684Y429521D01*
X1050479Y424316D01*
X1043680Y421500D01*
X1036320Y421500D01*
G37*
G36*
X56320Y421500D02*
X49521Y424316D01*
X44316Y429521D01*
X41500Y436320D01*
X41500Y443680D01*
X44316Y450479D01*
X49521Y455684D01*
X56320Y458500D01*
X63680Y458500D01*
X70479Y455684D01*
X75684Y450479D01*
X78500Y443680D01*
X78500Y436320D01*
X75684Y429521D01*
X70479Y424316D01*
X63680Y421500D01*
X56320Y421500D01*
G37*
G36*
X778580Y369824D02*
X778580Y372402D01*
X781719Y379980D01*
X787520Y385781D01*
X795098Y388920D01*
X797676Y388920D01*
X797676Y369824D01*
X778580Y369824D01*
G37*
G36*
X800724Y369824D02*
X800724Y388920D01*
X803302Y388920D01*
X810880Y385781D01*
X816681Y379980D01*
X819820Y372402D01*
X819820Y369824D01*
X800724Y369824D01*
G37*
G36*
X800724Y347680D02*
X800724Y366776D01*
X819820Y366776D01*
X819820Y364198D01*
X816681Y356620D01*
X810880Y350819D01*
X803302Y347680D01*
X800724Y347680D01*
G37*
G36*
X795098Y347680D02*
X787520Y350819D01*
X781719Y356620D01*
X778580Y364198D01*
X778580Y366776D01*
X797676Y366776D01*
X797676Y347680D01*
X795098Y347680D01*
G37*
G36*
X561594Y249819D02*
X561594Y267504D01*
X564097Y267504D01*
X564820Y266781D01*
X565157Y266557D01*
X565555Y266483D01*
X565574Y266488D01*
X573176Y266488D01*
X574069Y265595D01*
X574069Y262725D01*
X574149Y262329D01*
X574378Y261995D01*
X574719Y261777D01*
X575085Y261709D01*
X587178Y261709D01*
X587574Y261789D01*
X587896Y262007D01*
X615144Y289255D01*
X615368Y289592D01*
X615442Y289973D01*
X615442Y341322D01*
X615362Y341718D01*
X615133Y342052D01*
X614815Y342261D01*
X611440Y343659D01*
X607939Y347160D01*
X606044Y351734D01*
X606044Y356686D01*
X607939Y361260D01*
X611440Y364761D01*
X616014Y366656D01*
X620966Y366656D01*
X625540Y364761D01*
X629041Y361260D01*
X630936Y356686D01*
X630936Y351734D01*
X629041Y347160D01*
X625540Y343659D01*
X622165Y342261D01*
X621830Y342035D01*
X621609Y341696D01*
X621538Y341322D01*
X621538Y287027D01*
X590124Y255613D01*
X575085Y255613D01*
X574689Y255533D01*
X574355Y255304D01*
X574137Y254963D01*
X574069Y254597D01*
X574069Y251727D01*
X573176Y250835D01*
X565549Y250835D01*
X565526Y250839D01*
X565131Y250754D01*
X564820Y250541D01*
X564097Y249819D01*
X561594Y249819D01*
G37*
G36*
X583145Y274094D02*
X581194Y274902D01*
X579702Y276394D01*
X578894Y278345D01*
X578894Y280638D01*
X578904Y280691D01*
X578821Y281086D01*
X578607Y281401D01*
X545345Y314662D01*
X545008Y314886D01*
X544627Y314960D01*
X500670Y314960D01*
X500274Y314880D01*
X499940Y314651D01*
X499912Y314608D01*
X498306Y313002D01*
X496355Y312194D01*
X494245Y312194D01*
X492294Y313002D01*
X490802Y314494D01*
X489994Y316445D01*
X489994Y318555D01*
X490802Y320506D01*
X492294Y321998D01*
X494245Y322806D01*
X496355Y322806D01*
X498306Y321998D01*
X499927Y320377D01*
X499957Y320332D01*
X500296Y320111D01*
X500670Y320040D01*
X547152Y320040D01*
X582199Y284993D01*
X582536Y284770D01*
X582934Y284696D01*
X582983Y284706D01*
X585255Y284706D01*
X587206Y283898D01*
X588698Y282406D01*
X589506Y280455D01*
X589506Y278345D01*
X588698Y276394D01*
X587206Y274902D01*
X585255Y274094D01*
X583145Y274094D01*
G37*
G36*
X1013124Y253854D02*
X1008550Y255749D01*
X1005049Y259250D01*
X1003154Y263824D01*
X1003154Y268776D01*
X1005049Y273350D01*
X1008550Y276851D01*
X1013124Y278746D01*
X1018076Y278746D01*
X1022650Y276851D01*
X1026151Y273350D01*
X1028046Y268776D01*
X1028046Y263824D01*
X1026151Y259250D01*
X1022650Y255749D01*
X1018076Y253854D01*
X1013124Y253854D01*
G37*
G36*
X963124Y253854D02*
X958550Y255749D01*
X955049Y259250D01*
X953154Y263824D01*
X953154Y268776D01*
X955049Y273350D01*
X958550Y276851D01*
X963124Y278746D01*
X968076Y278746D01*
X972650Y276851D01*
X976151Y273350D01*
X978046Y268776D01*
X978046Y263824D01*
X976151Y259250D01*
X972650Y255749D01*
X968076Y253854D01*
X963124Y253854D01*
G37*
G36*
X751717Y255524D02*
X750824Y256417D01*
X750824Y276983D01*
X751717Y277876D01*
X772283Y277876D01*
X773176Y276983D01*
X773176Y256417D01*
X772283Y255524D01*
X751717Y255524D01*
G37*
G36*
X165470Y53114D02*
X163519Y53922D01*
X162027Y55414D01*
X161340Y57073D01*
X161114Y57409D01*
X160775Y57629D01*
X160377Y57700D01*
X159982Y57610D01*
X159655Y57374D01*
X159445Y57028D01*
X159385Y56684D01*
X159385Y54498D01*
X158492Y53605D01*
X146918Y53605D01*
X146025Y54498D01*
X146025Y69962D01*
X146918Y70855D01*
X149149Y70855D01*
X149545Y70935D01*
X149879Y71164D01*
X150097Y71505D01*
X150165Y71871D01*
X150165Y97928D01*
X160738Y108502D01*
X160962Y108839D01*
X161036Y109220D01*
X161036Y142189D01*
X160956Y142586D01*
X160738Y142908D01*
X159332Y144314D01*
X158524Y146265D01*
X158524Y148375D01*
X159332Y150326D01*
X160942Y151936D01*
X161165Y152273D01*
X161239Y152670D01*
X161152Y153065D01*
X160919Y153395D01*
X160574Y153607D01*
X160223Y153670D01*
X159040Y153670D01*
X158644Y153590D01*
X158310Y153361D01*
X158282Y153318D01*
X156547Y151583D01*
X156502Y151553D01*
X156281Y151214D01*
X156210Y150840D01*
X156210Y134838D01*
X137153Y115780D01*
X136929Y115443D01*
X136855Y115062D01*
X136855Y71871D01*
X136935Y71475D01*
X137164Y71141D01*
X137505Y70923D01*
X137871Y70855D01*
X140102Y70855D01*
X140995Y69962D01*
X140995Y54498D01*
X140102Y53605D01*
X128528Y53605D01*
X127635Y54498D01*
X127635Y69962D01*
X128528Y70855D01*
X130759Y70855D01*
X131155Y70935D01*
X131489Y71164D01*
X131707Y71505D01*
X131775Y71871D01*
X131775Y117587D01*
X150832Y136645D01*
X151056Y136982D01*
X151130Y137363D01*
X151130Y150840D01*
X151050Y151236D01*
X150821Y151570D01*
X150778Y151598D01*
X149172Y153204D01*
X148364Y155155D01*
X148364Y157265D01*
X149172Y159216D01*
X150664Y160708D01*
X152615Y161516D01*
X154725Y161516D01*
X156676Y160708D01*
X158297Y159087D01*
X158327Y159042D01*
X158666Y158821D01*
X159040Y158750D01*
X194092Y158750D01*
X202469Y150373D01*
X202806Y150150D01*
X203204Y150076D01*
X203253Y150086D01*
X205525Y150086D01*
X207476Y149278D01*
X209097Y147657D01*
X209127Y147612D01*
X209466Y147391D01*
X209840Y147320D01*
X237693Y147320D01*
X238090Y147400D01*
X238423Y147629D01*
X238641Y147970D01*
X238709Y148368D01*
X238616Y148762D01*
X238412Y149054D01*
X236802Y150664D01*
X235994Y152615D01*
X235994Y154725D01*
X236802Y156676D01*
X238294Y158168D01*
X240245Y158976D01*
X242538Y158976D01*
X242591Y158966D01*
X242986Y159049D01*
X243301Y159263D01*
X326608Y242570D01*
X474777Y242570D01*
X475173Y242650D01*
X475495Y242868D01*
X490438Y257810D01*
X522950Y257810D01*
X523346Y257890D01*
X523680Y258119D01*
X523708Y258162D01*
X525314Y259768D01*
X527265Y260576D01*
X528895Y260576D01*
X529291Y260656D01*
X529613Y260874D01*
X530448Y261709D01*
X545055Y261709D01*
X545451Y261789D01*
X545785Y262018D01*
X546003Y262359D01*
X546071Y262725D01*
X546071Y265595D01*
X546964Y266488D01*
X554597Y266488D01*
X554597Y266488D01*
X554621Y266483D01*
X555016Y266571D01*
X555320Y266781D01*
X556043Y267504D01*
X558546Y267504D01*
X558546Y249819D01*
X556043Y249819D01*
X555320Y250541D01*
X554983Y250765D01*
X554585Y250839D01*
X554566Y250835D01*
X546964Y250835D01*
X546071Y251727D01*
X546071Y254597D01*
X545991Y254993D01*
X545762Y255327D01*
X545421Y255545D01*
X545055Y255613D01*
X534642Y255613D01*
X534246Y255533D01*
X533912Y255304D01*
X533694Y254963D01*
X533626Y254597D01*
X533626Y254215D01*
X532818Y252264D01*
X531326Y250772D01*
X529375Y249964D01*
X527265Y249964D01*
X525314Y250772D01*
X523693Y252393D01*
X523663Y252438D01*
X523324Y252659D01*
X522950Y252730D01*
X492963Y252730D01*
X492567Y252650D01*
X492245Y252432D01*
X477302Y237490D01*
X329133Y237490D01*
X328737Y237410D01*
X328415Y237192D01*
X246893Y155671D01*
X246670Y155334D01*
X246596Y154936D01*
X246606Y154887D01*
X246606Y152615D01*
X245798Y150664D01*
X244188Y149054D01*
X243965Y148717D01*
X243891Y148320D01*
X243978Y147925D01*
X244212Y147595D01*
X244556Y147383D01*
X244907Y147320D01*
X390078Y147320D01*
X401630Y135768D01*
X401967Y135545D01*
X402364Y135471D01*
X402414Y135481D01*
X404686Y135481D01*
X406636Y134673D01*
X408129Y133181D01*
X408937Y131230D01*
X408937Y129120D01*
X408129Y127169D01*
X406636Y125677D01*
X404686Y124869D01*
X402575Y124869D01*
X400625Y125677D01*
X399133Y127169D01*
X398325Y129120D01*
X398325Y131413D01*
X398335Y131466D01*
X398252Y131861D01*
X398038Y132176D01*
X388271Y141942D01*
X387934Y142166D01*
X387553Y142240D01*
X304546Y142240D01*
X304150Y142160D01*
X303816Y141931D01*
X303598Y141590D01*
X303530Y141224D01*
X303530Y134596D01*
X303610Y134199D01*
X303839Y133866D01*
X304180Y133648D01*
X304546Y133580D01*
X312263Y133580D01*
X313156Y132687D01*
X313156Y109181D01*
X312263Y108289D01*
X289717Y108289D01*
X288824Y109181D01*
X288824Y132687D01*
X289717Y133580D01*
X297434Y133580D01*
X297830Y133660D01*
X298164Y133889D01*
X298382Y134229D01*
X298450Y134596D01*
X298450Y141224D01*
X298370Y141620D01*
X298141Y141954D01*
X297800Y142172D01*
X297434Y142240D01*
X209840Y142240D01*
X209444Y142160D01*
X209110Y141931D01*
X209082Y141888D01*
X207476Y140282D01*
X205525Y139474D01*
X203415Y139474D01*
X201464Y140282D01*
X199972Y141774D01*
X199164Y143725D01*
X199164Y146018D01*
X199174Y146071D01*
X199091Y146466D01*
X198877Y146781D01*
X192285Y153372D01*
X191948Y153596D01*
X191567Y153670D01*
X167437Y153670D01*
X167040Y153590D01*
X166707Y153361D01*
X166489Y153020D01*
X166421Y152622D01*
X166514Y152228D01*
X166718Y151936D01*
X168328Y150326D01*
X169136Y148375D01*
X169136Y146265D01*
X168328Y144314D01*
X166836Y142822D01*
X166743Y142784D01*
X166408Y142558D01*
X166187Y142219D01*
X166116Y141845D01*
X166116Y106695D01*
X155543Y96121D01*
X155319Y95784D01*
X155245Y95403D01*
X155245Y71871D01*
X155325Y71475D01*
X155554Y71141D01*
X155895Y70923D01*
X156261Y70855D01*
X158492Y70855D01*
X159385Y69962D01*
X159385Y65786D01*
X159465Y65390D01*
X159694Y65056D01*
X160035Y64838D01*
X160401Y64770D01*
X163767Y64770D01*
X164524Y64013D01*
X164861Y63790D01*
X165259Y63716D01*
X165308Y63726D01*
X167580Y63726D01*
X169531Y62918D01*
X171023Y61426D01*
X171831Y59475D01*
X171831Y57365D01*
X171023Y55414D01*
X169531Y53922D01*
X167580Y53114D01*
X165470Y53114D01*
G37*
G36*
X199605Y182654D02*
X197654Y183462D01*
X196162Y184954D01*
X195354Y186905D01*
X195354Y189015D01*
X196162Y190966D01*
X197654Y192458D01*
X199605Y193266D01*
X201898Y193266D01*
X201951Y193256D01*
X202346Y193339D01*
X202661Y193553D01*
X261838Y252730D01*
X411190Y252730D01*
X411586Y252810D01*
X411920Y253039D01*
X411948Y253082D01*
X413554Y254688D01*
X415505Y255496D01*
X417615Y255496D01*
X419566Y254688D01*
X421058Y253196D01*
X421866Y251245D01*
X421866Y249135D01*
X421058Y247184D01*
X419566Y245692D01*
X417615Y244884D01*
X415505Y244884D01*
X413554Y245692D01*
X411933Y247313D01*
X411903Y247358D01*
X411564Y247579D01*
X411190Y247650D01*
X264363Y247650D01*
X263967Y247570D01*
X263645Y247352D01*
X206253Y189961D01*
X206030Y189624D01*
X205956Y189226D01*
X205966Y189177D01*
X205966Y186905D01*
X205158Y184954D01*
X203666Y183462D01*
X201715Y182654D01*
X199605Y182654D01*
G37*
G36*
X749808Y217424D02*
X749808Y218325D01*
X751664Y222806D01*
X755094Y226236D01*
X759575Y228092D01*
X759575Y228092D01*
X759971Y228172D01*
X760305Y228401D01*
X760523Y228742D01*
X760590Y229140D01*
X760497Y229534D01*
X760258Y229860D01*
X759964Y230047D01*
X755669Y231825D01*
X752525Y234969D01*
X750824Y239077D01*
X750824Y243523D01*
X752525Y247631D01*
X755669Y250775D01*
X759777Y252476D01*
X764223Y252476D01*
X768331Y250775D01*
X771475Y247631D01*
X773176Y243523D01*
X773176Y239077D01*
X771475Y234969D01*
X768331Y231825D01*
X764036Y230047D01*
X763701Y229821D01*
X763480Y229482D01*
X763409Y229084D01*
X763499Y228689D01*
X763736Y228362D01*
X764082Y228152D01*
X764425Y228092D01*
X764425Y228092D01*
X768906Y226236D01*
X772336Y222806D01*
X774192Y218325D01*
X774192Y217424D01*
X749808Y217424D01*
G37*
G36*
X616014Y123564D02*
X611440Y125459D01*
X607939Y128960D01*
X606044Y133534D01*
X606044Y138486D01*
X607939Y143060D01*
X611440Y146561D01*
X614815Y147959D01*
X615150Y148185D01*
X615371Y148524D01*
X615442Y148898D01*
X615442Y205327D01*
X615362Y205723D01*
X615144Y206045D01*
X590436Y230753D01*
X590099Y230977D01*
X589718Y231051D01*
X575085Y231051D01*
X574689Y230971D01*
X574355Y230742D01*
X574137Y230401D01*
X574069Y230035D01*
X574069Y227165D01*
X573176Y226273D01*
X565549Y226273D01*
X565526Y226277D01*
X565131Y226192D01*
X564820Y225979D01*
X563802Y224961D01*
X563578Y224624D01*
X563504Y224226D01*
X563591Y223831D01*
X563825Y223502D01*
X564169Y223289D01*
X564520Y223227D01*
X565539Y223227D01*
X567027Y221739D01*
X567027Y214884D01*
X557140Y214884D01*
X557140Y203494D01*
X551789Y203494D01*
X550241Y205041D01*
X550221Y205144D01*
X549992Y205477D01*
X549651Y205695D01*
X549253Y205763D01*
X548859Y205670D01*
X548567Y205466D01*
X547610Y204510D01*
X544712Y204510D01*
X544316Y204429D01*
X543982Y204200D01*
X543764Y203860D01*
X543696Y203494D01*
X543696Y199744D01*
X542803Y198851D01*
X542580Y198514D01*
X542506Y198116D01*
X542516Y198067D01*
X542516Y195795D01*
X541708Y193844D01*
X540216Y192352D01*
X538265Y191544D01*
X536155Y191544D01*
X534204Y192352D01*
X532712Y193844D01*
X531904Y195795D01*
X531904Y197905D01*
X532712Y199856D01*
X534204Y201348D01*
X536155Y202156D01*
X537600Y202156D01*
X537996Y202236D01*
X538330Y202465D01*
X538548Y202806D01*
X538616Y203172D01*
X538616Y203494D01*
X538536Y203890D01*
X538307Y204223D01*
X537966Y204441D01*
X537600Y204510D01*
X534702Y204510D01*
X533809Y205402D01*
X533809Y221318D01*
X534702Y222211D01*
X537600Y222211D01*
X537996Y222291D01*
X538330Y222520D01*
X538548Y222860D01*
X538616Y223227D01*
X538616Y231058D01*
X544197Y236639D01*
X545055Y236639D01*
X545451Y236719D01*
X545785Y236948D01*
X546003Y237289D01*
X546071Y237655D01*
X546071Y241033D01*
X546964Y241926D01*
X554597Y241926D01*
X554597Y241926D01*
X554621Y241921D01*
X555016Y242009D01*
X555320Y242219D01*
X556043Y242942D01*
X558546Y242942D01*
X558546Y232575D01*
X561594Y232575D01*
X561594Y242942D01*
X564097Y242942D01*
X564820Y242219D01*
X565157Y241995D01*
X565555Y241921D01*
X565574Y241926D01*
X573176Y241926D01*
X574069Y241033D01*
X574069Y238163D01*
X574149Y237767D01*
X574378Y237433D01*
X574719Y237215D01*
X575085Y237147D01*
X592664Y237147D01*
X621538Y208273D01*
X621538Y148898D01*
X621618Y148502D01*
X621847Y148168D01*
X622165Y147959D01*
X625540Y146561D01*
X629041Y143060D01*
X630936Y138486D01*
X630936Y133534D01*
X629041Y128960D01*
X625540Y125459D01*
X620966Y123564D01*
X616014Y123564D01*
G37*
G36*
X476820Y132334D02*
X473179Y133842D01*
X470392Y136629D01*
X468884Y140270D01*
X468884Y144210D01*
X470392Y147851D01*
X473179Y150638D01*
X475623Y151650D01*
X475958Y151876D01*
X476179Y152215D01*
X476250Y152589D01*
X476250Y205537D01*
X476170Y205933D01*
X475952Y206255D01*
X459201Y223007D01*
X458864Y223230D01*
X458466Y223304D01*
X458417Y223294D01*
X456145Y223294D01*
X454194Y224102D01*
X452702Y225594D01*
X451894Y227545D01*
X451894Y229655D01*
X452702Y231606D01*
X454194Y233098D01*
X456145Y233906D01*
X458255Y233906D01*
X460206Y233098D01*
X461698Y231606D01*
X462506Y229655D01*
X462506Y227363D01*
X462496Y227309D01*
X462579Y226914D01*
X462793Y226599D01*
X481330Y208062D01*
X481330Y152589D01*
X481410Y152193D01*
X481639Y151859D01*
X481957Y151650D01*
X484401Y150638D01*
X487188Y147851D01*
X488696Y144210D01*
X488696Y140270D01*
X487188Y136629D01*
X484401Y133842D01*
X480760Y132334D01*
X476820Y132334D01*
G37*
G36*
X952138Y217824D02*
X952138Y218978D01*
X954188Y223926D01*
X957974Y227713D01*
X962922Y229762D01*
X964076Y229762D01*
X964076Y217824D01*
X952138Y217824D01*
G37*
G36*
X1002138Y217824D02*
X1002138Y218978D01*
X1004188Y223926D01*
X1007974Y227713D01*
X1012922Y229762D01*
X1014076Y229762D01*
X1014076Y217824D01*
X1002138Y217824D01*
G37*
G36*
X1017124Y217824D02*
X1017124Y229762D01*
X1018278Y229762D01*
X1023226Y227713D01*
X1027013Y223926D01*
X1029062Y218978D01*
X1029062Y217824D01*
X1017124Y217824D01*
G37*
G36*
X967124Y217824D02*
X967124Y229762D01*
X968278Y229762D01*
X973226Y227713D01*
X977013Y223926D01*
X979062Y218978D01*
X979062Y217824D01*
X967124Y217824D01*
G37*
G36*
X451420Y132334D02*
X447779Y133842D01*
X444992Y136629D01*
X443484Y140270D01*
X443484Y144210D01*
X444992Y147851D01*
X447779Y150638D01*
X450223Y151650D01*
X450558Y151876D01*
X450779Y152215D01*
X450850Y152589D01*
X450850Y206792D01*
X452877Y208819D01*
X453100Y209156D01*
X453174Y209554D01*
X453164Y209603D01*
X453164Y211875D01*
X453972Y213826D01*
X455464Y215318D01*
X457415Y216126D01*
X459525Y216126D01*
X461476Y215318D01*
X462968Y213826D01*
X463776Y211875D01*
X463776Y209765D01*
X462968Y207814D01*
X461476Y206322D01*
X459525Y205514D01*
X457233Y205514D01*
X457179Y205524D01*
X456784Y205441D01*
X456469Y205227D01*
X456228Y204985D01*
X456004Y204648D01*
X455930Y204267D01*
X455930Y152589D01*
X456010Y152193D01*
X456239Y151859D01*
X456557Y151650D01*
X459001Y150638D01*
X461788Y147851D01*
X463296Y144210D01*
X463296Y140270D01*
X461788Y136629D01*
X459001Y133842D01*
X455360Y132334D01*
X451420Y132334D01*
G37*
G36*
X1012922Y202838D02*
X1007974Y204888D01*
X1004188Y208674D01*
X1002138Y213622D01*
X1002138Y214776D01*
X1014076Y214776D01*
X1014076Y202838D01*
X1012922Y202838D01*
G37*
G36*
X1017124Y202838D02*
X1017124Y214776D01*
X1029062Y214776D01*
X1029062Y213622D01*
X1027013Y208674D01*
X1023226Y204888D01*
X1018278Y202838D01*
X1017124Y202838D01*
G37*
G36*
X967124Y202838D02*
X967124Y214776D01*
X979062Y214776D01*
X979062Y213622D01*
X977013Y208674D01*
X973226Y204888D01*
X968278Y202838D01*
X967124Y202838D01*
G37*
G36*
X962922Y202838D02*
X957974Y204888D01*
X954188Y208674D01*
X952138Y213622D01*
X952138Y214776D01*
X964076Y214776D01*
X964076Y202838D01*
X962922Y202838D01*
G37*
G36*
X763524Y203708D02*
X763524Y214376D01*
X774192Y214376D01*
X774192Y213475D01*
X772336Y208994D01*
X768906Y205564D01*
X764425Y203708D01*
X763524Y203708D01*
G37*
G36*
X759575Y203708D02*
X755094Y205564D01*
X751664Y208994D01*
X749808Y213475D01*
X749808Y214376D01*
X760476Y214376D01*
X760476Y203708D01*
X759575Y203708D01*
G37*
G36*
X560188Y203494D02*
X560188Y211836D01*
X567027Y211836D01*
X567027Y204981D01*
X565539Y203494D01*
X560188Y203494D01*
G37*
G36*
X495177Y132334D02*
X494284Y133227D01*
X494284Y151253D01*
X495177Y152146D01*
X513203Y152146D01*
X514096Y151253D01*
X514096Y133227D01*
X513203Y132334D01*
X495177Y132334D01*
G37*
G36*
X778580Y115824D02*
X778580Y118402D01*
X781719Y125980D01*
X787520Y131781D01*
X795098Y134920D01*
X797676Y134920D01*
X797676Y115824D01*
X778580Y115824D01*
G37*
G36*
X800724Y115824D02*
X800724Y134920D01*
X803302Y134920D01*
X810880Y131781D01*
X816681Y125980D01*
X819820Y118402D01*
X819820Y115824D01*
X800724Y115824D01*
G37*
G36*
X240248Y7620D02*
X218904Y28963D01*
X218567Y29187D01*
X218170Y29261D01*
X217775Y29174D01*
X217445Y28940D01*
X217233Y28596D01*
X217170Y28245D01*
X217170Y28194D01*
X217250Y27798D01*
X217468Y27476D01*
X218468Y26475D01*
X219276Y24525D01*
X219276Y22414D01*
X218468Y20464D01*
X216975Y18971D01*
X215025Y18164D01*
X212914Y18164D01*
X210964Y18971D01*
X209471Y20464D01*
X208664Y22414D01*
X208664Y24525D01*
X209471Y26475D01*
X210964Y27968D01*
X211463Y28174D01*
X211798Y28400D01*
X212019Y28739D01*
X212090Y29113D01*
X212090Y89967D01*
X212010Y90363D01*
X211792Y90685D01*
X200121Y102357D01*
X199784Y102580D01*
X199386Y102654D01*
X199337Y102644D01*
X197065Y102644D01*
X195114Y103452D01*
X193622Y104944D01*
X192814Y106895D01*
X192814Y109005D01*
X193622Y110956D01*
X195114Y112448D01*
X197065Y113256D01*
X199175Y113256D01*
X201126Y112448D01*
X202618Y110956D01*
X203426Y109005D01*
X203426Y106713D01*
X203416Y106659D01*
X203499Y106264D01*
X203713Y105949D01*
X217170Y92492D01*
X217170Y45056D01*
X217250Y44659D01*
X217479Y44326D01*
X217820Y44108D01*
X218218Y44040D01*
X218575Y44117D01*
X219925Y44676D01*
X222035Y44676D01*
X223986Y43868D01*
X225478Y42376D01*
X226286Y40425D01*
X226286Y38315D01*
X225478Y36364D01*
X223857Y34743D01*
X223812Y34713D01*
X223591Y34374D01*
X223520Y34000D01*
X223520Y31953D01*
X223600Y31557D01*
X223818Y31235D01*
X242055Y12998D01*
X242392Y12774D01*
X242773Y12700D01*
X272847Y12700D01*
X273243Y12780D01*
X273565Y12998D01*
X298152Y37585D01*
X298376Y37922D01*
X298450Y38303D01*
X298450Y73685D01*
X298370Y74081D01*
X298141Y74414D01*
X297800Y74632D01*
X297434Y74701D01*
X289717Y74701D01*
X288824Y75593D01*
X288824Y99099D01*
X289717Y99992D01*
X312263Y99992D01*
X313156Y99099D01*
X313156Y75593D01*
X312263Y74701D01*
X304546Y74701D01*
X304150Y74620D01*
X303816Y74391D01*
X303598Y74051D01*
X303530Y73685D01*
X303530Y35778D01*
X275372Y7620D01*
X240248Y7620D01*
G37*
G36*
X800724Y93680D02*
X800724Y112776D01*
X819820Y112776D01*
X819820Y110198D01*
X816681Y102620D01*
X810880Y96819D01*
X803302Y93680D01*
X800724Y93680D01*
G37*
G36*
X795098Y93680D02*
X787520Y96819D01*
X781719Y102620D01*
X778580Y110198D01*
X778580Y112776D01*
X797676Y112776D01*
X797676Y93680D01*
X795098Y93680D01*
G37*
G36*
X373595Y77244D02*
X371644Y78052D01*
X370152Y79544D01*
X369344Y81495D01*
X369344Y83788D01*
X369354Y83841D01*
X369271Y84236D01*
X369057Y84551D01*
X352521Y101087D01*
X352184Y101310D01*
X351786Y101384D01*
X351737Y101374D01*
X349465Y101374D01*
X347514Y102182D01*
X346022Y103674D01*
X345214Y105625D01*
X345214Y107735D01*
X346022Y109686D01*
X347514Y111178D01*
X349465Y111986D01*
X351575Y111986D01*
X353526Y111178D01*
X355018Y109686D01*
X355826Y107735D01*
X355826Y105443D01*
X355816Y105389D01*
X355899Y104994D01*
X356113Y104679D01*
X372649Y88143D01*
X372986Y87920D01*
X373384Y87846D01*
X373433Y87856D01*
X375705Y87856D01*
X377656Y87048D01*
X379148Y85556D01*
X379956Y83605D01*
X379956Y81495D01*
X379148Y79544D01*
X377656Y78052D01*
X375705Y77244D01*
X373595Y77244D01*
G37*
G36*
X488425Y30346D02*
X485108Y31720D01*
X482570Y34258D01*
X481196Y37575D01*
X481196Y41165D01*
X482570Y44482D01*
X485108Y47020D01*
X487053Y47826D01*
X487388Y48052D01*
X487609Y48391D01*
X487680Y48764D01*
X487680Y72187D01*
X487600Y72583D01*
X487382Y72905D01*
X456445Y103842D01*
X456108Y104066D01*
X455727Y104140D01*
X378750Y104140D01*
X378354Y104060D01*
X378020Y103831D01*
X377992Y103788D01*
X376386Y102182D01*
X374435Y101374D01*
X372325Y101374D01*
X370374Y102182D01*
X368882Y103674D01*
X368074Y105625D01*
X368074Y107735D01*
X368882Y109686D01*
X370374Y111178D01*
X372325Y111986D01*
X374435Y111986D01*
X376386Y111178D01*
X378007Y109557D01*
X378037Y109512D01*
X378376Y109291D01*
X378750Y109220D01*
X458252Y109220D01*
X492760Y74712D01*
X492760Y48764D01*
X492840Y48368D01*
X493069Y48035D01*
X493387Y47826D01*
X495332Y47020D01*
X497870Y44482D01*
X499244Y41165D01*
X499244Y37575D01*
X497870Y34258D01*
X495332Y31720D01*
X492015Y30346D01*
X488425Y30346D01*
G37*
G36*
X244791Y70716D02*
X239507Y72904D01*
X235464Y76947D01*
X233276Y82231D01*
X233276Y87949D01*
X235464Y93233D01*
X239507Y97276D01*
X244791Y99465D01*
X250509Y99465D01*
X255793Y97276D01*
X259836Y93233D01*
X262025Y87949D01*
X262025Y82231D01*
X259836Y76947D01*
X255793Y72904D01*
X250509Y70716D01*
X244791Y70716D01*
G37*
G36*
X187641Y70716D02*
X182357Y72904D01*
X178314Y76947D01*
X176126Y82231D01*
X176126Y87949D01*
X178314Y93233D01*
X182357Y97276D01*
X187641Y99465D01*
X193359Y99465D01*
X198643Y97276D01*
X202686Y93233D01*
X204875Y87949D01*
X204875Y82231D01*
X202686Y76947D01*
X198643Y72904D01*
X193359Y70716D01*
X187641Y70716D01*
G37*
G36*
X400809Y30226D02*
X399916Y31119D01*
X399916Y47381D01*
X400809Y48274D01*
X405384Y48274D01*
X405780Y48354D01*
X406114Y48583D01*
X406332Y48924D01*
X406400Y49290D01*
X406400Y69632D01*
X417317Y80549D01*
X417540Y80886D01*
X417614Y81284D01*
X417604Y81333D01*
X417604Y83605D01*
X418412Y85556D01*
X419904Y87048D01*
X421855Y87856D01*
X423965Y87856D01*
X425916Y87048D01*
X427408Y85556D01*
X428216Y83605D01*
X428216Y81495D01*
X427408Y79544D01*
X425916Y78052D01*
X423965Y77244D01*
X421673Y77244D01*
X421619Y77254D01*
X421224Y77171D01*
X420909Y76957D01*
X411778Y67825D01*
X411554Y67488D01*
X411480Y67107D01*
X411480Y49290D01*
X411560Y48894D01*
X411789Y48560D01*
X412130Y48342D01*
X412496Y48274D01*
X417071Y48274D01*
X417964Y47381D01*
X417964Y31119D01*
X417071Y30226D01*
X400809Y30226D01*
G37*
G36*
X56320Y41500D02*
X49521Y44316D01*
X44316Y49521D01*
X41500Y56320D01*
X41500Y63680D01*
X44316Y70479D01*
X49521Y75684D01*
X56320Y78500D01*
X63680Y78500D01*
X70479Y75684D01*
X75684Y70479D01*
X78500Y63680D01*
X78500Y56320D01*
X75684Y49521D01*
X70479Y44316D01*
X63680Y41500D01*
X56320Y41500D01*
G37*
G36*
X1036320Y41500D02*
X1029521Y44316D01*
X1024316Y49521D01*
X1021500Y56320D01*
X1021500Y63680D01*
X1024316Y70479D01*
X1029521Y75684D01*
X1036320Y78500D01*
X1043680Y78500D01*
X1050479Y75684D01*
X1055684Y70479D01*
X1058500Y63680D01*
X1058500Y56320D01*
X1055684Y49521D01*
X1050479Y44316D01*
X1043680Y41500D01*
X1036320Y41500D01*
G37*
G36*
X265218Y62387D02*
X262478Y63522D01*
X260382Y65618D01*
X259247Y68358D01*
X259247Y71323D01*
X260382Y74062D01*
X262478Y76158D01*
X265218Y77293D01*
X268183Y77293D01*
X270922Y76158D01*
X273018Y74062D01*
X274153Y71323D01*
X274153Y68358D01*
X273018Y65618D01*
X270922Y63522D01*
X268183Y62387D01*
X265218Y62387D01*
G37*
G36*
X614169Y54476D02*
X613276Y55369D01*
X613276Y71631D01*
X614169Y72524D01*
X630431Y72524D01*
X631324Y71631D01*
X631324Y55369D01*
X630431Y54476D01*
X614169Y54476D01*
G37*
G36*
X189018Y52237D02*
X186278Y53372D01*
X184182Y55468D01*
X183047Y58208D01*
X183047Y61173D01*
X184182Y63912D01*
X186278Y66008D01*
X189018Y67143D01*
X191983Y67143D01*
X194722Y66008D01*
X196818Y63912D01*
X197953Y61173D01*
X197953Y58208D01*
X196818Y55468D01*
X194722Y53372D01*
X191983Y52237D01*
X189018Y52237D01*
G37*
G36*
X265218Y42087D02*
X262478Y43222D01*
X260382Y45318D01*
X259247Y48058D01*
X259247Y51023D01*
X260382Y53762D01*
X262478Y55858D01*
X265218Y56993D01*
X268183Y56993D01*
X270922Y55858D01*
X273018Y53762D01*
X274153Y51023D01*
X274153Y48058D01*
X273018Y45318D01*
X270922Y43222D01*
X268183Y42087D01*
X265218Y42087D01*
G37*
G36*
X454780Y40894D02*
X454780Y41367D01*
X456309Y45057D01*
X459133Y47881D01*
X462823Y49410D01*
X463296Y49410D01*
X463296Y40894D01*
X454780Y40894D01*
G37*
G36*
X466344Y40894D02*
X466344Y49410D01*
X466817Y49410D01*
X470507Y47881D01*
X473332Y45057D01*
X474860Y41367D01*
X474860Y40894D01*
X466344Y40894D01*
G37*
G36*
X322700Y40774D02*
X322700Y41247D01*
X324229Y44937D01*
X327053Y47761D01*
X330743Y49290D01*
X331216Y49290D01*
X331216Y40774D01*
X322700Y40774D01*
G37*
G36*
X334264Y40774D02*
X334264Y49290D01*
X334737Y49290D01*
X338427Y47761D01*
X341252Y44937D01*
X342780Y41247D01*
X342780Y40774D01*
X334264Y40774D01*
G37*
G36*
X244791Y19916D02*
X239507Y22104D01*
X235464Y26147D01*
X233276Y31431D01*
X233276Y37149D01*
X235464Y42433D01*
X239507Y46476D01*
X244791Y48665D01*
X250509Y48665D01*
X255793Y46476D01*
X259836Y42433D01*
X262025Y37149D01*
X262025Y31431D01*
X259836Y26147D01*
X255793Y22104D01*
X250509Y19916D01*
X244791Y19916D01*
G37*
G36*
X187641Y19916D02*
X182357Y22104D01*
X178314Y26147D01*
X176126Y31431D01*
X176126Y37149D01*
X178314Y42433D01*
X182357Y46476D01*
X187641Y48665D01*
X193359Y48665D01*
X198643Y46476D01*
X202686Y42433D01*
X204875Y37149D01*
X204875Y31431D01*
X202686Y26147D01*
X198643Y22104D01*
X193359Y19916D01*
X187641Y19916D01*
G37*
G36*
X513825Y30346D02*
X510508Y31720D01*
X507970Y34258D01*
X506596Y37575D01*
X506596Y41165D01*
X507970Y44482D01*
X510508Y47020D01*
X513825Y48394D01*
X517415Y48394D01*
X520732Y47020D01*
X523270Y44482D01*
X524644Y41165D01*
X524644Y37575D01*
X523270Y34258D01*
X520732Y31720D01*
X517415Y30346D01*
X513825Y30346D01*
G37*
G36*
X532889Y30346D02*
X531996Y31239D01*
X531996Y47501D01*
X532889Y48394D01*
X549151Y48394D01*
X550044Y47501D01*
X550044Y31239D01*
X549151Y30346D01*
X532889Y30346D01*
G37*
G36*
X381745Y30226D02*
X378428Y31600D01*
X375890Y34138D01*
X374516Y37455D01*
X374516Y41045D01*
X375890Y44362D01*
X378428Y46900D01*
X381745Y48274D01*
X385335Y48274D01*
X388652Y46900D01*
X391190Y44362D01*
X392564Y41045D01*
X392564Y37455D01*
X391190Y34138D01*
X388652Y31600D01*
X385335Y30226D01*
X381745Y30226D01*
G37*
G36*
X356345Y30226D02*
X353028Y31600D01*
X350490Y34138D01*
X349116Y37455D01*
X349116Y41045D01*
X350490Y44362D01*
X353028Y46900D01*
X356345Y48274D01*
X359935Y48274D01*
X363252Y46900D01*
X365790Y44362D01*
X367164Y41045D01*
X367164Y37455D01*
X365790Y34138D01*
X363252Y31600D01*
X359935Y30226D01*
X356345Y30226D01*
G37*
G36*
X612260Y39624D02*
X612260Y40097D01*
X613789Y43787D01*
X616613Y46611D01*
X620303Y48140D01*
X620776Y48140D01*
X620776Y39624D01*
X612260Y39624D01*
G37*
G36*
X623824Y39624D02*
X623824Y48140D01*
X624297Y48140D01*
X627987Y46611D01*
X630811Y43787D01*
X632340Y40097D01*
X632340Y39624D01*
X623824Y39624D01*
G37*
G36*
X466344Y29330D02*
X466344Y37846D01*
X474860Y37846D01*
X474860Y37373D01*
X473331Y33683D01*
X470507Y30859D01*
X466817Y29330D01*
X466344Y29330D01*
G37*
G36*
X462823Y29330D02*
X459133Y30859D01*
X456309Y33683D01*
X454780Y37373D01*
X454780Y37846D01*
X463296Y37846D01*
X463296Y29330D01*
X462823Y29330D01*
G37*
G36*
X334264Y29210D02*
X334264Y37726D01*
X342780Y37726D01*
X342780Y37253D01*
X341251Y33563D01*
X338427Y30739D01*
X334737Y29210D01*
X334264Y29210D01*
G37*
G36*
X330743Y29210D02*
X327053Y30739D01*
X324229Y33563D01*
X322700Y37253D01*
X322700Y37726D01*
X331216Y37726D01*
X331216Y29210D01*
X330743Y29210D01*
G37*
G36*
X623824Y28060D02*
X623824Y36576D01*
X632340Y36576D01*
X632340Y36103D01*
X630811Y32413D01*
X627987Y29589D01*
X624297Y28060D01*
X623824Y28060D01*
G37*
G36*
X620303Y28060D02*
X616613Y29589D01*
X613789Y32413D01*
X612260Y36103D01*
X612260Y36576D01*
X620776Y36576D01*
X620776Y28060D01*
X620303Y28060D01*
G37*
%LPD*%
D10*
X152705Y62230D03*
X134315Y62230D03*
D11*
X965600Y266300D03*
X965600Y216300D03*
X1015600Y266300D03*
X1015600Y216300D03*
X618490Y136010D03*
X618490Y354210D03*
D12*
X550570Y258661D03*
X560070Y258661D03*
X569570Y258661D03*
X569570Y234099D03*
X560070Y234099D03*
X550570Y234099D03*
D13*
X408940Y39250D03*
D14*
X383540Y39250D03*
X358140Y39250D03*
X332740Y39250D03*
D13*
X541020Y39370D03*
D14*
X515620Y39370D03*
X490220Y39370D03*
X464820Y39370D03*
D15*
X504190Y142240D03*
D16*
X478790Y142240D03*
X453390Y142240D03*
D13*
X622300Y63500D03*
D14*
X622300Y38100D03*
D17*
X762000Y266700D03*
D18*
X762000Y241300D03*
X762000Y215900D03*
D19*
X799200Y368300D03*
X799200Y114300D03*
D20*
X60000Y60000D03*
X60000Y440000D03*
X1040000Y440000D03*
X1040000Y60000D03*
D21*
X541156Y213360D03*
X558664Y213360D03*
D22*
X300990Y87346D03*
X300990Y120934D03*
D23*
X95250Y140970D03*
X86360Y140970D03*
X154940Y168910D03*
X237490Y173990D03*
X223520Y76200D03*
X273050Y81280D03*
X208308Y76200D03*
X86360Y290830D03*
X86360Y189163D03*
X86360Y214563D03*
X86360Y239963D03*
X86360Y265363D03*
X86360Y317500D03*
X86360Y163830D03*
D24*
X558664Y213360D02*
X560070Y214766D01*
X560070Y234099D01*
X560070Y258661D01*
D23*
X575310Y142240D03*
X464820Y274320D03*
X416560Y294640D03*
X556260Y346710D03*
X515620Y237490D03*
D24*
X558664Y213360D02*
X570230Y213360D01*
D23*
X570230Y213360D03*
X487680Y197432D03*
X406400Y279400D03*
X406400Y266700D03*
X431800Y177800D03*
X406400Y177800D03*
X381000Y177800D03*
X355600Y177800D03*
X431800Y152400D03*
X431800Y127000D03*
X520700Y215900D03*
X520700Y203200D03*
X558800Y190500D03*
X563880Y156210D03*
X563880Y128270D03*
X609494Y38100D03*
X635106Y38100D03*
X444500Y38100D03*
X317500Y38100D03*
X241300Y127000D03*
X241300Y190500D03*
X228600Y203200D03*
X190500Y177800D03*
X190500Y139700D03*
X165100Y177800D03*
X152400Y190500D03*
X165100Y228600D03*
X127000Y228600D03*
X127000Y203200D03*
X127000Y254000D03*
X127000Y279400D03*
X127000Y304800D03*
X63500Y304800D03*
X63500Y279400D03*
X63500Y254000D03*
X63500Y228600D03*
X63500Y203200D03*
X63500Y177800D03*
X63500Y152400D03*
X88900Y114300D03*
X114300Y114300D03*
X114300Y88900D03*
X175260Y104140D03*
X168910Y91440D03*
X168910Y76200D03*
X622300Y266700D03*
X609600Y254000D03*
X609600Y241300D03*
X622300Y228600D03*
X533400Y241300D03*
X533400Y274320D03*
X546100Y274320D03*
X558800Y274320D03*
X508000Y266700D03*
X495300Y266700D03*
X482600Y266700D03*
X787400Y241300D03*
X812800Y241300D03*
X838200Y241300D03*
X863600Y241300D03*
X876300Y228600D03*
X889000Y215900D03*
X914400Y215900D03*
X939800Y215900D03*
X355600Y203200D03*
X355600Y228600D03*
X228676Y34214D03*
X381000Y203200D03*
X381000Y228600D03*
X406400Y228600D03*
D24*
X541156Y230006D02*
X541156Y213360D01*
X541156Y230006D02*
X545249Y234099D01*
X550570Y234099D01*
D23*
X458470Y210820D03*
X204470Y144780D03*
X153670Y156210D03*
D24*
X193040Y156210D01*
X204470Y144780D01*
D23*
X403631Y130175D03*
D24*
X408940Y68580D02*
X408940Y39250D01*
X408940Y68580D02*
X422910Y82550D01*
D23*
X422910Y82550D03*
D24*
X453390Y142240D02*
X453390Y205740D01*
X458470Y210820D01*
X541156Y213360D02*
X541156Y200796D01*
X537210Y196850D01*
D23*
X537210Y196850D03*
D24*
X134315Y116535D02*
X134315Y62230D01*
X134315Y116535D02*
X153670Y135890D01*
X153670Y156210D01*
X204470Y144780D02*
X300990Y144780D01*
X389026Y144780D01*
X403631Y130175D01*
X300990Y120934D02*
X300990Y144780D01*
D23*
X163830Y147320D03*
X166525Y58420D03*
D24*
X162715Y62230D02*
X152705Y62230D01*
X162715Y62230D02*
X166525Y58420D01*
X163576Y147066D02*
X163830Y147320D01*
X163576Y147066D02*
X163576Y107747D01*
X152705Y96876D01*
X152705Y62230D01*
D25*
X569570Y258661D02*
X588861Y258661D01*
X618490Y288290D01*
X618490Y354210D01*
X591401Y234099D02*
X569570Y234099D01*
X591401Y234099D02*
X618490Y207010D01*
X618490Y136010D01*
D23*
X528320Y255270D03*
D25*
X531711Y258661D01*
X550570Y258661D01*
D23*
X241300Y153670D03*
D24*
X327660Y240030D01*
X476250Y240030D01*
X491490Y255270D01*
X528320Y255270D01*
D23*
X200660Y187960D03*
D24*
X262890Y250190D01*
X416560Y250190D01*
D23*
X416560Y250190D03*
D24*
X214630Y91440D02*
X214630Y24130D01*
X214630Y91440D02*
X198120Y107950D01*
D23*
X198120Y107950D03*
X213970Y23470D03*
D24*
X214630Y24130D01*
D23*
X374650Y82550D03*
X350520Y106680D03*
D24*
X374650Y82550D01*
X490220Y73660D02*
X490220Y39370D01*
X490220Y73660D02*
X457200Y106680D01*
X373380Y106680D01*
D23*
X373380Y106680D03*
X457200Y228600D03*
D24*
X478790Y207010D01*
X478790Y142240D01*
D23*
X584200Y279400D03*
D24*
X546100Y317500D01*
X495300Y317500D01*
D23*
X495300Y317500D03*
D24*
X300990Y87346D02*
X300990Y36830D01*
X274320Y10160D01*
X241300Y10160D01*
X220980Y30480D01*
X220980Y39370D01*
D23*
X220980Y39370D03*
M02*
