G04 EAGLE Gerber RS-274X export*
G75*
%MOMM*%
%FSLAX34Y34*%
%LPD*%
%INSolderpaste Bottom*%
%IPPOS*%
%AMOC8*
5,1,8,0,0,1.08239X$1,22.5*%
G01*
G04 Define Apertures*
%ADD10R,2.715300X1.164600*%
%ADD11R,1.164600X2.715300*%
%ADD12R,1.260500X0.595000*%
%ADD13R,1.420200X1.031200*%
%ADD14R,1.164600X1.815300*%
%ADD15R,1.164600X1.465300*%
%ADD16R,1.031200X1.420200*%
D10*
X767080Y384324D03*
X767080Y354816D03*
X767080Y401806D03*
X767080Y431314D03*
D11*
X648186Y455930D03*
X677694Y455930D03*
X648186Y405130D03*
X677694Y405130D03*
X648186Y495300D03*
X677694Y495300D03*
D12*
X708241Y83160D03*
X708241Y73660D03*
X708241Y64160D03*
X683679Y64160D03*
X683679Y73660D03*
X683679Y83160D03*
D13*
X447040Y240335D03*
X447040Y221945D03*
D11*
G36*
X275064Y814665D02*
X266829Y806430D01*
X247630Y825629D01*
X255865Y833864D01*
X275064Y814665D01*
G37*
G36*
X295930Y835531D02*
X287695Y827296D01*
X268496Y846495D01*
X276731Y854730D01*
X295930Y835531D01*
G37*
G36*
X229126Y807125D02*
X237361Y815360D01*
X256560Y796161D01*
X248325Y787926D01*
X229126Y807125D01*
G37*
G36*
X208260Y786259D02*
X216495Y794494D01*
X235694Y775295D01*
X227459Y767060D01*
X208260Y786259D01*
G37*
D10*
X487680Y824716D03*
X487680Y854224D03*
X161290Y260836D03*
X161290Y290344D03*
X118110Y260836D03*
X118110Y290344D03*
D14*
X136674Y422910D03*
X107166Y422910D03*
X222736Y422910D03*
X252244Y422910D03*
D15*
X439556Y173990D03*
X457064Y173990D03*
D16*
X457505Y196850D03*
X439115Y196850D03*
D14*
X249406Y396240D03*
X278914Y396240D03*
D15*
X693556Y217170D03*
X711064Y217170D03*
M02*
