M48
;GenerationSoftware,Autodesk,EAGLE,9.7.0*%
;CreationDate,2022-05-23T03:36:48Z*%
FMAT,2
ICI,OFF
METRIC,TZ,000.000
T16C0.350
T15C0.600
T14C0.630
T13C0.650
T12C0.800
T11C0.900
T10C1.000
T9C1.016
T8C1.100
T7C1.200
T6C1.400
T5C1.450
T4C2.700
T3C3.000
T2C4.000
%
G90
M71
T2
X52070Y29210
T3
X90420Y41900
X56770Y8640
X47370Y8640
X90420Y59700
T4
X4867Y93063
X95133Y4867
X95133Y93063
X4867Y93063
X4867Y4867
X4867Y4867
X95133Y4867
X95133Y93063
T5
X95460Y50800
X89960Y46600
X89960Y55000
X95460Y55000
X89960Y50800
X95460Y46600
T6
X5520Y56940
X5520Y62440
X9720Y62440
X52070Y3600
X52070Y9100
X9720Y56940
X5520Y75140
X5520Y69640
X9720Y69640
X9720Y75140
T7
X83427Y6350
X61607Y6350
T8
X52070Y13970
X49530Y13970
X54610Y13970
T9
X40640Y4572
X43180Y4572
X30480Y4572
X34163Y59944
X34163Y62484
X36703Y59944
X36703Y62484
X39243Y59944
X39243Y62484
X33020Y4572
X35560Y4572
X38100Y4572
T10
X52018Y82586
X80010Y18923
X80010Y21463
X45518Y82586
X52018Y87086
X45518Y87086
X80010Y16383
T11
X21590Y57277
X21590Y59817
X21590Y62357
X21590Y64897
T12
X20000Y94190
X22540Y94190
T13
X75057Y20394
X75057Y21844
X75057Y23294
T14
X29030Y80719
X25580Y77269
T15
X12827Y35687
X14097Y35687
X15367Y35687
T16
X17780Y41275
X44450Y33020
X39370Y33020
X67310Y77470
X59690Y80010
X43688Y90932
X41275Y90932
X45085Y44323
X44323Y72771
X54356Y41529
X43561Y75692
X39370Y25400
X33147Y66040
X40767Y79883
X92583Y30226
X46355Y45339
X64770Y29972
X59690Y32893
X29210Y7620
X41402Y79121
X30226Y87122
X43180Y79756
X44069Y78613
X28956Y88138
X36957Y65913
X92329Y38100
X48641Y70231
X18923Y26035
X19431Y22606
X23241Y26416
X17780Y43053
X26797Y42291
X25146Y37465
X9652Y40132
X61468Y28956
X39370Y79629
X71374Y10033
X64770Y43053
X41910Y8890
X35687Y67056
X39370Y8890
X42545Y92075
X33274Y80971
X29210Y8890
X24257Y12700
X24384Y26416
X54356Y62484
X50165Y62484
X65151Y10922
X67945Y21717
X24511Y81788
X25908Y80391
X67310Y32893
X77216Y32258
X76708Y44704
X32236Y77694
X33274Y78867
X24130Y7620
X26670Y7620
X31750Y7620
X34290Y7620
X36830Y7620
X39370Y7620
X41910Y7620
X44450Y7620
X48260Y2540
X52070Y6350
X42926Y73914
X30226Y73914
X35687Y86614
X34671Y87630
X46327Y67818
X79375Y84074
X79375Y77470
X74422Y60960
X75565Y60960
X31750Y18796
X31750Y13589
X31750Y22987
X21336Y13335
X22225Y23749
X17018Y46736
X74549Y38354
X30861Y35814
X8382Y34544
X43053Y35814
X57277Y44958
X47625Y52578
X57785Y57785
X74549Y37084
X48387Y39624
X42009Y63627
X70358Y37719
X71120Y38735
X69596Y38735
X71120Y36703
X69596Y36703
X63881Y15367
X72644Y21590
X36365Y80475
X7366Y48387
X55880Y2434
X20447Y38354
X21336Y24257
M30