G04 EAGLE Gerber RS-274X export*
G75*
%MOMM*%
%FSLAX34Y34*%
%LPD*%
%INSoldermask Bottom*%
%IPPOS*%
%AMOC8*
5,1,8,0,0,1.08239X$1,22.5*%
G01*
G04 Define Apertures*
%ADD10R,2.540000X3.302000*%
%ADD11R,2.918500X1.367800*%
%ADD12R,1.367800X2.918500*%
%ADD13C,2.387600*%
%ADD14R,1.463700X0.798200*%
%ADD15R,2.303200X2.303200*%
%ADD16C,3.203200*%
%ADD17R,1.623400X1.234400*%
%ADD18C,1.433200*%
%ADD19P,1.8695X8X22.5*%
%ADD20C,1.903200*%
%ADD21C,2.903200*%
%ADD22C,7.753200*%
%ADD23C,1.311200*%
%ADD24R,1.367800X2.018500*%
%ADD25R,2.133600X2.133600*%
%ADD26C,2.133600*%
%ADD27C,4.203200*%
%ADD28R,1.703200X1.703200*%
%ADD29C,1.703200*%
%ADD30C,2.303200*%
%ADD31C,2.378200*%
%ADD32C,1.727200*%
%ADD33R,1.367800X1.668500*%
%ADD34R,1.234400X1.623400*%
%ADD35R,1.361200X1.361200*%
%ADD36C,1.361200*%
%ADD37R,1.879600X1.879600*%
%ADD38C,1.879600*%
%ADD39C,0.959600*%
D10*
X703580Y377190D03*
D11*
X767080Y384324D03*
X767080Y354816D03*
X767080Y401806D03*
X767080Y431314D03*
D12*
X648186Y455930D03*
X677694Y455930D03*
X648186Y405130D03*
X677694Y405130D03*
X648186Y495300D03*
X677694Y495300D03*
D13*
X834270Y63500D03*
X616070Y63500D03*
D14*
X708241Y83160D03*
X708241Y73660D03*
X708241Y64160D03*
X683679Y64160D03*
X683679Y73660D03*
X683679Y83160D03*
D15*
X520700Y36000D03*
X520700Y91000D03*
D16*
X567700Y86400D03*
X473700Y86400D03*
D17*
X447040Y240335D03*
X447040Y221945D03*
D18*
X290303Y807193D03*
X255797Y772687D03*
D12*
G36*
X276501Y814665D02*
X266829Y804993D01*
X246193Y825629D01*
X255865Y835301D01*
X276501Y814665D01*
G37*
G36*
X297367Y835531D02*
X287695Y825859D01*
X267059Y846495D01*
X276731Y856167D01*
X297367Y835531D01*
G37*
G36*
X227689Y807125D02*
X237361Y816797D01*
X257997Y796161D01*
X248325Y786489D01*
X227689Y807125D01*
G37*
G36*
X206823Y786259D02*
X216495Y795931D01*
X237131Y775295D01*
X227459Y765623D01*
X206823Y786259D01*
G37*
D19*
X341630Y599440D03*
X341630Y624840D03*
X367030Y599440D03*
X367030Y624840D03*
X392430Y599440D03*
X392430Y624840D03*
D20*
X455180Y870860D03*
X520180Y870860D03*
D11*
X487680Y824716D03*
X487680Y854224D03*
D21*
X48672Y48672D03*
D22*
X48672Y48672D03*
D21*
X951328Y48672D03*
D22*
X951328Y48672D03*
D21*
X951328Y930628D03*
D22*
X951328Y930628D03*
D21*
X48672Y930628D03*
D22*
X48672Y930628D03*
D11*
X161290Y260836D03*
X161290Y290344D03*
X118110Y260836D03*
X118110Y290344D03*
D23*
X128270Y356870D03*
X153670Y356870D03*
X140970Y356870D03*
D24*
X136674Y422910D03*
X107166Y422910D03*
X222736Y422910D03*
X252244Y422910D03*
D25*
X495300Y139700D03*
D26*
X520700Y139700D03*
X546100Y139700D03*
D27*
X520700Y292100D03*
D28*
X215900Y648970D03*
D29*
X215900Y623570D03*
X215900Y598170D03*
X215900Y572770D03*
D30*
X55200Y696400D03*
X55200Y751400D03*
X97200Y696400D03*
X97200Y751400D03*
X55200Y569400D03*
X55200Y624400D03*
X97200Y569400D03*
X97200Y624400D03*
D31*
X954600Y466000D03*
X899600Y466000D03*
X954600Y508000D03*
X899600Y508000D03*
X954600Y550000D03*
X899600Y550000D03*
D16*
X904200Y419000D03*
X904200Y597000D03*
D32*
X431800Y53340D02*
X431800Y38100D01*
X406400Y38100D02*
X406400Y53340D01*
X381000Y53340D02*
X381000Y38100D01*
X355600Y38100D02*
X355600Y53340D01*
X330200Y53340D02*
X330200Y38100D01*
X304800Y38100D02*
X304800Y53340D01*
D28*
X200000Y941900D03*
D29*
X225400Y941900D03*
D33*
X439556Y173990D03*
X457064Y173990D03*
D34*
X457505Y196850D03*
X439115Y196850D03*
D24*
X249406Y396240D03*
X278914Y396240D03*
D35*
X750570Y203940D03*
D36*
X750570Y218440D03*
X750570Y232940D03*
D37*
X800100Y163830D03*
D38*
X800100Y189230D03*
X800100Y214630D03*
D33*
X693556Y217170D03*
X711064Y217170D03*
D39*
X647700Y430530D03*
X419100Y88900D03*
X393700Y88900D03*
X425450Y920750D03*
X332740Y809715D03*
X292100Y88900D03*
X242570Y127000D03*
X243840Y264160D03*
X543560Y624840D03*
X501650Y624840D03*
X651510Y109220D03*
X679450Y217170D03*
X245110Y817880D03*
X259080Y803910D03*
X673100Y328930D03*
X772160Y322580D03*
X767080Y447040D03*
X322360Y776940D03*
X332740Y788670D03*
X241300Y76200D03*
X266700Y76200D03*
X292100Y76200D03*
X317500Y76200D03*
X342900Y76200D03*
X368300Y76200D03*
X393700Y76200D03*
X419100Y76200D03*
X444500Y76200D03*
X482600Y25400D03*
X520700Y63500D03*
X429260Y739140D03*
X302260Y739140D03*
X356870Y866140D03*
X346710Y876300D03*
X463268Y678180D03*
X793750Y840740D03*
X793750Y774700D03*
X744220Y609600D03*
X755650Y609600D03*
X317500Y187960D03*
X317500Y135890D03*
X317500Y229870D03*
X213360Y133350D03*
X222250Y237490D03*
X170180Y467360D03*
X308610Y358140D03*
X83820Y345440D03*
X430530Y358140D03*
X572770Y449580D03*
X476250Y525780D03*
X577850Y577850D03*
X745490Y370840D03*
X483870Y396240D03*
X420088Y636270D03*
X703580Y377190D03*
X711200Y387350D03*
X695960Y387350D03*
X711200Y367030D03*
X695960Y367030D03*
X638810Y153670D03*
X726440Y215900D03*
X363653Y804747D03*
X73660Y483870D03*
X558800Y24344D03*
X745490Y383540D03*
X204470Y383540D03*
X213360Y242570D03*
X177800Y412750D03*
X444500Y330200D03*
X393700Y330200D03*
X673100Y774700D03*
X596900Y800100D03*
X436880Y909320D03*
X412750Y909320D03*
X450850Y443230D03*
X443230Y727710D03*
X543560Y415290D03*
X435610Y756920D03*
X393700Y254000D03*
X331470Y660400D03*
X407670Y798830D03*
X925830Y302260D03*
X463550Y453390D03*
X647700Y299720D03*
X596900Y328930D03*
X356870Y670560D03*
X414020Y791210D03*
X302260Y871220D03*
X431800Y797560D03*
X440690Y786130D03*
X289560Y881380D03*
X369570Y659130D03*
X923290Y381000D03*
X486410Y702310D03*
X189230Y260350D03*
X194310Y226060D03*
X232410Y264160D03*
X177800Y430530D03*
X267970Y422910D03*
X251460Y374650D03*
X96520Y401320D03*
X614680Y289560D03*
X393700Y796290D03*
X713740Y100330D03*
M02*
