G04 EAGLE Gerber RS-274X export*
G75*
%MOMM*%
%FSLAX34Y34*%
%LPD*%
%INBottom Copper*%
%IPPOS*%
%AMOC8*
5,1,8,0,0,1.08239X$1,22.5*%
G01*
G04 Define Apertures*
%ADD10R,2.715300X1.164600*%
%ADD11R,1.164600X2.715300*%
%ADD12C,2.184400*%
%ADD13R,1.260500X0.595000*%
%ADD14R,2.100000X2.100000*%
%ADD15R,1.420200X1.031200*%
%ADD16C,1.230000*%
%ADD17P,1.64956X8X22.5*%
%ADD18C,1.700000*%
%ADD19C,7.550000*%
%ADD20C,1.108000*%
%ADD21R,1.164600X1.815300*%
%ADD22R,1.930400X1.930400*%
%ADD23C,1.930400*%
%ADD24R,1.500000X1.500000*%
%ADD25C,1.500000*%
%ADD26C,2.100000*%
%ADD27C,2.175000*%
%ADD28C,1.524000*%
%ADD29R,1.164600X1.465300*%
%ADD30R,1.031200X1.420200*%
%ADD31R,1.158000X1.158000*%
%ADD32C,1.158000*%
%ADD33R,1.676400X1.676400*%
%ADD34C,1.676400*%
%ADD35C,0.756400*%
%ADD36C,0.812800*%
%ADD37C,0.152400*%
%ADD38C,0.254000*%
%ADD39C,0.508000*%
%ADD40C,0.406400*%
%ADD41C,0.203200*%
%ADD42C,0.200000*%
G36*
X988613Y10982D02*
X988863Y11154D01*
X989027Y11409D01*
X989078Y11684D01*
X989078Y967616D01*
X989018Y967913D01*
X988846Y968163D01*
X988591Y968327D01*
X988316Y968378D01*
X11684Y968378D01*
X11387Y968318D01*
X11137Y968146D01*
X10973Y967891D01*
X10922Y967616D01*
X10922Y11684D01*
X10982Y11387D01*
X11154Y11137D01*
X11409Y10973D01*
X11684Y10922D01*
X988316Y10922D01*
X988613Y10982D01*
G37*
%LPC*%
G36*
X946622Y906968D02*
X937926Y910570D01*
X931270Y917226D01*
X927668Y925922D01*
X927668Y935334D01*
X931270Y944030D01*
X937926Y950686D01*
X946622Y954288D01*
X956034Y954288D01*
X964730Y950686D01*
X971386Y944030D01*
X974988Y935334D01*
X974988Y925922D01*
X971386Y917226D01*
X964730Y910570D01*
X956034Y906968D01*
X946622Y906968D01*
G37*
G36*
X43966Y906968D02*
X35270Y910570D01*
X28614Y917226D01*
X25012Y925922D01*
X25012Y935334D01*
X28614Y944030D01*
X35270Y950686D01*
X43966Y954288D01*
X53378Y954288D01*
X62074Y950686D01*
X68730Y944030D01*
X72332Y935334D01*
X72332Y925922D01*
X68730Y917226D01*
X62074Y910570D01*
X53378Y906968D01*
X43966Y906968D01*
G37*
G36*
X215360Y942662D02*
X215360Y943897D01*
X216889Y947587D01*
X219713Y950412D01*
X223403Y951940D01*
X224638Y951940D01*
X224638Y942662D01*
X215360Y942662D01*
G37*
G36*
X226162Y942662D02*
X226162Y951940D01*
X227397Y951940D01*
X231087Y950412D01*
X233912Y947587D01*
X235440Y943897D01*
X235440Y942662D01*
X226162Y942662D01*
G37*
G36*
X191869Y932876D02*
X190976Y933769D01*
X190976Y950031D01*
X191869Y950924D01*
X208131Y950924D01*
X209024Y950031D01*
X209024Y933769D01*
X208131Y932876D01*
X191869Y932876D01*
G37*
G36*
X226162Y931860D02*
X226162Y941138D01*
X235440Y941138D01*
X235440Y939903D01*
X233912Y936213D01*
X231087Y933389D01*
X227397Y931860D01*
X226162Y931860D01*
G37*
G36*
X223403Y931860D02*
X219713Y933389D01*
X216889Y936213D01*
X215360Y939903D01*
X215360Y941138D01*
X224638Y941138D01*
X224638Y931860D01*
X223403Y931860D01*
G37*
G36*
X94808Y557376D02*
X90389Y559207D01*
X87007Y562589D01*
X85176Y567008D01*
X85176Y571792D01*
X87007Y576211D01*
X90389Y579593D01*
X94808Y581424D01*
X99592Y581424D01*
X104011Y579593D01*
X107393Y576211D01*
X107705Y575458D01*
X107875Y575207D01*
X108129Y575041D01*
X108409Y574988D01*
X127440Y574988D01*
X127737Y575048D01*
X127987Y575220D01*
X128151Y575475D01*
X128202Y575750D01*
X128202Y690050D01*
X128142Y690347D01*
X127970Y690597D01*
X127715Y690761D01*
X127440Y690812D01*
X108409Y690812D01*
X108112Y690752D01*
X107862Y690580D01*
X107705Y690342D01*
X107393Y689589D01*
X104011Y686207D01*
X99592Y684376D01*
X94808Y684376D01*
X90389Y686207D01*
X87007Y689589D01*
X85176Y694008D01*
X85176Y698792D01*
X87007Y703211D01*
X90389Y706593D01*
X94808Y708424D01*
X99592Y708424D01*
X104011Y706593D01*
X107393Y703211D01*
X107705Y702458D01*
X107875Y702207D01*
X108129Y702041D01*
X108409Y701988D01*
X131160Y701988D01*
X131457Y702048D01*
X131699Y702211D01*
X142779Y713291D01*
X142946Y713544D01*
X143002Y713830D01*
X143002Y848202D01*
X143853Y850255D01*
X219085Y925487D01*
X221138Y926338D01*
X426562Y926338D01*
X427102Y926114D01*
X427394Y926056D01*
X427648Y926056D01*
X427827Y925877D01*
X428075Y925711D01*
X428615Y925487D01*
X430187Y923915D01*
X430411Y923375D01*
X430577Y923127D01*
X430756Y922948D01*
X430756Y922694D01*
X430814Y922402D01*
X431038Y921862D01*
X431038Y919638D01*
X430814Y919098D01*
X430756Y918806D01*
X430756Y918552D01*
X430577Y918373D01*
X430411Y918125D01*
X430187Y917585D01*
X428615Y916013D01*
X428075Y915789D01*
X427827Y915624D01*
X427648Y915444D01*
X427394Y915444D01*
X427102Y915386D01*
X426562Y915162D01*
X416251Y915162D01*
X415954Y915102D01*
X415704Y914930D01*
X415541Y914675D01*
X415490Y914376D01*
X415560Y914081D01*
X415713Y913861D01*
X415967Y913607D01*
X416219Y913440D01*
X416505Y913384D01*
X433125Y913384D01*
X433422Y913444D01*
X433663Y913607D01*
X434682Y914626D01*
X439078Y914626D01*
X442186Y911518D01*
X442186Y907122D01*
X439078Y904014D01*
X434682Y904014D01*
X433663Y905033D01*
X433411Y905200D01*
X433125Y905256D01*
X416505Y905256D01*
X416208Y905196D01*
X415967Y905033D01*
X414948Y904014D01*
X410552Y904014D01*
X407444Y907122D01*
X407444Y911518D01*
X409787Y913861D01*
X409955Y914114D01*
X410010Y914412D01*
X409945Y914708D01*
X409770Y914956D01*
X409512Y915115D01*
X409249Y915162D01*
X282448Y915162D01*
X282151Y915102D01*
X281901Y914930D01*
X281737Y914675D01*
X281686Y914400D01*
X281686Y866113D01*
X281746Y865816D01*
X281909Y865574D01*
X332240Y815244D01*
X332493Y815076D01*
X332779Y815021D01*
X334938Y815021D01*
X338046Y811913D01*
X338046Y807517D01*
X334938Y804409D01*
X330542Y804409D01*
X327434Y807517D01*
X327434Y809676D01*
X327374Y809973D01*
X327211Y810215D01*
X274574Y862852D01*
X274574Y914400D01*
X274514Y914697D01*
X274342Y914947D01*
X274087Y915111D01*
X273812Y915162D01*
X224880Y915162D01*
X224583Y915102D01*
X224341Y914939D01*
X154401Y844999D01*
X154234Y844746D01*
X154178Y844460D01*
X154178Y710088D01*
X153327Y708035D01*
X139601Y694309D01*
X139434Y694056D01*
X139378Y693770D01*
X139378Y574226D01*
X139438Y573929D01*
X139610Y573679D01*
X139865Y573515D01*
X140140Y573464D01*
X141951Y573464D01*
X142248Y573524D01*
X142490Y573687D01*
X159543Y590740D01*
X159710Y590993D01*
X159766Y591279D01*
X159766Y629063D01*
X183737Y653034D01*
X206114Y653034D01*
X206411Y653094D01*
X206661Y653266D01*
X206825Y653521D01*
X206876Y653796D01*
X206876Y657101D01*
X207769Y657994D01*
X224031Y657994D01*
X224924Y657101D01*
X224924Y640839D01*
X224031Y639946D01*
X207769Y639946D01*
X206876Y640839D01*
X206876Y644144D01*
X206816Y644441D01*
X206644Y644691D01*
X206389Y644855D01*
X206114Y644906D01*
X187419Y644906D01*
X187122Y644846D01*
X186880Y644683D01*
X168117Y625920D01*
X167950Y625667D01*
X167894Y625381D01*
X167894Y587597D01*
X145633Y565336D01*
X137504Y565336D01*
X137207Y565276D01*
X136965Y565113D01*
X136515Y564663D01*
X134462Y563812D01*
X108409Y563812D01*
X108112Y563752D01*
X107862Y563580D01*
X107705Y563342D01*
X107393Y562589D01*
X104011Y559207D01*
X99592Y557376D01*
X94808Y557376D01*
G37*
G36*
X379181Y28956D02*
X375820Y30348D01*
X373248Y32920D01*
X371856Y36281D01*
X371856Y55159D01*
X373248Y58520D01*
X375820Y61092D01*
X378006Y61997D01*
X378257Y62167D01*
X378423Y62421D01*
X378476Y62701D01*
X378476Y506639D01*
X378416Y506936D01*
X378253Y507178D01*
X264608Y620823D01*
X264355Y620990D01*
X264069Y621046D01*
X225131Y621046D01*
X224834Y620986D01*
X224584Y620814D01*
X224427Y620576D01*
X223550Y618458D01*
X221012Y615920D01*
X217695Y614546D01*
X214105Y614546D01*
X210788Y615920D01*
X208250Y618458D01*
X206876Y621775D01*
X206876Y625365D01*
X208250Y628682D01*
X210788Y631220D01*
X214105Y632594D01*
X217695Y632594D01*
X221012Y631220D01*
X223550Y628682D01*
X224427Y626564D01*
X224597Y626313D01*
X224851Y626147D01*
X225131Y626094D01*
X266475Y626094D01*
X382493Y510076D01*
X382746Y509909D01*
X383044Y509853D01*
X383340Y509918D01*
X383588Y510094D01*
X383747Y510352D01*
X383794Y510615D01*
X383794Y518167D01*
X383734Y518465D01*
X383571Y518706D01*
X313944Y588333D01*
X313944Y719767D01*
X388171Y793994D01*
X388338Y794247D01*
X388394Y794533D01*
X388394Y798488D01*
X391217Y801311D01*
X391385Y801564D01*
X391440Y801862D01*
X391375Y802158D01*
X391200Y802406D01*
X390942Y802565D01*
X390679Y802612D01*
X379999Y802612D01*
X314138Y868473D01*
X313885Y868640D01*
X313599Y868696D01*
X307555Y868696D01*
X307258Y868636D01*
X307017Y868473D01*
X304458Y865914D01*
X300062Y865914D01*
X296954Y869022D01*
X296954Y873418D01*
X300062Y876526D01*
X304458Y876526D01*
X307017Y873967D01*
X307269Y873800D01*
X307555Y873744D01*
X315917Y873744D01*
X316214Y873804D01*
X316464Y873976D01*
X316628Y874231D01*
X316679Y874530D01*
X316609Y874825D01*
X316456Y875045D01*
X312868Y878633D01*
X312615Y878800D01*
X312329Y878856D01*
X294855Y878856D01*
X294558Y878796D01*
X294317Y878633D01*
X291758Y876074D01*
X287362Y876074D01*
X284254Y879182D01*
X284254Y883578D01*
X287362Y886686D01*
X291758Y886686D01*
X294317Y884127D01*
X294569Y883960D01*
X294855Y883904D01*
X314735Y883904D01*
X386902Y811737D01*
X387155Y811570D01*
X387441Y811514D01*
X435385Y811514D01*
X443214Y803685D01*
X443214Y791425D01*
X443274Y791128D01*
X443437Y790887D01*
X445996Y788328D01*
X445996Y783932D01*
X442888Y780824D01*
X438492Y780824D01*
X435384Y783932D01*
X435384Y788328D01*
X437943Y790887D01*
X438110Y791139D01*
X438166Y791425D01*
X438166Y794583D01*
X438106Y794880D01*
X437934Y795130D01*
X437679Y795293D01*
X437380Y795344D01*
X437085Y795274D01*
X436865Y795121D01*
X433998Y792254D01*
X429602Y792254D01*
X426494Y795362D01*
X426494Y798981D01*
X426434Y799278D01*
X426271Y799520D01*
X423402Y802389D01*
X423149Y802556D01*
X422863Y802612D01*
X413231Y802612D01*
X412934Y802552D01*
X412684Y802380D01*
X412521Y802125D01*
X412470Y801826D01*
X412540Y801531D01*
X412693Y801311D01*
X412976Y801028D01*
X412976Y797278D01*
X413036Y796981D01*
X413208Y796731D01*
X413463Y796567D01*
X413738Y796516D01*
X416218Y796516D01*
X419326Y793408D01*
X419326Y789012D01*
X416529Y786215D01*
X416362Y785963D01*
X416306Y785677D01*
X416306Y620083D01*
X401051Y604828D01*
X400884Y604575D01*
X400828Y604277D01*
X400893Y603981D01*
X401051Y603751D01*
X401574Y603228D01*
X401574Y595652D01*
X396218Y590296D01*
X388642Y590296D01*
X383286Y595652D01*
X383286Y603228D01*
X388642Y608584D01*
X396218Y608584D01*
X396741Y608061D01*
X396993Y607894D01*
X397292Y607838D01*
X397588Y607903D01*
X397818Y608061D01*
X411511Y621754D01*
X411678Y622007D01*
X411734Y622293D01*
X411734Y785677D01*
X411674Y785974D01*
X411511Y786215D01*
X408714Y789012D01*
X408714Y792762D01*
X408654Y793059D01*
X408482Y793309D01*
X408227Y793473D01*
X407952Y793524D01*
X405913Y793524D01*
X405615Y793464D01*
X405374Y793301D01*
X333979Y721906D01*
X333812Y721653D01*
X333756Y721367D01*
X333756Y665933D01*
X333816Y665636D01*
X333979Y665395D01*
X336776Y662598D01*
X336776Y658202D01*
X333668Y655094D01*
X329272Y655094D01*
X326164Y658202D01*
X326164Y662598D01*
X328961Y665395D01*
X329128Y665647D01*
X329184Y665933D01*
X329184Y723577D01*
X395290Y789683D01*
X395458Y789936D01*
X395513Y790234D01*
X395448Y790530D01*
X395273Y790778D01*
X395015Y790937D01*
X394751Y790984D01*
X391943Y790984D01*
X391645Y790924D01*
X391404Y790761D01*
X318739Y718096D01*
X318572Y717843D01*
X318516Y717557D01*
X318516Y590543D01*
X318576Y590245D01*
X318739Y590004D01*
X388366Y520377D01*
X388366Y334209D01*
X388426Y333912D01*
X388598Y333662D01*
X388853Y333499D01*
X389152Y333448D01*
X389447Y333518D01*
X389667Y333671D01*
X391502Y335506D01*
X395898Y335506D01*
X398695Y332709D01*
X398947Y332542D01*
X399233Y332486D01*
X438967Y332486D01*
X439264Y332546D01*
X439505Y332709D01*
X442302Y335506D01*
X446698Y335506D01*
X449806Y332398D01*
X449806Y328002D01*
X446698Y324894D01*
X442302Y324894D01*
X439505Y327691D01*
X439253Y327858D01*
X438967Y327914D01*
X399233Y327914D01*
X398936Y327854D01*
X398695Y327691D01*
X395898Y324894D01*
X391502Y324894D01*
X389667Y326729D01*
X389414Y326897D01*
X389116Y326952D01*
X388820Y326887D01*
X388572Y326712D01*
X388413Y326454D01*
X388366Y326191D01*
X388366Y320033D01*
X388426Y319735D01*
X388589Y319494D01*
X393154Y314929D01*
X393407Y314762D01*
X393693Y314706D01*
X444507Y314706D01*
X444805Y314766D01*
X445046Y314929D01*
X465143Y335026D01*
X572447Y335026D01*
X612384Y295089D01*
X612637Y294922D01*
X612923Y294866D01*
X616878Y294866D01*
X619986Y291758D01*
X619986Y287362D01*
X616878Y284254D01*
X612482Y284254D01*
X609374Y287362D01*
X609374Y291317D01*
X609314Y291615D01*
X609151Y291856D01*
X570776Y330231D01*
X570523Y330398D01*
X570237Y330454D01*
X467353Y330454D01*
X467055Y330394D01*
X466814Y330231D01*
X446717Y310134D01*
X391483Y310134D01*
X384825Y316792D01*
X384572Y316960D01*
X384274Y317015D01*
X383978Y316950D01*
X383730Y316775D01*
X383571Y316517D01*
X383524Y316253D01*
X383524Y62701D01*
X383584Y62404D01*
X383756Y62154D01*
X383994Y61997D01*
X386180Y61092D01*
X388752Y58520D01*
X390144Y55159D01*
X390144Y36281D01*
X388752Y32920D01*
X386180Y30348D01*
X382819Y28956D01*
X379181Y28956D01*
G37*
G36*
X455942Y871622D02*
X455942Y881900D01*
X457376Y881900D01*
X461434Y880219D01*
X464539Y877114D01*
X466220Y873056D01*
X466220Y871622D01*
X455942Y871622D01*
G37*
G36*
X520942Y871622D02*
X520942Y881900D01*
X522376Y881900D01*
X526434Y880219D01*
X529539Y877114D01*
X531220Y873056D01*
X531220Y871622D01*
X520942Y871622D01*
G37*
G36*
X509140Y871622D02*
X509140Y873056D01*
X510821Y877114D01*
X513926Y880219D01*
X517984Y881900D01*
X519418Y881900D01*
X519418Y871622D01*
X509140Y871622D01*
G37*
G36*
X444140Y871622D02*
X444140Y873056D01*
X445821Y877114D01*
X448926Y880219D01*
X452984Y881900D01*
X454418Y881900D01*
X454418Y871622D01*
X444140Y871622D01*
G37*
G36*
X520942Y859820D02*
X520942Y870098D01*
X531220Y870098D01*
X531220Y868664D01*
X529539Y864606D01*
X526434Y861501D01*
X522376Y859820D01*
X520942Y859820D01*
G37*
G36*
X517984Y859820D02*
X513926Y861501D01*
X510821Y864606D01*
X509140Y868664D01*
X509140Y870098D01*
X519418Y870098D01*
X519418Y859820D01*
X517984Y859820D01*
G37*
G36*
X455942Y859820D02*
X455942Y870098D01*
X466220Y870098D01*
X466220Y868664D01*
X464539Y864606D01*
X461434Y861501D01*
X457376Y859820D01*
X455942Y859820D01*
G37*
G36*
X452984Y859820D02*
X448926Y861501D01*
X445821Y864606D01*
X444140Y868664D01*
X444140Y870098D01*
X454418Y870098D01*
X454418Y859820D01*
X452984Y859820D01*
G37*
G36*
X471564Y854986D02*
X471564Y861099D01*
X473051Y862587D01*
X486918Y862587D01*
X486918Y854986D01*
X471564Y854986D01*
G37*
G36*
X488442Y854986D02*
X488442Y862587D01*
X502309Y862587D01*
X503797Y861099D01*
X503797Y854986D01*
X488442Y854986D01*
G37*
G36*
X288777Y799519D02*
X285956Y800688D01*
X283798Y802846D01*
X282629Y805667D01*
X282629Y808720D01*
X283798Y811540D01*
X285956Y813699D01*
X288777Y814867D01*
X291830Y814867D01*
X293166Y814314D01*
X293464Y814256D01*
X293761Y814319D01*
X293997Y814479D01*
X294417Y814899D01*
X294584Y815152D01*
X294640Y815438D01*
X294640Y824678D01*
X294580Y824975D01*
X294417Y825216D01*
X291633Y828000D01*
X291380Y828168D01*
X291082Y828223D01*
X290786Y828158D01*
X290555Y828000D01*
X288326Y825771D01*
X287064Y825771D01*
X266971Y845864D01*
X266971Y847126D01*
X276099Y856254D01*
X277361Y856254D01*
X297454Y836161D01*
X297454Y834899D01*
X295225Y832670D01*
X295058Y832417D01*
X295002Y832119D01*
X295067Y831823D01*
X295225Y831592D01*
X298009Y828808D01*
X299720Y827097D01*
X299720Y813018D01*
X297589Y810887D01*
X297421Y810634D01*
X297366Y810336D01*
X297424Y810056D01*
X297977Y808720D01*
X297977Y805667D01*
X296809Y802846D01*
X294650Y800688D01*
X291830Y799519D01*
X288777Y799519D01*
G37*
G36*
X488442Y845861D02*
X488442Y853462D01*
X503797Y853462D01*
X503797Y847349D01*
X502309Y845861D01*
X488442Y845861D01*
G37*
G36*
X473051Y845861D02*
X471564Y847349D01*
X471564Y853462D01*
X486918Y853462D01*
X486918Y845861D01*
X473051Y845861D01*
G37*
G36*
X250490Y832082D02*
X254813Y836405D01*
X256917Y836405D01*
X266722Y826600D01*
X261347Y821225D01*
X250490Y832082D01*
G37*
G36*
X453186Y815836D02*
X449502Y817362D01*
X446682Y820182D01*
X445156Y823866D01*
X445156Y827854D01*
X446682Y831538D01*
X449502Y834358D01*
X453186Y835884D01*
X457174Y835884D01*
X460858Y834358D01*
X463678Y831538D01*
X465204Y827854D01*
X465204Y827764D01*
X465264Y827467D01*
X465436Y827217D01*
X465691Y827053D01*
X465966Y827002D01*
X471818Y827002D01*
X472115Y827062D01*
X472365Y827234D01*
X472528Y827489D01*
X472580Y827764D01*
X472580Y831170D01*
X473472Y832063D01*
X501888Y832063D01*
X502781Y831170D01*
X502781Y827764D01*
X502841Y827467D01*
X503012Y827217D01*
X503268Y827053D01*
X503543Y827002D01*
X509394Y827002D01*
X509691Y827062D01*
X509941Y827234D01*
X510105Y827489D01*
X510156Y827764D01*
X510156Y827854D01*
X511682Y831538D01*
X514502Y834358D01*
X518186Y835884D01*
X522174Y835884D01*
X525858Y834358D01*
X528678Y831538D01*
X530204Y827854D01*
X530204Y823866D01*
X528678Y820182D01*
X525858Y817362D01*
X522174Y815836D01*
X518186Y815836D01*
X514502Y817362D01*
X511682Y820182D01*
X510946Y821960D01*
X510776Y822211D01*
X510522Y822377D01*
X510242Y822430D01*
X503543Y822430D01*
X503245Y822370D01*
X502995Y822198D01*
X502832Y821943D01*
X502781Y821668D01*
X502781Y818262D01*
X501888Y817369D01*
X473472Y817369D01*
X472580Y818262D01*
X472580Y821668D01*
X472519Y821965D01*
X472348Y822215D01*
X472092Y822379D01*
X471818Y822430D01*
X465118Y822430D01*
X464821Y822370D01*
X464571Y822198D01*
X464414Y821960D01*
X463678Y820182D01*
X460858Y817362D01*
X457174Y815836D01*
X453186Y815836D01*
G37*
G36*
X245090Y824578D02*
X245090Y826682D01*
X249413Y831005D01*
X260270Y820147D01*
X254895Y814773D01*
X245090Y824578D01*
G37*
G36*
X262425Y820147D02*
X267800Y825522D01*
X277605Y815717D01*
X277605Y813613D01*
X273282Y809290D01*
X262425Y820147D01*
G37*
G36*
X265778Y803890D02*
X255973Y813695D01*
X261347Y819070D01*
X272205Y808212D01*
X267882Y803890D01*
X265778Y803890D01*
G37*
G36*
X231985Y813578D02*
X236308Y817900D01*
X238412Y817900D01*
X248217Y808095D01*
X242843Y802720D01*
X231985Y813578D01*
G37*
G36*
X226585Y806073D02*
X226585Y808177D01*
X230908Y812500D01*
X241765Y801643D01*
X236390Y796268D01*
X226585Y806073D01*
G37*
G36*
X243920Y801643D02*
X249295Y807017D01*
X259100Y797212D01*
X259100Y795108D01*
X254778Y790785D01*
X243920Y801643D01*
G37*
G36*
X670902Y769394D02*
X668105Y772191D01*
X667853Y772358D01*
X667567Y772414D01*
X621353Y772414D01*
X599196Y794571D01*
X598943Y794738D01*
X598657Y794794D01*
X594702Y794794D01*
X591594Y797902D01*
X591594Y802298D01*
X594702Y805406D01*
X599098Y805406D01*
X602206Y802298D01*
X602206Y798343D01*
X602266Y798045D01*
X602429Y797804D01*
X623024Y777209D01*
X623277Y777042D01*
X623563Y776986D01*
X667567Y776986D01*
X667864Y777046D01*
X668105Y777209D01*
X670902Y780006D01*
X675298Y780006D01*
X678406Y776898D01*
X678406Y772502D01*
X675298Y769394D01*
X670902Y769394D01*
G37*
G36*
X247273Y785385D02*
X237468Y795190D01*
X242843Y800565D01*
X253700Y789708D01*
X249377Y785385D01*
X247273Y785385D01*
G37*
G36*
X234623Y764540D02*
X231398Y767765D01*
X231145Y767932D01*
X230847Y767988D01*
X230551Y767923D01*
X230320Y767765D01*
X228091Y765536D01*
X226829Y765536D01*
X206736Y785629D01*
X206736Y786891D01*
X215864Y796019D01*
X217126Y796019D01*
X237219Y775926D01*
X237219Y774664D01*
X234990Y772435D01*
X234822Y772182D01*
X234767Y771884D01*
X234832Y771587D01*
X234990Y771357D01*
X236504Y769843D01*
X236756Y769676D01*
X237042Y769620D01*
X247620Y769620D01*
X247917Y769680D01*
X248167Y769852D01*
X248331Y770107D01*
X248382Y770406D01*
X248324Y770674D01*
X248123Y771160D01*
X248123Y774213D01*
X249291Y777034D01*
X251450Y779192D01*
X254270Y780361D01*
X257323Y780361D01*
X260144Y779192D01*
X262302Y777034D01*
X263471Y774213D01*
X263471Y771160D01*
X262302Y768340D01*
X260144Y766181D01*
X257323Y765013D01*
X254270Y765013D01*
X252934Y765566D01*
X252636Y765624D01*
X252339Y765561D01*
X252103Y765401D01*
X251242Y764540D01*
X234623Y764540D01*
G37*
G36*
X55962Y752162D02*
X55962Y764440D01*
X57794Y764440D01*
X62587Y762455D01*
X66255Y758787D01*
X68240Y753994D01*
X68240Y752162D01*
X55962Y752162D01*
G37*
G36*
X42160Y752162D02*
X42160Y753994D01*
X44145Y758787D01*
X47813Y762455D01*
X52606Y764440D01*
X54438Y764440D01*
X54438Y752162D01*
X42160Y752162D01*
G37*
G36*
X94808Y739376D02*
X90389Y741207D01*
X87007Y744589D01*
X85176Y749008D01*
X85176Y753792D01*
X87007Y758211D01*
X90389Y761593D01*
X94808Y763424D01*
X99592Y763424D01*
X104011Y761593D01*
X107393Y758211D01*
X109224Y753792D01*
X109224Y749008D01*
X107393Y744589D01*
X104011Y741207D01*
X99592Y739376D01*
X94808Y739376D01*
G37*
G36*
X541362Y409984D02*
X538254Y413092D01*
X538254Y417047D01*
X538194Y417345D01*
X538031Y417586D01*
X488226Y467391D01*
X487973Y467558D01*
X487687Y467614D01*
X468953Y467614D01*
X454914Y481653D01*
X454914Y734067D01*
X454854Y734365D01*
X454691Y734606D01*
X437906Y751391D01*
X437653Y751558D01*
X437367Y751614D01*
X433412Y751614D01*
X430304Y754722D01*
X430304Y759118D01*
X433412Y762226D01*
X437808Y762226D01*
X440916Y759118D01*
X440916Y755163D01*
X440976Y754865D01*
X441139Y754624D01*
X459486Y736277D01*
X459486Y483863D01*
X459546Y483565D01*
X459709Y483324D01*
X470624Y472409D01*
X470877Y472242D01*
X471163Y472186D01*
X489897Y472186D01*
X541264Y420819D01*
X541517Y420652D01*
X541803Y420596D01*
X545758Y420596D01*
X548866Y417488D01*
X548866Y413092D01*
X545758Y409984D01*
X541362Y409984D01*
G37*
G36*
X55962Y738360D02*
X55962Y750638D01*
X68240Y750638D01*
X68240Y748806D01*
X66255Y744013D01*
X62587Y740345D01*
X57794Y738360D01*
X55962Y738360D01*
G37*
G36*
X52606Y738360D02*
X47813Y740345D01*
X44145Y744013D01*
X42160Y748806D01*
X42160Y750638D01*
X54438Y750638D01*
X54438Y738360D01*
X52606Y738360D01*
G37*
G36*
X448652Y437924D02*
X445544Y441032D01*
X445544Y445428D01*
X448341Y448225D01*
X448508Y448477D01*
X448564Y448763D01*
X448564Y718827D01*
X448504Y719125D01*
X448341Y719366D01*
X445526Y722181D01*
X445273Y722348D01*
X444987Y722404D01*
X441032Y722404D01*
X437924Y725512D01*
X437924Y729908D01*
X441032Y733016D01*
X445428Y733016D01*
X448536Y729908D01*
X448536Y725953D01*
X448596Y725655D01*
X448759Y725414D01*
X453136Y721037D01*
X453136Y448763D01*
X453196Y448466D01*
X453359Y448225D01*
X456156Y445428D01*
X456156Y441032D01*
X453048Y437924D01*
X448652Y437924D01*
G37*
G36*
X230212Y258854D02*
X227104Y261962D01*
X227104Y266358D01*
X229901Y269155D01*
X230068Y269407D01*
X230124Y269693D01*
X230124Y368307D01*
X230064Y368605D01*
X229901Y368846D01*
X184407Y414340D01*
X184154Y414508D01*
X183856Y414563D01*
X183560Y414498D01*
X183312Y414323D01*
X183153Y414065D01*
X183106Y413801D01*
X183106Y410552D01*
X179998Y407444D01*
X175602Y407444D01*
X172494Y410552D01*
X172494Y414507D01*
X172434Y414805D01*
X172271Y415046D01*
X166916Y420401D01*
X166663Y420568D01*
X166377Y420624D01*
X144783Y420624D01*
X144486Y420564D01*
X144236Y420392D01*
X144072Y420137D01*
X144021Y419862D01*
X144021Y413202D01*
X143128Y412310D01*
X130220Y412310D01*
X129327Y413202D01*
X129327Y432618D01*
X130220Y433511D01*
X131848Y433511D01*
X132145Y433571D01*
X132395Y433742D01*
X132559Y433998D01*
X132610Y434273D01*
X132610Y442987D01*
X132550Y443284D01*
X132387Y443526D01*
X51136Y524777D01*
X51136Y557560D01*
X51076Y557857D01*
X50904Y558107D01*
X50666Y558264D01*
X48389Y559207D01*
X45007Y562589D01*
X43176Y567008D01*
X43176Y571792D01*
X45007Y576211D01*
X48389Y579593D01*
X52808Y581424D01*
X57592Y581424D01*
X59868Y580481D01*
X60166Y580423D01*
X60463Y580486D01*
X60699Y580646D01*
X71913Y591860D01*
X72080Y592113D01*
X72136Y592399D01*
X72136Y673401D01*
X72076Y673698D01*
X71913Y673940D01*
X60699Y685154D01*
X60446Y685321D01*
X60148Y685377D01*
X59868Y685319D01*
X57592Y684376D01*
X52808Y684376D01*
X48389Y686207D01*
X45007Y689589D01*
X43176Y694008D01*
X43176Y698792D01*
X45007Y703211D01*
X48389Y706593D01*
X52808Y708424D01*
X57592Y708424D01*
X62011Y706593D01*
X65393Y703211D01*
X67224Y698792D01*
X67224Y694008D01*
X66281Y691732D01*
X66223Y691434D01*
X66286Y691137D01*
X66446Y690901D01*
X80264Y677083D01*
X80264Y588717D01*
X66446Y574899D01*
X66279Y574646D01*
X66223Y574348D01*
X66281Y574068D01*
X67224Y571792D01*
X67224Y567008D01*
X65393Y562589D01*
X62011Y559207D01*
X59734Y558264D01*
X59483Y558094D01*
X59317Y557840D01*
X59264Y557560D01*
X59264Y528459D01*
X59324Y528162D01*
X59487Y527920D01*
X140738Y446669D01*
X140738Y434273D01*
X140798Y433975D01*
X140970Y433725D01*
X141225Y433562D01*
X141500Y433511D01*
X143128Y433511D01*
X144021Y432618D01*
X144021Y425958D01*
X144081Y425661D01*
X144253Y425411D01*
X144508Y425247D01*
X144783Y425196D01*
X168587Y425196D01*
X175504Y418279D01*
X175757Y418112D01*
X176043Y418056D01*
X178851Y418056D01*
X179149Y418116D01*
X179399Y418288D01*
X179562Y418543D01*
X179613Y418842D01*
X179543Y419137D01*
X179390Y419357D01*
X175514Y423233D01*
X175514Y424997D01*
X175454Y425294D01*
X175291Y425535D01*
X172494Y428332D01*
X172494Y432728D01*
X175602Y435836D01*
X179998Y435836D01*
X183106Y432728D01*
X183106Y428332D01*
X180532Y425758D01*
X180365Y425506D01*
X180309Y425207D01*
X180374Y424911D01*
X180532Y424681D01*
X233134Y372079D01*
X234696Y370517D01*
X234696Y269693D01*
X234756Y269396D01*
X234919Y269155D01*
X237586Y266488D01*
X237839Y266320D01*
X238137Y266265D01*
X238433Y266330D01*
X238664Y266488D01*
X241331Y269155D01*
X241498Y269407D01*
X241554Y269693D01*
X241554Y369577D01*
X241494Y369875D01*
X241331Y370116D01*
X220450Y390997D01*
X220450Y411548D01*
X220390Y411845D01*
X220218Y412095D01*
X219963Y412258D01*
X219688Y412310D01*
X216282Y412310D01*
X215389Y413202D01*
X215389Y432618D01*
X216282Y433511D01*
X229190Y433511D01*
X230083Y432618D01*
X230083Y413202D01*
X229190Y412310D01*
X225784Y412310D01*
X225487Y412249D01*
X225237Y412078D01*
X225073Y411822D01*
X225022Y411548D01*
X225022Y393207D01*
X225082Y392909D01*
X225245Y392668D01*
X244853Y373060D01*
X245106Y372892D01*
X245404Y372837D01*
X245700Y372902D01*
X245948Y373077D01*
X246107Y373335D01*
X246154Y373599D01*
X246154Y376848D01*
X246897Y377591D01*
X247064Y377843D01*
X247120Y378129D01*
X247120Y384878D01*
X247060Y385175D01*
X246888Y385425D01*
X246633Y385588D01*
X246358Y385640D01*
X242952Y385640D01*
X242059Y386532D01*
X242059Y405948D01*
X242952Y406841D01*
X249196Y406841D01*
X249493Y406901D01*
X249743Y407072D01*
X249907Y407328D01*
X249958Y407603D01*
X249958Y411548D01*
X249898Y411845D01*
X249726Y412095D01*
X249471Y412258D01*
X249196Y412310D01*
X245790Y412310D01*
X244897Y413202D01*
X244897Y432618D01*
X245790Y433511D01*
X258698Y433511D01*
X259591Y432618D01*
X259591Y413202D01*
X258698Y412310D01*
X255292Y412310D01*
X254995Y412249D01*
X254745Y412078D01*
X254581Y411822D01*
X254530Y411548D01*
X254530Y407603D01*
X254590Y407305D01*
X254762Y407055D01*
X255017Y406892D01*
X255292Y406841D01*
X255860Y406841D01*
X256753Y405948D01*
X256753Y386532D01*
X255860Y385640D01*
X252454Y385640D01*
X252157Y385579D01*
X251907Y385408D01*
X251743Y385152D01*
X251692Y384878D01*
X251692Y380718D01*
X251752Y380421D01*
X251924Y380171D01*
X252179Y380007D01*
X252454Y379956D01*
X253658Y379956D01*
X256766Y376848D01*
X256766Y372452D01*
X253658Y369344D01*
X249262Y369344D01*
X247427Y371179D01*
X247174Y371347D01*
X246876Y371402D01*
X246580Y371337D01*
X246332Y371162D01*
X246173Y370904D01*
X246126Y370641D01*
X246126Y269693D01*
X246186Y269396D01*
X246349Y269155D01*
X249146Y266358D01*
X249146Y261962D01*
X246038Y258854D01*
X241642Y258854D01*
X238664Y261832D01*
X238411Y262000D01*
X238113Y262055D01*
X237817Y261990D01*
X237586Y261832D01*
X234608Y258854D01*
X230212Y258854D01*
G37*
G36*
X921092Y375694D02*
X917984Y378802D01*
X917984Y383198D01*
X921092Y386306D01*
X925047Y386306D01*
X925345Y386366D01*
X925586Y386529D01*
X930941Y391884D01*
X931108Y392137D01*
X931164Y392423D01*
X931164Y652787D01*
X931104Y653085D01*
X930941Y653326D01*
X900976Y683291D01*
X900723Y683458D01*
X900437Y683514D01*
X501973Y683514D01*
X488706Y696781D01*
X488453Y696948D01*
X488167Y697004D01*
X484212Y697004D01*
X481104Y700112D01*
X481104Y704508D01*
X484212Y707616D01*
X488608Y707616D01*
X491716Y704508D01*
X491716Y700553D01*
X491776Y700255D01*
X491939Y700014D01*
X503644Y688309D01*
X503897Y688142D01*
X504183Y688086D01*
X902647Y688086D01*
X935736Y654997D01*
X935736Y390213D01*
X928819Y383296D01*
X928652Y383043D01*
X928596Y382757D01*
X928596Y378802D01*
X925488Y375694D01*
X921092Y375694D01*
G37*
G36*
X337842Y590296D02*
X332486Y595652D01*
X332486Y603228D01*
X337842Y608584D01*
X339344Y608584D01*
X339641Y608644D01*
X339891Y608816D01*
X340055Y609071D01*
X340106Y609346D01*
X340106Y610539D01*
X343962Y614395D01*
X344129Y614648D01*
X344185Y614946D01*
X344120Y615242D01*
X343944Y615490D01*
X343686Y615649D01*
X343423Y615696D01*
X337842Y615696D01*
X332486Y621052D01*
X332486Y628628D01*
X337842Y633984D01*
X345418Y633984D01*
X350743Y628658D01*
X350996Y628491D01*
X351294Y628435D01*
X351590Y628500D01*
X351838Y628676D01*
X351997Y628934D01*
X352044Y629197D01*
X352044Y667567D01*
X351984Y667864D01*
X351821Y668105D01*
X351564Y668362D01*
X351564Y672758D01*
X354672Y675866D01*
X359068Y675866D01*
X362176Y672758D01*
X362176Y668362D01*
X359068Y665254D01*
X357378Y665254D01*
X357081Y665194D01*
X356831Y665022D01*
X356667Y664767D01*
X356616Y664492D01*
X356616Y629197D01*
X356676Y628900D01*
X356848Y628650D01*
X357103Y628486D01*
X357402Y628436D01*
X357697Y628505D01*
X357917Y628658D01*
X363242Y633984D01*
X370818Y633984D01*
X376143Y628658D01*
X376396Y628491D01*
X376694Y628435D01*
X376990Y628500D01*
X377238Y628676D01*
X377397Y628934D01*
X377444Y629197D01*
X377444Y647707D01*
X377384Y648005D01*
X377221Y648246D01*
X371866Y653601D01*
X371613Y653768D01*
X371327Y653824D01*
X367372Y653824D01*
X364264Y656932D01*
X364264Y661328D01*
X367372Y664436D01*
X371768Y664436D01*
X374876Y661328D01*
X374876Y657373D01*
X374936Y657075D01*
X375099Y656834D01*
X382016Y649917D01*
X382016Y630634D01*
X382076Y630337D01*
X382248Y630087D01*
X382503Y629923D01*
X382802Y629872D01*
X383097Y629942D01*
X383317Y630095D01*
X388222Y635000D01*
X391668Y635000D01*
X391668Y614680D01*
X388222Y614680D01*
X383317Y619585D01*
X383064Y619752D01*
X382766Y619808D01*
X382470Y619743D01*
X382222Y619567D01*
X382063Y619309D01*
X382016Y619046D01*
X382016Y611193D01*
X375651Y604828D01*
X375484Y604575D01*
X375428Y604277D01*
X375493Y603981D01*
X375651Y603751D01*
X376174Y603228D01*
X376174Y595652D01*
X370818Y590296D01*
X363242Y590296D01*
X357886Y595652D01*
X357886Y603228D01*
X363242Y608584D01*
X370818Y608584D01*
X371341Y608061D01*
X371593Y607894D01*
X371892Y607838D01*
X372188Y607903D01*
X372418Y608061D01*
X377221Y612864D01*
X377388Y613117D01*
X377444Y613403D01*
X377444Y620483D01*
X377384Y620780D01*
X377212Y621030D01*
X376957Y621194D01*
X376658Y621244D01*
X376363Y621175D01*
X376143Y621022D01*
X370818Y615696D01*
X363242Y615696D01*
X357917Y621022D01*
X357664Y621189D01*
X357366Y621245D01*
X357070Y621180D01*
X356822Y621004D01*
X356663Y620746D01*
X356638Y620606D01*
X345556Y609523D01*
X345388Y609271D01*
X345333Y608972D01*
X345398Y608676D01*
X345556Y608446D01*
X350774Y603228D01*
X350774Y595652D01*
X345418Y590296D01*
X337842Y590296D01*
G37*
G36*
X42160Y625162D02*
X42160Y626994D01*
X44145Y631787D01*
X47813Y635455D01*
X52606Y637440D01*
X54438Y637440D01*
X54438Y625162D01*
X42160Y625162D01*
G37*
G36*
X55962Y625162D02*
X55962Y637440D01*
X57794Y637440D01*
X62587Y635455D01*
X66255Y631787D01*
X68240Y626994D01*
X68240Y625162D01*
X55962Y625162D01*
G37*
G36*
X94808Y612376D02*
X90389Y614207D01*
X87007Y617589D01*
X85176Y622008D01*
X85176Y626792D01*
X87007Y631211D01*
X90389Y634593D01*
X94808Y636424D01*
X99592Y636424D01*
X104011Y634593D01*
X107393Y631211D01*
X109224Y626792D01*
X109224Y622008D01*
X107393Y617589D01*
X104011Y614207D01*
X99592Y612376D01*
X94808Y612376D01*
G37*
G36*
X393192Y625602D02*
X393192Y635000D01*
X396638Y635000D01*
X402590Y629048D01*
X402590Y625602D01*
X393192Y625602D01*
G37*
G36*
X499452Y619534D02*
X496344Y622642D01*
X496344Y627038D01*
X499452Y630146D01*
X503848Y630146D01*
X506137Y627857D01*
X506389Y627690D01*
X506675Y627634D01*
X538535Y627634D01*
X538832Y627694D01*
X539073Y627857D01*
X541362Y630146D01*
X545758Y630146D01*
X548866Y627038D01*
X548866Y622642D01*
X545758Y619534D01*
X541362Y619534D01*
X539073Y621823D01*
X538821Y621990D01*
X538535Y622046D01*
X506675Y622046D01*
X506378Y621986D01*
X506137Y621823D01*
X503848Y619534D01*
X499452Y619534D01*
G37*
G36*
X393192Y614680D02*
X393192Y624078D01*
X402590Y624078D01*
X402590Y620632D01*
X396638Y614680D01*
X393192Y614680D01*
G37*
G36*
X52606Y611360D02*
X47813Y613345D01*
X44145Y617013D01*
X42160Y621806D01*
X42160Y623638D01*
X54438Y623638D01*
X54438Y611360D01*
X52606Y611360D01*
G37*
G36*
X55962Y611360D02*
X55962Y623638D01*
X68240Y623638D01*
X68240Y621806D01*
X66255Y617013D01*
X62587Y613345D01*
X57794Y611360D01*
X55962Y611360D01*
G37*
G36*
X900888Y571840D02*
X894489Y573555D01*
X888751Y576867D01*
X884067Y581551D01*
X880755Y587289D01*
X879040Y593688D01*
X879040Y600312D01*
X880755Y606711D01*
X884067Y612449D01*
X888751Y617133D01*
X894489Y620445D01*
X900888Y622160D01*
X907512Y622160D01*
X913911Y620445D01*
X919649Y617133D01*
X924333Y612449D01*
X927645Y606711D01*
X929360Y600312D01*
X929360Y593688D01*
X927645Y587289D01*
X924333Y581551D01*
X919649Y576867D01*
X913911Y573555D01*
X907512Y571840D01*
X900888Y571840D01*
G37*
G36*
X353781Y28956D02*
X350420Y30348D01*
X347848Y32920D01*
X346456Y36281D01*
X346456Y55159D01*
X347848Y58520D01*
X350420Y61092D01*
X352606Y61997D01*
X352857Y62167D01*
X353023Y62421D01*
X353076Y62701D01*
X353076Y502328D01*
X353016Y502626D01*
X352853Y502867D01*
X260297Y595423D01*
X260044Y595590D01*
X259758Y595646D01*
X225131Y595646D01*
X224834Y595586D01*
X224584Y595414D01*
X224427Y595176D01*
X223550Y593058D01*
X221012Y590520D01*
X217695Y589146D01*
X214105Y589146D01*
X210788Y590520D01*
X208250Y593058D01*
X206876Y596375D01*
X206876Y599965D01*
X208250Y603282D01*
X210788Y605820D01*
X214105Y607194D01*
X217695Y607194D01*
X221012Y605820D01*
X223550Y603282D01*
X224427Y601164D01*
X224597Y600913D01*
X224851Y600747D01*
X225131Y600694D01*
X262165Y600694D01*
X358124Y504735D01*
X358124Y62701D01*
X358184Y62404D01*
X358356Y62154D01*
X358594Y61997D01*
X360780Y61092D01*
X363352Y58520D01*
X364744Y55159D01*
X364744Y36281D01*
X363352Y32920D01*
X360780Y30348D01*
X357419Y28956D01*
X353781Y28956D01*
G37*
G36*
X216662Y573532D02*
X216662Y582810D01*
X217897Y582810D01*
X221587Y581282D01*
X224412Y578457D01*
X225940Y574767D01*
X225940Y573532D01*
X216662Y573532D01*
G37*
G36*
X205860Y573532D02*
X205860Y574767D01*
X207389Y578457D01*
X210213Y581282D01*
X213903Y582810D01*
X215138Y582810D01*
X215138Y573532D01*
X205860Y573532D01*
G37*
G36*
X216662Y562730D02*
X216662Y572008D01*
X225940Y572008D01*
X225940Y570773D01*
X224412Y567083D01*
X221587Y564259D01*
X217897Y562730D01*
X216662Y562730D01*
G37*
G36*
X213903Y562730D02*
X210213Y564259D01*
X207389Y567083D01*
X205860Y570773D01*
X205860Y572008D01*
X215138Y572008D01*
X215138Y562730D01*
X213903Y562730D01*
G37*
G36*
X886185Y550762D02*
X886185Y552668D01*
X888227Y557599D01*
X892001Y561373D01*
X896932Y563415D01*
X898838Y563415D01*
X898838Y550762D01*
X886185Y550762D01*
G37*
G36*
X955362Y550762D02*
X955362Y563415D01*
X957268Y563415D01*
X962199Y561373D01*
X965973Y557599D01*
X968015Y552668D01*
X968015Y550762D01*
X955362Y550762D01*
G37*
G36*
X941185Y550762D02*
X941185Y552668D01*
X943227Y557599D01*
X947001Y561373D01*
X951932Y563415D01*
X953838Y563415D01*
X953838Y550762D01*
X941185Y550762D01*
G37*
G36*
X900362Y550762D02*
X900362Y563415D01*
X902268Y563415D01*
X907199Y561373D01*
X910973Y557599D01*
X913015Y552668D01*
X913015Y550762D01*
X900362Y550762D01*
G37*
G36*
X900362Y536585D02*
X900362Y549238D01*
X913015Y549238D01*
X913015Y547332D01*
X910973Y542401D01*
X907199Y538627D01*
X902268Y536585D01*
X900362Y536585D01*
G37*
G36*
X896932Y536585D02*
X892001Y538627D01*
X888227Y542401D01*
X886185Y547332D01*
X886185Y549238D01*
X898838Y549238D01*
X898838Y536585D01*
X896932Y536585D01*
G37*
G36*
X955362Y536585D02*
X955362Y549238D01*
X968015Y549238D01*
X968015Y547332D01*
X965973Y542401D01*
X962199Y538627D01*
X957268Y536585D01*
X955362Y536585D01*
G37*
G36*
X951932Y536585D02*
X947001Y538627D01*
X943227Y542401D01*
X941185Y547332D01*
X941185Y549238D01*
X953838Y549238D01*
X953838Y536585D01*
X951932Y536585D01*
G37*
G36*
X952134Y495601D02*
X947577Y497489D01*
X944089Y500977D01*
X942201Y505534D01*
X942201Y510466D01*
X944089Y515023D01*
X947577Y518511D01*
X952134Y520399D01*
X957066Y520399D01*
X961623Y518511D01*
X965111Y515023D01*
X966999Y510466D01*
X966999Y505534D01*
X965111Y500977D01*
X961623Y497489D01*
X957066Y495601D01*
X952134Y495601D01*
G37*
G36*
X897134Y495601D02*
X892577Y497489D01*
X889089Y500977D01*
X887201Y505534D01*
X887201Y510466D01*
X889089Y515023D01*
X892577Y518511D01*
X897134Y520399D01*
X902066Y520399D01*
X906623Y518511D01*
X910111Y515023D01*
X911999Y510466D01*
X911999Y505534D01*
X910111Y500977D01*
X906623Y497489D01*
X902066Y495601D01*
X897134Y495601D01*
G37*
G36*
X678456Y496062D02*
X678456Y511417D01*
X684569Y511417D01*
X686057Y509929D01*
X686057Y496062D01*
X678456Y496062D01*
G37*
G36*
X669331Y496062D02*
X669331Y509929D01*
X670819Y511417D01*
X676932Y511417D01*
X676932Y496062D01*
X669331Y496062D01*
G37*
G36*
X674837Y74422D02*
X674837Y77687D01*
X675739Y78590D01*
X675907Y78842D01*
X675962Y79141D01*
X675897Y79437D01*
X675853Y79502D01*
X675853Y86766D01*
X676745Y87659D01*
X680485Y87659D01*
X680782Y87719D01*
X681032Y87891D01*
X681195Y88146D01*
X681246Y88442D01*
X681132Y92580D01*
X681063Y92876D01*
X680909Y93098D01*
X667296Y106711D01*
X667043Y106878D01*
X666757Y106934D01*
X657043Y106934D01*
X656746Y106874D01*
X656505Y106711D01*
X653708Y103914D01*
X649312Y103914D01*
X646204Y107022D01*
X646204Y111418D01*
X649001Y114215D01*
X649168Y114467D01*
X649224Y114753D01*
X649224Y160967D01*
X676941Y188684D01*
X677108Y188937D01*
X677164Y189223D01*
X677164Y211637D01*
X677104Y211934D01*
X676941Y212175D01*
X674455Y214661D01*
X674203Y214828D01*
X673917Y214884D01*
X635323Y214884D01*
X623824Y226383D01*
X623824Y421317D01*
X634837Y432330D01*
X641681Y432330D01*
X641978Y432390D01*
X642219Y432553D01*
X642375Y432709D01*
X642542Y432961D01*
X642598Y433247D01*
X642598Y440068D01*
X642538Y440365D01*
X642366Y440615D01*
X642111Y440778D01*
X641836Y440830D01*
X641732Y440830D01*
X640839Y441722D01*
X640839Y470138D01*
X641732Y471031D01*
X641836Y471031D01*
X642133Y471091D01*
X642383Y471262D01*
X642547Y471518D01*
X642598Y471793D01*
X642598Y479438D01*
X642538Y479735D01*
X642366Y479985D01*
X642111Y480148D01*
X641836Y480200D01*
X641732Y480200D01*
X640839Y481092D01*
X640839Y509508D01*
X641732Y510401D01*
X654640Y510401D01*
X655533Y509508D01*
X655533Y481092D01*
X654640Y480200D01*
X654536Y480200D01*
X654239Y480139D01*
X653989Y479968D01*
X653825Y479712D01*
X653774Y479438D01*
X653774Y471793D01*
X653834Y471495D01*
X654006Y471245D01*
X654261Y471082D01*
X654536Y471031D01*
X654640Y471031D01*
X655533Y470138D01*
X655533Y441722D01*
X654640Y440830D01*
X654536Y440830D01*
X654239Y440769D01*
X653989Y440598D01*
X653825Y440342D01*
X653774Y440068D01*
X653774Y420993D01*
X653834Y420695D01*
X654006Y420445D01*
X654261Y420282D01*
X654536Y420231D01*
X654640Y420231D01*
X655533Y419338D01*
X655533Y390922D01*
X654640Y390030D01*
X641732Y390030D01*
X640839Y390922D01*
X640839Y419338D01*
X641732Y420231D01*
X641836Y420231D01*
X642133Y420291D01*
X642383Y420462D01*
X642547Y420718D01*
X642598Y420993D01*
X642598Y426996D01*
X642538Y427293D01*
X642366Y427543D01*
X642111Y427707D01*
X641836Y427758D01*
X637047Y427758D01*
X636749Y427698D01*
X636508Y427535D01*
X628619Y419646D01*
X628452Y419393D01*
X628396Y419107D01*
X628396Y228593D01*
X628456Y228295D01*
X628619Y228054D01*
X636994Y219679D01*
X637247Y219512D01*
X637533Y219456D01*
X673917Y219456D01*
X674214Y219516D01*
X674455Y219679D01*
X677252Y222476D01*
X681648Y222476D01*
X684445Y219679D01*
X684697Y219512D01*
X684983Y219456D01*
X685447Y219456D01*
X685744Y219516D01*
X685994Y219688D01*
X686158Y219943D01*
X686209Y220218D01*
X686209Y225128D01*
X687102Y226021D01*
X700010Y226021D01*
X700903Y225128D01*
X700903Y209212D01*
X700010Y208320D01*
X687102Y208320D01*
X686209Y209212D01*
X686209Y214122D01*
X686149Y214419D01*
X685977Y214669D01*
X685722Y214833D01*
X685447Y214884D01*
X684983Y214884D01*
X684686Y214824D01*
X684445Y214661D01*
X681959Y212175D01*
X681792Y211923D01*
X681736Y211637D01*
X681736Y187013D01*
X654019Y159296D01*
X653852Y159043D01*
X653796Y158757D01*
X653796Y114753D01*
X653856Y114456D01*
X654019Y114215D01*
X656505Y111729D01*
X656757Y111562D01*
X657043Y111506D01*
X668967Y111506D01*
X684970Y95503D01*
X684986Y95488D01*
X685670Y94841D01*
X685670Y93898D01*
X685670Y93877D01*
X685821Y88400D01*
X685890Y88105D01*
X686068Y87859D01*
X686328Y87703D01*
X686583Y87659D01*
X690613Y87659D01*
X691506Y86766D01*
X691506Y79496D01*
X691452Y79414D01*
X691396Y79116D01*
X691461Y78820D01*
X691619Y78590D01*
X692522Y77687D01*
X692522Y74422D01*
X674837Y74422D01*
G37*
G36*
X678456Y479184D02*
X678456Y494538D01*
X686057Y494538D01*
X686057Y480671D01*
X684569Y479184D01*
X678456Y479184D01*
G37*
G36*
X670819Y479184D02*
X669331Y480671D01*
X669331Y494538D01*
X676932Y494538D01*
X676932Y479184D01*
X670819Y479184D01*
G37*
G36*
X886185Y466762D02*
X886185Y468668D01*
X888227Y473599D01*
X892001Y477373D01*
X896932Y479415D01*
X898838Y479415D01*
X898838Y466762D01*
X886185Y466762D01*
G37*
G36*
X900362Y466762D02*
X900362Y479415D01*
X902268Y479415D01*
X907199Y477373D01*
X910973Y473599D01*
X913015Y468668D01*
X913015Y466762D01*
X900362Y466762D01*
G37*
G36*
X952134Y453601D02*
X947577Y455489D01*
X944089Y458977D01*
X942201Y463534D01*
X942201Y468466D01*
X944089Y473023D01*
X947577Y476511D01*
X952134Y478399D01*
X957066Y478399D01*
X961623Y476511D01*
X965111Y473023D01*
X966999Y468466D01*
X966999Y463534D01*
X965111Y458977D01*
X961623Y455489D01*
X957066Y453601D01*
X952134Y453601D01*
G37*
G36*
X669331Y456692D02*
X669331Y470559D01*
X670819Y472047D01*
X676932Y472047D01*
X676932Y456692D01*
X669331Y456692D01*
G37*
G36*
X678456Y456692D02*
X678456Y472047D01*
X684569Y472047D01*
X686057Y470559D01*
X686057Y456692D01*
X678456Y456692D01*
G37*
G36*
X896932Y452585D02*
X892001Y454627D01*
X888227Y458401D01*
X886185Y463332D01*
X886185Y465238D01*
X898838Y465238D01*
X898838Y452585D01*
X896932Y452585D01*
G37*
G36*
X900362Y452585D02*
X900362Y465238D01*
X913015Y465238D01*
X913015Y463332D01*
X910973Y458401D01*
X907199Y454627D01*
X902268Y452585D01*
X900362Y452585D01*
G37*
G36*
X594702Y323624D02*
X591594Y326732D01*
X591594Y331128D01*
X594583Y334117D01*
X594751Y334370D01*
X594806Y334656D01*
X594806Y343985D01*
X594746Y344282D01*
X594583Y344524D01*
X488226Y450881D01*
X487973Y451048D01*
X487687Y451104D01*
X469083Y451104D01*
X468786Y451044D01*
X468545Y450881D01*
X465748Y448084D01*
X461352Y448084D01*
X458244Y451192D01*
X458244Y455588D01*
X461352Y458696D01*
X465748Y458696D01*
X468545Y455899D01*
X468797Y455732D01*
X469083Y455676D01*
X489897Y455676D01*
X599378Y346195D01*
X599378Y334271D01*
X599439Y333974D01*
X599602Y333732D01*
X602206Y331128D01*
X602206Y326732D01*
X599098Y323624D01*
X594702Y323624D01*
G37*
G36*
X670819Y439814D02*
X669331Y441301D01*
X669331Y455168D01*
X676932Y455168D01*
X676932Y439814D01*
X670819Y439814D01*
G37*
G36*
X678456Y439814D02*
X678456Y455168D01*
X686057Y455168D01*
X686057Y441301D01*
X684569Y439814D01*
X678456Y439814D01*
G37*
G36*
X900888Y393840D02*
X894489Y395555D01*
X888751Y398867D01*
X884067Y403551D01*
X880755Y409289D01*
X879040Y415688D01*
X879040Y422312D01*
X880755Y428711D01*
X884067Y434449D01*
X888751Y439133D01*
X894489Y442445D01*
X900888Y444160D01*
X907512Y444160D01*
X913911Y442445D01*
X919649Y439133D01*
X924333Y434449D01*
X927645Y428711D01*
X929360Y422312D01*
X929360Y415688D01*
X927645Y409289D01*
X924333Y403551D01*
X919649Y398867D01*
X913911Y395555D01*
X907512Y393840D01*
X900888Y393840D01*
G37*
G36*
X750964Y432076D02*
X750964Y438189D01*
X752451Y439677D01*
X766318Y439677D01*
X766318Y432076D01*
X750964Y432076D01*
G37*
G36*
X767842Y432076D02*
X767842Y439677D01*
X781709Y439677D01*
X783197Y438189D01*
X783197Y432076D01*
X767842Y432076D01*
G37*
G36*
X94322Y396014D02*
X91214Y399122D01*
X91214Y403518D01*
X94322Y406626D01*
X98277Y406626D01*
X98575Y406686D01*
X98816Y406849D01*
X102976Y411009D01*
X103143Y411262D01*
X103199Y411560D01*
X103134Y411856D01*
X102958Y412103D01*
X102700Y412263D01*
X102437Y412310D01*
X100712Y412310D01*
X99819Y413202D01*
X99819Y432618D01*
X100712Y433511D01*
X113620Y433511D01*
X114513Y432618D01*
X114513Y413202D01*
X113620Y412310D01*
X110214Y412310D01*
X109917Y412249D01*
X109667Y412078D01*
X109503Y411822D01*
X109452Y411548D01*
X109452Y411019D01*
X102049Y403616D01*
X101882Y403363D01*
X101826Y403077D01*
X101826Y399122D01*
X98718Y396014D01*
X94322Y396014D01*
G37*
G36*
X752451Y422951D02*
X750964Y424439D01*
X750964Y430552D01*
X766318Y430552D01*
X766318Y422951D01*
X752451Y422951D01*
G37*
G36*
X767842Y422951D02*
X767842Y430552D01*
X783197Y430552D01*
X783197Y424439D01*
X781709Y422951D01*
X767842Y422951D01*
G37*
G36*
X272460Y385640D02*
X271567Y386532D01*
X271567Y405948D01*
X272460Y406841D01*
X275866Y406841D01*
X276163Y406901D01*
X276413Y407072D01*
X276577Y407328D01*
X276628Y407603D01*
X276628Y410703D01*
X276568Y411001D01*
X276405Y411242D01*
X270266Y417381D01*
X270013Y417548D01*
X269727Y417604D01*
X265772Y417604D01*
X262664Y420712D01*
X262664Y425108D01*
X265772Y428216D01*
X270168Y428216D01*
X273276Y425108D01*
X273276Y421153D01*
X273336Y420855D01*
X273499Y420614D01*
X281200Y412913D01*
X281200Y407603D01*
X281260Y407305D01*
X281432Y407055D01*
X281687Y406892D01*
X281962Y406841D01*
X285368Y406841D01*
X286261Y405948D01*
X286261Y386532D01*
X285368Y385640D01*
X272460Y385640D01*
G37*
G36*
X678456Y405892D02*
X678456Y421247D01*
X684569Y421247D01*
X686057Y419759D01*
X686057Y405892D01*
X678456Y405892D01*
G37*
G36*
X669331Y405892D02*
X669331Y419759D01*
X670819Y421247D01*
X676932Y421247D01*
X676932Y405892D01*
X669331Y405892D01*
G37*
G36*
X752872Y376977D02*
X752120Y377729D01*
X751868Y377896D01*
X751582Y377952D01*
X744378Y377952D01*
X743838Y378176D01*
X743546Y378234D01*
X743292Y378234D01*
X743113Y378414D01*
X742865Y378579D01*
X742325Y378803D01*
X740753Y380375D01*
X740529Y380915D01*
X740364Y381163D01*
X740184Y381342D01*
X740184Y381596D01*
X740126Y381888D01*
X739902Y382428D01*
X739902Y384652D01*
X740126Y385192D01*
X740184Y385484D01*
X740184Y385738D01*
X740364Y385917D01*
X740529Y386165D01*
X740753Y386705D01*
X742325Y388277D01*
X742865Y388501D01*
X743113Y388667D01*
X743292Y388846D01*
X743546Y388846D01*
X743838Y388904D01*
X744378Y389128D01*
X751218Y389128D01*
X751515Y389188D01*
X751765Y389360D01*
X751928Y389615D01*
X751980Y389890D01*
X751980Y390778D01*
X752872Y391671D01*
X760730Y391671D01*
X761027Y391731D01*
X761277Y391903D01*
X761441Y392158D01*
X761492Y392433D01*
X761492Y393697D01*
X761432Y393994D01*
X761260Y394244D01*
X761005Y394408D01*
X760730Y394459D01*
X752872Y394459D01*
X751980Y395352D01*
X751980Y408260D01*
X752872Y409153D01*
X781288Y409153D01*
X782181Y408260D01*
X782181Y395352D01*
X781288Y394459D01*
X773430Y394459D01*
X773133Y394399D01*
X772883Y394227D01*
X772719Y393972D01*
X772668Y393697D01*
X772668Y392433D01*
X772728Y392136D01*
X772900Y391886D01*
X773155Y391722D01*
X773430Y391671D01*
X781288Y391671D01*
X782181Y390778D01*
X782181Y377870D01*
X781288Y376977D01*
X752872Y376977D01*
G37*
G36*
X670819Y389014D02*
X669331Y390501D01*
X669331Y404368D01*
X676932Y404368D01*
X676932Y389014D01*
X670819Y389014D01*
G37*
G36*
X678456Y389014D02*
X678456Y404368D01*
X686057Y404368D01*
X686057Y390501D01*
X684569Y389014D01*
X678456Y389014D01*
G37*
G36*
X211162Y237264D02*
X208054Y240372D01*
X208054Y244768D01*
X210851Y247565D01*
X211018Y247817D01*
X211074Y248103D01*
X211074Y373387D01*
X211014Y373685D01*
X210851Y373926D01*
X206766Y378011D01*
X206513Y378178D01*
X206227Y378234D01*
X202272Y378234D01*
X199164Y381342D01*
X199164Y385738D01*
X202272Y388846D01*
X206668Y388846D01*
X209776Y385738D01*
X209776Y381783D01*
X209836Y381485D01*
X209999Y381244D01*
X215646Y375597D01*
X215646Y248103D01*
X215706Y247806D01*
X215869Y247565D01*
X218666Y244768D01*
X218666Y240372D01*
X215558Y237264D01*
X211162Y237264D01*
G37*
G36*
X120190Y357632D02*
X120190Y358477D01*
X121420Y361447D01*
X123693Y363720D01*
X126663Y364950D01*
X127508Y364950D01*
X127508Y357632D01*
X120190Y357632D01*
G37*
G36*
X129032Y348790D02*
X129032Y364950D01*
X129877Y364950D01*
X132847Y363720D01*
X134800Y361767D01*
X135052Y361600D01*
X135351Y361544D01*
X135647Y361609D01*
X135877Y361767D01*
X136969Y362859D01*
X139565Y363934D01*
X142375Y363934D01*
X144971Y362859D01*
X146781Y361049D01*
X147034Y360881D01*
X147332Y360826D01*
X147628Y360891D01*
X147859Y361049D01*
X149669Y362859D01*
X152265Y363934D01*
X155075Y363934D01*
X157671Y362859D01*
X159659Y360871D01*
X160734Y358275D01*
X160734Y355465D01*
X159659Y352869D01*
X157671Y350881D01*
X155075Y349806D01*
X152265Y349806D01*
X149669Y350881D01*
X147859Y352691D01*
X147606Y352859D01*
X147308Y352914D01*
X147012Y352849D01*
X146781Y352691D01*
X144971Y350881D01*
X142375Y349806D01*
X139565Y349806D01*
X136969Y350881D01*
X135877Y351973D01*
X135624Y352140D01*
X135326Y352196D01*
X135030Y352131D01*
X134800Y351973D01*
X132847Y350020D01*
X129877Y348790D01*
X129032Y348790D01*
G37*
G36*
X750964Y355578D02*
X750964Y361691D01*
X752451Y363179D01*
X766318Y363179D01*
X766318Y355578D01*
X750964Y355578D01*
G37*
G36*
X767842Y355578D02*
X767842Y363179D01*
X781709Y363179D01*
X783197Y361691D01*
X783197Y355578D01*
X767842Y355578D01*
G37*
G36*
X126663Y348790D02*
X123693Y350020D01*
X121420Y352293D01*
X120190Y355263D01*
X120190Y356108D01*
X127508Y356108D01*
X127508Y348790D01*
X126663Y348790D01*
G37*
G36*
X752451Y346453D02*
X750964Y347941D01*
X750964Y354054D01*
X766318Y354054D01*
X766318Y346453D01*
X752451Y346453D01*
G37*
G36*
X767842Y346453D02*
X767842Y354054D01*
X783197Y354054D01*
X783197Y347941D01*
X781709Y346453D01*
X767842Y346453D01*
G37*
G36*
X516729Y261940D02*
X509059Y263995D01*
X502181Y267966D01*
X496566Y273581D01*
X492595Y280459D01*
X490540Y288129D01*
X490540Y296071D01*
X492595Y303741D01*
X496566Y310619D01*
X502181Y316234D01*
X509059Y320205D01*
X516729Y322260D01*
X524671Y322260D01*
X532341Y320205D01*
X539219Y316234D01*
X544834Y310619D01*
X548805Y303741D01*
X550860Y296071D01*
X550860Y288129D01*
X548805Y280459D01*
X544834Y273581D01*
X539219Y267966D01*
X532341Y263995D01*
X524671Y261940D01*
X516729Y261940D01*
G37*
G36*
X645502Y294414D02*
X642394Y297522D01*
X642394Y301918D01*
X645502Y305026D01*
X649898Y305026D01*
X652695Y302229D01*
X652947Y302062D01*
X653233Y302006D01*
X919762Y302006D01*
X920059Y302066D01*
X920309Y302238D01*
X920473Y302493D01*
X920524Y302768D01*
X920524Y304458D01*
X923632Y307566D01*
X928028Y307566D01*
X931136Y304458D01*
X931136Y300062D01*
X928028Y296954D01*
X923632Y296954D01*
X923375Y297211D01*
X923123Y297378D01*
X922837Y297434D01*
X653233Y297434D01*
X652936Y297374D01*
X652695Y297211D01*
X649898Y294414D01*
X645502Y294414D01*
G37*
G36*
X118872Y291106D02*
X118872Y298707D01*
X132739Y298707D01*
X134227Y297219D01*
X134227Y291106D01*
X118872Y291106D01*
G37*
G36*
X162052Y291106D02*
X162052Y298707D01*
X175919Y298707D01*
X177407Y297219D01*
X177407Y291106D01*
X162052Y291106D01*
G37*
G36*
X145174Y291106D02*
X145174Y297219D01*
X146661Y298707D01*
X160528Y298707D01*
X160528Y291106D01*
X145174Y291106D01*
G37*
G36*
X101994Y291106D02*
X101994Y297219D01*
X103481Y298707D01*
X117348Y298707D01*
X117348Y291106D01*
X101994Y291106D01*
G37*
G36*
X118872Y281981D02*
X118872Y289582D01*
X134227Y289582D01*
X134227Y283469D01*
X132739Y281981D01*
X118872Y281981D01*
G37*
G36*
X162052Y281981D02*
X162052Y289582D01*
X177407Y289582D01*
X177407Y283469D01*
X175919Y281981D01*
X162052Y281981D01*
G37*
G36*
X146661Y281981D02*
X145174Y283469D01*
X145174Y289582D01*
X160528Y289582D01*
X160528Y281981D01*
X146661Y281981D01*
G37*
G36*
X103481Y281981D02*
X101994Y283469D01*
X101994Y289582D01*
X117348Y289582D01*
X117348Y281981D01*
X103481Y281981D01*
G37*
G36*
X192112Y220754D02*
X189004Y223862D01*
X189004Y227458D01*
X188944Y227756D01*
X188781Y227997D01*
X186690Y230088D01*
X186690Y255071D01*
X186630Y255368D01*
X186467Y255609D01*
X184235Y257841D01*
X183983Y258008D01*
X183697Y258064D01*
X177153Y258064D01*
X176855Y258004D01*
X176605Y257832D01*
X176442Y257577D01*
X176391Y257302D01*
X176391Y254382D01*
X175498Y253489D01*
X147082Y253489D01*
X146190Y254382D01*
X146190Y257788D01*
X146129Y258085D01*
X145958Y258335D01*
X145702Y258499D01*
X145428Y258550D01*
X133973Y258550D01*
X133675Y258490D01*
X133425Y258318D01*
X133262Y258063D01*
X133211Y257788D01*
X133211Y254382D01*
X132318Y253489D01*
X103902Y253489D01*
X103010Y254382D01*
X103010Y267290D01*
X103902Y268183D01*
X132318Y268183D01*
X133211Y267290D01*
X133211Y263884D01*
X133271Y263587D01*
X133442Y263337D01*
X133698Y263173D01*
X133973Y263122D01*
X145428Y263122D01*
X145725Y263182D01*
X145975Y263354D01*
X146138Y263609D01*
X146190Y263884D01*
X146190Y267290D01*
X147082Y268183D01*
X175498Y268183D01*
X176391Y267290D01*
X176391Y263398D01*
X176451Y263101D01*
X176622Y262851D01*
X176878Y262687D01*
X177153Y262636D01*
X183697Y262636D01*
X183994Y262696D01*
X184235Y262859D01*
X187032Y265656D01*
X191428Y265656D01*
X194536Y262548D01*
X194536Y258152D01*
X191993Y255609D01*
X191826Y255357D01*
X191770Y255071D01*
X191770Y232508D01*
X191830Y232211D01*
X191993Y231969D01*
X192373Y231589D01*
X192626Y231422D01*
X192912Y231366D01*
X196508Y231366D01*
X199616Y228258D01*
X199616Y223862D01*
X196508Y220754D01*
X192112Y220754D01*
G37*
G36*
X439308Y233655D02*
X438415Y234548D01*
X438415Y237287D01*
X438355Y237584D01*
X438183Y237834D01*
X437928Y237998D01*
X437653Y238049D01*
X406418Y238049D01*
X395996Y248471D01*
X395743Y248638D01*
X395457Y248694D01*
X391502Y248694D01*
X388394Y251802D01*
X388394Y256198D01*
X391502Y259306D01*
X395898Y259306D01*
X399006Y256198D01*
X399006Y252243D01*
X399066Y251945D01*
X399229Y251704D01*
X408089Y242844D01*
X408342Y242677D01*
X408628Y242621D01*
X437653Y242621D01*
X437950Y242681D01*
X438200Y242853D01*
X438364Y243108D01*
X438415Y243383D01*
X438415Y246122D01*
X439308Y247015D01*
X454772Y247015D01*
X455665Y246122D01*
X455665Y234548D01*
X454772Y233655D01*
X439308Y233655D01*
G37*
G36*
X742240Y219202D02*
X742240Y220097D01*
X743508Y223159D01*
X745851Y225502D01*
X746080Y225596D01*
X746331Y225766D01*
X746497Y226020D01*
X746550Y226319D01*
X746483Y226614D01*
X746327Y226839D01*
X744370Y228797D01*
X743256Y231485D01*
X743256Y234395D01*
X744370Y237083D01*
X746427Y239141D01*
X749115Y240254D01*
X752025Y240254D01*
X754713Y239141D01*
X756771Y237083D01*
X757884Y234395D01*
X757884Y231485D01*
X756771Y228797D01*
X754813Y226839D01*
X754645Y226586D01*
X754590Y226288D01*
X754655Y225992D01*
X754830Y225745D01*
X755060Y225596D01*
X755289Y225502D01*
X757632Y223159D01*
X758900Y220097D01*
X758900Y219202D01*
X742240Y219202D01*
G37*
G36*
X485017Y128524D02*
X484124Y129417D01*
X484124Y136652D01*
X484064Y136949D01*
X483892Y137199D01*
X483637Y137363D01*
X483362Y137414D01*
X456253Y137414D01*
X437270Y156397D01*
X437270Y164378D01*
X437210Y164675D01*
X437038Y164925D01*
X436783Y165088D01*
X436508Y165140D01*
X433102Y165140D01*
X432209Y166032D01*
X432209Y181948D01*
X433102Y182841D01*
X436508Y182841D01*
X436805Y182901D01*
X437055Y183072D01*
X437219Y183328D01*
X437270Y183603D01*
X437270Y187463D01*
X437210Y187760D01*
X437038Y188010D01*
X436783Y188174D01*
X436508Y188225D01*
X433328Y188225D01*
X432435Y189118D01*
X432435Y204582D01*
X433328Y205475D01*
X436067Y205475D01*
X436364Y205535D01*
X436614Y205707D01*
X436778Y205962D01*
X436829Y206237D01*
X436829Y214967D01*
X438192Y216330D01*
X438359Y216583D01*
X438415Y216869D01*
X438415Y227732D01*
X439308Y228625D01*
X454772Y228625D01*
X455665Y227732D01*
X455665Y216158D01*
X454772Y215265D01*
X443909Y215265D01*
X443611Y215205D01*
X443370Y215042D01*
X441624Y213296D01*
X441457Y213043D01*
X441401Y212757D01*
X441401Y206237D01*
X441461Y205940D01*
X441633Y205690D01*
X441888Y205526D01*
X442163Y205475D01*
X444902Y205475D01*
X445795Y204582D01*
X445795Y189118D01*
X444902Y188225D01*
X442604Y188225D01*
X442307Y188165D01*
X442057Y187993D01*
X441893Y187738D01*
X441842Y187463D01*
X441842Y183603D01*
X441902Y183305D01*
X442074Y183055D01*
X442329Y182892D01*
X442604Y182841D01*
X446010Y182841D01*
X446903Y181948D01*
X446903Y166032D01*
X446010Y165140D01*
X442604Y165140D01*
X442307Y165079D01*
X442057Y164908D01*
X441893Y164652D01*
X441842Y164378D01*
X441842Y158607D01*
X441902Y158309D01*
X442065Y158068D01*
X457924Y142209D01*
X458177Y142042D01*
X458463Y141986D01*
X483362Y141986D01*
X483659Y142046D01*
X483909Y142218D01*
X484073Y142473D01*
X484124Y142748D01*
X484124Y149983D01*
X485017Y150876D01*
X505583Y150876D01*
X506476Y149983D01*
X506476Y129417D01*
X505583Y128524D01*
X485017Y128524D01*
G37*
G36*
X702701Y217932D02*
X702701Y225549D01*
X704189Y227037D01*
X710302Y227037D01*
X710302Y217932D01*
X702701Y217932D01*
G37*
G36*
X711826Y217932D02*
X711826Y227037D01*
X717939Y227037D01*
X719427Y225549D01*
X719427Y217932D01*
X711826Y217932D01*
G37*
G36*
X789178Y215392D02*
X789178Y216803D01*
X790841Y220817D01*
X793913Y223889D01*
X797927Y225552D01*
X799338Y225552D01*
X799338Y215392D01*
X789178Y215392D01*
G37*
G36*
X800862Y215392D02*
X800862Y225552D01*
X802273Y225552D01*
X806287Y223889D01*
X809359Y220817D01*
X811022Y216803D01*
X811022Y215392D01*
X800862Y215392D01*
G37*
G36*
X798130Y179324D02*
X794489Y180832D01*
X791702Y183619D01*
X790520Y186474D01*
X790350Y186725D01*
X790096Y186891D01*
X789816Y186944D01*
X764333Y186944D01*
X754874Y196403D01*
X754621Y196570D01*
X754335Y196626D01*
X744149Y196626D01*
X743256Y197519D01*
X743256Y210361D01*
X744152Y211257D01*
X744433Y211314D01*
X744683Y211486D01*
X744847Y211741D01*
X744898Y212040D01*
X744828Y212335D01*
X744675Y212555D01*
X743508Y213721D01*
X742240Y216783D01*
X742240Y217678D01*
X758900Y217678D01*
X758900Y216783D01*
X757632Y213721D01*
X756465Y212555D01*
X756298Y212302D01*
X756242Y212004D01*
X756307Y211708D01*
X756483Y211460D01*
X756741Y211301D01*
X756989Y211257D01*
X757884Y210361D01*
X757884Y200175D01*
X757944Y199877D01*
X758107Y199636D01*
X766004Y191739D01*
X766257Y191572D01*
X766543Y191516D01*
X789816Y191516D01*
X790113Y191576D01*
X790363Y191748D01*
X790520Y191986D01*
X791702Y194841D01*
X794489Y197628D01*
X798130Y199136D01*
X802070Y199136D01*
X805711Y197628D01*
X808498Y194841D01*
X810006Y191200D01*
X810006Y187260D01*
X808498Y183619D01*
X805711Y180832D01*
X802070Y179324D01*
X798130Y179324D01*
G37*
G36*
X711826Y207304D02*
X711826Y216408D01*
X719427Y216408D01*
X719427Y208791D01*
X717939Y207304D01*
X711826Y207304D01*
G37*
G36*
X704189Y207304D02*
X702701Y208791D01*
X702701Y216408D01*
X710302Y216408D01*
X710302Y207304D01*
X704189Y207304D01*
G37*
G36*
X800862Y203708D02*
X800862Y213868D01*
X811022Y213868D01*
X811022Y212457D01*
X809359Y208443D01*
X806287Y205371D01*
X802273Y203708D01*
X800862Y203708D01*
G37*
G36*
X797927Y203708D02*
X793913Y205371D01*
X790841Y208443D01*
X789178Y212457D01*
X789178Y213868D01*
X799338Y213868D01*
X799338Y203708D01*
X797927Y203708D01*
G37*
G36*
X449809Y197612D02*
X449809Y205003D01*
X451297Y206491D01*
X456743Y206491D01*
X456743Y197612D01*
X449809Y197612D01*
G37*
G36*
X458267Y197612D02*
X458267Y206491D01*
X463713Y206491D01*
X465201Y205003D01*
X465201Y197612D01*
X458267Y197612D01*
G37*
G36*
X458267Y187209D02*
X458267Y196088D01*
X465201Y196088D01*
X465201Y188697D01*
X463713Y187209D01*
X458267Y187209D01*
G37*
G36*
X451297Y187209D02*
X449809Y188697D01*
X449809Y196088D01*
X456743Y196088D01*
X456743Y187209D01*
X451297Y187209D01*
G37*
G36*
X448701Y174752D02*
X448701Y182369D01*
X450189Y183857D01*
X456302Y183857D01*
X456302Y174752D01*
X448701Y174752D01*
G37*
G36*
X457826Y174752D02*
X457826Y183857D01*
X463939Y183857D01*
X465427Y182369D01*
X465427Y174752D01*
X457826Y174752D01*
G37*
G36*
X791087Y153924D02*
X790194Y154817D01*
X790194Y172843D01*
X791087Y173736D01*
X809113Y173736D01*
X810006Y172843D01*
X810006Y154817D01*
X809113Y153924D01*
X791087Y153924D01*
G37*
G36*
X457826Y164124D02*
X457826Y173228D01*
X465427Y173228D01*
X465427Y165611D01*
X463939Y164124D01*
X457826Y164124D01*
G37*
G36*
X450189Y164124D02*
X448701Y165611D01*
X448701Y173228D01*
X456302Y173228D01*
X456302Y164124D01*
X450189Y164124D01*
G37*
G36*
X533908Y140462D02*
X533908Y142125D01*
X535764Y146606D01*
X539194Y150036D01*
X543675Y151892D01*
X545338Y151892D01*
X545338Y140462D01*
X533908Y140462D01*
G37*
G36*
X546862Y140462D02*
X546862Y151892D01*
X548525Y151892D01*
X553006Y150036D01*
X556436Y146606D01*
X558292Y142125D01*
X558292Y140462D01*
X546862Y140462D01*
G37*
G36*
X518477Y128524D02*
X514369Y130225D01*
X511225Y133369D01*
X509524Y137477D01*
X509524Y141923D01*
X511225Y146031D01*
X514369Y149175D01*
X518477Y150876D01*
X522923Y150876D01*
X527031Y149175D01*
X530175Y146031D01*
X531876Y141923D01*
X531876Y137477D01*
X530175Y133369D01*
X527031Y130225D01*
X522923Y128524D01*
X518477Y128524D01*
G37*
G36*
X546862Y127508D02*
X546862Y138938D01*
X558292Y138938D01*
X558292Y137275D01*
X556436Y132794D01*
X553006Y129364D01*
X548525Y127508D01*
X546862Y127508D01*
G37*
G36*
X543675Y127508D02*
X539194Y129364D01*
X535764Y132794D01*
X533908Y137275D01*
X533908Y138938D01*
X545338Y138938D01*
X545338Y127508D01*
X543675Y127508D01*
G37*
G36*
X289902Y83594D02*
X287105Y86391D01*
X286853Y86558D01*
X286567Y86614D01*
X279723Y86614D01*
X244866Y121471D01*
X244613Y121638D01*
X244327Y121694D01*
X240372Y121694D01*
X237264Y124802D01*
X237264Y129198D01*
X240372Y132306D01*
X244768Y132306D01*
X247876Y129198D01*
X247876Y125243D01*
X247936Y124945D01*
X248099Y124704D01*
X281394Y91409D01*
X281647Y91242D01*
X281933Y91186D01*
X286567Y91186D01*
X286864Y91246D01*
X287105Y91409D01*
X289902Y94206D01*
X294298Y94206D01*
X297406Y91098D01*
X297406Y86702D01*
X294298Y83594D01*
X289902Y83594D01*
G37*
G36*
X564388Y61240D02*
X557989Y62955D01*
X552251Y66267D01*
X547567Y70951D01*
X544255Y76689D01*
X542540Y83088D01*
X542540Y89712D01*
X544255Y96111D01*
X547567Y101849D01*
X552251Y106533D01*
X557989Y109845D01*
X564388Y111560D01*
X571012Y111560D01*
X577411Y109845D01*
X583149Y106533D01*
X587833Y101849D01*
X591145Y96111D01*
X592860Y89712D01*
X592860Y83088D01*
X591145Y76689D01*
X587833Y70951D01*
X583149Y66267D01*
X577411Y62955D01*
X571012Y61240D01*
X564388Y61240D01*
G37*
G36*
X470388Y61240D02*
X463989Y62955D01*
X458251Y66267D01*
X453567Y70951D01*
X450255Y76689D01*
X448540Y83088D01*
X448540Y89712D01*
X450255Y96111D01*
X453567Y101849D01*
X458251Y106533D01*
X463989Y109845D01*
X470388Y111560D01*
X477012Y111560D01*
X483411Y109845D01*
X489149Y106533D01*
X493833Y101849D01*
X497145Y96111D01*
X498860Y89712D01*
X498860Y83088D01*
X497145Y76689D01*
X493833Y70951D01*
X489149Y66267D01*
X483411Y62955D01*
X477012Y61240D01*
X470388Y61240D01*
G37*
G36*
X699399Y74422D02*
X699399Y77687D01*
X700301Y78590D01*
X700469Y78842D01*
X700524Y79141D01*
X700459Y79437D01*
X700415Y79502D01*
X700415Y86766D01*
X701307Y87659D01*
X705055Y87659D01*
X705353Y87719D01*
X705603Y87891D01*
X705766Y88146D01*
X705817Y88441D01*
X705692Y93260D01*
X705660Y93401D01*
X705660Y94496D01*
X705659Y94516D01*
X705635Y95458D01*
X706301Y96124D01*
X706315Y96138D01*
X707059Y96922D01*
X707189Y97012D01*
X708211Y98034D01*
X708378Y98287D01*
X708434Y98573D01*
X708434Y102528D01*
X711542Y105636D01*
X715938Y105636D01*
X719046Y102528D01*
X719046Y98132D01*
X715938Y95024D01*
X711983Y95024D01*
X711685Y94964D01*
X711444Y94801D01*
X710488Y93845D01*
X710320Y93592D01*
X710265Y93286D01*
X710392Y88401D01*
X710460Y88106D01*
X710638Y87860D01*
X710897Y87703D01*
X711153Y87659D01*
X715175Y87659D01*
X716068Y86766D01*
X716068Y79496D01*
X716014Y79414D01*
X715958Y79116D01*
X716023Y78820D01*
X716181Y78590D01*
X717084Y77687D01*
X717084Y74422D01*
X699399Y74422D01*
G37*
G36*
X509569Y78976D02*
X508676Y79869D01*
X508676Y102131D01*
X509569Y103024D01*
X531831Y103024D01*
X532724Y102131D01*
X532724Y79869D01*
X531831Y78976D01*
X509569Y78976D01*
G37*
G36*
X391502Y83594D02*
X388394Y86702D01*
X388394Y91098D01*
X391502Y94206D01*
X395898Y94206D01*
X398695Y91409D01*
X398947Y91242D01*
X399233Y91186D01*
X413567Y91186D01*
X413864Y91246D01*
X414105Y91409D01*
X416902Y94206D01*
X421298Y94206D01*
X424406Y91098D01*
X424406Y86702D01*
X421298Y83594D01*
X416902Y83594D01*
X414105Y86391D01*
X413853Y86558D01*
X413567Y86614D01*
X399233Y86614D01*
X398936Y86554D01*
X398695Y86391D01*
X395898Y83594D01*
X391502Y83594D01*
G37*
G36*
X613594Y51054D02*
X609020Y52949D01*
X605519Y56450D01*
X603624Y61024D01*
X603624Y65976D01*
X605519Y70550D01*
X609020Y74051D01*
X613594Y75946D01*
X618546Y75946D01*
X623120Y74051D01*
X626621Y70550D01*
X628189Y66764D01*
X628359Y66513D01*
X628613Y66347D01*
X628893Y66294D01*
X675091Y66294D01*
X675388Y66354D01*
X675638Y66526D01*
X675801Y66781D01*
X675853Y67056D01*
X675853Y67824D01*
X675907Y67906D01*
X675962Y68204D01*
X675897Y68500D01*
X675739Y68730D01*
X674837Y69633D01*
X674837Y72898D01*
X692522Y72898D01*
X692522Y69633D01*
X691619Y68730D01*
X691452Y68478D01*
X691396Y68179D01*
X691461Y67883D01*
X691506Y67818D01*
X691506Y60554D01*
X690613Y59661D01*
X676745Y59661D01*
X675923Y60483D01*
X675671Y60650D01*
X675385Y60706D01*
X628893Y60706D01*
X628596Y60646D01*
X628346Y60474D01*
X628189Y60236D01*
X626621Y56450D01*
X623120Y52949D01*
X618546Y51054D01*
X613594Y51054D01*
G37*
G36*
X831794Y51054D02*
X827220Y52949D01*
X823719Y56450D01*
X821877Y60896D01*
X821708Y61147D01*
X821454Y61313D01*
X821173Y61366D01*
X716830Y61366D01*
X716532Y61306D01*
X716282Y61134D01*
X716119Y60879D01*
X716068Y60604D01*
X716068Y60554D01*
X715175Y59661D01*
X701307Y59661D01*
X700415Y60554D01*
X700415Y67824D01*
X700469Y67906D01*
X700524Y68204D01*
X700459Y68500D01*
X700301Y68730D01*
X699399Y69633D01*
X699399Y72898D01*
X717084Y72898D01*
X717084Y69633D01*
X716181Y68730D01*
X716014Y68478D01*
X715958Y68179D01*
X716023Y67883D01*
X716068Y67818D01*
X716068Y67716D01*
X716128Y67419D01*
X716299Y67169D01*
X716555Y67005D01*
X716830Y66954D01*
X821720Y66954D01*
X822017Y67014D01*
X822267Y67186D01*
X822424Y67424D01*
X823719Y70550D01*
X827220Y74051D01*
X831794Y75946D01*
X836746Y75946D01*
X841320Y74051D01*
X844821Y70550D01*
X846716Y65976D01*
X846716Y61024D01*
X844821Y56450D01*
X841320Y52949D01*
X836746Y51054D01*
X831794Y51054D01*
G37*
G36*
X43966Y25012D02*
X35270Y28614D01*
X28614Y35270D01*
X25012Y43966D01*
X25012Y53378D01*
X28614Y62074D01*
X35270Y68730D01*
X43966Y72332D01*
X53378Y72332D01*
X62074Y68730D01*
X68730Y62074D01*
X72332Y53378D01*
X72332Y43966D01*
X68730Y35270D01*
X62074Y28614D01*
X53378Y25012D01*
X43966Y25012D01*
G37*
G36*
X946622Y25012D02*
X937926Y28614D01*
X931270Y35270D01*
X927668Y43966D01*
X927668Y53378D01*
X931270Y62074D01*
X937926Y68730D01*
X946622Y72332D01*
X956034Y72332D01*
X964730Y68730D01*
X971386Y62074D01*
X974988Y53378D01*
X974988Y43966D01*
X971386Y35270D01*
X964730Y28614D01*
X956034Y25012D01*
X946622Y25012D01*
G37*
G36*
X294640Y46482D02*
X294640Y55361D01*
X296187Y59095D01*
X299045Y61953D01*
X302779Y63500D01*
X304038Y63500D01*
X304038Y46482D01*
X294640Y46482D01*
G37*
G36*
X305562Y46482D02*
X305562Y63500D01*
X306821Y63500D01*
X310555Y61953D01*
X313413Y59095D01*
X314960Y55361D01*
X314960Y46482D01*
X305562Y46482D01*
G37*
G36*
X328381Y28956D02*
X325020Y30348D01*
X322448Y32920D01*
X321056Y36281D01*
X321056Y55159D01*
X322448Y58520D01*
X325020Y61092D01*
X328381Y62484D01*
X332019Y62484D01*
X335380Y61092D01*
X337952Y58520D01*
X339344Y55159D01*
X339344Y36281D01*
X337952Y32920D01*
X335380Y30348D01*
X332019Y28956D01*
X328381Y28956D01*
G37*
G36*
X404581Y28956D02*
X401220Y30348D01*
X398648Y32920D01*
X397256Y36281D01*
X397256Y55159D01*
X398648Y58520D01*
X401220Y61092D01*
X404581Y62484D01*
X408219Y62484D01*
X411580Y61092D01*
X414152Y58520D01*
X415544Y55159D01*
X415544Y36281D01*
X414152Y32920D01*
X411580Y30348D01*
X408219Y28956D01*
X404581Y28956D01*
G37*
G36*
X429981Y28956D02*
X426620Y30348D01*
X424048Y32920D01*
X422656Y36281D01*
X422656Y55159D01*
X424048Y58520D01*
X426620Y61092D01*
X429981Y62484D01*
X433619Y62484D01*
X436980Y61092D01*
X439552Y58520D01*
X440944Y55159D01*
X440944Y36281D01*
X439552Y32920D01*
X436980Y30348D01*
X433619Y28956D01*
X429981Y28956D01*
G37*
G36*
X509569Y23976D02*
X508676Y24869D01*
X508676Y47131D01*
X509569Y48024D01*
X531831Y48024D01*
X532724Y47131D01*
X532724Y24869D01*
X531831Y23976D01*
X509569Y23976D01*
G37*
G36*
X305562Y27940D02*
X305562Y44958D01*
X314960Y44958D01*
X314960Y36079D01*
X313413Y32345D01*
X310555Y29487D01*
X306821Y27940D01*
X305562Y27940D01*
G37*
G36*
X302779Y27940D02*
X299045Y29487D01*
X296187Y32345D01*
X294640Y36079D01*
X294640Y44958D01*
X304038Y44958D01*
X304038Y27940D01*
X302779Y27940D01*
G37*
%LPD*%
G36*
X714421Y360921D02*
X715421Y361607D01*
X716075Y362629D01*
X716280Y363728D01*
X716280Y390652D01*
X716039Y391841D01*
X715353Y392841D01*
X714331Y393495D01*
X713232Y393700D01*
X693928Y393700D01*
X692739Y393459D01*
X691739Y392773D01*
X691085Y391751D01*
X690880Y390652D01*
X690880Y363728D01*
X691121Y362539D01*
X691807Y361539D01*
X692829Y360885D01*
X693928Y360680D01*
X713232Y360680D01*
X714421Y360921D01*
G37*
D10*
X767080Y384324D03*
X767080Y354816D03*
X767080Y401806D03*
X767080Y431314D03*
D11*
X648186Y455930D03*
X677694Y455930D03*
X648186Y405130D03*
X677694Y405130D03*
X648186Y495300D03*
X677694Y495300D03*
D12*
X834270Y63500D03*
X616070Y63500D03*
D13*
X708241Y83160D03*
X708241Y73660D03*
X708241Y64160D03*
X683679Y64160D03*
X683679Y73660D03*
X683679Y83160D03*
D14*
X520700Y36000D03*
X520700Y91000D03*
D15*
X447040Y240335D03*
X447040Y221945D03*
D16*
X290303Y807193D03*
X255797Y772687D03*
D11*
G36*
X275064Y814665D02*
X266829Y806430D01*
X247630Y825629D01*
X255865Y833864D01*
X275064Y814665D01*
G37*
G36*
X295930Y835531D02*
X287695Y827296D01*
X268496Y846495D01*
X276731Y854730D01*
X295930Y835531D01*
G37*
G36*
X229126Y807125D02*
X237361Y815360D01*
X256560Y796161D01*
X248325Y787926D01*
X229126Y807125D01*
G37*
G36*
X208260Y786259D02*
X216495Y794494D01*
X235694Y775295D01*
X227459Y767060D01*
X208260Y786259D01*
G37*
D17*
X341630Y599440D03*
X341630Y624840D03*
X367030Y599440D03*
X367030Y624840D03*
X392430Y599440D03*
X392430Y624840D03*
D18*
X455180Y870860D03*
X520180Y870860D03*
X455180Y825860D03*
X520180Y825860D03*
D10*
X487680Y824716D03*
X487680Y854224D03*
D19*
X48672Y48672D03*
X951328Y48672D03*
X951328Y930628D03*
X48672Y930628D03*
D10*
X161290Y260836D03*
X161290Y290344D03*
X118110Y260836D03*
X118110Y290344D03*
D20*
X128270Y356870D03*
X153670Y356870D03*
X140970Y356870D03*
D21*
X136674Y422910D03*
X107166Y422910D03*
X222736Y422910D03*
X252244Y422910D03*
D22*
X495300Y139700D03*
D23*
X520700Y139700D03*
X546100Y139700D03*
D24*
X215900Y648970D03*
D25*
X215900Y623570D03*
X215900Y598170D03*
X215900Y572770D03*
D26*
X55200Y696400D03*
X55200Y751400D03*
X97200Y696400D03*
X97200Y751400D03*
X55200Y569400D03*
X55200Y624400D03*
X97200Y569400D03*
X97200Y624400D03*
D27*
X954600Y466000D03*
X899600Y466000D03*
X954600Y508000D03*
X899600Y508000D03*
X954600Y550000D03*
X899600Y550000D03*
D28*
X431800Y53340D02*
X431800Y38100D01*
X406400Y38100D02*
X406400Y53340D01*
X381000Y53340D02*
X381000Y38100D01*
X355600Y38100D02*
X355600Y53340D01*
X330200Y53340D02*
X330200Y38100D01*
X304800Y38100D02*
X304800Y53340D01*
D24*
X200000Y941900D03*
D25*
X225400Y941900D03*
D29*
X439556Y173990D03*
X457064Y173990D03*
D30*
X457505Y196850D03*
X439115Y196850D03*
D21*
X249406Y396240D03*
X278914Y396240D03*
D31*
X750570Y203940D03*
D32*
X750570Y218440D03*
X750570Y232940D03*
D33*
X800100Y163830D03*
D34*
X800100Y189230D03*
X800100Y214630D03*
D29*
X693556Y217170D03*
X711064Y217170D03*
D35*
X647700Y430530D03*
D36*
X648186Y431016D02*
X648186Y455930D01*
D37*
X648186Y431016D02*
X647700Y430530D01*
D36*
X648186Y430044D02*
X648186Y405130D01*
D37*
X648186Y430044D02*
X647700Y430530D01*
D36*
X648186Y455930D02*
X648186Y495300D01*
D35*
X419100Y88900D03*
D37*
X393700Y88900D01*
D35*
X393700Y88900D03*
X425450Y920750D03*
X332740Y809715D03*
D37*
X626110Y420370D02*
X626110Y227330D01*
X626110Y420370D02*
X635784Y430044D01*
X648186Y430044D01*
D35*
X292100Y88900D03*
X242570Y127000D03*
D37*
X280670Y88900D02*
X292100Y88900D01*
X280670Y88900D02*
X242570Y127000D01*
D35*
X243840Y264160D03*
D37*
X243840Y370840D01*
X222736Y391944D01*
X222736Y422910D01*
D36*
X278130Y920750D02*
X425450Y920750D01*
X278130Y920750D02*
X222250Y920750D01*
X148590Y847090D01*
D35*
X543560Y624840D03*
D38*
X501650Y624840D01*
D35*
X501650Y624840D03*
D36*
X148590Y711200D02*
X148590Y847090D01*
D39*
X185420Y648970D02*
X215900Y648970D01*
D36*
X133790Y696400D02*
X97200Y696400D01*
X133790Y696400D02*
X148590Y711200D01*
X133790Y696400D02*
X133790Y569840D01*
X133350Y569400D02*
X97200Y569400D01*
D39*
X133350Y569400D02*
X143950Y569400D01*
X163830Y589280D01*
X163830Y627380D01*
X185420Y648970D01*
X133790Y569840D02*
X133350Y569400D01*
D35*
X651510Y109220D03*
D37*
X679450Y217170D02*
X693556Y217170D01*
D35*
X679450Y217170D03*
D37*
X683384Y93857D02*
X683679Y83160D01*
X683384Y93857D02*
X668020Y109220D01*
X651510Y109220D01*
X636270Y217170D02*
X679450Y217170D01*
X636270Y217170D02*
X626110Y227330D01*
X651510Y160020D02*
X651510Y109220D01*
X679450Y187960D02*
X679450Y217170D01*
X679450Y187960D02*
X651510Y160020D01*
D40*
X332740Y809715D02*
X278130Y864325D01*
X278130Y920750D01*
D41*
X252095Y810895D02*
X242843Y801643D01*
D35*
X245110Y817880D03*
X259080Y803910D03*
D41*
X252095Y810895D02*
X261347Y820147D01*
X252095Y810895D02*
X245110Y817880D01*
D37*
X252095Y810895D02*
X252095Y810895D01*
D41*
X259080Y803910D01*
D37*
X252095Y810895D02*
X252095Y810895D01*
X683679Y73660D02*
X708241Y73660D01*
D35*
X673100Y328930D03*
D37*
X767080Y327660D02*
X767080Y354816D01*
X767080Y327660D02*
X772160Y322580D01*
D35*
X772160Y322580D03*
D36*
X767080Y431314D02*
X767080Y447040D01*
D35*
X767080Y447040D03*
D36*
X677694Y455930D02*
X677694Y495300D01*
D37*
X677694Y455930D02*
X677694Y405130D01*
X680234Y402590D01*
X677694Y367516D02*
X693420Y351790D01*
X677694Y367516D02*
X677694Y405130D01*
X673100Y328930D02*
X683260Y328930D01*
X693420Y339090D01*
X693420Y351790D01*
D35*
X322360Y776940D03*
X332740Y788670D03*
X241300Y76200D03*
X266700Y76200D03*
X292100Y76200D03*
X317500Y76200D03*
X342900Y76200D03*
X368300Y76200D03*
X393700Y76200D03*
X419100Y76200D03*
X444500Y76200D03*
X482600Y25400D03*
X520700Y63500D03*
X429260Y739140D03*
X302260Y739140D03*
X356870Y866140D03*
X346710Y876300D03*
X463268Y678180D03*
X793750Y840740D03*
X793750Y774700D03*
X744220Y609600D03*
X755650Y609600D03*
X317500Y187960D03*
X317500Y135890D03*
X317500Y229870D03*
X213360Y133350D03*
X222250Y237490D03*
X170180Y467360D03*
X308610Y358140D03*
X83820Y345440D03*
X430530Y358140D03*
X572770Y449580D03*
X476250Y525780D03*
X577850Y577850D03*
X745490Y370840D03*
X483870Y396240D03*
X420088Y636270D03*
X703580Y377190D03*
X711200Y387350D03*
X695960Y387350D03*
X711200Y367030D03*
X695960Y367030D03*
X638810Y153670D03*
X726440Y215900D03*
D37*
X712334Y215900D01*
X711064Y217170D01*
D35*
X363653Y804747D03*
D37*
X457505Y196850D02*
X457505Y174431D01*
X457064Y173990D01*
X511810Y173990D01*
X546100Y139700D01*
D35*
X73660Y483870D03*
X558800Y24344D03*
D36*
X767080Y384324D02*
X767080Y401806D01*
D35*
X745490Y383540D03*
D36*
X766296Y383540D01*
D37*
X767080Y384324D01*
D35*
X204470Y383540D03*
D37*
X213360Y374650D01*
X213360Y242570D01*
D35*
X213360Y242570D03*
D37*
X167640Y422910D02*
X136674Y422910D01*
X167640Y422910D02*
X177800Y412750D01*
D35*
X177800Y412750D03*
D39*
X136674Y422910D02*
X136674Y444986D01*
X55200Y526460D01*
X55200Y569400D01*
X76200Y590400D01*
X76200Y675400D01*
X55200Y696400D01*
D35*
X444500Y330200D03*
D37*
X393700Y330200D01*
D35*
X393700Y330200D03*
X673100Y774700D03*
D37*
X622300Y774700D01*
X596900Y800100D01*
D35*
X596900Y800100D03*
X436880Y909320D03*
X412750Y909320D03*
D39*
X436880Y909320D01*
D35*
X450850Y443230D03*
D37*
X450850Y720090D01*
X443230Y727710D01*
D35*
X443230Y727710D03*
X543560Y415290D03*
D37*
X488950Y469900D01*
X469900Y469900D01*
X457200Y482600D01*
X457200Y735330D01*
X435610Y756920D01*
D35*
X435610Y756920D03*
D37*
X457200Y139700D02*
X495300Y139700D01*
X457200Y139700D02*
X439556Y157344D01*
X439556Y173990D01*
X439556Y196409D01*
X439115Y196850D01*
X439115Y214020D01*
X447040Y221945D01*
X447040Y240335D02*
X407365Y240335D01*
X393700Y254000D01*
D35*
X393700Y254000D03*
X331470Y660400D03*
D37*
X331470Y722630D01*
X407670Y798830D01*
D35*
X407670Y798830D03*
D38*
X708241Y64160D02*
X833610Y64160D01*
D37*
X834270Y63500D01*
D35*
X925830Y302260D03*
D37*
X923290Y299720D01*
X488950Y453390D02*
X463550Y453390D01*
D35*
X463550Y453390D03*
D37*
X488950Y453390D02*
X597092Y345248D01*
X647700Y299720D02*
X923290Y299720D01*
D35*
X647700Y299720D03*
X596900Y328930D03*
D37*
X597092Y329122D02*
X597092Y345248D01*
X597092Y329122D02*
X596900Y328930D01*
D35*
X356870Y670560D03*
D37*
X354330Y668020D01*
X354330Y621531D01*
X342392Y609593D01*
X342392Y600202D01*
X341630Y599440D01*
D35*
X414020Y791210D03*
D37*
X414020Y621030D01*
X392430Y599440D01*
X487680Y824716D02*
X519036Y824716D01*
X520180Y825860D01*
X487680Y824716D02*
X456324Y824716D01*
X455180Y825860D01*
D35*
X302260Y871220D03*
D42*
X314960Y871220D01*
D35*
X431800Y797560D03*
D42*
X265430Y623570D02*
X215900Y623570D01*
X265430Y623570D02*
X381000Y508000D01*
X381000Y45720D01*
X381044Y805136D02*
X314960Y871220D01*
X381044Y805136D02*
X424224Y805136D01*
X431800Y797560D01*
D35*
X440690Y786130D03*
D42*
X440690Y802640D01*
X434340Y808990D01*
X386080Y808990D01*
X313690Y881380D01*
X289560Y881380D01*
D35*
X289560Y881380D03*
D42*
X261119Y598170D02*
X215900Y598170D01*
X261119Y598170D02*
X355600Y503689D01*
X355600Y45720D01*
D37*
X367030Y599440D02*
X379730Y612140D01*
X379730Y648970D01*
X369570Y659130D01*
D35*
X369570Y659130D03*
X923290Y381000D03*
D37*
X933450Y391160D02*
X933450Y654050D01*
X933450Y391160D02*
X923290Y381000D01*
X933450Y654050D02*
X901700Y685800D01*
X502920Y685800D01*
X486410Y702310D01*
D35*
X486410Y702310D03*
D38*
X616070Y63500D02*
X682724Y63500D01*
D37*
X683679Y64160D01*
D41*
X235675Y767080D02*
X221977Y780777D01*
X235675Y767080D02*
X250190Y767080D01*
X255797Y772687D01*
X297180Y826045D02*
X282213Y841013D01*
X297180Y826045D02*
X297180Y814070D01*
X290303Y807193D01*
D35*
X189230Y260350D03*
D37*
X161776Y260350D01*
X161290Y260836D01*
X118110Y260836D01*
D35*
X194310Y226060D03*
D41*
X189230Y231140D01*
X189230Y260350D01*
D35*
X232410Y264160D03*
D37*
X232410Y369570D01*
X177800Y424180D01*
X177800Y430530D01*
D35*
X177800Y430530D03*
X267970Y422910D03*
D37*
X278914Y411966D02*
X278914Y396240D01*
X278914Y411966D02*
X267970Y422910D01*
X252244Y399078D02*
X249406Y396240D01*
X252244Y399078D02*
X252244Y422910D01*
D35*
X251460Y374650D03*
D37*
X249406Y376704D01*
X249406Y396240D01*
D35*
X96520Y401320D03*
D37*
X107166Y411966D01*
X107166Y422910D01*
X765280Y189230D02*
X800100Y189230D01*
X765280Y189230D02*
X750570Y203940D01*
D35*
X614680Y289560D03*
D37*
X571500Y332740D01*
X466090Y332740D01*
X445770Y312420D01*
X392430Y312420D01*
X386080Y318770D01*
X386080Y519430D01*
X316230Y589280D01*
X316230Y718820D01*
X393700Y796290D01*
D35*
X393700Y796290D03*
D37*
X707946Y94536D02*
X708241Y83160D01*
X707946Y94536D02*
X713740Y100330D01*
D35*
X713740Y100330D03*
M02*
