G04 EAGLE Gerber RS-274X export*
G75*
%MOMM*%
%FSLAX34Y34*%
%LPD*%
%INTop Copper*%
%IPPOS*%
%AMOC8*
5,1,8,0,0,1.08239X$1,22.5*%
G01*
G04 Define Apertures*
%ADD10R,2.115300X4.415700*%
%ADD11R,1.795500X1.188700*%
%ADD12R,2.715300X1.164600*%
%ADD13R,3.763600X2.115300*%
%ADD14R,1.164600X1.815300*%
%ADD15R,1.503600X2.237600*%
%ADD16R,3.000000X3.200000*%
%ADD17R,1.815300X1.164600*%
%ADD18R,1.031200X1.420200*%
%ADD19R,1.420200X1.031200*%
%ADD20R,1.800000X0.601500*%
%ADD21R,2.620000X3.400000*%
%ADD22R,0.934500X1.826500*%
%ADD23R,3.191500X1.826500*%
%ADD24C,2.184400*%
%ADD25R,2.100000X2.100000*%
%ADD26C,1.230000*%
%ADD27R,1.164600X2.715300*%
%ADD28P,1.64956X8X22.5*%
%ADD29C,1.700000*%
%ADD30R,1.400000X3.000000*%
%ADD31C,7.550000*%
%ADD32R,1.600800X0.550000*%
%ADD33R,2.000000X2.000000*%
%ADD34R,1.826500X0.934500*%
%ADD35R,1.826500X3.191500*%
%ADD36R,0.595000X1.260500*%
%ADD37R,3.370200X1.231200*%
%ADD38R,0.410300X1.573100*%
%ADD39C,1.108000*%
%ADD40R,0.650000X0.800000*%
%ADD41R,1.930400X1.930400*%
%ADD42C,1.930400*%
%ADD43R,11.000000X13.250000*%
%ADD44R,1.573100X0.410300*%
%ADD45R,1.500000X1.500000*%
%ADD46C,1.500000*%
%ADD47C,2.100000*%
%ADD48C,2.175000*%
%ADD49C,1.524000*%
%ADD50R,0.916600X1.366600*%
%ADD51R,0.601500X2.100000*%
%ADD52R,1.158000X1.158000*%
%ADD53C,1.158000*%
%ADD54R,1.676400X1.676400*%
%ADD55C,1.676400*%
%ADD56C,0.152400*%
%ADD57C,0.812800*%
%ADD58C,0.756400*%
%ADD59C,0.508000*%
%ADD60C,0.254000*%
%ADD61C,1.270000*%
%ADD62C,1.016000*%
%ADD63C,0.200000*%
%ADD64C,0.203200*%
G36*
X988613Y10982D02*
X988863Y11154D01*
X989027Y11409D01*
X989078Y11684D01*
X989078Y967616D01*
X989018Y967913D01*
X988846Y968163D01*
X988591Y968327D01*
X988316Y968378D01*
X11684Y968378D01*
X11387Y968318D01*
X11137Y968146D01*
X10973Y967891D01*
X10922Y967616D01*
X10922Y11684D01*
X10982Y11387D01*
X11154Y11137D01*
X11409Y10973D01*
X11684Y10922D01*
X988316Y10922D01*
X988613Y10982D01*
G37*
%LPC*%
G36*
X946622Y906968D02*
X937926Y910570D01*
X931270Y917226D01*
X927668Y925922D01*
X927668Y935334D01*
X931270Y944030D01*
X937926Y950686D01*
X946622Y954288D01*
X956034Y954288D01*
X964730Y950686D01*
X971386Y944030D01*
X974988Y935334D01*
X974988Y925922D01*
X971386Y917226D01*
X964730Y910570D01*
X956034Y906968D01*
X946622Y906968D01*
G37*
G36*
X43966Y906968D02*
X35270Y910570D01*
X28614Y917226D01*
X25012Y925922D01*
X25012Y935334D01*
X28614Y944030D01*
X35270Y950686D01*
X43966Y954288D01*
X53378Y954288D01*
X62074Y950686D01*
X68730Y944030D01*
X72332Y935334D01*
X72332Y925922D01*
X68730Y917226D01*
X62074Y910570D01*
X53378Y906968D01*
X43966Y906968D01*
G37*
G36*
X215360Y942662D02*
X215360Y943897D01*
X216889Y947587D01*
X219713Y950412D01*
X223403Y951940D01*
X224638Y951940D01*
X224638Y942662D01*
X215360Y942662D01*
G37*
G36*
X226162Y942662D02*
X226162Y951940D01*
X227397Y951940D01*
X231087Y950412D01*
X233912Y947587D01*
X235440Y943897D01*
X235440Y942662D01*
X226162Y942662D01*
G37*
G36*
X52808Y684376D02*
X48389Y686207D01*
X45007Y689589D01*
X43176Y694008D01*
X43176Y698792D01*
X45007Y703211D01*
X48389Y706593D01*
X52808Y708424D01*
X57592Y708424D01*
X60913Y707048D01*
X61210Y706991D01*
X61507Y707053D01*
X61743Y707214D01*
X73269Y718740D01*
X73436Y718992D01*
X73492Y719278D01*
X73492Y819343D01*
X190753Y936604D01*
X190920Y936857D01*
X190976Y937143D01*
X190976Y950031D01*
X191869Y950924D01*
X208131Y950924D01*
X209024Y950031D01*
X209024Y933769D01*
X208131Y932876D01*
X195243Y932876D01*
X194946Y932816D01*
X194704Y932653D01*
X79303Y817252D01*
X79136Y816999D01*
X79080Y816713D01*
X79080Y716648D01*
X65827Y703395D01*
X65659Y703142D01*
X65603Y702844D01*
X65661Y702564D01*
X67224Y698792D01*
X67224Y694008D01*
X65393Y689589D01*
X62011Y686207D01*
X57592Y684376D01*
X52808Y684376D01*
G37*
G36*
X226162Y931860D02*
X226162Y941138D01*
X235440Y941138D01*
X235440Y939903D01*
X233912Y936213D01*
X231087Y933389D01*
X227397Y931860D01*
X226162Y931860D01*
G37*
G36*
X223403Y931860D02*
X219713Y933389D01*
X216889Y936213D01*
X215360Y939903D01*
X215360Y941138D01*
X224638Y941138D01*
X224638Y931860D01*
X223403Y931860D01*
G37*
G36*
X404581Y28956D02*
X401220Y30348D01*
X398648Y32920D01*
X397256Y36281D01*
X397256Y55159D01*
X398648Y58520D01*
X401220Y61092D01*
X401866Y61359D01*
X402117Y61529D01*
X402283Y61783D01*
X402336Y62063D01*
X402336Y312173D01*
X402276Y312471D01*
X402104Y312721D01*
X401849Y312884D01*
X401550Y312935D01*
X401255Y312865D01*
X401035Y312712D01*
X396209Y307886D01*
X396042Y307633D01*
X395986Y307347D01*
X395986Y259533D01*
X396046Y259236D01*
X396209Y258995D01*
X399006Y256198D01*
X399006Y251802D01*
X395898Y248694D01*
X391502Y248694D01*
X388394Y251802D01*
X388394Y256198D01*
X391191Y258995D01*
X391358Y259247D01*
X391414Y259533D01*
X391414Y309557D01*
X397541Y315684D01*
X397708Y315937D01*
X397764Y316223D01*
X397764Y324921D01*
X397704Y325218D01*
X397532Y325468D01*
X397277Y325631D01*
X396978Y325682D01*
X396683Y325612D01*
X396463Y325459D01*
X395898Y324894D01*
X391502Y324894D01*
X388705Y327691D01*
X388453Y327858D01*
X388167Y327914D01*
X256863Y327914D01*
X206766Y378011D01*
X206513Y378178D01*
X206227Y378234D01*
X202272Y378234D01*
X199164Y381342D01*
X199164Y385297D01*
X199104Y385595D01*
X198941Y385836D01*
X198174Y386603D01*
X197921Y386770D01*
X197635Y386826D01*
X194428Y386826D01*
X194130Y386766D01*
X193880Y386594D01*
X193717Y386339D01*
X193666Y386064D01*
X193666Y380615D01*
X192773Y379723D01*
X187407Y379723D01*
X187379Y379751D01*
X187126Y379918D01*
X186828Y379974D01*
X186532Y379909D01*
X186301Y379751D01*
X186100Y379550D01*
X185933Y379297D01*
X185877Y378999D01*
X185942Y378703D01*
X186100Y378473D01*
X188684Y375889D01*
X188937Y375722D01*
X189223Y375666D01*
X202877Y375666D01*
X208810Y369733D01*
X208810Y368233D01*
X208870Y367935D01*
X209042Y367685D01*
X209297Y367522D01*
X209572Y367471D01*
X212978Y367471D01*
X213871Y366578D01*
X213871Y347162D01*
X212978Y346270D01*
X200070Y346270D01*
X199177Y347162D01*
X199177Y366578D01*
X200070Y367471D01*
X202767Y367471D01*
X203064Y367531D01*
X203314Y367702D01*
X203478Y367958D01*
X203529Y368257D01*
X203459Y368552D01*
X203306Y368771D01*
X201206Y370871D01*
X200953Y371038D01*
X200667Y371094D01*
X187013Y371094D01*
X181304Y376803D01*
X181304Y379010D01*
X181244Y379307D01*
X181081Y379549D01*
X180879Y379751D01*
X180626Y379918D01*
X180328Y379974D01*
X180032Y379909D01*
X179801Y379751D01*
X179773Y379723D01*
X174407Y379723D01*
X174379Y379751D01*
X174126Y379918D01*
X173828Y379974D01*
X173532Y379909D01*
X173301Y379751D01*
X173273Y379723D01*
X167907Y379723D01*
X167015Y380615D01*
X167015Y397609D01*
X168081Y398675D01*
X168248Y398928D01*
X168304Y399214D01*
X168304Y399647D01*
X168244Y399945D01*
X168081Y400186D01*
X161836Y406431D01*
X161583Y406598D01*
X161297Y406654D01*
X104259Y406654D01*
X88458Y422455D01*
X88205Y422622D01*
X87919Y422678D01*
X85023Y422678D01*
X84725Y422618D01*
X84475Y422446D01*
X84312Y422191D01*
X84261Y421916D01*
X84261Y418510D01*
X83368Y417617D01*
X63952Y417617D01*
X63060Y418510D01*
X63060Y431418D01*
X64169Y432528D01*
X64337Y432781D01*
X64393Y433079D01*
X64327Y433375D01*
X64152Y433623D01*
X63894Y433782D01*
X63631Y433829D01*
X59452Y433829D01*
X58560Y434722D01*
X58560Y447630D01*
X59452Y448523D01*
X87868Y448523D01*
X88761Y447630D01*
X88761Y434722D01*
X87868Y433829D01*
X83689Y433829D01*
X83392Y433769D01*
X83142Y433597D01*
X82979Y433342D01*
X82928Y433043D01*
X82998Y432748D01*
X83151Y432528D01*
X84261Y431418D01*
X84261Y428012D01*
X84321Y427715D01*
X84492Y427465D01*
X84748Y427301D01*
X85023Y427250D01*
X90129Y427250D01*
X105930Y411449D01*
X106183Y411282D01*
X106469Y411226D01*
X163507Y411226D01*
X172876Y401857D01*
X172876Y399214D01*
X172936Y398917D01*
X173099Y398675D01*
X173301Y398473D01*
X173554Y398306D01*
X173852Y398250D01*
X174148Y398315D01*
X174379Y398473D01*
X174407Y398502D01*
X179773Y398502D01*
X179801Y398473D01*
X180054Y398306D01*
X180352Y398250D01*
X180648Y398315D01*
X180879Y398473D01*
X180907Y398502D01*
X186273Y398502D01*
X186301Y398473D01*
X186554Y398306D01*
X186852Y398250D01*
X187148Y398315D01*
X187379Y398473D01*
X187573Y398667D01*
X187740Y398920D01*
X187796Y399218D01*
X187731Y399514D01*
X187573Y399745D01*
X180096Y407221D01*
X179843Y407388D01*
X179557Y407444D01*
X175602Y407444D01*
X172494Y410552D01*
X172494Y414948D01*
X175602Y418056D01*
X179998Y418056D01*
X183106Y414948D01*
X183106Y410993D01*
X183166Y410695D01*
X183329Y410454D01*
X192376Y401407D01*
X192376Y399214D01*
X192436Y398917D01*
X192599Y398675D01*
X193666Y397609D01*
X193666Y392160D01*
X193726Y391863D01*
X193897Y391613D01*
X194153Y391449D01*
X194428Y391398D01*
X199845Y391398D01*
X202174Y389069D01*
X202427Y388902D01*
X202713Y388846D01*
X206668Y388846D01*
X209776Y385738D01*
X209776Y381783D01*
X209836Y381485D01*
X209999Y381244D01*
X258534Y332709D01*
X258787Y332542D01*
X259073Y332486D01*
X388167Y332486D01*
X388464Y332546D01*
X388705Y332709D01*
X391502Y335506D01*
X395898Y335506D01*
X396463Y334941D01*
X396716Y334773D01*
X397014Y334718D01*
X397310Y334783D01*
X397558Y334958D01*
X397717Y335216D01*
X397764Y335479D01*
X397764Y469907D01*
X397704Y470205D01*
X397541Y470446D01*
X308387Y559600D01*
X308134Y559768D01*
X307836Y559823D01*
X307540Y559758D01*
X307292Y559583D01*
X307133Y559325D01*
X307086Y559061D01*
X307086Y543553D01*
X307146Y543255D01*
X307309Y543014D01*
X318516Y531807D01*
X318516Y392753D01*
X293047Y367284D01*
X281933Y367284D01*
X281635Y367224D01*
X281394Y367061D01*
X279141Y364808D01*
X278973Y364555D01*
X278918Y364257D01*
X278983Y363961D01*
X279158Y363713D01*
X279416Y363554D01*
X279680Y363507D01*
X280131Y363507D01*
X281024Y362614D01*
X281024Y353352D01*
X280131Y352459D01*
X272369Y352459D01*
X271476Y353352D01*
X271476Y362614D01*
X272369Y363507D01*
X273202Y363507D01*
X273499Y363567D01*
X273749Y363739D01*
X273913Y363994D01*
X273964Y364269D01*
X273964Y366097D01*
X279723Y371856D01*
X290837Y371856D01*
X291135Y371916D01*
X291376Y372079D01*
X313721Y394424D01*
X313888Y394677D01*
X313944Y394963D01*
X313944Y529597D01*
X313884Y529895D01*
X313721Y530136D01*
X302514Y541343D01*
X302514Y707067D01*
X313331Y717884D01*
X313499Y718137D01*
X313554Y718435D01*
X313489Y718731D01*
X313331Y718962D01*
X312923Y719369D01*
X312923Y719483D01*
X312863Y719780D01*
X312692Y720030D01*
X312436Y720193D01*
X312161Y720245D01*
X312048Y720245D01*
X311813Y720480D01*
X311560Y720648D01*
X311262Y720703D01*
X310966Y720638D01*
X310735Y720480D01*
X265171Y674916D01*
X265004Y674663D01*
X264948Y674377D01*
X264948Y551275D01*
X248597Y534924D01*
X63493Y534924D01*
X63195Y534864D01*
X62954Y534701D01*
X53309Y525056D01*
X53142Y524803D01*
X53086Y524517D01*
X53086Y384803D01*
X53146Y384505D01*
X53309Y384264D01*
X66446Y371127D01*
X66446Y364269D01*
X66506Y363972D01*
X66678Y363722D01*
X66933Y363558D01*
X67208Y363507D01*
X68041Y363507D01*
X68934Y362614D01*
X68934Y353352D01*
X68041Y352459D01*
X60279Y352459D01*
X59386Y353352D01*
X59386Y362614D01*
X60279Y363507D01*
X61112Y363507D01*
X61409Y363567D01*
X61659Y363739D01*
X61823Y363994D01*
X61874Y364269D01*
X61874Y368917D01*
X61814Y369215D01*
X61651Y369456D01*
X48514Y382593D01*
X48514Y526727D01*
X61283Y539496D01*
X246387Y539496D01*
X246685Y539556D01*
X246926Y539719D01*
X260153Y552946D01*
X260320Y553199D01*
X260376Y553485D01*
X260376Y676587D01*
X307502Y723713D01*
X307670Y723966D01*
X307725Y724264D01*
X307660Y724560D01*
X307502Y724791D01*
X307267Y725026D01*
X307267Y726289D01*
X319579Y738601D01*
X319746Y738854D01*
X319802Y739152D01*
X319737Y739448D01*
X319579Y739679D01*
X307267Y751991D01*
X307267Y753254D01*
X307323Y753310D01*
X307490Y753563D01*
X307546Y753861D01*
X307481Y754157D01*
X307323Y754387D01*
X291787Y769923D01*
X291534Y770091D01*
X291248Y770147D01*
X263560Y770147D01*
X263263Y770086D01*
X263013Y769915D01*
X262856Y769676D01*
X262302Y768340D01*
X260144Y766181D01*
X257323Y765013D01*
X254270Y765013D01*
X251450Y766181D01*
X249291Y768340D01*
X248123Y771160D01*
X248123Y774213D01*
X249291Y777034D01*
X251450Y779192D01*
X254270Y780361D01*
X257323Y780361D01*
X260144Y779192D01*
X262302Y777034D01*
X262856Y775697D01*
X263025Y775446D01*
X263280Y775280D01*
X263560Y775227D01*
X293668Y775227D01*
X310915Y757979D01*
X311168Y757812D01*
X311466Y757756D01*
X311762Y757821D01*
X311992Y757979D01*
X312048Y758035D01*
X312161Y758035D01*
X312459Y758096D01*
X312709Y758267D01*
X312872Y758523D01*
X312923Y758797D01*
X312923Y758911D01*
X312979Y758967D01*
X313147Y759219D01*
X313203Y759518D01*
X313137Y759814D01*
X312979Y760044D01*
X289474Y783549D01*
X287763Y785260D01*
X287763Y799430D01*
X287703Y799727D01*
X287532Y799977D01*
X287293Y800134D01*
X285956Y800688D01*
X283798Y802846D01*
X282629Y805667D01*
X282629Y808720D01*
X283798Y811540D01*
X285956Y813699D01*
X288777Y814867D01*
X291830Y814867D01*
X294650Y813699D01*
X296809Y811540D01*
X297977Y808720D01*
X297977Y805667D01*
X296809Y802846D01*
X294650Y800688D01*
X293314Y800134D01*
X293062Y799965D01*
X292897Y799710D01*
X292843Y799430D01*
X292843Y787680D01*
X292904Y787383D01*
X293067Y787141D01*
X316572Y763636D01*
X316824Y763469D01*
X317123Y763413D01*
X317419Y763478D01*
X317649Y763636D01*
X317705Y763692D01*
X317818Y763692D01*
X318115Y763753D01*
X318366Y763924D01*
X318529Y764180D01*
X318580Y764454D01*
X318580Y764630D01*
X318624Y764697D01*
X318680Y764995D01*
X318615Y765291D01*
X318457Y765521D01*
X310958Y773020D01*
X310958Y783351D01*
X329723Y802116D01*
X329890Y802368D01*
X329946Y802654D01*
X329946Y804689D01*
X329886Y804987D01*
X329723Y805228D01*
X327434Y807517D01*
X327434Y811913D01*
X330542Y815021D01*
X333779Y815021D01*
X334076Y815081D01*
X334318Y815244D01*
X340141Y821067D01*
X340308Y821319D01*
X340364Y821618D01*
X340299Y821914D01*
X340141Y822144D01*
X338091Y824194D01*
X338091Y825456D01*
X358184Y845549D01*
X359446Y845549D01*
X361496Y843499D01*
X361749Y843332D01*
X362047Y843276D01*
X362343Y843341D01*
X362573Y843499D01*
X378241Y859167D01*
X378408Y859419D01*
X378464Y859718D01*
X378399Y860014D01*
X378241Y860244D01*
X376191Y862294D01*
X376191Y863556D01*
X396284Y883649D01*
X397546Y883649D01*
X399596Y881599D01*
X399849Y881432D01*
X400147Y881376D01*
X400443Y881441D01*
X400673Y881599D01*
X422433Y903359D01*
X422600Y903612D01*
X422656Y903898D01*
X422656Y915350D01*
X422596Y915647D01*
X422424Y915897D01*
X422355Y915943D01*
X420713Y917585D01*
X420489Y918125D01*
X420324Y918373D01*
X420144Y918552D01*
X420144Y918806D01*
X420086Y919098D01*
X419862Y919638D01*
X419862Y921862D01*
X420086Y922402D01*
X420144Y922694D01*
X420144Y922948D01*
X420324Y923127D01*
X420489Y923375D01*
X420713Y923915D01*
X424825Y928027D01*
X426878Y928878D01*
X578962Y928878D01*
X581015Y928027D01*
X651198Y857844D01*
X652049Y855791D01*
X652049Y841248D01*
X652109Y840951D01*
X652281Y840701D01*
X652536Y840537D01*
X652811Y840486D01*
X689006Y840486D01*
X689303Y840546D01*
X689553Y840718D01*
X689717Y840973D01*
X689768Y841248D01*
X689768Y856371D01*
X690661Y857264D01*
X705923Y857264D01*
X706816Y856371D01*
X706816Y825109D01*
X705923Y824216D01*
X690661Y824216D01*
X689768Y825109D01*
X689768Y835152D01*
X689708Y835449D01*
X689536Y835699D01*
X689281Y835863D01*
X689006Y835914D01*
X652811Y835914D01*
X652514Y835854D01*
X652264Y835682D01*
X652100Y835427D01*
X652049Y835152D01*
X652049Y622463D01*
X652109Y622165D01*
X652281Y621915D01*
X652536Y621752D01*
X652811Y621701D01*
X665910Y621701D01*
X666803Y620808D01*
X666803Y598392D01*
X665910Y597500D01*
X652811Y597500D01*
X652514Y597439D01*
X652264Y597268D01*
X652100Y597012D01*
X652049Y596738D01*
X652049Y513586D01*
X652109Y513289D01*
X652281Y513039D01*
X652536Y512875D01*
X652811Y512824D01*
X661341Y512824D01*
X662234Y511931D01*
X662234Y478669D01*
X661341Y477776D01*
X652060Y477776D01*
X651763Y477716D01*
X651513Y477544D01*
X651349Y477289D01*
X651298Y477014D01*
X651298Y444975D01*
X651358Y444678D01*
X651521Y444436D01*
X651764Y444193D01*
X651764Y434684D01*
X651824Y434387D01*
X651987Y434145D01*
X652437Y433695D01*
X652661Y433155D01*
X652827Y432907D01*
X653006Y432728D01*
X653006Y432474D01*
X653064Y432182D01*
X653288Y431642D01*
X653288Y424270D01*
X653348Y423973D01*
X653511Y423731D01*
X656247Y420995D01*
X657098Y418942D01*
X657098Y415293D01*
X657158Y414996D01*
X657330Y414746D01*
X657585Y414582D01*
X657860Y414531D01*
X661218Y414531D01*
X662111Y413638D01*
X662111Y400730D01*
X661218Y399837D01*
X641802Y399837D01*
X640910Y400730D01*
X640910Y413638D01*
X641802Y414531D01*
X645067Y414531D01*
X645364Y414591D01*
X645614Y414763D01*
X645778Y415018D01*
X645828Y415317D01*
X645759Y415612D01*
X645606Y415832D01*
X642963Y418475D01*
X642112Y420528D01*
X642112Y431642D01*
X642336Y432182D01*
X642394Y432474D01*
X642394Y432728D01*
X642574Y432907D01*
X642739Y433155D01*
X642963Y433695D01*
X643413Y434145D01*
X643580Y434398D01*
X643636Y434684D01*
X643636Y438802D01*
X643576Y439099D01*
X643404Y439349D01*
X643166Y439506D01*
X642545Y439763D01*
X640973Y441335D01*
X640122Y443388D01*
X640122Y477014D01*
X640062Y477311D01*
X639890Y477561D01*
X639635Y477725D01*
X639360Y477776D01*
X630079Y477776D01*
X629186Y478669D01*
X629186Y488950D01*
X629126Y489247D01*
X628954Y489497D01*
X628699Y489661D01*
X628424Y489712D01*
X616108Y489712D01*
X614055Y490563D01*
X599105Y505513D01*
X598852Y505680D01*
X598566Y505736D01*
X593713Y505736D01*
X593415Y505676D01*
X593165Y505504D01*
X593002Y505249D01*
X592951Y504974D01*
X592951Y504870D01*
X592058Y503977D01*
X563642Y503977D01*
X562750Y504870D01*
X562750Y504974D01*
X562689Y505271D01*
X562518Y505521D01*
X562262Y505685D01*
X561988Y505736D01*
X550659Y505736D01*
X550361Y505676D01*
X550111Y505504D01*
X549948Y505249D01*
X549897Y504974D01*
X549897Y501603D01*
X549554Y501261D01*
X549387Y501008D01*
X549331Y500722D01*
X549331Y468971D01*
X548480Y466918D01*
X508731Y427169D01*
X508564Y426916D01*
X508508Y426630D01*
X508508Y419198D01*
X508568Y418901D01*
X508740Y418651D01*
X508995Y418487D01*
X509270Y418436D01*
X513916Y418436D01*
X514213Y418496D01*
X514455Y418659D01*
X515521Y419726D01*
X532515Y419726D01*
X533408Y418833D01*
X533408Y413467D01*
X533379Y413439D01*
X533212Y413186D01*
X533156Y412888D01*
X533221Y412592D01*
X533379Y412361D01*
X533581Y412159D01*
X533834Y411992D01*
X534120Y411936D01*
X536657Y411936D01*
X536955Y411996D01*
X537196Y412159D01*
X538031Y412994D01*
X538198Y413247D01*
X538254Y413533D01*
X538254Y417488D01*
X541362Y420596D01*
X545758Y420596D01*
X548866Y417488D01*
X548866Y413092D01*
X545758Y409984D01*
X541803Y409984D01*
X541505Y409924D01*
X541264Y409761D01*
X538867Y407364D01*
X534120Y407364D01*
X533823Y407304D01*
X533581Y407141D01*
X533379Y406939D01*
X533212Y406686D01*
X533156Y406388D01*
X533221Y406092D01*
X533379Y405861D01*
X533408Y405833D01*
X533408Y400467D01*
X533379Y400439D01*
X533212Y400186D01*
X533156Y399888D01*
X533221Y399592D01*
X533379Y399361D01*
X533581Y399159D01*
X533834Y398992D01*
X534120Y398936D01*
X555058Y398936D01*
X555355Y398996D01*
X555605Y399168D01*
X555768Y399423D01*
X555820Y399698D01*
X555820Y403180D01*
X556712Y404073D01*
X576128Y404073D01*
X577021Y403180D01*
X577021Y390272D01*
X576128Y389379D01*
X569468Y389379D01*
X569171Y389319D01*
X568921Y389147D01*
X568757Y388892D01*
X568706Y388617D01*
X568706Y383543D01*
X568766Y383246D01*
X568938Y382996D01*
X569193Y382832D01*
X569468Y382781D01*
X576128Y382781D01*
X577021Y381888D01*
X577021Y368980D01*
X576128Y368087D01*
X556712Y368087D01*
X555820Y368980D01*
X555820Y381888D01*
X556712Y382781D01*
X563372Y382781D01*
X563669Y382841D01*
X563919Y383013D01*
X564083Y383268D01*
X564134Y383543D01*
X564134Y388617D01*
X564074Y388914D01*
X563902Y389164D01*
X563647Y389328D01*
X563372Y389379D01*
X556712Y389379D01*
X555820Y390272D01*
X555820Y393602D01*
X555759Y393899D01*
X555588Y394149D01*
X555332Y394313D01*
X555058Y394364D01*
X534120Y394364D01*
X533823Y394304D01*
X533581Y394141D01*
X532515Y393075D01*
X515521Y393075D01*
X514629Y393967D01*
X514629Y399333D01*
X514657Y399361D01*
X514824Y399614D01*
X514880Y399912D01*
X514815Y400208D01*
X514657Y400439D01*
X514629Y400467D01*
X514629Y405833D01*
X514657Y405861D01*
X514824Y406114D01*
X514880Y406412D01*
X514815Y406708D01*
X514657Y406939D01*
X514629Y406967D01*
X514629Y412333D01*
X514657Y412361D01*
X514824Y412614D01*
X514880Y412912D01*
X514815Y413208D01*
X514657Y413439D01*
X514455Y413641D01*
X514202Y413808D01*
X513916Y413864D01*
X509270Y413864D01*
X508973Y413804D01*
X508723Y413632D01*
X508559Y413377D01*
X508508Y413102D01*
X508508Y374808D01*
X507657Y372755D01*
X488305Y353403D01*
X486252Y352552D01*
X459830Y352552D01*
X459533Y352492D01*
X459291Y352329D01*
X443769Y336807D01*
X443602Y336554D01*
X443546Y336256D01*
X443611Y335960D01*
X443787Y335712D01*
X444045Y335553D01*
X444308Y335506D01*
X446257Y335506D01*
X446555Y335566D01*
X446796Y335729D01*
X459279Y348212D01*
X555058Y348212D01*
X555355Y348272D01*
X555605Y348444D01*
X555768Y348699D01*
X555820Y348974D01*
X555820Y352380D01*
X556712Y353273D01*
X576128Y353273D01*
X577021Y352380D01*
X577021Y348974D01*
X577081Y348677D01*
X577252Y348427D01*
X577508Y348263D01*
X577783Y348212D01*
X592281Y348212D01*
X621754Y318739D01*
X622007Y318572D01*
X622293Y318516D01*
X704857Y318516D01*
X705155Y318576D01*
X705396Y318739D01*
X728033Y341376D01*
X782327Y341376D01*
X782625Y341436D01*
X782866Y341599D01*
X801401Y360134D01*
X801568Y360387D01*
X801624Y360673D01*
X801624Y374763D01*
X801564Y375060D01*
X801392Y375310D01*
X801137Y375473D01*
X800862Y375525D01*
X792702Y375525D01*
X791810Y376417D01*
X791810Y392777D01*
X791749Y393074D01*
X791578Y393324D01*
X791322Y393488D01*
X791048Y393539D01*
X763707Y393539D01*
X763410Y393479D01*
X763168Y393316D01*
X748655Y378803D01*
X748115Y378579D01*
X747867Y378414D01*
X747688Y378234D01*
X747434Y378234D01*
X747142Y378176D01*
X746602Y377952D01*
X727968Y377952D01*
X725891Y378813D01*
X725679Y378953D01*
X725393Y379009D01*
X719449Y379009D01*
X718556Y379901D01*
X718556Y387179D01*
X719449Y388072D01*
X725393Y388072D01*
X725690Y388132D01*
X725893Y388268D01*
X728109Y389186D01*
X728360Y389356D01*
X728525Y389610D01*
X728579Y389908D01*
X728511Y390204D01*
X728334Y390450D01*
X728109Y390594D01*
X725891Y391513D01*
X725679Y391653D01*
X725393Y391709D01*
X719449Y391709D01*
X718556Y392601D01*
X718556Y399879D01*
X719449Y400772D01*
X722730Y400772D01*
X723027Y400832D01*
X723277Y401003D01*
X723441Y401259D01*
X723492Y401534D01*
X723492Y415358D01*
X723432Y415655D01*
X723260Y415905D01*
X723005Y416068D01*
X722730Y416120D01*
X722040Y416120D01*
X721147Y417012D01*
X721147Y436428D01*
X722040Y437321D01*
X722144Y437321D01*
X722441Y437381D01*
X722691Y437552D01*
X722855Y437808D01*
X722906Y438083D01*
X722906Y477014D01*
X722846Y477311D01*
X722674Y477561D01*
X722419Y477725D01*
X722144Y477776D01*
X712799Y477776D01*
X711906Y478669D01*
X711906Y511931D01*
X712799Y512824D01*
X744061Y512824D01*
X744954Y511931D01*
X744954Y502150D01*
X745014Y501853D01*
X745186Y501603D01*
X745441Y501439D01*
X745716Y501388D01*
X757276Y501388D01*
X757573Y501448D01*
X757823Y501620D01*
X757987Y501875D01*
X758038Y502150D01*
X758038Y507619D01*
X758931Y508512D01*
X775229Y508512D01*
X776122Y507619D01*
X776122Y483981D01*
X775229Y483088D01*
X758931Y483088D01*
X758038Y483981D01*
X758038Y489450D01*
X757978Y489747D01*
X757806Y489997D01*
X757551Y490161D01*
X757276Y490212D01*
X745716Y490212D01*
X745419Y490152D01*
X745169Y489980D01*
X745005Y489725D01*
X744954Y489450D01*
X744954Y478669D01*
X744061Y477776D01*
X734844Y477776D01*
X734547Y477716D01*
X734297Y477544D01*
X734133Y477289D01*
X734082Y477014D01*
X734082Y438083D01*
X734142Y437785D01*
X734314Y437535D01*
X734569Y437372D01*
X734844Y437321D01*
X734948Y437321D01*
X735841Y436428D01*
X735841Y417012D01*
X734891Y416062D01*
X734724Y415810D01*
X734668Y415524D01*
X734668Y401534D01*
X734728Y401236D01*
X734900Y400986D01*
X735155Y400823D01*
X735430Y400772D01*
X738711Y400772D01*
X739604Y399879D01*
X739604Y392601D01*
X738711Y391709D01*
X732767Y391709D01*
X732470Y391648D01*
X732267Y391512D01*
X730052Y390594D01*
X729800Y390425D01*
X729635Y390170D01*
X729581Y389872D01*
X729649Y389576D01*
X729826Y389330D01*
X730085Y389173D01*
X730343Y389128D01*
X742860Y389128D01*
X743157Y389188D01*
X743399Y389351D01*
X757912Y403864D01*
X759965Y404715D01*
X791048Y404715D01*
X791345Y404775D01*
X791595Y404947D01*
X791758Y405202D01*
X791810Y405477D01*
X791810Y421837D01*
X792702Y422730D01*
X797560Y422730D01*
X797857Y422790D01*
X798107Y422961D01*
X798271Y423217D01*
X798322Y423492D01*
X798322Y462122D01*
X799173Y464175D01*
X847735Y512737D01*
X849788Y513588D01*
X887985Y513588D01*
X888282Y513648D01*
X888532Y513820D01*
X888689Y514058D01*
X889089Y515023D01*
X892577Y518511D01*
X897134Y520399D01*
X902066Y520399D01*
X906623Y518511D01*
X910111Y515023D01*
X910511Y514058D01*
X910681Y513807D01*
X910935Y513641D01*
X911215Y513588D01*
X942985Y513588D01*
X943282Y513648D01*
X943532Y513820D01*
X943689Y514058D01*
X944089Y515023D01*
X947577Y518511D01*
X952134Y520399D01*
X957066Y520399D01*
X961623Y518511D01*
X965111Y515023D01*
X966999Y510466D01*
X966999Y505534D01*
X965111Y500977D01*
X961623Y497489D01*
X957066Y495601D01*
X952134Y495601D01*
X947577Y497489D01*
X944089Y500977D01*
X943689Y501942D01*
X943519Y502193D01*
X943265Y502359D01*
X942985Y502412D01*
X911215Y502412D01*
X910918Y502352D01*
X910668Y502180D01*
X910511Y501942D01*
X910111Y500977D01*
X906623Y497489D01*
X902066Y495601D01*
X897134Y495601D01*
X892577Y497489D01*
X889089Y500977D01*
X888689Y501942D01*
X888519Y502193D01*
X888265Y502359D01*
X887985Y502412D01*
X853530Y502412D01*
X853233Y502352D01*
X852991Y502189D01*
X809721Y458919D01*
X809554Y458666D01*
X809498Y458380D01*
X809498Y423492D01*
X809558Y423194D01*
X809730Y422944D01*
X809985Y422781D01*
X810260Y422730D01*
X815118Y422730D01*
X816011Y421837D01*
X816011Y376417D01*
X815118Y375525D01*
X806958Y375525D01*
X806661Y375464D01*
X806411Y375293D01*
X806247Y375037D01*
X806196Y374763D01*
X806196Y358463D01*
X784537Y336804D01*
X730243Y336804D01*
X729945Y336744D01*
X729704Y336581D01*
X707067Y313944D01*
X620083Y313944D01*
X603507Y330520D01*
X603254Y330688D01*
X602956Y330743D01*
X602660Y330678D01*
X602412Y330503D01*
X602253Y330245D01*
X602206Y329981D01*
X602206Y327173D01*
X602266Y326875D01*
X602429Y326634D01*
X626834Y302229D01*
X627087Y302062D01*
X627373Y302006D01*
X642167Y302006D01*
X642464Y302066D01*
X642705Y302229D01*
X645502Y305026D01*
X649898Y305026D01*
X653006Y301918D01*
X653006Y297522D01*
X649898Y294414D01*
X645502Y294414D01*
X642705Y297211D01*
X642453Y297378D01*
X642167Y297434D01*
X625163Y297434D01*
X599196Y323401D01*
X598943Y323568D01*
X598657Y323624D01*
X594702Y323624D01*
X591594Y326732D01*
X591594Y331128D01*
X594702Y334236D01*
X597951Y334236D01*
X598249Y334296D01*
X598499Y334468D01*
X598662Y334723D01*
X598713Y335022D01*
X598643Y335317D01*
X598490Y335537D01*
X590610Y343417D01*
X590357Y343584D01*
X590071Y343640D01*
X577783Y343640D01*
X577485Y343580D01*
X577235Y343408D01*
X577072Y343153D01*
X577021Y342878D01*
X577021Y339472D01*
X576128Y338579D01*
X556712Y338579D01*
X555820Y339472D01*
X555820Y342878D01*
X555759Y343175D01*
X555588Y343425D01*
X555332Y343589D01*
X555058Y343640D01*
X461489Y343640D01*
X461191Y343580D01*
X460950Y343417D01*
X450029Y332496D01*
X449862Y332243D01*
X449806Y331957D01*
X449806Y328002D01*
X446698Y324894D01*
X442302Y324894D01*
X439194Y328002D01*
X439194Y330392D01*
X439134Y330689D01*
X438962Y330939D01*
X438707Y331103D01*
X438408Y331153D01*
X438113Y331084D01*
X437893Y330931D01*
X437611Y330649D01*
X437444Y330396D01*
X437388Y330110D01*
X437388Y60999D01*
X437448Y60702D01*
X437611Y60460D01*
X439552Y58520D01*
X440944Y55159D01*
X440944Y36281D01*
X439552Y32920D01*
X436980Y30348D01*
X433619Y28956D01*
X429981Y28956D01*
X426620Y30348D01*
X424048Y32920D01*
X422656Y36281D01*
X422656Y55159D01*
X424048Y58520D01*
X425989Y60460D01*
X426156Y60713D01*
X426212Y60999D01*
X426212Y85852D01*
X426152Y86149D01*
X425980Y86399D01*
X425725Y86563D01*
X425450Y86614D01*
X424633Y86614D01*
X424336Y86554D01*
X424095Y86391D01*
X421298Y83594D01*
X416902Y83594D01*
X413794Y86702D01*
X413794Y91098D01*
X416902Y94206D01*
X421298Y94206D01*
X424095Y91409D01*
X424347Y91242D01*
X424633Y91186D01*
X425450Y91186D01*
X425747Y91246D01*
X425997Y91418D01*
X426161Y91673D01*
X426212Y91948D01*
X426212Y333852D01*
X427063Y335905D01*
X454035Y362877D01*
X456088Y363728D01*
X482510Y363728D01*
X482807Y363788D01*
X483049Y363951D01*
X497109Y378011D01*
X497276Y378264D01*
X497332Y378550D01*
X497332Y430372D01*
X498183Y432425D01*
X537932Y472174D01*
X538099Y472427D01*
X538155Y472713D01*
X538155Y500636D01*
X538095Y500933D01*
X537932Y501175D01*
X537504Y501603D01*
X537504Y521131D01*
X538396Y522024D01*
X549004Y522024D01*
X549897Y521131D01*
X549897Y517674D01*
X549957Y517377D01*
X550128Y517127D01*
X550384Y516963D01*
X550659Y516912D01*
X561988Y516912D01*
X562285Y516972D01*
X562535Y517144D01*
X562698Y517399D01*
X562750Y517674D01*
X562750Y517778D01*
X563642Y518671D01*
X574802Y518671D01*
X575099Y518731D01*
X575349Y518903D01*
X575513Y519158D01*
X575564Y519433D01*
X575564Y523237D01*
X575504Y523534D01*
X575332Y523784D01*
X575077Y523948D01*
X574802Y523999D01*
X563642Y523999D01*
X562750Y524892D01*
X562750Y537800D01*
X563642Y538693D01*
X592058Y538693D01*
X592951Y537800D01*
X592951Y524892D01*
X592058Y523999D01*
X580898Y523999D01*
X580601Y523939D01*
X580351Y523767D01*
X580187Y523512D01*
X580136Y523237D01*
X580136Y519433D01*
X580196Y519136D01*
X580368Y518886D01*
X580623Y518722D01*
X580898Y518671D01*
X592058Y518671D01*
X592951Y517778D01*
X592951Y517674D01*
X593011Y517377D01*
X593182Y517127D01*
X593438Y516963D01*
X593713Y516912D01*
X602308Y516912D01*
X604361Y516061D01*
X619311Y501111D01*
X619564Y500944D01*
X619850Y500888D01*
X628424Y500888D01*
X628721Y500948D01*
X628971Y501120D01*
X629135Y501375D01*
X629186Y501650D01*
X629186Y511931D01*
X630079Y512824D01*
X640111Y512824D01*
X640408Y512884D01*
X640658Y513056D01*
X640822Y513311D01*
X640873Y513586D01*
X640873Y596738D01*
X640813Y597035D01*
X640641Y597285D01*
X640386Y597448D01*
X640111Y597500D01*
X627012Y597500D01*
X626119Y598392D01*
X626119Y606044D01*
X626059Y606341D01*
X625887Y606591D01*
X625632Y606755D01*
X625357Y606806D01*
X610983Y606806D01*
X595966Y621823D01*
X595713Y621990D01*
X595427Y622046D01*
X548585Y622046D01*
X548288Y621986D01*
X548047Y621823D01*
X545758Y619534D01*
X541362Y619534D01*
X538254Y622642D01*
X538254Y627038D01*
X541362Y630146D01*
X545758Y630146D01*
X548047Y627857D01*
X548299Y627690D01*
X548585Y627634D01*
X598057Y627634D01*
X613074Y612617D01*
X613327Y612450D01*
X613613Y612394D01*
X625357Y612394D01*
X625654Y612454D01*
X625904Y612626D01*
X626068Y612881D01*
X626119Y613156D01*
X626119Y620808D01*
X627012Y621701D01*
X640111Y621701D01*
X640408Y621761D01*
X640658Y621932D01*
X640822Y622188D01*
X640873Y622463D01*
X640873Y852049D01*
X640813Y852346D01*
X640650Y852588D01*
X602265Y890973D01*
X602012Y891140D01*
X601714Y891196D01*
X601418Y891131D01*
X601170Y890955D01*
X601011Y890697D01*
X600964Y890434D01*
X600964Y803855D01*
X601024Y803558D01*
X601187Y803317D01*
X602206Y802298D01*
X602206Y797902D01*
X599098Y794794D01*
X597657Y794794D01*
X597360Y794734D01*
X597118Y794571D01*
X524987Y722440D01*
X524820Y722187D01*
X524764Y721901D01*
X524764Y601218D01*
X524824Y600921D01*
X524996Y600671D01*
X525251Y600507D01*
X525526Y600456D01*
X540788Y600456D01*
X541085Y600516D01*
X541335Y600688D01*
X541498Y600943D01*
X541550Y601218D01*
X541550Y604745D01*
X542442Y605638D01*
X561660Y605638D01*
X562553Y604745D01*
X562553Y591595D01*
X561660Y590703D01*
X542442Y590703D01*
X541550Y591595D01*
X541550Y595122D01*
X541489Y595419D01*
X541318Y595669D01*
X541062Y595833D01*
X540788Y595884D01*
X525526Y595884D01*
X525229Y595824D01*
X524979Y595652D01*
X524815Y595397D01*
X524764Y595122D01*
X524764Y584632D01*
X524824Y584334D01*
X524996Y584084D01*
X525251Y583921D01*
X525526Y583870D01*
X537289Y583870D01*
X538182Y582977D01*
X538182Y563449D01*
X537289Y562557D01*
X525526Y562557D01*
X525229Y562496D01*
X524979Y562325D01*
X524815Y562069D01*
X524764Y561795D01*
X524764Y522786D01*
X524824Y522488D01*
X524996Y522238D01*
X525251Y522075D01*
X525526Y522024D01*
X526004Y522024D01*
X526897Y521131D01*
X526897Y501603D01*
X526004Y500711D01*
X523748Y500711D01*
X523451Y500650D01*
X523201Y500479D01*
X523037Y500223D01*
X522986Y499949D01*
X522986Y493257D01*
X523046Y492960D01*
X523218Y492710D01*
X523473Y492546D01*
X523748Y492495D01*
X526792Y492495D01*
X527685Y491602D01*
X527685Y476138D01*
X526792Y475245D01*
X515218Y475245D01*
X514325Y476138D01*
X514325Y491602D01*
X515218Y492495D01*
X517652Y492495D01*
X517949Y492555D01*
X518199Y492727D01*
X518363Y492982D01*
X518414Y493257D01*
X518414Y499949D01*
X518354Y500246D01*
X518182Y500496D01*
X517927Y500659D01*
X517652Y500711D01*
X515396Y500711D01*
X514504Y501603D01*
X514504Y521131D01*
X515396Y522024D01*
X515874Y522024D01*
X516171Y522084D01*
X516421Y522255D01*
X516585Y522511D01*
X516636Y522786D01*
X516636Y561795D01*
X516576Y562092D01*
X516404Y562342D01*
X516149Y562505D01*
X515874Y562557D01*
X504111Y562557D01*
X503219Y563449D01*
X503219Y568387D01*
X503158Y568684D01*
X502987Y568934D01*
X502731Y569098D01*
X502457Y569149D01*
X460363Y569149D01*
X460065Y569089D01*
X459815Y568917D01*
X459652Y568662D01*
X459601Y568387D01*
X459601Y565830D01*
X458708Y564937D01*
X430292Y564937D01*
X429400Y565830D01*
X429400Y567458D01*
X429339Y567755D01*
X429168Y568005D01*
X428912Y568169D01*
X428638Y568220D01*
X424423Y568220D01*
X424126Y568160D01*
X423884Y567997D01*
X410687Y554800D01*
X410520Y554547D01*
X410464Y554261D01*
X410464Y62063D01*
X410524Y61766D01*
X410696Y61516D01*
X410934Y61359D01*
X411580Y61092D01*
X414152Y58520D01*
X415544Y55159D01*
X415544Y36281D01*
X414152Y32920D01*
X411580Y30348D01*
X408219Y28956D01*
X404581Y28956D01*
G37*
G36*
X94808Y612376D02*
X90389Y614207D01*
X87007Y617589D01*
X85176Y622008D01*
X85176Y626792D01*
X87007Y631211D01*
X90389Y634593D01*
X92666Y635536D01*
X92917Y635706D01*
X93083Y635960D01*
X93136Y636240D01*
X93136Y672483D01*
X146843Y726190D01*
X147010Y726443D01*
X147066Y726729D01*
X147066Y747014D01*
X147006Y747311D01*
X146834Y747561D01*
X146579Y747725D01*
X146304Y747776D01*
X109223Y747776D01*
X108926Y747716D01*
X108675Y747544D01*
X108519Y747306D01*
X107393Y744589D01*
X104011Y741207D01*
X99592Y739376D01*
X94808Y739376D01*
X90389Y741207D01*
X87007Y744589D01*
X85176Y749008D01*
X85176Y753792D01*
X87007Y758211D01*
X90389Y761593D01*
X94808Y763424D01*
X99592Y763424D01*
X104011Y761593D01*
X107393Y758211D01*
X108154Y756374D01*
X108324Y756123D01*
X108578Y755957D01*
X108858Y755904D01*
X146304Y755904D01*
X146601Y755964D01*
X146851Y756136D01*
X147015Y756391D01*
X147066Y756666D01*
X147066Y842423D01*
X149447Y844804D01*
X183421Y844804D01*
X183718Y844864D01*
X183960Y845027D01*
X251637Y912704D01*
X408315Y912704D01*
X408612Y912764D01*
X408853Y912927D01*
X410552Y914626D01*
X414948Y914626D01*
X418056Y911518D01*
X418056Y907122D01*
X414948Y904014D01*
X410552Y904014D01*
X410213Y904353D01*
X409961Y904520D01*
X409675Y904576D01*
X379896Y904576D01*
X379599Y904516D01*
X379348Y904344D01*
X379185Y904089D01*
X379134Y903790D01*
X379204Y903495D01*
X379357Y903275D01*
X381425Y901208D01*
X370567Y890350D01*
X365193Y895725D01*
X372743Y903275D01*
X372910Y903528D01*
X372966Y903826D01*
X372901Y904122D01*
X372725Y904370D01*
X372467Y904529D01*
X372204Y904576D01*
X255319Y904576D01*
X255022Y904516D01*
X254780Y904353D01*
X187103Y836676D01*
X155956Y836676D01*
X155659Y836616D01*
X155409Y836444D01*
X155245Y836189D01*
X155194Y835914D01*
X155194Y723047D01*
X101487Y669340D01*
X101320Y669087D01*
X101264Y668801D01*
X101264Y636240D01*
X101324Y635943D01*
X101496Y635693D01*
X101734Y635536D01*
X104011Y634593D01*
X107393Y631211D01*
X109224Y626792D01*
X109224Y622008D01*
X107393Y617589D01*
X104011Y614207D01*
X99592Y612376D01*
X94808Y612376D01*
G37*
G36*
X371645Y889273D02*
X382502Y900130D01*
X386825Y895807D01*
X386825Y893703D01*
X377020Y883898D01*
X371645Y889273D01*
G37*
G36*
X354310Y882738D02*
X354310Y884842D01*
X364115Y894647D01*
X369490Y889273D01*
X358632Y878415D01*
X354310Y882738D01*
G37*
G36*
X364033Y873015D02*
X359710Y877338D01*
X370567Y888195D01*
X375942Y882820D01*
X366137Y873015D01*
X364033Y873015D01*
G37*
G36*
X214105Y589146D02*
X210788Y590520D01*
X208250Y593058D01*
X207373Y595176D01*
X207203Y595427D01*
X206949Y595593D01*
X206669Y595646D01*
X199615Y595646D01*
X172736Y622525D01*
X172736Y802415D01*
X254225Y883904D01*
X284265Y883904D01*
X284562Y883964D01*
X284803Y884127D01*
X287362Y886686D01*
X291758Y886686D01*
X294866Y883578D01*
X294866Y879182D01*
X291758Y876074D01*
X287362Y876074D01*
X284803Y878633D01*
X284551Y878800D01*
X284265Y878856D01*
X256631Y878856D01*
X256334Y878796D01*
X256092Y878633D01*
X178007Y800548D01*
X177840Y800295D01*
X177784Y800009D01*
X177784Y624931D01*
X177844Y624634D01*
X178007Y624392D01*
X201482Y600917D01*
X201735Y600750D01*
X202021Y600694D01*
X206669Y600694D01*
X206966Y600754D01*
X207216Y600926D01*
X207373Y601164D01*
X208250Y603282D01*
X210788Y605820D01*
X214105Y607194D01*
X217695Y607194D01*
X221012Y605820D01*
X223550Y603282D01*
X224924Y599965D01*
X224924Y596375D01*
X223550Y593058D01*
X221012Y590520D01*
X217695Y589146D01*
X214105Y589146D01*
G37*
G36*
X214105Y614546D02*
X210788Y615920D01*
X208250Y618458D01*
X206876Y621775D01*
X206876Y625365D01*
X207753Y627482D01*
X207811Y627780D01*
X207748Y628077D01*
X207588Y628313D01*
X184166Y651735D01*
X184166Y794795D01*
X263115Y873744D01*
X296965Y873744D01*
X297262Y873804D01*
X297503Y873967D01*
X300062Y876526D01*
X304458Y876526D01*
X307566Y873418D01*
X307566Y869022D01*
X304458Y865914D01*
X300062Y865914D01*
X297503Y868473D01*
X297251Y868640D01*
X296965Y868696D01*
X265521Y868696D01*
X265224Y868636D01*
X264982Y868473D01*
X189437Y792928D01*
X189270Y792675D01*
X189214Y792389D01*
X189214Y654141D01*
X189274Y653844D01*
X189437Y653602D01*
X211157Y631882D01*
X211410Y631715D01*
X211708Y631659D01*
X211988Y631717D01*
X214105Y632594D01*
X217695Y632594D01*
X221012Y631220D01*
X223550Y628682D01*
X224924Y625365D01*
X224924Y621775D01*
X223550Y618458D01*
X221012Y615920D01*
X217695Y614546D01*
X214105Y614546D01*
G37*
G36*
X327093Y857625D02*
X336898Y867430D01*
X339002Y867430D01*
X343325Y863108D01*
X332467Y852250D01*
X327093Y857625D01*
G37*
G36*
X333545Y851173D02*
X344402Y862030D01*
X348725Y857707D01*
X348725Y855603D01*
X338920Y845798D01*
X333545Y851173D01*
G37*
G36*
X721557Y824216D02*
X720664Y825109D01*
X720664Y856371D01*
X721557Y857264D01*
X736819Y857264D01*
X737712Y856371D01*
X737712Y851370D01*
X737772Y851073D01*
X737944Y850823D01*
X738199Y850660D01*
X738498Y850609D01*
X738793Y850679D01*
X739013Y850832D01*
X739522Y851341D01*
X752430Y851341D01*
X753323Y850448D01*
X753323Y831032D01*
X752430Y830140D01*
X739522Y830140D01*
X739013Y830648D01*
X738760Y830816D01*
X738462Y830872D01*
X738166Y830806D01*
X737918Y830631D01*
X737759Y830373D01*
X737712Y830110D01*
X737712Y825109D01*
X736819Y824216D01*
X721557Y824216D01*
G37*
G36*
X316210Y844638D02*
X316210Y846742D01*
X326015Y856547D01*
X331390Y851173D01*
X320532Y840315D01*
X316210Y844638D01*
G37*
G36*
X767121Y841502D02*
X767121Y850869D01*
X768609Y852357D01*
X774722Y852357D01*
X774722Y841502D01*
X767121Y841502D01*
G37*
G36*
X776246Y841502D02*
X776246Y852357D01*
X782359Y852357D01*
X783847Y850869D01*
X783847Y841502D01*
X776246Y841502D01*
G37*
G36*
X325933Y834915D02*
X321610Y839238D01*
X332467Y850095D01*
X337842Y844720D01*
X328037Y834915D01*
X325933Y834915D01*
G37*
G36*
X776246Y829124D02*
X776246Y839978D01*
X783847Y839978D01*
X783847Y830611D01*
X782359Y829124D01*
X776246Y829124D01*
G37*
G36*
X768609Y829124D02*
X767121Y830611D01*
X767121Y839978D01*
X774722Y839978D01*
X774722Y829124D01*
X768609Y829124D01*
G37*
G36*
X721557Y758176D02*
X720664Y759069D01*
X720664Y790331D01*
X721557Y791224D01*
X736819Y791224D01*
X737712Y790331D01*
X737712Y785330D01*
X737772Y785033D01*
X737944Y784783D01*
X738199Y784620D01*
X738498Y784569D01*
X738793Y784639D01*
X739013Y784792D01*
X739522Y785301D01*
X752430Y785301D01*
X753323Y784408D01*
X753323Y764992D01*
X752430Y764100D01*
X739522Y764100D01*
X739013Y764608D01*
X738760Y764776D01*
X738462Y764832D01*
X738166Y764766D01*
X737918Y764591D01*
X737759Y764333D01*
X737712Y764070D01*
X737712Y759069D01*
X736819Y758176D01*
X721557Y758176D01*
G37*
G36*
X690661Y758176D02*
X689768Y759069D01*
X689768Y771652D01*
X689708Y771949D01*
X689536Y772199D01*
X689281Y772363D01*
X689006Y772414D01*
X678633Y772414D01*
X678336Y772354D01*
X678095Y772191D01*
X675298Y769394D01*
X670902Y769394D01*
X667794Y772502D01*
X667794Y776898D01*
X670902Y780006D01*
X675298Y780006D01*
X678095Y777209D01*
X678347Y777042D01*
X678633Y776986D01*
X689006Y776986D01*
X689303Y777046D01*
X689553Y777218D01*
X689717Y777473D01*
X689768Y777748D01*
X689768Y790331D01*
X690661Y791224D01*
X705923Y791224D01*
X706816Y790331D01*
X706816Y759069D01*
X705923Y758176D01*
X690661Y758176D01*
G37*
G36*
X767121Y775462D02*
X767121Y784829D01*
X768609Y786317D01*
X774722Y786317D01*
X774722Y775462D01*
X767121Y775462D01*
G37*
G36*
X776246Y775462D02*
X776246Y786317D01*
X782359Y786317D01*
X783847Y784829D01*
X783847Y775462D01*
X776246Y775462D01*
G37*
G36*
X776246Y763084D02*
X776246Y773938D01*
X783847Y773938D01*
X783847Y764571D01*
X782359Y763084D01*
X776246Y763084D01*
G37*
G36*
X768609Y763084D02*
X767121Y764571D01*
X767121Y773938D01*
X774722Y773938D01*
X774722Y763084D01*
X768609Y763084D01*
G37*
G36*
X55962Y752162D02*
X55962Y764440D01*
X57794Y764440D01*
X62587Y762455D01*
X66255Y758787D01*
X68240Y753994D01*
X68240Y752162D01*
X55962Y752162D01*
G37*
G36*
X42160Y752162D02*
X42160Y753994D01*
X44145Y758787D01*
X47813Y762455D01*
X52606Y764440D01*
X54438Y764440D01*
X54438Y752162D01*
X42160Y752162D01*
G37*
G36*
X52606Y738360D02*
X47813Y740345D01*
X44145Y744013D01*
X42160Y748806D01*
X42160Y750638D01*
X54438Y750638D01*
X54438Y738360D01*
X52606Y738360D01*
G37*
G36*
X55962Y738360D02*
X55962Y750638D01*
X68240Y750638D01*
X68240Y748806D01*
X66255Y744013D01*
X62587Y740345D01*
X57794Y738360D01*
X55962Y738360D01*
G37*
G36*
X94808Y684376D02*
X90389Y686207D01*
X87007Y689589D01*
X85176Y694008D01*
X85176Y698792D01*
X87007Y703211D01*
X90389Y706593D01*
X94808Y708424D01*
X99592Y708424D01*
X104011Y706593D01*
X107393Y703211D01*
X109224Y698792D01*
X109224Y694008D01*
X107393Y689589D01*
X104011Y686207D01*
X99592Y684376D01*
X94808Y684376D01*
G37*
G36*
X207769Y639946D02*
X206876Y640839D01*
X206876Y657101D01*
X207769Y657994D01*
X224031Y657994D01*
X224924Y657101D01*
X224924Y640839D01*
X224031Y639946D01*
X207769Y639946D01*
G37*
G36*
X42160Y625162D02*
X42160Y626994D01*
X44145Y631787D01*
X47813Y635455D01*
X52606Y637440D01*
X54438Y637440D01*
X54438Y625162D01*
X42160Y625162D01*
G37*
G36*
X55962Y625162D02*
X55962Y637440D01*
X57794Y637440D01*
X62587Y635455D01*
X66255Y631787D01*
X68240Y626994D01*
X68240Y625162D01*
X55962Y625162D01*
G37*
G36*
X55962Y611360D02*
X55962Y623638D01*
X68240Y623638D01*
X68240Y621806D01*
X66255Y617013D01*
X62587Y613345D01*
X57794Y611360D01*
X55962Y611360D01*
G37*
G36*
X52606Y611360D02*
X47813Y613345D01*
X44145Y617013D01*
X42160Y621806D01*
X42160Y623638D01*
X54438Y623638D01*
X54438Y611360D01*
X52606Y611360D01*
G37*
G36*
X715741Y610362D02*
X715741Y622717D01*
X734849Y622717D01*
X736337Y621229D01*
X736337Y610362D01*
X715741Y610362D01*
G37*
G36*
X693621Y610362D02*
X693621Y621229D01*
X695109Y622717D01*
X714217Y622717D01*
X714217Y610362D01*
X693621Y610362D01*
G37*
G36*
X900888Y571840D02*
X894489Y573555D01*
X888751Y576867D01*
X884067Y581551D01*
X880755Y587289D01*
X879040Y593688D01*
X879040Y600312D01*
X880755Y606711D01*
X884067Y612449D01*
X888751Y617133D01*
X894489Y620445D01*
X900888Y622160D01*
X907512Y622160D01*
X913911Y620445D01*
X919649Y617133D01*
X924333Y612449D01*
X927645Y606711D01*
X929360Y600312D01*
X929360Y593688D01*
X927645Y587289D01*
X924333Y581551D01*
X919649Y576867D01*
X913911Y573555D01*
X907512Y571840D01*
X900888Y571840D01*
G37*
G36*
X695109Y596484D02*
X693621Y597971D01*
X693621Y608838D01*
X714217Y608838D01*
X714217Y596484D01*
X695109Y596484D01*
G37*
G36*
X715741Y596484D02*
X715741Y608838D01*
X736337Y608838D01*
X736337Y597971D01*
X734849Y596484D01*
X715741Y596484D01*
G37*
G36*
X579011Y598932D02*
X579011Y606654D01*
X588279Y606654D01*
X589767Y605166D01*
X589767Y598932D01*
X579011Y598932D01*
G37*
G36*
X566732Y598932D02*
X566732Y605166D01*
X568219Y606654D01*
X577487Y606654D01*
X577487Y598932D01*
X566732Y598932D01*
G37*
G36*
X568219Y589687D02*
X566732Y591174D01*
X566732Y597408D01*
X577487Y597408D01*
X577487Y589687D01*
X568219Y589687D01*
G37*
G36*
X579011Y589687D02*
X579011Y597408D01*
X589767Y597408D01*
X589767Y591174D01*
X588279Y589687D01*
X579011Y589687D01*
G37*
G36*
X205860Y573532D02*
X205860Y574767D01*
X207389Y578457D01*
X210213Y581282D01*
X213903Y582810D01*
X215138Y582810D01*
X215138Y573532D01*
X205860Y573532D01*
G37*
G36*
X216662Y573532D02*
X216662Y582810D01*
X217897Y582810D01*
X221587Y581282D01*
X224412Y578457D01*
X225940Y574767D01*
X225940Y573532D01*
X216662Y573532D01*
G37*
G36*
X52808Y557376D02*
X48389Y559207D01*
X45007Y562589D01*
X43176Y567008D01*
X43176Y571792D01*
X45007Y576211D01*
X48389Y579593D01*
X52808Y581424D01*
X57592Y581424D01*
X62011Y579593D01*
X65393Y576211D01*
X67224Y571792D01*
X67224Y567008D01*
X65393Y562589D01*
X62011Y559207D01*
X57592Y557376D01*
X52808Y557376D01*
G37*
G36*
X94808Y557376D02*
X90389Y559207D01*
X87007Y562589D01*
X85176Y567008D01*
X85176Y571792D01*
X87007Y576211D01*
X90389Y579593D01*
X94808Y581424D01*
X99592Y581424D01*
X104011Y579593D01*
X107393Y576211D01*
X109224Y571792D01*
X109224Y567008D01*
X107393Y562589D01*
X104011Y559207D01*
X99592Y557376D01*
X94808Y557376D01*
G37*
G36*
X213903Y562730D02*
X210213Y564259D01*
X207389Y567083D01*
X205860Y570773D01*
X205860Y572008D01*
X215138Y572008D01*
X215138Y562730D01*
X213903Y562730D01*
G37*
G36*
X216662Y562730D02*
X216662Y572008D01*
X225940Y572008D01*
X225940Y570773D01*
X224412Y567083D01*
X221587Y564259D01*
X217897Y562730D01*
X216662Y562730D01*
G37*
G36*
X578612Y561616D02*
X578612Y569217D01*
X592479Y569217D01*
X593967Y567729D01*
X593967Y561616D01*
X578612Y561616D01*
G37*
G36*
X561734Y561616D02*
X561734Y567729D01*
X563221Y569217D01*
X577088Y569217D01*
X577088Y561616D01*
X561734Y561616D01*
G37*
G36*
X900362Y550762D02*
X900362Y563415D01*
X902268Y563415D01*
X907199Y561373D01*
X910973Y557599D01*
X913015Y552668D01*
X913015Y550762D01*
X900362Y550762D01*
G37*
G36*
X955362Y550762D02*
X955362Y563415D01*
X957268Y563415D01*
X962199Y561373D01*
X965973Y557599D01*
X968015Y552668D01*
X968015Y550762D01*
X955362Y550762D01*
G37*
G36*
X941185Y550762D02*
X941185Y552668D01*
X943227Y557599D01*
X947001Y561373D01*
X951932Y563415D01*
X953838Y563415D01*
X953838Y550762D01*
X941185Y550762D01*
G37*
G36*
X886185Y550762D02*
X886185Y552668D01*
X888227Y557599D01*
X892001Y561373D01*
X896932Y563415D01*
X898838Y563415D01*
X898838Y550762D01*
X886185Y550762D01*
G37*
G36*
X578612Y552491D02*
X578612Y560092D01*
X593967Y560092D01*
X593967Y553979D01*
X592479Y552491D01*
X578612Y552491D01*
G37*
G36*
X563221Y552491D02*
X561734Y553979D01*
X561734Y560092D01*
X577088Y560092D01*
X577088Y552491D01*
X563221Y552491D01*
G37*
G36*
X445262Y543538D02*
X445262Y551139D01*
X459129Y551139D01*
X460617Y549651D01*
X460617Y543538D01*
X445262Y543538D01*
G37*
G36*
X428384Y543538D02*
X428384Y549651D01*
X429871Y551139D01*
X443738Y551139D01*
X443738Y543538D01*
X428384Y543538D01*
G37*
G36*
X896932Y536585D02*
X892001Y538627D01*
X888227Y542401D01*
X886185Y547332D01*
X886185Y549238D01*
X898838Y549238D01*
X898838Y536585D01*
X896932Y536585D01*
G37*
G36*
X955362Y536585D02*
X955362Y549238D01*
X968015Y549238D01*
X968015Y547332D01*
X965973Y542401D01*
X962199Y538627D01*
X957268Y536585D01*
X955362Y536585D01*
G37*
G36*
X951932Y536585D02*
X947001Y538627D01*
X943227Y542401D01*
X941185Y547332D01*
X941185Y549238D01*
X953838Y549238D01*
X953838Y536585D01*
X951932Y536585D01*
G37*
G36*
X900362Y536585D02*
X900362Y549238D01*
X913015Y549238D01*
X913015Y547332D01*
X910973Y542401D01*
X907199Y538627D01*
X902268Y536585D01*
X900362Y536585D01*
G37*
G36*
X429871Y534413D02*
X428384Y535901D01*
X428384Y542014D01*
X443738Y542014D01*
X443738Y534413D01*
X429871Y534413D01*
G37*
G36*
X445262Y534413D02*
X445262Y542014D01*
X460617Y542014D01*
X460617Y535901D01*
X459129Y534413D01*
X445262Y534413D01*
G37*
G36*
X496828Y475245D02*
X495935Y476138D01*
X495935Y480517D01*
X495875Y480814D01*
X495703Y481064D01*
X495448Y481228D01*
X495173Y481279D01*
X485637Y481279D01*
X485340Y481219D01*
X485090Y481047D01*
X484926Y480792D01*
X484875Y480517D01*
X484875Y477778D01*
X483982Y476885D01*
X468518Y476885D01*
X467625Y477778D01*
X467625Y489352D01*
X468518Y490245D01*
X483982Y490245D01*
X484875Y489352D01*
X484875Y486613D01*
X484935Y486316D01*
X485107Y486066D01*
X485362Y485902D01*
X485637Y485851D01*
X488442Y485851D01*
X488739Y485911D01*
X488989Y486083D01*
X489153Y486338D01*
X489204Y486613D01*
X489204Y491167D01*
X495191Y497154D01*
X495358Y497407D01*
X495414Y497693D01*
X495414Y499949D01*
X495354Y500246D01*
X495182Y500496D01*
X494927Y500659D01*
X494652Y500711D01*
X492396Y500711D01*
X491504Y501603D01*
X491504Y521131D01*
X492396Y522024D01*
X503004Y522024D01*
X503897Y521131D01*
X503897Y501603D01*
X503004Y500711D01*
X500748Y500711D01*
X500451Y500650D01*
X500201Y500479D01*
X500037Y500223D01*
X499986Y499949D01*
X499986Y495483D01*
X498299Y493796D01*
X498131Y493543D01*
X498076Y493245D01*
X498141Y492949D01*
X498316Y492701D01*
X498574Y492542D01*
X498838Y492495D01*
X508402Y492495D01*
X509295Y491602D01*
X509295Y476138D01*
X508402Y475245D01*
X496828Y475245D01*
G37*
G36*
X477012Y502717D02*
X477012Y509651D01*
X484403Y509651D01*
X485891Y508163D01*
X485891Y502717D01*
X477012Y502717D01*
G37*
G36*
X466609Y502717D02*
X466609Y508163D01*
X468097Y509651D01*
X475488Y509651D01*
X475488Y502717D01*
X466609Y502717D01*
G37*
G36*
X468097Y494259D02*
X466609Y495747D01*
X466609Y501193D01*
X475488Y501193D01*
X475488Y494259D01*
X468097Y494259D01*
G37*
G36*
X477012Y494259D02*
X477012Y501193D01*
X485891Y501193D01*
X485891Y495747D01*
X484403Y494259D01*
X477012Y494259D01*
G37*
G36*
X578612Y482578D02*
X578612Y490179D01*
X592479Y490179D01*
X593967Y488691D01*
X593967Y482578D01*
X578612Y482578D01*
G37*
G36*
X561734Y482578D02*
X561734Y488691D01*
X563221Y490179D01*
X577088Y490179D01*
X577088Y482578D01*
X561734Y482578D01*
G37*
G36*
X563221Y473453D02*
X561734Y474941D01*
X561734Y481054D01*
X577088Y481054D01*
X577088Y473453D01*
X563221Y473453D01*
G37*
G36*
X578612Y473453D02*
X578612Y481054D01*
X593967Y481054D01*
X593967Y474941D01*
X592479Y473453D01*
X578612Y473453D01*
G37*
G36*
X757022Y467622D02*
X757022Y479100D01*
X758510Y480588D01*
X766318Y480588D01*
X766318Y467622D01*
X757022Y467622D01*
G37*
G36*
X767842Y467622D02*
X767842Y480588D01*
X775650Y480588D01*
X777138Y479100D01*
X777138Y467622D01*
X767842Y467622D01*
G37*
G36*
X886185Y466762D02*
X886185Y468668D01*
X888227Y473599D01*
X892001Y477373D01*
X896932Y479415D01*
X898838Y479415D01*
X898838Y466762D01*
X886185Y466762D01*
G37*
G36*
X900362Y466762D02*
X900362Y479415D01*
X902268Y479415D01*
X907199Y477373D01*
X910973Y473599D01*
X913015Y468668D01*
X913015Y466762D01*
X900362Y466762D01*
G37*
G36*
X57544Y471446D02*
X57544Y477559D01*
X59031Y479047D01*
X72898Y479047D01*
X72898Y471446D01*
X57544Y471446D01*
G37*
G36*
X74422Y471446D02*
X74422Y479047D01*
X88289Y479047D01*
X89777Y477559D01*
X89777Y471446D01*
X74422Y471446D01*
G37*
G36*
X831794Y51054D02*
X827220Y52949D01*
X823719Y56450D01*
X821824Y61024D01*
X821824Y65976D01*
X823603Y70269D01*
X823661Y70567D01*
X823598Y70864D01*
X823437Y71100D01*
X797814Y96723D01*
X797814Y153162D01*
X797754Y153459D01*
X797582Y153709D01*
X797327Y153873D01*
X797052Y153924D01*
X791087Y153924D01*
X790194Y154817D01*
X790194Y160782D01*
X790134Y161079D01*
X789962Y161329D01*
X789707Y161493D01*
X789432Y161544D01*
X735333Y161544D01*
X735036Y161484D01*
X734786Y161312D01*
X734622Y161057D01*
X734571Y160782D01*
X734571Y154122D01*
X733678Y153230D01*
X720770Y153230D01*
X719877Y154122D01*
X719877Y173538D01*
X720552Y174213D01*
X720720Y174466D01*
X720776Y174764D01*
X720710Y175060D01*
X720535Y175308D01*
X720277Y175467D01*
X720014Y175514D01*
X711708Y175514D01*
X711411Y175454D01*
X711161Y175282D01*
X710997Y175027D01*
X710946Y174752D01*
X710946Y149863D01*
X711006Y149566D01*
X711178Y149316D01*
X711433Y149152D01*
X711708Y149101D01*
X723448Y149101D01*
X724341Y148208D01*
X724341Y135300D01*
X723448Y134407D01*
X704032Y134407D01*
X703140Y135300D01*
X703140Y148208D01*
X704032Y149101D01*
X705612Y149101D01*
X705909Y149161D01*
X706159Y149333D01*
X706323Y149588D01*
X706374Y149863D01*
X706374Y153594D01*
X706314Y153891D01*
X706142Y154141D01*
X705887Y154304D01*
X705588Y154355D01*
X705293Y154285D01*
X705073Y154132D01*
X704170Y153230D01*
X691262Y153230D01*
X690152Y154339D01*
X689899Y154507D01*
X689601Y154563D01*
X689305Y154497D01*
X689057Y154322D01*
X688898Y154064D01*
X688851Y153801D01*
X688851Y143962D01*
X687958Y143070D01*
X684552Y143070D01*
X684255Y143009D01*
X684005Y142838D01*
X683841Y142582D01*
X683790Y142308D01*
X683790Y138363D01*
X683850Y138065D01*
X684022Y137815D01*
X684277Y137652D01*
X684552Y137601D01*
X687958Y137601D01*
X688851Y136708D01*
X688851Y117292D01*
X687958Y116400D01*
X675050Y116400D01*
X674157Y117292D01*
X674157Y136708D01*
X675050Y137601D01*
X678456Y137601D01*
X678753Y137661D01*
X679003Y137832D01*
X679167Y138088D01*
X679218Y138363D01*
X679218Y142308D01*
X679158Y142605D01*
X678986Y142855D01*
X678731Y143018D01*
X678456Y143070D01*
X675050Y143070D01*
X674157Y143962D01*
X674157Y163378D01*
X675050Y164271D01*
X680212Y164271D01*
X680509Y164331D01*
X680759Y164502D01*
X680923Y164758D01*
X680974Y165033D01*
X680974Y180918D01*
X680914Y181215D01*
X680742Y181465D01*
X680487Y181629D01*
X680212Y181680D01*
X679621Y181680D01*
X678729Y182573D01*
X678729Y190478D01*
X678668Y190775D01*
X678497Y191025D01*
X678241Y191189D01*
X677967Y191240D01*
X662873Y191240D01*
X662575Y191180D01*
X662325Y191008D01*
X662162Y190753D01*
X662111Y190478D01*
X662111Y187072D01*
X661218Y186179D01*
X641802Y186179D01*
X640910Y187072D01*
X640910Y199980D01*
X641802Y200873D01*
X661218Y200873D01*
X662111Y199980D01*
X662111Y196574D01*
X662171Y196277D01*
X662342Y196027D01*
X662598Y195863D01*
X662873Y195812D01*
X677967Y195812D01*
X678264Y195872D01*
X678514Y196044D01*
X678677Y196299D01*
X678729Y196574D01*
X678729Y204835D01*
X679621Y205728D01*
X686899Y205728D01*
X687792Y204835D01*
X687792Y182573D01*
X686899Y181680D01*
X686308Y181680D01*
X686011Y181620D01*
X685761Y181448D01*
X685597Y181193D01*
X685546Y180918D01*
X685546Y165033D01*
X685606Y164735D01*
X685778Y164485D01*
X686033Y164322D01*
X686308Y164271D01*
X687958Y164271D01*
X689068Y163161D01*
X689321Y162993D01*
X689619Y162938D01*
X689915Y163003D01*
X690163Y163178D01*
X690322Y163436D01*
X690369Y163699D01*
X690369Y173538D01*
X691262Y174431D01*
X692912Y174431D01*
X693209Y174491D01*
X693459Y174662D01*
X693623Y174918D01*
X693674Y175193D01*
X693674Y180918D01*
X693614Y181215D01*
X693442Y181465D01*
X693187Y181629D01*
X692912Y181680D01*
X692321Y181680D01*
X691429Y182573D01*
X691429Y204835D01*
X692321Y205728D01*
X692912Y205728D01*
X693209Y205788D01*
X693459Y205960D01*
X693623Y206215D01*
X693674Y206490D01*
X693674Y214307D01*
X706443Y227076D01*
X741157Y227076D01*
X741455Y227136D01*
X741696Y227299D01*
X743665Y229268D01*
X743833Y229521D01*
X743888Y229819D01*
X743830Y230099D01*
X743256Y231485D01*
X743256Y234395D01*
X744370Y237083D01*
X746427Y239141D01*
X749115Y240254D01*
X752025Y240254D01*
X754713Y239141D01*
X756771Y237083D01*
X757884Y234395D01*
X757884Y231485D01*
X756771Y228797D01*
X754813Y226839D01*
X754645Y226586D01*
X754590Y226288D01*
X754655Y225992D01*
X754830Y225745D01*
X755060Y225596D01*
X755289Y225502D01*
X757632Y223159D01*
X758900Y220097D01*
X758900Y219202D01*
X742240Y219202D01*
X742240Y220097D01*
X742801Y221450D01*
X742859Y221748D01*
X742796Y222045D01*
X742622Y222294D01*
X742366Y222455D01*
X742097Y222504D01*
X708653Y222504D01*
X708355Y222444D01*
X708114Y222281D01*
X698469Y212636D01*
X698302Y212383D01*
X698246Y212097D01*
X698246Y206490D01*
X698306Y206193D01*
X698478Y205943D01*
X698733Y205779D01*
X699008Y205728D01*
X699599Y205728D01*
X700492Y204835D01*
X700492Y182573D01*
X699599Y181680D01*
X699008Y181680D01*
X698711Y181620D01*
X698461Y181448D01*
X698297Y181193D01*
X698246Y180918D01*
X698246Y175193D01*
X698306Y174895D01*
X698478Y174645D01*
X698733Y174482D01*
X699008Y174431D01*
X704170Y174431D01*
X705073Y173528D01*
X705326Y173360D01*
X705624Y173305D01*
X705920Y173370D01*
X706168Y173545D01*
X706327Y173803D01*
X706374Y174066D01*
X706374Y180918D01*
X706314Y181215D01*
X706142Y181465D01*
X705887Y181629D01*
X705612Y181680D01*
X705021Y181680D01*
X704129Y182573D01*
X704129Y204835D01*
X705021Y205728D01*
X712299Y205728D01*
X713192Y204835D01*
X713192Y182573D01*
X712299Y181680D01*
X711708Y181680D01*
X711411Y181620D01*
X711161Y181448D01*
X710997Y181193D01*
X710946Y180918D01*
X710946Y180848D01*
X711006Y180551D01*
X711178Y180301D01*
X711433Y180137D01*
X711708Y180086D01*
X716039Y180086D01*
X716336Y180146D01*
X716586Y180318D01*
X716750Y180573D01*
X716800Y180872D01*
X716731Y181167D01*
X716578Y181387D01*
X715813Y182152D01*
X715813Y192942D01*
X726908Y192942D01*
X726908Y182152D01*
X726142Y181387D01*
X725975Y181134D01*
X725919Y180836D01*
X725984Y180540D01*
X726160Y180292D01*
X726418Y180133D01*
X726681Y180086D01*
X767087Y180086D01*
X767385Y180146D01*
X767626Y180309D01*
X781081Y193764D01*
X781248Y194017D01*
X781304Y194303D01*
X781304Y260027D01*
X799153Y277876D01*
X833127Y277876D01*
X833425Y277936D01*
X833666Y278099D01*
X874057Y318490D01*
X913419Y318490D01*
X913717Y318550D01*
X913958Y318713D01*
X920781Y325535D01*
X920948Y325788D01*
X921004Y326074D01*
X921004Y375467D01*
X920944Y375764D01*
X920781Y376005D01*
X917984Y378802D01*
X917984Y383198D01*
X921092Y386306D01*
X925488Y386306D01*
X928596Y383198D01*
X928596Y378802D01*
X925799Y376005D01*
X925632Y375753D01*
X925576Y375467D01*
X925576Y323865D01*
X915629Y313918D01*
X876266Y313918D01*
X875969Y313857D01*
X875727Y313694D01*
X835337Y273304D01*
X801363Y273304D01*
X801065Y273244D01*
X800824Y273081D01*
X786099Y258356D01*
X785932Y258103D01*
X785876Y257817D01*
X785876Y192093D01*
X769297Y175514D01*
X734434Y175514D01*
X734137Y175454D01*
X733887Y175282D01*
X733724Y175027D01*
X733673Y174728D01*
X733743Y174433D01*
X733896Y174213D01*
X734571Y173538D01*
X734571Y166878D01*
X734631Y166581D01*
X734803Y166331D01*
X735058Y166167D01*
X735333Y166116D01*
X789432Y166116D01*
X789729Y166176D01*
X789979Y166348D01*
X790143Y166603D01*
X790194Y166878D01*
X790194Y172843D01*
X791087Y173736D01*
X809113Y173736D01*
X810006Y172843D01*
X810006Y154817D01*
X809113Y153924D01*
X803148Y153924D01*
X802851Y153864D01*
X802601Y153692D01*
X802437Y153437D01*
X802386Y153162D01*
X802386Y98933D01*
X802446Y98635D01*
X802609Y98394D01*
X826670Y74333D01*
X826923Y74165D01*
X827221Y74110D01*
X827501Y74167D01*
X831794Y75946D01*
X835265Y75946D01*
X835562Y76006D01*
X835804Y76169D01*
X933803Y174168D01*
X933970Y174421D01*
X934026Y174707D01*
X934026Y299212D01*
X933966Y299509D01*
X933794Y299759D01*
X933539Y299923D01*
X933264Y299974D01*
X931363Y299974D01*
X931066Y299914D01*
X930825Y299751D01*
X928028Y296954D01*
X923632Y296954D01*
X920524Y300062D01*
X920524Y304458D01*
X923632Y307566D01*
X928028Y307566D01*
X930825Y304769D01*
X931077Y304602D01*
X931363Y304546D01*
X933264Y304546D01*
X933561Y304606D01*
X933811Y304778D01*
X933975Y305033D01*
X934026Y305308D01*
X934026Y306366D01*
X935225Y309260D01*
X946503Y320538D01*
X946670Y320791D01*
X946726Y321077D01*
X946726Y456024D01*
X946666Y456321D01*
X946503Y456562D01*
X944089Y458977D01*
X942201Y463534D01*
X942201Y468466D01*
X944089Y473023D01*
X947577Y476511D01*
X952134Y478399D01*
X957066Y478399D01*
X961623Y476511D01*
X965111Y473023D01*
X966999Y468466D01*
X966999Y463534D01*
X965111Y458977D01*
X962697Y456562D01*
X962530Y456310D01*
X962474Y456024D01*
X962474Y315934D01*
X961275Y313040D01*
X949997Y301762D01*
X949830Y301509D01*
X949774Y301223D01*
X949774Y169564D01*
X948575Y166670D01*
X846939Y65034D01*
X846772Y64781D01*
X846716Y64495D01*
X846716Y61024D01*
X844821Y56450D01*
X841320Y52949D01*
X836746Y51054D01*
X831794Y51054D01*
G37*
G36*
X280432Y413509D02*
X279540Y414402D01*
X279540Y417808D01*
X279479Y418105D01*
X279308Y418355D01*
X279052Y418519D01*
X278778Y418570D01*
X271449Y418570D01*
X271152Y418510D01*
X270911Y418347D01*
X270168Y417604D01*
X265772Y417604D01*
X262975Y420401D01*
X262723Y420568D01*
X262437Y420624D01*
X194633Y420624D01*
X184407Y430850D01*
X184154Y431018D01*
X183856Y431073D01*
X183560Y431008D01*
X183312Y430833D01*
X183153Y430575D01*
X183106Y430311D01*
X183106Y428332D01*
X179998Y425224D01*
X175602Y425224D01*
X172494Y428332D01*
X172494Y432728D01*
X174581Y434815D01*
X174748Y435067D01*
X174804Y435353D01*
X174804Y435413D01*
X174744Y435711D01*
X174572Y435961D01*
X174317Y436124D01*
X174018Y436175D01*
X173881Y436143D01*
X171352Y436143D01*
X171352Y456954D01*
X173694Y456954D01*
X174486Y456161D01*
X174739Y455993D01*
X175025Y455938D01*
X179773Y455938D01*
X179801Y455909D01*
X180054Y455742D01*
X180352Y455686D01*
X180648Y455751D01*
X180879Y455909D01*
X180907Y455938D01*
X186273Y455938D01*
X186301Y455909D01*
X186554Y455742D01*
X186852Y455686D01*
X187148Y455751D01*
X187379Y455909D01*
X187581Y456111D01*
X187748Y456364D01*
X187804Y456650D01*
X187804Y459444D01*
X187744Y459741D01*
X187581Y459983D01*
X176360Y471204D01*
X176107Y471371D01*
X175821Y471427D01*
X164539Y471427D01*
X164242Y471367D01*
X164000Y471204D01*
X143479Y450683D01*
X143312Y450430D01*
X143256Y450144D01*
X143256Y431803D01*
X143316Y431506D01*
X143488Y431256D01*
X143743Y431092D01*
X144018Y431041D01*
X150678Y431041D01*
X151571Y430148D01*
X151571Y417240D01*
X150678Y416347D01*
X131262Y416347D01*
X130370Y417240D01*
X130370Y430148D01*
X131262Y431041D01*
X137922Y431041D01*
X138219Y431101D01*
X138469Y431273D01*
X138633Y431528D01*
X138684Y431803D01*
X138684Y452353D01*
X162330Y475999D01*
X178030Y475999D01*
X192376Y461653D01*
X192376Y456650D01*
X192436Y456353D01*
X192599Y456111D01*
X193666Y455045D01*
X193666Y438051D01*
X192773Y437159D01*
X187407Y437159D01*
X187379Y437187D01*
X187126Y437354D01*
X186828Y437410D01*
X186532Y437345D01*
X186301Y437187D01*
X186099Y436985D01*
X185932Y436732D01*
X185876Y436446D01*
X185876Y436163D01*
X185936Y435865D01*
X186099Y435624D01*
X196304Y425419D01*
X196557Y425252D01*
X196843Y425196D01*
X262437Y425196D01*
X262734Y425256D01*
X262975Y425419D01*
X265772Y428216D01*
X270168Y428216D01*
X273276Y425108D01*
X273276Y423904D01*
X273336Y423607D01*
X273508Y423357D01*
X273763Y423193D01*
X274038Y423142D01*
X278778Y423142D01*
X279075Y423202D01*
X279325Y423374D01*
X279488Y423629D01*
X279540Y423904D01*
X279540Y427310D01*
X280432Y428203D01*
X308848Y428203D01*
X309741Y427310D01*
X309741Y414402D01*
X308848Y413509D01*
X280432Y413509D01*
G37*
G36*
X59031Y462321D02*
X57544Y463809D01*
X57544Y469922D01*
X72898Y469922D01*
X72898Y462321D01*
X59031Y462321D01*
G37*
G36*
X74422Y462321D02*
X74422Y469922D01*
X89777Y469922D01*
X89777Y463809D01*
X88289Y462321D01*
X74422Y462321D01*
G37*
G36*
X767842Y453132D02*
X767842Y466098D01*
X777138Y466098D01*
X777138Y454620D01*
X775650Y453132D01*
X767842Y453132D01*
G37*
G36*
X758510Y453132D02*
X757022Y454620D01*
X757022Y466098D01*
X766318Y466098D01*
X766318Y453132D01*
X758510Y453132D01*
G37*
G36*
X900362Y452585D02*
X900362Y465238D01*
X913015Y465238D01*
X913015Y463332D01*
X910973Y458401D01*
X907199Y454627D01*
X902268Y452585D01*
X900362Y452585D01*
G37*
G36*
X896932Y452585D02*
X892001Y454627D01*
X888227Y458401D01*
X886185Y463332D01*
X886185Y465238D01*
X898838Y465238D01*
X898838Y452585D01*
X896932Y452585D01*
G37*
G36*
X420822Y446827D02*
X419930Y447720D01*
X419930Y460628D01*
X420822Y461521D01*
X440238Y461521D01*
X441131Y460628D01*
X441131Y456438D01*
X441191Y456141D01*
X441362Y455891D01*
X441618Y455727D01*
X441893Y455676D01*
X458017Y455676D01*
X458314Y455736D01*
X458555Y455899D01*
X461352Y458696D01*
X465748Y458696D01*
X468856Y455588D01*
X468856Y451192D01*
X465748Y448084D01*
X461352Y448084D01*
X458555Y450881D01*
X458303Y451048D01*
X458017Y451104D01*
X441893Y451104D01*
X441595Y451044D01*
X441345Y450872D01*
X441182Y450617D01*
X441131Y450342D01*
X441131Y447720D01*
X440238Y446827D01*
X420822Y446827D01*
G37*
G36*
X278524Y451126D02*
X278524Y457239D01*
X280011Y458727D01*
X293878Y458727D01*
X293878Y451126D01*
X278524Y451126D01*
G37*
G36*
X295402Y451126D02*
X295402Y458727D01*
X309269Y458727D01*
X310757Y457239D01*
X310757Y451126D01*
X295402Y451126D01*
G37*
G36*
X165999Y447310D02*
X165999Y455466D01*
X167486Y456954D01*
X169828Y456954D01*
X169828Y447310D01*
X165999Y447310D01*
G37*
G36*
X295402Y442001D02*
X295402Y449602D01*
X310757Y449602D01*
X310757Y443489D01*
X309269Y442001D01*
X295402Y442001D01*
G37*
G36*
X280011Y442001D02*
X278524Y443489D01*
X278524Y449602D01*
X293878Y449602D01*
X293878Y442001D01*
X280011Y442001D01*
G37*
G36*
X420822Y396027D02*
X419930Y396920D01*
X419930Y409828D01*
X420822Y410721D01*
X427482Y410721D01*
X427779Y410781D01*
X428029Y410953D01*
X428193Y411208D01*
X428244Y411483D01*
X428244Y416557D01*
X428184Y416854D01*
X428012Y417104D01*
X427757Y417268D01*
X427482Y417319D01*
X420822Y417319D01*
X419930Y418212D01*
X419930Y431120D01*
X420822Y432013D01*
X440238Y432013D01*
X441131Y431120D01*
X441131Y418212D01*
X440238Y417319D01*
X433578Y417319D01*
X433281Y417259D01*
X433031Y417087D01*
X432867Y416832D01*
X432816Y416557D01*
X432816Y411483D01*
X432876Y411186D01*
X433048Y410936D01*
X433303Y410772D01*
X433578Y410721D01*
X440238Y410721D01*
X441131Y409828D01*
X441131Y406198D01*
X441191Y405901D01*
X441362Y405651D01*
X441618Y405487D01*
X441893Y405436D01*
X456480Y405436D01*
X456777Y405496D01*
X457019Y405659D01*
X457221Y405861D01*
X457388Y406114D01*
X457444Y406412D01*
X457379Y406708D01*
X457221Y406939D01*
X457193Y406967D01*
X457193Y412333D01*
X457221Y412361D01*
X457388Y412614D01*
X457444Y412912D01*
X457379Y413208D01*
X457221Y413439D01*
X457193Y413467D01*
X457193Y418833D01*
X458085Y419726D01*
X463534Y419726D01*
X463831Y419786D01*
X464081Y419957D01*
X464245Y420213D01*
X464296Y420488D01*
X464296Y420869D01*
X464236Y421167D01*
X464073Y421408D01*
X448564Y436917D01*
X448564Y437697D01*
X448504Y437994D01*
X448341Y438235D01*
X445544Y441032D01*
X445544Y445428D01*
X448652Y448536D01*
X453048Y448536D01*
X456156Y445428D01*
X456156Y441032D01*
X454074Y438950D01*
X453907Y438698D01*
X453851Y438399D01*
X453916Y438103D01*
X454074Y437873D01*
X467306Y424641D01*
X468868Y423079D01*
X468868Y420488D01*
X468928Y420190D01*
X469100Y419940D01*
X469355Y419777D01*
X469630Y419726D01*
X475079Y419726D01*
X475972Y418833D01*
X475972Y413467D01*
X475943Y413439D01*
X475776Y413186D01*
X475720Y412888D01*
X475785Y412592D01*
X475943Y412361D01*
X475972Y412333D01*
X475972Y406967D01*
X475943Y406939D01*
X475776Y406686D01*
X475720Y406388D01*
X475785Y406092D01*
X475943Y405861D01*
X475972Y405833D01*
X475972Y401085D01*
X476032Y400788D01*
X476195Y400546D01*
X476988Y399754D01*
X476988Y397412D01*
X456177Y397412D01*
X456177Y399939D01*
X456209Y400114D01*
X456144Y400410D01*
X455969Y400658D01*
X455711Y400817D01*
X455447Y400864D01*
X441893Y400864D01*
X441595Y400804D01*
X441345Y400632D01*
X441182Y400377D01*
X441131Y400102D01*
X441131Y396920D01*
X440238Y396027D01*
X420822Y396027D01*
G37*
G36*
X167486Y436143D02*
X165999Y437630D01*
X165999Y445786D01*
X169828Y445786D01*
X169828Y436143D01*
X167486Y436143D01*
G37*
G36*
X900888Y393840D02*
X894489Y395555D01*
X888751Y398867D01*
X884067Y403551D01*
X880755Y409289D01*
X879040Y415688D01*
X879040Y422312D01*
X880755Y428711D01*
X884067Y434449D01*
X888751Y439133D01*
X894489Y442445D01*
X900888Y444160D01*
X907512Y444160D01*
X913911Y442445D01*
X919649Y439133D01*
X924333Y434449D01*
X927645Y428711D01*
X929360Y422312D01*
X929360Y415688D01*
X927645Y409289D01*
X924333Y403551D01*
X919649Y398867D01*
X913911Y395555D01*
X907512Y393840D01*
X900888Y393840D01*
G37*
G36*
X668449Y391709D02*
X667556Y392601D01*
X667556Y399879D01*
X668449Y400772D01*
X675032Y400772D01*
X675329Y400832D01*
X675579Y401003D01*
X675743Y401259D01*
X675794Y401534D01*
X675794Y417407D01*
X687393Y429006D01*
X690877Y429006D01*
X691174Y429066D01*
X691424Y429238D01*
X691588Y429493D01*
X691639Y429768D01*
X691639Y436428D01*
X692532Y437321D01*
X705440Y437321D01*
X706333Y436428D01*
X706333Y417012D01*
X705440Y416120D01*
X692532Y416120D01*
X691639Y417012D01*
X691639Y423672D01*
X691579Y423969D01*
X691407Y424219D01*
X691152Y424383D01*
X690877Y424434D01*
X689603Y424434D01*
X689305Y424374D01*
X689064Y424211D01*
X680589Y415736D01*
X680422Y415483D01*
X680366Y415197D01*
X680366Y401534D01*
X680426Y401236D01*
X680598Y400986D01*
X680853Y400823D01*
X681128Y400772D01*
X687711Y400772D01*
X688604Y399879D01*
X688604Y392601D01*
X687711Y391709D01*
X668449Y391709D01*
G37*
G36*
X554804Y426996D02*
X554804Y433109D01*
X556291Y434597D01*
X565658Y434597D01*
X565658Y426996D01*
X554804Y426996D01*
G37*
G36*
X567182Y426996D02*
X567182Y434597D01*
X576549Y434597D01*
X578037Y433109D01*
X578037Y426996D01*
X567182Y426996D01*
G37*
G36*
X567182Y417871D02*
X567182Y425472D01*
X578037Y425472D01*
X578037Y419359D01*
X576549Y417871D01*
X567182Y417871D01*
G37*
G36*
X556291Y417871D02*
X554804Y419359D01*
X554804Y425472D01*
X565658Y425472D01*
X565658Y417871D01*
X556291Y417871D01*
G37*
G36*
X69779Y374873D02*
X68886Y375766D01*
X68886Y385028D01*
X69779Y385921D01*
X70612Y385921D01*
X70909Y385981D01*
X71159Y386153D01*
X71323Y386408D01*
X71374Y386683D01*
X71374Y387347D01*
X71314Y387644D01*
X71142Y387894D01*
X70887Y388058D01*
X70612Y388109D01*
X63952Y388109D01*
X63060Y389002D01*
X63060Y401910D01*
X63952Y402803D01*
X77458Y402803D01*
X77756Y402863D01*
X77997Y403026D01*
X78577Y403606D01*
X90987Y403606D01*
X91284Y403666D01*
X91525Y403829D01*
X94322Y406626D01*
X98718Y406626D01*
X101826Y403518D01*
X101826Y399122D01*
X98718Y396014D01*
X94322Y396014D01*
X91525Y398811D01*
X91273Y398978D01*
X90987Y399034D01*
X85023Y399034D01*
X84725Y398974D01*
X84475Y398802D01*
X84312Y398547D01*
X84261Y398272D01*
X84261Y389002D01*
X83368Y388109D01*
X76708Y388109D01*
X76411Y388049D01*
X76161Y387877D01*
X75997Y387622D01*
X75946Y387347D01*
X75946Y386683D01*
X76006Y386386D01*
X76178Y386136D01*
X76433Y385972D01*
X76708Y385921D01*
X77541Y385921D01*
X78434Y385028D01*
X78434Y375766D01*
X77541Y374873D01*
X69779Y374873D01*
G37*
G36*
X165552Y326177D02*
X164660Y327070D01*
X164660Y339978D01*
X165552Y340871D01*
X173968Y340871D01*
X174265Y340931D01*
X174515Y341103D01*
X174679Y341358D01*
X174730Y341633D01*
X174730Y345508D01*
X174670Y345805D01*
X174498Y346055D01*
X174243Y346218D01*
X173968Y346270D01*
X170562Y346270D01*
X169669Y347162D01*
X169669Y353822D01*
X169609Y354119D01*
X169437Y354369D01*
X169182Y354533D01*
X168907Y354584D01*
X160878Y354584D01*
X160581Y354524D01*
X160331Y354352D01*
X160174Y354114D01*
X159659Y352869D01*
X157671Y350881D01*
X155075Y349806D01*
X152265Y349806D01*
X149669Y350881D01*
X147859Y352691D01*
X147606Y352859D01*
X147308Y352914D01*
X147012Y352849D01*
X146781Y352691D01*
X144971Y350881D01*
X142375Y349806D01*
X139565Y349806D01*
X136969Y350881D01*
X135877Y351973D01*
X135624Y352140D01*
X135326Y352196D01*
X135030Y352131D01*
X134800Y351973D01*
X132847Y350020D01*
X129877Y348790D01*
X129032Y348790D01*
X129032Y364950D01*
X129877Y364950D01*
X132847Y363720D01*
X134800Y361767D01*
X135052Y361600D01*
X135351Y361544D01*
X135647Y361609D01*
X135877Y361767D01*
X136969Y362859D01*
X138214Y363374D01*
X138465Y363544D01*
X138631Y363798D01*
X138684Y364078D01*
X138684Y386077D01*
X138624Y386374D01*
X138452Y386624D01*
X138197Y386788D01*
X137922Y386839D01*
X131262Y386839D01*
X130370Y387732D01*
X130370Y400640D01*
X131262Y401533D01*
X150678Y401533D01*
X151571Y400640D01*
X151571Y387732D01*
X150678Y386839D01*
X144018Y386839D01*
X143721Y386779D01*
X143471Y386607D01*
X143307Y386352D01*
X143256Y386077D01*
X143256Y364078D01*
X143316Y363781D01*
X143488Y363531D01*
X143726Y363374D01*
X144971Y362859D01*
X146781Y361049D01*
X147034Y360881D01*
X147332Y360826D01*
X147628Y360891D01*
X147859Y361049D01*
X149669Y362859D01*
X152265Y363934D01*
X155075Y363934D01*
X157671Y362859D01*
X159659Y360871D01*
X160174Y359626D01*
X160344Y359375D01*
X160598Y359209D01*
X160878Y359156D01*
X168907Y359156D01*
X169204Y359216D01*
X169454Y359388D01*
X169618Y359643D01*
X169669Y359918D01*
X169669Y366578D01*
X170562Y367471D01*
X183470Y367471D01*
X184363Y366578D01*
X184363Y347162D01*
X183470Y346270D01*
X180064Y346270D01*
X179767Y346209D01*
X179517Y346038D01*
X179353Y345782D01*
X179302Y345508D01*
X179302Y341633D01*
X179362Y341336D01*
X179534Y341086D01*
X179789Y340922D01*
X180064Y340871D01*
X184968Y340871D01*
X185861Y339978D01*
X185861Y327070D01*
X184968Y326177D01*
X165552Y326177D01*
G37*
G36*
X457664Y392059D02*
X456177Y393546D01*
X456177Y395888D01*
X465820Y395888D01*
X465820Y392059D01*
X457664Y392059D01*
G37*
G36*
X467344Y392059D02*
X467344Y395888D01*
X476988Y395888D01*
X476988Y393546D01*
X475500Y392059D01*
X467344Y392059D01*
G37*
G36*
X668449Y379009D02*
X667556Y379901D01*
X667556Y387179D01*
X668449Y388072D01*
X687711Y388072D01*
X688604Y387179D01*
X688604Y379901D01*
X687711Y379009D01*
X668449Y379009D01*
G37*
G36*
X249262Y369344D02*
X246154Y372452D01*
X246154Y376848D01*
X249262Y379956D01*
X253217Y379956D01*
X253515Y380016D01*
X253756Y380179D01*
X256260Y382683D01*
X280214Y382683D01*
X280511Y382743D01*
X280761Y382915D01*
X280925Y383170D01*
X280976Y383445D01*
X280976Y385028D01*
X281869Y385921D01*
X289631Y385921D01*
X290524Y385028D01*
X290524Y375766D01*
X289631Y374873D01*
X281869Y374873D01*
X280976Y375766D01*
X280976Y377349D01*
X280916Y377646D01*
X280744Y377896D01*
X280489Y378060D01*
X280214Y378111D01*
X258470Y378111D01*
X258172Y378051D01*
X257931Y377888D01*
X256989Y376946D01*
X256822Y376693D01*
X256766Y376407D01*
X256766Y372452D01*
X253658Y369344D01*
X249262Y369344D01*
G37*
G36*
X641802Y351577D02*
X640910Y352470D01*
X640910Y365378D01*
X641802Y366271D01*
X648462Y366271D01*
X648759Y366331D01*
X649009Y366503D01*
X649173Y366758D01*
X649224Y367033D01*
X649224Y369567D01*
X649164Y369864D01*
X648992Y370114D01*
X648737Y370278D01*
X648462Y370329D01*
X641802Y370329D01*
X640910Y371222D01*
X640910Y384130D01*
X641802Y385023D01*
X661218Y385023D01*
X662111Y384130D01*
X662111Y371222D01*
X661218Y370329D01*
X654558Y370329D01*
X654261Y370269D01*
X654011Y370097D01*
X653847Y369842D01*
X653796Y369567D01*
X653796Y367033D01*
X653856Y366736D01*
X654028Y366486D01*
X654283Y366322D01*
X654558Y366271D01*
X661218Y366271D01*
X662111Y365378D01*
X662111Y361188D01*
X662171Y360891D01*
X662342Y360641D01*
X662598Y360477D01*
X662873Y360426D01*
X666794Y360426D01*
X667091Y360486D01*
X667341Y360658D01*
X667505Y360913D01*
X667556Y361188D01*
X667556Y361779D01*
X668449Y362672D01*
X687711Y362672D01*
X688604Y361779D01*
X688604Y354501D01*
X687711Y353609D01*
X668449Y353609D01*
X667556Y354501D01*
X667556Y355092D01*
X667496Y355389D01*
X667324Y355639D01*
X667069Y355803D01*
X666794Y355854D01*
X662873Y355854D01*
X662575Y355794D01*
X662325Y355622D01*
X662162Y355367D01*
X662111Y355092D01*
X662111Y352470D01*
X661218Y351577D01*
X641802Y351577D01*
G37*
G36*
X418914Y374628D02*
X418914Y380741D01*
X420401Y382229D01*
X429768Y382229D01*
X429768Y374628D01*
X418914Y374628D01*
G37*
G36*
X431292Y374628D02*
X431292Y382229D01*
X440659Y382229D01*
X442147Y380741D01*
X442147Y374628D01*
X431292Y374628D01*
G37*
G36*
X717540Y371602D02*
X717540Y374900D01*
X719028Y376388D01*
X728318Y376388D01*
X728318Y371602D01*
X717540Y371602D01*
G37*
G36*
X729842Y371602D02*
X729842Y376388D01*
X739132Y376388D01*
X740620Y374900D01*
X740620Y371602D01*
X729842Y371602D01*
G37*
G36*
X668449Y366309D02*
X667556Y367201D01*
X667556Y374479D01*
X668449Y375372D01*
X687711Y375372D01*
X688604Y374479D01*
X688604Y367201D01*
X687711Y366309D01*
X668449Y366309D01*
G37*
G36*
X420401Y365503D02*
X418914Y366991D01*
X418914Y373104D01*
X429768Y373104D01*
X429768Y365503D01*
X420401Y365503D01*
G37*
G36*
X431292Y365503D02*
X431292Y373104D01*
X442147Y373104D01*
X442147Y366991D01*
X440659Y365503D01*
X431292Y365503D01*
G37*
G36*
X719028Y365293D02*
X717540Y366780D01*
X717540Y370078D01*
X728318Y370078D01*
X728318Y365293D01*
X719028Y365293D01*
G37*
G36*
X729842Y365293D02*
X729842Y370078D01*
X740620Y370078D01*
X740620Y366780D01*
X739132Y365293D01*
X729842Y365293D01*
G37*
G36*
X120190Y357632D02*
X120190Y358477D01*
X121420Y361447D01*
X123693Y363720D01*
X126663Y364950D01*
X127508Y364950D01*
X127508Y357632D01*
X120190Y357632D01*
G37*
G36*
X77370Y358745D02*
X77370Y363035D01*
X78858Y364523D01*
X82398Y364523D01*
X82398Y358745D01*
X77370Y358745D01*
G37*
G36*
X289460Y358745D02*
X289460Y363035D01*
X290948Y364523D01*
X294488Y364523D01*
X294488Y358745D01*
X289460Y358745D01*
G37*
G36*
X296012Y358745D02*
X296012Y364523D01*
X299552Y364523D01*
X301040Y363035D01*
X301040Y358745D01*
X296012Y358745D01*
G37*
G36*
X83922Y358745D02*
X83922Y364523D01*
X87462Y364523D01*
X88950Y363035D01*
X88950Y358745D01*
X83922Y358745D01*
G37*
G36*
X719449Y353609D02*
X718556Y354501D01*
X718556Y361779D01*
X719449Y362672D01*
X738711Y362672D01*
X739604Y361779D01*
X739604Y354501D01*
X738711Y353609D01*
X719449Y353609D01*
G37*
G36*
X296012Y351443D02*
X296012Y357221D01*
X301040Y357221D01*
X301040Y352931D01*
X299552Y351443D01*
X296012Y351443D01*
G37*
G36*
X290948Y351443D02*
X289460Y352931D01*
X289460Y357221D01*
X294488Y357221D01*
X294488Y351443D01*
X290948Y351443D01*
G37*
G36*
X83922Y351443D02*
X83922Y357221D01*
X88950Y357221D01*
X88950Y352931D01*
X87462Y351443D01*
X83922Y351443D01*
G37*
G36*
X78858Y351443D02*
X77370Y352931D01*
X77370Y357221D01*
X82398Y357221D01*
X82398Y351443D01*
X78858Y351443D01*
G37*
G36*
X126663Y348790D02*
X123693Y350020D01*
X121420Y352293D01*
X120190Y355263D01*
X120190Y356108D01*
X127508Y356108D01*
X127508Y348790D01*
X126663Y348790D01*
G37*
G36*
X639894Y330178D02*
X639894Y336291D01*
X641381Y337779D01*
X650748Y337779D01*
X650748Y330178D01*
X639894Y330178D01*
G37*
G36*
X652272Y330178D02*
X652272Y337779D01*
X661639Y337779D01*
X663127Y336291D01*
X663127Y330178D01*
X652272Y330178D01*
G37*
G36*
X804672Y312835D02*
X804672Y336692D01*
X815539Y336692D01*
X817027Y335204D01*
X817027Y312835D01*
X804672Y312835D01*
G37*
G36*
X790794Y312835D02*
X790794Y335204D01*
X792281Y336692D01*
X803148Y336692D01*
X803148Y312835D01*
X790794Y312835D01*
G37*
G36*
X641381Y321053D02*
X639894Y322541D01*
X639894Y328654D01*
X650748Y328654D01*
X650748Y321053D01*
X641381Y321053D01*
G37*
G36*
X652272Y321053D02*
X652272Y328654D01*
X663127Y328654D01*
X663127Y322541D01*
X661639Y321053D01*
X652272Y321053D01*
G37*
G36*
X509569Y78976D02*
X508676Y79869D01*
X508676Y102131D01*
X509569Y103024D01*
X512064Y103024D01*
X512361Y103084D01*
X512611Y103256D01*
X512775Y103511D01*
X512826Y103786D01*
X512826Y131453D01*
X512766Y131750D01*
X512603Y131992D01*
X511225Y133369D01*
X509524Y137477D01*
X509524Y141923D01*
X511225Y146031D01*
X512603Y147408D01*
X512770Y147661D01*
X512826Y147947D01*
X512826Y189664D01*
X512766Y189961D01*
X512594Y190211D01*
X512339Y190375D01*
X512064Y190426D01*
X465069Y190426D01*
X464176Y191319D01*
X464176Y325081D01*
X465069Y325974D01*
X576331Y325974D01*
X577224Y325081D01*
X577224Y191319D01*
X576331Y190426D01*
X529336Y190426D01*
X529039Y190366D01*
X528789Y190194D01*
X528625Y189939D01*
X528574Y189664D01*
X528574Y147947D01*
X528634Y147650D01*
X528797Y147408D01*
X530175Y146031D01*
X531876Y141923D01*
X531876Y137477D01*
X530175Y133369D01*
X528797Y131992D01*
X528630Y131739D01*
X528574Y131453D01*
X528574Y103786D01*
X528634Y103489D01*
X528806Y103239D01*
X529061Y103075D01*
X529336Y103024D01*
X531831Y103024D01*
X532724Y102131D01*
X532724Y79869D01*
X531831Y78976D01*
X509569Y78976D01*
G37*
G36*
X165552Y296669D02*
X164660Y297562D01*
X164660Y310470D01*
X165552Y311363D01*
X184968Y311363D01*
X185861Y310470D01*
X185861Y309258D01*
X185921Y308961D01*
X186092Y308711D01*
X186348Y308547D01*
X186623Y308496D01*
X196419Y308496D01*
X196716Y308556D01*
X196966Y308728D01*
X197129Y308983D01*
X197181Y309258D01*
X197181Y311514D01*
X198073Y312407D01*
X217601Y312407D01*
X218494Y311514D01*
X218494Y300906D01*
X217601Y300014D01*
X198073Y300014D01*
X197181Y300906D01*
X197181Y303162D01*
X197120Y303459D01*
X196949Y303709D01*
X196693Y303873D01*
X196419Y303924D01*
X186623Y303924D01*
X186325Y303864D01*
X186075Y303692D01*
X185912Y303437D01*
X185861Y303162D01*
X185861Y297562D01*
X184968Y296669D01*
X165552Y296669D01*
G37*
G36*
X792281Y287455D02*
X790794Y288942D01*
X790794Y311311D01*
X803148Y311311D01*
X803148Y287455D01*
X792281Y287455D01*
G37*
G36*
X804672Y287455D02*
X804672Y311311D01*
X817027Y311311D01*
X817027Y288942D01*
X815539Y287455D01*
X804672Y287455D01*
G37*
G36*
X328381Y28956D02*
X325020Y30348D01*
X322448Y32920D01*
X321056Y36281D01*
X321056Y55159D01*
X322448Y58520D01*
X325020Y61092D01*
X327444Y62096D01*
X327695Y62265D01*
X327861Y62519D01*
X327914Y62800D01*
X327914Y74937D01*
X327854Y75235D01*
X327691Y75476D01*
X323126Y80041D01*
X322873Y80208D01*
X322587Y80264D01*
X279723Y80264D01*
X268710Y91277D01*
X268710Y120028D01*
X268650Y120325D01*
X268478Y120575D01*
X268223Y120738D01*
X267948Y120790D01*
X264542Y120790D01*
X263649Y121682D01*
X263649Y150098D01*
X264542Y150991D01*
X267948Y150991D01*
X268245Y151051D01*
X268495Y151222D01*
X268659Y151478D01*
X268710Y151753D01*
X268710Y172098D01*
X268650Y172395D01*
X268478Y172645D01*
X268223Y172808D01*
X267948Y172860D01*
X264542Y172860D01*
X263649Y173752D01*
X263649Y202168D01*
X264542Y203061D01*
X266635Y203061D01*
X266932Y203121D01*
X267182Y203292D01*
X267346Y203548D01*
X267397Y203823D01*
X267397Y221641D01*
X267337Y221938D01*
X267165Y222188D01*
X266910Y222351D01*
X266635Y222403D01*
X260502Y222403D01*
X259610Y223295D01*
X259610Y236445D01*
X260502Y237338D01*
X266635Y237338D01*
X266932Y237398D01*
X267182Y237569D01*
X267346Y237825D01*
X267397Y238100D01*
X267397Y264967D01*
X267337Y265264D01*
X267165Y265514D01*
X266910Y265677D01*
X266635Y265729D01*
X259919Y265729D01*
X259027Y266621D01*
X259027Y280162D01*
X258966Y280459D01*
X258795Y280709D01*
X258539Y280873D01*
X258265Y280924D01*
X219256Y280924D01*
X218958Y280864D01*
X218708Y280692D01*
X218545Y280437D01*
X218494Y280162D01*
X218494Y277906D01*
X217601Y277014D01*
X198073Y277014D01*
X197181Y277906D01*
X197181Y288514D01*
X198073Y289407D01*
X217601Y289407D01*
X218494Y288514D01*
X218494Y286258D01*
X218554Y285961D01*
X218725Y285711D01*
X218981Y285547D01*
X219256Y285496D01*
X258265Y285496D01*
X258562Y285556D01*
X258812Y285728D01*
X258975Y285983D01*
X259027Y286258D01*
X259027Y299799D01*
X259919Y300692D01*
X279447Y300692D01*
X280340Y299799D01*
X280340Y286258D01*
X280400Y285961D01*
X280571Y285711D01*
X280827Y285547D01*
X281102Y285496D01*
X287161Y285496D01*
X287458Y285556D01*
X287708Y285728D01*
X287872Y285983D01*
X287923Y286258D01*
X287923Y290674D01*
X288816Y291567D01*
X299244Y291567D01*
X300137Y290674D01*
X300137Y275746D01*
X299244Y274853D01*
X288816Y274853D01*
X287923Y275746D01*
X287923Y280162D01*
X287863Y280459D01*
X287691Y280709D01*
X287436Y280873D01*
X287161Y280924D01*
X281102Y280924D01*
X280804Y280864D01*
X280554Y280692D01*
X280391Y280437D01*
X280340Y280162D01*
X280340Y270189D01*
X280400Y269891D01*
X280571Y269641D01*
X280827Y269478D01*
X281102Y269427D01*
X285474Y269427D01*
X285474Y258572D01*
X277873Y258572D01*
X277873Y264967D01*
X277813Y265264D01*
X277641Y265514D01*
X277386Y265677D01*
X277111Y265729D01*
X272731Y265729D01*
X272434Y265668D01*
X272184Y265497D01*
X272020Y265241D01*
X271969Y264967D01*
X271969Y238100D01*
X272029Y237802D01*
X272201Y237552D01*
X272456Y237389D01*
X272731Y237338D01*
X279720Y237338D01*
X280613Y236445D01*
X280613Y223295D01*
X279720Y222403D01*
X272731Y222403D01*
X272434Y222342D01*
X272184Y222171D01*
X272020Y221915D01*
X271969Y221641D01*
X271969Y203823D01*
X272029Y203525D01*
X272201Y203275D01*
X272456Y203112D01*
X272731Y203061D01*
X277450Y203061D01*
X278343Y202168D01*
X278343Y173752D01*
X277450Y172860D01*
X274044Y172860D01*
X273747Y172799D01*
X273497Y172628D01*
X273333Y172372D01*
X273282Y172098D01*
X273282Y151753D01*
X273342Y151455D01*
X273514Y151205D01*
X273769Y151042D01*
X274044Y150991D01*
X277450Y150991D01*
X278343Y150098D01*
X278343Y121682D01*
X277450Y120790D01*
X274044Y120790D01*
X273747Y120729D01*
X273497Y120558D01*
X273333Y120302D01*
X273282Y120028D01*
X273282Y93487D01*
X273342Y93189D01*
X273505Y92948D01*
X281394Y85059D01*
X281647Y84892D01*
X281933Y84836D01*
X286821Y84836D01*
X287118Y84896D01*
X287368Y85068D01*
X287531Y85323D01*
X287582Y85622D01*
X287512Y85917D01*
X287359Y86137D01*
X286794Y86702D01*
X286794Y91098D01*
X289902Y94206D01*
X294298Y94206D01*
X297095Y91409D01*
X297347Y91242D01*
X297633Y91186D01*
X388167Y91186D01*
X388464Y91246D01*
X388705Y91409D01*
X391502Y94206D01*
X395898Y94206D01*
X399006Y91098D01*
X399006Y86702D01*
X395898Y83594D01*
X391502Y83594D01*
X388705Y86391D01*
X388453Y86558D01*
X388167Y86614D01*
X297633Y86614D01*
X297336Y86554D01*
X297095Y86391D01*
X296841Y86137D01*
X296673Y85884D01*
X296618Y85586D01*
X296683Y85290D01*
X296858Y85042D01*
X297116Y84883D01*
X297379Y84836D01*
X324797Y84836D01*
X332486Y77147D01*
X332486Y62800D01*
X332546Y62502D01*
X332718Y62252D01*
X332956Y62096D01*
X335380Y61092D01*
X337952Y58520D01*
X339344Y55159D01*
X339344Y36281D01*
X337952Y32920D01*
X335380Y30348D01*
X332019Y28956D01*
X328381Y28956D01*
G37*
G36*
X641802Y215687D02*
X640910Y216580D01*
X640910Y229488D01*
X641802Y230381D01*
X648462Y230381D01*
X648759Y230441D01*
X649009Y230613D01*
X649173Y230868D01*
X649224Y231143D01*
X649224Y251467D01*
X649164Y251765D01*
X649001Y252006D01*
X616976Y284031D01*
X616723Y284198D01*
X616437Y284254D01*
X612482Y284254D01*
X609374Y287362D01*
X609374Y291758D01*
X612482Y294866D01*
X616878Y294866D01*
X619986Y291758D01*
X619986Y287803D01*
X620046Y287505D01*
X620209Y287264D01*
X653796Y253677D01*
X653796Y231143D01*
X653856Y230846D01*
X654028Y230596D01*
X654283Y230432D01*
X654558Y230381D01*
X661218Y230381D01*
X662111Y229488D01*
X662111Y216580D01*
X661218Y215687D01*
X641802Y215687D01*
G37*
G36*
X309290Y247210D02*
X308397Y248102D01*
X308397Y267518D01*
X309290Y268411D01*
X309982Y268411D01*
X310279Y268471D01*
X310529Y268642D01*
X310693Y268898D01*
X310744Y269173D01*
X310744Y274091D01*
X310684Y274388D01*
X310512Y274638D01*
X310257Y274802D01*
X309982Y274853D01*
X307816Y274853D01*
X306923Y275746D01*
X306923Y290674D01*
X307816Y291567D01*
X318244Y291567D01*
X319137Y290674D01*
X319137Y275746D01*
X318244Y274853D01*
X316078Y274853D01*
X315781Y274793D01*
X315531Y274621D01*
X315367Y274366D01*
X315316Y274091D01*
X315316Y269173D01*
X315376Y268875D01*
X315548Y268625D01*
X315803Y268462D01*
X316078Y268411D01*
X322198Y268411D01*
X323091Y267518D01*
X323091Y248102D01*
X322198Y247210D01*
X309290Y247210D01*
G37*
G36*
X240372Y121694D02*
X237264Y124802D01*
X237264Y129198D01*
X239575Y131509D01*
X239742Y131761D01*
X239798Y132047D01*
X239798Y142888D01*
X239738Y143185D01*
X239566Y143435D01*
X239311Y143598D01*
X239036Y143650D01*
X235630Y143650D01*
X234737Y144542D01*
X234737Y172958D01*
X235630Y173851D01*
X237637Y173851D01*
X237934Y173911D01*
X238184Y174082D01*
X238348Y174338D01*
X238399Y174637D01*
X238329Y174932D01*
X238176Y175151D01*
X229464Y183863D01*
X229464Y188681D01*
X229404Y188978D01*
X229232Y189228D01*
X228977Y189391D01*
X228702Y189443D01*
X228086Y189443D01*
X228004Y189497D01*
X227706Y189552D01*
X227410Y189487D01*
X227180Y189329D01*
X226277Y188427D01*
X223012Y188427D01*
X223012Y206112D01*
X226277Y206112D01*
X227180Y205209D01*
X227432Y205042D01*
X227731Y204986D01*
X228027Y205051D01*
X228092Y205096D01*
X235356Y205096D01*
X236249Y204203D01*
X236249Y200682D01*
X236309Y200384D01*
X236481Y200134D01*
X236736Y199971D01*
X237035Y199920D01*
X237330Y199990D01*
X237550Y200143D01*
X241331Y203924D01*
X241498Y204177D01*
X241554Y204463D01*
X241554Y258627D01*
X241494Y258924D01*
X241331Y259165D01*
X238664Y261832D01*
X238411Y262000D01*
X238113Y262055D01*
X237817Y261990D01*
X237586Y261832D01*
X234559Y258806D01*
X234501Y258794D01*
X234251Y258622D01*
X234087Y258367D01*
X234036Y258092D01*
X234036Y230420D01*
X234096Y230122D01*
X234268Y229872D01*
X234523Y229709D01*
X234798Y229658D01*
X235356Y229658D01*
X236249Y228765D01*
X236249Y214897D01*
X235356Y214005D01*
X228086Y214005D01*
X228004Y214059D01*
X227706Y214114D01*
X227410Y214049D01*
X227180Y213891D01*
X226277Y212989D01*
X223012Y212989D01*
X223012Y230674D01*
X226277Y230674D01*
X227180Y229771D01*
X227432Y229604D01*
X227731Y229548D01*
X228027Y229613D01*
X228092Y229658D01*
X228702Y229658D01*
X228999Y229718D01*
X229249Y229889D01*
X229413Y230145D01*
X229464Y230420D01*
X229464Y259287D01*
X229404Y259584D01*
X229241Y259825D01*
X227104Y261962D01*
X227104Y266358D01*
X230212Y269466D01*
X234608Y269466D01*
X237586Y266488D01*
X237839Y266320D01*
X238137Y266265D01*
X238433Y266330D01*
X238664Y266488D01*
X241642Y269466D01*
X246038Y269466D01*
X249146Y266358D01*
X249146Y261962D01*
X246349Y259165D01*
X246182Y258913D01*
X246126Y258627D01*
X246126Y202253D01*
X238856Y194983D01*
X237011Y194983D01*
X236714Y194923D01*
X236464Y194751D01*
X236300Y194496D01*
X236249Y194221D01*
X236249Y190335D01*
X235356Y189443D01*
X234798Y189443D01*
X234501Y189382D01*
X234251Y189211D01*
X234087Y188955D01*
X234036Y188681D01*
X234036Y186073D01*
X234096Y185775D01*
X234259Y185534D01*
X244370Y175423D01*
X244370Y174613D01*
X244430Y174315D01*
X244602Y174065D01*
X244857Y173902D01*
X245132Y173851D01*
X248538Y173851D01*
X249431Y172958D01*
X249431Y144542D01*
X248538Y143650D01*
X245132Y143650D01*
X244835Y143589D01*
X244585Y143418D01*
X244421Y143162D01*
X244370Y142888D01*
X244370Y133019D01*
X244430Y132722D01*
X244593Y132481D01*
X247876Y129198D01*
X247876Y124802D01*
X244768Y121694D01*
X240372Y121694D01*
G37*
G36*
X286998Y258572D02*
X286998Y269427D01*
X293111Y269427D01*
X294599Y267939D01*
X294599Y258572D01*
X286998Y258572D01*
G37*
G36*
X198073Y254014D02*
X197181Y254906D01*
X197181Y257162D01*
X197120Y257459D01*
X196949Y257709D01*
X196693Y257873D01*
X196419Y257924D01*
X194623Y257924D01*
X194326Y257864D01*
X194085Y257701D01*
X191428Y255044D01*
X187032Y255044D01*
X183924Y258152D01*
X183924Y262548D01*
X187032Y265656D01*
X191428Y265656D01*
X194365Y262719D01*
X194617Y262552D01*
X194903Y262496D01*
X196419Y262496D01*
X196716Y262556D01*
X196966Y262728D01*
X197129Y262983D01*
X197181Y263258D01*
X197181Y265514D01*
X198073Y266407D01*
X217601Y266407D01*
X218494Y265514D01*
X218494Y254906D01*
X217601Y254014D01*
X198073Y254014D01*
G37*
G36*
X279361Y246194D02*
X277873Y247681D01*
X277873Y257048D01*
X285474Y257048D01*
X285474Y246194D01*
X279361Y246194D01*
G37*
G36*
X286998Y246194D02*
X286998Y257048D01*
X294599Y257048D01*
X294599Y247681D01*
X293111Y246194D01*
X286998Y246194D01*
G37*
G36*
X717721Y231152D02*
X716829Y232045D01*
X716829Y254307D01*
X717721Y255200D01*
X724999Y255200D01*
X725892Y254307D01*
X725892Y232045D01*
X724999Y231152D01*
X717721Y231152D01*
G37*
G36*
X692321Y231152D02*
X691429Y232045D01*
X691429Y254307D01*
X692321Y255200D01*
X699599Y255200D01*
X700492Y254307D01*
X700492Y232045D01*
X699599Y231152D01*
X692321Y231152D01*
G37*
G36*
X705021Y231152D02*
X704129Y232045D01*
X704129Y254307D01*
X705021Y255200D01*
X712299Y255200D01*
X713192Y254307D01*
X713192Y232045D01*
X712299Y231152D01*
X705021Y231152D01*
G37*
G36*
X677252Y211864D02*
X674144Y214972D01*
X674144Y219368D01*
X677252Y222476D01*
X680212Y222476D01*
X680509Y222536D01*
X680759Y222708D01*
X680923Y222963D01*
X680974Y223238D01*
X680974Y230390D01*
X680914Y230687D01*
X680742Y230937D01*
X680487Y231101D01*
X680212Y231152D01*
X679621Y231152D01*
X678729Y232045D01*
X678729Y254307D01*
X679621Y255200D01*
X686899Y255200D01*
X687792Y254307D01*
X687792Y232045D01*
X686899Y231152D01*
X686308Y231152D01*
X686011Y231092D01*
X685761Y230920D01*
X685597Y230665D01*
X685546Y230390D01*
X685546Y220033D01*
X684979Y219466D01*
X684812Y219213D01*
X684756Y218927D01*
X684756Y214972D01*
X681648Y211864D01*
X677252Y211864D01*
G37*
G36*
X147618Y170905D02*
X146725Y171798D01*
X146725Y185372D01*
X147618Y186265D01*
X182582Y186265D01*
X183475Y185372D01*
X183475Y181633D01*
X183535Y181336D01*
X183707Y181086D01*
X183962Y180922D01*
X184237Y180871D01*
X186212Y180871D01*
X186510Y180931D01*
X186751Y181094D01*
X203396Y197739D01*
X203563Y197992D01*
X203619Y198278D01*
X203619Y212843D01*
X203559Y213141D01*
X203396Y213382D01*
X196247Y220531D01*
X195994Y220698D01*
X195708Y220754D01*
X192112Y220754D01*
X189004Y223862D01*
X189004Y228258D01*
X192112Y231366D01*
X196508Y231366D01*
X199616Y228258D01*
X199616Y224662D01*
X199676Y224365D01*
X199839Y224123D01*
X206950Y217012D01*
X207203Y216844D01*
X207501Y216789D01*
X207797Y216854D01*
X208045Y217029D01*
X208204Y217287D01*
X208251Y217551D01*
X208251Y228765D01*
X209144Y229658D01*
X210312Y229658D01*
X210609Y229718D01*
X210859Y229889D01*
X211023Y230145D01*
X211074Y230420D01*
X211074Y235211D01*
X211014Y235509D01*
X210842Y235759D01*
X210587Y235922D01*
X210288Y235973D01*
X209993Y235903D01*
X209773Y235750D01*
X209712Y235689D01*
X184237Y235689D01*
X183940Y235629D01*
X183690Y235457D01*
X183526Y235202D01*
X183475Y234927D01*
X183475Y231188D01*
X182582Y230295D01*
X147618Y230295D01*
X146725Y231188D01*
X146725Y244762D01*
X147618Y245655D01*
X182582Y245655D01*
X183475Y244762D01*
X183475Y241023D01*
X183535Y240726D01*
X183707Y240476D01*
X183962Y240312D01*
X184237Y240261D01*
X207292Y240261D01*
X207589Y240321D01*
X207839Y240493D01*
X208003Y240748D01*
X208054Y241023D01*
X208054Y244768D01*
X211162Y247876D01*
X215558Y247876D01*
X218666Y244768D01*
X218666Y240372D01*
X215869Y237575D01*
X215702Y237323D01*
X215646Y237037D01*
X215646Y230420D01*
X215706Y230122D01*
X215878Y229872D01*
X216133Y229709D01*
X216408Y229658D01*
X216414Y229658D01*
X216496Y229604D01*
X216794Y229548D01*
X217090Y229613D01*
X217320Y229771D01*
X218223Y230674D01*
X221488Y230674D01*
X221488Y212989D01*
X218223Y212989D01*
X217320Y213891D01*
X217068Y214059D01*
X216769Y214114D01*
X216473Y214049D01*
X216408Y214005D01*
X209461Y214005D01*
X209164Y213944D01*
X208914Y213773D01*
X208750Y213517D01*
X208699Y213243D01*
X208699Y205858D01*
X208759Y205560D01*
X208931Y205310D01*
X209186Y205147D01*
X209461Y205096D01*
X216414Y205096D01*
X216496Y205042D01*
X216794Y204986D01*
X217090Y205051D01*
X217320Y205209D01*
X218223Y206112D01*
X221488Y206112D01*
X221488Y188427D01*
X218223Y188427D01*
X217320Y189329D01*
X217068Y189497D01*
X216769Y189552D01*
X216473Y189487D01*
X216408Y189443D01*
X209144Y189443D01*
X208251Y190335D01*
X208251Y193967D01*
X208191Y194264D01*
X208019Y194514D01*
X207764Y194678D01*
X207489Y194729D01*
X207168Y194729D01*
X206870Y194669D01*
X206629Y194506D01*
X188422Y176299D01*
X184237Y176299D01*
X183940Y176239D01*
X183690Y176067D01*
X183526Y175812D01*
X183475Y175537D01*
X183475Y171798D01*
X182582Y170905D01*
X147618Y170905D01*
G37*
G36*
X284792Y230632D02*
X284792Y236866D01*
X286279Y238354D01*
X295547Y238354D01*
X295547Y230632D01*
X284792Y230632D01*
G37*
G36*
X297071Y230632D02*
X297071Y238354D01*
X306339Y238354D01*
X307827Y236866D01*
X307827Y230632D01*
X297071Y230632D01*
G37*
G36*
X297071Y221387D02*
X297071Y229108D01*
X307827Y229108D01*
X307827Y222874D01*
X306339Y221387D01*
X297071Y221387D01*
G37*
G36*
X286279Y221387D02*
X284792Y222874D01*
X284792Y229108D01*
X295547Y229108D01*
X295547Y221387D01*
X286279Y221387D01*
G37*
G36*
X789178Y215392D02*
X789178Y216803D01*
X790841Y220817D01*
X793913Y223889D01*
X797927Y225552D01*
X799338Y225552D01*
X799338Y215392D01*
X789178Y215392D01*
G37*
G36*
X800862Y215392D02*
X800862Y225552D01*
X802273Y225552D01*
X806287Y223889D01*
X809359Y220817D01*
X811022Y216803D01*
X811022Y215392D01*
X800862Y215392D01*
G37*
G36*
X744149Y196626D02*
X743256Y197519D01*
X743256Y210361D01*
X744152Y211257D01*
X744433Y211314D01*
X744683Y211486D01*
X744847Y211741D01*
X744898Y212040D01*
X744828Y212335D01*
X744675Y212555D01*
X743508Y213721D01*
X742240Y216783D01*
X742240Y217678D01*
X758900Y217678D01*
X758900Y216783D01*
X757632Y213721D01*
X756465Y212555D01*
X756298Y212302D01*
X756242Y212004D01*
X756307Y211708D01*
X756483Y211460D01*
X756741Y211301D01*
X756989Y211257D01*
X757884Y210361D01*
X757884Y197519D01*
X756991Y196626D01*
X744149Y196626D01*
G37*
G36*
X800862Y203708D02*
X800862Y213868D01*
X811022Y213868D01*
X811022Y212457D01*
X809359Y208443D01*
X806287Y205371D01*
X802273Y203708D01*
X800862Y203708D01*
G37*
G36*
X797927Y203708D02*
X793913Y205371D01*
X790841Y208443D01*
X789178Y212457D01*
X789178Y213868D01*
X799338Y213868D01*
X799338Y203708D01*
X797927Y203708D01*
G37*
G36*
X715813Y194466D02*
X715813Y205256D01*
X717300Y206744D01*
X720598Y206744D01*
X720598Y194466D01*
X715813Y194466D01*
G37*
G36*
X722122Y194466D02*
X722122Y206744D01*
X725420Y206744D01*
X726908Y205256D01*
X726908Y194466D01*
X722122Y194466D01*
G37*
G36*
X292141Y188722D02*
X292141Y202589D01*
X293629Y204077D01*
X299742Y204077D01*
X299742Y188722D01*
X292141Y188722D01*
G37*
G36*
X301266Y188722D02*
X301266Y204077D01*
X307379Y204077D01*
X308867Y202589D01*
X308867Y188722D01*
X301266Y188722D01*
G37*
G36*
X798130Y179324D02*
X794489Y180832D01*
X791702Y183619D01*
X790194Y187260D01*
X790194Y191200D01*
X791702Y194841D01*
X794489Y197628D01*
X798130Y199136D01*
X802070Y199136D01*
X805711Y197628D01*
X808498Y194841D01*
X810006Y191200D01*
X810006Y187260D01*
X808498Y183619D01*
X805711Y180832D01*
X802070Y179324D01*
X798130Y179324D01*
G37*
G36*
X301266Y171844D02*
X301266Y187198D01*
X308867Y187198D01*
X308867Y173331D01*
X307379Y171844D01*
X301266Y171844D01*
G37*
G36*
X293629Y171844D02*
X292141Y173331D01*
X292141Y187198D01*
X299742Y187198D01*
X299742Y171844D01*
X293629Y171844D01*
G37*
G36*
X213338Y159512D02*
X213338Y174867D01*
X219451Y174867D01*
X220939Y173379D01*
X220939Y159512D01*
X213338Y159512D01*
G37*
G36*
X204213Y159512D02*
X204213Y173379D01*
X205701Y174867D01*
X211814Y174867D01*
X211814Y159512D01*
X204213Y159512D01*
G37*
G36*
X643633Y154432D02*
X643633Y163799D01*
X645121Y165287D01*
X651234Y165287D01*
X651234Y154432D01*
X643633Y154432D01*
G37*
G36*
X652758Y154432D02*
X652758Y165287D01*
X658871Y165287D01*
X660359Y163799D01*
X660359Y154432D01*
X652758Y154432D01*
G37*
G36*
X213338Y142634D02*
X213338Y157988D01*
X220939Y157988D01*
X220939Y144121D01*
X219451Y142634D01*
X213338Y142634D01*
G37*
G36*
X205701Y142634D02*
X204213Y144121D01*
X204213Y157988D01*
X211814Y157988D01*
X211814Y142634D01*
X205701Y142634D01*
G37*
G36*
X645121Y142054D02*
X643633Y143541D01*
X643633Y152908D01*
X651234Y152908D01*
X651234Y142054D01*
X645121Y142054D01*
G37*
G36*
X652758Y142054D02*
X652758Y152908D01*
X660359Y152908D01*
X660359Y143541D01*
X658871Y142054D01*
X652758Y142054D01*
G37*
G36*
X292141Y136652D02*
X292141Y150519D01*
X293629Y152007D01*
X299742Y152007D01*
X299742Y136652D01*
X292141Y136652D01*
G37*
G36*
X301266Y136652D02*
X301266Y152007D01*
X307379Y152007D01*
X308867Y150519D01*
X308867Y136652D01*
X301266Y136652D01*
G37*
G36*
X533908Y140462D02*
X533908Y142125D01*
X535764Y146606D01*
X539194Y150036D01*
X543675Y151892D01*
X545338Y151892D01*
X545338Y140462D01*
X533908Y140462D01*
G37*
G36*
X546862Y140462D02*
X546862Y151892D01*
X548525Y151892D01*
X553006Y150036D01*
X556436Y146606D01*
X558292Y142125D01*
X558292Y140462D01*
X546862Y140462D01*
G37*
G36*
X485017Y128524D02*
X484124Y129417D01*
X484124Y149983D01*
X485017Y150876D01*
X505583Y150876D01*
X506476Y149983D01*
X506476Y129417D01*
X505583Y128524D01*
X485017Y128524D01*
G37*
G36*
X546862Y127508D02*
X546862Y138938D01*
X558292Y138938D01*
X558292Y137275D01*
X556436Y132794D01*
X553006Y129364D01*
X548525Y127508D01*
X546862Y127508D01*
G37*
G36*
X543675Y127508D02*
X539194Y129364D01*
X535764Y132794D01*
X533908Y137275D01*
X533908Y138938D01*
X545338Y138938D01*
X545338Y127508D01*
X543675Y127508D01*
G37*
G36*
X649312Y103914D02*
X646204Y107022D01*
X646204Y111418D01*
X649487Y114701D01*
X649654Y114953D01*
X649710Y115239D01*
X649710Y115638D01*
X649650Y115935D01*
X649478Y116185D01*
X649223Y116348D01*
X648948Y116400D01*
X645542Y116400D01*
X644649Y117292D01*
X644649Y136708D01*
X645542Y137601D01*
X658450Y137601D01*
X659343Y136708D01*
X659343Y117292D01*
X658450Y116400D01*
X655044Y116400D01*
X654747Y116339D01*
X654497Y116168D01*
X654333Y115912D01*
X654282Y115638D01*
X654282Y114267D01*
X654342Y113970D01*
X654505Y113729D01*
X656816Y111418D01*
X656816Y107022D01*
X653708Y103914D01*
X649312Y103914D01*
G37*
G36*
X301266Y119774D02*
X301266Y135128D01*
X308867Y135128D01*
X308867Y121261D01*
X307379Y119774D01*
X301266Y119774D01*
G37*
G36*
X293629Y119774D02*
X292141Y121261D01*
X292141Y135128D01*
X299742Y135128D01*
X299742Y119774D01*
X293629Y119774D01*
G37*
G36*
X711542Y95024D02*
X708434Y98132D01*
X708434Y102528D01*
X709504Y103598D01*
X709672Y103851D01*
X709727Y104149D01*
X709662Y104445D01*
X709487Y104693D01*
X709229Y104852D01*
X708966Y104899D01*
X704032Y104899D01*
X703140Y105792D01*
X703140Y118700D01*
X704032Y119593D01*
X723448Y119593D01*
X724341Y118700D01*
X724341Y105792D01*
X723448Y104899D01*
X718514Y104899D01*
X718217Y104839D01*
X717967Y104667D01*
X717804Y104412D01*
X717753Y104113D01*
X717823Y103818D01*
X717976Y103598D01*
X719046Y102528D01*
X719046Y98132D01*
X715938Y95024D01*
X711542Y95024D01*
G37*
G36*
X564388Y61240D02*
X557989Y62955D01*
X552251Y66267D01*
X547567Y70951D01*
X544255Y76689D01*
X542540Y83088D01*
X542540Y89712D01*
X544255Y96111D01*
X547567Y101849D01*
X552251Y106533D01*
X557989Y109845D01*
X564388Y111560D01*
X571012Y111560D01*
X577411Y109845D01*
X583149Y106533D01*
X587833Y101849D01*
X591145Y96111D01*
X592860Y89712D01*
X592860Y83088D01*
X591145Y76689D01*
X587833Y70951D01*
X583149Y66267D01*
X577411Y62955D01*
X571012Y61240D01*
X564388Y61240D01*
G37*
G36*
X470388Y61240D02*
X463989Y62955D01*
X458251Y66267D01*
X453567Y70951D01*
X450255Y76689D01*
X448540Y83088D01*
X448540Y89712D01*
X450255Y96111D01*
X453567Y101849D01*
X458251Y106533D01*
X463989Y109845D01*
X470388Y111560D01*
X477012Y111560D01*
X483411Y109845D01*
X489149Y106533D01*
X493833Y101849D01*
X497145Y96111D01*
X498860Y89712D01*
X498860Y83088D01*
X497145Y76689D01*
X493833Y70951D01*
X489149Y66267D01*
X483411Y62955D01*
X477012Y61240D01*
X470388Y61240D01*
G37*
G36*
X509569Y23976D02*
X508676Y24869D01*
X508676Y47131D01*
X509569Y48024D01*
X531831Y48024D01*
X532724Y47131D01*
X532724Y44636D01*
X532784Y44339D01*
X532956Y44089D01*
X533211Y43925D01*
X533486Y43874D01*
X584993Y43874D01*
X585290Y43934D01*
X585532Y44097D01*
X603401Y61966D01*
X603568Y62219D01*
X603624Y62505D01*
X603624Y65976D01*
X605519Y70550D01*
X609020Y74051D01*
X613594Y75946D01*
X618546Y75946D01*
X623120Y74051D01*
X626621Y70550D01*
X628516Y65976D01*
X628516Y61024D01*
X626621Y56450D01*
X623120Y52949D01*
X618546Y51054D01*
X615075Y51054D01*
X614778Y50994D01*
X614536Y50831D01*
X593030Y29325D01*
X590136Y28126D01*
X533486Y28126D01*
X533189Y28066D01*
X532939Y27894D01*
X532775Y27639D01*
X532724Y27364D01*
X532724Y24869D01*
X531831Y23976D01*
X509569Y23976D01*
G37*
G36*
X946622Y25012D02*
X937926Y28614D01*
X931270Y35270D01*
X927668Y43966D01*
X927668Y53378D01*
X931270Y62074D01*
X937926Y68730D01*
X946622Y72332D01*
X956034Y72332D01*
X964730Y68730D01*
X971386Y62074D01*
X974988Y53378D01*
X974988Y43966D01*
X971386Y35270D01*
X964730Y28614D01*
X956034Y25012D01*
X946622Y25012D01*
G37*
G36*
X43966Y25012D02*
X35270Y28614D01*
X28614Y35270D01*
X25012Y43966D01*
X25012Y53378D01*
X28614Y62074D01*
X35270Y68730D01*
X43966Y72332D01*
X53378Y72332D01*
X62074Y68730D01*
X68730Y62074D01*
X72332Y53378D01*
X72332Y43966D01*
X68730Y35270D01*
X62074Y28614D01*
X53378Y25012D01*
X43966Y25012D01*
G37*
G36*
X294640Y46482D02*
X294640Y55361D01*
X296187Y59095D01*
X299045Y61953D01*
X302779Y63500D01*
X304038Y63500D01*
X304038Y46482D01*
X294640Y46482D01*
G37*
G36*
X305562Y46482D02*
X305562Y63500D01*
X306821Y63500D01*
X310555Y61953D01*
X313413Y59095D01*
X314960Y55361D01*
X314960Y46482D01*
X305562Y46482D01*
G37*
G36*
X353781Y28956D02*
X350420Y30348D01*
X347848Y32920D01*
X346456Y36281D01*
X346456Y55159D01*
X347848Y58520D01*
X350420Y61092D01*
X353781Y62484D01*
X357419Y62484D01*
X360780Y61092D01*
X363352Y58520D01*
X364744Y55159D01*
X364744Y36281D01*
X363352Y32920D01*
X360780Y30348D01*
X357419Y28956D01*
X353781Y28956D01*
G37*
G36*
X379181Y28956D02*
X375820Y30348D01*
X373248Y32920D01*
X371856Y36281D01*
X371856Y55159D01*
X373248Y58520D01*
X375820Y61092D01*
X379181Y62484D01*
X382819Y62484D01*
X386180Y61092D01*
X388752Y58520D01*
X390144Y55159D01*
X390144Y36281D01*
X388752Y32920D01*
X386180Y30348D01*
X382819Y28956D01*
X379181Y28956D01*
G37*
G36*
X305562Y27940D02*
X305562Y44958D01*
X314960Y44958D01*
X314960Y36079D01*
X313413Y32345D01*
X310555Y29487D01*
X306821Y27940D01*
X305562Y27940D01*
G37*
G36*
X302779Y27940D02*
X299045Y29487D01*
X296187Y32345D01*
X294640Y36079D01*
X294640Y44958D01*
X304038Y44958D01*
X304038Y27940D01*
X302779Y27940D01*
G37*
%LPD*%
G36*
X401882Y473260D02*
X402130Y473435D01*
X402289Y473693D01*
X402336Y473957D01*
X402336Y557943D01*
X420741Y576348D01*
X428638Y576348D01*
X428935Y576408D01*
X429185Y576580D01*
X429348Y576835D01*
X429400Y577110D01*
X429400Y578738D01*
X430292Y579631D01*
X458708Y579631D01*
X459601Y578738D01*
X459601Y578039D01*
X459661Y577742D01*
X459832Y577492D01*
X460088Y577328D01*
X460363Y577277D01*
X502457Y577277D01*
X502754Y577337D01*
X503004Y577509D01*
X503167Y577764D01*
X503219Y578039D01*
X503219Y582977D01*
X504111Y583870D01*
X515874Y583870D01*
X516171Y583930D01*
X516421Y584101D01*
X516585Y584357D01*
X516636Y584632D01*
X516636Y725583D01*
X591371Y800318D01*
X591538Y800571D01*
X591594Y800857D01*
X591594Y802298D01*
X592613Y803317D01*
X592780Y803569D01*
X592836Y803855D01*
X592836Y888271D01*
X592776Y888568D01*
X592613Y888810D01*
X576390Y905033D01*
X576137Y905200D01*
X575851Y905256D01*
X440635Y905256D01*
X440338Y905196D01*
X440097Y905033D01*
X439078Y904014D01*
X434682Y904014D01*
X431574Y907122D01*
X431574Y911518D01*
X434682Y914626D01*
X439078Y914626D01*
X440097Y913607D01*
X440349Y913440D01*
X440635Y913384D01*
X578014Y913384D01*
X578311Y913444D01*
X578561Y913616D01*
X578725Y913871D01*
X578775Y914170D01*
X578706Y914465D01*
X578553Y914685D01*
X575759Y917479D01*
X575506Y917646D01*
X575220Y917702D01*
X430620Y917702D01*
X430323Y917642D01*
X430081Y917479D01*
X428537Y915934D01*
X428463Y915884D01*
X428298Y915630D01*
X428244Y915350D01*
X428244Y901267D01*
X404625Y877648D01*
X404457Y877395D01*
X404402Y877097D01*
X404467Y876801D01*
X404625Y876571D01*
X406674Y874521D01*
X406674Y873259D01*
X398783Y865368D01*
X398616Y865115D01*
X398560Y864817D01*
X398625Y864520D01*
X398783Y864290D01*
X401260Y861813D01*
X402822Y860251D01*
X402822Y838133D01*
X402882Y837835D01*
X403054Y837585D01*
X403309Y837422D01*
X403584Y837371D01*
X406990Y837371D01*
X407883Y836478D01*
X407883Y817062D01*
X406990Y816170D01*
X394082Y816170D01*
X393189Y817062D01*
X393189Y836478D01*
X394082Y837371D01*
X397488Y837371D01*
X397785Y837431D01*
X398035Y837602D01*
X398199Y837858D01*
X398250Y838133D01*
X398250Y858041D01*
X398190Y858339D01*
X398027Y858580D01*
X395550Y861057D01*
X395297Y861224D01*
X394999Y861280D01*
X394703Y861215D01*
X394473Y861057D01*
X386581Y853166D01*
X385319Y853166D01*
X383269Y855215D01*
X383017Y855383D01*
X382718Y855438D01*
X382422Y855373D01*
X382192Y855215D01*
X366525Y839548D01*
X366357Y839295D01*
X366302Y838997D01*
X366367Y838701D01*
X366525Y838471D01*
X368574Y836421D01*
X368574Y835159D01*
X348481Y815066D01*
X347219Y815066D01*
X345169Y817115D01*
X344917Y817283D01*
X344618Y817338D01*
X344322Y817273D01*
X344092Y817115D01*
X338269Y811293D01*
X338102Y811040D01*
X338046Y810754D01*
X338046Y807517D01*
X335757Y805228D01*
X335590Y804975D01*
X335534Y804689D01*
X335534Y800024D01*
X325548Y790038D01*
X325380Y789785D01*
X325325Y789487D01*
X325390Y789191D01*
X325548Y788960D01*
X333234Y781274D01*
X333487Y781107D01*
X333785Y781051D01*
X334081Y781116D01*
X334329Y781292D01*
X334488Y781550D01*
X334535Y781813D01*
X334535Y781959D01*
X336684Y784108D01*
X351596Y769197D01*
X349446Y767047D01*
X348325Y767047D01*
X348028Y766987D01*
X347786Y766824D01*
X343733Y762771D01*
X343565Y762518D01*
X343510Y762232D01*
X343510Y761111D01*
X341360Y758961D01*
X326448Y773872D01*
X328598Y776022D01*
X328744Y776022D01*
X329041Y776082D01*
X329291Y776254D01*
X329455Y776509D01*
X329505Y776808D01*
X329436Y777103D01*
X329283Y777323D01*
X321596Y785009D01*
X321344Y785177D01*
X321046Y785232D01*
X320749Y785167D01*
X320519Y785009D01*
X316769Y781259D01*
X316602Y781007D01*
X316546Y780721D01*
X316546Y775650D01*
X316606Y775353D01*
X316769Y775112D01*
X321920Y769960D01*
X322173Y769793D01*
X322471Y769737D01*
X322767Y769802D01*
X323015Y769978D01*
X323174Y770236D01*
X323221Y770499D01*
X323221Y770645D01*
X325371Y772795D01*
X340282Y757883D01*
X338133Y755734D01*
X337011Y755734D01*
X336714Y755673D01*
X336473Y755510D01*
X332055Y751093D01*
X331942Y751093D01*
X331645Y751032D01*
X331394Y750861D01*
X331231Y750605D01*
X331180Y750331D01*
X331180Y750218D01*
X326398Y745436D01*
X326285Y745436D01*
X325988Y745376D01*
X325738Y745204D01*
X325574Y744949D01*
X325523Y744674D01*
X325523Y744561D01*
X320641Y739679D01*
X320473Y739426D01*
X320418Y739128D01*
X320483Y738832D01*
X320641Y738601D01*
X325523Y733719D01*
X325523Y733606D01*
X325583Y733309D01*
X325755Y733059D01*
X326010Y732895D01*
X326285Y732844D01*
X326398Y732844D01*
X331180Y728062D01*
X331180Y727949D01*
X331240Y727652D01*
X331412Y727402D01*
X331667Y727238D01*
X331942Y727187D01*
X332055Y727187D01*
X336837Y722405D01*
X336837Y722292D01*
X336897Y721995D01*
X337069Y721745D01*
X337324Y721582D01*
X337599Y721530D01*
X337712Y721530D01*
X342494Y716749D01*
X342494Y716636D01*
X342554Y716338D01*
X342725Y716088D01*
X342981Y715925D01*
X343256Y715874D01*
X343369Y715874D01*
X348150Y711092D01*
X348150Y710979D01*
X348211Y710681D01*
X348382Y710431D01*
X348638Y710268D01*
X348912Y710217D01*
X349025Y710217D01*
X353807Y705435D01*
X353807Y705322D01*
X353868Y705025D01*
X354039Y704774D01*
X354295Y704611D01*
X354569Y704560D01*
X354682Y704560D01*
X359464Y699778D01*
X359464Y699665D01*
X359524Y699368D01*
X359696Y699118D01*
X359951Y698954D01*
X360226Y698903D01*
X360339Y698903D01*
X365221Y694021D01*
X365474Y693853D01*
X365772Y693798D01*
X366068Y693863D01*
X366299Y694021D01*
X371181Y698903D01*
X371294Y698903D01*
X371591Y698963D01*
X371841Y699135D01*
X372005Y699390D01*
X372056Y699665D01*
X372056Y699778D01*
X376838Y704560D01*
X376951Y704560D01*
X377248Y704620D01*
X377498Y704792D01*
X377662Y705047D01*
X377713Y705322D01*
X377713Y705435D01*
X382495Y710217D01*
X382608Y710217D01*
X382905Y710277D01*
X383155Y710449D01*
X383318Y710704D01*
X383370Y710979D01*
X383370Y711092D01*
X387787Y715509D01*
X387955Y715762D01*
X388010Y716048D01*
X388010Y717169D01*
X390160Y719319D01*
X405072Y704408D01*
X402922Y702258D01*
X402058Y702258D01*
X401761Y702198D01*
X401510Y702026D01*
X401347Y701771D01*
X401296Y701472D01*
X401366Y701177D01*
X401519Y700957D01*
X406146Y696330D01*
X406146Y691597D01*
X406206Y691300D01*
X406369Y691058D01*
X410497Y686930D01*
X410750Y686763D01*
X411048Y686707D01*
X411345Y686772D01*
X411575Y686930D01*
X413984Y689339D01*
X415246Y689339D01*
X435339Y669246D01*
X435339Y667984D01*
X426211Y658856D01*
X424949Y658856D01*
X404856Y678949D01*
X404856Y680211D01*
X407264Y682620D01*
X407432Y682873D01*
X407488Y683171D01*
X407422Y683467D01*
X407264Y683697D01*
X403136Y687826D01*
X401574Y689388D01*
X401574Y694121D01*
X401514Y694418D01*
X401351Y694659D01*
X398158Y697853D01*
X397905Y698020D01*
X397607Y698076D01*
X397310Y698011D01*
X397080Y697853D01*
X396844Y697617D01*
X396731Y697617D01*
X396434Y697557D01*
X396184Y697385D01*
X396020Y697130D01*
X395969Y696855D01*
X395969Y696742D01*
X391187Y691960D01*
X391074Y691960D01*
X390777Y691900D01*
X390527Y691728D01*
X390364Y691473D01*
X390312Y691198D01*
X390312Y691022D01*
X390268Y690956D01*
X390213Y690658D01*
X390278Y690362D01*
X390436Y690131D01*
X442822Y637745D01*
X443075Y637577D01*
X443361Y637521D01*
X444443Y637521D01*
X444741Y637582D01*
X444991Y637753D01*
X445154Y638009D01*
X445205Y638308D01*
X445135Y638603D01*
X444982Y638822D01*
X437876Y645929D01*
X437876Y647191D01*
X447004Y656319D01*
X448266Y656319D01*
X468359Y636226D01*
X468359Y634964D01*
X466309Y632914D01*
X466142Y632661D01*
X466086Y632363D01*
X466151Y632067D01*
X466309Y631837D01*
X470289Y627857D01*
X470542Y627690D01*
X470828Y627634D01*
X496625Y627634D01*
X496922Y627694D01*
X497163Y627857D01*
X499452Y630146D01*
X503848Y630146D01*
X506956Y627038D01*
X506956Y622642D01*
X503848Y619534D01*
X499452Y619534D01*
X497163Y621823D01*
X496911Y621990D01*
X496625Y622046D01*
X468197Y622046D01*
X462358Y627885D01*
X462105Y628053D01*
X461807Y628108D01*
X461511Y628043D01*
X461281Y627885D01*
X459231Y625836D01*
X457969Y625836D01*
X450437Y633368D01*
X450184Y633535D01*
X449886Y633591D01*
X449590Y633526D01*
X449359Y633368D01*
X447925Y631933D01*
X441890Y631933D01*
X441593Y631873D01*
X441351Y631710D01*
X418987Y609346D01*
X397295Y609346D01*
X396998Y609286D01*
X396748Y609114D01*
X396584Y608859D01*
X396534Y608560D01*
X396603Y608265D01*
X396756Y608045D01*
X401574Y603228D01*
X401574Y595652D01*
X396218Y590296D01*
X388642Y590296D01*
X383286Y595652D01*
X383286Y603228D01*
X388104Y608045D01*
X388271Y608298D01*
X388327Y608596D01*
X388262Y608892D01*
X388086Y609140D01*
X387828Y609299D01*
X387565Y609346D01*
X371895Y609346D01*
X371598Y609286D01*
X371348Y609114D01*
X371184Y608859D01*
X371134Y608560D01*
X371203Y608265D01*
X371356Y608045D01*
X376174Y603228D01*
X376174Y595652D01*
X370818Y590296D01*
X363242Y590296D01*
X357886Y595652D01*
X357886Y603228D01*
X362704Y608045D01*
X362871Y608298D01*
X362927Y608596D01*
X362862Y608892D01*
X362686Y609140D01*
X362428Y609299D01*
X362165Y609346D01*
X353173Y609346D01*
X346659Y615860D01*
X346406Y616027D01*
X346108Y616083D01*
X345812Y616018D01*
X345581Y615860D01*
X345418Y615696D01*
X337842Y615696D01*
X332486Y621052D01*
X332486Y628628D01*
X337842Y633984D01*
X345418Y633984D01*
X350774Y628628D01*
X350774Y621052D01*
X350610Y620889D01*
X350443Y620636D01*
X350387Y620338D01*
X350452Y620042D01*
X350610Y619811D01*
X355264Y615157D01*
X355517Y614990D01*
X355803Y614934D01*
X362165Y614934D01*
X362462Y614994D01*
X362712Y615166D01*
X362876Y615421D01*
X362926Y615720D01*
X362857Y616015D01*
X362704Y616235D01*
X357886Y621052D01*
X357886Y628628D01*
X363242Y633984D01*
X363982Y633984D01*
X364279Y634044D01*
X364529Y634216D01*
X364693Y634471D01*
X364744Y634746D01*
X364744Y641357D01*
X364684Y641655D01*
X364521Y641896D01*
X339344Y667073D01*
X339344Y687673D01*
X341443Y689772D01*
X341611Y690025D01*
X341666Y690323D01*
X341601Y690619D01*
X341443Y690850D01*
X341208Y691085D01*
X341208Y691198D01*
X341147Y691495D01*
X340976Y691746D01*
X340720Y691909D01*
X340446Y691960D01*
X340333Y691960D01*
X335551Y696742D01*
X335551Y696855D01*
X335490Y697152D01*
X335319Y697402D01*
X335063Y697566D01*
X334789Y697617D01*
X334676Y697617D01*
X329894Y702399D01*
X329894Y702512D01*
X329834Y702809D01*
X329662Y703059D01*
X329407Y703223D01*
X329132Y703274D01*
X329019Y703274D01*
X324237Y708056D01*
X324237Y708169D01*
X324177Y708466D01*
X324005Y708716D01*
X323750Y708880D01*
X323475Y708931D01*
X323362Y708931D01*
X318580Y713713D01*
X318580Y713826D01*
X318520Y714123D01*
X318348Y714373D01*
X318093Y714536D01*
X317818Y714588D01*
X317705Y714588D01*
X317642Y714651D01*
X317389Y714819D01*
X317091Y714874D01*
X316795Y714809D01*
X316564Y714651D01*
X307309Y705396D01*
X307142Y705143D01*
X307086Y704857D01*
X307086Y641089D01*
X307146Y640791D01*
X307318Y640541D01*
X307573Y640378D01*
X307872Y640327D01*
X308167Y640397D01*
X308387Y640550D01*
X325941Y658104D01*
X326108Y658357D01*
X326164Y658643D01*
X326164Y662598D01*
X329272Y665706D01*
X333668Y665706D01*
X336776Y662598D01*
X336776Y658202D01*
X333668Y655094D01*
X329713Y655094D01*
X329415Y655034D01*
X329174Y654871D01*
X312389Y638086D01*
X312222Y637833D01*
X312166Y637547D01*
X312166Y562603D01*
X312226Y562305D01*
X312389Y562064D01*
X401035Y473418D01*
X401288Y473250D01*
X401586Y473195D01*
X401882Y473260D01*
G37*
%LPC*%
G36*
X509140Y871622D02*
X509140Y873056D01*
X510821Y877114D01*
X513926Y880219D01*
X517984Y881900D01*
X519418Y881900D01*
X519418Y871622D01*
X509140Y871622D01*
G37*
G36*
X444140Y871622D02*
X444140Y873056D01*
X445821Y877114D01*
X448926Y880219D01*
X452984Y881900D01*
X454418Y881900D01*
X454418Y871622D01*
X444140Y871622D01*
G37*
G36*
X455942Y871622D02*
X455942Y881900D01*
X457376Y881900D01*
X461434Y880219D01*
X464539Y877114D01*
X466220Y873056D01*
X466220Y871622D01*
X455942Y871622D01*
G37*
G36*
X520942Y871622D02*
X520942Y881900D01*
X522376Y881900D01*
X526434Y880219D01*
X529539Y877114D01*
X531220Y873056D01*
X531220Y871622D01*
X520942Y871622D01*
G37*
G36*
X539852Y863592D02*
X539852Y875070D01*
X541340Y876558D01*
X549148Y876558D01*
X549148Y863592D01*
X539852Y863592D01*
G37*
G36*
X550672Y863592D02*
X550672Y876558D01*
X558480Y876558D01*
X559968Y875070D01*
X559968Y863592D01*
X550672Y863592D01*
G37*
G36*
X455942Y859820D02*
X455942Y870098D01*
X466220Y870098D01*
X466220Y868664D01*
X464539Y864606D01*
X461434Y861501D01*
X457376Y859820D01*
X455942Y859820D01*
G37*
G36*
X452984Y859820D02*
X448926Y861501D01*
X445821Y864606D01*
X444140Y868664D01*
X444140Y870098D01*
X454418Y870098D01*
X454418Y859820D01*
X452984Y859820D01*
G37*
G36*
X517984Y859820D02*
X513926Y861501D01*
X510821Y864606D01*
X509140Y868664D01*
X509140Y870098D01*
X519418Y870098D01*
X519418Y859820D01*
X517984Y859820D01*
G37*
G36*
X520942Y859820D02*
X520942Y870098D01*
X531220Y870098D01*
X531220Y868664D01*
X529539Y864606D01*
X526434Y861501D01*
X522376Y859820D01*
X520942Y859820D01*
G37*
G36*
X550672Y849102D02*
X550672Y862068D01*
X559968Y862068D01*
X559968Y850590D01*
X558480Y849102D01*
X550672Y849102D01*
G37*
G36*
X541340Y849102D02*
X539852Y850590D01*
X539852Y862068D01*
X549148Y862068D01*
X549148Y849102D01*
X541340Y849102D01*
G37*
G36*
X518186Y815836D02*
X514502Y817362D01*
X511682Y820182D01*
X510156Y823866D01*
X510156Y827854D01*
X511682Y831538D01*
X514502Y834358D01*
X518186Y835884D01*
X522174Y835884D01*
X525096Y834674D01*
X525393Y834616D01*
X525690Y834679D01*
X525926Y834839D01*
X527263Y836176D01*
X540106Y836176D01*
X540403Y836236D01*
X540653Y836408D01*
X540817Y836663D01*
X540868Y836938D01*
X540868Y845709D01*
X541761Y846602D01*
X558059Y846602D01*
X558952Y845709D01*
X558952Y822071D01*
X558059Y821178D01*
X541761Y821178D01*
X540868Y822071D01*
X540868Y830842D01*
X540808Y831139D01*
X540636Y831389D01*
X540381Y831553D01*
X540106Y831604D01*
X529791Y831604D01*
X529494Y831544D01*
X529244Y831372D01*
X529080Y831117D01*
X529029Y830818D01*
X529087Y830550D01*
X530204Y827854D01*
X530204Y823866D01*
X528678Y820182D01*
X525858Y817362D01*
X522174Y815836D01*
X518186Y815836D01*
G37*
G36*
X430105Y706898D02*
X434631Y711423D01*
X434799Y711676D01*
X434854Y711974D01*
X434789Y712270D01*
X434614Y712518D01*
X434356Y712677D01*
X434092Y712724D01*
X431793Y712724D01*
X431495Y712664D01*
X431254Y712501D01*
X427667Y708914D01*
X409724Y708914D01*
X409600Y709038D01*
X409347Y709205D01*
X409049Y709261D01*
X408753Y709196D01*
X408505Y709021D01*
X408346Y708762D01*
X408299Y708499D01*
X408299Y707635D01*
X406149Y705485D01*
X391238Y720397D01*
X393387Y722546D01*
X394509Y722546D01*
X394806Y722607D01*
X395047Y722770D01*
X399465Y727187D01*
X399578Y727187D01*
X399875Y727248D01*
X400126Y727419D01*
X400289Y727675D01*
X400340Y727949D01*
X400340Y728062D01*
X405122Y732844D01*
X405235Y732844D01*
X405532Y732904D01*
X405782Y733076D01*
X405946Y733331D01*
X405997Y733606D01*
X405997Y733719D01*
X410879Y738601D01*
X411047Y738854D01*
X411102Y739152D01*
X411037Y739448D01*
X410879Y739679D01*
X405997Y744561D01*
X405997Y744674D01*
X405937Y744971D01*
X405765Y745221D01*
X405510Y745385D01*
X405235Y745436D01*
X405122Y745436D01*
X400340Y750218D01*
X400340Y750331D01*
X400280Y750628D01*
X400108Y750878D01*
X399853Y751042D01*
X399578Y751093D01*
X399465Y751093D01*
X394683Y755875D01*
X394683Y755988D01*
X394623Y756285D01*
X394451Y756535D01*
X394196Y756698D01*
X393921Y756750D01*
X393808Y756750D01*
X389026Y761531D01*
X389026Y761644D01*
X388966Y761942D01*
X388795Y762192D01*
X388539Y762355D01*
X388264Y762406D01*
X388151Y762406D01*
X383370Y767188D01*
X383370Y767301D01*
X383309Y767599D01*
X383138Y767849D01*
X382882Y768012D01*
X382608Y768063D01*
X382495Y768063D01*
X377713Y772845D01*
X377713Y772958D01*
X377652Y773255D01*
X377481Y773506D01*
X377225Y773669D01*
X376951Y773720D01*
X376838Y773720D01*
X372056Y778502D01*
X372056Y778615D01*
X371996Y778912D01*
X371824Y779162D01*
X371569Y779326D01*
X371294Y779377D01*
X371181Y779377D01*
X366299Y784259D01*
X366046Y784427D01*
X365748Y784482D01*
X365452Y784417D01*
X365221Y784259D01*
X360339Y779377D01*
X360226Y779377D01*
X359929Y779317D01*
X359679Y779145D01*
X359515Y778890D01*
X359464Y778615D01*
X359464Y778502D01*
X355046Y774084D01*
X354879Y773831D01*
X354823Y773545D01*
X354823Y772424D01*
X352674Y770275D01*
X337762Y785186D01*
X339912Y787336D01*
X341033Y787336D01*
X341330Y787396D01*
X341572Y787559D01*
X345989Y791977D01*
X346103Y791977D01*
X346400Y792037D01*
X346650Y792208D01*
X346813Y792464D01*
X346865Y792739D01*
X346865Y792852D01*
X351646Y797633D01*
X352909Y797633D01*
X356860Y793683D01*
X357113Y793515D01*
X357411Y793460D01*
X357707Y793525D01*
X357937Y793683D01*
X370451Y806196D01*
X403537Y806196D01*
X405374Y804359D01*
X405627Y804192D01*
X405913Y804136D01*
X409868Y804136D01*
X412976Y801028D01*
X412976Y797278D01*
X413036Y796981D01*
X413208Y796731D01*
X413463Y796567D01*
X413738Y796516D01*
X415777Y796516D01*
X416075Y796576D01*
X416316Y796739D01*
X434446Y814869D01*
X434613Y815122D01*
X434669Y815420D01*
X434604Y815716D01*
X434428Y815963D01*
X434170Y816123D01*
X433907Y816170D01*
X423590Y816170D01*
X422697Y817062D01*
X422697Y836478D01*
X423590Y837371D01*
X436498Y837371D01*
X437391Y836478D01*
X437391Y829818D01*
X437451Y829521D01*
X437623Y829271D01*
X437878Y829107D01*
X438153Y829056D01*
X445145Y829056D01*
X445442Y829116D01*
X445692Y829288D01*
X445849Y829526D01*
X446682Y831538D01*
X449502Y834358D01*
X453186Y835884D01*
X457174Y835884D01*
X460858Y834358D01*
X463678Y831538D01*
X465204Y827854D01*
X465204Y823866D01*
X463678Y820182D01*
X460858Y817362D01*
X457174Y815836D01*
X453186Y815836D01*
X450264Y817046D01*
X449967Y817104D01*
X449670Y817041D01*
X449434Y816881D01*
X445967Y813414D01*
X439773Y813414D01*
X439475Y813354D01*
X439234Y813191D01*
X430210Y804167D01*
X430042Y803914D01*
X429987Y803616D01*
X430052Y803320D01*
X430227Y803072D01*
X430485Y802913D01*
X430749Y802866D01*
X433998Y802866D01*
X436557Y800307D01*
X436809Y800140D01*
X437095Y800084D01*
X448085Y800084D01*
X454644Y793525D01*
X454644Y782545D01*
X446815Y774716D01*
X422192Y774716D01*
X421894Y774656D01*
X421653Y774493D01*
X412872Y765712D01*
X412705Y765460D01*
X412649Y765161D01*
X412714Y764865D01*
X412872Y764635D01*
X412940Y764567D01*
X412940Y764454D01*
X413000Y764157D01*
X413172Y763907D01*
X413427Y763744D01*
X413702Y763692D01*
X413815Y763692D01*
X418597Y758911D01*
X418597Y758797D01*
X418657Y758500D01*
X418828Y758250D01*
X419084Y758087D01*
X419359Y758035D01*
X419472Y758035D01*
X419707Y757800D01*
X419960Y757632D01*
X420258Y757577D01*
X420554Y757642D01*
X420785Y757800D01*
X422191Y759206D01*
X430077Y759206D01*
X430374Y759266D01*
X430615Y759429D01*
X433412Y762226D01*
X437808Y762226D01*
X440916Y759118D01*
X440916Y754722D01*
X437808Y751614D01*
X433412Y751614D01*
X430615Y754411D01*
X430363Y754578D01*
X430077Y754634D01*
X424713Y754634D01*
X424416Y754574D01*
X424165Y754402D01*
X424002Y754147D01*
X423951Y753848D01*
X424021Y753553D01*
X424174Y753333D01*
X424253Y753254D01*
X424253Y751991D01*
X411941Y739679D01*
X411774Y739426D01*
X411718Y739128D01*
X411783Y738832D01*
X411941Y738601D01*
X424253Y726289D01*
X424253Y725026D01*
X424174Y724947D01*
X424006Y724694D01*
X423951Y724396D01*
X424016Y724100D01*
X424191Y723852D01*
X424449Y723693D01*
X424713Y723646D01*
X435617Y723646D01*
X435915Y723706D01*
X436156Y723869D01*
X437701Y725414D01*
X437868Y725667D01*
X437924Y725953D01*
X437924Y729908D01*
X441032Y733016D01*
X445428Y733016D01*
X448536Y729908D01*
X448536Y725512D01*
X445428Y722404D01*
X441473Y722404D01*
X441175Y722344D01*
X440934Y722181D01*
X437827Y719074D01*
X422191Y719074D01*
X420785Y720480D01*
X420532Y720648D01*
X420234Y720703D01*
X419938Y720638D01*
X419707Y720480D01*
X419472Y720245D01*
X419359Y720245D01*
X419061Y720184D01*
X418811Y720013D01*
X418648Y719757D01*
X418597Y719483D01*
X418597Y719369D01*
X414014Y714787D01*
X413846Y714534D01*
X413791Y714236D01*
X413856Y713940D01*
X414031Y713692D01*
X414289Y713533D01*
X414553Y713486D01*
X425457Y713486D01*
X425755Y713546D01*
X425996Y713709D01*
X429583Y717296D01*
X474657Y717296D01*
X484114Y707839D01*
X484367Y707672D01*
X484653Y707616D01*
X488608Y707616D01*
X491716Y704508D01*
X491716Y700112D01*
X488608Y697004D01*
X484212Y697004D01*
X481104Y700112D01*
X481104Y704067D01*
X481044Y704365D01*
X480881Y704606D01*
X472986Y712501D01*
X472733Y712668D01*
X472447Y712724D01*
X436868Y712724D01*
X436571Y712664D01*
X436321Y712492D01*
X436157Y712237D01*
X436106Y711938D01*
X436176Y711643D01*
X436329Y711423D01*
X446337Y701415D01*
X440963Y696040D01*
X430105Y706898D01*
G37*
G36*
X424705Y699393D02*
X424705Y701497D01*
X429028Y705820D01*
X439885Y694963D01*
X434510Y689588D01*
X424705Y699393D01*
G37*
G36*
X442040Y694963D02*
X447415Y700337D01*
X457220Y690532D01*
X457220Y688428D01*
X452898Y684105D01*
X442040Y694963D01*
G37*
G36*
X445393Y678705D02*
X435588Y688510D01*
X440963Y693885D01*
X451820Y683028D01*
X447497Y678705D01*
X445393Y678705D01*
G37*
G36*
X463125Y673878D02*
X467448Y678200D01*
X469552Y678200D01*
X479357Y668395D01*
X473983Y663020D01*
X463125Y673878D01*
G37*
G36*
X457725Y666373D02*
X457725Y668477D01*
X462048Y672800D01*
X472905Y661943D01*
X467530Y656568D01*
X457725Y666373D01*
G37*
G36*
X475060Y661943D02*
X480435Y667317D01*
X490240Y657512D01*
X490240Y655408D01*
X485918Y651085D01*
X475060Y661943D01*
G37*
G36*
X478413Y645685D02*
X468608Y655490D01*
X473983Y660865D01*
X484840Y650008D01*
X480517Y645685D01*
X478413Y645685D01*
G37*
G36*
X337842Y590296D02*
X332486Y595652D01*
X332486Y603228D01*
X337842Y608584D01*
X345418Y608584D01*
X350774Y603228D01*
X350774Y595652D01*
X345418Y590296D01*
X337842Y590296D01*
G37*
%LPD*%
G36*
X386425Y614994D02*
X386675Y615166D01*
X386839Y615421D01*
X386890Y615720D01*
X386820Y616015D01*
X386667Y616235D01*
X382270Y620632D01*
X382270Y624078D01*
X402590Y624078D01*
X402590Y620632D01*
X398193Y616235D01*
X398026Y615982D01*
X397970Y615684D01*
X398035Y615388D01*
X398211Y615140D01*
X398469Y614981D01*
X398732Y614934D01*
X416357Y614934D01*
X416654Y614994D01*
X416896Y615157D01*
X436663Y634924D01*
X436830Y635177D01*
X436886Y635475D01*
X436821Y635771D01*
X436663Y636002D01*
X399050Y673614D01*
X398797Y673782D01*
X398499Y673837D01*
X398203Y673772D01*
X397972Y673614D01*
X395683Y671325D01*
X395516Y671072D01*
X395460Y670774D01*
X395525Y670478D01*
X395683Y670247D01*
X400322Y665608D01*
X400322Y664346D01*
X391024Y655048D01*
X389762Y655048D01*
X376173Y668636D01*
X376173Y669899D01*
X385471Y679197D01*
X386734Y679197D01*
X391373Y674558D01*
X391626Y674390D01*
X391924Y674335D01*
X392220Y674400D01*
X392450Y674558D01*
X394740Y676847D01*
X394907Y677100D01*
X394963Y677398D01*
X394898Y677694D01*
X394740Y677925D01*
X386485Y686180D01*
X386232Y686347D01*
X385934Y686403D01*
X385637Y686338D01*
X385587Y686303D01*
X385417Y686303D01*
X385120Y686243D01*
X384870Y686072D01*
X384707Y685816D01*
X384655Y685541D01*
X384655Y685428D01*
X379874Y680647D01*
X378611Y680647D01*
X374660Y684597D01*
X374408Y684765D01*
X374109Y684820D01*
X373813Y684755D01*
X373583Y684597D01*
X372079Y683094D01*
X371912Y682841D01*
X371856Y682555D01*
X371856Y664663D01*
X371916Y664366D01*
X372079Y664125D01*
X374876Y661328D01*
X374876Y656932D01*
X371768Y653824D01*
X367372Y653824D01*
X364264Y656932D01*
X364264Y661328D01*
X367061Y664125D01*
X367228Y664377D01*
X367284Y664663D01*
X367284Y684764D01*
X370350Y687830D01*
X370517Y688083D01*
X370573Y688381D01*
X370508Y688677D01*
X370350Y688908D01*
X366299Y692959D01*
X366046Y693126D01*
X365748Y693182D01*
X365452Y693117D01*
X365221Y692959D01*
X361170Y688908D01*
X361003Y688655D01*
X360947Y688357D01*
X361012Y688061D01*
X361170Y687830D01*
X362674Y686327D01*
X364236Y684764D01*
X364236Y674693D01*
X362399Y672856D01*
X362232Y672603D01*
X362176Y672317D01*
X362176Y668362D01*
X359068Y665254D01*
X354672Y665254D01*
X351564Y668362D01*
X351564Y672758D01*
X354672Y675866D01*
X358627Y675866D01*
X358925Y675926D01*
X359166Y676089D01*
X359441Y676364D01*
X359608Y676617D01*
X359664Y676903D01*
X359664Y682555D01*
X359604Y682852D01*
X359441Y683094D01*
X357937Y684597D01*
X357684Y684765D01*
X357386Y684820D01*
X357090Y684755D01*
X356860Y684597D01*
X352909Y680647D01*
X351646Y680647D01*
X346865Y685428D01*
X346865Y685541D01*
X346804Y685839D01*
X346633Y686089D01*
X346377Y686252D01*
X346103Y686303D01*
X345990Y686303D01*
X345754Y686539D01*
X345501Y686707D01*
X345203Y686762D01*
X344907Y686697D01*
X344676Y686539D01*
X344139Y686002D01*
X343972Y685749D01*
X343916Y685463D01*
X343916Y669283D01*
X343976Y668985D01*
X344139Y668744D01*
X369316Y643567D01*
X369316Y634746D01*
X369376Y634449D01*
X369548Y634199D01*
X369803Y634035D01*
X370078Y633984D01*
X370818Y633984D01*
X376174Y628628D01*
X376174Y621052D01*
X371356Y616235D01*
X371189Y615982D01*
X371133Y615684D01*
X371198Y615388D01*
X371374Y615140D01*
X371632Y614981D01*
X371895Y614934D01*
X386128Y614934D01*
X386425Y614994D01*
G37*
%LPC*%
G36*
X399167Y657281D02*
X403575Y661688D01*
X405679Y661688D01*
X412232Y655135D01*
X406772Y649675D01*
X399167Y657281D01*
G37*
G36*
X393682Y649691D02*
X393682Y651795D01*
X398090Y656203D01*
X405695Y648598D01*
X400235Y643138D01*
X393682Y649691D01*
G37*
G36*
X407850Y648598D02*
X413310Y654058D01*
X419863Y647504D01*
X419863Y645400D01*
X415455Y640992D01*
X407850Y648598D01*
G37*
G36*
X407866Y635507D02*
X401312Y642060D01*
X406772Y647520D01*
X414378Y639915D01*
X409970Y635507D01*
X407866Y635507D01*
G37*
G36*
X382270Y625602D02*
X382270Y629048D01*
X388222Y635000D01*
X391668Y635000D01*
X391668Y625602D01*
X382270Y625602D01*
G37*
G36*
X393192Y625602D02*
X393192Y635000D01*
X396638Y635000D01*
X402590Y629048D01*
X402590Y625602D01*
X393192Y625602D01*
G37*
%LPD*%
D10*
X803910Y399127D03*
X803910Y312073D03*
D11*
X552051Y598170D03*
X578249Y598170D03*
D12*
X444500Y572284D03*
X444500Y542776D03*
X577850Y531346D03*
X577850Y560854D03*
X577850Y511324D03*
X577850Y481816D03*
D13*
X646461Y609600D03*
X714979Y609600D03*
D14*
X698986Y426720D03*
X728494Y426720D03*
D15*
X767080Y495800D03*
X767080Y466860D03*
D16*
X728430Y495300D03*
X645710Y495300D03*
D17*
X651510Y377676D03*
X651510Y407184D03*
X651510Y329416D03*
X651510Y358924D03*
D18*
X502615Y483870D03*
X521005Y483870D03*
D19*
X476250Y501955D03*
X476250Y483565D03*
D20*
X678080Y396240D03*
X678080Y383540D03*
X678080Y370840D03*
X678080Y358140D03*
X729080Y358140D03*
X729080Y370840D03*
X729080Y383540D03*
X729080Y396240D03*
D21*
X703580Y377190D03*
D22*
X497700Y511367D03*
X520700Y511367D03*
X543700Y511367D03*
D23*
X520700Y573213D03*
D24*
X834270Y63500D03*
X616070Y63500D03*
D17*
X713740Y112246D03*
X713740Y141754D03*
D25*
X520700Y36000D03*
X520700Y91000D03*
D26*
X290303Y807193D03*
X255797Y772687D03*
D27*
G36*
X433814Y668615D02*
X425579Y660380D01*
X406380Y679579D01*
X414615Y687814D01*
X433814Y668615D01*
G37*
G36*
X454680Y689481D02*
X446445Y681246D01*
X427246Y700445D01*
X435481Y708680D01*
X454680Y689481D01*
G37*
G36*
X466834Y635595D02*
X458599Y627360D01*
X439400Y646559D01*
X447635Y654794D01*
X466834Y635595D01*
G37*
G36*
X487700Y656461D02*
X479465Y648226D01*
X460266Y667425D01*
X468501Y675660D01*
X487700Y656461D01*
G37*
G36*
X396915Y882124D02*
X405150Y873889D01*
X385951Y854690D01*
X377716Y862925D01*
X396915Y882124D01*
G37*
G36*
X376049Y902990D02*
X384284Y894755D01*
X365085Y875556D01*
X356850Y883791D01*
X376049Y902990D01*
G37*
G36*
X358815Y844024D02*
X367050Y835789D01*
X347851Y816590D01*
X339616Y824825D01*
X358815Y844024D01*
G37*
G36*
X337949Y864890D02*
X346184Y856655D01*
X326985Y837456D01*
X318750Y845691D01*
X337949Y864890D01*
G37*
D11*
G36*
X390393Y656572D02*
X377698Y669267D01*
X386103Y677672D01*
X398798Y664977D01*
X390393Y656572D01*
G37*
G36*
X408917Y638048D02*
X396222Y650743D01*
X404627Y659148D01*
X417322Y646453D01*
X408917Y638048D01*
G37*
D28*
X341630Y599440D03*
X341630Y624840D03*
X367030Y599440D03*
X367030Y624840D03*
X392430Y599440D03*
X392430Y624840D03*
D29*
X455180Y870860D03*
X520180Y870860D03*
X455180Y825860D03*
X520180Y825860D03*
D15*
X549910Y833890D03*
X549910Y862830D03*
D30*
X698292Y840740D03*
X729188Y840740D03*
D14*
X745976Y840740D03*
X775484Y840740D03*
D30*
X698292Y774700D03*
X729188Y774700D03*
D14*
X745976Y774700D03*
X775484Y774700D03*
D31*
X48672Y48672D03*
X951328Y48672D03*
X951328Y930628D03*
X48672Y930628D03*
D32*
G36*
X359708Y780901D02*
X348389Y792220D01*
X352278Y796109D01*
X363597Y784790D01*
X359708Y780901D01*
G37*
G36*
X354051Y775244D02*
X342732Y786563D01*
X346621Y790452D01*
X357940Y779133D01*
X354051Y775244D01*
G37*
G36*
X348394Y769588D02*
X337075Y780907D01*
X340964Y784796D01*
X352283Y773477D01*
X348394Y769588D01*
G37*
G36*
X342737Y763931D02*
X331418Y775250D01*
X335307Y779139D01*
X346626Y767820D01*
X342737Y763931D01*
G37*
G36*
X337080Y758274D02*
X325761Y769593D01*
X329650Y773482D01*
X340969Y762163D01*
X337080Y758274D01*
G37*
G36*
X331423Y752617D02*
X320104Y763936D01*
X323993Y767825D01*
X335312Y756506D01*
X331423Y752617D01*
G37*
G36*
X325767Y746960D02*
X314448Y758279D01*
X318337Y762168D01*
X329656Y750849D01*
X325767Y746960D01*
G37*
G36*
X320110Y741303D02*
X308791Y752622D01*
X312680Y756511D01*
X323999Y745192D01*
X320110Y741303D01*
G37*
G36*
X323999Y733088D02*
X312680Y721769D01*
X308791Y725658D01*
X320110Y736977D01*
X323999Y733088D01*
G37*
G36*
X329656Y727431D02*
X318337Y716112D01*
X314448Y720001D01*
X325767Y731320D01*
X329656Y727431D01*
G37*
G36*
X335312Y721774D02*
X323993Y710455D01*
X320104Y714344D01*
X331423Y725663D01*
X335312Y721774D01*
G37*
G36*
X340969Y716117D02*
X329650Y704798D01*
X325761Y708687D01*
X337080Y720006D01*
X340969Y716117D01*
G37*
G36*
X346626Y710460D02*
X335307Y699141D01*
X331418Y703030D01*
X342737Y714349D01*
X346626Y710460D01*
G37*
G36*
X352283Y704803D02*
X340964Y693484D01*
X337075Y697373D01*
X348394Y708692D01*
X352283Y704803D01*
G37*
G36*
X357940Y699147D02*
X346621Y687828D01*
X342732Y691717D01*
X354051Y703036D01*
X357940Y699147D01*
G37*
G36*
X363597Y693490D02*
X352278Y682171D01*
X348389Y686060D01*
X359708Y697379D01*
X363597Y693490D01*
G37*
G36*
X379242Y682171D02*
X367923Y693490D01*
X371812Y697379D01*
X383131Y686060D01*
X379242Y682171D01*
G37*
G36*
X384899Y687828D02*
X373580Y699147D01*
X377469Y703036D01*
X388788Y691717D01*
X384899Y687828D01*
G37*
G36*
X390556Y693484D02*
X379237Y704803D01*
X383126Y708692D01*
X394445Y697373D01*
X390556Y693484D01*
G37*
G36*
X396213Y699141D02*
X384894Y710460D01*
X388783Y714349D01*
X400102Y703030D01*
X396213Y699141D01*
G37*
G36*
X401870Y704798D02*
X390551Y716117D01*
X394440Y720006D01*
X405759Y708687D01*
X401870Y704798D01*
G37*
G36*
X407527Y710455D02*
X396208Y721774D01*
X400097Y725663D01*
X411416Y714344D01*
X407527Y710455D01*
G37*
G36*
X413183Y716112D02*
X401864Y727431D01*
X405753Y731320D01*
X417072Y720001D01*
X413183Y716112D01*
G37*
G36*
X418840Y721769D02*
X407521Y733088D01*
X411410Y736977D01*
X422729Y725658D01*
X418840Y721769D01*
G37*
G36*
X422729Y752622D02*
X411410Y741303D01*
X407521Y745192D01*
X418840Y756511D01*
X422729Y752622D01*
G37*
G36*
X417072Y758279D02*
X405753Y746960D01*
X401864Y750849D01*
X413183Y762168D01*
X417072Y758279D01*
G37*
G36*
X411416Y763936D02*
X400097Y752617D01*
X396208Y756506D01*
X407527Y767825D01*
X411416Y763936D01*
G37*
G36*
X405759Y769593D02*
X394440Y758274D01*
X390551Y762163D01*
X401870Y773482D01*
X405759Y769593D01*
G37*
G36*
X400102Y775250D02*
X388783Y763931D01*
X384894Y767820D01*
X396213Y779139D01*
X400102Y775250D01*
G37*
G36*
X394445Y780907D02*
X383126Y769588D01*
X379237Y773477D01*
X390556Y784796D01*
X394445Y780907D01*
G37*
G36*
X388788Y786563D02*
X377469Y775244D01*
X373580Y779133D01*
X384899Y790452D01*
X388788Y786563D01*
G37*
G36*
X383131Y792220D02*
X371812Y780901D01*
X367923Y784790D01*
X379242Y796109D01*
X383131Y792220D01*
G37*
D33*
G36*
X365760Y746551D02*
X351618Y760693D01*
X365760Y774835D01*
X379902Y760693D01*
X365760Y746551D01*
G37*
G36*
X387313Y724998D02*
X373171Y739140D01*
X387313Y753282D01*
X401455Y739140D01*
X387313Y724998D01*
G37*
G36*
X365760Y703445D02*
X351618Y717587D01*
X365760Y731729D01*
X379902Y717587D01*
X365760Y703445D01*
G37*
G36*
X344207Y724998D02*
X330065Y739140D01*
X344207Y753282D01*
X358349Y739140D01*
X344207Y724998D01*
G37*
D34*
X207837Y306210D03*
X207837Y283210D03*
X207837Y260210D03*
D35*
X269683Y283210D03*
D27*
X270996Y135890D03*
X300504Y135890D03*
X270996Y187960D03*
X300504Y187960D03*
D11*
X270111Y229870D03*
X296309Y229870D03*
D14*
X430044Y826770D03*
X400536Y826770D03*
D36*
X231750Y221831D03*
X222250Y221831D03*
X212750Y221831D03*
X212750Y197269D03*
X222250Y197269D03*
X231750Y197269D03*
D37*
X165100Y237975D03*
X165100Y178585D03*
D38*
X190090Y446548D03*
X183590Y446548D03*
X177090Y446548D03*
X170590Y446548D03*
X170590Y389112D03*
X177090Y389112D03*
X183590Y389112D03*
X190090Y389112D03*
D17*
X175260Y333524D03*
X175260Y304016D03*
D14*
X177016Y356870D03*
X206524Y356870D03*
D39*
X128270Y356870D03*
X153670Y356870D03*
X140970Y356870D03*
D17*
X140970Y394186D03*
X140970Y423694D03*
D40*
X64160Y357983D03*
X83160Y357983D03*
X73660Y380397D03*
X276250Y357983D03*
X295250Y357983D03*
X285750Y380397D03*
D27*
X242084Y158750D03*
X212576Y158750D03*
D41*
X495300Y139700D03*
D42*
X520700Y139700D03*
X546100Y139700D03*
D43*
X520700Y258200D03*
D44*
X466582Y416150D03*
X466582Y409650D03*
X466582Y403150D03*
X466582Y396650D03*
X524018Y396650D03*
X524018Y403150D03*
X524018Y409650D03*
X524018Y416150D03*
D17*
X430530Y424666D03*
X430530Y454174D03*
X430530Y373866D03*
X430530Y403374D03*
X566420Y375434D03*
X566420Y345926D03*
X566420Y426234D03*
X566420Y396726D03*
D45*
X215900Y648970D03*
D46*
X215900Y623570D03*
X215900Y598170D03*
X215900Y572770D03*
D47*
X55200Y696400D03*
X55200Y751400D03*
X97200Y696400D03*
X97200Y751400D03*
X55200Y569400D03*
X55200Y624400D03*
X97200Y569400D03*
X97200Y624400D03*
D48*
X954600Y466000D03*
X899600Y466000D03*
X954600Y508000D03*
X899600Y508000D03*
X954600Y550000D03*
X899600Y550000D03*
D49*
X431800Y53340D02*
X431800Y38100D01*
X406400Y38100D02*
X406400Y53340D01*
X381000Y53340D02*
X381000Y38100D01*
X355600Y38100D02*
X355600Y53340D01*
X330200Y53340D02*
X330200Y38100D01*
X304800Y38100D02*
X304800Y53340D01*
D45*
X200000Y941900D03*
D46*
X225400Y941900D03*
D12*
X294640Y420856D03*
X294640Y450364D03*
D17*
X73660Y395456D03*
X73660Y424964D03*
D12*
X73660Y441176D03*
X73660Y470684D03*
D50*
X294030Y283210D03*
X313030Y283210D03*
D14*
X286236Y257810D03*
X315744Y257810D03*
D51*
X683260Y193704D03*
X695960Y193704D03*
X708660Y193704D03*
X721360Y193704D03*
X721360Y243176D03*
X708660Y243176D03*
X695960Y243176D03*
X683260Y243176D03*
D52*
X750570Y203940D03*
D53*
X750570Y218440D03*
X750570Y232940D03*
D14*
X727224Y163830D03*
X697716Y163830D03*
D54*
X800100Y163830D03*
D55*
X800100Y189230D03*
X800100Y214630D03*
D14*
X651996Y127000D03*
X681504Y127000D03*
X681504Y153670D03*
X651996Y153670D03*
D17*
X651510Y193526D03*
X651510Y223034D03*
D56*
X728430Y495300D02*
X728494Y495364D01*
D57*
X728930Y495800D02*
X767080Y495800D01*
X729080Y426134D02*
X729080Y396240D01*
D56*
X729080Y426134D02*
X728494Y426720D01*
D57*
X728494Y495364D01*
D56*
X728930Y495800D01*
D57*
X645710Y495300D02*
X645710Y444500D01*
D58*
X647700Y430530D03*
D59*
X647700Y442510D02*
X645710Y444500D01*
X647700Y442510D02*
X647700Y431800D01*
D57*
X647700Y430530D02*
X647700Y421640D01*
D56*
X647700Y430530D02*
X647700Y431800D01*
D57*
X651510Y417830D02*
X651510Y407184D01*
X651510Y417830D02*
X647700Y421640D01*
D59*
X645710Y495300D02*
X646461Y496051D01*
D57*
X646461Y609600D01*
D60*
X391433Y868407D02*
X353333Y830307D01*
X313752Y774177D02*
X327708Y760221D01*
X313752Y774177D02*
X313752Y782194D01*
X332740Y801182D02*
X332740Y809715D01*
X320769Y789211D02*
X313752Y782194D01*
X320769Y789211D02*
X332740Y801182D01*
D56*
X400536Y826770D02*
X400536Y859304D01*
X391433Y868407D01*
D60*
X453117Y641077D02*
X446767Y634727D01*
X441888Y634727D01*
D56*
X441153Y635463D01*
D60*
X398608Y678008D01*
X381184Y695432D01*
D56*
X398608Y677483D02*
X388248Y667122D01*
X398608Y677483D02*
X398608Y678008D01*
D60*
X339022Y771535D02*
X321346Y789211D01*
D56*
X320769Y789211D01*
X577850Y531346D02*
X577850Y511324D01*
X543743Y511324D02*
X543700Y511367D01*
D57*
X543743Y511324D02*
X577850Y511324D01*
X601196Y511324D01*
X617220Y495300D01*
X645710Y495300D01*
X431800Y332740D02*
X431800Y88900D01*
X431800Y332740D02*
X457200Y358140D01*
X485140Y358140D01*
X502920Y375920D01*
X502920Y416560D01*
X502920Y429260D01*
X543743Y470083D01*
X543743Y511324D01*
D56*
X524018Y416150D02*
X503330Y416150D01*
X502920Y416560D01*
X242084Y174476D02*
X242084Y158750D01*
X242084Y174476D02*
X231750Y184810D01*
X231750Y197269D01*
X419100Y88900D02*
X431800Y88900D01*
D58*
X419100Y88900D03*
X393700Y88900D03*
D56*
X292100Y88900D01*
D57*
X646461Y609600D02*
X646461Y838200D01*
X646461Y854679D01*
X577850Y923290D01*
X427990Y923290D01*
X425450Y920750D01*
D58*
X425450Y920750D03*
D60*
X353333Y830307D02*
X332740Y809715D01*
X391433Y868407D02*
X425450Y902425D01*
X425450Y920750D01*
D58*
X332740Y809715D03*
D56*
X695752Y838200D02*
X698292Y840740D01*
X695752Y838200D02*
X646461Y838200D01*
D58*
X292100Y88900D03*
D56*
X242084Y127486D02*
X242084Y158750D01*
D58*
X242570Y127000D03*
D56*
X242084Y127486D01*
X237909Y197269D02*
X231750Y197269D01*
X237909Y197269D02*
X243840Y203200D01*
X243840Y264160D01*
D58*
X243840Y264160D03*
D60*
X354330Y612140D02*
X341630Y624840D01*
X354330Y612140D02*
X417830Y612140D01*
X441153Y635463D01*
X612140Y609600D02*
X646461Y609600D01*
X612140Y609600D02*
X596900Y624840D01*
X543560Y624840D01*
D58*
X543560Y624840D03*
X501650Y624840D03*
D60*
X469355Y624840D01*
X453117Y641077D01*
D57*
X431800Y88900D02*
X431800Y45720D01*
D56*
X651996Y109706D02*
X651996Y127000D01*
X651996Y109706D02*
X651510Y109220D01*
D58*
X651510Y109220D03*
X679450Y217170D03*
D56*
X683260Y220980D01*
X683260Y243176D01*
X651510Y358924D02*
X651510Y377676D01*
X652294Y358140D02*
X678080Y358140D01*
X652294Y358140D02*
X651510Y358924D01*
X678080Y396240D02*
X678080Y416460D01*
X688340Y426720D01*
X698986Y426720D01*
D58*
X245110Y817880D03*
X259080Y803910D03*
D56*
X528210Y862830D02*
X549910Y862830D01*
X528210Y862830D02*
X520180Y870860D01*
X651510Y329416D02*
X672614Y329416D01*
X673100Y328930D01*
D58*
X673100Y328930D03*
D56*
X703580Y368300D02*
X703580Y377190D01*
D58*
X772160Y322580D03*
D56*
X782667Y312073D01*
X803910Y312073D01*
D58*
X767080Y447040D03*
D57*
X767080Y466860D01*
D58*
X322360Y776940D03*
D56*
X322360Y776883D02*
X333365Y765878D01*
X322360Y776883D02*
X322360Y776940D01*
X440963Y694963D02*
X457200Y678725D01*
X457200Y678180D01*
X457745Y678180D02*
X473983Y661943D01*
X457745Y678180D02*
X457200Y678180D01*
X404437Y706120D02*
X398155Y712402D01*
X404437Y706120D02*
X429805Y706120D01*
X440963Y694963D01*
X406772Y648598D02*
X419100Y636270D01*
X392430Y634255D02*
X392430Y624840D01*
X392430Y634255D02*
X406772Y648598D01*
D58*
X332740Y788670D03*
D56*
X333201Y788670D02*
X344679Y777192D01*
X333201Y788670D02*
X332740Y788670D01*
D58*
X241300Y76200D03*
X266700Y76200D03*
X292100Y76200D03*
X317500Y76200D03*
X342900Y76200D03*
X368300Y76200D03*
X393700Y76200D03*
X419100Y76200D03*
X444500Y76200D03*
X482600Y25400D03*
X520700Y63500D03*
X429260Y739140D03*
X302260Y739140D03*
D56*
X212576Y174476D02*
X212576Y158750D01*
X212576Y174476D02*
X222250Y184150D01*
X222250Y197269D01*
X222250Y221831D01*
D58*
X356870Y866140D03*
X346710Y876300D03*
D60*
X352152Y870858D02*
X332467Y851173D01*
X352152Y870858D02*
X370567Y889273D01*
X352152Y870858D02*
X356870Y866140D01*
D56*
X352152Y870858D02*
X352152Y870858D01*
D60*
X346710Y876300D01*
D56*
X352152Y870858D02*
X352152Y870858D01*
D58*
X463268Y678180D03*
D56*
X457745Y678180D01*
D58*
X793750Y840740D03*
X793750Y774700D03*
D56*
X793750Y840740D02*
X775484Y840740D01*
X775484Y774700D02*
X793750Y774700D01*
D58*
X744220Y609600D03*
X755650Y609600D03*
D56*
X744220Y609600D02*
X714979Y609600D01*
X744220Y609600D02*
X755650Y609600D01*
X300504Y187960D02*
X300504Y135890D01*
X296309Y218041D02*
X296309Y229870D01*
X296309Y218041D02*
X300504Y213846D01*
X300504Y187960D01*
X317500Y187960D01*
D58*
X317500Y187960D03*
D56*
X317500Y135890D02*
X300504Y135890D01*
D58*
X317500Y135890D03*
D56*
X317500Y229870D02*
X296309Y229870D01*
D58*
X317500Y229870D03*
D56*
X213360Y157966D02*
X212576Y158750D01*
X213360Y157966D02*
X213360Y133350D01*
D58*
X213360Y133350D03*
D56*
X222250Y221831D02*
X222250Y237490D01*
D58*
X222250Y237490D03*
D56*
X170590Y446548D02*
X170590Y466950D01*
X170180Y467360D01*
D58*
X170180Y467360D03*
D56*
X295250Y357983D02*
X308453Y357983D01*
X308610Y358140D01*
D58*
X308610Y358140D03*
D56*
X84273Y356870D02*
X83160Y357983D01*
X84273Y356870D02*
X128270Y356870D01*
X83160Y357983D02*
X83160Y346100D01*
X83820Y345440D01*
D58*
X83820Y345440D03*
X430530Y358140D03*
D56*
X430530Y373866D01*
X452606Y373866D01*
X466582Y387842D01*
X466582Y396650D01*
X566420Y426234D02*
X566420Y443230D01*
X572770Y449580D01*
X577850Y454660D01*
X577850Y481816D01*
D58*
X572770Y449580D03*
X476250Y525780D03*
D56*
X476250Y501955D01*
D59*
X463064Y542776D02*
X444500Y542776D01*
X463064Y542776D02*
X476250Y529590D01*
X476250Y525780D01*
D56*
X577850Y560854D02*
X577850Y577850D01*
X577850Y597771D01*
X578249Y598170D01*
D58*
X577850Y577850D03*
X745490Y370840D03*
D57*
X729080Y370840D01*
D58*
X483870Y396240D03*
D56*
X466992Y396240D02*
X466582Y396650D01*
X466992Y396240D02*
X483870Y396240D01*
D58*
X420088Y636270D03*
D56*
X419100Y636270D01*
D57*
X706120Y370840D02*
X729080Y370840D01*
D59*
X706120Y370840D02*
X703580Y368300D01*
D58*
X703580Y377190D03*
X711200Y387350D03*
X695960Y387350D03*
X711200Y367030D03*
X695960Y367030D03*
D56*
X651996Y153670D02*
X638810Y153670D01*
D58*
X638810Y153670D03*
D56*
X721360Y193704D02*
X721360Y210820D01*
X726440Y215900D01*
D58*
X726440Y215900D03*
X363653Y804747D03*
D56*
X286236Y257810D02*
X286236Y245894D01*
X296309Y235821D01*
X296309Y229870D01*
X73660Y470684D02*
X73660Y483870D01*
D58*
X73660Y483870D03*
X558800Y24344D03*
D57*
X729080Y383540D02*
X745490Y383540D01*
D58*
X745490Y383540D03*
D57*
X761077Y399127D02*
X803910Y399127D01*
X761077Y399127D02*
X745490Y383540D01*
X803910Y399127D02*
X803910Y461010D01*
X850900Y508000D01*
D56*
X204470Y383540D02*
X198898Y389112D01*
X190090Y389112D01*
D58*
X204470Y383540D03*
X213360Y242570D03*
D56*
X213360Y222441D01*
X212750Y221831D01*
X208765Y237975D02*
X165100Y237975D01*
X208765Y237975D02*
X213360Y242570D01*
X803910Y359410D02*
X803910Y399127D01*
X803910Y359410D02*
X783590Y339090D01*
X728980Y339090D01*
X706120Y316230D01*
X621030Y316230D01*
X591334Y345926D02*
X566420Y345926D01*
X591334Y345926D02*
X621030Y316230D01*
D58*
X177800Y412750D03*
D56*
X190090Y400460D01*
X190090Y389112D01*
D57*
X850900Y508000D02*
X954600Y508000D01*
D59*
X899600Y508000D01*
D56*
X566420Y345926D02*
X460226Y345926D01*
X444500Y330200D01*
D58*
X444500Y330200D03*
X393700Y330200D03*
D56*
X257810Y330200D01*
X204470Y383540D01*
D60*
X76286Y818186D02*
X200000Y941900D01*
X76286Y717805D02*
X55200Y696719D01*
X55200Y696400D01*
X76286Y717805D02*
X76286Y818186D01*
D59*
X520700Y573213D02*
X520700Y511367D01*
D56*
X520700Y484175D02*
X521005Y483870D01*
X520700Y484175D02*
X520700Y511367D01*
D59*
X520700Y573213D02*
X445429Y573213D01*
D56*
X444500Y572284D01*
D59*
X422424Y572284D01*
X406400Y556260D01*
D56*
X673100Y774700D02*
X698292Y774700D01*
D58*
X673100Y774700D03*
X596900Y800100D03*
D59*
X520700Y599440D02*
X520700Y573213D01*
X520700Y599440D02*
X520700Y723900D01*
X596900Y800100D01*
X596900Y890270D01*
X577850Y909320D01*
X436880Y909320D01*
D58*
X436880Y909320D03*
X412750Y909320D03*
D56*
X521970Y598170D02*
X552051Y598170D01*
X521970Y598170D02*
X520700Y599440D01*
X412070Y908640D02*
X412750Y909320D01*
D59*
X412070Y908640D02*
X253320Y908640D01*
X185420Y840740D01*
X97200Y670800D02*
X97200Y624400D01*
X97640Y751840D02*
X151130Y751840D01*
D56*
X97640Y751840D02*
X97200Y751400D01*
D59*
X151130Y751840D02*
X151130Y840740D01*
X151130Y751840D02*
X151130Y724730D01*
X97200Y670800D01*
X151130Y840740D02*
X185420Y840740D01*
X406400Y556260D02*
X406400Y45720D01*
D56*
X502310Y483565D02*
X502615Y483870D01*
X502310Y483565D02*
X491490Y483565D01*
X476250Y483565D01*
X497700Y496430D02*
X497700Y511367D01*
X497700Y496430D02*
X491490Y490220D01*
X491490Y483565D01*
X466582Y416150D02*
X466582Y409650D01*
X466582Y416150D02*
X466582Y422132D01*
X450850Y437864D01*
X450850Y443230D01*
D58*
X450850Y443230D03*
X443230Y727710D03*
D56*
X436880Y721360D01*
X423138Y721360D01*
X415125Y729373D01*
X524018Y409650D02*
X524018Y403150D01*
X524018Y409650D02*
X537920Y409650D01*
X543560Y415290D01*
D58*
X543560Y415290D03*
X435610Y756920D03*
D56*
X423138Y756920D01*
X415125Y748907D01*
D61*
X520700Y139700D02*
X520700Y91000D01*
X520700Y139700D02*
X520700Y228600D01*
D59*
X520700Y258200D01*
D58*
X393700Y254000D03*
D56*
X393700Y308610D01*
X400050Y314960D01*
X400050Y471170D01*
X309880Y561340D01*
X309880Y638810D01*
X331470Y660400D01*
D58*
X331470Y660400D03*
X407670Y798830D03*
D56*
X402590Y803910D01*
X371398Y803910D01*
X355993Y788505D01*
D61*
X941900Y171130D02*
X834270Y63500D01*
X941900Y171130D02*
X941900Y302260D01*
D62*
X941900Y304800D01*
D58*
X925830Y302260D03*
D56*
X941900Y302260D01*
D58*
X463550Y453390D03*
D56*
X431314Y453390D01*
X430530Y454174D01*
D58*
X647700Y299720D03*
D56*
X626110Y299720D01*
X596900Y328930D01*
D58*
X596900Y328930D03*
D61*
X954600Y317500D02*
X954600Y466000D01*
X954600Y317500D02*
X941900Y304800D01*
D56*
X800100Y163830D02*
X727224Y163830D01*
X800100Y97670D02*
X834270Y63500D01*
X800100Y97670D02*
X800100Y163830D01*
X361950Y683817D02*
X355993Y689775D01*
X361950Y683817D02*
X361950Y675640D01*
X356870Y670560D01*
D58*
X356870Y670560D03*
D56*
X392498Y771535D02*
X412173Y791210D01*
X414020Y791210D01*
D58*
X414020Y791210D03*
D56*
X528210Y833890D02*
X549910Y833890D01*
X528210Y833890D02*
X520180Y825860D01*
X455180Y825860D02*
X445020Y815700D01*
X438510Y815700D01*
X414020Y791210D01*
X430044Y826770D02*
X454270Y826770D01*
X455180Y825860D01*
X367030Y642620D02*
X367030Y624840D01*
X367030Y642620D02*
X341630Y668020D01*
X341630Y686726D01*
X350336Y695432D01*
D63*
X215900Y623570D02*
X186690Y652780D01*
X186690Y793750D01*
X264160Y871220D01*
X302260Y871220D01*
D58*
X302260Y871220D03*
X431800Y797560D03*
D63*
X447040Y797560D01*
X452120Y792480D01*
X452120Y783590D01*
X445770Y777240D01*
X420831Y777240D01*
X403812Y760221D01*
X398155Y765878D02*
X418407Y786130D01*
X440690Y786130D01*
D58*
X440690Y786130D03*
X289560Y881380D03*
D63*
X255270Y881380D01*
X175260Y801370D01*
X175260Y623570D01*
X200660Y598170D01*
X215900Y598170D01*
D58*
X369570Y659130D03*
D56*
X369570Y683818D01*
X375527Y689775D01*
D58*
X923290Y381000D03*
X486410Y702310D03*
D56*
X410671Y711200D02*
X403812Y718059D01*
X410671Y711200D02*
X426720Y711200D01*
X430530Y715010D01*
X473710Y715010D01*
X486410Y702310D01*
X914682Y316204D02*
X923290Y324812D01*
X923290Y381000D01*
X708660Y146834D02*
X713740Y141754D01*
X708660Y146834D02*
X708660Y177800D01*
X708660Y193704D01*
X800100Y275590D02*
X834390Y275590D01*
X875004Y316204D01*
X914682Y316204D01*
X768350Y177800D02*
X708660Y177800D01*
X768350Y177800D02*
X783590Y193040D01*
X783590Y259080D01*
X800100Y275590D01*
X745976Y840740D02*
X729188Y840740D01*
X729188Y774700D02*
X745976Y774700D01*
D61*
X588570Y36000D02*
X520700Y36000D01*
X588570Y36000D02*
X616070Y63500D01*
D56*
X64160Y357983D02*
X64160Y370180D01*
X50800Y383540D01*
X262662Y675640D02*
X316395Y729373D01*
X50800Y525780D02*
X50800Y383540D01*
X50800Y525780D02*
X62230Y537210D01*
X247650Y537210D01*
X262662Y552222D01*
X262662Y675640D01*
D64*
X316395Y748907D02*
X292615Y772687D01*
X255797Y772687D01*
X290303Y786312D02*
X322052Y754564D01*
X290303Y786312D02*
X290303Y807193D01*
D56*
X403860Y690335D02*
X420097Y674097D01*
X403860Y690335D02*
X403860Y695383D01*
X392498Y706745D01*
X269683Y283210D02*
X207837Y283210D01*
X269683Y230298D02*
X270111Y229870D01*
X269683Y230298D02*
X269683Y283210D01*
X269683Y189273D02*
X270996Y187960D01*
X269683Y189273D02*
X269683Y230298D01*
X270996Y187960D02*
X270996Y135890D01*
X270996Y92224D01*
X330200Y76200D02*
X330200Y45720D01*
X330200Y76200D02*
X323850Y82550D01*
X280670Y82550D01*
X270996Y92224D01*
X269683Y283210D02*
X294030Y283210D01*
X183590Y389112D02*
X177090Y389112D01*
X206524Y368786D02*
X206524Y356870D01*
X206524Y368786D02*
X201930Y373380D01*
X187960Y373380D01*
X183590Y377750D01*
X183590Y389112D01*
X189370Y260210D02*
X207837Y260210D01*
X189370Y260210D02*
X189230Y260350D01*
D58*
X189230Y260350D03*
D56*
X187475Y178585D02*
X165100Y178585D01*
X187475Y178585D02*
X206159Y197269D01*
X212750Y197269D01*
D64*
X206159Y197269D02*
X206159Y214211D01*
X194310Y226060D01*
D58*
X194310Y226060D03*
D56*
X231750Y221831D02*
X231750Y263500D01*
X232410Y264160D01*
D58*
X232410Y264160D03*
X177800Y430530D03*
D56*
X177800Y430598D01*
X177090Y431308D01*
X177090Y446548D01*
X177083Y473713D02*
X163277Y473713D01*
X140970Y451406D02*
X140970Y423694D01*
X140970Y451406D02*
X163277Y473713D01*
X177083Y473713D02*
X190090Y460706D01*
X190090Y446548D01*
X140970Y394186D02*
X140970Y356870D01*
X177454Y306210D02*
X175260Y304016D01*
X177454Y306210D02*
X207837Y306210D01*
X177016Y356870D02*
X153670Y356870D01*
X175260Y333524D02*
X177016Y335280D01*
X177016Y356870D01*
X170590Y389112D02*
X170590Y400910D01*
X162560Y408940D01*
X105206Y408940D01*
X89182Y424964D02*
X73660Y424964D01*
X73660Y441176D01*
X89182Y424964D02*
X105206Y408940D01*
D58*
X267970Y422910D03*
D56*
X183590Y434900D02*
X183590Y446548D01*
X183590Y434900D02*
X195580Y422910D01*
X267970Y422910D01*
X270024Y420856D02*
X294640Y420856D01*
X270024Y420856D02*
X267970Y422910D01*
X276250Y365150D02*
X276250Y357983D01*
X276250Y365150D02*
X280670Y369570D01*
X292100Y369570D01*
X316230Y393700D01*
X322052Y723372D02*
X322052Y723716D01*
X322052Y723372D02*
X304800Y706120D01*
X316230Y530860D02*
X316230Y393700D01*
X316230Y530860D02*
X304800Y542290D01*
X304800Y706120D01*
X430530Y406400D02*
X430530Y403374D01*
X430530Y406400D02*
X430530Y424666D01*
X433780Y403150D02*
X466582Y403150D01*
X433780Y403150D02*
X430530Y406400D01*
X566420Y396726D02*
X566420Y375434D01*
X566344Y396650D02*
X524018Y396650D01*
X566344Y396650D02*
X566420Y396726D01*
X285750Y380397D02*
X257207Y380397D01*
X251460Y374650D01*
D58*
X251460Y374650D03*
D56*
X79524Y401320D02*
X74052Y395848D01*
X79524Y401320D02*
X96520Y401320D01*
D58*
X96520Y401320D03*
D56*
X73660Y395456D02*
X73660Y380397D01*
X73660Y395456D02*
X74052Y395848D01*
X313030Y260524D02*
X315744Y257810D01*
X313030Y260524D02*
X313030Y283210D01*
X695960Y165586D02*
X697716Y163830D01*
X695960Y165586D02*
X695960Y193704D01*
X742420Y224790D02*
X750570Y232940D01*
X742420Y224790D02*
X707390Y224790D01*
X695960Y213360D01*
X695960Y193704D01*
X651510Y223034D02*
X651510Y252730D01*
X614680Y289560D01*
D58*
X614680Y289560D03*
X393700Y796290D03*
D56*
X383312Y796290D01*
X375527Y788505D01*
X683260Y155426D02*
X681504Y153670D01*
X683260Y155426D02*
X683260Y193704D01*
X681504Y153670D02*
X681504Y127000D01*
X683082Y193526D02*
X651510Y193526D01*
X683082Y193526D02*
X683260Y193704D01*
D58*
X713740Y100330D03*
D56*
X713740Y112246D01*
M02*
