G04 EAGLE Gerber RS-274X export*
G75*
%MOMM*%
%FSLAX34Y34*%
%LPD*%
%INSilkscreen Bottom*%
%IPPOS*%
%AMOC8*
5,1,8,0,0,1.08239X$1,22.5*%
G01*
G04 Define Apertures*
%ADD10C,0.127000*%
%ADD11C,0.120000*%
%ADD12C,0.500000*%
G36*
X792928Y357748D02*
X793282Y357767D01*
X793626Y357798D01*
X793960Y357842D01*
X794284Y357898D01*
X794598Y357966D01*
X794902Y358047D01*
X795196Y358141D01*
X795480Y358247D01*
X795754Y358365D01*
X796272Y358639D01*
X796751Y358963D01*
X797189Y359336D01*
X797581Y359754D01*
X797921Y360210D01*
X798071Y360452D01*
X798208Y360704D01*
X798332Y360966D01*
X798443Y361237D01*
X798542Y361517D01*
X798626Y361808D01*
X798698Y362108D01*
X798757Y362417D01*
X798803Y362736D01*
X798836Y363065D01*
X798855Y363403D01*
X798862Y363751D01*
X798850Y364233D01*
X798814Y364695D01*
X798753Y365137D01*
X798669Y365559D01*
X798561Y365961D01*
X798428Y366342D01*
X798272Y366703D01*
X798091Y367044D01*
X797887Y367363D01*
X797659Y367661D01*
X797408Y367937D01*
X797134Y368191D01*
X796837Y368423D01*
X796516Y368633D01*
X796172Y368822D01*
X795805Y368988D01*
X795279Y367403D01*
X795541Y367287D01*
X795786Y367156D01*
X796016Y367008D01*
X796230Y366843D01*
X796428Y366663D01*
X796610Y366466D01*
X796776Y366253D01*
X796926Y366023D01*
X797060Y365780D01*
X797175Y365526D01*
X797273Y365261D01*
X797353Y364984D01*
X797415Y364697D01*
X797460Y364398D01*
X797486Y364089D01*
X797495Y363768D01*
X797475Y363270D01*
X797413Y362800D01*
X797310Y362359D01*
X797166Y361946D01*
X796980Y361562D01*
X796754Y361206D01*
X796486Y360879D01*
X796177Y360580D01*
X795832Y360313D01*
X795457Y360082D01*
X795051Y359886D01*
X794615Y359726D01*
X794148Y359601D01*
X793651Y359512D01*
X793123Y359459D01*
X792564Y359441D01*
X792011Y359460D01*
X791486Y359515D01*
X790988Y359608D01*
X790518Y359738D01*
X790076Y359905D01*
X789662Y360109D01*
X789275Y360350D01*
X788916Y360628D01*
X788593Y360938D01*
X788313Y361274D01*
X788076Y361636D01*
X787882Y362024D01*
X787731Y362438D01*
X787623Y362879D01*
X787558Y363345D01*
X787537Y363838D01*
X787547Y364157D01*
X787577Y364466D01*
X787627Y364765D01*
X787697Y365054D01*
X787788Y365333D01*
X787898Y365601D01*
X788028Y365860D01*
X788178Y366109D01*
X788349Y366347D01*
X788539Y366576D01*
X788750Y366794D01*
X788980Y367003D01*
X789231Y367201D01*
X789502Y367389D01*
X789792Y367567D01*
X790103Y367736D01*
X789420Y369102D01*
X789033Y368902D01*
X788671Y368682D01*
X788332Y368444D01*
X788016Y368186D01*
X787725Y367908D01*
X787458Y367612D01*
X787214Y367296D01*
X786994Y366961D01*
X786799Y366609D01*
X786630Y366243D01*
X786487Y365864D01*
X786370Y365470D01*
X786279Y365063D01*
X786214Y364643D01*
X786175Y364208D01*
X786162Y363759D01*
X786174Y363301D01*
X786210Y362858D01*
X786271Y362431D01*
X786356Y362020D01*
X786465Y361624D01*
X786598Y361244D01*
X786755Y360880D01*
X786937Y360532D01*
X787141Y360201D01*
X787366Y359891D01*
X787612Y359601D01*
X787879Y359332D01*
X788166Y359082D01*
X788474Y358853D01*
X788803Y358645D01*
X789153Y358456D01*
X789521Y358289D01*
X789906Y358144D01*
X790308Y358021D01*
X790726Y357921D01*
X791161Y357843D01*
X791612Y357787D01*
X792080Y357753D01*
X792564Y357742D01*
X792928Y357748D01*
G37*
G36*
X789656Y372112D02*
X789391Y372160D01*
X789143Y372223D01*
X788912Y372303D01*
X788699Y372399D01*
X788502Y372510D01*
X788322Y372638D01*
X788160Y372782D01*
X788014Y372942D01*
X787886Y373118D01*
X787775Y373310D01*
X787681Y373519D01*
X787604Y373743D01*
X787544Y373983D01*
X787501Y374240D01*
X787475Y374512D01*
X787467Y374801D01*
X787476Y375091D01*
X787504Y375365D01*
X787549Y375622D01*
X787614Y375864D01*
X787696Y376090D01*
X787797Y376300D01*
X787916Y376493D01*
X788054Y376671D01*
X788209Y376830D01*
X788383Y376968D01*
X788574Y377085D01*
X788783Y377180D01*
X789010Y377254D01*
X789254Y377307D01*
X789516Y377339D01*
X789797Y377350D01*
X790042Y377338D01*
X790273Y377301D01*
X790490Y377241D01*
X790693Y377156D01*
X790883Y377047D01*
X791059Y376914D01*
X791221Y376756D01*
X791369Y376575D01*
X791501Y376370D01*
X791616Y376144D01*
X791713Y375897D01*
X791792Y375628D01*
X791854Y375337D01*
X791898Y375025D01*
X791925Y374692D01*
X791934Y374337D01*
X791934Y373444D01*
X793300Y373444D01*
X793300Y374302D01*
X793309Y374617D01*
X793335Y374914D01*
X793379Y375192D01*
X793441Y375453D01*
X793521Y375695D01*
X793618Y375919D01*
X793733Y376124D01*
X793865Y376312D01*
X794013Y376479D01*
X794175Y376624D01*
X794350Y376747D01*
X794538Y376847D01*
X794740Y376925D01*
X794956Y376981D01*
X795186Y377015D01*
X795428Y377026D01*
X795669Y377017D01*
X795897Y376989D01*
X796112Y376944D01*
X796314Y376880D01*
X796503Y376798D01*
X796679Y376698D01*
X796842Y376580D01*
X796992Y376443D01*
X797126Y376289D01*
X797243Y376117D01*
X797341Y375927D01*
X797422Y375720D01*
X797485Y375495D01*
X797530Y375252D01*
X797556Y374992D01*
X797565Y374714D01*
X797557Y374459D01*
X797532Y374217D01*
X797490Y373988D01*
X797432Y373771D01*
X797357Y373566D01*
X797265Y373374D01*
X797156Y373195D01*
X797031Y373028D01*
X796891Y372875D01*
X796737Y372739D01*
X796569Y372620D01*
X796387Y372518D01*
X796192Y372433D01*
X795983Y372365D01*
X795761Y372313D01*
X795525Y372279D01*
X795647Y370693D01*
X796016Y370751D01*
X796363Y370838D01*
X796690Y370952D01*
X796996Y371095D01*
X797281Y371266D01*
X797546Y371466D01*
X797789Y371694D01*
X798012Y371950D01*
X798211Y372230D01*
X798384Y372530D01*
X798530Y372848D01*
X798649Y373186D01*
X798742Y373544D01*
X798809Y373920D01*
X798848Y374316D01*
X798862Y374731D01*
X798848Y375182D01*
X798808Y375608D01*
X798740Y376007D01*
X798646Y376381D01*
X798525Y376729D01*
X798376Y377051D01*
X798201Y377347D01*
X797999Y377617D01*
X797773Y377858D01*
X797525Y378067D01*
X797257Y378244D01*
X796967Y378389D01*
X796655Y378501D01*
X796323Y378582D01*
X795970Y378630D01*
X795595Y378646D01*
X795306Y378636D01*
X795031Y378605D01*
X794770Y378553D01*
X794523Y378481D01*
X794290Y378388D01*
X794070Y378274D01*
X793864Y378140D01*
X793672Y377985D01*
X793495Y377810D01*
X793332Y377617D01*
X793184Y377405D01*
X793052Y377174D01*
X792934Y376924D01*
X792831Y376655D01*
X792743Y376368D01*
X792669Y376062D01*
X792634Y376062D01*
X792587Y376399D01*
X792521Y376716D01*
X792434Y377014D01*
X792328Y377293D01*
X792202Y377553D01*
X792056Y377793D01*
X791891Y378015D01*
X791706Y378217D01*
X791505Y378398D01*
X791291Y378554D01*
X791065Y378687D01*
X790826Y378795D01*
X790574Y378879D01*
X790310Y378940D01*
X790033Y378976D01*
X789744Y378988D01*
X789329Y378971D01*
X788938Y378920D01*
X788572Y378835D01*
X788229Y378716D01*
X787910Y378563D01*
X787616Y378377D01*
X787345Y378156D01*
X787099Y377902D01*
X786879Y377616D01*
X786689Y377301D01*
X786528Y376957D01*
X786396Y376583D01*
X786294Y376181D01*
X786220Y375750D01*
X786177Y375290D01*
X786162Y374801D01*
X786175Y374344D01*
X786215Y373911D01*
X786281Y373502D01*
X786373Y373116D01*
X786492Y372754D01*
X786637Y372416D01*
X786809Y372101D01*
X787007Y371810D01*
X787231Y371545D01*
X787480Y371308D01*
X787755Y371100D01*
X788055Y370920D01*
X788380Y370768D01*
X788731Y370645D01*
X789106Y370550D01*
X789508Y370483D01*
X789656Y372112D01*
G37*
G36*
X799948Y425391D02*
X799948Y427046D01*
X791645Y427046D01*
X791645Y428780D01*
X790401Y428780D01*
X790401Y427046D01*
X787607Y427046D01*
X787607Y425557D01*
X790401Y425557D01*
X790401Y419742D01*
X791627Y419742D01*
X799948Y425391D01*
G37*
%LPC*%
G36*
X791645Y425557D02*
X798170Y425557D01*
X797706Y425312D01*
X797128Y424971D01*
X792468Y421809D01*
X791820Y421336D01*
X791645Y421196D01*
X791645Y425557D01*
G37*
%LPD*%
G36*
X794198Y407278D02*
X794552Y407297D01*
X794896Y407328D01*
X795230Y407372D01*
X795554Y407428D01*
X795868Y407496D01*
X796172Y407577D01*
X796466Y407671D01*
X796750Y407777D01*
X797024Y407895D01*
X797542Y408169D01*
X798021Y408493D01*
X798459Y408866D01*
X798851Y409284D01*
X799191Y409740D01*
X799341Y409982D01*
X799478Y410234D01*
X799602Y410496D01*
X799713Y410767D01*
X799812Y411047D01*
X799896Y411338D01*
X799968Y411638D01*
X800027Y411947D01*
X800073Y412266D01*
X800106Y412595D01*
X800125Y412933D01*
X800132Y413281D01*
X800120Y413763D01*
X800084Y414225D01*
X800023Y414667D01*
X799939Y415089D01*
X799831Y415491D01*
X799698Y415872D01*
X799542Y416233D01*
X799361Y416574D01*
X799157Y416893D01*
X798929Y417191D01*
X798678Y417467D01*
X798404Y417721D01*
X798107Y417953D01*
X797786Y418163D01*
X797442Y418352D01*
X797075Y418518D01*
X796549Y416933D01*
X796811Y416817D01*
X797056Y416686D01*
X797286Y416538D01*
X797500Y416373D01*
X797698Y416193D01*
X797880Y415996D01*
X798046Y415783D01*
X798196Y415553D01*
X798330Y415310D01*
X798445Y415056D01*
X798543Y414791D01*
X798623Y414514D01*
X798685Y414227D01*
X798730Y413928D01*
X798756Y413619D01*
X798765Y413298D01*
X798745Y412800D01*
X798683Y412330D01*
X798580Y411889D01*
X798436Y411476D01*
X798250Y411092D01*
X798024Y410736D01*
X797756Y410409D01*
X797447Y410110D01*
X797102Y409843D01*
X796727Y409612D01*
X796321Y409416D01*
X795885Y409256D01*
X795418Y409131D01*
X794921Y409042D01*
X794393Y408989D01*
X793834Y408971D01*
X793281Y408990D01*
X792756Y409045D01*
X792258Y409138D01*
X791788Y409268D01*
X791346Y409435D01*
X790932Y409639D01*
X790545Y409880D01*
X790186Y410158D01*
X789863Y410468D01*
X789583Y410804D01*
X789346Y411166D01*
X789152Y411554D01*
X789001Y411968D01*
X788893Y412409D01*
X788828Y412875D01*
X788807Y413368D01*
X788817Y413687D01*
X788847Y413996D01*
X788897Y414295D01*
X788967Y414584D01*
X789058Y414863D01*
X789168Y415131D01*
X789298Y415390D01*
X789448Y415639D01*
X789619Y415877D01*
X789809Y416106D01*
X790020Y416324D01*
X790250Y416533D01*
X790501Y416731D01*
X790772Y416919D01*
X791062Y417097D01*
X791373Y417266D01*
X790690Y418632D01*
X790303Y418432D01*
X789941Y418212D01*
X789602Y417974D01*
X789286Y417716D01*
X788995Y417438D01*
X788728Y417142D01*
X788484Y416826D01*
X788264Y416491D01*
X788069Y416139D01*
X787900Y415773D01*
X787757Y415394D01*
X787640Y415000D01*
X787549Y414593D01*
X787484Y414173D01*
X787445Y413738D01*
X787432Y413289D01*
X787444Y412831D01*
X787480Y412388D01*
X787541Y411961D01*
X787626Y411550D01*
X787735Y411154D01*
X787868Y410774D01*
X788025Y410410D01*
X788207Y410062D01*
X788411Y409731D01*
X788636Y409421D01*
X788882Y409131D01*
X789149Y408862D01*
X789436Y408612D01*
X789744Y408383D01*
X790073Y408175D01*
X790423Y407986D01*
X790791Y407819D01*
X791176Y407674D01*
X791578Y407551D01*
X791996Y407451D01*
X792431Y407373D01*
X792882Y407317D01*
X793350Y407283D01*
X793834Y407272D01*
X794198Y407278D01*
G37*
G36*
X632341Y449417D02*
X632783Y449453D01*
X633210Y449514D01*
X633622Y449599D01*
X634017Y449708D01*
X634397Y449841D01*
X634761Y449998D01*
X635110Y450180D01*
X635440Y450384D01*
X635750Y450609D01*
X636040Y450855D01*
X636309Y451122D01*
X636559Y451409D01*
X636788Y451717D01*
X636997Y452046D01*
X637185Y452396D01*
X637353Y452764D01*
X637498Y453149D01*
X637620Y453551D01*
X637721Y453969D01*
X637799Y454404D01*
X637855Y454855D01*
X637888Y455323D01*
X637899Y455807D01*
X637893Y456171D01*
X637874Y456525D01*
X637843Y456869D01*
X637800Y457203D01*
X637743Y457527D01*
X637675Y457841D01*
X637594Y458145D01*
X637501Y458439D01*
X637395Y458723D01*
X637276Y458997D01*
X637002Y459515D01*
X636679Y459994D01*
X636305Y460432D01*
X635887Y460824D01*
X635431Y461164D01*
X635189Y461314D01*
X634937Y461451D01*
X634676Y461575D01*
X634404Y461686D01*
X634124Y461785D01*
X633834Y461869D01*
X633534Y461941D01*
X633224Y462000D01*
X632905Y462046D01*
X632577Y462079D01*
X632239Y462098D01*
X631891Y462105D01*
X631408Y462093D01*
X630946Y462057D01*
X630504Y461996D01*
X630082Y461912D01*
X629681Y461804D01*
X629299Y461671D01*
X628938Y461515D01*
X628598Y461334D01*
X628278Y461130D01*
X627980Y460902D01*
X627704Y460651D01*
X627450Y460377D01*
X627218Y460080D01*
X627008Y459759D01*
X626820Y459415D01*
X626653Y459048D01*
X628238Y458522D01*
X628354Y458784D01*
X628486Y459029D01*
X628634Y459259D01*
X628798Y459473D01*
X628978Y459671D01*
X629175Y459853D01*
X629389Y460019D01*
X629618Y460169D01*
X629861Y460303D01*
X630115Y460418D01*
X630381Y460516D01*
X630657Y460596D01*
X630944Y460658D01*
X631243Y460703D01*
X631553Y460729D01*
X631873Y460738D01*
X632371Y460718D01*
X632841Y460656D01*
X633282Y460553D01*
X633695Y460409D01*
X634079Y460223D01*
X634435Y459997D01*
X634762Y459729D01*
X635061Y459420D01*
X635328Y459075D01*
X635560Y458700D01*
X635755Y458294D01*
X635915Y457858D01*
X636040Y457391D01*
X636129Y456894D01*
X636182Y456366D01*
X636200Y455807D01*
X636181Y455254D01*
X636126Y454729D01*
X636033Y454231D01*
X635903Y453761D01*
X635736Y453319D01*
X635532Y452905D01*
X635291Y452518D01*
X635013Y452159D01*
X634703Y451836D01*
X634368Y451556D01*
X634005Y451319D01*
X633617Y451125D01*
X633203Y450974D01*
X632763Y450866D01*
X632296Y450801D01*
X631803Y450780D01*
X631484Y450790D01*
X631175Y450820D01*
X630876Y450870D01*
X630587Y450940D01*
X630309Y451031D01*
X630040Y451141D01*
X629781Y451271D01*
X629533Y451421D01*
X629294Y451592D01*
X629065Y451782D01*
X628847Y451993D01*
X628639Y452223D01*
X628440Y452474D01*
X628252Y452745D01*
X628074Y453035D01*
X627906Y453346D01*
X626539Y452663D01*
X626739Y452276D01*
X626959Y451914D01*
X627198Y451575D01*
X627456Y451259D01*
X627733Y450968D01*
X628030Y450701D01*
X628346Y450457D01*
X628681Y450237D01*
X629033Y450042D01*
X629398Y449873D01*
X629778Y449730D01*
X630171Y449613D01*
X630578Y449522D01*
X630999Y449457D01*
X631433Y449418D01*
X631882Y449405D01*
X632341Y449417D01*
G37*
G36*
X621419Y449417D02*
X621819Y449452D01*
X622198Y449511D01*
X622557Y449593D01*
X622895Y449699D01*
X623212Y449829D01*
X623508Y449982D01*
X623783Y450158D01*
X624036Y450357D01*
X624264Y450577D01*
X624468Y450818D01*
X624648Y451080D01*
X624803Y451363D01*
X624934Y451667D01*
X625041Y451993D01*
X625123Y452339D01*
X623529Y452523D01*
X623460Y452301D01*
X623380Y452094D01*
X623287Y451901D01*
X623181Y451722D01*
X623064Y451558D01*
X622934Y451407D01*
X622792Y451272D01*
X622638Y451150D01*
X622471Y451043D01*
X622293Y450950D01*
X622102Y450871D01*
X621898Y450807D01*
X621683Y450757D01*
X621455Y450721D01*
X621215Y450699D01*
X620963Y450692D01*
X620654Y450704D01*
X620362Y450740D01*
X620088Y450800D01*
X619831Y450884D01*
X619591Y450992D01*
X619368Y451123D01*
X619163Y451279D01*
X618975Y451459D01*
X618806Y451659D01*
X618660Y451878D01*
X618537Y452114D01*
X618436Y452369D01*
X618357Y452641D01*
X618301Y452931D01*
X618268Y453239D01*
X618256Y453565D01*
X618268Y453849D01*
X618302Y454120D01*
X618358Y454376D01*
X618437Y454618D01*
X618539Y454847D01*
X618663Y455061D01*
X618810Y455262D01*
X618979Y455448D01*
X619167Y455617D01*
X619372Y455762D01*
X619592Y455886D01*
X619827Y455987D01*
X620079Y456065D01*
X620346Y456122D01*
X620629Y456155D01*
X620928Y456166D01*
X621242Y456154D01*
X621545Y456116D01*
X621838Y456053D01*
X622119Y455965D01*
X622395Y455847D01*
X622671Y455693D01*
X622947Y455505D01*
X623222Y455282D01*
X624764Y455282D01*
X624352Y461921D01*
X617337Y461921D01*
X617337Y460581D01*
X622916Y460581D01*
X623152Y456666D01*
X622888Y456850D01*
X622609Y457011D01*
X622314Y457146D01*
X622003Y457257D01*
X621676Y457343D01*
X621334Y457405D01*
X620977Y457442D01*
X620604Y457454D01*
X620160Y457437D01*
X619739Y457387D01*
X619341Y457304D01*
X618967Y457187D01*
X618616Y457037D01*
X618287Y456853D01*
X617982Y456636D01*
X617700Y456385D01*
X617447Y456108D01*
X617227Y455811D01*
X617041Y455493D01*
X616889Y455155D01*
X616771Y454797D01*
X616686Y454418D01*
X616635Y454019D01*
X616619Y453600D01*
X616637Y453125D01*
X616691Y452676D01*
X616782Y452252D01*
X616909Y451855D01*
X617072Y451484D01*
X617271Y451138D01*
X617507Y450819D01*
X617779Y450526D01*
X618083Y450263D01*
X618415Y450035D01*
X618776Y449843D01*
X619164Y449685D01*
X619580Y449563D01*
X620025Y449475D01*
X620497Y449422D01*
X620998Y449405D01*
X621419Y449417D01*
G37*
G36*
X657764Y373004D02*
X658013Y373022D01*
X658488Y373095D01*
X658933Y373216D01*
X659347Y373385D01*
X659730Y373603D01*
X660082Y373870D01*
X660404Y374185D01*
X660696Y374548D01*
X660954Y374958D01*
X661178Y375411D01*
X661368Y375909D01*
X661523Y376451D01*
X661644Y377037D01*
X661730Y377667D01*
X661782Y378341D01*
X661799Y379059D01*
X661781Y379837D01*
X661727Y380568D01*
X661638Y381254D01*
X661512Y381892D01*
X661351Y382484D01*
X661154Y383030D01*
X660921Y383529D01*
X660652Y383981D01*
X660350Y384383D01*
X660017Y384732D01*
X659655Y385027D01*
X659261Y385269D01*
X658838Y385456D01*
X658615Y385530D01*
X658384Y385590D01*
X658145Y385637D01*
X657900Y385671D01*
X657646Y385691D01*
X657385Y385698D01*
X657044Y385688D01*
X656719Y385658D01*
X656410Y385609D01*
X656117Y385541D01*
X655840Y385452D01*
X655580Y385344D01*
X655336Y385217D01*
X655108Y385069D01*
X654896Y384902D01*
X654700Y384716D01*
X654520Y384510D01*
X654357Y384284D01*
X654209Y384038D01*
X654078Y383773D01*
X653963Y383488D01*
X653864Y383184D01*
X655370Y382913D01*
X655504Y383266D01*
X655671Y383572D01*
X655874Y383831D01*
X656110Y384042D01*
X656382Y384207D01*
X656687Y384325D01*
X657028Y384395D01*
X657402Y384419D01*
X657730Y384399D01*
X658039Y384340D01*
X658328Y384242D01*
X658599Y384105D01*
X658851Y383928D01*
X659083Y383712D01*
X659297Y383457D01*
X659491Y383162D01*
X659665Y382830D01*
X659815Y382463D01*
X659942Y382061D01*
X660046Y381624D01*
X660127Y381151D01*
X660185Y380644D01*
X660220Y380101D01*
X660231Y379523D01*
X659995Y379898D01*
X659715Y380225D01*
X659391Y380504D01*
X659023Y380736D01*
X658619Y380918D01*
X658186Y381048D01*
X657959Y381094D01*
X657725Y381126D01*
X657484Y381146D01*
X657236Y381152D01*
X656820Y381135D01*
X656426Y381085D01*
X656054Y381002D01*
X655704Y380885D01*
X655376Y380735D01*
X655071Y380551D01*
X654787Y380334D01*
X654525Y380083D01*
X654290Y379805D01*
X654086Y379503D01*
X653914Y379179D01*
X653773Y378831D01*
X653663Y378460D01*
X653585Y378067D01*
X653538Y377650D01*
X653522Y377211D01*
X653539Y376735D01*
X653589Y376286D01*
X653671Y375862D01*
X653787Y375463D01*
X653936Y375091D01*
X654118Y374744D01*
X654334Y374423D01*
X654582Y374128D01*
X654860Y373863D01*
X655162Y373633D01*
X655490Y373439D01*
X655843Y373280D01*
X656222Y373157D01*
X656625Y373068D01*
X657054Y373016D01*
X657507Y372998D01*
X657764Y373004D01*
G37*
%LPC*%
G36*
X657283Y374280D02*
X657021Y374316D01*
X656775Y374376D01*
X656544Y374459D01*
X656328Y374567D01*
X656128Y374699D01*
X655943Y374855D01*
X655773Y375034D01*
X655621Y375235D01*
X655490Y375453D01*
X655378Y375690D01*
X655287Y375944D01*
X655216Y376216D01*
X655166Y376506D01*
X655135Y376815D01*
X655125Y377141D01*
X655135Y377466D01*
X655166Y377772D01*
X655218Y378059D01*
X655289Y378327D01*
X655382Y378576D01*
X655495Y378806D01*
X655628Y379016D01*
X655782Y379208D01*
X655954Y379378D01*
X656143Y379526D01*
X656347Y379651D01*
X656568Y379753D01*
X656805Y379832D01*
X657058Y379889D01*
X657327Y379923D01*
X657613Y379935D01*
X657882Y379925D01*
X658138Y379894D01*
X658381Y379844D01*
X658610Y379774D01*
X658826Y379683D01*
X659029Y379572D01*
X659219Y379442D01*
X659395Y379291D01*
X659554Y379122D01*
X659692Y378939D01*
X659809Y378740D01*
X659904Y378526D01*
X659978Y378296D01*
X660031Y378052D01*
X660063Y377792D01*
X660074Y377517D01*
X660063Y377168D01*
X660030Y376836D01*
X659975Y376519D01*
X659897Y376219D01*
X659798Y375935D01*
X659677Y375666D01*
X659534Y375415D01*
X659369Y375179D01*
X659186Y374965D01*
X658991Y374780D01*
X658784Y374624D01*
X658564Y374496D01*
X658332Y374396D01*
X658087Y374325D01*
X657830Y374282D01*
X657560Y374268D01*
X657283Y374280D01*
G37*
%LPD*%
G36*
X669209Y373010D02*
X669652Y373046D01*
X670079Y373107D01*
X670490Y373192D01*
X670886Y373301D01*
X671266Y373434D01*
X671630Y373591D01*
X671978Y373773D01*
X672309Y373977D01*
X672619Y374202D01*
X672909Y374448D01*
X673178Y374715D01*
X673428Y375002D01*
X673657Y375310D01*
X673865Y375639D01*
X674054Y375989D01*
X674221Y376357D01*
X674366Y376742D01*
X674489Y377144D01*
X674589Y377562D01*
X674668Y377997D01*
X674723Y378448D01*
X674757Y378916D01*
X674768Y379400D01*
X674762Y379764D01*
X674743Y380118D01*
X674712Y380462D01*
X674668Y380796D01*
X674612Y381120D01*
X674544Y381434D01*
X674463Y381738D01*
X674369Y382032D01*
X674264Y382316D01*
X674145Y382590D01*
X673871Y383108D01*
X673547Y383587D01*
X673174Y384025D01*
X672756Y384417D01*
X672300Y384757D01*
X672058Y384907D01*
X671806Y385044D01*
X671544Y385168D01*
X671273Y385279D01*
X670993Y385378D01*
X670702Y385462D01*
X670402Y385534D01*
X670093Y385593D01*
X669774Y385639D01*
X669445Y385672D01*
X669107Y385691D01*
X668760Y385698D01*
X668277Y385686D01*
X667815Y385650D01*
X667373Y385589D01*
X666951Y385505D01*
X666549Y385397D01*
X666168Y385264D01*
X665807Y385108D01*
X665466Y384927D01*
X665147Y384723D01*
X664849Y384495D01*
X664573Y384244D01*
X664319Y383970D01*
X664087Y383673D01*
X663877Y383352D01*
X663688Y383008D01*
X663522Y382641D01*
X665107Y382115D01*
X665223Y382377D01*
X665354Y382622D01*
X665502Y382852D01*
X665667Y383066D01*
X665847Y383264D01*
X666044Y383446D01*
X666257Y383612D01*
X666487Y383762D01*
X666730Y383896D01*
X666984Y384011D01*
X667249Y384109D01*
X667526Y384189D01*
X667813Y384251D01*
X668112Y384296D01*
X668421Y384322D01*
X668742Y384331D01*
X669240Y384311D01*
X669710Y384249D01*
X670151Y384146D01*
X670564Y384002D01*
X670948Y383816D01*
X671304Y383590D01*
X671631Y383322D01*
X671930Y383013D01*
X672197Y382668D01*
X672428Y382293D01*
X672624Y381887D01*
X672784Y381451D01*
X672909Y380984D01*
X672998Y380487D01*
X673051Y379959D01*
X673069Y379400D01*
X673050Y378847D01*
X672995Y378322D01*
X672902Y377824D01*
X672772Y377354D01*
X672605Y376912D01*
X672401Y376498D01*
X672160Y376111D01*
X671882Y375752D01*
X671572Y375429D01*
X671236Y375149D01*
X670874Y374912D01*
X670486Y374718D01*
X670072Y374567D01*
X669631Y374459D01*
X669165Y374394D01*
X668672Y374373D01*
X668353Y374383D01*
X668044Y374413D01*
X667745Y374463D01*
X667456Y374533D01*
X667177Y374624D01*
X666909Y374734D01*
X666650Y374864D01*
X666401Y375014D01*
X666163Y375185D01*
X665934Y375375D01*
X665716Y375586D01*
X665507Y375816D01*
X665309Y376067D01*
X665121Y376338D01*
X664943Y376628D01*
X664774Y376939D01*
X663408Y376256D01*
X663608Y375869D01*
X663828Y375507D01*
X664066Y375168D01*
X664324Y374852D01*
X664602Y374561D01*
X664898Y374294D01*
X665214Y374050D01*
X665550Y373830D01*
X665901Y373635D01*
X666267Y373466D01*
X666646Y373323D01*
X667040Y373206D01*
X667447Y373115D01*
X667868Y373050D01*
X668302Y373011D01*
X668751Y372998D01*
X669209Y373010D01*
G37*
G36*
X632341Y488787D02*
X632783Y488823D01*
X633210Y488884D01*
X633622Y488969D01*
X634017Y489078D01*
X634397Y489211D01*
X634761Y489368D01*
X635110Y489550D01*
X635440Y489754D01*
X635750Y489979D01*
X636040Y490225D01*
X636309Y490492D01*
X636559Y490779D01*
X636788Y491087D01*
X636997Y491416D01*
X637185Y491766D01*
X637353Y492134D01*
X637498Y492519D01*
X637620Y492921D01*
X637721Y493339D01*
X637799Y493774D01*
X637855Y494225D01*
X637888Y494693D01*
X637899Y495177D01*
X637893Y495541D01*
X637874Y495895D01*
X637843Y496239D01*
X637800Y496573D01*
X637743Y496897D01*
X637675Y497211D01*
X637594Y497515D01*
X637501Y497809D01*
X637395Y498093D01*
X637276Y498367D01*
X637002Y498885D01*
X636679Y499364D01*
X636305Y499802D01*
X635887Y500194D01*
X635431Y500534D01*
X635189Y500684D01*
X634937Y500821D01*
X634676Y500945D01*
X634404Y501056D01*
X634124Y501155D01*
X633834Y501239D01*
X633534Y501311D01*
X633224Y501370D01*
X632905Y501416D01*
X632577Y501449D01*
X632239Y501468D01*
X631891Y501475D01*
X631408Y501463D01*
X630946Y501427D01*
X630504Y501366D01*
X630082Y501282D01*
X629681Y501174D01*
X629299Y501041D01*
X628938Y500885D01*
X628598Y500704D01*
X628278Y500500D01*
X627980Y500272D01*
X627704Y500021D01*
X627450Y499747D01*
X627218Y499450D01*
X627008Y499129D01*
X626820Y498785D01*
X626653Y498418D01*
X628238Y497892D01*
X628354Y498154D01*
X628486Y498399D01*
X628634Y498629D01*
X628798Y498843D01*
X628978Y499041D01*
X629175Y499223D01*
X629389Y499389D01*
X629618Y499539D01*
X629861Y499673D01*
X630115Y499788D01*
X630381Y499886D01*
X630657Y499966D01*
X630944Y500028D01*
X631243Y500073D01*
X631553Y500099D01*
X631873Y500108D01*
X632371Y500088D01*
X632841Y500026D01*
X633282Y499923D01*
X633695Y499779D01*
X634079Y499593D01*
X634435Y499367D01*
X634762Y499099D01*
X635061Y498790D01*
X635328Y498445D01*
X635560Y498070D01*
X635755Y497664D01*
X635915Y497228D01*
X636040Y496761D01*
X636129Y496264D01*
X636182Y495736D01*
X636200Y495177D01*
X636181Y494624D01*
X636126Y494099D01*
X636033Y493601D01*
X635903Y493131D01*
X635736Y492689D01*
X635532Y492275D01*
X635291Y491888D01*
X635013Y491529D01*
X634703Y491206D01*
X634368Y490926D01*
X634005Y490689D01*
X633617Y490495D01*
X633203Y490344D01*
X632763Y490236D01*
X632296Y490171D01*
X631803Y490150D01*
X631484Y490160D01*
X631175Y490190D01*
X630876Y490240D01*
X630587Y490310D01*
X630309Y490401D01*
X630040Y490511D01*
X629781Y490641D01*
X629533Y490791D01*
X629294Y490962D01*
X629065Y491152D01*
X628847Y491363D01*
X628639Y491593D01*
X628440Y491844D01*
X628252Y492115D01*
X628074Y492405D01*
X627906Y492716D01*
X626539Y492033D01*
X626739Y491646D01*
X626959Y491284D01*
X627198Y490945D01*
X627456Y490629D01*
X627733Y490338D01*
X628030Y490071D01*
X628346Y489827D01*
X628681Y489607D01*
X629033Y489412D01*
X629398Y489243D01*
X629778Y489100D01*
X630171Y488983D01*
X630578Y488892D01*
X630999Y488827D01*
X631433Y488788D01*
X631882Y488775D01*
X632341Y488787D01*
G37*
G36*
X622629Y489545D02*
X622582Y490148D01*
X622503Y490759D01*
X622394Y491377D01*
X622253Y492004D01*
X622080Y492638D01*
X621877Y493280D01*
X621642Y493929D01*
X621370Y494595D01*
X621056Y495286D01*
X620700Y496002D01*
X620303Y496742D01*
X619863Y497507D01*
X619381Y498297D01*
X618857Y499111D01*
X618291Y499951D01*
X624922Y499951D01*
X624922Y501291D01*
X616767Y501291D01*
X616767Y500012D01*
X617644Y498645D01*
X618381Y497435D01*
X618980Y496381D01*
X619439Y495484D01*
X619804Y494668D01*
X620121Y493857D01*
X620389Y493052D01*
X620608Y492252D01*
X620779Y491448D01*
X620900Y490629D01*
X620973Y489797D01*
X620992Y489375D01*
X620998Y488950D01*
X622644Y488950D01*
X622629Y489545D01*
G37*
G36*
X701399Y41743D02*
X701760Y41769D01*
X702109Y41812D01*
X702445Y41873D01*
X702770Y41950D01*
X703082Y42045D01*
X703383Y42157D01*
X703671Y42287D01*
X703946Y42432D01*
X704205Y42594D01*
X704447Y42771D01*
X704674Y42963D01*
X704885Y43171D01*
X705080Y43395D01*
X705260Y43634D01*
X705423Y43889D01*
X705569Y44158D01*
X705695Y44440D01*
X705802Y44734D01*
X705889Y45041D01*
X705957Y45361D01*
X706006Y45693D01*
X706035Y46037D01*
X706045Y46394D01*
X706045Y54251D01*
X704372Y54251D01*
X704372Y46535D01*
X704359Y46125D01*
X704318Y45740D01*
X704251Y45381D01*
X704157Y45048D01*
X704037Y44740D01*
X703889Y44457D01*
X703715Y44200D01*
X703514Y43968D01*
X703287Y43763D01*
X703037Y43585D01*
X702763Y43435D01*
X702465Y43311D01*
X702143Y43216D01*
X701798Y43147D01*
X701428Y43106D01*
X701035Y43092D01*
X700631Y43107D01*
X700249Y43149D01*
X699891Y43220D01*
X699556Y43319D01*
X699244Y43447D01*
X698955Y43602D01*
X698689Y43786D01*
X698447Y43999D01*
X698230Y44239D01*
X698043Y44504D01*
X697884Y44796D01*
X697754Y45115D01*
X697653Y45459D01*
X697581Y45829D01*
X697537Y46226D01*
X697523Y46648D01*
X697523Y54251D01*
X695859Y54251D01*
X695859Y46552D01*
X695869Y46184D01*
X695898Y45829D01*
X695948Y45487D01*
X696017Y45157D01*
X696107Y44841D01*
X696216Y44537D01*
X696345Y44246D01*
X696494Y43968D01*
X696661Y43705D01*
X696844Y43457D01*
X697044Y43226D01*
X697260Y43010D01*
X697493Y42811D01*
X697742Y42627D01*
X698007Y42460D01*
X698289Y42309D01*
X698586Y42174D01*
X698895Y42058D01*
X699218Y41959D01*
X699554Y41878D01*
X699902Y41816D01*
X700264Y41771D01*
X700639Y41744D01*
X701026Y41735D01*
X701399Y41743D01*
G37*
G36*
X690038Y41747D02*
X690438Y41782D01*
X690817Y41841D01*
X691176Y41923D01*
X691513Y42029D01*
X691830Y42159D01*
X692126Y42312D01*
X692402Y42488D01*
X692655Y42687D01*
X692883Y42907D01*
X693087Y43148D01*
X693267Y43410D01*
X693422Y43693D01*
X693553Y43997D01*
X693660Y44323D01*
X693742Y44669D01*
X692148Y44853D01*
X692079Y44631D01*
X691998Y44424D01*
X691905Y44231D01*
X691800Y44052D01*
X691683Y43888D01*
X691553Y43737D01*
X691411Y43602D01*
X691257Y43480D01*
X691090Y43373D01*
X690911Y43280D01*
X690720Y43201D01*
X690517Y43137D01*
X690302Y43087D01*
X690074Y43051D01*
X689834Y43029D01*
X689582Y43022D01*
X689273Y43034D01*
X688981Y43070D01*
X688707Y43130D01*
X688449Y43214D01*
X688210Y43322D01*
X687987Y43453D01*
X687782Y43609D01*
X687593Y43789D01*
X687425Y43989D01*
X687279Y44208D01*
X687156Y44444D01*
X687055Y44699D01*
X686976Y44971D01*
X686920Y45261D01*
X686886Y45569D01*
X686875Y45895D01*
X686886Y46179D01*
X686920Y46450D01*
X686977Y46706D01*
X687056Y46948D01*
X687157Y47177D01*
X687282Y47391D01*
X687428Y47592D01*
X687598Y47778D01*
X687786Y47947D01*
X687990Y48092D01*
X688210Y48216D01*
X688446Y48317D01*
X688698Y48395D01*
X688965Y48452D01*
X689248Y48485D01*
X689546Y48496D01*
X689861Y48484D01*
X690164Y48446D01*
X690456Y48383D01*
X690738Y48295D01*
X691014Y48177D01*
X691289Y48023D01*
X691565Y47835D01*
X691841Y47612D01*
X693383Y47612D01*
X692971Y54251D01*
X685955Y54251D01*
X685955Y52911D01*
X691535Y52911D01*
X691771Y48996D01*
X691507Y49180D01*
X691228Y49341D01*
X690932Y49476D01*
X690622Y49587D01*
X690295Y49673D01*
X689953Y49735D01*
X689596Y49772D01*
X689222Y49784D01*
X688779Y49767D01*
X688358Y49717D01*
X687960Y49634D01*
X687586Y49517D01*
X687234Y49367D01*
X686906Y49183D01*
X686601Y48966D01*
X686319Y48715D01*
X686065Y48438D01*
X685846Y48141D01*
X685660Y47823D01*
X685508Y47485D01*
X685389Y47127D01*
X685305Y46748D01*
X685254Y46349D01*
X685237Y45930D01*
X685255Y45455D01*
X685310Y45006D01*
X685400Y44582D01*
X685527Y44185D01*
X685691Y43814D01*
X685890Y43468D01*
X686126Y43149D01*
X686398Y42856D01*
X686702Y42593D01*
X687034Y42365D01*
X687394Y42173D01*
X687783Y42015D01*
X688199Y41893D01*
X688644Y41805D01*
X689116Y41752D01*
X689617Y41735D01*
X690038Y41747D01*
G37*
G36*
X427798Y238341D02*
X428518Y238390D01*
X429188Y238471D01*
X429809Y238585D01*
X430379Y238730D01*
X430900Y238909D01*
X431371Y239120D01*
X431792Y239363D01*
X432164Y239641D01*
X432486Y239957D01*
X432758Y240311D01*
X432981Y240702D01*
X433155Y241131D01*
X433223Y241359D01*
X433279Y241597D01*
X433322Y241845D01*
X433353Y242101D01*
X433372Y242367D01*
X433378Y242643D01*
X433371Y242911D01*
X433353Y243170D01*
X433321Y243421D01*
X433278Y243662D01*
X433221Y243894D01*
X433152Y244118D01*
X432977Y244538D01*
X432752Y244923D01*
X432476Y245271D01*
X432151Y245584D01*
X431775Y245862D01*
X431350Y246105D01*
X430877Y246316D01*
X430356Y246494D01*
X429787Y246640D01*
X429169Y246754D01*
X428504Y246835D01*
X427790Y246883D01*
X427028Y246900D01*
X426278Y246883D01*
X425573Y246832D01*
X424915Y246746D01*
X424302Y246627D01*
X423734Y246474D01*
X423213Y246286D01*
X422737Y246065D01*
X422307Y245809D01*
X421925Y245520D01*
X421594Y245199D01*
X421314Y244845D01*
X421085Y244459D01*
X420907Y244041D01*
X420780Y243590D01*
X420735Y243352D01*
X420703Y243106D01*
X420684Y242852D01*
X420678Y242590D01*
X420684Y242329D01*
X420703Y242075D01*
X420735Y241830D01*
X420779Y241593D01*
X420906Y241143D01*
X421083Y240727D01*
X421311Y240344D01*
X421589Y239994D01*
X421918Y239677D01*
X422298Y239394D01*
X422727Y239143D01*
X423201Y238926D01*
X423723Y238742D01*
X424291Y238592D01*
X424905Y238475D01*
X425566Y238392D01*
X426274Y238342D01*
X427028Y238325D01*
X427798Y238341D01*
G37*
%LPC*%
G36*
X426393Y239929D02*
X425802Y239959D01*
X425255Y240010D01*
X424753Y240080D01*
X424294Y240171D01*
X423880Y240281D01*
X423509Y240412D01*
X423183Y240563D01*
X422897Y240736D01*
X422650Y240932D01*
X422441Y241152D01*
X422270Y241396D01*
X422137Y241664D01*
X422041Y241955D01*
X421984Y242269D01*
X421965Y242608D01*
X421985Y242945D01*
X422043Y243258D01*
X422140Y243548D01*
X422276Y243814D01*
X422451Y244058D01*
X422665Y244278D01*
X422918Y244475D01*
X423209Y244649D01*
X423541Y244801D01*
X423914Y244932D01*
X424329Y245044D01*
X424786Y245135D01*
X425284Y245206D01*
X425823Y245256D01*
X426405Y245287D01*
X427028Y245297D01*
X427673Y245287D01*
X428271Y245258D01*
X428824Y245210D01*
X429331Y245142D01*
X429792Y245056D01*
X430207Y244950D01*
X430576Y244824D01*
X430899Y244679D01*
X431180Y244512D01*
X431424Y244321D01*
X431630Y244104D01*
X431799Y243862D01*
X431930Y243594D01*
X432024Y243302D01*
X432080Y242985D01*
X432099Y242643D01*
X432080Y242292D01*
X432025Y241967D01*
X431933Y241668D01*
X431803Y241394D01*
X431637Y241146D01*
X431434Y240923D01*
X431194Y240726D01*
X430917Y240554D01*
X430597Y240405D01*
X430230Y240276D01*
X429815Y240167D01*
X429353Y240078D01*
X428843Y240008D01*
X428286Y239959D01*
X427681Y239929D01*
X427028Y239919D01*
X426393Y239929D01*
G37*
%LPD*%
G36*
X433194Y221965D02*
X433179Y222472D01*
X433135Y222948D01*
X433063Y223395D01*
X432961Y223812D01*
X432829Y224200D01*
X432669Y224557D01*
X432480Y224886D01*
X432261Y225184D01*
X432016Y225450D01*
X431749Y225680D01*
X431459Y225875D01*
X431145Y226035D01*
X430809Y226159D01*
X430450Y226247D01*
X430069Y226301D01*
X429664Y226318D01*
X429327Y226306D01*
X429004Y226268D01*
X428694Y226206D01*
X428398Y226118D01*
X428116Y226005D01*
X427848Y225867D01*
X427593Y225705D01*
X427352Y225517D01*
X427128Y225307D01*
X426927Y225078D01*
X426746Y224830D01*
X426680Y224719D01*
X426588Y224563D01*
X426451Y224277D01*
X426335Y223972D01*
X426242Y223648D01*
X426169Y223305D01*
X423906Y224797D01*
X420853Y226809D01*
X420853Y224882D01*
X425977Y221676D01*
X425977Y217831D01*
X420853Y217831D01*
X420853Y216158D01*
X433194Y216158D01*
X433194Y221965D01*
G37*
%LPC*%
G36*
X427299Y217831D02*
X427299Y221869D01*
X427309Y222190D01*
X427338Y222493D01*
X427386Y222776D01*
X427454Y223041D01*
X427540Y223288D01*
X427647Y223515D01*
X427772Y223724D01*
X427917Y223914D01*
X428079Y224083D01*
X428256Y224230D01*
X428449Y224354D01*
X428658Y224456D01*
X428882Y224535D01*
X429121Y224591D01*
X429376Y224625D01*
X429647Y224637D01*
X429908Y224625D01*
X430153Y224591D01*
X430383Y224534D01*
X430596Y224454D01*
X430793Y224351D01*
X430974Y224225D01*
X431140Y224077D01*
X431289Y223905D01*
X431421Y223712D01*
X431536Y223499D01*
X431633Y223266D01*
X431713Y223013D01*
X431774Y222740D01*
X431818Y222446D01*
X431845Y222133D01*
X431854Y221799D01*
X431854Y217831D01*
X427299Y217831D01*
G37*
%LPD*%
G36*
X422463Y228793D02*
X422930Y229054D01*
X423367Y229339D01*
X423774Y229648D01*
X424157Y229974D01*
X424521Y230308D01*
X424866Y230651D01*
X425193Y231001D01*
X425805Y231708D01*
X426371Y232407D01*
X426914Y233070D01*
X427457Y233664D01*
X427732Y233931D01*
X428013Y234171D01*
X428301Y234384D01*
X428596Y234570D01*
X428903Y234722D01*
X429231Y234830D01*
X429578Y234895D01*
X429944Y234916D01*
X430191Y234907D01*
X430424Y234879D01*
X430642Y234833D01*
X430846Y234768D01*
X431036Y234684D01*
X431212Y234581D01*
X431374Y234460D01*
X431521Y234321D01*
X431652Y234165D01*
X431766Y233994D01*
X431862Y233809D01*
X431941Y233609D01*
X432003Y233395D01*
X432046Y233166D01*
X432073Y232923D01*
X432081Y232666D01*
X432073Y232419D01*
X432047Y232184D01*
X432004Y231960D01*
X431945Y231747D01*
X431868Y231545D01*
X431774Y231354D01*
X431662Y231174D01*
X431534Y231006D01*
X431390Y230851D01*
X431233Y230713D01*
X431061Y230592D01*
X430876Y230488D01*
X430677Y230401D01*
X430464Y230330D01*
X430237Y230276D01*
X429997Y230239D01*
X430146Y228628D01*
X430506Y228686D01*
X430848Y228772D01*
X431171Y228887D01*
X431475Y229030D01*
X431760Y229201D01*
X432026Y229400D01*
X432273Y229628D01*
X432502Y229885D01*
X432707Y230165D01*
X432885Y230464D01*
X433036Y230783D01*
X433159Y231121D01*
X433255Y231478D01*
X433323Y231855D01*
X433364Y232250D01*
X433378Y232666D01*
X433364Y233118D01*
X433323Y233544D01*
X433254Y233943D01*
X433158Y234315D01*
X433034Y234660D01*
X432883Y234979D01*
X432704Y235270D01*
X432497Y235534D01*
X432266Y235769D01*
X432011Y235973D01*
X431733Y236145D01*
X431432Y236286D01*
X431108Y236396D01*
X430761Y236474D01*
X430390Y236521D01*
X429997Y236537D01*
X429638Y236516D01*
X429281Y236455D01*
X428925Y236352D01*
X428569Y236208D01*
X428215Y236024D01*
X427860Y235800D01*
X427505Y235536D01*
X427150Y235232D01*
X426747Y234834D01*
X426246Y234288D01*
X425648Y233594D01*
X424952Y232753D01*
X424550Y232275D01*
X424169Y231849D01*
X423808Y231474D01*
X423467Y231150D01*
X423140Y230873D01*
X422818Y230638D01*
X422503Y230444D01*
X422193Y230292D01*
X422193Y236729D01*
X420853Y236729D01*
X420853Y228558D01*
X421965Y228558D01*
X422463Y228793D01*
G37*
G36*
X261029Y849354D02*
X261425Y849405D01*
X261817Y849486D01*
X262204Y849597D01*
X262582Y849736D01*
X262951Y849903D01*
X263312Y850099D01*
X263664Y850322D01*
X264008Y850574D01*
X264343Y850853D01*
X264669Y851161D01*
X264985Y851494D01*
X265272Y851833D01*
X265531Y852178D01*
X265762Y852529D01*
X265965Y852885D01*
X266139Y853248D01*
X266285Y853617D01*
X266403Y853992D01*
X266493Y854370D01*
X266553Y854748D01*
X266584Y855127D01*
X266586Y855506D01*
X266559Y855885D01*
X266503Y856265D01*
X266418Y856646D01*
X266304Y857026D01*
X266162Y857405D01*
X265992Y857780D01*
X265795Y858151D01*
X265570Y858517D01*
X265318Y858880D01*
X265038Y859239D01*
X264731Y859593D01*
X264397Y859943D01*
X264135Y860196D01*
X263871Y860433D01*
X263606Y860655D01*
X263339Y860860D01*
X263070Y861049D01*
X262800Y861223D01*
X262528Y861381D01*
X262254Y861523D01*
X261978Y861649D01*
X261701Y861759D01*
X261141Y861931D01*
X260574Y862041D01*
X259999Y862086D01*
X259427Y862068D01*
X258864Y861986D01*
X258587Y861921D01*
X258311Y861840D01*
X258039Y861743D01*
X257768Y861630D01*
X257501Y861500D01*
X257235Y861355D01*
X256972Y861194D01*
X256712Y861017D01*
X256454Y860824D01*
X256199Y860614D01*
X255946Y860389D01*
X255695Y860148D01*
X255363Y859798D01*
X255061Y859446D01*
X254791Y859090D01*
X254553Y858733D01*
X254345Y858372D01*
X254169Y858009D01*
X254025Y857643D01*
X253912Y857274D01*
X253830Y856904D01*
X253780Y856532D01*
X253763Y856160D01*
X253777Y855786D01*
X253823Y855412D01*
X253901Y855036D01*
X254011Y854660D01*
X254153Y854283D01*
X255646Y855032D01*
X255542Y855299D01*
X255462Y855565D01*
X255404Y855832D01*
X255369Y856100D01*
X255357Y856367D01*
X255368Y856635D01*
X255401Y856903D01*
X255457Y857172D01*
X255534Y857438D01*
X255632Y857700D01*
X255751Y857957D01*
X255890Y858209D01*
X256049Y858456D01*
X256228Y858698D01*
X256428Y858936D01*
X256649Y859169D01*
X257016Y859507D01*
X257392Y859795D01*
X257776Y860035D01*
X258170Y860224D01*
X258573Y860365D01*
X258985Y860456D01*
X259406Y860499D01*
X259835Y860492D01*
X260268Y860436D01*
X260697Y860335D01*
X261122Y860186D01*
X261544Y859991D01*
X261962Y859749D01*
X262377Y859460D01*
X262788Y859124D01*
X263195Y858742D01*
X263573Y858338D01*
X263905Y857927D01*
X264192Y857509D01*
X264432Y857085D01*
X264627Y856655D01*
X264776Y856217D01*
X264879Y855774D01*
X264936Y855323D01*
X264945Y854876D01*
X264906Y854440D01*
X264817Y854016D01*
X264680Y853605D01*
X264494Y853205D01*
X264258Y852817D01*
X263974Y852442D01*
X263641Y852078D01*
X263408Y851860D01*
X263169Y851662D01*
X262922Y851486D01*
X262668Y851332D01*
X262407Y851198D01*
X262139Y851086D01*
X261864Y850996D01*
X261582Y850926D01*
X261293Y850878D01*
X260996Y850851D01*
X260693Y850845D01*
X260383Y850861D01*
X260065Y850898D01*
X259741Y850956D01*
X259409Y851036D01*
X259071Y851137D01*
X258587Y849687D01*
X259002Y849556D01*
X259414Y849454D01*
X259823Y849383D01*
X260228Y849343D01*
X260630Y849333D01*
X261029Y849354D01*
G37*
G36*
X259308Y846048D02*
X258360Y846995D01*
X256137Y844772D01*
X249423Y851485D01*
X252799Y852049D01*
X251746Y853102D01*
X248265Y852458D01*
X247237Y851430D01*
X255016Y843651D01*
X252892Y841527D01*
X253839Y840579D01*
X259308Y846048D01*
G37*
G36*
X250964Y837704D02*
X250532Y838114D01*
X250073Y838507D01*
X249586Y838884D01*
X249071Y839243D01*
X248528Y839586D01*
X247958Y839913D01*
X247360Y840223D01*
X246734Y840516D01*
X246071Y840795D01*
X245361Y841061D01*
X244604Y841316D01*
X243799Y841558D01*
X242947Y841788D01*
X242048Y842006D01*
X241101Y842212D01*
X240108Y842405D01*
X244796Y847093D01*
X243848Y848041D01*
X238082Y842275D01*
X238987Y841371D01*
X240573Y841024D01*
X241950Y840689D01*
X243118Y840367D01*
X244078Y840058D01*
X244913Y839739D01*
X245710Y839390D01*
X246469Y839010D01*
X247190Y838599D01*
X247879Y838151D01*
X248544Y837659D01*
X249184Y837122D01*
X249495Y836836D01*
X249800Y836540D01*
X250964Y837704D01*
G37*
G36*
X207569Y795411D02*
X207929Y795455D01*
X208290Y795542D01*
X208650Y795670D01*
X209010Y795840D01*
X209370Y796052D01*
X209730Y796306D01*
X210089Y796603D01*
X210449Y796941D01*
X210779Y797292D01*
X211069Y797644D01*
X211319Y797998D01*
X211530Y798354D01*
X211701Y798711D01*
X211832Y799070D01*
X211924Y799431D01*
X211975Y799793D01*
X211986Y800152D01*
X211955Y800504D01*
X211881Y800849D01*
X211765Y801187D01*
X211608Y801517D01*
X211408Y801841D01*
X211166Y802157D01*
X210882Y802465D01*
X210665Y802667D01*
X210441Y802845D01*
X210211Y802999D01*
X209973Y803129D01*
X209729Y803236D01*
X209478Y803319D01*
X209221Y803378D01*
X208956Y803413D01*
X208691Y803425D01*
X208432Y803414D01*
X208179Y803380D01*
X207931Y803323D01*
X207689Y803243D01*
X207453Y803141D01*
X207223Y803016D01*
X206999Y802868D01*
X206974Y802893D01*
X207100Y803114D01*
X207204Y803338D01*
X207286Y803565D01*
X207347Y803794D01*
X207386Y804027D01*
X207403Y804262D01*
X207399Y804500D01*
X207374Y804741D01*
X207328Y804980D01*
X207263Y805212D01*
X207180Y805437D01*
X207077Y805656D01*
X206956Y805867D01*
X206816Y806071D01*
X206657Y806269D01*
X206479Y806460D01*
X206224Y806692D01*
X205957Y806888D01*
X205679Y807050D01*
X205390Y807176D01*
X205088Y807267D01*
X204776Y807323D01*
X204452Y807344D01*
X204116Y807330D01*
X203776Y807281D01*
X203440Y807196D01*
X203107Y807076D01*
X202778Y806920D01*
X202451Y806730D01*
X202129Y806504D01*
X201809Y806242D01*
X201493Y805946D01*
X201189Y805623D01*
X200921Y805298D01*
X200689Y804971D01*
X200492Y804641D01*
X200332Y804310D01*
X200207Y803977D01*
X200118Y803642D01*
X200066Y803304D01*
X200049Y802971D01*
X200069Y802648D01*
X200126Y802334D01*
X200220Y802031D01*
X200350Y801737D01*
X200517Y801454D01*
X200720Y801180D01*
X200961Y800917D01*
X201151Y800739D01*
X201349Y800580D01*
X201554Y800440D01*
X201766Y800319D01*
X201984Y800217D01*
X202210Y800134D01*
X202443Y800070D01*
X202682Y800025D01*
X202924Y800001D01*
X203162Y799999D01*
X203185Y800001D01*
X203396Y800019D01*
X203627Y800062D01*
X203854Y800128D01*
X204078Y800216D01*
X204299Y800326D01*
X204516Y800459D01*
X204540Y800434D01*
X204378Y800190D01*
X204241Y799944D01*
X204129Y799695D01*
X204043Y799445D01*
X203981Y799193D01*
X203945Y798939D01*
X203934Y798682D01*
X203946Y798474D01*
X203949Y798424D01*
X203988Y798168D01*
X204050Y797916D01*
X204136Y797671D01*
X204245Y797431D01*
X204378Y797196D01*
X204535Y796967D01*
X204715Y796744D01*
X204918Y796526D01*
X205224Y796244D01*
X205537Y796003D01*
X205857Y795803D01*
X206185Y795643D01*
X206520Y795524D01*
X206862Y795446D01*
X207212Y795408D01*
X207569Y795411D01*
G37*
%LPC*%
G36*
X207585Y796858D02*
X207362Y796900D01*
X207135Y796973D01*
X206907Y797076D01*
X206676Y797209D01*
X206443Y797373D01*
X206208Y797566D01*
X205971Y797789D01*
X205782Y797993D01*
X205620Y798200D01*
X205487Y798410D01*
X205380Y798622D01*
X205302Y798836D01*
X205250Y799053D01*
X205227Y799273D01*
X205231Y799496D01*
X205261Y799719D01*
X205317Y799942D01*
X205397Y800164D01*
X205503Y800385D01*
X205633Y800606D01*
X205789Y800826D01*
X205970Y801045D01*
X206175Y801264D01*
X206389Y801463D01*
X206604Y801637D01*
X206822Y801786D01*
X207042Y801909D01*
X207264Y802006D01*
X207488Y802078D01*
X207715Y802125D01*
X207943Y802146D01*
X208171Y802142D01*
X208394Y802113D01*
X208613Y802058D01*
X208827Y801978D01*
X209036Y801873D01*
X209241Y801743D01*
X209442Y801587D01*
X209637Y801406D01*
X209848Y801181D01*
X210031Y800955D01*
X210185Y800729D01*
X210311Y800503D01*
X210408Y800276D01*
X210477Y800049D01*
X210517Y799822D01*
X210529Y799595D01*
X210513Y799367D01*
X210468Y799139D01*
X210394Y798911D01*
X210292Y798682D01*
X210162Y798453D01*
X210003Y798224D01*
X209816Y797994D01*
X209600Y797765D01*
X209373Y797551D01*
X209147Y797366D01*
X208921Y797208D01*
X208697Y797079D01*
X208473Y796979D01*
X208250Y796906D01*
X208028Y796861D01*
X207807Y796845D01*
X207585Y796858D01*
G37*
G36*
X203572Y801252D02*
X203377Y801280D01*
X203180Y801335D01*
X202983Y801417D01*
X202784Y801526D01*
X202584Y801661D01*
X202383Y801824D01*
X202181Y802013D01*
X202008Y802199D01*
X201859Y802385D01*
X201735Y802573D01*
X201635Y802762D01*
X201559Y802952D01*
X201507Y803143D01*
X201479Y803336D01*
X201476Y803529D01*
X201497Y803723D01*
X201542Y803919D01*
X201612Y804116D01*
X201706Y804313D01*
X201824Y804512D01*
X201966Y804712D01*
X202132Y804914D01*
X202323Y805116D01*
X202520Y805301D01*
X202716Y805463D01*
X202913Y805601D01*
X203109Y805716D01*
X203305Y805808D01*
X203501Y805876D01*
X203697Y805921D01*
X203893Y805943D01*
X204088Y805941D01*
X204282Y805914D01*
X204474Y805864D01*
X204665Y805789D01*
X204854Y805689D01*
X205042Y805566D01*
X205229Y805418D01*
X205414Y805246D01*
X205589Y805058D01*
X205739Y804867D01*
X205866Y804674D01*
X205968Y804480D01*
X206045Y804283D01*
X206099Y804084D01*
X206128Y803882D01*
X206132Y803679D01*
X206113Y803475D01*
X206070Y803273D01*
X206004Y803072D01*
X205915Y802872D01*
X205803Y802674D01*
X205667Y802477D01*
X205509Y802282D01*
X205327Y802087D01*
X205130Y801902D01*
X204934Y801740D01*
X204739Y801601D01*
X204543Y801485D01*
X204348Y801392D01*
X204154Y801322D01*
X203960Y801275D01*
X203766Y801251D01*
X203572Y801252D01*
G37*
%LPD*%
G36*
X221659Y809984D02*
X222055Y810035D01*
X222447Y810116D01*
X222834Y810227D01*
X223212Y810366D01*
X223581Y810533D01*
X223942Y810729D01*
X224294Y810952D01*
X224638Y811204D01*
X224973Y811483D01*
X225299Y811791D01*
X225615Y812124D01*
X225902Y812463D01*
X226161Y812808D01*
X226392Y813159D01*
X226595Y813515D01*
X226769Y813878D01*
X226915Y814247D01*
X227033Y814622D01*
X227123Y815000D01*
X227183Y815378D01*
X227214Y815757D01*
X227216Y816136D01*
X227189Y816515D01*
X227133Y816895D01*
X227048Y817276D01*
X226934Y817656D01*
X226792Y818035D01*
X226622Y818410D01*
X226425Y818781D01*
X226200Y819147D01*
X225948Y819510D01*
X225668Y819869D01*
X225361Y820223D01*
X225027Y820573D01*
X224765Y820826D01*
X224501Y821063D01*
X224236Y821285D01*
X223969Y821490D01*
X223700Y821679D01*
X223430Y821853D01*
X223158Y822011D01*
X222884Y822153D01*
X222608Y822279D01*
X222331Y822389D01*
X221771Y822561D01*
X221204Y822671D01*
X220629Y822716D01*
X220057Y822698D01*
X219494Y822616D01*
X219217Y822551D01*
X218941Y822470D01*
X218669Y822373D01*
X218398Y822260D01*
X218131Y822130D01*
X217865Y821985D01*
X217602Y821824D01*
X217342Y821647D01*
X217084Y821454D01*
X216829Y821244D01*
X216576Y821019D01*
X216325Y820778D01*
X215993Y820428D01*
X215691Y820076D01*
X215421Y819720D01*
X215183Y819363D01*
X214975Y819002D01*
X214799Y818639D01*
X214655Y818273D01*
X214542Y817904D01*
X214460Y817534D01*
X214410Y817162D01*
X214393Y816790D01*
X214407Y816416D01*
X214453Y816042D01*
X214531Y815666D01*
X214641Y815290D01*
X214783Y814913D01*
X216276Y815662D01*
X216172Y815929D01*
X216092Y816195D01*
X216034Y816462D01*
X215999Y816730D01*
X215987Y816997D01*
X215998Y817265D01*
X216031Y817533D01*
X216087Y817802D01*
X216164Y818068D01*
X216262Y818330D01*
X216381Y818587D01*
X216520Y818839D01*
X216679Y819086D01*
X216858Y819328D01*
X217058Y819566D01*
X217279Y819799D01*
X217646Y820137D01*
X218022Y820425D01*
X218406Y820665D01*
X218800Y820854D01*
X219203Y820995D01*
X219615Y821086D01*
X220036Y821129D01*
X220465Y821122D01*
X220898Y821066D01*
X221327Y820965D01*
X221752Y820816D01*
X222174Y820621D01*
X222592Y820379D01*
X223007Y820090D01*
X223418Y819754D01*
X223825Y819372D01*
X224203Y818968D01*
X224535Y818557D01*
X224822Y818139D01*
X225062Y817715D01*
X225257Y817285D01*
X225406Y816847D01*
X225509Y816404D01*
X225566Y815953D01*
X225575Y815506D01*
X225536Y815070D01*
X225447Y814646D01*
X225310Y814235D01*
X225124Y813835D01*
X224888Y813447D01*
X224604Y813072D01*
X224271Y812708D01*
X224038Y812490D01*
X223799Y812292D01*
X223552Y812116D01*
X223298Y811962D01*
X223037Y811828D01*
X222769Y811716D01*
X222494Y811626D01*
X222212Y811556D01*
X221923Y811508D01*
X221626Y811481D01*
X221323Y811475D01*
X221013Y811491D01*
X220695Y811528D01*
X220371Y811586D01*
X220039Y811666D01*
X219701Y811767D01*
X219217Y810317D01*
X219632Y810186D01*
X220044Y810084D01*
X220453Y810013D01*
X220858Y809973D01*
X221260Y809963D01*
X221659Y809984D01*
G37*
G36*
X219938Y806678D02*
X218990Y807625D01*
X216767Y805402D01*
X210053Y812115D01*
X213429Y812679D01*
X212376Y813732D01*
X208895Y813088D01*
X207867Y812060D01*
X215646Y804281D01*
X213522Y802157D01*
X214469Y801209D01*
X219938Y806678D01*
G37*
G36*
X474968Y867871D02*
X480784Y867871D01*
X480784Y869097D01*
X475135Y877418D01*
X473479Y877418D01*
X473479Y869115D01*
X471745Y869115D01*
X471745Y867871D01*
X473479Y867871D01*
X473479Y865077D01*
X474968Y865077D01*
X474968Y867871D01*
G37*
%LPC*%
G36*
X474968Y869115D02*
X474968Y875640D01*
X475214Y875176D01*
X475555Y874598D01*
X478717Y869938D01*
X479190Y869290D01*
X479330Y869115D01*
X474968Y869115D01*
G37*
%LPD*%
G36*
X497664Y864914D02*
X498106Y864950D01*
X498534Y865011D01*
X498945Y865096D01*
X499340Y865205D01*
X499720Y865338D01*
X500084Y865495D01*
X500433Y865677D01*
X500763Y865881D01*
X501073Y866106D01*
X501363Y866352D01*
X501633Y866619D01*
X501882Y866906D01*
X502111Y867214D01*
X502320Y867543D01*
X502508Y867893D01*
X502676Y868261D01*
X502821Y868646D01*
X502943Y869048D01*
X503044Y869466D01*
X503122Y869901D01*
X503178Y870352D01*
X503211Y870820D01*
X503222Y871304D01*
X503216Y871668D01*
X503197Y872022D01*
X503166Y872366D01*
X503123Y872700D01*
X503067Y873024D01*
X502998Y873338D01*
X502917Y873642D01*
X502824Y873936D01*
X502718Y874220D01*
X502600Y874494D01*
X502326Y875012D01*
X502002Y875491D01*
X501628Y875929D01*
X501211Y876321D01*
X500755Y876661D01*
X500512Y876811D01*
X500260Y876948D01*
X499999Y877072D01*
X499728Y877183D01*
X499447Y877282D01*
X499157Y877366D01*
X498857Y877438D01*
X498547Y877497D01*
X498228Y877543D01*
X497900Y877576D01*
X497562Y877595D01*
X497214Y877602D01*
X496731Y877590D01*
X496269Y877554D01*
X495827Y877493D01*
X495405Y877409D01*
X495004Y877301D01*
X494622Y877168D01*
X494261Y877012D01*
X493921Y876831D01*
X493601Y876627D01*
X493303Y876399D01*
X493027Y876148D01*
X492773Y875874D01*
X492541Y875577D01*
X492331Y875256D01*
X492143Y874912D01*
X491976Y874545D01*
X493562Y874019D01*
X493677Y874281D01*
X493809Y874526D01*
X493957Y874756D01*
X494121Y874970D01*
X494302Y875168D01*
X494498Y875350D01*
X494712Y875516D01*
X494941Y875666D01*
X495184Y875800D01*
X495438Y875915D01*
X495704Y876013D01*
X495980Y876093D01*
X496268Y876155D01*
X496566Y876200D01*
X496876Y876226D01*
X497196Y876235D01*
X497695Y876215D01*
X498164Y876153D01*
X498605Y876050D01*
X499018Y875906D01*
X499402Y875720D01*
X499758Y875494D01*
X500086Y875226D01*
X500384Y874917D01*
X500651Y874572D01*
X500883Y874197D01*
X501078Y873791D01*
X501238Y873355D01*
X501363Y872888D01*
X501452Y872391D01*
X501505Y871863D01*
X501523Y871304D01*
X501505Y870751D01*
X501449Y870226D01*
X501356Y869728D01*
X501226Y869258D01*
X501060Y868816D01*
X500856Y868402D01*
X500614Y868015D01*
X500336Y867656D01*
X500027Y867333D01*
X499691Y867053D01*
X499329Y866816D01*
X498940Y866622D01*
X498526Y866471D01*
X498086Y866363D01*
X497619Y866298D01*
X497126Y866277D01*
X496807Y866287D01*
X496498Y866317D01*
X496199Y866367D01*
X495911Y866437D01*
X495632Y866528D01*
X495363Y866638D01*
X495104Y866768D01*
X494856Y866918D01*
X494617Y867089D01*
X494389Y867279D01*
X494170Y867490D01*
X493962Y867720D01*
X493763Y867971D01*
X493575Y868242D01*
X493397Y868532D01*
X493229Y868843D01*
X491862Y868160D01*
X492063Y867773D01*
X492282Y867411D01*
X492521Y867072D01*
X492779Y866756D01*
X493056Y866465D01*
X493353Y866198D01*
X493669Y865954D01*
X494004Y865734D01*
X494356Y865539D01*
X494721Y865370D01*
X495101Y865227D01*
X495494Y865110D01*
X495901Y865019D01*
X496322Y864954D01*
X496757Y864915D01*
X497205Y864902D01*
X497664Y864914D01*
G37*
G36*
X490262Y866189D02*
X490027Y866687D01*
X489766Y867154D01*
X489481Y867591D01*
X489172Y867998D01*
X488846Y868381D01*
X488512Y868745D01*
X488169Y869090D01*
X487819Y869417D01*
X487112Y870029D01*
X486413Y870595D01*
X485751Y871138D01*
X485156Y871681D01*
X484889Y871956D01*
X484649Y872237D01*
X484436Y872525D01*
X484250Y872820D01*
X484098Y873127D01*
X483990Y873455D01*
X483925Y873802D01*
X483904Y874168D01*
X483913Y874415D01*
X483941Y874648D01*
X483987Y874866D01*
X484052Y875070D01*
X484136Y875260D01*
X484239Y875436D01*
X484360Y875598D01*
X484499Y875745D01*
X484655Y875876D01*
X484826Y875990D01*
X485011Y876086D01*
X485211Y876165D01*
X485425Y876227D01*
X485654Y876270D01*
X485897Y876297D01*
X486155Y876305D01*
X486401Y876297D01*
X486636Y876271D01*
X486860Y876228D01*
X487073Y876169D01*
X487275Y876092D01*
X487466Y875998D01*
X487646Y875886D01*
X487814Y875758D01*
X487969Y875614D01*
X488107Y875457D01*
X488228Y875285D01*
X488332Y875100D01*
X488419Y874901D01*
X488490Y874688D01*
X488544Y874461D01*
X488581Y874221D01*
X490192Y874370D01*
X490134Y874730D01*
X490048Y875072D01*
X489933Y875395D01*
X489790Y875699D01*
X489619Y875984D01*
X489420Y876250D01*
X489192Y876497D01*
X488935Y876726D01*
X488655Y876931D01*
X488356Y877109D01*
X488037Y877260D01*
X487699Y877383D01*
X487342Y877479D01*
X486966Y877547D01*
X486570Y877588D01*
X486155Y877602D01*
X485702Y877588D01*
X485276Y877547D01*
X484877Y877478D01*
X484505Y877382D01*
X484160Y877258D01*
X483841Y877107D01*
X483550Y876928D01*
X483286Y876721D01*
X483051Y876490D01*
X482847Y876235D01*
X482675Y875957D01*
X482534Y875656D01*
X482424Y875332D01*
X482346Y874985D01*
X482299Y874614D01*
X482283Y874221D01*
X482304Y873862D01*
X482365Y873505D01*
X482468Y873149D01*
X482612Y872793D01*
X482796Y872439D01*
X483020Y872084D01*
X483284Y871729D01*
X483588Y871374D01*
X483986Y870971D01*
X484532Y870470D01*
X485226Y869872D01*
X486067Y869176D01*
X486545Y868774D01*
X486971Y868393D01*
X487346Y868032D01*
X487670Y867691D01*
X487947Y867364D01*
X488182Y867042D01*
X488376Y866727D01*
X488528Y866417D01*
X482091Y866417D01*
X482091Y865077D01*
X490262Y865077D01*
X490262Y866189D01*
G37*
G36*
X187004Y283003D02*
X187735Y283057D01*
X188421Y283147D01*
X189059Y283272D01*
X189651Y283433D01*
X190197Y283631D01*
X190696Y283864D01*
X191148Y284133D01*
X191550Y284435D01*
X191899Y284767D01*
X192194Y285130D01*
X192436Y285523D01*
X192623Y285947D01*
X192697Y286170D01*
X192757Y286401D01*
X192804Y286639D01*
X192838Y286885D01*
X192858Y287138D01*
X192865Y287400D01*
X192855Y287741D01*
X192825Y288066D01*
X192776Y288375D01*
X192708Y288667D01*
X192619Y288944D01*
X192511Y289204D01*
X192384Y289449D01*
X192236Y289677D01*
X192069Y289889D01*
X191883Y290085D01*
X191677Y290264D01*
X191451Y290428D01*
X191205Y290575D01*
X190940Y290706D01*
X190655Y290822D01*
X190351Y290921D01*
X190080Y289414D01*
X190433Y289281D01*
X190739Y289113D01*
X190998Y288911D01*
X191209Y288674D01*
X191374Y288403D01*
X191492Y288097D01*
X191562Y287757D01*
X191586Y287382D01*
X191566Y287054D01*
X191507Y286746D01*
X191409Y286456D01*
X191272Y286185D01*
X191095Y285934D01*
X190879Y285701D01*
X190624Y285488D01*
X190329Y285293D01*
X189997Y285120D01*
X189630Y284969D01*
X189228Y284842D01*
X188791Y284738D01*
X188318Y284657D01*
X187811Y284599D01*
X187268Y284565D01*
X186690Y284553D01*
X187065Y284790D01*
X187392Y285070D01*
X187671Y285394D01*
X187903Y285762D01*
X188085Y286166D01*
X188215Y286598D01*
X188261Y286825D01*
X188293Y287059D01*
X188313Y287300D01*
X188319Y287548D01*
X188302Y287964D01*
X188252Y288358D01*
X188169Y288730D01*
X188052Y289080D01*
X187902Y289408D01*
X187718Y289714D01*
X187501Y289998D01*
X187250Y290259D01*
X186972Y290494D01*
X186670Y290698D01*
X186346Y290870D01*
X185998Y291011D01*
X185627Y291121D01*
X185234Y291199D01*
X184817Y291246D01*
X184378Y291262D01*
X183902Y291246D01*
X183453Y291196D01*
X183029Y291113D01*
X182630Y290997D01*
X182258Y290848D01*
X181911Y290666D01*
X181590Y290451D01*
X181295Y290202D01*
X181030Y289925D01*
X180800Y289622D01*
X180606Y289294D01*
X180447Y288941D01*
X180324Y288563D01*
X180235Y288159D01*
X180183Y287731D01*
X180165Y287277D01*
X180171Y287020D01*
X180189Y286771D01*
X180262Y286296D01*
X180383Y285851D01*
X180552Y285438D01*
X180770Y285054D01*
X181037Y284702D01*
X181352Y284380D01*
X181715Y284089D01*
X182125Y283830D01*
X182578Y283606D01*
X183076Y283416D01*
X183618Y283261D01*
X184204Y283140D01*
X184834Y283054D01*
X185508Y283003D01*
X186226Y282985D01*
X187004Y283003D01*
G37*
%LPC*%
G36*
X184335Y284722D02*
X184003Y284755D01*
X183686Y284810D01*
X183386Y284887D01*
X183102Y284986D01*
X182833Y285107D01*
X182582Y285251D01*
X182346Y285416D01*
X182132Y285598D01*
X181947Y285793D01*
X181791Y286001D01*
X181663Y286220D01*
X181563Y286453D01*
X181492Y286698D01*
X181449Y286955D01*
X181435Y287224D01*
X181447Y287501D01*
X181483Y287763D01*
X181543Y288009D01*
X181626Y288240D01*
X181734Y288456D01*
X181866Y288656D01*
X182022Y288841D01*
X182201Y289011D01*
X182402Y289163D01*
X182620Y289295D01*
X182857Y289406D01*
X183111Y289497D01*
X183383Y289568D01*
X183673Y289619D01*
X183982Y289649D01*
X184308Y289659D01*
X184633Y289649D01*
X184939Y289618D01*
X185226Y289567D01*
X185494Y289495D01*
X185743Y289403D01*
X185973Y289290D01*
X186183Y289156D01*
X186375Y289002D01*
X186545Y288830D01*
X186693Y288642D01*
X186818Y288437D01*
X186920Y288216D01*
X186999Y287979D01*
X187056Y287726D01*
X187090Y287457D01*
X187102Y287172D01*
X187092Y286903D01*
X187061Y286647D01*
X187011Y286404D01*
X186941Y286174D01*
X186850Y285958D01*
X186739Y285755D01*
X186609Y285566D01*
X186458Y285389D01*
X186289Y285230D01*
X186106Y285093D01*
X185907Y284976D01*
X185693Y284880D01*
X185463Y284806D01*
X185219Y284753D01*
X184959Y284721D01*
X184684Y284711D01*
X184335Y284722D01*
G37*
%LPD*%
G36*
X186931Y260054D02*
X187285Y260073D01*
X187629Y260104D01*
X187963Y260147D01*
X188287Y260203D01*
X188601Y260272D01*
X188905Y260353D01*
X189199Y260446D01*
X189483Y260552D01*
X189757Y260670D01*
X190275Y260944D01*
X190754Y261268D01*
X191192Y261642D01*
X191584Y262059D01*
X191924Y262515D01*
X192074Y262758D01*
X192211Y263010D01*
X192335Y263271D01*
X192446Y263542D01*
X192545Y263823D01*
X192629Y264113D01*
X192701Y264413D01*
X192760Y264723D01*
X192806Y265042D01*
X192839Y265370D01*
X192858Y265708D01*
X192865Y266056D01*
X192853Y266539D01*
X192817Y267001D01*
X192756Y267443D01*
X192672Y267865D01*
X192564Y268266D01*
X192431Y268648D01*
X192275Y269009D01*
X192094Y269349D01*
X191890Y269669D01*
X191662Y269967D01*
X191411Y270243D01*
X191137Y270497D01*
X190840Y270729D01*
X190519Y270939D01*
X190175Y271127D01*
X189808Y271294D01*
X189282Y269708D01*
X189544Y269593D01*
X189789Y269461D01*
X190019Y269313D01*
X190233Y269149D01*
X190431Y268968D01*
X190613Y268772D01*
X190779Y268558D01*
X190929Y268329D01*
X191063Y268086D01*
X191178Y267832D01*
X191276Y267566D01*
X191356Y267290D01*
X191418Y267003D01*
X191463Y266704D01*
X191489Y266394D01*
X191498Y266074D01*
X191478Y265576D01*
X191416Y265106D01*
X191313Y264665D01*
X191169Y264252D01*
X190983Y263868D01*
X190757Y263512D01*
X190489Y263184D01*
X190180Y262886D01*
X189835Y262619D01*
X189460Y262387D01*
X189054Y262192D01*
X188618Y262032D01*
X188151Y261907D01*
X187654Y261818D01*
X187126Y261765D01*
X186567Y261747D01*
X186014Y261765D01*
X185489Y261821D01*
X184991Y261914D01*
X184521Y262044D01*
X184079Y262211D01*
X183665Y262414D01*
X183278Y262656D01*
X182919Y262934D01*
X182596Y263243D01*
X182316Y263579D01*
X182079Y263941D01*
X181885Y264330D01*
X181734Y264744D01*
X181626Y265184D01*
X181561Y265651D01*
X181540Y266144D01*
X181550Y266463D01*
X181580Y266772D01*
X181630Y267071D01*
X181700Y267360D01*
X181791Y267638D01*
X181901Y267907D01*
X182031Y268166D01*
X182181Y268414D01*
X182352Y268653D01*
X182542Y268881D01*
X182753Y269100D01*
X182983Y269308D01*
X183234Y269507D01*
X183505Y269695D01*
X183795Y269873D01*
X184106Y270041D01*
X183423Y271408D01*
X183036Y271207D01*
X182674Y270988D01*
X182335Y270749D01*
X182019Y270491D01*
X181728Y270214D01*
X181461Y269917D01*
X181217Y269601D01*
X180997Y269266D01*
X180802Y268914D01*
X180633Y268549D01*
X180490Y268169D01*
X180373Y267776D01*
X180282Y267369D01*
X180217Y266948D01*
X180178Y266513D01*
X180165Y266065D01*
X180177Y265606D01*
X180213Y265164D01*
X180274Y264737D01*
X180359Y264325D01*
X180468Y263930D01*
X180601Y263550D01*
X180758Y263186D01*
X180940Y262837D01*
X181144Y262507D01*
X181369Y262197D01*
X181615Y261907D01*
X181882Y261637D01*
X182169Y261388D01*
X182477Y261159D01*
X182806Y260950D01*
X183156Y260762D01*
X183524Y260594D01*
X183909Y260449D01*
X184311Y260327D01*
X184729Y260226D01*
X185164Y260148D01*
X185615Y260092D01*
X186083Y260059D01*
X186567Y260048D01*
X186931Y260054D01*
G37*
G36*
X181950Y273243D02*
X182417Y273504D01*
X182854Y273789D01*
X183261Y274098D01*
X183644Y274424D01*
X184008Y274758D01*
X184353Y275101D01*
X184680Y275451D01*
X185292Y276158D01*
X185858Y276857D01*
X186401Y277520D01*
X186944Y278114D01*
X187219Y278381D01*
X187500Y278621D01*
X187788Y278834D01*
X188083Y279020D01*
X188390Y279172D01*
X188718Y279280D01*
X189065Y279345D01*
X189431Y279366D01*
X189678Y279357D01*
X189911Y279329D01*
X190129Y279283D01*
X190333Y279218D01*
X190523Y279134D01*
X190699Y279031D01*
X190861Y278910D01*
X191008Y278771D01*
X191139Y278615D01*
X191253Y278444D01*
X191349Y278259D01*
X191428Y278059D01*
X191490Y277845D01*
X191533Y277616D01*
X191560Y277373D01*
X191568Y277116D01*
X191560Y276869D01*
X191534Y276634D01*
X191491Y276410D01*
X191432Y276197D01*
X191355Y275995D01*
X191261Y275804D01*
X191149Y275624D01*
X191021Y275456D01*
X190877Y275301D01*
X190720Y275163D01*
X190548Y275042D01*
X190363Y274938D01*
X190164Y274851D01*
X189951Y274780D01*
X189724Y274726D01*
X189484Y274689D01*
X189633Y273078D01*
X189993Y273136D01*
X190335Y273222D01*
X190658Y273337D01*
X190962Y273480D01*
X191247Y273651D01*
X191513Y273850D01*
X191760Y274078D01*
X191989Y274335D01*
X192194Y274615D01*
X192372Y274914D01*
X192523Y275233D01*
X192646Y275571D01*
X192742Y275928D01*
X192810Y276305D01*
X192851Y276700D01*
X192865Y277116D01*
X192851Y277568D01*
X192810Y277994D01*
X192741Y278393D01*
X192645Y278765D01*
X192521Y279110D01*
X192370Y279429D01*
X192191Y279720D01*
X191984Y279984D01*
X191753Y280219D01*
X191498Y280423D01*
X191220Y280595D01*
X190919Y280736D01*
X190595Y280846D01*
X190248Y280924D01*
X189877Y280971D01*
X189484Y280987D01*
X189125Y280966D01*
X188768Y280905D01*
X188412Y280802D01*
X188056Y280658D01*
X187702Y280474D01*
X187347Y280250D01*
X186992Y279986D01*
X186637Y279682D01*
X186234Y279284D01*
X185733Y278738D01*
X185135Y278044D01*
X184439Y277203D01*
X184037Y276725D01*
X183656Y276299D01*
X183295Y275924D01*
X182954Y275600D01*
X182627Y275323D01*
X182305Y275088D01*
X181990Y274894D01*
X181680Y274742D01*
X181680Y281179D01*
X180340Y281179D01*
X180340Y273008D01*
X181452Y273008D01*
X181950Y273243D01*
G37*
G36*
X92951Y260054D02*
X93305Y260073D01*
X93649Y260104D01*
X93983Y260147D01*
X94307Y260203D01*
X94621Y260272D01*
X94925Y260353D01*
X95219Y260446D01*
X95503Y260552D01*
X95777Y260670D01*
X96295Y260944D01*
X96774Y261268D01*
X97212Y261642D01*
X97604Y262059D01*
X97944Y262515D01*
X98094Y262758D01*
X98231Y263010D01*
X98355Y263271D01*
X98466Y263542D01*
X98565Y263823D01*
X98649Y264113D01*
X98721Y264413D01*
X98780Y264723D01*
X98826Y265042D01*
X98859Y265370D01*
X98878Y265708D01*
X98885Y266056D01*
X98873Y266539D01*
X98837Y267001D01*
X98776Y267443D01*
X98692Y267865D01*
X98584Y268266D01*
X98451Y268648D01*
X98295Y269009D01*
X98114Y269349D01*
X97910Y269669D01*
X97682Y269967D01*
X97431Y270243D01*
X97157Y270497D01*
X96860Y270729D01*
X96539Y270939D01*
X96195Y271127D01*
X95828Y271294D01*
X95302Y269708D01*
X95564Y269593D01*
X95809Y269461D01*
X96039Y269313D01*
X96253Y269149D01*
X96451Y268968D01*
X96633Y268772D01*
X96799Y268558D01*
X96949Y268329D01*
X97083Y268086D01*
X97198Y267832D01*
X97296Y267566D01*
X97376Y267290D01*
X97438Y267003D01*
X97483Y266704D01*
X97509Y266394D01*
X97518Y266074D01*
X97498Y265576D01*
X97436Y265106D01*
X97333Y264665D01*
X97189Y264252D01*
X97003Y263868D01*
X96777Y263512D01*
X96509Y263184D01*
X96200Y262886D01*
X95855Y262619D01*
X95480Y262387D01*
X95074Y262192D01*
X94638Y262032D01*
X94171Y261907D01*
X93674Y261818D01*
X93146Y261765D01*
X92587Y261747D01*
X92034Y261765D01*
X91509Y261821D01*
X91011Y261914D01*
X90541Y262044D01*
X90099Y262211D01*
X89685Y262414D01*
X89298Y262656D01*
X88939Y262934D01*
X88616Y263243D01*
X88336Y263579D01*
X88099Y263941D01*
X87905Y264330D01*
X87754Y264744D01*
X87646Y265184D01*
X87581Y265651D01*
X87560Y266144D01*
X87570Y266463D01*
X87600Y266772D01*
X87650Y267071D01*
X87720Y267360D01*
X87811Y267638D01*
X87921Y267907D01*
X88051Y268166D01*
X88201Y268414D01*
X88372Y268653D01*
X88562Y268881D01*
X88773Y269100D01*
X89003Y269308D01*
X89254Y269507D01*
X89525Y269695D01*
X89815Y269873D01*
X90126Y270041D01*
X89443Y271408D01*
X89056Y271207D01*
X88694Y270988D01*
X88355Y270749D01*
X88039Y270491D01*
X87748Y270214D01*
X87481Y269917D01*
X87237Y269601D01*
X87017Y269266D01*
X86822Y268914D01*
X86653Y268549D01*
X86510Y268169D01*
X86393Y267776D01*
X86302Y267369D01*
X86237Y266948D01*
X86198Y266513D01*
X86185Y266065D01*
X86197Y265606D01*
X86233Y265164D01*
X86294Y264737D01*
X86379Y264325D01*
X86488Y263930D01*
X86621Y263550D01*
X86778Y263186D01*
X86960Y262837D01*
X87164Y262507D01*
X87389Y262197D01*
X87635Y261907D01*
X87902Y261637D01*
X88189Y261388D01*
X88497Y261159D01*
X88826Y260950D01*
X89176Y260762D01*
X89544Y260594D01*
X89929Y260449D01*
X90331Y260327D01*
X90749Y260226D01*
X91184Y260148D01*
X91635Y260092D01*
X92103Y260059D01*
X92587Y260048D01*
X92951Y260054D01*
G37*
G36*
X87970Y273243D02*
X88437Y273504D01*
X88874Y273789D01*
X89281Y274098D01*
X89664Y274424D01*
X90028Y274758D01*
X90373Y275101D01*
X90700Y275451D01*
X91312Y276158D01*
X91878Y276857D01*
X92421Y277520D01*
X92964Y278114D01*
X93239Y278381D01*
X93520Y278621D01*
X93808Y278834D01*
X94103Y279020D01*
X94410Y279172D01*
X94738Y279280D01*
X95085Y279345D01*
X95451Y279366D01*
X95698Y279357D01*
X95931Y279329D01*
X96149Y279283D01*
X96353Y279218D01*
X96543Y279134D01*
X96719Y279031D01*
X96881Y278910D01*
X97028Y278771D01*
X97159Y278615D01*
X97273Y278444D01*
X97369Y278259D01*
X97448Y278059D01*
X97510Y277845D01*
X97553Y277616D01*
X97580Y277373D01*
X97588Y277116D01*
X97580Y276869D01*
X97554Y276634D01*
X97511Y276410D01*
X97452Y276197D01*
X97375Y275995D01*
X97281Y275804D01*
X97169Y275624D01*
X97041Y275456D01*
X96897Y275301D01*
X96740Y275163D01*
X96568Y275042D01*
X96383Y274938D01*
X96184Y274851D01*
X95971Y274780D01*
X95744Y274726D01*
X95504Y274689D01*
X95653Y273078D01*
X96013Y273136D01*
X96355Y273222D01*
X96678Y273337D01*
X96982Y273480D01*
X97267Y273651D01*
X97533Y273850D01*
X97780Y274078D01*
X98009Y274335D01*
X98214Y274615D01*
X98392Y274914D01*
X98543Y275233D01*
X98666Y275571D01*
X98762Y275928D01*
X98830Y276305D01*
X98871Y276700D01*
X98885Y277116D01*
X98871Y277568D01*
X98830Y277994D01*
X98761Y278393D01*
X98665Y278765D01*
X98541Y279110D01*
X98390Y279429D01*
X98211Y279720D01*
X98004Y279984D01*
X97773Y280219D01*
X97518Y280423D01*
X97240Y280595D01*
X96939Y280736D01*
X96615Y280846D01*
X96268Y280924D01*
X95897Y280971D01*
X95504Y280987D01*
X95145Y280966D01*
X94788Y280905D01*
X94432Y280802D01*
X94076Y280658D01*
X93722Y280474D01*
X93367Y280250D01*
X93012Y279986D01*
X92657Y279682D01*
X92254Y279284D01*
X91753Y278738D01*
X91155Y278044D01*
X90459Y277203D01*
X90057Y276725D01*
X89676Y276299D01*
X89315Y275924D01*
X88974Y275600D01*
X88647Y275323D01*
X88325Y275088D01*
X88010Y274894D01*
X87700Y274742D01*
X87700Y281179D01*
X86360Y281179D01*
X86360Y273008D01*
X87472Y273008D01*
X87970Y273243D01*
G37*
G36*
X98701Y291148D02*
X97422Y291148D01*
X96055Y290272D01*
X94845Y289534D01*
X93791Y288936D01*
X92894Y288477D01*
X92078Y288111D01*
X91267Y287795D01*
X90462Y287527D01*
X89662Y287308D01*
X88858Y287137D01*
X88039Y287015D01*
X87207Y286942D01*
X86785Y286924D01*
X86360Y286918D01*
X86360Y285271D01*
X86955Y285287D01*
X87558Y285334D01*
X88169Y285412D01*
X88787Y285522D01*
X89414Y285663D01*
X90048Y285835D01*
X90690Y286039D01*
X91339Y286274D01*
X92005Y286546D01*
X92696Y286860D01*
X93412Y287215D01*
X94152Y287613D01*
X94917Y288053D01*
X95707Y288535D01*
X96521Y289058D01*
X97361Y289624D01*
X97361Y282994D01*
X98701Y282994D01*
X98701Y291148D01*
G37*
G36*
X110731Y394801D02*
X110985Y394820D01*
X111230Y394852D01*
X111467Y394896D01*
X111917Y395023D01*
X112333Y395200D01*
X112716Y395428D01*
X113066Y395706D01*
X113383Y396035D01*
X113666Y396415D01*
X113917Y396844D01*
X114134Y397318D01*
X114318Y397840D01*
X114468Y398408D01*
X114585Y399022D01*
X114668Y399683D01*
X114718Y400391D01*
X114735Y401145D01*
X114719Y401915D01*
X114670Y402635D01*
X114589Y403305D01*
X114476Y403926D01*
X114330Y404496D01*
X114151Y405017D01*
X113940Y405488D01*
X113697Y405909D01*
X113419Y406281D01*
X113103Y406603D01*
X112749Y406875D01*
X112358Y407098D01*
X111929Y407272D01*
X111701Y407340D01*
X111463Y407396D01*
X111215Y407439D01*
X110959Y407470D01*
X110693Y407489D01*
X110417Y407495D01*
X110149Y407488D01*
X109890Y407470D01*
X109639Y407438D01*
X109398Y407395D01*
X109166Y407338D01*
X108942Y407269D01*
X108522Y407094D01*
X108137Y406869D01*
X107789Y406593D01*
X107476Y406268D01*
X107198Y405892D01*
X106955Y405467D01*
X106744Y404994D01*
X106566Y404473D01*
X106420Y403904D01*
X106306Y403286D01*
X106225Y402621D01*
X106177Y401907D01*
X106160Y401145D01*
X106177Y400395D01*
X106229Y399690D01*
X106314Y399032D01*
X106433Y398419D01*
X106586Y397851D01*
X106774Y397330D01*
X106995Y396854D01*
X107251Y396424D01*
X107540Y396042D01*
X107861Y395711D01*
X108215Y395431D01*
X108601Y395202D01*
X109019Y395024D01*
X109470Y394897D01*
X109708Y394852D01*
X109954Y394820D01*
X110208Y394801D01*
X110470Y394795D01*
X110731Y394801D01*
G37*
%LPC*%
G36*
X110116Y396102D02*
X109802Y396160D01*
X109512Y396257D01*
X109246Y396393D01*
X109002Y396568D01*
X108782Y396782D01*
X108585Y397035D01*
X108411Y397326D01*
X108259Y397658D01*
X108128Y398031D01*
X108016Y398446D01*
X107925Y398903D01*
X107854Y399401D01*
X107804Y399940D01*
X107773Y400522D01*
X107763Y401145D01*
X107773Y401790D01*
X107802Y402388D01*
X107850Y402941D01*
X107918Y403448D01*
X108004Y403909D01*
X108111Y404324D01*
X108236Y404693D01*
X108381Y405016D01*
X108548Y405297D01*
X108739Y405541D01*
X108956Y405747D01*
X109198Y405916D01*
X109466Y406047D01*
X109758Y406141D01*
X110075Y406197D01*
X110417Y406216D01*
X110768Y406197D01*
X111093Y406142D01*
X111392Y406050D01*
X111666Y405920D01*
X111915Y405754D01*
X112137Y405551D01*
X112334Y405311D01*
X112506Y405034D01*
X112655Y404714D01*
X112784Y404347D01*
X112893Y403932D01*
X112982Y403470D01*
X113052Y402960D01*
X113101Y402403D01*
X113131Y401798D01*
X113141Y401145D01*
X113131Y400510D01*
X113101Y399919D01*
X113050Y399372D01*
X112980Y398870D01*
X112889Y398411D01*
X112779Y397997D01*
X112648Y397626D01*
X112497Y397300D01*
X112324Y397014D01*
X112128Y396767D01*
X111908Y396558D01*
X111664Y396387D01*
X111397Y396254D01*
X111105Y396158D01*
X110791Y396101D01*
X110452Y396082D01*
X110116Y396102D01*
G37*
%LPD*%
G36*
X131384Y400094D02*
X135229Y400094D01*
X135229Y394970D01*
X136902Y394970D01*
X136902Y407311D01*
X131095Y407311D01*
X130589Y407296D01*
X130112Y407252D01*
X129665Y407180D01*
X129248Y407078D01*
X128860Y406946D01*
X128503Y406786D01*
X128174Y406597D01*
X127876Y406378D01*
X127610Y406133D01*
X127380Y405866D01*
X127185Y405576D01*
X127025Y405262D01*
X126901Y404926D01*
X126813Y404567D01*
X126760Y404186D01*
X126742Y403781D01*
X126754Y403444D01*
X126792Y403121D01*
X126855Y402811D01*
X126942Y402515D01*
X127055Y402233D01*
X127193Y401965D01*
X127355Y401710D01*
X127543Y401469D01*
X127753Y401245D01*
X127982Y401044D01*
X128230Y400863D01*
X128341Y400797D01*
X128497Y400705D01*
X128783Y400568D01*
X129088Y400452D01*
X129412Y400359D01*
X129755Y400286D01*
X128263Y398023D01*
X126251Y394970D01*
X128178Y394970D01*
X131384Y400094D01*
G37*
%LPC*%
G36*
X131191Y401416D02*
X130870Y401426D01*
X130567Y401455D01*
X130284Y401503D01*
X130019Y401571D01*
X129772Y401657D01*
X129545Y401764D01*
X129336Y401889D01*
X129146Y402034D01*
X128977Y402196D01*
X128830Y402373D01*
X128706Y402566D01*
X128604Y402775D01*
X128525Y402999D01*
X128469Y403238D01*
X128435Y403493D01*
X128423Y403764D01*
X128435Y404025D01*
X128469Y404270D01*
X128526Y404500D01*
X128606Y404713D01*
X128709Y404910D01*
X128835Y405091D01*
X128983Y405257D01*
X129155Y405406D01*
X129348Y405538D01*
X129561Y405653D01*
X129794Y405750D01*
X130047Y405830D01*
X130320Y405891D01*
X130614Y405935D01*
X130928Y405962D01*
X131261Y405971D01*
X135229Y405971D01*
X135229Y401416D01*
X131191Y401416D01*
G37*
%LPD*%
G36*
X124038Y396310D02*
X120894Y396310D01*
X120894Y405804D01*
X123679Y403816D01*
X123679Y405305D01*
X120762Y407311D01*
X119308Y407311D01*
X119308Y396310D01*
X116304Y396310D01*
X116304Y394970D01*
X124038Y394970D01*
X124038Y396310D01*
G37*
G36*
X246954Y443274D02*
X250799Y443274D01*
X250799Y438150D01*
X252472Y438150D01*
X252472Y450491D01*
X246665Y450491D01*
X246159Y450476D01*
X245682Y450432D01*
X245235Y450360D01*
X244818Y450258D01*
X244430Y450126D01*
X244073Y449966D01*
X243744Y449777D01*
X243446Y449558D01*
X243180Y449313D01*
X242950Y449046D01*
X242755Y448756D01*
X242595Y448442D01*
X242471Y448106D01*
X242383Y447747D01*
X242330Y447366D01*
X242312Y446961D01*
X242324Y446624D01*
X242362Y446301D01*
X242425Y445991D01*
X242512Y445695D01*
X242625Y445413D01*
X242763Y445145D01*
X242925Y444890D01*
X243113Y444649D01*
X243323Y444425D01*
X243552Y444224D01*
X243800Y444043D01*
X243911Y443977D01*
X244067Y443885D01*
X244353Y443748D01*
X244658Y443632D01*
X244982Y443539D01*
X245325Y443466D01*
X243833Y441203D01*
X241821Y438150D01*
X243748Y438150D01*
X246954Y443274D01*
G37*
%LPC*%
G36*
X246761Y444596D02*
X246440Y444606D01*
X246137Y444635D01*
X245854Y444683D01*
X245589Y444751D01*
X245342Y444837D01*
X245115Y444944D01*
X244906Y445069D01*
X244716Y445214D01*
X244547Y445376D01*
X244400Y445553D01*
X244276Y445746D01*
X244174Y445955D01*
X244095Y446179D01*
X244039Y446418D01*
X244005Y446673D01*
X243993Y446944D01*
X244005Y447205D01*
X244039Y447450D01*
X244096Y447680D01*
X244176Y447893D01*
X244279Y448090D01*
X244405Y448271D01*
X244553Y448437D01*
X244725Y448586D01*
X244918Y448718D01*
X245131Y448833D01*
X245364Y448930D01*
X245617Y449010D01*
X245890Y449071D01*
X246184Y449115D01*
X246498Y449142D01*
X246831Y449151D01*
X250799Y449151D01*
X250799Y444596D01*
X246761Y444596D01*
G37*
%LPD*%
G36*
X230104Y439262D02*
X229868Y439760D01*
X229608Y440227D01*
X229323Y440664D01*
X229013Y441071D01*
X228687Y441454D01*
X228353Y441818D01*
X228011Y442163D01*
X227660Y442490D01*
X226954Y443102D01*
X226254Y443668D01*
X225592Y444211D01*
X224997Y444754D01*
X224730Y445029D01*
X224490Y445310D01*
X224277Y445598D01*
X224091Y445893D01*
X223939Y446200D01*
X223831Y446528D01*
X223766Y446875D01*
X223745Y447241D01*
X223754Y447488D01*
X223782Y447721D01*
X223829Y447939D01*
X223894Y448143D01*
X223977Y448333D01*
X224080Y448509D01*
X224201Y448671D01*
X224340Y448818D01*
X224497Y448949D01*
X224667Y449063D01*
X224852Y449159D01*
X225052Y449238D01*
X225266Y449300D01*
X225495Y449343D01*
X225738Y449370D01*
X225996Y449378D01*
X226242Y449370D01*
X226477Y449344D01*
X226701Y449301D01*
X226914Y449242D01*
X227116Y449165D01*
X227307Y449071D01*
X227487Y448959D01*
X227656Y448831D01*
X227810Y448687D01*
X227948Y448530D01*
X228069Y448358D01*
X228173Y448173D01*
X228261Y447974D01*
X228331Y447761D01*
X228385Y447534D01*
X228422Y447294D01*
X230033Y447443D01*
X229976Y447803D01*
X229889Y448145D01*
X229775Y448468D01*
X229632Y448772D01*
X229460Y449057D01*
X229261Y449323D01*
X229033Y449570D01*
X228777Y449799D01*
X228497Y450004D01*
X228197Y450182D01*
X227879Y450333D01*
X227541Y450456D01*
X227183Y450552D01*
X226807Y450620D01*
X226411Y450661D01*
X225996Y450675D01*
X225543Y450661D01*
X225117Y450620D01*
X224718Y450551D01*
X224346Y450455D01*
X224001Y450331D01*
X223683Y450180D01*
X223392Y450001D01*
X223127Y449794D01*
X222892Y449563D01*
X222689Y449308D01*
X222516Y449030D01*
X222375Y448729D01*
X222266Y448405D01*
X222187Y448058D01*
X222140Y447687D01*
X222124Y447294D01*
X222145Y446935D01*
X222207Y446578D01*
X222309Y446222D01*
X222453Y445866D01*
X222637Y445512D01*
X222861Y445157D01*
X223125Y444802D01*
X223430Y444447D01*
X223827Y444044D01*
X224373Y443543D01*
X225067Y442945D01*
X225908Y442249D01*
X226386Y441847D01*
X226813Y441466D01*
X227187Y441105D01*
X227511Y440764D01*
X227788Y440437D01*
X228023Y440115D01*
X228217Y439800D01*
X228369Y439490D01*
X221932Y439490D01*
X221932Y438150D01*
X230104Y438150D01*
X230104Y439262D01*
G37*
G36*
X239608Y439490D02*
X236464Y439490D01*
X236464Y448984D01*
X239249Y446996D01*
X239249Y448485D01*
X236332Y450491D01*
X234878Y450491D01*
X234878Y439490D01*
X231874Y439490D01*
X231874Y438150D01*
X239608Y438150D01*
X239608Y439490D01*
G37*
G36*
X453309Y148120D02*
X453752Y148156D01*
X454179Y148217D01*
X454590Y148302D01*
X454986Y148411D01*
X455366Y148544D01*
X455730Y148701D01*
X456078Y148883D01*
X456409Y149087D01*
X456719Y149312D01*
X457009Y149558D01*
X457278Y149825D01*
X457528Y150112D01*
X457757Y150420D01*
X457965Y150749D01*
X458154Y151099D01*
X458321Y151467D01*
X458466Y151852D01*
X458589Y152254D01*
X458689Y152672D01*
X458768Y153107D01*
X458823Y153558D01*
X458857Y154026D01*
X458868Y154510D01*
X458862Y154874D01*
X458843Y155228D01*
X458812Y155572D01*
X458768Y155906D01*
X458712Y156230D01*
X458644Y156544D01*
X458563Y156848D01*
X458469Y157142D01*
X458364Y157426D01*
X458245Y157700D01*
X457971Y158218D01*
X457647Y158697D01*
X457274Y159135D01*
X456856Y159527D01*
X456400Y159867D01*
X456158Y160017D01*
X455906Y160154D01*
X455644Y160278D01*
X455373Y160389D01*
X455093Y160488D01*
X454802Y160572D01*
X454502Y160644D01*
X454193Y160703D01*
X453874Y160749D01*
X453545Y160782D01*
X453207Y160801D01*
X452860Y160808D01*
X452377Y160796D01*
X451915Y160760D01*
X451473Y160699D01*
X451051Y160615D01*
X450649Y160507D01*
X450268Y160374D01*
X449907Y160218D01*
X449566Y160037D01*
X449247Y159833D01*
X448949Y159605D01*
X448673Y159354D01*
X448419Y159080D01*
X448187Y158783D01*
X447977Y158462D01*
X447788Y158118D01*
X447622Y157751D01*
X449207Y157225D01*
X449323Y157487D01*
X449454Y157732D01*
X449602Y157962D01*
X449767Y158176D01*
X449947Y158374D01*
X450144Y158556D01*
X450357Y158722D01*
X450587Y158872D01*
X450830Y159006D01*
X451084Y159121D01*
X451349Y159219D01*
X451626Y159299D01*
X451913Y159361D01*
X452212Y159406D01*
X452521Y159432D01*
X452842Y159441D01*
X453340Y159421D01*
X453810Y159359D01*
X454251Y159256D01*
X454664Y159112D01*
X455048Y158926D01*
X455404Y158700D01*
X455731Y158432D01*
X456030Y158123D01*
X456297Y157778D01*
X456528Y157403D01*
X456724Y156997D01*
X456884Y156561D01*
X457009Y156094D01*
X457098Y155597D01*
X457151Y155069D01*
X457169Y154510D01*
X457150Y153957D01*
X457095Y153432D01*
X457002Y152934D01*
X456872Y152464D01*
X456705Y152022D01*
X456501Y151608D01*
X456260Y151221D01*
X455982Y150862D01*
X455672Y150539D01*
X455336Y150259D01*
X454974Y150022D01*
X454586Y149828D01*
X454172Y149677D01*
X453731Y149569D01*
X453265Y149504D01*
X452772Y149483D01*
X452453Y149493D01*
X452144Y149523D01*
X451845Y149573D01*
X451556Y149643D01*
X451277Y149734D01*
X451009Y149844D01*
X450750Y149974D01*
X450501Y150124D01*
X450263Y150295D01*
X450034Y150485D01*
X449816Y150696D01*
X449607Y150926D01*
X449409Y151177D01*
X449221Y151448D01*
X449043Y151738D01*
X448874Y152049D01*
X447508Y151366D01*
X447708Y150979D01*
X447928Y150617D01*
X448166Y150278D01*
X448424Y149962D01*
X448702Y149671D01*
X448998Y149404D01*
X449314Y149160D01*
X449650Y148940D01*
X450001Y148745D01*
X450367Y148576D01*
X450746Y148433D01*
X451140Y148316D01*
X451547Y148225D01*
X451968Y148160D01*
X452402Y148121D01*
X452851Y148108D01*
X453309Y148120D01*
G37*
G36*
X445908Y149395D02*
X445672Y149893D01*
X445412Y150360D01*
X445127Y150797D01*
X444817Y151204D01*
X444491Y151587D01*
X444157Y151951D01*
X443815Y152296D01*
X443464Y152623D01*
X442758Y153235D01*
X442059Y153801D01*
X441396Y154344D01*
X440802Y154887D01*
X440535Y155162D01*
X440295Y155443D01*
X440082Y155731D01*
X439895Y156026D01*
X439744Y156333D01*
X439636Y156661D01*
X439571Y157008D01*
X439549Y157374D01*
X439559Y157621D01*
X439586Y157854D01*
X439633Y158072D01*
X439698Y158276D01*
X439782Y158466D01*
X439884Y158642D01*
X440005Y158804D01*
X440145Y158951D01*
X440301Y159082D01*
X440472Y159196D01*
X440657Y159292D01*
X440856Y159371D01*
X441071Y159433D01*
X441299Y159476D01*
X441542Y159503D01*
X441800Y159511D01*
X442046Y159503D01*
X442282Y159477D01*
X442506Y159434D01*
X442719Y159375D01*
X442921Y159298D01*
X443111Y159204D01*
X443291Y159092D01*
X443460Y158964D01*
X443615Y158820D01*
X443752Y158663D01*
X443874Y158491D01*
X443978Y158306D01*
X444065Y158107D01*
X444136Y157894D01*
X444189Y157667D01*
X444226Y157427D01*
X445838Y157576D01*
X445780Y157936D01*
X445694Y158278D01*
X445579Y158601D01*
X445436Y158905D01*
X445265Y159190D01*
X445065Y159456D01*
X444837Y159703D01*
X444581Y159932D01*
X444301Y160137D01*
X444002Y160315D01*
X443683Y160466D01*
X443345Y160589D01*
X442988Y160685D01*
X442611Y160753D01*
X442215Y160794D01*
X441800Y160808D01*
X441347Y160794D01*
X440921Y160753D01*
X440522Y160684D01*
X440150Y160588D01*
X439805Y160464D01*
X439487Y160313D01*
X439196Y160134D01*
X438932Y159927D01*
X438697Y159696D01*
X438493Y159441D01*
X438321Y159163D01*
X438180Y158862D01*
X438070Y158538D01*
X437992Y158191D01*
X437945Y157820D01*
X437929Y157427D01*
X437949Y157068D01*
X438011Y156711D01*
X438114Y156355D01*
X438257Y155999D01*
X438442Y155645D01*
X438666Y155290D01*
X438930Y154935D01*
X439234Y154580D01*
X439632Y154177D01*
X440178Y153676D01*
X440871Y153078D01*
X441713Y152382D01*
X442190Y151980D01*
X442617Y151599D01*
X442992Y151238D01*
X443315Y150897D01*
X443592Y150570D01*
X443828Y150248D01*
X444022Y149933D01*
X444174Y149623D01*
X437736Y149623D01*
X437736Y148283D01*
X445908Y148283D01*
X445908Y149395D01*
G37*
G36*
X423541Y195705D02*
X427386Y195705D01*
X427386Y190581D01*
X429059Y190581D01*
X429059Y202922D01*
X423252Y202922D01*
X422745Y202907D01*
X422269Y202863D01*
X421822Y202791D01*
X421405Y202689D01*
X421017Y202557D01*
X420659Y202397D01*
X420331Y202208D01*
X420033Y201989D01*
X419767Y201744D01*
X419537Y201477D01*
X419342Y201187D01*
X419182Y200873D01*
X419058Y200537D01*
X418970Y200178D01*
X418916Y199797D01*
X418899Y199392D01*
X418911Y199055D01*
X418949Y198732D01*
X419011Y198422D01*
X419099Y198126D01*
X419212Y197844D01*
X419349Y197576D01*
X419512Y197321D01*
X419700Y197080D01*
X419910Y196856D01*
X420139Y196655D01*
X420387Y196474D01*
X420498Y196408D01*
X420654Y196316D01*
X420940Y196179D01*
X421245Y196063D01*
X421569Y195970D01*
X421912Y195897D01*
X420420Y193634D01*
X418408Y190581D01*
X420335Y190581D01*
X423541Y195705D01*
G37*
%LPC*%
G36*
X423348Y197027D02*
X423027Y197037D01*
X422724Y197066D01*
X422440Y197114D01*
X422175Y197182D01*
X421929Y197268D01*
X421702Y197375D01*
X421493Y197500D01*
X421303Y197645D01*
X421134Y197807D01*
X420987Y197984D01*
X420863Y198177D01*
X420761Y198386D01*
X420682Y198610D01*
X420625Y198849D01*
X420592Y199104D01*
X420580Y199375D01*
X420592Y199636D01*
X420626Y199881D01*
X420683Y200111D01*
X420763Y200324D01*
X420866Y200521D01*
X420992Y200702D01*
X421140Y200868D01*
X421312Y201017D01*
X421505Y201149D01*
X421718Y201264D01*
X421951Y201361D01*
X422204Y201441D01*
X422477Y201502D01*
X422771Y201546D01*
X423084Y201573D01*
X423418Y201582D01*
X427386Y201582D01*
X427386Y197027D01*
X423348Y197027D01*
G37*
%LPD*%
G36*
X416659Y191693D02*
X416423Y192191D01*
X416163Y192658D01*
X415878Y193095D01*
X415569Y193502D01*
X415243Y193885D01*
X414909Y194249D01*
X414566Y194594D01*
X414216Y194921D01*
X413509Y195533D01*
X412810Y196099D01*
X412147Y196642D01*
X411553Y197185D01*
X411286Y197460D01*
X411046Y197741D01*
X410833Y198029D01*
X410646Y198324D01*
X410495Y198631D01*
X410387Y198959D01*
X410322Y199306D01*
X410300Y199672D01*
X410310Y199919D01*
X410338Y200152D01*
X410384Y200370D01*
X410449Y200574D01*
X410533Y200764D01*
X410635Y200940D01*
X410756Y201102D01*
X410896Y201249D01*
X411052Y201380D01*
X411223Y201494D01*
X411408Y201590D01*
X411608Y201669D01*
X411822Y201731D01*
X412051Y201774D01*
X412294Y201801D01*
X412551Y201809D01*
X412798Y201801D01*
X413033Y201775D01*
X413257Y201732D01*
X413470Y201673D01*
X413672Y201596D01*
X413863Y201502D01*
X414042Y201390D01*
X414211Y201262D01*
X414366Y201118D01*
X414504Y200961D01*
X414625Y200789D01*
X414729Y200604D01*
X414816Y200405D01*
X414887Y200192D01*
X414941Y199965D01*
X414978Y199725D01*
X416589Y199874D01*
X416531Y200234D01*
X416445Y200576D01*
X416330Y200899D01*
X416187Y201203D01*
X416016Y201488D01*
X415816Y201754D01*
X415588Y202001D01*
X415332Y202230D01*
X415052Y202435D01*
X414753Y202613D01*
X414434Y202764D01*
X414096Y202887D01*
X413739Y202983D01*
X413362Y203051D01*
X412967Y203092D01*
X412551Y203106D01*
X412098Y203092D01*
X411673Y203051D01*
X411274Y202982D01*
X410902Y202886D01*
X410556Y202762D01*
X410238Y202611D01*
X409947Y202432D01*
X409683Y202225D01*
X409448Y201994D01*
X409244Y201739D01*
X409072Y201461D01*
X408931Y201160D01*
X408821Y200836D01*
X408743Y200489D01*
X408696Y200118D01*
X408680Y199725D01*
X408701Y199366D01*
X408762Y199009D01*
X408865Y198653D01*
X409009Y198297D01*
X409193Y197943D01*
X409417Y197588D01*
X409681Y197233D01*
X409985Y196878D01*
X410383Y196475D01*
X410929Y195974D01*
X411622Y195376D01*
X412464Y194680D01*
X412942Y194278D01*
X413368Y193897D01*
X413743Y193536D01*
X414067Y193195D01*
X414344Y192868D01*
X414579Y192546D01*
X414773Y192231D01*
X414925Y191921D01*
X408487Y191921D01*
X408487Y190581D01*
X416659Y190581D01*
X416659Y191693D01*
G37*
G36*
X406226Y191921D02*
X403082Y191921D01*
X403082Y201415D01*
X405867Y199427D01*
X405867Y200916D01*
X402951Y202922D01*
X401497Y202922D01*
X401497Y191921D01*
X398492Y191921D01*
X398492Y190581D01*
X406226Y190581D01*
X406226Y191921D01*
G37*
G36*
X278704Y373424D02*
X282549Y373424D01*
X282549Y368300D01*
X284222Y368300D01*
X284222Y380641D01*
X278415Y380641D01*
X277909Y380626D01*
X277432Y380582D01*
X276985Y380510D01*
X276568Y380408D01*
X276180Y380276D01*
X275823Y380116D01*
X275494Y379927D01*
X275196Y379708D01*
X274930Y379463D01*
X274700Y379196D01*
X274505Y378906D01*
X274345Y378592D01*
X274221Y378256D01*
X274133Y377897D01*
X274080Y377516D01*
X274062Y377111D01*
X274074Y376774D01*
X274112Y376451D01*
X274175Y376141D01*
X274262Y375845D01*
X274375Y375563D01*
X274513Y375295D01*
X274675Y375040D01*
X274863Y374799D01*
X275073Y374575D01*
X275302Y374374D01*
X275550Y374193D01*
X275661Y374127D01*
X275817Y374035D01*
X276103Y373898D01*
X276408Y373782D01*
X276732Y373689D01*
X277075Y373616D01*
X275583Y371353D01*
X273571Y368300D01*
X275498Y368300D01*
X278704Y373424D01*
G37*
%LPC*%
G36*
X278511Y374746D02*
X278190Y374756D01*
X277887Y374785D01*
X277604Y374833D01*
X277339Y374901D01*
X277092Y374987D01*
X276865Y375094D01*
X276656Y375219D01*
X276466Y375364D01*
X276297Y375526D01*
X276150Y375703D01*
X276026Y375896D01*
X275924Y376105D01*
X275845Y376329D01*
X275789Y376568D01*
X275755Y376823D01*
X275743Y377094D01*
X275755Y377355D01*
X275789Y377600D01*
X275846Y377830D01*
X275926Y378043D01*
X276029Y378240D01*
X276155Y378421D01*
X276303Y378587D01*
X276475Y378736D01*
X276668Y378868D01*
X276881Y378983D01*
X277114Y379080D01*
X277367Y379160D01*
X277640Y379221D01*
X277934Y379265D01*
X278248Y379292D01*
X278581Y379301D01*
X282549Y379301D01*
X282549Y374746D01*
X278511Y374746D01*
G37*
%LPD*%
G36*
X261854Y369412D02*
X261618Y369910D01*
X261358Y370377D01*
X261073Y370814D01*
X260763Y371221D01*
X260437Y371604D01*
X260103Y371968D01*
X259761Y372313D01*
X259410Y372640D01*
X258704Y373252D01*
X258004Y373818D01*
X257342Y374361D01*
X256747Y374904D01*
X256480Y375179D01*
X256240Y375460D01*
X256027Y375748D01*
X255841Y376043D01*
X255689Y376350D01*
X255581Y376678D01*
X255516Y377025D01*
X255495Y377391D01*
X255504Y377638D01*
X255532Y377871D01*
X255579Y378089D01*
X255644Y378293D01*
X255727Y378483D01*
X255830Y378659D01*
X255951Y378821D01*
X256090Y378968D01*
X256247Y379099D01*
X256417Y379213D01*
X256602Y379309D01*
X256802Y379388D01*
X257016Y379450D01*
X257245Y379493D01*
X257488Y379520D01*
X257746Y379528D01*
X257992Y379520D01*
X258227Y379494D01*
X258451Y379451D01*
X258664Y379392D01*
X258866Y379315D01*
X259057Y379221D01*
X259237Y379109D01*
X259406Y378981D01*
X259560Y378837D01*
X259698Y378680D01*
X259819Y378508D01*
X259923Y378323D01*
X260011Y378124D01*
X260081Y377911D01*
X260135Y377684D01*
X260172Y377444D01*
X261783Y377593D01*
X261726Y377953D01*
X261639Y378295D01*
X261525Y378618D01*
X261382Y378922D01*
X261210Y379207D01*
X261011Y379473D01*
X260783Y379720D01*
X260527Y379949D01*
X260247Y380154D01*
X259947Y380332D01*
X259629Y380483D01*
X259291Y380606D01*
X258933Y380702D01*
X258557Y380770D01*
X258161Y380811D01*
X257746Y380825D01*
X257293Y380811D01*
X256867Y380770D01*
X256468Y380701D01*
X256096Y380605D01*
X255751Y380481D01*
X255433Y380330D01*
X255142Y380151D01*
X254877Y379944D01*
X254642Y379713D01*
X254439Y379458D01*
X254266Y379180D01*
X254125Y378879D01*
X254016Y378555D01*
X253937Y378208D01*
X253890Y377837D01*
X253874Y377444D01*
X253895Y377085D01*
X253957Y376728D01*
X254059Y376372D01*
X254203Y376016D01*
X254387Y375662D01*
X254611Y375307D01*
X254875Y374952D01*
X255180Y374597D01*
X255577Y374194D01*
X256123Y373693D01*
X256817Y373095D01*
X257658Y372399D01*
X258136Y371997D01*
X258563Y371616D01*
X258937Y371255D01*
X259261Y370914D01*
X259538Y370587D01*
X259773Y370265D01*
X259967Y369950D01*
X260119Y369640D01*
X253682Y369640D01*
X253682Y368300D01*
X261854Y368300D01*
X261854Y369412D01*
G37*
G36*
X271822Y369412D02*
X271587Y369910D01*
X271326Y370377D01*
X271041Y370814D01*
X270732Y371221D01*
X270406Y371604D01*
X270072Y371968D01*
X269729Y372313D01*
X269379Y372640D01*
X268672Y373252D01*
X267973Y373818D01*
X267311Y374361D01*
X266716Y374904D01*
X266449Y375179D01*
X266209Y375460D01*
X265996Y375748D01*
X265810Y376043D01*
X265658Y376350D01*
X265550Y376678D01*
X265485Y377025D01*
X265464Y377391D01*
X265473Y377638D01*
X265501Y377871D01*
X265547Y378089D01*
X265612Y378293D01*
X265696Y378483D01*
X265799Y378659D01*
X265920Y378821D01*
X266059Y378968D01*
X266215Y379099D01*
X266386Y379213D01*
X266571Y379309D01*
X266771Y379388D01*
X266985Y379450D01*
X267214Y379493D01*
X267457Y379520D01*
X267715Y379528D01*
X267961Y379520D01*
X268196Y379494D01*
X268420Y379451D01*
X268633Y379392D01*
X268835Y379315D01*
X269026Y379221D01*
X269206Y379109D01*
X269374Y378981D01*
X269529Y378837D01*
X269667Y378680D01*
X269788Y378508D01*
X269892Y378323D01*
X269979Y378124D01*
X270050Y377911D01*
X270104Y377684D01*
X270141Y377444D01*
X271752Y377593D01*
X271694Y377953D01*
X271608Y378295D01*
X271493Y378618D01*
X271350Y378922D01*
X271179Y379207D01*
X270980Y379473D01*
X270752Y379720D01*
X270495Y379949D01*
X270215Y380154D01*
X269916Y380332D01*
X269597Y380483D01*
X269259Y380606D01*
X268902Y380702D01*
X268526Y380770D01*
X268130Y380811D01*
X267715Y380825D01*
X267262Y380811D01*
X266836Y380770D01*
X266437Y380701D01*
X266065Y380605D01*
X265720Y380481D01*
X265401Y380330D01*
X265110Y380151D01*
X264846Y379944D01*
X264611Y379713D01*
X264407Y379458D01*
X264235Y379180D01*
X264094Y378879D01*
X263984Y378555D01*
X263906Y378208D01*
X263859Y377837D01*
X263843Y377444D01*
X263864Y377085D01*
X263925Y376728D01*
X264028Y376372D01*
X264172Y376016D01*
X264356Y375662D01*
X264580Y375307D01*
X264844Y374952D01*
X265148Y374597D01*
X265546Y374194D01*
X266092Y373693D01*
X266786Y373095D01*
X267627Y372399D01*
X268105Y371997D01*
X268531Y371616D01*
X268906Y371255D01*
X269230Y370914D01*
X269507Y370587D01*
X269742Y370265D01*
X269936Y369950D01*
X270088Y369640D01*
X263651Y369640D01*
X263651Y368300D01*
X271822Y368300D01*
X271822Y369412D01*
G37*
G36*
X690880Y230008D02*
X691129Y230026D01*
X691604Y230099D01*
X692049Y230220D01*
X692462Y230389D01*
X692846Y230607D01*
X693198Y230874D01*
X693520Y231189D01*
X693811Y231552D01*
X694070Y231962D01*
X694294Y232415D01*
X694484Y232913D01*
X694639Y233455D01*
X694760Y234041D01*
X694846Y234671D01*
X694898Y235345D01*
X694915Y236063D01*
X694897Y236841D01*
X694843Y237572D01*
X694753Y238258D01*
X694628Y238896D01*
X694467Y239488D01*
X694269Y240034D01*
X694036Y240533D01*
X693767Y240985D01*
X693465Y241387D01*
X693133Y241736D01*
X692770Y242031D01*
X692377Y242273D01*
X691953Y242460D01*
X691730Y242534D01*
X691499Y242594D01*
X691261Y242641D01*
X691015Y242675D01*
X690762Y242695D01*
X690500Y242702D01*
X690159Y242692D01*
X689834Y242662D01*
X689525Y242613D01*
X689233Y242545D01*
X688956Y242456D01*
X688696Y242348D01*
X688451Y242221D01*
X688223Y242073D01*
X688011Y241906D01*
X687815Y241720D01*
X687636Y241514D01*
X687472Y241288D01*
X687325Y241042D01*
X687194Y240777D01*
X687078Y240492D01*
X686980Y240188D01*
X688486Y239917D01*
X688619Y240270D01*
X688787Y240576D01*
X688989Y240835D01*
X689226Y241046D01*
X689497Y241211D01*
X689803Y241329D01*
X690143Y241399D01*
X690518Y241423D01*
X690846Y241403D01*
X691154Y241344D01*
X691444Y241246D01*
X691715Y241109D01*
X691966Y240932D01*
X692199Y240716D01*
X692412Y240461D01*
X692607Y240166D01*
X692780Y239834D01*
X692931Y239467D01*
X693058Y239065D01*
X693162Y238628D01*
X693243Y238155D01*
X693301Y237648D01*
X693335Y237105D01*
X693347Y236527D01*
X693111Y236902D01*
X692830Y237229D01*
X692506Y237508D01*
X692138Y237740D01*
X691734Y237922D01*
X691302Y238052D01*
X691075Y238098D01*
X690841Y238130D01*
X690600Y238150D01*
X690352Y238156D01*
X689936Y238139D01*
X689542Y238089D01*
X689170Y238006D01*
X688820Y237889D01*
X688492Y237739D01*
X688186Y237555D01*
X687903Y237338D01*
X687641Y237087D01*
X687406Y236809D01*
X687202Y236507D01*
X687030Y236183D01*
X686889Y235835D01*
X686779Y235464D01*
X686701Y235071D01*
X686654Y234654D01*
X686638Y234215D01*
X686655Y233739D01*
X686704Y233290D01*
X686787Y232866D01*
X686903Y232467D01*
X687052Y232095D01*
X687234Y231748D01*
X687449Y231427D01*
X687698Y231132D01*
X687975Y230867D01*
X688278Y230637D01*
X688606Y230443D01*
X688959Y230284D01*
X689337Y230161D01*
X689741Y230072D01*
X690169Y230020D01*
X690623Y230002D01*
X690880Y230008D01*
G37*
%LPC*%
G36*
X690399Y231284D02*
X690137Y231320D01*
X689891Y231380D01*
X689660Y231463D01*
X689444Y231571D01*
X689244Y231703D01*
X689059Y231859D01*
X688889Y232038D01*
X688737Y232239D01*
X688605Y232457D01*
X688494Y232694D01*
X688403Y232948D01*
X688332Y233220D01*
X688281Y233510D01*
X688251Y233819D01*
X688241Y234145D01*
X688251Y234470D01*
X688282Y234776D01*
X688333Y235063D01*
X688405Y235331D01*
X688497Y235580D01*
X688610Y235810D01*
X688744Y236020D01*
X688898Y236212D01*
X689070Y236382D01*
X689258Y236530D01*
X689463Y236655D01*
X689684Y236757D01*
X689921Y236836D01*
X690174Y236893D01*
X690443Y236927D01*
X690728Y236939D01*
X690997Y236929D01*
X691253Y236898D01*
X691496Y236848D01*
X691726Y236778D01*
X691942Y236687D01*
X692145Y236576D01*
X692334Y236446D01*
X692511Y236295D01*
X692670Y236126D01*
X692808Y235943D01*
X692924Y235744D01*
X693020Y235530D01*
X693094Y235300D01*
X693147Y235056D01*
X693179Y234796D01*
X693189Y234521D01*
X693178Y234172D01*
X693145Y233840D01*
X693090Y233523D01*
X693013Y233223D01*
X692914Y232939D01*
X692793Y232670D01*
X692650Y232419D01*
X692484Y232183D01*
X692302Y231969D01*
X692107Y231784D01*
X691899Y231628D01*
X691680Y231500D01*
X691447Y231400D01*
X691203Y231329D01*
X690945Y231286D01*
X690676Y231272D01*
X690399Y231284D01*
G37*
%LPD*%
G36*
X712294Y230014D02*
X712736Y230050D01*
X713164Y230111D01*
X713575Y230196D01*
X713970Y230305D01*
X714350Y230438D01*
X714714Y230595D01*
X715063Y230777D01*
X715393Y230981D01*
X715703Y231206D01*
X715993Y231452D01*
X716263Y231719D01*
X716512Y232006D01*
X716741Y232314D01*
X716950Y232643D01*
X717138Y232993D01*
X717306Y233361D01*
X717451Y233746D01*
X717573Y234148D01*
X717674Y234566D01*
X717752Y235001D01*
X717808Y235452D01*
X717841Y235920D01*
X717852Y236404D01*
X717846Y236768D01*
X717827Y237122D01*
X717796Y237466D01*
X717753Y237800D01*
X717697Y238124D01*
X717628Y238438D01*
X717547Y238742D01*
X717454Y239036D01*
X717348Y239320D01*
X717230Y239594D01*
X716956Y240112D01*
X716632Y240591D01*
X716258Y241029D01*
X715841Y241421D01*
X715385Y241761D01*
X715142Y241911D01*
X714890Y242048D01*
X714629Y242172D01*
X714358Y242283D01*
X714077Y242382D01*
X713787Y242466D01*
X713487Y242538D01*
X713177Y242597D01*
X712858Y242643D01*
X712530Y242676D01*
X712192Y242695D01*
X711844Y242702D01*
X711361Y242690D01*
X710899Y242654D01*
X710457Y242593D01*
X710035Y242509D01*
X709634Y242401D01*
X709252Y242268D01*
X708891Y242112D01*
X708551Y241931D01*
X708231Y241727D01*
X707933Y241499D01*
X707657Y241248D01*
X707403Y240974D01*
X707171Y240677D01*
X706961Y240356D01*
X706773Y240012D01*
X706606Y239645D01*
X708192Y239119D01*
X708307Y239381D01*
X708439Y239626D01*
X708587Y239856D01*
X708751Y240070D01*
X708932Y240268D01*
X709128Y240450D01*
X709342Y240616D01*
X709571Y240766D01*
X709814Y240900D01*
X710068Y241015D01*
X710334Y241113D01*
X710610Y241193D01*
X710898Y241255D01*
X711196Y241300D01*
X711506Y241326D01*
X711826Y241335D01*
X712325Y241315D01*
X712794Y241253D01*
X713235Y241150D01*
X713648Y241006D01*
X714032Y240820D01*
X714388Y240594D01*
X714716Y240326D01*
X715014Y240017D01*
X715281Y239672D01*
X715513Y239297D01*
X715708Y238891D01*
X715868Y238455D01*
X715993Y237988D01*
X716082Y237491D01*
X716135Y236963D01*
X716153Y236404D01*
X716135Y235851D01*
X716079Y235326D01*
X715986Y234828D01*
X715856Y234358D01*
X715690Y233916D01*
X715486Y233502D01*
X715244Y233115D01*
X714966Y232756D01*
X714657Y232433D01*
X714321Y232153D01*
X713959Y231916D01*
X713570Y231722D01*
X713156Y231571D01*
X712716Y231463D01*
X712249Y231398D01*
X711756Y231377D01*
X711437Y231387D01*
X711128Y231417D01*
X710829Y231467D01*
X710541Y231537D01*
X710262Y231628D01*
X709993Y231738D01*
X709734Y231868D01*
X709486Y232018D01*
X709247Y232189D01*
X709019Y232379D01*
X708800Y232590D01*
X708592Y232820D01*
X708393Y233071D01*
X708205Y233342D01*
X708027Y233632D01*
X707859Y233943D01*
X706492Y233260D01*
X706693Y232873D01*
X706912Y232511D01*
X707151Y232172D01*
X707409Y231856D01*
X707686Y231565D01*
X707983Y231298D01*
X708299Y231054D01*
X708634Y230834D01*
X708986Y230639D01*
X709351Y230470D01*
X709731Y230327D01*
X710124Y230210D01*
X710531Y230119D01*
X710952Y230054D01*
X711387Y230015D01*
X711835Y230002D01*
X712294Y230014D01*
G37*
G36*
X704428Y231517D02*
X701284Y231517D01*
X701284Y241011D01*
X704069Y239023D01*
X704069Y240512D01*
X701152Y242518D01*
X699698Y242518D01*
X699698Y231517D01*
X696694Y231517D01*
X696694Y230177D01*
X704428Y230177D01*
X704428Y231517D01*
G37*
D10*
X750363Y352570D02*
X750363Y386570D01*
D11*
X783797Y386570D02*
X783797Y352570D01*
D10*
X783797Y399560D02*
X783797Y433560D01*
D11*
X750363Y433560D02*
X750363Y399560D01*
D10*
X679940Y439213D02*
X645940Y439213D01*
D11*
X645940Y472647D02*
X679940Y472647D01*
D10*
X679940Y388413D02*
X645940Y388413D01*
D11*
X645940Y421847D02*
X679940Y421847D01*
D10*
X679940Y478583D02*
X645940Y478583D01*
D11*
X645940Y512017D02*
X679940Y512017D01*
D12*
X709750Y91175D03*
D11*
X704710Y89275D02*
X687210Y89275D01*
X687210Y58045D02*
X704710Y58045D01*
D10*
X436799Y220390D02*
X436799Y241890D01*
X457281Y241890D02*
X457281Y220390D01*
X271580Y806738D02*
X295622Y830780D01*
D11*
X271980Y854422D02*
X247939Y830380D01*
D10*
X232610Y815052D02*
X208569Y791010D01*
D11*
X232210Y767368D02*
X256252Y791410D01*
D10*
X504397Y822470D02*
X504397Y856470D01*
D11*
X470963Y856470D02*
X470963Y822470D01*
D10*
X178007Y292590D02*
X178007Y258590D01*
D11*
X144573Y258590D02*
X144573Y292590D01*
D10*
X134827Y292590D02*
X134827Y258590D01*
D11*
X101393Y258590D02*
X101393Y292590D01*
D10*
X104920Y435127D02*
X138920Y435127D01*
X138920Y410693D02*
X104920Y410693D01*
X220490Y410693D02*
X254490Y410693D01*
X254490Y435127D02*
X220490Y435127D01*
X437310Y163523D02*
X459310Y163523D01*
X459310Y184457D02*
X437310Y184457D01*
X437560Y207091D02*
X459060Y207091D01*
X459060Y186609D02*
X437560Y186609D01*
X281160Y384023D02*
X247160Y384023D01*
X247160Y408457D02*
X281160Y408457D01*
X691310Y206703D02*
X713310Y206703D01*
X713310Y227637D02*
X691310Y227637D01*
M02*
